G75*
%MOIN*%
%OFA0B0*%
%FSLAX25Y25*%
%IPPOS*%
%LPD*%
%AMOC8*
5,1,8,0,0,1.08239X$1,22.5*
%
%ADD10C,0.00200*%
%ADD11C,0.01600*%
%ADD12C,0.00600*%
%ADD13C,0.00300*%
%ADD14R,0.20300X0.00100*%
%ADD15R,0.00200X0.00100*%
%ADD16R,0.01100X0.00100*%
%ADD17R,0.15000X0.00100*%
%ADD18R,0.20200X0.00100*%
%ADD19R,0.00100X0.00100*%
%ADD20R,0.00700X0.00100*%
%ADD21R,0.14900X0.00100*%
%ADD22R,0.00900X0.00100*%
%ADD23R,0.14800X0.00100*%
%ADD24R,0.01200X0.00100*%
%ADD25R,0.20100X0.00100*%
%ADD26R,0.14700X0.00100*%
%ADD27R,0.00300X0.00100*%
%ADD28R,0.00400X0.00100*%
%ADD29R,0.20000X0.00100*%
%ADD30R,0.00500X0.00100*%
%ADD31R,0.01300X0.00100*%
%ADD32R,0.14300X0.00100*%
%ADD33R,0.00600X0.00100*%
%ADD34R,0.14200X0.00100*%
%ADD35R,0.19900X0.00100*%
%ADD36R,0.19800X0.00100*%
%ADD37R,0.19700X0.00100*%
%ADD38R,0.00800X0.00100*%
%ADD39R,0.14100X0.00100*%
%ADD40R,0.19600X0.00100*%
%ADD41R,0.14000X0.00100*%
%ADD42R,0.19500X0.00100*%
%ADD43R,0.01500X0.00100*%
%ADD44R,0.13800X0.00100*%
%ADD45R,0.19400X0.00100*%
%ADD46R,0.02500X0.00100*%
%ADD47R,0.18800X0.00100*%
%ADD48R,0.01400X0.00100*%
%ADD49R,0.02400X0.00100*%
%ADD50R,0.13700X0.00100*%
%ADD51R,0.18700X0.00100*%
%ADD52R,0.01900X0.00100*%
%ADD53R,0.02300X0.00100*%
%ADD54R,0.13400X0.00100*%
%ADD55R,0.18600X0.00100*%
%ADD56R,0.13300X0.00100*%
%ADD57R,0.18400X0.00100*%
%ADD58R,0.02100X0.00100*%
%ADD59R,0.13200X0.00100*%
%ADD60R,0.18300X0.00100*%
%ADD61R,0.02600X0.00100*%
%ADD62R,0.13100X0.00100*%
%ADD63R,0.18100X0.00100*%
%ADD64R,0.13000X0.00100*%
%ADD65R,0.18000X0.00100*%
%ADD66R,0.12900X0.00100*%
%ADD67R,0.17700X0.00100*%
%ADD68R,0.01000X0.00100*%
%ADD69R,0.12700X0.00100*%
%ADD70R,0.17600X0.00100*%
%ADD71R,0.01800X0.00100*%
%ADD72R,0.12600X0.00100*%
%ADD73R,0.17500X0.00100*%
%ADD74R,0.01700X0.00100*%
%ADD75R,0.12400X0.00100*%
%ADD76R,0.17300X0.00100*%
%ADD77R,0.12300X0.00100*%
%ADD78R,0.17100X0.00100*%
%ADD79R,0.01600X0.00100*%
%ADD80R,0.12100X0.00100*%
%ADD81R,0.16900X0.00100*%
%ADD82R,0.16800X0.00100*%
%ADD83R,0.11900X0.00100*%
%ADD84R,0.16600X0.00100*%
%ADD85R,0.11700X0.00100*%
%ADD86R,0.16500X0.00100*%
%ADD87R,0.11600X0.00100*%
%ADD88R,0.16300X0.00100*%
%ADD89R,0.11400X0.00100*%
%ADD90R,0.16100X0.00100*%
%ADD91R,0.11300X0.00100*%
%ADD92R,0.15800X0.00100*%
%ADD93R,0.11200X0.00100*%
%ADD94R,0.15500X0.00100*%
%ADD95R,0.11000X0.00100*%
%ADD96R,0.15200X0.00100*%
%ADD97R,0.10800X0.00100*%
%ADD98R,0.15100X0.00100*%
%ADD99R,0.10600X0.00100*%
%ADD100R,0.10400X0.00100*%
%ADD101R,0.14600X0.00100*%
%ADD102R,0.10200X0.00100*%
%ADD103R,0.14400X0.00100*%
%ADD104R,0.10000X0.00100*%
%ADD105R,0.09800X0.00100*%
%ADD106R,0.13900X0.00100*%
%ADD107R,0.09700X0.00100*%
%ADD108R,0.13600X0.00100*%
%ADD109R,0.09500X0.00100*%
%ADD110R,0.13500X0.00100*%
%ADD111R,0.09300X0.00100*%
%ADD112R,0.09200X0.00100*%
%ADD113R,0.09000X0.00100*%
%ADD114R,0.08700X0.00100*%
%ADD115R,0.12500X0.00100*%
%ADD116R,0.08500X0.00100*%
%ADD117R,0.11800X0.00100*%
%ADD118R,0.08300X0.00100*%
%ADD119R,0.08100X0.00100*%
%ADD120R,0.07900X0.00100*%
%ADD121R,0.11100X0.00100*%
%ADD122R,0.07800X0.00100*%
%ADD123R,0.10900X0.00100*%
%ADD124R,0.07400X0.00100*%
%ADD125R,0.10500X0.00100*%
%ADD126R,0.07200X0.00100*%
%ADD127R,0.07000X0.00100*%
%ADD128R,0.10100X0.00100*%
%ADD129R,0.06800X0.00100*%
%ADD130R,0.06600X0.00100*%
%ADD131R,0.06300X0.00100*%
%ADD132R,0.09400X0.00100*%
%ADD133R,0.05800X0.00100*%
%ADD134R,0.05700X0.00100*%
%ADD135R,0.05400X0.00100*%
%ADD136R,0.08800X0.00100*%
%ADD137R,0.05300X0.00100*%
%ADD138R,0.04900X0.00100*%
%ADD139R,0.08400X0.00100*%
%ADD140R,0.02800X0.00100*%
%ADD141R,0.04700X0.00100*%
%ADD142R,0.03000X0.00100*%
%ADD143R,0.04600X0.00100*%
%ADD144R,0.03300X0.00100*%
%ADD145R,0.07700X0.00100*%
%ADD146R,0.03500X0.00100*%
%ADD147R,0.04200X0.00100*%
%ADD148R,0.07600X0.00100*%
%ADD149R,0.03600X0.00100*%
%ADD150R,0.04100X0.00100*%
%ADD151R,0.07300X0.00100*%
%ADD152R,0.03900X0.00100*%
%ADD153R,0.07100X0.00100*%
%ADD154R,0.03800X0.00100*%
%ADD155R,0.03200X0.00100*%
%ADD156R,0.06700X0.00100*%
%ADD157R,0.02900X0.00100*%
%ADD158R,0.03400X0.00100*%
%ADD159R,0.06400X0.00100*%
%ADD160R,0.03100X0.00100*%
%ADD161R,0.06100X0.00100*%
%ADD162R,0.05500X0.00100*%
%ADD163R,0.02200X0.00100*%
%ADD164R,0.02000X0.00100*%
%ADD165R,0.04300X0.00100*%
%ADD166R,0.03700X0.00100*%
%ADD167R,0.05000X0.00100*%
%ADD168R,0.05600X0.00100*%
%ADD169R,0.04000X0.00100*%
%ADD170R,0.02700X0.00100*%
%ADD171R,0.05900X0.00100*%
%ADD172R,0.06200X0.00100*%
%ADD173R,0.04400X0.00100*%
%ADD174R,0.04800X0.00100*%
%ADD175R,0.06000X0.00100*%
%ADD176R,0.05100X0.00100*%
%ADD177C,0.02200*%
%ADD178C,0.00100*%
%ADD179C,0.00800*%
%ADD180C,0.00400*%
%ADD181R,0.03000X0.01800*%
%ADD182R,0.01800X0.03000*%
%ADD183C,0.00500*%
%ADD184C,0.00984*%
%ADD185R,0.02657X0.09646*%
D10*
X0136801Y0139971D02*
X0136801Y0141072D01*
X0137168Y0141439D01*
X0137902Y0141439D01*
X0138269Y0141072D01*
X0138269Y0139971D01*
X0139003Y0139971D02*
X0136801Y0139971D01*
X0137535Y0142181D02*
X0136801Y0142915D01*
X0137535Y0143649D01*
X0139003Y0143649D01*
X0139003Y0144391D02*
X0139003Y0145859D01*
X0139003Y0145125D02*
X0136801Y0145125D01*
X0137535Y0144391D01*
X0137902Y0143649D02*
X0137902Y0142181D01*
X0137535Y0142181D02*
X0139003Y0142181D01*
X0139003Y0146601D02*
X0139003Y0148069D01*
X0139003Y0147335D02*
X0136801Y0147335D01*
X0137535Y0146601D01*
X0143553Y0149640D02*
X0143920Y0149273D01*
X0144287Y0149273D01*
X0144654Y0149640D01*
X0144654Y0150374D01*
X0145021Y0150741D01*
X0145388Y0150741D01*
X0145755Y0150374D01*
X0145755Y0149640D01*
X0145388Y0149273D01*
X0143553Y0149640D02*
X0143553Y0150374D01*
X0143920Y0150741D01*
X0143920Y0151483D02*
X0145388Y0151483D01*
X0145755Y0151850D01*
X0145755Y0152584D01*
X0145388Y0152951D01*
X0145755Y0153693D02*
X0145755Y0155161D01*
X0145755Y0155903D02*
X0144287Y0157371D01*
X0143920Y0157371D01*
X0143553Y0157004D01*
X0143553Y0156270D01*
X0143920Y0155903D01*
X0145755Y0155903D02*
X0145755Y0157371D01*
X0145565Y0160038D02*
X0143363Y0160038D01*
X0143363Y0161139D01*
X0143730Y0161506D01*
X0144464Y0161506D01*
X0144831Y0161139D01*
X0144831Y0160038D01*
X0145198Y0162248D02*
X0145565Y0162615D01*
X0145565Y0163349D01*
X0145198Y0163716D01*
X0145198Y0164458D02*
X0144831Y0164458D01*
X0144464Y0164825D01*
X0144464Y0165559D01*
X0144831Y0165926D01*
X0145198Y0165926D01*
X0145565Y0165559D01*
X0145565Y0164825D01*
X0145198Y0164458D01*
X0144464Y0164825D02*
X0144097Y0164458D01*
X0143730Y0164458D01*
X0143363Y0164825D01*
X0143363Y0165559D01*
X0143730Y0165926D01*
X0144097Y0165926D01*
X0144464Y0165559D01*
X0143730Y0163716D02*
X0143363Y0163349D01*
X0143363Y0162615D01*
X0143730Y0162248D01*
X0145198Y0162248D01*
X0145755Y0153693D02*
X0143553Y0153693D01*
X0143920Y0152951D02*
X0143553Y0152584D01*
X0143553Y0151850D01*
X0143920Y0151483D01*
X0143756Y0170302D02*
X0143756Y0171403D01*
X0144123Y0171770D01*
X0144857Y0171770D01*
X0145224Y0171403D01*
X0145224Y0170302D01*
X0145958Y0170302D02*
X0143756Y0170302D01*
X0144123Y0172512D02*
X0145591Y0172512D01*
X0145958Y0172879D01*
X0145958Y0173613D01*
X0145591Y0173980D01*
X0145591Y0174722D02*
X0145958Y0175089D01*
X0145958Y0175823D01*
X0145591Y0176190D01*
X0145224Y0176190D01*
X0144857Y0175823D01*
X0144857Y0174722D01*
X0145591Y0174722D01*
X0144857Y0174722D02*
X0144123Y0175456D01*
X0143756Y0176190D01*
X0144123Y0173980D02*
X0143756Y0173613D01*
X0143756Y0172879D01*
X0144123Y0172512D01*
X0144024Y0178849D02*
X0144024Y0179950D01*
X0144391Y0180317D01*
X0145124Y0180317D01*
X0145491Y0179950D01*
X0145491Y0178849D01*
X0146225Y0178849D02*
X0144024Y0178849D01*
X0144024Y0181059D02*
X0144024Y0182160D01*
X0144391Y0182527D01*
X0145858Y0182527D01*
X0146225Y0182160D01*
X0146225Y0181059D01*
X0144024Y0181059D01*
X0144757Y0183269D02*
X0144024Y0184003D01*
X0146225Y0184003D01*
X0146225Y0183269D02*
X0146225Y0184737D01*
X0145124Y0185479D02*
X0145124Y0186947D01*
X0144024Y0186580D02*
X0145124Y0185479D01*
X0144024Y0186580D02*
X0146225Y0186580D01*
X0146031Y0189443D02*
X0143829Y0189443D01*
X0143829Y0190544D01*
X0144196Y0190911D01*
X0144930Y0190911D01*
X0145297Y0190544D01*
X0145297Y0189443D01*
X0146031Y0191653D02*
X0146031Y0192754D01*
X0145664Y0193121D01*
X0144196Y0193121D01*
X0143829Y0192754D01*
X0143829Y0191653D01*
X0146031Y0191653D01*
X0146031Y0193863D02*
X0146031Y0195331D01*
X0146031Y0194597D02*
X0143829Y0194597D01*
X0144563Y0193863D01*
X0144196Y0196073D02*
X0143829Y0196440D01*
X0143829Y0197174D01*
X0144196Y0197541D01*
X0144563Y0197541D01*
X0146031Y0196073D01*
X0146031Y0197541D01*
X0146080Y0200847D02*
X0143878Y0200847D01*
X0143878Y0201948D01*
X0144245Y0202315D01*
X0144979Y0202315D01*
X0145346Y0201948D01*
X0145346Y0200847D01*
X0146080Y0203056D02*
X0146080Y0204157D01*
X0145713Y0204524D01*
X0144245Y0204524D01*
X0143878Y0204157D01*
X0143878Y0203056D01*
X0146080Y0203056D01*
X0145713Y0205266D02*
X0146080Y0205633D01*
X0146080Y0206367D01*
X0145713Y0206734D01*
X0144245Y0206734D01*
X0143878Y0206367D01*
X0143878Y0205633D01*
X0144245Y0205266D01*
X0144612Y0205266D01*
X0144979Y0205633D01*
X0144979Y0206734D01*
X0172017Y0205922D02*
X0172017Y0203720D01*
X0172017Y0204454D02*
X0173118Y0204454D01*
X0173485Y0204821D01*
X0173485Y0205555D01*
X0173118Y0205922D01*
X0172017Y0205922D01*
X0174227Y0205922D02*
X0175328Y0205922D01*
X0175694Y0205555D01*
X0175694Y0204087D01*
X0175328Y0203720D01*
X0174227Y0203720D01*
X0174227Y0205922D01*
X0176436Y0205555D02*
X0176436Y0205188D01*
X0176803Y0204821D01*
X0177537Y0204821D01*
X0177904Y0204454D01*
X0177904Y0204087D01*
X0177537Y0203720D01*
X0176803Y0203720D01*
X0176436Y0204087D01*
X0176436Y0204454D01*
X0176803Y0204821D01*
X0177537Y0204821D02*
X0177904Y0205188D01*
X0177904Y0205555D01*
X0177537Y0205922D01*
X0176803Y0205922D01*
X0176436Y0205555D01*
X0176878Y0195038D02*
X0176878Y0192836D01*
X0176144Y0192836D02*
X0177612Y0192836D01*
X0178354Y0192836D02*
X0179822Y0192836D01*
X0179088Y0192836D02*
X0179088Y0195038D01*
X0178354Y0194304D01*
X0176878Y0195038D02*
X0176144Y0194304D01*
X0175402Y0194671D02*
X0175035Y0195038D01*
X0173934Y0195038D01*
X0173934Y0192836D01*
X0175035Y0192836D01*
X0175402Y0193203D01*
X0175402Y0194671D01*
X0173192Y0194671D02*
X0173192Y0193937D01*
X0172825Y0193570D01*
X0171724Y0193570D01*
X0171724Y0192836D02*
X0171724Y0195038D01*
X0172825Y0195038D01*
X0173192Y0194671D01*
X0173147Y0186864D02*
X0173514Y0186497D01*
X0173881Y0186864D01*
X0174248Y0186864D01*
X0174615Y0186497D01*
X0174615Y0185763D01*
X0174248Y0185396D01*
X0174615Y0184654D02*
X0174615Y0183186D01*
X0174615Y0183920D02*
X0172413Y0183920D01*
X0173147Y0183186D01*
X0172780Y0182444D02*
X0172413Y0182077D01*
X0172413Y0180976D01*
X0174615Y0180976D01*
X0174615Y0182077D01*
X0174248Y0182444D01*
X0172780Y0182444D01*
X0172780Y0180235D02*
X0173514Y0180235D01*
X0173881Y0179868D01*
X0173881Y0178767D01*
X0174615Y0178767D02*
X0172413Y0178767D01*
X0172413Y0179868D01*
X0172780Y0180235D01*
X0172569Y0177135D02*
X0172569Y0175667D01*
X0173670Y0175667D01*
X0173303Y0176401D01*
X0173303Y0176768D01*
X0173670Y0177135D01*
X0174404Y0177135D01*
X0174771Y0176768D01*
X0174771Y0176034D01*
X0174404Y0175667D01*
X0174771Y0174925D02*
X0174771Y0173457D01*
X0174771Y0174191D02*
X0172569Y0174191D01*
X0173303Y0173457D01*
X0172936Y0172715D02*
X0172569Y0172348D01*
X0172569Y0171247D01*
X0174771Y0171247D01*
X0174771Y0172348D01*
X0174404Y0172715D01*
X0172936Y0172715D01*
X0172936Y0170505D02*
X0173670Y0170505D01*
X0174037Y0170138D01*
X0174037Y0169037D01*
X0174771Y0169037D02*
X0172569Y0169037D01*
X0172569Y0170138D01*
X0172936Y0170505D01*
X0172650Y0164061D02*
X0173751Y0164061D01*
X0174118Y0163694D01*
X0174118Y0162960D01*
X0173751Y0162593D01*
X0172650Y0162593D01*
X0172650Y0161859D02*
X0172650Y0164061D01*
X0174860Y0163694D02*
X0174860Y0162226D01*
X0175227Y0161859D01*
X0175961Y0161859D01*
X0176328Y0162226D01*
X0177070Y0162226D02*
X0177070Y0161859D01*
X0177070Y0162226D02*
X0178537Y0163694D01*
X0178537Y0164061D01*
X0177070Y0164061D01*
X0176328Y0163694D02*
X0175961Y0164061D01*
X0175227Y0164061D01*
X0174860Y0163694D01*
X0173965Y0161336D02*
X0173965Y0159869D01*
X0172497Y0161336D01*
X0172130Y0161336D01*
X0171763Y0160969D01*
X0171763Y0160236D01*
X0172130Y0159869D01*
X0172497Y0159127D02*
X0173965Y0159127D01*
X0172864Y0159127D02*
X0172864Y0157659D01*
X0172497Y0157659D02*
X0171763Y0158393D01*
X0172497Y0159127D01*
X0172497Y0157659D02*
X0173965Y0157659D01*
X0173598Y0156917D02*
X0172130Y0156917D01*
X0171763Y0156550D01*
X0171763Y0155449D01*
X0173965Y0155449D01*
X0173965Y0156550D01*
X0173598Y0156917D01*
X0173598Y0154707D02*
X0173965Y0154340D01*
X0173965Y0153606D01*
X0173598Y0153239D01*
X0172864Y0153606D02*
X0172864Y0154340D01*
X0173231Y0154707D01*
X0173598Y0154707D01*
X0172864Y0153606D02*
X0172497Y0153239D01*
X0172130Y0153239D01*
X0171763Y0153606D01*
X0171763Y0154340D01*
X0172130Y0154707D01*
X0172310Y0136149D02*
X0173411Y0136149D01*
X0173778Y0135782D01*
X0173778Y0135049D01*
X0173411Y0134682D01*
X0172310Y0134682D01*
X0172310Y0133948D02*
X0172310Y0136149D01*
X0174519Y0135416D02*
X0175253Y0136149D01*
X0175987Y0135416D01*
X0175987Y0133948D01*
X0176729Y0134315D02*
X0177096Y0133948D01*
X0177830Y0133948D01*
X0178197Y0134315D01*
X0178197Y0135782D01*
X0177830Y0136149D01*
X0177096Y0136149D01*
X0176729Y0135782D01*
X0176729Y0135416D01*
X0177096Y0135049D01*
X0178197Y0135049D01*
X0175987Y0135049D02*
X0174519Y0135049D01*
X0174519Y0135416D02*
X0174519Y0133948D01*
X0171620Y0124170D02*
X0171620Y0122702D01*
X0171620Y0123436D02*
X0169418Y0123436D01*
X0170152Y0122702D01*
X0171620Y0121960D02*
X0171620Y0120492D01*
X0171620Y0121226D02*
X0169418Y0121226D01*
X0170152Y0120492D01*
X0169785Y0119750D02*
X0169418Y0119383D01*
X0169418Y0118649D01*
X0169785Y0118282D01*
X0171253Y0118282D01*
X0171620Y0118649D01*
X0171620Y0119383D01*
X0171253Y0119750D01*
X0170519Y0117540D02*
X0169785Y0117540D01*
X0169418Y0117173D01*
X0169418Y0116072D01*
X0171620Y0116072D01*
X0170886Y0116072D02*
X0170886Y0117173D01*
X0170519Y0117540D01*
X0170811Y0113327D02*
X0170077Y0113327D01*
X0169710Y0112960D01*
X0169710Y0111859D01*
X0171912Y0111859D01*
X0171178Y0111859D02*
X0171178Y0112960D01*
X0170811Y0113327D01*
X0171178Y0111117D02*
X0170077Y0111117D01*
X0169710Y0110750D01*
X0170077Y0110383D01*
X0171178Y0110383D01*
X0171178Y0109649D02*
X0169710Y0109649D01*
X0169710Y0110016D01*
X0170077Y0110383D01*
X0170077Y0108907D02*
X0170444Y0108907D01*
X0170444Y0107439D01*
X0170077Y0107439D02*
X0169710Y0107806D01*
X0169710Y0108540D01*
X0170077Y0108907D01*
X0171178Y0108540D02*
X0171178Y0107806D01*
X0170811Y0107439D01*
X0170077Y0107439D01*
X0168976Y0106697D02*
X0168976Y0105230D01*
X0168976Y0105963D02*
X0171178Y0105963D01*
X0184008Y0101376D02*
X0185109Y0101376D01*
X0185476Y0101009D01*
X0185476Y0100275D01*
X0185109Y0099908D01*
X0184008Y0099908D01*
X0184008Y0099174D02*
X0184008Y0101376D01*
X0186217Y0101376D02*
X0187318Y0101376D01*
X0187685Y0101009D01*
X0187685Y0099541D01*
X0187318Y0099174D01*
X0186217Y0099174D01*
X0186217Y0101376D01*
X0188427Y0101009D02*
X0188794Y0101376D01*
X0189528Y0101376D01*
X0189895Y0101009D01*
X0188427Y0099541D01*
X0188794Y0099174D01*
X0189528Y0099174D01*
X0189895Y0099541D01*
X0189895Y0101009D01*
X0188427Y0101009D02*
X0188427Y0099541D01*
X0193824Y0099709D02*
X0194925Y0099709D01*
X0195292Y0100076D01*
X0195292Y0100810D01*
X0194925Y0101177D01*
X0193824Y0101177D01*
X0193824Y0098975D01*
X0196033Y0098975D02*
X0196033Y0101177D01*
X0197134Y0101177D01*
X0197501Y0100810D01*
X0197501Y0099342D01*
X0197134Y0098975D01*
X0196033Y0098975D01*
X0198243Y0098975D02*
X0199711Y0100443D01*
X0199711Y0100810D01*
X0199344Y0101177D01*
X0198610Y0101177D01*
X0198243Y0100810D01*
X0198243Y0098975D02*
X0199711Y0098975D01*
X0201550Y0099362D02*
X0201917Y0098995D01*
X0202651Y0098995D01*
X0203018Y0099362D01*
X0203018Y0099729D01*
X0202651Y0100096D01*
X0201917Y0100096D01*
X0201550Y0100463D01*
X0201550Y0100829D01*
X0201917Y0101196D01*
X0202651Y0101196D01*
X0203018Y0100829D01*
X0203760Y0101196D02*
X0203760Y0098995D01*
X0203760Y0100096D02*
X0204127Y0100463D01*
X0204861Y0100463D01*
X0205228Y0100096D01*
X0205228Y0098995D01*
X0205970Y0098995D02*
X0206704Y0098995D01*
X0206337Y0098995D02*
X0206337Y0100463D01*
X0205970Y0100463D01*
X0206337Y0101196D02*
X0206337Y0101563D01*
X0207810Y0100829D02*
X0208177Y0101196D01*
X0207810Y0100829D02*
X0207810Y0098995D01*
X0207443Y0100096D02*
X0208177Y0100096D01*
X0208916Y0100463D02*
X0209650Y0100463D01*
X0209283Y0100829D02*
X0209283Y0099362D01*
X0209650Y0098995D01*
X0210389Y0099362D02*
X0210756Y0098995D01*
X0211490Y0098995D01*
X0211857Y0099362D01*
X0212599Y0098995D02*
X0213333Y0098995D01*
X0212966Y0098995D02*
X0212966Y0101196D01*
X0212599Y0101196D01*
X0211857Y0100829D02*
X0211490Y0101196D01*
X0210756Y0101196D01*
X0210389Y0100829D01*
X0210389Y0099362D01*
X0214072Y0099729D02*
X0215173Y0100463D01*
X0214072Y0101196D02*
X0214072Y0098995D01*
X0214072Y0099729D02*
X0215173Y0098995D01*
X0216653Y0098786D02*
X0217754Y0098786D01*
X0218121Y0098419D01*
X0217754Y0098052D01*
X0218121Y0097685D01*
X0217754Y0097318D01*
X0216653Y0097318D01*
X0216287Y0096576D02*
X0217020Y0096576D01*
X0217387Y0096209D01*
X0217387Y0095108D01*
X0218121Y0095108D02*
X0215920Y0095108D01*
X0215920Y0096209D01*
X0216287Y0096576D01*
X0216653Y0094367D02*
X0216653Y0094000D01*
X0217387Y0093266D01*
X0218121Y0093266D02*
X0216653Y0093266D01*
X0217020Y0092524D02*
X0218121Y0092524D01*
X0218121Y0091423D01*
X0217754Y0091056D01*
X0217387Y0091423D01*
X0217387Y0092524D01*
X0217020Y0092524D02*
X0216653Y0092157D01*
X0216653Y0091423D01*
X0217020Y0090314D02*
X0218121Y0090314D01*
X0217020Y0090314D02*
X0216653Y0089947D01*
X0216653Y0088846D01*
X0218121Y0088846D01*
X0217754Y0088105D02*
X0217020Y0088105D01*
X0216653Y0087738D01*
X0216653Y0087004D01*
X0217020Y0086637D01*
X0217754Y0086637D01*
X0218121Y0087004D01*
X0218121Y0087738D01*
X0217754Y0088105D01*
X0217754Y0085895D02*
X0218121Y0085528D01*
X0218121Y0084794D01*
X0217754Y0084427D01*
X0217020Y0084794D02*
X0217020Y0085528D01*
X0217387Y0085895D01*
X0217754Y0085895D01*
X0217020Y0084794D02*
X0216653Y0084427D01*
X0216287Y0084427D01*
X0215920Y0084794D01*
X0215920Y0085528D01*
X0216287Y0085895D01*
X0223935Y0088867D02*
X0224302Y0088500D01*
X0225770Y0088500D01*
X0226137Y0088867D01*
X0226137Y0089601D01*
X0225770Y0089968D01*
X0226137Y0090710D02*
X0224669Y0090710D01*
X0223935Y0091444D01*
X0224669Y0092178D01*
X0226137Y0092178D01*
X0226137Y0092920D02*
X0223935Y0092920D01*
X0226137Y0094388D01*
X0223935Y0094388D01*
X0225036Y0092178D02*
X0225036Y0090710D01*
X0224302Y0089968D02*
X0223935Y0089601D01*
X0223935Y0088867D01*
X0226504Y0095130D02*
X0226504Y0096598D01*
X0226137Y0097340D02*
X0223935Y0097340D01*
X0223935Y0098441D01*
X0224302Y0098808D01*
X0225036Y0098808D01*
X0225403Y0098441D01*
X0225403Y0097340D01*
X0225403Y0098074D02*
X0226137Y0098808D01*
X0226137Y0099549D02*
X0223935Y0101017D01*
X0223935Y0099549D02*
X0226137Y0101017D01*
X0218121Y0100995D02*
X0217020Y0100995D01*
X0216653Y0100628D01*
X0217020Y0100262D01*
X0218121Y0100262D01*
X0218121Y0099528D02*
X0216653Y0099528D01*
X0216653Y0099895D01*
X0217020Y0100262D01*
X0239959Y0099757D02*
X0240692Y0100491D01*
X0242160Y0100491D01*
X0242160Y0101233D02*
X0242160Y0102701D01*
X0242160Y0101967D02*
X0239959Y0101967D01*
X0240692Y0101233D01*
X0241059Y0100491D02*
X0241059Y0099023D01*
X0240692Y0099023D02*
X0239959Y0099757D01*
X0240692Y0099023D02*
X0242160Y0099023D01*
X0241793Y0098281D02*
X0240326Y0098281D01*
X0239959Y0097914D01*
X0239959Y0096813D01*
X0242160Y0096813D01*
X0242160Y0097914D01*
X0241793Y0098281D01*
X0241793Y0096071D02*
X0242160Y0095704D01*
X0242160Y0094970D01*
X0241793Y0094603D01*
X0241059Y0094970D02*
X0241059Y0095704D01*
X0241426Y0096071D01*
X0241793Y0096071D01*
X0241059Y0094970D02*
X0240692Y0094603D01*
X0240326Y0094603D01*
X0239959Y0094970D01*
X0239959Y0095704D01*
X0240326Y0096071D01*
X0254240Y0110274D02*
X0254607Y0109907D01*
X0255341Y0109907D01*
X0255708Y0110274D01*
X0256450Y0109907D02*
X0256450Y0111375D01*
X0257184Y0112108D01*
X0257918Y0111375D01*
X0257918Y0109907D01*
X0258660Y0109907D02*
X0258660Y0112108D01*
X0259394Y0111375D01*
X0260128Y0112108D01*
X0260128Y0109907D01*
X0260870Y0109540D02*
X0262337Y0109540D01*
X0263079Y0109907D02*
X0264547Y0111375D01*
X0264547Y0111741D01*
X0264180Y0112108D01*
X0263446Y0112108D01*
X0263079Y0111741D01*
X0263079Y0109907D02*
X0264547Y0109907D01*
X0257918Y0111008D02*
X0256450Y0111008D01*
X0255708Y0111741D02*
X0255341Y0112108D01*
X0254607Y0112108D01*
X0254240Y0111741D01*
X0254240Y0110274D01*
X0254321Y0116698D02*
X0254688Y0116698D01*
X0255055Y0117065D01*
X0255055Y0117799D01*
X0255422Y0118166D01*
X0255789Y0118166D01*
X0256155Y0117799D01*
X0256155Y0117065D01*
X0255789Y0116698D01*
X0254321Y0116698D02*
X0253954Y0117065D01*
X0253954Y0117799D01*
X0254321Y0118166D01*
X0254321Y0118908D02*
X0255789Y0118908D01*
X0256155Y0119275D01*
X0256155Y0120009D01*
X0255789Y0120376D01*
X0256155Y0121118D02*
X0256155Y0122585D01*
X0256155Y0123327D02*
X0256155Y0124795D01*
X0256888Y0124790D02*
X0256888Y0126991D01*
X0257989Y0126991D01*
X0258356Y0126624D01*
X0258356Y0125891D01*
X0257989Y0125524D01*
X0256888Y0125524D01*
X0256155Y0124061D02*
X0253954Y0124061D01*
X0254688Y0123327D01*
X0253954Y0121118D02*
X0256155Y0121118D01*
X0254321Y0120376D02*
X0253954Y0120009D01*
X0253954Y0119275D01*
X0254321Y0118908D01*
X0259098Y0124790D02*
X0260566Y0124790D01*
X0261308Y0124790D02*
X0262776Y0126258D01*
X0262776Y0126624D01*
X0262409Y0126991D01*
X0261675Y0126991D01*
X0261308Y0126624D01*
X0260566Y0126991D02*
X0259098Y0126991D01*
X0259098Y0124790D01*
X0259098Y0125891D02*
X0259832Y0125891D01*
X0261308Y0124790D02*
X0262776Y0124790D01*
X0279205Y0130099D02*
X0279205Y0131200D01*
X0279572Y0131567D01*
X0280306Y0131567D01*
X0280673Y0131200D01*
X0280673Y0130099D01*
X0281407Y0130099D02*
X0279205Y0130099D01*
X0279205Y0132309D02*
X0281407Y0132309D01*
X0281407Y0133776D01*
X0281040Y0134518D02*
X0281407Y0134885D01*
X0281407Y0135619D01*
X0281040Y0135986D01*
X0280673Y0135986D01*
X0280306Y0135619D01*
X0280306Y0135252D01*
X0280306Y0135619D02*
X0279939Y0135986D01*
X0279572Y0135986D01*
X0279205Y0135619D01*
X0279205Y0134885D01*
X0279572Y0134518D01*
X0279205Y0133776D02*
X0279205Y0132309D01*
X0280306Y0132309D02*
X0280306Y0133043D01*
X0280885Y0139625D02*
X0280885Y0140726D01*
X0280518Y0141093D01*
X0279784Y0141093D01*
X0279417Y0140726D01*
X0279417Y0139625D01*
X0281619Y0139625D01*
X0281619Y0141835D02*
X0281619Y0143303D01*
X0281252Y0144045D02*
X0281619Y0144412D01*
X0281619Y0145145D01*
X0281252Y0145512D01*
X0280518Y0145512D01*
X0280151Y0145145D01*
X0280151Y0144779D01*
X0280518Y0144045D01*
X0279417Y0144045D01*
X0279417Y0145512D01*
X0279417Y0143303D02*
X0279417Y0141835D01*
X0281619Y0141835D01*
X0280518Y0141835D02*
X0280518Y0142569D01*
X0279852Y0150200D02*
X0281320Y0150200D01*
X0281687Y0150567D01*
X0281687Y0151301D01*
X0281320Y0151668D01*
X0280586Y0151668D01*
X0280586Y0150934D01*
X0279852Y0151668D02*
X0279485Y0151301D01*
X0279485Y0150567D01*
X0279852Y0150200D01*
X0279485Y0152410D02*
X0281687Y0153878D01*
X0279485Y0153878D01*
X0279485Y0154620D02*
X0279485Y0155720D01*
X0279852Y0156087D01*
X0281320Y0156087D01*
X0281687Y0155720D01*
X0281687Y0154620D01*
X0279485Y0154620D01*
X0279485Y0152410D02*
X0281687Y0152410D01*
X0281040Y0159336D02*
X0279572Y0159336D01*
X0279205Y0159703D01*
X0279205Y0160437D01*
X0279572Y0160804D01*
X0280306Y0160804D02*
X0280306Y0160070D01*
X0280306Y0160804D02*
X0281040Y0160804D01*
X0281407Y0160437D01*
X0281407Y0159703D01*
X0281040Y0159336D01*
X0281407Y0161546D02*
X0279205Y0161546D01*
X0281407Y0163014D01*
X0279205Y0163014D01*
X0279205Y0163756D02*
X0279205Y0164857D01*
X0279572Y0165224D01*
X0281040Y0165224D01*
X0281407Y0164857D01*
X0281407Y0163756D01*
X0279205Y0163756D01*
X0279572Y0169032D02*
X0281040Y0169032D01*
X0281407Y0169399D01*
X0281407Y0170133D01*
X0281040Y0170500D01*
X0280306Y0170500D01*
X0280306Y0169766D01*
X0279572Y0170500D02*
X0279205Y0170133D01*
X0279205Y0169399D01*
X0279572Y0169032D01*
X0279205Y0171242D02*
X0281407Y0172710D01*
X0279205Y0172710D01*
X0279205Y0173452D02*
X0279205Y0174552D01*
X0279572Y0174919D01*
X0281040Y0174919D01*
X0281407Y0174552D01*
X0281407Y0173452D01*
X0279205Y0173452D01*
X0279205Y0171242D02*
X0281407Y0171242D01*
X0281133Y0178374D02*
X0278931Y0178374D01*
X0278931Y0179475D01*
X0279298Y0179842D01*
X0280032Y0179842D01*
X0280399Y0179475D01*
X0280399Y0178374D01*
X0280766Y0180584D02*
X0281133Y0180951D01*
X0281133Y0181685D01*
X0280766Y0182052D01*
X0281133Y0182794D02*
X0281133Y0184262D01*
X0281133Y0183528D02*
X0278931Y0183528D01*
X0279665Y0182794D01*
X0279298Y0182052D02*
X0278931Y0181685D01*
X0278931Y0180951D01*
X0279298Y0180584D01*
X0280766Y0180584D01*
X0280032Y0185004D02*
X0280032Y0186472D01*
X0278931Y0186105D02*
X0280032Y0185004D01*
X0281133Y0186105D02*
X0278931Y0186105D01*
X0278867Y0188451D02*
X0280335Y0188451D01*
X0280702Y0188818D01*
X0280702Y0189552D01*
X0280335Y0189919D01*
X0278867Y0189919D01*
X0278500Y0189552D01*
X0278500Y0188818D01*
X0278867Y0188451D01*
X0278867Y0190661D02*
X0279234Y0190661D01*
X0279601Y0191028D01*
X0279601Y0191762D01*
X0279968Y0192129D01*
X0280335Y0192129D01*
X0280702Y0191762D01*
X0280702Y0191028D01*
X0280335Y0190661D01*
X0278867Y0190661D02*
X0278500Y0191028D01*
X0278500Y0191762D01*
X0278867Y0192129D01*
X0278867Y0192871D02*
X0280335Y0192871D01*
X0280702Y0193238D01*
X0280702Y0193972D01*
X0280335Y0194339D01*
X0281069Y0195081D02*
X0281069Y0196549D01*
X0280702Y0197291D02*
X0280702Y0198025D01*
X0280702Y0197658D02*
X0278500Y0197658D01*
X0278500Y0197291D02*
X0278500Y0198025D01*
X0279234Y0198764D02*
X0279234Y0199865D01*
X0279601Y0200232D01*
X0280702Y0200232D01*
X0280702Y0198764D02*
X0279234Y0198764D01*
X0278867Y0194339D02*
X0278500Y0193972D01*
X0278500Y0193238D01*
X0278867Y0192871D01*
X0252598Y0192678D02*
X0252598Y0194146D01*
X0252598Y0193412D02*
X0250396Y0193412D01*
X0251130Y0192678D01*
X0250763Y0191936D02*
X0250396Y0191569D01*
X0250396Y0190835D01*
X0250763Y0190468D01*
X0252231Y0190468D01*
X0252598Y0190835D01*
X0252598Y0191569D01*
X0252231Y0191936D01*
X0251497Y0189726D02*
X0251864Y0189359D01*
X0251864Y0188259D01*
X0252598Y0188259D02*
X0250396Y0188259D01*
X0250396Y0189359D01*
X0250763Y0189726D01*
X0251497Y0189726D01*
X0251660Y0186589D02*
X0252027Y0186589D01*
X0252394Y0186222D01*
X0252394Y0185488D01*
X0252027Y0185121D01*
X0252394Y0184379D02*
X0252394Y0182912D01*
X0252394Y0183646D02*
X0250193Y0183646D01*
X0250926Y0182912D01*
X0250560Y0182170D02*
X0250193Y0181803D01*
X0250193Y0181069D01*
X0250560Y0180702D01*
X0252027Y0180702D01*
X0252394Y0181069D01*
X0252394Y0181803D01*
X0252027Y0182170D01*
X0251293Y0179960D02*
X0251660Y0179593D01*
X0251660Y0178492D01*
X0252394Y0178492D02*
X0250193Y0178492D01*
X0250193Y0179593D01*
X0250560Y0179960D01*
X0251293Y0179960D01*
X0251552Y0176791D02*
X0251919Y0176791D01*
X0252286Y0176424D01*
X0252286Y0175690D01*
X0251919Y0175323D01*
X0251552Y0174581D02*
X0252286Y0173847D01*
X0251552Y0173113D01*
X0250084Y0173113D01*
X0250451Y0172371D02*
X0250818Y0172371D01*
X0251185Y0172005D01*
X0251552Y0172371D01*
X0251919Y0172371D01*
X0252286Y0172005D01*
X0252286Y0171271D01*
X0251919Y0170904D01*
X0251185Y0171638D02*
X0251185Y0172005D01*
X0250451Y0172371D02*
X0250084Y0172005D01*
X0250084Y0171271D01*
X0250451Y0170904D01*
X0251185Y0170162D02*
X0251185Y0168694D01*
X0250451Y0169428D02*
X0251919Y0169428D01*
X0251769Y0166267D02*
X0251402Y0166267D01*
X0251035Y0165900D01*
X0251035Y0165533D01*
X0251035Y0165900D02*
X0250668Y0166267D01*
X0250301Y0166267D01*
X0249934Y0165900D01*
X0249934Y0165166D01*
X0250301Y0164799D01*
X0249934Y0164057D02*
X0251402Y0164057D01*
X0252136Y0163323D01*
X0251402Y0162589D01*
X0249934Y0162589D01*
X0250301Y0161847D02*
X0250668Y0161847D01*
X0251035Y0161480D01*
X0251402Y0161847D01*
X0251769Y0161847D01*
X0252136Y0161480D01*
X0252136Y0160746D01*
X0251769Y0160379D01*
X0251035Y0161113D02*
X0251035Y0161480D01*
X0250301Y0161847D02*
X0249934Y0161480D01*
X0249934Y0160746D01*
X0250301Y0160379D01*
X0251035Y0159638D02*
X0251035Y0158170D01*
X0250301Y0158904D02*
X0251769Y0158904D01*
X0251910Y0155582D02*
X0251543Y0155582D01*
X0251176Y0155215D01*
X0251176Y0154114D01*
X0251910Y0154114D01*
X0252277Y0154481D01*
X0252277Y0155215D01*
X0251910Y0155582D01*
X0250442Y0154848D02*
X0251176Y0154114D01*
X0250442Y0154848D02*
X0250075Y0155582D01*
X0250075Y0153372D02*
X0250075Y0151904D01*
X0252277Y0151904D01*
X0252277Y0153372D01*
X0251176Y0152638D02*
X0251176Y0151904D01*
X0251176Y0151162D02*
X0251543Y0150795D01*
X0251543Y0149694D01*
X0252277Y0149694D02*
X0250075Y0149694D01*
X0250075Y0150795D01*
X0250442Y0151162D01*
X0251176Y0151162D01*
X0250853Y0146139D02*
X0250853Y0144672D01*
X0249752Y0145772D01*
X0251954Y0145772D01*
X0251954Y0143930D02*
X0251954Y0142462D01*
X0249752Y0142462D01*
X0249752Y0143930D01*
X0250853Y0143196D02*
X0250853Y0142462D01*
X0250853Y0141720D02*
X0251220Y0141353D01*
X0251220Y0140252D01*
X0251954Y0140252D02*
X0249752Y0140252D01*
X0249752Y0141353D01*
X0250119Y0141720D01*
X0250853Y0141720D01*
X0242602Y0133031D02*
X0241134Y0130829D01*
X0242602Y0130829D02*
X0241134Y0133031D01*
X0240393Y0133031D02*
X0238925Y0133031D01*
X0239659Y0133031D02*
X0239659Y0130829D01*
X0238183Y0130462D02*
X0236715Y0130462D01*
X0235973Y0130829D02*
X0234505Y0133031D01*
X0234505Y0130829D01*
X0233763Y0130829D02*
X0233763Y0132297D01*
X0233029Y0133031D01*
X0232295Y0132297D01*
X0232295Y0130829D01*
X0231553Y0131196D02*
X0231186Y0130829D01*
X0230452Y0130829D01*
X0230085Y0131196D01*
X0230085Y0132664D01*
X0230452Y0133031D01*
X0231186Y0133031D01*
X0231553Y0132664D01*
X0232295Y0131930D02*
X0233763Y0131930D01*
X0235973Y0130829D02*
X0235973Y0133031D01*
X0231695Y0129916D02*
X0231695Y0127714D01*
X0230227Y0127714D02*
X0230227Y0129916D01*
X0230961Y0129182D01*
X0231695Y0129916D01*
X0229485Y0127347D02*
X0228017Y0127347D01*
X0227275Y0127714D02*
X0227275Y0128815D01*
X0226908Y0129182D01*
X0226541Y0128815D01*
X0226541Y0127714D01*
X0225807Y0127714D02*
X0225807Y0129182D01*
X0226174Y0129182D01*
X0226541Y0128815D01*
X0225065Y0128815D02*
X0225065Y0127714D01*
X0223964Y0127714D01*
X0223597Y0128081D01*
X0223964Y0128448D01*
X0225065Y0128448D01*
X0225065Y0128815D02*
X0224698Y0129182D01*
X0223964Y0129182D01*
X0222855Y0129549D02*
X0222488Y0129916D01*
X0221754Y0129916D01*
X0221387Y0129549D01*
X0221387Y0128081D01*
X0221754Y0127714D01*
X0222488Y0127714D01*
X0222855Y0128081D01*
X0222488Y0131016D02*
X0222121Y0131383D01*
X0222488Y0131750D01*
X0223589Y0131750D01*
X0223589Y0132117D02*
X0223589Y0131016D01*
X0222488Y0131016D01*
X0221379Y0131383D02*
X0221379Y0132851D01*
X0221012Y0133218D01*
X0219912Y0133218D01*
X0219912Y0131016D01*
X0221012Y0131016D01*
X0221379Y0131383D01*
X0222488Y0132484D02*
X0223222Y0132484D01*
X0223589Y0132117D01*
X0224331Y0132484D02*
X0225065Y0132484D01*
X0224698Y0132851D02*
X0224698Y0131383D01*
X0225065Y0131016D01*
X0219172Y0131016D02*
X0218805Y0131383D01*
X0218805Y0132851D01*
X0218438Y0132484D02*
X0219172Y0132484D01*
X0217699Y0132117D02*
X0216965Y0132117D01*
X0217332Y0132851D02*
X0217699Y0133218D01*
X0217332Y0132851D02*
X0217332Y0131016D01*
X0216226Y0131016D02*
X0215492Y0131016D01*
X0215859Y0131016D02*
X0215859Y0132484D01*
X0215492Y0132484D01*
X0215859Y0133218D02*
X0215859Y0133585D01*
X0214750Y0132117D02*
X0214750Y0131016D01*
X0214750Y0132117D02*
X0214383Y0132484D01*
X0213649Y0132484D01*
X0213282Y0132117D01*
X0212540Y0131750D02*
X0212540Y0131383D01*
X0212173Y0131016D01*
X0211439Y0131016D01*
X0211072Y0131383D01*
X0211439Y0132117D02*
X0211072Y0132484D01*
X0211072Y0132851D01*
X0211439Y0133218D01*
X0212173Y0133218D01*
X0212540Y0132851D01*
X0212173Y0132117D02*
X0212540Y0131750D01*
X0212173Y0132117D02*
X0211439Y0132117D01*
X0213282Y0133218D02*
X0213282Y0131016D01*
X0212782Y0129622D02*
X0211314Y0129622D01*
X0211314Y0127420D01*
X0212782Y0127420D01*
X0213524Y0127420D02*
X0213524Y0128888D01*
X0214625Y0128888D01*
X0214992Y0128521D01*
X0214992Y0127420D01*
X0212048Y0128521D02*
X0211314Y0128521D01*
X0210575Y0128888D02*
X0209841Y0128888D01*
X0210208Y0129255D02*
X0210208Y0127787D01*
X0210575Y0127420D01*
X0209102Y0128521D02*
X0208368Y0128521D01*
X0208735Y0129255D02*
X0209102Y0129622D01*
X0208735Y0129255D02*
X0208735Y0127420D01*
X0207628Y0127420D02*
X0206894Y0127420D01*
X0207261Y0127420D02*
X0207261Y0128888D01*
X0206894Y0128888D01*
X0207261Y0129622D02*
X0207261Y0129989D01*
X0206152Y0128521D02*
X0206152Y0127420D01*
X0206152Y0128521D02*
X0205786Y0128888D01*
X0205052Y0128888D01*
X0204685Y0128521D01*
X0203943Y0128154D02*
X0203943Y0127787D01*
X0203576Y0127420D01*
X0202842Y0127420D01*
X0202475Y0127787D01*
X0202842Y0128521D02*
X0203576Y0128521D01*
X0203943Y0128154D01*
X0204685Y0127420D02*
X0204685Y0129622D01*
X0203943Y0129255D02*
X0203576Y0129622D01*
X0202842Y0129622D01*
X0202475Y0129255D01*
X0202475Y0128888D01*
X0202842Y0128521D01*
X0200769Y0127420D02*
X0199301Y0127420D01*
X0200035Y0127420D02*
X0200035Y0129622D01*
X0199301Y0128888D01*
X0198559Y0129255D02*
X0198192Y0129622D01*
X0197091Y0129622D01*
X0197091Y0127420D01*
X0198192Y0127420D01*
X0198559Y0127787D01*
X0198559Y0129255D01*
X0196349Y0129255D02*
X0196349Y0128521D01*
X0195982Y0128154D01*
X0194881Y0128154D01*
X0194881Y0127420D02*
X0194881Y0129622D01*
X0195982Y0129622D01*
X0196349Y0129255D01*
X0192455Y0129318D02*
X0192088Y0129685D01*
X0191354Y0129685D01*
X0190987Y0129318D01*
X0192455Y0129318D02*
X0192455Y0128951D01*
X0190987Y0127483D01*
X0192455Y0127483D01*
X0190245Y0127483D02*
X0188777Y0127483D01*
X0189511Y0127483D02*
X0189511Y0129685D01*
X0188777Y0128951D01*
X0188035Y0129318D02*
X0187668Y0129685D01*
X0186934Y0129685D01*
X0186567Y0129318D01*
X0186567Y0127850D01*
X0186934Y0127483D01*
X0187668Y0127483D01*
X0188035Y0127850D01*
X0185825Y0128584D02*
X0185458Y0128217D01*
X0184357Y0128217D01*
X0184357Y0127483D02*
X0184357Y0129685D01*
X0185458Y0129685D01*
X0185825Y0129318D01*
X0185825Y0128584D01*
X0166623Y0126199D02*
X0166256Y0126566D01*
X0165155Y0126566D01*
X0165155Y0124364D01*
X0166256Y0124364D01*
X0166623Y0124731D01*
X0166623Y0126199D01*
X0164413Y0126566D02*
X0164413Y0124364D01*
X0162945Y0126566D01*
X0162945Y0124364D01*
X0162204Y0124731D02*
X0162204Y0125465D01*
X0161470Y0125465D01*
X0162204Y0124731D02*
X0161837Y0124364D01*
X0161103Y0124364D01*
X0160736Y0124731D01*
X0160736Y0126199D01*
X0161103Y0126566D01*
X0161837Y0126566D01*
X0162204Y0126199D01*
X0156433Y0126258D02*
X0156433Y0125891D01*
X0156066Y0125524D01*
X0156433Y0125157D01*
X0156433Y0124790D01*
X0156066Y0124423D01*
X0155332Y0124423D01*
X0154965Y0124790D01*
X0154223Y0125157D02*
X0154223Y0126625D01*
X0154965Y0126258D02*
X0155332Y0126625D01*
X0156066Y0126625D01*
X0156433Y0126258D01*
X0156066Y0125524D02*
X0155699Y0125524D01*
X0154223Y0125157D02*
X0153489Y0124423D01*
X0152755Y0125157D01*
X0152755Y0126625D01*
X0152013Y0126258D02*
X0152013Y0125891D01*
X0151646Y0125524D01*
X0152013Y0125157D01*
X0152013Y0124790D01*
X0151646Y0124423D01*
X0150912Y0124423D01*
X0150545Y0124790D01*
X0151279Y0125524D02*
X0151646Y0125524D01*
X0152013Y0126258D02*
X0151646Y0126625D01*
X0150912Y0126625D01*
X0150545Y0126258D01*
X0149803Y0125524D02*
X0148335Y0125524D01*
X0149069Y0126258D02*
X0149069Y0124790D01*
X0172780Y0185396D02*
X0172413Y0185763D01*
X0172413Y0186497D01*
X0172780Y0186864D01*
X0173147Y0186864D01*
X0173514Y0186497D02*
X0173514Y0186130D01*
X0189023Y0209869D02*
X0189023Y0212071D01*
X0188289Y0212071D02*
X0189757Y0212071D01*
X0190499Y0212071D02*
X0191967Y0209869D01*
X0192709Y0209869D02*
X0193810Y0209869D01*
X0194177Y0210236D01*
X0194177Y0211704D01*
X0193810Y0212071D01*
X0192709Y0212071D01*
X0192709Y0209869D01*
X0190499Y0209869D02*
X0191967Y0212071D01*
X0194919Y0211704D02*
X0195286Y0212071D01*
X0196020Y0212071D01*
X0196387Y0211704D01*
X0194919Y0210236D01*
X0195286Y0209869D01*
X0196020Y0209869D01*
X0196387Y0210236D01*
X0196387Y0211704D01*
X0194919Y0211704D02*
X0194919Y0210236D01*
X0201138Y0210622D02*
X0201138Y0209521D01*
X0203340Y0209521D01*
X0203340Y0210622D01*
X0202973Y0210989D01*
X0201505Y0210989D01*
X0201138Y0210622D01*
X0201872Y0211731D02*
X0201138Y0212465D01*
X0203340Y0212465D01*
X0203340Y0211731D02*
X0203340Y0213199D01*
X0206871Y0211828D02*
X0206871Y0210360D01*
X0207238Y0209993D01*
X0207972Y0209993D01*
X0208339Y0210360D01*
X0209081Y0210727D02*
X0210182Y0210727D01*
X0210548Y0211094D01*
X0210548Y0211828D01*
X0210182Y0212195D01*
X0209081Y0212195D01*
X0209081Y0209993D01*
X0209815Y0210727D02*
X0210548Y0209993D01*
X0211290Y0210360D02*
X0211657Y0209993D01*
X0212391Y0209993D01*
X0212758Y0210360D01*
X0212758Y0210727D01*
X0212391Y0211094D01*
X0211657Y0211094D01*
X0211290Y0211461D01*
X0211290Y0211828D01*
X0211657Y0212195D01*
X0212391Y0212195D01*
X0212758Y0211828D01*
X0213500Y0209626D02*
X0214968Y0209626D01*
X0215710Y0209993D02*
X0216811Y0209993D01*
X0217178Y0210360D01*
X0217178Y0211828D01*
X0216811Y0212195D01*
X0215710Y0212195D01*
X0215710Y0209993D01*
X0217920Y0210727D02*
X0218654Y0209993D01*
X0219388Y0210727D01*
X0219388Y0212195D01*
X0217920Y0212195D02*
X0217920Y0210727D01*
X0221870Y0210578D02*
X0222237Y0210211D01*
X0223705Y0210211D01*
X0224072Y0210578D01*
X0224072Y0211312D01*
X0223705Y0211679D01*
X0222237Y0211679D02*
X0221870Y0211312D01*
X0221870Y0210578D01*
X0222237Y0209469D02*
X0221870Y0209102D01*
X0221870Y0208001D01*
X0224072Y0208001D01*
X0224072Y0209102D01*
X0223705Y0209469D01*
X0222237Y0209469D01*
X0221870Y0207259D02*
X0224072Y0207259D01*
X0224072Y0205791D02*
X0221870Y0205791D01*
X0222604Y0206525D01*
X0221870Y0207259D01*
X0208339Y0211828D02*
X0207972Y0212195D01*
X0207238Y0212195D01*
X0206871Y0211828D01*
X0203340Y0208779D02*
X0201138Y0207311D01*
X0201505Y0206569D02*
X0202239Y0206569D01*
X0202606Y0206202D01*
X0202606Y0205101D01*
X0203340Y0205101D02*
X0201138Y0205101D01*
X0201138Y0206202D01*
X0201505Y0206569D01*
X0202606Y0205835D02*
X0203340Y0206569D01*
X0203340Y0207311D02*
X0201138Y0208779D01*
X0176804Y0227319D02*
X0174602Y0227319D01*
X0174602Y0226585D02*
X0174602Y0228053D01*
X0174602Y0228795D02*
X0176804Y0230263D01*
X0176804Y0231005D02*
X0176804Y0232106D01*
X0176437Y0232473D01*
X0174969Y0232473D01*
X0174602Y0232106D01*
X0174602Y0231005D01*
X0176804Y0231005D01*
X0176804Y0233215D02*
X0176804Y0234683D01*
X0176804Y0233949D02*
X0174602Y0233949D01*
X0175336Y0233215D01*
X0174602Y0230263D02*
X0176804Y0228795D01*
X0196115Y0237799D02*
X0196115Y0239267D01*
X0196115Y0238533D02*
X0198317Y0238533D01*
X0198317Y0240009D02*
X0196115Y0241477D01*
X0196115Y0242219D02*
X0198317Y0242219D01*
X0198317Y0243687D01*
X0198317Y0244429D02*
X0196115Y0244429D01*
X0198317Y0245897D01*
X0196115Y0245897D01*
X0196115Y0243687D02*
X0196115Y0242219D01*
X0197216Y0242219D02*
X0197216Y0242953D01*
X0198317Y0241477D02*
X0196115Y0240009D01*
X0201888Y0239931D02*
X0204090Y0241399D01*
X0204090Y0242141D02*
X0201888Y0242141D01*
X0201888Y0243242D01*
X0202255Y0243609D01*
X0203723Y0243609D01*
X0204090Y0243242D01*
X0204090Y0242141D01*
X0204090Y0239931D02*
X0201888Y0241399D01*
X0202255Y0239189D02*
X0202989Y0239189D01*
X0203356Y0238822D01*
X0203356Y0237721D01*
X0204090Y0237721D02*
X0201888Y0237721D01*
X0201888Y0238822D01*
X0202255Y0239189D01*
X0203356Y0238455D02*
X0204090Y0239189D01*
X0206283Y0238937D02*
X0207384Y0238937D01*
X0207751Y0239304D01*
X0207751Y0240038D01*
X0207384Y0240405D01*
X0206283Y0240405D01*
X0206283Y0238203D01*
X0207017Y0238937D02*
X0207751Y0238203D01*
X0208493Y0238203D02*
X0209961Y0238203D01*
X0210703Y0238203D02*
X0210703Y0240405D01*
X0212171Y0240405D01*
X0212913Y0240038D02*
X0212913Y0238570D01*
X0213280Y0238203D01*
X0214014Y0238203D01*
X0214381Y0238570D01*
X0215123Y0238203D02*
X0216590Y0238203D01*
X0217332Y0238203D02*
X0217332Y0240405D01*
X0217699Y0239304D02*
X0218800Y0238203D01*
X0219882Y0238308D02*
X0219882Y0240510D01*
X0220616Y0239776D01*
X0221350Y0240510D01*
X0221350Y0238308D01*
X0222092Y0238308D02*
X0223193Y0238308D01*
X0223560Y0238675D01*
X0223560Y0240143D01*
X0223193Y0240510D01*
X0222092Y0240510D01*
X0222092Y0238308D01*
X0224302Y0238308D02*
X0225036Y0238308D01*
X0224669Y0238308D02*
X0224669Y0240510D01*
X0224302Y0240510D02*
X0225036Y0240510D01*
X0225775Y0240143D02*
X0225775Y0238675D01*
X0226142Y0238308D01*
X0226876Y0238308D01*
X0227243Y0238675D01*
X0227243Y0240143D01*
X0226876Y0240510D01*
X0226142Y0240510D01*
X0225775Y0240143D01*
X0218800Y0240405D02*
X0217332Y0238937D01*
X0215123Y0238203D02*
X0215123Y0240405D01*
X0214381Y0240038D02*
X0214014Y0240405D01*
X0213280Y0240405D01*
X0212913Y0240038D01*
X0211437Y0239304D02*
X0210703Y0239304D01*
X0209961Y0240405D02*
X0208493Y0240405D01*
X0208493Y0238203D01*
X0208493Y0239304D02*
X0209227Y0239304D01*
X0204090Y0244718D02*
X0203723Y0244351D01*
X0202255Y0245819D01*
X0203723Y0245819D01*
X0204090Y0245452D01*
X0204090Y0244718D01*
X0203723Y0244351D02*
X0202255Y0244351D01*
X0201888Y0244718D01*
X0201888Y0245452D01*
X0202255Y0245819D01*
X0238066Y0211772D02*
X0238066Y0210671D01*
X0240267Y0210671D01*
X0240267Y0211772D01*
X0239901Y0212139D01*
X0238433Y0212139D01*
X0238066Y0211772D01*
X0238066Y0209929D02*
X0240267Y0209929D01*
X0238066Y0208462D01*
X0240267Y0208462D01*
X0239901Y0207720D02*
X0239167Y0207720D01*
X0239167Y0206986D01*
X0239901Y0207720D02*
X0240267Y0207353D01*
X0240267Y0206619D01*
X0239901Y0206252D01*
X0238433Y0206252D01*
X0238066Y0206619D01*
X0238066Y0207353D01*
X0238433Y0207720D01*
X0250396Y0204838D02*
X0252598Y0204838D01*
X0252598Y0204104D02*
X0252598Y0205572D01*
X0251130Y0204104D02*
X0250396Y0204838D01*
X0250396Y0203362D02*
X0252598Y0203362D01*
X0251497Y0203362D02*
X0251497Y0201894D01*
X0251497Y0201152D02*
X0251864Y0200785D01*
X0251864Y0199684D01*
X0252598Y0199684D02*
X0250396Y0199684D01*
X0250396Y0200785D01*
X0250763Y0201152D01*
X0251497Y0201152D01*
X0252598Y0201894D02*
X0250396Y0201894D01*
X0250396Y0196356D02*
X0250396Y0194888D01*
X0251497Y0194888D01*
X0251130Y0195622D01*
X0251130Y0195989D01*
X0251497Y0196356D01*
X0252231Y0196356D01*
X0252598Y0195989D01*
X0252598Y0195255D01*
X0252231Y0194888D01*
X0251660Y0186589D02*
X0251293Y0186222D01*
X0251293Y0185855D01*
X0251293Y0186222D02*
X0250926Y0186589D01*
X0250560Y0186589D01*
X0250193Y0186222D01*
X0250193Y0185488D01*
X0250560Y0185121D01*
X0250451Y0176791D02*
X0250818Y0176791D01*
X0251185Y0176424D01*
X0251552Y0176791D01*
X0251185Y0176424D02*
X0251185Y0176057D01*
X0250451Y0175323D02*
X0250084Y0175690D01*
X0250084Y0176424D01*
X0250451Y0176791D01*
X0250084Y0174581D02*
X0251552Y0174581D01*
X0251769Y0166267D02*
X0252136Y0165900D01*
X0252136Y0165166D01*
X0251769Y0164799D01*
X0250624Y0214293D02*
X0250624Y0215761D01*
X0249891Y0215027D02*
X0251358Y0215027D01*
X0251358Y0216503D02*
X0251725Y0216870D01*
X0251725Y0217604D01*
X0251358Y0217971D01*
X0250991Y0217971D01*
X0250624Y0217604D01*
X0250624Y0217237D01*
X0250624Y0217604D02*
X0250257Y0217971D01*
X0249891Y0217971D01*
X0249524Y0217604D01*
X0249524Y0216870D01*
X0249891Y0216503D01*
X0249524Y0218713D02*
X0250991Y0218713D01*
X0251725Y0219447D01*
X0250991Y0220181D01*
X0249524Y0220181D01*
X0249891Y0220923D02*
X0249524Y0221290D01*
X0249524Y0222024D01*
X0249891Y0222391D01*
X0250257Y0222391D01*
X0250624Y0222024D01*
X0250991Y0222391D01*
X0251358Y0222391D01*
X0251725Y0222024D01*
X0251725Y0221290D01*
X0251358Y0220923D01*
X0250624Y0221657D02*
X0250624Y0222024D01*
X0250355Y0224452D02*
X0250355Y0225919D01*
X0249621Y0225186D02*
X0251089Y0225186D01*
X0251089Y0226661D02*
X0251456Y0227028D01*
X0251456Y0227762D01*
X0251089Y0228129D01*
X0250722Y0228129D01*
X0250355Y0227762D01*
X0250355Y0227395D01*
X0250355Y0227762D02*
X0249988Y0228129D01*
X0249621Y0228129D01*
X0249254Y0227762D01*
X0249254Y0227028D01*
X0249621Y0226661D01*
X0249254Y0228871D02*
X0250722Y0228871D01*
X0251456Y0229605D01*
X0250722Y0230339D01*
X0249254Y0230339D01*
X0249621Y0231081D02*
X0249254Y0231448D01*
X0249254Y0232182D01*
X0249621Y0232549D01*
X0249988Y0232549D01*
X0250355Y0232182D01*
X0250722Y0232549D01*
X0251089Y0232549D01*
X0251456Y0232182D01*
X0251456Y0231448D01*
X0251089Y0231081D01*
X0250355Y0231815D02*
X0250355Y0232182D01*
D11*
X0236802Y0128966D02*
X0236802Y0126439D01*
X0236744Y0126439D01*
X0217320Y0127319D02*
X0217320Y0130069D01*
X0080025Y0336327D02*
X0080025Y0344201D01*
X0080025Y0367823D01*
X0080025Y0375697D01*
D12*
X0097832Y0236851D02*
X0104237Y0236851D01*
X0097832Y0232580D01*
X0104237Y0232580D01*
X0104237Y0230405D02*
X0104237Y0227203D01*
X0103170Y0226135D01*
X0101035Y0226135D01*
X0099967Y0227203D01*
X0099967Y0230405D01*
X0099967Y0228270D02*
X0097832Y0226135D01*
X0098900Y0223960D02*
X0097832Y0222892D01*
X0097832Y0220757D01*
X0098900Y0219689D01*
X0099967Y0219689D01*
X0101035Y0220757D01*
X0101035Y0222892D01*
X0102102Y0223960D01*
X0103170Y0223960D01*
X0104237Y0222892D01*
X0104237Y0220757D01*
X0103170Y0219689D01*
X0104237Y0217514D02*
X0104237Y0213244D01*
X0104237Y0215379D02*
X0097832Y0215379D01*
X0097832Y0230405D02*
X0104237Y0230405D01*
X0104256Y0198445D02*
X0097851Y0198445D01*
X0097851Y0195242D01*
X0098918Y0194175D01*
X0099986Y0194175D01*
X0101054Y0195242D01*
X0101054Y0198445D01*
X0104256Y0198445D02*
X0104256Y0195242D01*
X0103189Y0194175D01*
X0102121Y0194175D01*
X0101054Y0195242D01*
X0103189Y0191999D02*
X0098918Y0191999D01*
X0097851Y0190932D01*
X0097851Y0188797D01*
X0098918Y0187729D01*
X0103189Y0187729D01*
X0104256Y0188797D01*
X0104256Y0190932D01*
X0103189Y0191999D01*
X0103189Y0185554D02*
X0098918Y0185554D01*
X0097851Y0184486D01*
X0097851Y0182351D01*
X0098918Y0181284D01*
X0103189Y0181284D01*
X0104256Y0182351D01*
X0104256Y0184486D01*
X0103189Y0185554D01*
X0104256Y0179108D02*
X0104256Y0174838D01*
X0104256Y0176973D02*
X0097851Y0176973D01*
X0109983Y0127555D02*
X0121383Y0127555D01*
X0121383Y0124555D01*
X0109983Y0124555D01*
X0109983Y0127555D01*
X0147193Y0130247D02*
X0147193Y0205247D01*
X0147195Y0205345D01*
X0147201Y0205443D01*
X0147210Y0205541D01*
X0147224Y0205638D01*
X0147241Y0205735D01*
X0147262Y0205831D01*
X0147287Y0205926D01*
X0147315Y0206020D01*
X0147348Y0206112D01*
X0147383Y0206204D01*
X0147423Y0206294D01*
X0147465Y0206382D01*
X0147512Y0206469D01*
X0147561Y0206553D01*
X0147614Y0206636D01*
X0147670Y0206716D01*
X0147730Y0206795D01*
X0147792Y0206871D01*
X0147857Y0206944D01*
X0147925Y0207015D01*
X0147996Y0207083D01*
X0148069Y0207148D01*
X0148145Y0207210D01*
X0148224Y0207270D01*
X0148304Y0207326D01*
X0148387Y0207379D01*
X0148471Y0207428D01*
X0148558Y0207475D01*
X0148646Y0207517D01*
X0148736Y0207557D01*
X0148828Y0207592D01*
X0148920Y0207625D01*
X0149014Y0207653D01*
X0149109Y0207678D01*
X0149205Y0207699D01*
X0149302Y0207716D01*
X0149399Y0207730D01*
X0149497Y0207739D01*
X0149595Y0207745D01*
X0149693Y0207747D01*
X0168693Y0207747D01*
X0168791Y0207745D01*
X0168889Y0207739D01*
X0168987Y0207730D01*
X0169084Y0207716D01*
X0169181Y0207699D01*
X0169277Y0207678D01*
X0169372Y0207653D01*
X0169466Y0207625D01*
X0169558Y0207592D01*
X0169650Y0207557D01*
X0169740Y0207517D01*
X0169828Y0207475D01*
X0169915Y0207428D01*
X0169999Y0207379D01*
X0170082Y0207326D01*
X0170162Y0207270D01*
X0170241Y0207210D01*
X0170317Y0207148D01*
X0170390Y0207083D01*
X0170461Y0207015D01*
X0170529Y0206944D01*
X0170594Y0206871D01*
X0170656Y0206795D01*
X0170716Y0206716D01*
X0170772Y0206636D01*
X0170825Y0206553D01*
X0170874Y0206469D01*
X0170921Y0206382D01*
X0170963Y0206294D01*
X0171003Y0206204D01*
X0171038Y0206112D01*
X0171071Y0206020D01*
X0171099Y0205926D01*
X0171124Y0205831D01*
X0171145Y0205735D01*
X0171162Y0205638D01*
X0171176Y0205541D01*
X0171185Y0205443D01*
X0171191Y0205345D01*
X0171193Y0205247D01*
X0171193Y0130247D01*
X0171191Y0130149D01*
X0171185Y0130051D01*
X0171176Y0129953D01*
X0171162Y0129856D01*
X0171145Y0129759D01*
X0171124Y0129663D01*
X0171099Y0129568D01*
X0171071Y0129474D01*
X0171038Y0129382D01*
X0171003Y0129290D01*
X0170963Y0129200D01*
X0170921Y0129112D01*
X0170874Y0129025D01*
X0170825Y0128941D01*
X0170772Y0128858D01*
X0170716Y0128778D01*
X0170656Y0128699D01*
X0170594Y0128623D01*
X0170529Y0128550D01*
X0170461Y0128479D01*
X0170390Y0128411D01*
X0170317Y0128346D01*
X0170241Y0128284D01*
X0170162Y0128224D01*
X0170082Y0128168D01*
X0169999Y0128115D01*
X0169915Y0128066D01*
X0169828Y0128019D01*
X0169740Y0127977D01*
X0169650Y0127937D01*
X0169558Y0127902D01*
X0169466Y0127869D01*
X0169372Y0127841D01*
X0169277Y0127816D01*
X0169181Y0127795D01*
X0169084Y0127778D01*
X0168987Y0127764D01*
X0168889Y0127755D01*
X0168791Y0127749D01*
X0168693Y0127747D01*
X0149693Y0127747D01*
X0149595Y0127749D01*
X0149497Y0127755D01*
X0149399Y0127764D01*
X0149302Y0127778D01*
X0149205Y0127795D01*
X0149109Y0127816D01*
X0149014Y0127841D01*
X0148920Y0127869D01*
X0148828Y0127902D01*
X0148736Y0127937D01*
X0148646Y0127977D01*
X0148558Y0128019D01*
X0148471Y0128066D01*
X0148387Y0128115D01*
X0148304Y0128168D01*
X0148224Y0128224D01*
X0148145Y0128284D01*
X0148069Y0128346D01*
X0147996Y0128411D01*
X0147925Y0128479D01*
X0147857Y0128550D01*
X0147792Y0128623D01*
X0147730Y0128699D01*
X0147670Y0128778D01*
X0147614Y0128858D01*
X0147561Y0128941D01*
X0147512Y0129025D01*
X0147465Y0129112D01*
X0147423Y0129200D01*
X0147383Y0129290D01*
X0147348Y0129382D01*
X0147315Y0129474D01*
X0147287Y0129568D01*
X0147262Y0129663D01*
X0147241Y0129759D01*
X0147224Y0129856D01*
X0147210Y0129953D01*
X0147201Y0130051D01*
X0147195Y0130149D01*
X0147193Y0130247D01*
X0172343Y0124098D02*
X0172343Y0105098D01*
X0172345Y0105000D01*
X0172351Y0104902D01*
X0172360Y0104804D01*
X0172374Y0104707D01*
X0172391Y0104610D01*
X0172412Y0104514D01*
X0172437Y0104419D01*
X0172465Y0104325D01*
X0172498Y0104233D01*
X0172533Y0104141D01*
X0172573Y0104051D01*
X0172615Y0103963D01*
X0172662Y0103876D01*
X0172711Y0103792D01*
X0172764Y0103709D01*
X0172820Y0103629D01*
X0172880Y0103550D01*
X0172942Y0103474D01*
X0173007Y0103401D01*
X0173075Y0103330D01*
X0173146Y0103262D01*
X0173219Y0103197D01*
X0173295Y0103135D01*
X0173374Y0103075D01*
X0173454Y0103019D01*
X0173537Y0102966D01*
X0173621Y0102917D01*
X0173708Y0102870D01*
X0173796Y0102828D01*
X0173886Y0102788D01*
X0173978Y0102753D01*
X0174070Y0102720D01*
X0174164Y0102692D01*
X0174259Y0102667D01*
X0174355Y0102646D01*
X0174452Y0102629D01*
X0174549Y0102615D01*
X0174647Y0102606D01*
X0174745Y0102600D01*
X0174843Y0102598D01*
X0249843Y0102598D01*
X0249941Y0102600D01*
X0250039Y0102606D01*
X0250137Y0102615D01*
X0250234Y0102629D01*
X0250331Y0102646D01*
X0250427Y0102667D01*
X0250522Y0102692D01*
X0250616Y0102720D01*
X0250708Y0102753D01*
X0250800Y0102788D01*
X0250890Y0102828D01*
X0250978Y0102870D01*
X0251065Y0102917D01*
X0251149Y0102966D01*
X0251232Y0103019D01*
X0251312Y0103075D01*
X0251391Y0103135D01*
X0251467Y0103197D01*
X0251540Y0103262D01*
X0251611Y0103330D01*
X0251679Y0103401D01*
X0251744Y0103474D01*
X0251806Y0103550D01*
X0251866Y0103629D01*
X0251922Y0103709D01*
X0251975Y0103792D01*
X0252024Y0103876D01*
X0252071Y0103963D01*
X0252113Y0104051D01*
X0252153Y0104141D01*
X0252188Y0104233D01*
X0252221Y0104325D01*
X0252249Y0104419D01*
X0252274Y0104514D01*
X0252295Y0104610D01*
X0252312Y0104707D01*
X0252326Y0104804D01*
X0252335Y0104902D01*
X0252341Y0105000D01*
X0252343Y0105098D01*
X0252343Y0124098D01*
X0252341Y0124196D01*
X0252335Y0124294D01*
X0252326Y0124392D01*
X0252312Y0124489D01*
X0252295Y0124586D01*
X0252274Y0124682D01*
X0252249Y0124777D01*
X0252221Y0124871D01*
X0252188Y0124963D01*
X0252153Y0125055D01*
X0252113Y0125145D01*
X0252071Y0125233D01*
X0252024Y0125320D01*
X0251975Y0125404D01*
X0251922Y0125487D01*
X0251866Y0125567D01*
X0251806Y0125646D01*
X0251744Y0125722D01*
X0251679Y0125795D01*
X0251611Y0125866D01*
X0251540Y0125934D01*
X0251467Y0125999D01*
X0251391Y0126061D01*
X0251312Y0126121D01*
X0251232Y0126177D01*
X0251149Y0126230D01*
X0251065Y0126279D01*
X0250978Y0126326D01*
X0250890Y0126368D01*
X0250800Y0126408D01*
X0250708Y0126443D01*
X0250616Y0126476D01*
X0250522Y0126504D01*
X0250427Y0126529D01*
X0250331Y0126550D01*
X0250234Y0126567D01*
X0250137Y0126581D01*
X0250039Y0126590D01*
X0249941Y0126596D01*
X0249843Y0126598D01*
X0174843Y0126598D01*
X0174745Y0126596D01*
X0174647Y0126590D01*
X0174549Y0126581D01*
X0174452Y0126567D01*
X0174355Y0126550D01*
X0174259Y0126529D01*
X0174164Y0126504D01*
X0174070Y0126476D01*
X0173978Y0126443D01*
X0173886Y0126408D01*
X0173796Y0126368D01*
X0173708Y0126326D01*
X0173621Y0126279D01*
X0173537Y0126230D01*
X0173454Y0126177D01*
X0173374Y0126121D01*
X0173295Y0126061D01*
X0173219Y0125999D01*
X0173146Y0125934D01*
X0173075Y0125866D01*
X0173007Y0125795D01*
X0172942Y0125722D01*
X0172880Y0125646D01*
X0172820Y0125567D01*
X0172764Y0125487D01*
X0172711Y0125404D01*
X0172662Y0125320D01*
X0172615Y0125233D01*
X0172573Y0125145D01*
X0172533Y0125055D01*
X0172498Y0124963D01*
X0172465Y0124871D01*
X0172437Y0124777D01*
X0172412Y0124682D01*
X0172391Y0124586D01*
X0172374Y0124489D01*
X0172360Y0124392D01*
X0172351Y0124294D01*
X0172345Y0124196D01*
X0172343Y0124098D01*
X0253492Y0130247D02*
X0253492Y0205247D01*
X0253494Y0205345D01*
X0253500Y0205443D01*
X0253509Y0205541D01*
X0253523Y0205638D01*
X0253540Y0205735D01*
X0253561Y0205831D01*
X0253586Y0205926D01*
X0253614Y0206020D01*
X0253647Y0206112D01*
X0253682Y0206204D01*
X0253722Y0206294D01*
X0253764Y0206382D01*
X0253811Y0206469D01*
X0253860Y0206553D01*
X0253913Y0206636D01*
X0253969Y0206716D01*
X0254029Y0206795D01*
X0254091Y0206871D01*
X0254156Y0206944D01*
X0254224Y0207015D01*
X0254295Y0207083D01*
X0254368Y0207148D01*
X0254444Y0207210D01*
X0254523Y0207270D01*
X0254603Y0207326D01*
X0254686Y0207379D01*
X0254770Y0207428D01*
X0254857Y0207475D01*
X0254945Y0207517D01*
X0255035Y0207557D01*
X0255127Y0207592D01*
X0255219Y0207625D01*
X0255313Y0207653D01*
X0255408Y0207678D01*
X0255504Y0207699D01*
X0255601Y0207716D01*
X0255698Y0207730D01*
X0255796Y0207739D01*
X0255894Y0207745D01*
X0255992Y0207747D01*
X0274992Y0207747D01*
X0275090Y0207745D01*
X0275188Y0207739D01*
X0275286Y0207730D01*
X0275383Y0207716D01*
X0275480Y0207699D01*
X0275576Y0207678D01*
X0275671Y0207653D01*
X0275765Y0207625D01*
X0275857Y0207592D01*
X0275949Y0207557D01*
X0276039Y0207517D01*
X0276127Y0207475D01*
X0276214Y0207428D01*
X0276298Y0207379D01*
X0276381Y0207326D01*
X0276461Y0207270D01*
X0276540Y0207210D01*
X0276616Y0207148D01*
X0276689Y0207083D01*
X0276760Y0207015D01*
X0276828Y0206944D01*
X0276893Y0206871D01*
X0276955Y0206795D01*
X0277015Y0206716D01*
X0277071Y0206636D01*
X0277124Y0206553D01*
X0277173Y0206469D01*
X0277220Y0206382D01*
X0277262Y0206294D01*
X0277302Y0206204D01*
X0277337Y0206112D01*
X0277370Y0206020D01*
X0277398Y0205926D01*
X0277423Y0205831D01*
X0277444Y0205735D01*
X0277461Y0205638D01*
X0277475Y0205541D01*
X0277484Y0205443D01*
X0277490Y0205345D01*
X0277492Y0205247D01*
X0277492Y0130247D01*
X0277490Y0130149D01*
X0277484Y0130051D01*
X0277475Y0129953D01*
X0277461Y0129856D01*
X0277444Y0129759D01*
X0277423Y0129663D01*
X0277398Y0129568D01*
X0277370Y0129474D01*
X0277337Y0129382D01*
X0277302Y0129290D01*
X0277262Y0129200D01*
X0277220Y0129112D01*
X0277173Y0129025D01*
X0277124Y0128941D01*
X0277071Y0128858D01*
X0277015Y0128778D01*
X0276955Y0128699D01*
X0276893Y0128623D01*
X0276828Y0128550D01*
X0276760Y0128479D01*
X0276689Y0128411D01*
X0276616Y0128346D01*
X0276540Y0128284D01*
X0276461Y0128224D01*
X0276381Y0128168D01*
X0276298Y0128115D01*
X0276214Y0128066D01*
X0276127Y0128019D01*
X0276039Y0127977D01*
X0275949Y0127937D01*
X0275857Y0127902D01*
X0275765Y0127869D01*
X0275671Y0127841D01*
X0275576Y0127816D01*
X0275480Y0127795D01*
X0275383Y0127778D01*
X0275286Y0127764D01*
X0275188Y0127755D01*
X0275090Y0127749D01*
X0274992Y0127747D01*
X0255992Y0127747D01*
X0255894Y0127749D01*
X0255796Y0127755D01*
X0255698Y0127764D01*
X0255601Y0127778D01*
X0255504Y0127795D01*
X0255408Y0127816D01*
X0255313Y0127841D01*
X0255219Y0127869D01*
X0255127Y0127902D01*
X0255035Y0127937D01*
X0254945Y0127977D01*
X0254857Y0128019D01*
X0254770Y0128066D01*
X0254686Y0128115D01*
X0254603Y0128168D01*
X0254523Y0128224D01*
X0254444Y0128284D01*
X0254368Y0128346D01*
X0254295Y0128411D01*
X0254224Y0128479D01*
X0254156Y0128550D01*
X0254091Y0128623D01*
X0254029Y0128699D01*
X0253969Y0128778D01*
X0253913Y0128858D01*
X0253860Y0128941D01*
X0253811Y0129025D01*
X0253764Y0129112D01*
X0253722Y0129200D01*
X0253682Y0129290D01*
X0253647Y0129382D01*
X0253614Y0129474D01*
X0253586Y0129568D01*
X0253561Y0129663D01*
X0253540Y0129759D01*
X0253523Y0129856D01*
X0253509Y0129953D01*
X0253500Y0130051D01*
X0253494Y0130149D01*
X0253492Y0130247D01*
X0245302Y0213317D02*
X0180302Y0213317D01*
X0180204Y0213319D01*
X0180106Y0213325D01*
X0180008Y0213334D01*
X0179911Y0213348D01*
X0179814Y0213365D01*
X0179718Y0213386D01*
X0179623Y0213411D01*
X0179529Y0213439D01*
X0179437Y0213472D01*
X0179345Y0213507D01*
X0179255Y0213547D01*
X0179167Y0213589D01*
X0179080Y0213636D01*
X0178996Y0213685D01*
X0178913Y0213738D01*
X0178833Y0213794D01*
X0178754Y0213854D01*
X0178678Y0213916D01*
X0178605Y0213981D01*
X0178534Y0214049D01*
X0178466Y0214120D01*
X0178401Y0214193D01*
X0178339Y0214269D01*
X0178279Y0214348D01*
X0178223Y0214428D01*
X0178170Y0214511D01*
X0178121Y0214595D01*
X0178074Y0214682D01*
X0178032Y0214770D01*
X0177992Y0214860D01*
X0177957Y0214952D01*
X0177924Y0215044D01*
X0177896Y0215138D01*
X0177871Y0215233D01*
X0177850Y0215329D01*
X0177833Y0215426D01*
X0177819Y0215523D01*
X0177810Y0215621D01*
X0177804Y0215719D01*
X0177802Y0215817D01*
X0177802Y0234817D01*
X0177804Y0234915D01*
X0177810Y0235013D01*
X0177819Y0235111D01*
X0177833Y0235208D01*
X0177850Y0235305D01*
X0177871Y0235401D01*
X0177896Y0235496D01*
X0177924Y0235590D01*
X0177957Y0235682D01*
X0177992Y0235774D01*
X0178032Y0235864D01*
X0178074Y0235952D01*
X0178121Y0236039D01*
X0178170Y0236123D01*
X0178223Y0236206D01*
X0178279Y0236286D01*
X0178339Y0236365D01*
X0178401Y0236441D01*
X0178466Y0236514D01*
X0178534Y0236585D01*
X0178605Y0236653D01*
X0178678Y0236718D01*
X0178754Y0236780D01*
X0178833Y0236840D01*
X0178913Y0236896D01*
X0178996Y0236949D01*
X0179080Y0236998D01*
X0179167Y0237045D01*
X0179255Y0237087D01*
X0179345Y0237127D01*
X0179437Y0237162D01*
X0179529Y0237195D01*
X0179623Y0237223D01*
X0179718Y0237248D01*
X0179814Y0237269D01*
X0179911Y0237286D01*
X0180008Y0237300D01*
X0180106Y0237309D01*
X0180204Y0237315D01*
X0180302Y0237317D01*
X0245302Y0237317D01*
X0245400Y0237315D01*
X0245498Y0237309D01*
X0245596Y0237300D01*
X0245693Y0237286D01*
X0245790Y0237269D01*
X0245886Y0237248D01*
X0245981Y0237223D01*
X0246075Y0237195D01*
X0246167Y0237162D01*
X0246259Y0237127D01*
X0246349Y0237087D01*
X0246437Y0237045D01*
X0246524Y0236998D01*
X0246608Y0236949D01*
X0246691Y0236896D01*
X0246771Y0236840D01*
X0246850Y0236780D01*
X0246926Y0236718D01*
X0246999Y0236653D01*
X0247070Y0236585D01*
X0247138Y0236514D01*
X0247203Y0236441D01*
X0247265Y0236365D01*
X0247325Y0236286D01*
X0247381Y0236206D01*
X0247434Y0236123D01*
X0247483Y0236039D01*
X0247530Y0235952D01*
X0247572Y0235864D01*
X0247612Y0235774D01*
X0247647Y0235682D01*
X0247680Y0235590D01*
X0247708Y0235496D01*
X0247733Y0235401D01*
X0247754Y0235305D01*
X0247771Y0235208D01*
X0247785Y0235111D01*
X0247794Y0235013D01*
X0247800Y0234915D01*
X0247802Y0234817D01*
X0247802Y0215817D01*
X0247800Y0215719D01*
X0247794Y0215621D01*
X0247785Y0215523D01*
X0247771Y0215426D01*
X0247754Y0215329D01*
X0247733Y0215233D01*
X0247708Y0215138D01*
X0247680Y0215044D01*
X0247647Y0214952D01*
X0247612Y0214860D01*
X0247572Y0214770D01*
X0247530Y0214682D01*
X0247483Y0214595D01*
X0247434Y0214511D01*
X0247381Y0214428D01*
X0247325Y0214348D01*
X0247265Y0214269D01*
X0247203Y0214193D01*
X0247138Y0214120D01*
X0247070Y0214049D01*
X0246999Y0213981D01*
X0246926Y0213916D01*
X0246850Y0213854D01*
X0246771Y0213794D01*
X0246691Y0213738D01*
X0246608Y0213685D01*
X0246524Y0213636D01*
X0246437Y0213589D01*
X0246349Y0213547D01*
X0246259Y0213507D01*
X0246167Y0213472D01*
X0246075Y0213439D01*
X0245981Y0213411D01*
X0245886Y0213386D01*
X0245790Y0213365D01*
X0245693Y0213348D01*
X0245596Y0213334D01*
X0245498Y0213325D01*
X0245400Y0213319D01*
X0245302Y0213317D01*
D13*
X0272025Y0266287D02*
X0271407Y0266904D01*
X0272025Y0267521D01*
X0273876Y0267521D01*
X0273876Y0268138D02*
X0273876Y0266287D01*
X0272025Y0266287D01*
X0272025Y0268755D02*
X0273259Y0268755D01*
X0273876Y0268138D01*
X0275090Y0268755D02*
X0276942Y0268755D01*
X0277559Y0268138D01*
X0277559Y0266287D01*
X0278774Y0266904D02*
X0278774Y0268138D01*
X0279391Y0268755D01*
X0281242Y0268755D01*
X0281242Y0269990D02*
X0281242Y0266287D01*
X0279391Y0266287D01*
X0278774Y0266904D01*
X0275090Y0266287D02*
X0275090Y0268755D01*
X0273876Y0272287D02*
X0273876Y0274138D01*
X0273259Y0274755D01*
X0272642Y0274138D01*
X0272642Y0272287D01*
X0271407Y0272287D02*
X0271407Y0274755D01*
X0272025Y0274755D01*
X0272642Y0274138D01*
X0270193Y0274138D02*
X0270193Y0272287D01*
X0268341Y0272287D01*
X0267724Y0272904D01*
X0268341Y0273521D01*
X0270193Y0273521D01*
X0270193Y0274138D02*
X0269576Y0274755D01*
X0268341Y0274755D01*
X0266510Y0275373D02*
X0265893Y0275990D01*
X0264658Y0275990D01*
X0264041Y0275373D01*
X0264041Y0274755D01*
X0264658Y0274138D01*
X0265893Y0274138D01*
X0266510Y0273521D01*
X0266510Y0272904D01*
X0265893Y0272287D01*
X0264658Y0272287D01*
X0264041Y0272904D01*
X0259144Y0272287D02*
X0257292Y0272287D01*
X0256675Y0272904D01*
X0256675Y0274755D01*
X0255460Y0274138D02*
X0255460Y0272904D01*
X0254843Y0272287D01*
X0252992Y0272287D01*
X0252992Y0275990D01*
X0252992Y0274755D02*
X0254843Y0274755D01*
X0255460Y0274138D01*
X0259144Y0274755D02*
X0259144Y0271670D01*
X0258526Y0271052D01*
X0257909Y0271052D01*
X0259744Y0278287D02*
X0259744Y0281990D01*
X0261596Y0281990D01*
X0262213Y0281373D01*
X0262213Y0280138D01*
X0261596Y0279521D01*
X0259744Y0279521D01*
X0260978Y0279521D02*
X0262213Y0278287D01*
X0263427Y0278904D02*
X0264044Y0278287D01*
X0265279Y0278287D01*
X0265896Y0278904D01*
X0265896Y0281373D01*
X0265279Y0281990D01*
X0264044Y0281990D01*
X0263427Y0281373D01*
X0263427Y0278904D01*
X0267110Y0279521D02*
X0267110Y0281990D01*
X0267110Y0279521D02*
X0268345Y0278287D01*
X0269579Y0279521D01*
X0269579Y0281990D01*
X0274477Y0281373D02*
X0275094Y0281990D01*
X0276328Y0281990D01*
X0276945Y0281373D01*
X0276945Y0280755D01*
X0274477Y0278287D01*
X0276945Y0278287D01*
X0278160Y0278904D02*
X0280629Y0281373D01*
X0280629Y0278904D01*
X0280011Y0278287D01*
X0278777Y0278287D01*
X0278160Y0278904D01*
X0278160Y0281373D01*
X0278777Y0281990D01*
X0280011Y0281990D01*
X0280629Y0281373D01*
X0281843Y0280755D02*
X0283077Y0281990D01*
X0283077Y0278287D01*
X0281843Y0278287D02*
X0284312Y0278287D01*
X0285526Y0278904D02*
X0286143Y0278287D01*
X0287378Y0278287D01*
X0287995Y0278904D01*
X0287995Y0280138D01*
X0287378Y0280755D01*
X0286760Y0280755D01*
X0285526Y0280138D01*
X0285526Y0281990D01*
X0287995Y0281990D01*
X0291678Y0281990D02*
X0289209Y0278287D01*
X0289823Y0275990D02*
X0289823Y0272287D01*
X0288609Y0272287D02*
X0286757Y0272287D01*
X0286140Y0272904D01*
X0286140Y0274138D01*
X0286757Y0274755D01*
X0288609Y0274755D01*
X0288609Y0271670D01*
X0287991Y0271052D01*
X0287374Y0271052D01*
X0286140Y0269990D02*
X0286140Y0266287D01*
X0288609Y0266287D01*
X0289823Y0266904D02*
X0290440Y0266287D01*
X0292292Y0266287D01*
X0292292Y0268755D01*
X0293506Y0267521D02*
X0295358Y0268755D01*
X0296575Y0268138D02*
X0297193Y0268755D01*
X0298427Y0268755D01*
X0299044Y0268138D01*
X0299044Y0267521D01*
X0296575Y0267521D01*
X0296575Y0266904D02*
X0296575Y0268138D01*
X0296575Y0266904D02*
X0297193Y0266287D01*
X0298427Y0266287D01*
X0295358Y0266287D02*
X0293506Y0267521D01*
X0293506Y0266287D02*
X0293506Y0269990D01*
X0294123Y0272287D02*
X0295975Y0272287D01*
X0295975Y0274755D01*
X0297189Y0274138D02*
X0297189Y0272904D01*
X0297807Y0272287D01*
X0299041Y0272287D01*
X0299658Y0273521D02*
X0297189Y0273521D01*
X0297189Y0274138D02*
X0297807Y0274755D01*
X0299041Y0274755D01*
X0299658Y0274138D01*
X0299658Y0273521D01*
X0300873Y0273521D02*
X0303341Y0273521D01*
X0303341Y0274138D01*
X0302724Y0274755D01*
X0301490Y0274755D01*
X0300873Y0274138D01*
X0300873Y0272904D01*
X0301490Y0272287D01*
X0302724Y0272287D01*
X0303942Y0269990D02*
X0305176Y0268755D01*
X0306411Y0269990D01*
X0306411Y0266287D01*
X0307625Y0266904D02*
X0308242Y0266287D01*
X0310094Y0266287D01*
X0311308Y0266287D02*
X0313160Y0266287D01*
X0313777Y0266904D01*
X0313777Y0267521D01*
X0313160Y0268138D01*
X0311308Y0268138D01*
X0310094Y0268755D02*
X0308242Y0268755D01*
X0307625Y0268138D01*
X0307625Y0266904D01*
X0311308Y0266287D02*
X0311308Y0269990D01*
X0313160Y0269990D01*
X0313777Y0269373D01*
X0313777Y0268755D01*
X0313160Y0268138D01*
X0314991Y0268138D02*
X0315608Y0268755D01*
X0316843Y0268755D01*
X0317460Y0268138D01*
X0317460Y0267521D01*
X0314991Y0267521D01*
X0314991Y0266904D02*
X0314991Y0268138D01*
X0314991Y0266904D02*
X0315608Y0266287D01*
X0316843Y0266287D01*
X0318674Y0266904D02*
X0318674Y0268138D01*
X0319292Y0268755D01*
X0320526Y0268755D01*
X0321143Y0268138D01*
X0321143Y0267521D01*
X0318674Y0267521D01*
X0318674Y0266904D02*
X0319292Y0266287D01*
X0320526Y0266287D01*
X0303942Y0266287D02*
X0303942Y0269990D01*
X0298427Y0278287D02*
X0299044Y0278904D01*
X0299044Y0279521D01*
X0298427Y0280138D01*
X0296575Y0280138D01*
X0296575Y0278904D01*
X0297193Y0278287D01*
X0298427Y0278287D01*
X0296575Y0280138D02*
X0297810Y0281373D01*
X0299044Y0281990D01*
X0294127Y0281990D02*
X0294127Y0278287D01*
X0295361Y0278287D02*
X0292892Y0278287D01*
X0292892Y0280755D02*
X0294127Y0281990D01*
X0293506Y0274755D02*
X0293506Y0272904D01*
X0294123Y0272287D01*
X0292292Y0272287D02*
X0292292Y0274138D01*
X0291675Y0274755D01*
X0290440Y0274755D01*
X0289823Y0274138D01*
X0284926Y0274138D02*
X0284926Y0273521D01*
X0282457Y0273521D01*
X0282457Y0272904D02*
X0282457Y0274138D01*
X0283074Y0274755D01*
X0284308Y0274755D01*
X0284926Y0274138D01*
X0284308Y0272287D02*
X0283074Y0272287D01*
X0282457Y0272904D01*
X0281242Y0272904D02*
X0281242Y0275373D01*
X0280625Y0275990D01*
X0278774Y0275990D01*
X0278774Y0272287D01*
X0280625Y0272287D01*
X0281242Y0272904D01*
X0289823Y0268755D02*
X0289823Y0266904D01*
X0254847Y0279521D02*
X0252378Y0279521D01*
X0252378Y0278904D02*
X0252378Y0280138D01*
X0252995Y0280755D01*
X0254229Y0280755D01*
X0254847Y0280138D01*
X0254847Y0279521D01*
X0254229Y0278287D02*
X0252995Y0278287D01*
X0252378Y0278904D01*
X0251163Y0278287D02*
X0251163Y0280755D01*
X0251163Y0278287D02*
X0249312Y0278287D01*
X0248695Y0278904D01*
X0248695Y0280755D01*
X0247480Y0280755D02*
X0245629Y0280755D01*
X0245011Y0280138D01*
X0245011Y0278904D01*
X0245629Y0278287D01*
X0247480Y0278287D01*
X0247480Y0281990D01*
X0243794Y0280755D02*
X0243177Y0280755D01*
X0241942Y0279521D01*
X0241942Y0278287D02*
X0241942Y0280755D01*
X0240728Y0280755D02*
X0240728Y0278287D01*
X0238876Y0278287D01*
X0238259Y0278904D01*
X0238259Y0280755D01*
X0237045Y0280138D02*
X0236427Y0279521D01*
X0234576Y0279521D01*
X0234576Y0278287D02*
X0234576Y0281990D01*
X0236427Y0281990D01*
X0237045Y0281373D01*
X0237045Y0280138D01*
X0237045Y0275990D02*
X0237045Y0272287D01*
X0238259Y0272904D02*
X0238876Y0273521D01*
X0240728Y0273521D01*
X0240728Y0274138D02*
X0240728Y0272287D01*
X0238876Y0272287D01*
X0238259Y0272904D01*
X0238876Y0274755D02*
X0240111Y0274755D01*
X0240728Y0274138D01*
X0241942Y0274138D02*
X0242559Y0274755D01*
X0244411Y0274755D01*
X0244411Y0275990D02*
X0244411Y0272287D01*
X0242559Y0272287D01*
X0241942Y0272904D01*
X0241942Y0274138D01*
X0245625Y0274138D02*
X0245625Y0272904D01*
X0246243Y0272287D01*
X0247477Y0272287D01*
X0248094Y0273521D02*
X0245625Y0273521D01*
X0245625Y0274138D02*
X0246243Y0274755D01*
X0247477Y0274755D01*
X0248094Y0274138D01*
X0248094Y0273521D01*
X0237045Y0275990D02*
X0235810Y0274755D01*
X0234576Y0275990D01*
X0234576Y0272287D01*
X0149078Y0116125D02*
X0145375Y0116125D01*
X0147226Y0114274D01*
X0147226Y0116743D01*
X0145375Y0113060D02*
X0145375Y0110591D01*
X0145375Y0111825D02*
X0149078Y0111825D01*
D14*
X0245300Y0285329D03*
D15*
X0249050Y0294429D03*
X0251450Y0297129D03*
X0253950Y0296529D03*
X0254150Y0296629D03*
X0254150Y0296729D03*
X0254250Y0296429D03*
X0254550Y0296429D03*
X0254650Y0296229D03*
X0254550Y0295529D03*
X0254150Y0295529D03*
X0253850Y0295329D03*
X0253750Y0295429D03*
X0253650Y0295729D03*
X0253950Y0296029D03*
X0253450Y0295329D03*
X0253850Y0295029D03*
X0254050Y0294729D03*
X0254350Y0294529D03*
X0254550Y0294729D03*
X0254950Y0294729D03*
X0255150Y0294829D03*
X0255350Y0294429D03*
X0255050Y0294229D03*
X0254850Y0294129D03*
X0254750Y0294229D03*
X0254950Y0294029D03*
X0255450Y0293729D03*
X0255850Y0293429D03*
X0256050Y0293229D03*
X0255950Y0294329D03*
X0255250Y0295429D03*
X0254850Y0295229D03*
X0254350Y0295129D03*
X0255450Y0295929D03*
X0256350Y0296829D03*
X0256350Y0296929D03*
X0256050Y0297129D03*
X0255850Y0297529D03*
X0255650Y0297729D03*
X0255550Y0297829D03*
X0255650Y0298029D03*
X0255550Y0298329D03*
X0255250Y0297929D03*
X0254850Y0298129D03*
X0254750Y0298329D03*
X0253750Y0299129D03*
X0255050Y0300929D03*
X0255150Y0301529D03*
X0255150Y0301629D03*
X0255250Y0301729D03*
X0255750Y0301129D03*
X0256050Y0301229D03*
X0256350Y0301129D03*
X0256450Y0300829D03*
X0256750Y0301329D03*
X0257050Y0301329D03*
X0257050Y0301429D03*
X0256850Y0301829D03*
X0258150Y0303529D03*
X0257350Y0303929D03*
X0259950Y0302529D03*
X0261150Y0303029D03*
X0262150Y0302829D03*
X0262550Y0302729D03*
X0262850Y0302129D03*
X0262550Y0302029D03*
X0262450Y0301729D03*
X0263050Y0301729D03*
X0263050Y0301829D03*
X0263350Y0301629D03*
X0263750Y0301629D03*
X0263750Y0301529D03*
X0263850Y0301429D03*
X0263950Y0300829D03*
X0263950Y0300729D03*
X0264350Y0300729D03*
X0264350Y0300829D03*
X0264350Y0300629D03*
X0264350Y0300529D03*
X0264350Y0300329D03*
X0264050Y0300129D03*
X0264250Y0299929D03*
X0264250Y0299829D03*
X0264250Y0299729D03*
X0264250Y0299629D03*
X0264050Y0299229D03*
X0263850Y0299029D03*
X0263450Y0298629D03*
X0263350Y0298529D03*
X0263550Y0298429D03*
X0263150Y0298429D03*
X0262850Y0298429D03*
X0262750Y0298829D03*
X0261950Y0298829D03*
X0261950Y0298729D03*
X0261950Y0298629D03*
X0261650Y0298429D03*
X0261750Y0297929D03*
X0261650Y0297729D03*
X0261650Y0297429D03*
X0262150Y0297629D03*
X0262250Y0297529D03*
X0262350Y0297429D03*
X0262050Y0297829D03*
X0262050Y0297929D03*
X0262450Y0296929D03*
X0262350Y0296729D03*
X0262050Y0296729D03*
X0262050Y0296829D03*
X0262050Y0296629D03*
X0262550Y0296429D03*
X0262750Y0295329D03*
X0262750Y0295229D03*
X0263050Y0297429D03*
X0261750Y0299329D03*
X0260550Y0299229D03*
X0259650Y0299229D03*
X0260350Y0300729D03*
X0261750Y0304029D03*
X0261850Y0304129D03*
X0262150Y0305729D03*
X0262550Y0305829D03*
X0263550Y0305629D03*
X0263450Y0306629D03*
X0263850Y0306929D03*
X0264850Y0306729D03*
X0264750Y0306429D03*
X0265950Y0306429D03*
X0265950Y0306529D03*
X0265950Y0306629D03*
X0265950Y0306729D03*
X0265950Y0306329D03*
X0265950Y0306229D03*
X0265250Y0307929D03*
X0265150Y0308229D03*
X0265250Y0308529D03*
X0264850Y0309429D03*
X0265850Y0309529D03*
X0265850Y0309629D03*
X0265950Y0310129D03*
X0265950Y0310529D03*
X0265950Y0310629D03*
X0265950Y0310729D03*
X0265950Y0310829D03*
X0265950Y0311329D03*
X0265850Y0311729D03*
X0265850Y0311829D03*
X0265850Y0311929D03*
X0265850Y0312029D03*
X0265750Y0312129D03*
X0263550Y0317029D03*
X0263150Y0317329D03*
X0263050Y0317429D03*
X0262950Y0317529D03*
X0260850Y0317829D03*
X0260050Y0317629D03*
X0259750Y0317629D03*
X0259150Y0318329D03*
X0257150Y0319029D03*
X0256150Y0319129D03*
X0256050Y0318629D03*
X0255650Y0318229D03*
X0255350Y0318029D03*
X0255450Y0317829D03*
X0255650Y0317729D03*
X0255950Y0317729D03*
X0256550Y0317729D03*
X0255350Y0317529D03*
X0255250Y0317729D03*
X0255050Y0317629D03*
X0255150Y0317429D03*
X0255250Y0317029D03*
X0254650Y0317729D03*
X0254750Y0317829D03*
X0254450Y0317529D03*
X0254150Y0317629D03*
X0254250Y0317929D03*
X0253850Y0317729D03*
X0253750Y0317629D03*
X0253750Y0317429D03*
X0253750Y0317029D03*
X0253450Y0317729D03*
X0253250Y0317829D03*
X0253350Y0318229D03*
X0253650Y0318429D03*
X0253750Y0318529D03*
X0254150Y0318929D03*
X0254750Y0319029D03*
X0254750Y0319229D03*
X0255050Y0319229D03*
X0254650Y0318529D03*
X0252750Y0317629D03*
X0252450Y0317329D03*
X0252250Y0316929D03*
X0253050Y0316229D03*
X0253150Y0316329D03*
X0253250Y0316429D03*
X0252150Y0315829D03*
X0251950Y0315529D03*
X0251850Y0315429D03*
X0251250Y0315629D03*
X0251350Y0315829D03*
X0251050Y0315329D03*
X0250950Y0315229D03*
X0251150Y0315129D03*
X0251450Y0314929D03*
X0251350Y0314829D03*
X0251250Y0314729D03*
X0251150Y0314629D03*
X0251150Y0314529D03*
X0251350Y0314429D03*
X0251250Y0314229D03*
X0251350Y0313729D03*
X0251150Y0313329D03*
X0250950Y0313229D03*
X0250950Y0313129D03*
X0250850Y0313029D03*
X0250750Y0312929D03*
X0250650Y0312829D03*
X0250650Y0313229D03*
X0250650Y0313329D03*
X0250450Y0313529D03*
X0250350Y0313329D03*
X0250350Y0313229D03*
X0250550Y0313829D03*
X0250550Y0313929D03*
X0250650Y0314029D03*
X0250750Y0314429D03*
X0250750Y0314729D03*
X0251250Y0312929D03*
X0251150Y0312729D03*
X0251350Y0312029D03*
X0251050Y0311929D03*
X0250750Y0311829D03*
X0250650Y0311629D03*
X0250550Y0311429D03*
X0251050Y0311229D03*
X0251350Y0311229D03*
X0251350Y0311129D03*
X0251250Y0310929D03*
X0251650Y0311329D03*
X0251550Y0310429D03*
X0251550Y0310329D03*
X0251250Y0310229D03*
X0251150Y0310029D03*
X0250750Y0310329D03*
X0250650Y0310029D03*
X0250650Y0309929D03*
X0250850Y0309629D03*
X0251050Y0309529D03*
X0251250Y0309329D03*
X0251250Y0309229D03*
X0251550Y0309229D03*
X0251550Y0309329D03*
X0251650Y0309429D03*
X0251650Y0309529D03*
X0251750Y0309629D03*
X0251350Y0309529D03*
X0251550Y0309129D03*
X0251050Y0308829D03*
X0250950Y0308529D03*
X0250850Y0308329D03*
X0250850Y0308229D03*
X0251350Y0308429D03*
X0251550Y0307529D03*
X0251950Y0307529D03*
X0251450Y0307129D03*
X0251350Y0306829D03*
X0250850Y0306529D03*
X0250450Y0307129D03*
X0249350Y0306429D03*
X0249350Y0306329D03*
X0249350Y0306229D03*
X0249550Y0308829D03*
X0249850Y0309029D03*
X0249650Y0309329D03*
X0249750Y0309629D03*
X0250150Y0310029D03*
X0249650Y0310429D03*
X0249650Y0310629D03*
X0249750Y0310729D03*
X0250550Y0309529D03*
X0250450Y0309329D03*
X0250950Y0302429D03*
X0251250Y0302329D03*
X0252050Y0302329D03*
X0257750Y0306929D03*
X0258150Y0307029D03*
X0258650Y0309329D03*
X0259350Y0309329D03*
X0259650Y0309229D03*
X0264650Y0302429D03*
X0264650Y0301829D03*
X0264650Y0301729D03*
X0264650Y0301629D03*
X0264350Y0301829D03*
X0260450Y0296929D03*
X0260050Y0296729D03*
X0259750Y0296829D03*
X0258650Y0296229D03*
X0258150Y0296229D03*
X0260450Y0294529D03*
X0257650Y0293029D03*
X0258750Y0291329D03*
X0258650Y0290929D03*
X0258650Y0290829D03*
X0258250Y0290529D03*
X0257850Y0290129D03*
X0257450Y0289629D03*
X0257650Y0289029D03*
X0258150Y0288829D03*
X0258550Y0289229D03*
X0258550Y0289329D03*
X0258950Y0289729D03*
X0259350Y0290029D03*
X0259350Y0290129D03*
X0259750Y0290329D03*
X0260050Y0290529D03*
X0260250Y0290629D03*
X0260650Y0290229D03*
X0260750Y0290129D03*
X0260450Y0290029D03*
X0260950Y0289829D03*
X0260950Y0289729D03*
X0261050Y0289529D03*
X0259850Y0289729D03*
X0259550Y0289429D03*
X0259650Y0288829D03*
X0259650Y0288729D03*
X0259750Y0288229D03*
X0259750Y0288129D03*
X0259450Y0287529D03*
X0259150Y0287029D03*
X0259550Y0286629D03*
X0259850Y0287029D03*
X0260150Y0286529D03*
X0260450Y0285429D03*
X0261450Y0285729D03*
X0262150Y0286429D03*
X0262250Y0286329D03*
X0262950Y0286229D03*
X0262950Y0286129D03*
X0263050Y0286029D03*
X0257950Y0286629D03*
X0257650Y0286029D03*
X0256550Y0285829D03*
X0256550Y0285729D03*
X0256550Y0285629D03*
X0256550Y0285529D03*
X0256650Y0285429D03*
X0256650Y0285329D03*
X0258050Y0287629D03*
X0258350Y0288129D03*
X0257850Y0288329D03*
X0257350Y0288529D03*
X0257250Y0288029D03*
X0256650Y0289729D03*
X0256650Y0289829D03*
X0256750Y0290029D03*
X0258850Y0290329D03*
X0259250Y0290629D03*
X0259550Y0290829D03*
X0259250Y0291029D03*
X0259250Y0291429D03*
X0278050Y0285829D03*
D16*
X0263400Y0293729D03*
X0258600Y0291529D03*
X0256800Y0292929D03*
X0256700Y0293029D03*
X0255600Y0293929D03*
X0250600Y0295629D03*
X0256100Y0301629D03*
X0256000Y0301729D03*
X0256700Y0302429D03*
X0259200Y0302829D03*
X0260700Y0302729D03*
X0262000Y0302529D03*
X0261400Y0301129D03*
X0261400Y0301029D03*
X0263200Y0300729D03*
X0263800Y0302129D03*
X0263200Y0303529D03*
X0263200Y0303629D03*
X0262400Y0306029D03*
X0262400Y0306129D03*
X0257200Y0307429D03*
X0250500Y0305929D03*
X0250500Y0310629D03*
X0250500Y0311029D03*
X0250600Y0311329D03*
X0254000Y0316929D03*
X0256300Y0317829D03*
X0256500Y0317929D03*
X0256400Y0288629D03*
X0256300Y0288429D03*
X0261000Y0285329D03*
D17*
X0270550Y0285329D03*
X0270550Y0285629D03*
D18*
X0245250Y0285629D03*
X0245250Y0285529D03*
X0245250Y0285429D03*
D19*
X0253800Y0294929D03*
X0253600Y0295129D03*
X0253500Y0295229D03*
X0253500Y0295629D03*
X0253800Y0295629D03*
X0253800Y0295929D03*
X0253800Y0296129D03*
X0254000Y0296329D03*
X0254300Y0296329D03*
X0254300Y0296029D03*
X0254400Y0295929D03*
X0254700Y0296129D03*
X0254700Y0296329D03*
X0255200Y0296229D03*
X0255400Y0296129D03*
X0255400Y0296529D03*
X0255100Y0296929D03*
X0254800Y0297129D03*
X0254600Y0296929D03*
X0254300Y0297029D03*
X0254000Y0296829D03*
X0253600Y0296329D03*
X0254000Y0295929D03*
X0254200Y0295629D03*
X0254300Y0295429D03*
X0254100Y0295429D03*
X0254600Y0295329D03*
X0254600Y0295129D03*
X0254900Y0295129D03*
X0255100Y0295329D03*
X0255300Y0295329D03*
X0255100Y0295629D03*
X0255000Y0295529D03*
X0255200Y0294929D03*
X0255200Y0294729D03*
X0254900Y0294829D03*
X0254900Y0294629D03*
X0254600Y0294629D03*
X0255600Y0294629D03*
X0255700Y0294429D03*
X0255700Y0294329D03*
X0255800Y0294529D03*
X0256000Y0294429D03*
X0256200Y0294029D03*
X0256400Y0293529D03*
X0257800Y0291429D03*
X0257700Y0291329D03*
X0257800Y0291129D03*
X0257600Y0291129D03*
X0257500Y0291029D03*
X0257400Y0290929D03*
X0257300Y0290829D03*
X0257200Y0290729D03*
X0257100Y0290529D03*
X0257000Y0290429D03*
X0256900Y0290329D03*
X0256900Y0290229D03*
X0256800Y0290129D03*
X0256700Y0289929D03*
X0256900Y0289829D03*
X0256900Y0289729D03*
X0257100Y0289129D03*
X0257600Y0288929D03*
X0258000Y0289429D03*
X0258000Y0289529D03*
X0258400Y0289929D03*
X0258800Y0290229D03*
X0259000Y0289629D03*
X0259500Y0289529D03*
X0259900Y0289829D03*
X0260200Y0289929D03*
X0260400Y0290129D03*
X0260600Y0290329D03*
X0260500Y0290429D03*
X0260400Y0290529D03*
X0260300Y0290729D03*
X0260100Y0290429D03*
X0259500Y0290929D03*
X0258700Y0291229D03*
X0258300Y0290929D03*
X0257700Y0290729D03*
X0257300Y0290229D03*
X0257300Y0288129D03*
X0257600Y0287829D03*
X0257800Y0287229D03*
X0257700Y0287029D03*
X0257600Y0286629D03*
X0257900Y0286529D03*
X0258200Y0286329D03*
X0258200Y0286229D03*
X0258500Y0286029D03*
X0258500Y0285929D03*
X0258800Y0285629D03*
X0258800Y0285529D03*
X0258200Y0285429D03*
X0257900Y0285729D03*
X0257900Y0285829D03*
X0257700Y0286129D03*
X0257500Y0285729D03*
X0256300Y0285829D03*
X0258300Y0287129D03*
X0258500Y0287529D03*
X0258800Y0287329D03*
X0258800Y0287929D03*
X0259300Y0287829D03*
X0259300Y0287729D03*
X0259500Y0287429D03*
X0259900Y0287129D03*
X0260200Y0287729D03*
X0260200Y0287829D03*
X0260100Y0288429D03*
X0260300Y0288629D03*
X0260500Y0288729D03*
X0260300Y0289229D03*
X0260200Y0289329D03*
X0260000Y0289129D03*
X0260000Y0289029D03*
X0260500Y0289429D03*
X0260700Y0289529D03*
X0260700Y0289629D03*
X0260900Y0289929D03*
X0260800Y0290029D03*
X0259100Y0289129D03*
X0259100Y0289029D03*
X0258700Y0288629D03*
X0259200Y0288429D03*
X0259500Y0286529D03*
X0259200Y0286129D03*
X0258800Y0286429D03*
X0258800Y0286529D03*
X0259600Y0285729D03*
X0259600Y0285629D03*
X0259900Y0286129D03*
X0260200Y0285729D03*
X0260200Y0285629D03*
X0262200Y0286229D03*
X0262300Y0286129D03*
X0262300Y0286029D03*
X0259800Y0293329D03*
X0258500Y0296329D03*
X0259400Y0296629D03*
X0259500Y0296829D03*
X0260300Y0297029D03*
X0260400Y0296829D03*
X0260700Y0296829D03*
X0261200Y0297129D03*
X0261500Y0297129D03*
X0261700Y0297129D03*
X0261700Y0297329D03*
X0262000Y0297329D03*
X0262300Y0297229D03*
X0262600Y0297229D03*
X0262600Y0297129D03*
X0262800Y0297029D03*
X0262800Y0296829D03*
X0262700Y0296729D03*
X0262600Y0296529D03*
X0262400Y0296829D03*
X0262900Y0297229D03*
X0262700Y0297429D03*
X0262500Y0297529D03*
X0262300Y0297829D03*
X0262300Y0297929D03*
X0262500Y0297929D03*
X0262700Y0298229D03*
X0262600Y0298329D03*
X0262600Y0298429D03*
X0262500Y0298829D03*
X0262500Y0298929D03*
X0262400Y0299129D03*
X0262400Y0299529D03*
X0262400Y0299629D03*
X0262400Y0299729D03*
X0262200Y0299729D03*
X0261500Y0299429D03*
X0261300Y0299329D03*
X0260800Y0299229D03*
X0260400Y0299729D03*
X0260700Y0300729D03*
X0259500Y0300829D03*
X0259300Y0300829D03*
X0259700Y0301529D03*
X0259700Y0301829D03*
X0259600Y0302029D03*
X0259400Y0301829D03*
X0259300Y0302029D03*
X0259100Y0302629D03*
X0257600Y0302629D03*
X0257200Y0302229D03*
X0256900Y0302029D03*
X0256700Y0302029D03*
X0257000Y0301629D03*
X0257200Y0301529D03*
X0256700Y0301429D03*
X0256400Y0301329D03*
X0256400Y0301229D03*
X0256200Y0301029D03*
X0256200Y0300929D03*
X0255800Y0300929D03*
X0255800Y0301029D03*
X0255100Y0301329D03*
X0255100Y0301429D03*
X0255700Y0302429D03*
X0255900Y0302429D03*
X0255900Y0302829D03*
X0256200Y0303029D03*
X0257400Y0304029D03*
X0257600Y0303929D03*
X0257900Y0303829D03*
X0257700Y0301029D03*
X0259000Y0298429D03*
X0259400Y0298329D03*
X0260600Y0297829D03*
X0260600Y0297729D03*
X0260600Y0297629D03*
X0263000Y0298129D03*
X0263100Y0297729D03*
X0263100Y0297529D03*
X0263300Y0297429D03*
X0263400Y0297329D03*
X0263500Y0297429D03*
X0263300Y0297229D03*
X0263200Y0297129D03*
X0263100Y0297029D03*
X0263600Y0297829D03*
X0263600Y0297929D03*
X0263600Y0298029D03*
X0263800Y0297829D03*
X0263900Y0297929D03*
X0264000Y0298129D03*
X0264100Y0298329D03*
X0263800Y0298429D03*
X0263600Y0298329D03*
X0263900Y0298629D03*
X0263900Y0298729D03*
X0263600Y0298829D03*
X0263600Y0299129D03*
X0264200Y0299329D03*
X0264200Y0299429D03*
X0264200Y0299529D03*
X0264300Y0300029D03*
X0264300Y0300429D03*
X0264000Y0300529D03*
X0264400Y0300929D03*
X0264400Y0301029D03*
X0264400Y0301129D03*
X0264400Y0301229D03*
X0264400Y0301329D03*
X0264400Y0301429D03*
X0264400Y0301529D03*
X0264600Y0301929D03*
X0264600Y0302029D03*
X0264600Y0302129D03*
X0263900Y0301329D03*
X0263400Y0301329D03*
X0263400Y0301229D03*
X0263100Y0301629D03*
X0263300Y0301729D03*
X0263100Y0302129D03*
X0262800Y0302029D03*
X0262600Y0302829D03*
X0261800Y0302829D03*
X0262500Y0303729D03*
X0262500Y0303829D03*
X0262300Y0303929D03*
X0262100Y0304029D03*
X0261800Y0304329D03*
X0261800Y0304429D03*
X0262100Y0305329D03*
X0262200Y0305529D03*
X0262200Y0305629D03*
X0262400Y0305629D03*
X0262300Y0305829D03*
X0262600Y0305729D03*
X0262800Y0305629D03*
X0262900Y0305729D03*
X0262900Y0305829D03*
X0263200Y0305829D03*
X0263200Y0305629D03*
X0262900Y0305529D03*
X0261900Y0305929D03*
X0261700Y0305629D03*
X0261500Y0306029D03*
X0261500Y0306129D03*
X0261400Y0306429D03*
X0261700Y0307929D03*
X0261800Y0308529D03*
X0261900Y0308729D03*
X0261900Y0308829D03*
X0261300Y0308829D03*
X0260200Y0308829D03*
X0259900Y0309129D03*
X0259100Y0309329D03*
X0258500Y0308329D03*
X0256300Y0308929D03*
X0252400Y0308929D03*
X0252400Y0308829D03*
X0252200Y0309129D03*
X0252200Y0309229D03*
X0252200Y0309329D03*
X0252000Y0309529D03*
X0252300Y0309729D03*
X0251700Y0309829D03*
X0251200Y0309929D03*
X0251000Y0309929D03*
X0250900Y0309829D03*
X0250900Y0309729D03*
X0251100Y0309729D03*
X0251000Y0309429D03*
X0250700Y0309329D03*
X0250900Y0309129D03*
X0250900Y0309029D03*
X0250700Y0309029D03*
X0250700Y0308829D03*
X0250700Y0308729D03*
X0250800Y0308629D03*
X0250700Y0308529D03*
X0250600Y0308329D03*
X0250600Y0308229D03*
X0250300Y0308229D03*
X0250300Y0308329D03*
X0250200Y0308429D03*
X0250200Y0308529D03*
X0250200Y0308729D03*
X0250400Y0308729D03*
X0250400Y0308829D03*
X0250500Y0308929D03*
X0250300Y0309129D03*
X0250200Y0309329D03*
X0250000Y0309429D03*
X0250000Y0309229D03*
X0249900Y0309129D03*
X0249600Y0309129D03*
X0249600Y0309229D03*
X0249600Y0309029D03*
X0249600Y0308729D03*
X0249500Y0308629D03*
X0249300Y0308529D03*
X0248900Y0307929D03*
X0248900Y0306629D03*
X0248900Y0306529D03*
X0248900Y0306429D03*
X0249000Y0306029D03*
X0249000Y0305929D03*
X0249400Y0305929D03*
X0249400Y0306029D03*
X0249400Y0306129D03*
X0249100Y0305429D03*
X0249200Y0305029D03*
X0249300Y0304729D03*
X0249400Y0304529D03*
X0249500Y0304329D03*
X0249600Y0304129D03*
X0249700Y0303929D03*
X0249800Y0303729D03*
X0249900Y0303529D03*
X0250000Y0303429D03*
X0250200Y0303129D03*
X0250300Y0303029D03*
X0250700Y0302629D03*
X0250800Y0302529D03*
X0251700Y0302229D03*
X0251800Y0302129D03*
X0251800Y0302029D03*
X0251800Y0301929D03*
X0251800Y0301829D03*
X0252100Y0302029D03*
X0252200Y0301929D03*
X0252200Y0301829D03*
X0252000Y0302229D03*
X0251900Y0301429D03*
X0251900Y0301329D03*
X0251900Y0301229D03*
X0252000Y0300429D03*
X0252000Y0300329D03*
X0252000Y0300229D03*
X0252000Y0300129D03*
X0252000Y0300029D03*
X0252000Y0299929D03*
X0252000Y0299829D03*
X0252000Y0299529D03*
X0252000Y0299429D03*
X0252000Y0299329D03*
X0252000Y0299229D03*
X0252000Y0299129D03*
X0251900Y0298429D03*
X0251900Y0298329D03*
X0251500Y0297229D03*
X0253400Y0299029D03*
X0253400Y0299129D03*
X0253300Y0299229D03*
X0253500Y0299329D03*
X0253600Y0299529D03*
X0253800Y0299029D03*
X0254000Y0298929D03*
X0254200Y0299029D03*
X0254400Y0298829D03*
X0254300Y0298729D03*
X0254300Y0298629D03*
X0254700Y0298629D03*
X0254800Y0298429D03*
X0255100Y0298229D03*
X0255300Y0297829D03*
X0255700Y0297629D03*
X0255700Y0298129D03*
X0256100Y0298129D03*
X0256100Y0298029D03*
X0256400Y0297229D03*
X0257400Y0296429D03*
X0257400Y0296329D03*
X0262600Y0295929D03*
X0262600Y0295829D03*
X0262600Y0295729D03*
X0262700Y0295429D03*
X0263000Y0298729D03*
X0262800Y0298929D03*
X0264300Y0298629D03*
X0264500Y0298929D03*
X0265100Y0300229D03*
X0265100Y0300329D03*
X0265100Y0300429D03*
X0264600Y0300929D03*
X0264600Y0301029D03*
X0264400Y0303329D03*
X0264100Y0303429D03*
X0264100Y0303529D03*
X0263500Y0303829D03*
X0263500Y0303929D03*
X0263500Y0304029D03*
X0263100Y0304029D03*
X0260700Y0303129D03*
X0263700Y0306529D03*
X0263500Y0306829D03*
X0263800Y0308429D03*
X0264900Y0308229D03*
X0265000Y0308429D03*
X0265100Y0308129D03*
X0265300Y0307829D03*
X0265300Y0307729D03*
X0265500Y0307329D03*
X0265900Y0306129D03*
X0265900Y0306029D03*
X0265200Y0305729D03*
X0264700Y0309529D03*
X0264500Y0309629D03*
X0263500Y0309629D03*
X0262800Y0309329D03*
X0265900Y0310929D03*
X0265900Y0311029D03*
X0265900Y0311129D03*
X0266100Y0311129D03*
X0266200Y0311329D03*
X0266200Y0311729D03*
X0266200Y0311829D03*
X0266100Y0312029D03*
X0265900Y0312329D03*
X0265900Y0312429D03*
X0265900Y0312529D03*
X0265700Y0312529D03*
X0265700Y0312429D03*
X0265700Y0312329D03*
X0265600Y0312729D03*
X0265600Y0312829D03*
X0265700Y0313029D03*
X0265500Y0313129D03*
X0265500Y0313229D03*
X0265500Y0313329D03*
X0265500Y0313429D03*
X0265400Y0313729D03*
X0265200Y0314429D03*
X0265200Y0314729D03*
X0265000Y0314929D03*
X0264800Y0314229D03*
X0264400Y0314229D03*
X0263900Y0314029D03*
X0264000Y0316529D03*
X0263800Y0316729D03*
X0263600Y0316929D03*
X0263400Y0317129D03*
X0263300Y0317229D03*
X0262500Y0317529D03*
X0262400Y0317629D03*
X0262300Y0317729D03*
X0259500Y0317629D03*
X0259300Y0317829D03*
X0259100Y0317829D03*
X0259400Y0318329D03*
X0257600Y0319129D03*
X0256300Y0318629D03*
X0255700Y0319029D03*
X0255200Y0318529D03*
X0254900Y0318529D03*
X0254900Y0318829D03*
X0254600Y0318929D03*
X0254600Y0319129D03*
X0254400Y0319029D03*
X0254400Y0318929D03*
X0254300Y0318829D03*
X0254100Y0318529D03*
X0253700Y0318229D03*
X0253600Y0318329D03*
X0253400Y0318329D03*
X0253300Y0318129D03*
X0253200Y0318029D03*
X0253000Y0317829D03*
X0253100Y0317729D03*
X0252900Y0317729D03*
X0253300Y0317429D03*
X0253500Y0317429D03*
X0253600Y0317529D03*
X0253600Y0317229D03*
X0253900Y0316729D03*
X0253400Y0316329D03*
X0252900Y0316129D03*
X0252300Y0315929D03*
X0252100Y0315729D03*
X0252000Y0315929D03*
X0251700Y0315129D03*
X0251600Y0315029D03*
X0251200Y0315029D03*
X0251200Y0315229D03*
X0251000Y0315029D03*
X0250800Y0315029D03*
X0251100Y0314829D03*
X0251000Y0314729D03*
X0251000Y0314429D03*
X0251300Y0314329D03*
X0251400Y0314529D03*
X0251500Y0314629D03*
X0251200Y0314129D03*
X0251100Y0314029D03*
X0251000Y0313929D03*
X0250900Y0313829D03*
X0250800Y0313729D03*
X0250800Y0313429D03*
X0251300Y0313529D03*
X0251400Y0313829D03*
X0251500Y0312929D03*
X0251400Y0312829D03*
X0251400Y0312729D03*
X0251300Y0312529D03*
X0251300Y0312429D03*
X0251200Y0312329D03*
X0251200Y0312229D03*
X0251000Y0312229D03*
X0251000Y0312329D03*
X0251100Y0312629D03*
X0251200Y0312829D03*
X0250800Y0312629D03*
X0250600Y0312729D03*
X0250500Y0312629D03*
X0250700Y0312129D03*
X0250600Y0312029D03*
X0250800Y0311929D03*
X0250900Y0312029D03*
X0251100Y0312029D03*
X0251300Y0311929D03*
X0251400Y0312129D03*
X0251500Y0311729D03*
X0251200Y0311729D03*
X0251000Y0311729D03*
X0250700Y0311729D03*
X0251300Y0311029D03*
X0251600Y0311029D03*
X0251600Y0311129D03*
X0251600Y0311229D03*
X0251600Y0311429D03*
X0251600Y0310929D03*
X0251800Y0310429D03*
X0250900Y0310129D03*
X0250700Y0310129D03*
X0250400Y0310029D03*
X0250300Y0309929D03*
X0250100Y0309829D03*
X0250000Y0309729D03*
X0249500Y0309629D03*
X0249600Y0310529D03*
X0249900Y0310529D03*
X0249800Y0311029D03*
X0250600Y0309829D03*
X0250600Y0309729D03*
X0250600Y0309629D03*
X0250200Y0308929D03*
X0250400Y0308629D03*
X0251000Y0308629D03*
X0251000Y0308729D03*
X0251200Y0308729D03*
X0251200Y0308629D03*
X0251200Y0308529D03*
X0251100Y0308429D03*
X0251600Y0308429D03*
X0251900Y0308329D03*
X0251800Y0308029D03*
X0251900Y0307829D03*
X0251900Y0307629D03*
X0251900Y0307429D03*
X0251500Y0307329D03*
X0251500Y0307229D03*
X0252000Y0308729D03*
X0251900Y0308829D03*
X0251900Y0309029D03*
X0251800Y0309129D03*
X0251800Y0309229D03*
X0251600Y0308829D03*
X0251200Y0304229D03*
X0251200Y0315529D03*
X0252200Y0317129D03*
X0252300Y0317229D03*
X0254500Y0317629D03*
X0254800Y0317929D03*
X0254800Y0318229D03*
X0255400Y0318229D03*
X0255500Y0318129D03*
X0255600Y0317929D03*
X0255900Y0317529D03*
X0255900Y0317329D03*
X0255700Y0317429D03*
X0256100Y0317629D03*
X0256200Y0317729D03*
X0256900Y0317729D03*
D20*
X0257300Y0317829D03*
X0258400Y0317829D03*
X0258600Y0317629D03*
X0261400Y0317929D03*
X0254500Y0317029D03*
X0253700Y0316829D03*
X0252800Y0316929D03*
X0252100Y0316529D03*
X0254300Y0318229D03*
X0254000Y0318729D03*
X0250100Y0311729D03*
X0250000Y0311629D03*
X0250000Y0311229D03*
X0251000Y0310529D03*
X0251000Y0308929D03*
X0251200Y0307729D03*
X0251200Y0307029D03*
X0250300Y0305529D03*
X0249400Y0307529D03*
X0258600Y0306829D03*
X0258700Y0306929D03*
X0258700Y0307229D03*
X0262600Y0305929D03*
X0263000Y0303829D03*
X0262100Y0302429D03*
X0263600Y0301829D03*
X0261300Y0300929D03*
X0259600Y0302629D03*
X0263100Y0299129D03*
X0263000Y0294629D03*
X0263000Y0294529D03*
X0263100Y0294429D03*
X0263100Y0294329D03*
X0255900Y0293529D03*
X0255600Y0296929D03*
X0255500Y0297329D03*
X0254600Y0297929D03*
X0253800Y0298829D03*
X0251000Y0296529D03*
X0250900Y0296329D03*
X0250800Y0296129D03*
X0256200Y0286629D03*
X0256200Y0286529D03*
X0261000Y0285429D03*
X0264700Y0307229D03*
X0264700Y0307329D03*
X0264500Y0307629D03*
D21*
X0270500Y0285429D03*
X0246400Y0289129D03*
D22*
X0250600Y0295829D03*
X0254400Y0298229D03*
X0254600Y0298029D03*
X0255400Y0297129D03*
X0255700Y0296829D03*
X0261300Y0296829D03*
X0261800Y0298229D03*
X0261400Y0300729D03*
X0261300Y0300829D03*
X0260000Y0300929D03*
X0260700Y0302829D03*
X0260900Y0302929D03*
X0259000Y0303029D03*
X0257500Y0303629D03*
X0256000Y0307429D03*
X0263500Y0302029D03*
X0263200Y0300829D03*
X0263200Y0294029D03*
X0263300Y0293929D03*
X0263300Y0293829D03*
X0261000Y0288929D03*
X0261100Y0288829D03*
X0261100Y0288729D03*
X0261200Y0286629D03*
X0260800Y0285729D03*
X0260800Y0285529D03*
X0264000Y0307029D03*
X0263900Y0309529D03*
X0256500Y0318029D03*
X0257300Y0318929D03*
X0254700Y0317129D03*
X0253500Y0317929D03*
X0251300Y0308129D03*
X0251300Y0307429D03*
X0250300Y0305629D03*
D23*
X0270450Y0285529D03*
D24*
X0260950Y0285629D03*
X0260950Y0285829D03*
X0260950Y0285929D03*
X0260950Y0286129D03*
X0260950Y0286429D03*
X0261150Y0288429D03*
X0261150Y0288529D03*
X0255650Y0297029D03*
X0255250Y0297229D03*
X0250550Y0295529D03*
X0250550Y0295429D03*
X0257050Y0303229D03*
X0257150Y0303329D03*
X0260750Y0302629D03*
X0260150Y0301129D03*
X0263050Y0299229D03*
X0264650Y0308629D03*
X0257450Y0307229D03*
X0250550Y0306029D03*
X0252550Y0316829D03*
X0262350Y0318029D03*
X0262450Y0317929D03*
D25*
X0245200Y0285929D03*
X0245200Y0285829D03*
X0245200Y0285729D03*
D26*
X0270300Y0285929D03*
X0270400Y0285829D03*
X0270400Y0285729D03*
D27*
X0262900Y0286329D03*
X0262800Y0286429D03*
X0260100Y0287529D03*
X0259000Y0287529D03*
X0261100Y0289329D03*
X0261100Y0289429D03*
X0261000Y0289629D03*
X0256600Y0289629D03*
X0256500Y0289529D03*
X0256500Y0289429D03*
X0255000Y0286929D03*
X0255800Y0293729D03*
X0255900Y0294029D03*
X0256000Y0294229D03*
X0256100Y0294129D03*
X0255400Y0294229D03*
X0254800Y0294529D03*
X0254800Y0294929D03*
X0254600Y0295029D03*
X0254300Y0294929D03*
X0254200Y0295029D03*
X0254300Y0295229D03*
X0254000Y0295129D03*
X0253900Y0295229D03*
X0253700Y0295529D03*
X0253400Y0295829D03*
X0254300Y0295829D03*
X0254500Y0295629D03*
X0255100Y0295029D03*
X0254300Y0294629D03*
X0254000Y0294829D03*
X0255600Y0296029D03*
X0254900Y0297329D03*
X0253600Y0298929D03*
X0255700Y0301229D03*
X0256800Y0301729D03*
X0257000Y0301129D03*
X0259700Y0301729D03*
X0260700Y0303029D03*
X0262000Y0303829D03*
X0262000Y0305829D03*
X0263300Y0305929D03*
X0263300Y0306029D03*
X0264900Y0306829D03*
X0264900Y0306929D03*
X0266000Y0306929D03*
X0266000Y0306829D03*
X0265200Y0308029D03*
X0264700Y0308429D03*
X0265800Y0309329D03*
X0265800Y0309429D03*
X0265900Y0309729D03*
X0265900Y0309829D03*
X0265900Y0309929D03*
X0265900Y0310029D03*
X0265900Y0310229D03*
X0266000Y0310329D03*
X0266000Y0310429D03*
X0266000Y0311229D03*
X0265900Y0311429D03*
X0265900Y0311529D03*
X0265900Y0311629D03*
X0265800Y0312229D03*
X0260800Y0317929D03*
X0260500Y0317829D03*
X0260000Y0317729D03*
X0259400Y0317729D03*
X0259200Y0317929D03*
X0257000Y0318529D03*
X0256600Y0317629D03*
X0256400Y0317529D03*
X0256200Y0317329D03*
X0255400Y0317129D03*
X0255700Y0318029D03*
X0255800Y0318329D03*
X0255600Y0318929D03*
X0255300Y0319029D03*
X0255200Y0318929D03*
X0254900Y0319129D03*
X0254000Y0318829D03*
X0253900Y0318629D03*
X0254300Y0318329D03*
X0254400Y0318029D03*
X0254600Y0318129D03*
X0254300Y0317729D03*
X0254000Y0317529D03*
X0254000Y0318129D03*
X0252800Y0317229D03*
X0252000Y0316229D03*
X0251700Y0315829D03*
X0251300Y0315729D03*
X0251100Y0315429D03*
X0250800Y0314829D03*
X0250800Y0314629D03*
X0250800Y0314529D03*
X0250700Y0314229D03*
X0250500Y0313729D03*
X0250500Y0313629D03*
X0250400Y0313429D03*
X0250300Y0312829D03*
X0250600Y0311529D03*
X0250700Y0311229D03*
X0251100Y0311629D03*
X0251600Y0310529D03*
X0251600Y0310229D03*
X0251300Y0309429D03*
X0251200Y0309129D03*
X0250600Y0309429D03*
X0249600Y0309429D03*
X0249700Y0308929D03*
X0249700Y0310029D03*
X0249600Y0310129D03*
X0249700Y0310229D03*
X0249800Y0311329D03*
X0250800Y0308429D03*
X0251700Y0308229D03*
X0251300Y0306929D03*
X0250400Y0307229D03*
X0250200Y0307429D03*
X0250000Y0307529D03*
X0249300Y0306629D03*
X0249300Y0306529D03*
X0250200Y0305029D03*
X0250300Y0304929D03*
X0250400Y0304829D03*
X0250400Y0304729D03*
X0250500Y0304629D03*
X0251700Y0302329D03*
X0252000Y0302429D03*
X0255300Y0306929D03*
X0257900Y0306429D03*
X0259300Y0307329D03*
X0262700Y0301929D03*
X0262700Y0301829D03*
X0262300Y0301129D03*
X0262200Y0301029D03*
X0263800Y0301229D03*
X0264300Y0301929D03*
X0264300Y0302029D03*
X0264400Y0300229D03*
X0264400Y0300129D03*
X0264000Y0299129D03*
X0263300Y0298729D03*
X0263000Y0298229D03*
X0262400Y0298029D03*
X0262000Y0298429D03*
X0262300Y0297329D03*
X0261700Y0296629D03*
X0262500Y0296329D03*
X0262800Y0295129D03*
X0261900Y0294229D03*
X0260100Y0296829D03*
X0261000Y0297729D03*
X0260000Y0299229D03*
X0259500Y0299029D03*
X0259000Y0298929D03*
X0251500Y0316229D03*
X0256000Y0319029D03*
X0255900Y0319229D03*
X0278000Y0285729D03*
D28*
X0260450Y0286629D03*
X0258450Y0287329D03*
X0258250Y0287229D03*
X0257850Y0287129D03*
X0256450Y0285929D03*
X0255250Y0287229D03*
X0255150Y0287129D03*
X0255050Y0287029D03*
X0257650Y0292929D03*
X0255650Y0293629D03*
X0255350Y0294029D03*
X0255350Y0294329D03*
X0255250Y0294529D03*
X0255250Y0294629D03*
X0254550Y0294829D03*
X0254450Y0295729D03*
X0254050Y0296229D03*
X0254650Y0297529D03*
X0254650Y0297629D03*
X0254550Y0297729D03*
X0255150Y0297729D03*
X0255250Y0297529D03*
X0253850Y0298629D03*
X0251350Y0297029D03*
X0251350Y0296929D03*
X0259650Y0296729D03*
X0261050Y0296929D03*
X0261150Y0297029D03*
X0262250Y0297729D03*
X0262050Y0298329D03*
X0261550Y0298329D03*
X0262950Y0298329D03*
X0263050Y0298629D03*
X0263450Y0299029D03*
X0263850Y0301129D03*
X0263250Y0301429D03*
X0263250Y0301529D03*
X0263050Y0301329D03*
X0263050Y0301229D03*
X0262350Y0301529D03*
X0261450Y0302429D03*
X0259750Y0302429D03*
X0259550Y0302529D03*
X0259550Y0301929D03*
X0257450Y0303829D03*
X0258150Y0306529D03*
X0255450Y0307129D03*
X0255350Y0307029D03*
X0251550Y0308529D03*
X0251550Y0308629D03*
X0251250Y0308229D03*
X0251050Y0307129D03*
X0250250Y0307329D03*
X0249550Y0307829D03*
X0249650Y0309529D03*
X0249650Y0309729D03*
X0249750Y0309829D03*
X0250850Y0310229D03*
X0251150Y0310329D03*
X0251550Y0310029D03*
X0251550Y0309929D03*
X0251350Y0309829D03*
X0251050Y0311429D03*
X0251050Y0311529D03*
X0251150Y0311829D03*
X0251050Y0312129D03*
X0250150Y0311929D03*
X0250050Y0311829D03*
X0250150Y0312629D03*
X0250250Y0312729D03*
X0250350Y0312929D03*
X0250350Y0313029D03*
X0250650Y0314129D03*
X0250750Y0314329D03*
X0251650Y0316329D03*
X0252950Y0317429D03*
X0253050Y0317329D03*
X0253250Y0317229D03*
X0253550Y0317329D03*
X0253850Y0317129D03*
X0254050Y0317229D03*
X0254150Y0317329D03*
X0254350Y0317429D03*
X0254950Y0317329D03*
X0255550Y0317329D03*
X0255850Y0318429D03*
X0255450Y0318829D03*
X0255150Y0318729D03*
X0254750Y0318329D03*
X0253750Y0318029D03*
X0253550Y0316729D03*
X0256650Y0318329D03*
X0256850Y0318429D03*
X0257250Y0318029D03*
X0257750Y0317629D03*
X0259750Y0318329D03*
X0260350Y0317929D03*
X0260750Y0317729D03*
X0262850Y0317629D03*
X0265850Y0309229D03*
X0265850Y0309129D03*
X0265850Y0309029D03*
X0265850Y0308829D03*
X0264950Y0308329D03*
X0264850Y0307029D03*
X0265950Y0307029D03*
X0265950Y0307129D03*
X0265950Y0307229D03*
X0263350Y0306729D03*
X0262850Y0295029D03*
X0262150Y0294929D03*
X0250150Y0305129D03*
D29*
X0245150Y0286229D03*
X0245150Y0286129D03*
X0245150Y0286029D03*
D30*
X0251200Y0296829D03*
X0254000Y0298529D03*
X0254100Y0298429D03*
X0254600Y0298529D03*
X0255200Y0297629D03*
X0254700Y0294329D03*
X0256500Y0289329D03*
X0256400Y0289129D03*
X0257500Y0286929D03*
X0257500Y0286829D03*
X0258700Y0287429D03*
X0256300Y0286229D03*
X0256400Y0286029D03*
X0261100Y0289229D03*
X0260900Y0292729D03*
X0261000Y0292829D03*
X0262900Y0294829D03*
X0262900Y0294929D03*
X0261700Y0296929D03*
X0261700Y0297029D03*
X0260000Y0296929D03*
X0261400Y0299229D03*
X0261500Y0299529D03*
X0262000Y0300929D03*
X0263000Y0301129D03*
X0263800Y0301729D03*
X0263000Y0303929D03*
X0261900Y0303929D03*
X0259700Y0302329D03*
X0256900Y0301229D03*
X0258300Y0306629D03*
X0255600Y0307229D03*
X0251600Y0308729D03*
X0251300Y0308329D03*
X0251100Y0307529D03*
X0251100Y0307329D03*
X0251100Y0307229D03*
X0250700Y0306429D03*
X0249300Y0306729D03*
X0249300Y0306829D03*
X0249300Y0306929D03*
X0249300Y0307029D03*
X0249300Y0307129D03*
X0249300Y0307229D03*
X0251300Y0309629D03*
X0251600Y0309729D03*
X0251400Y0310829D03*
X0250300Y0310529D03*
X0250200Y0312029D03*
X0250200Y0312129D03*
X0250400Y0313129D03*
X0251000Y0314929D03*
X0252300Y0316029D03*
X0252300Y0317029D03*
X0253300Y0316629D03*
X0253200Y0317629D03*
X0254600Y0318429D03*
X0255000Y0318629D03*
X0255600Y0319129D03*
X0256700Y0319029D03*
X0256400Y0318229D03*
X0255600Y0317629D03*
X0258000Y0317729D03*
X0258600Y0317729D03*
X0265800Y0308929D03*
X0265800Y0308729D03*
X0265800Y0308629D03*
X0265800Y0308529D03*
X0265800Y0308429D03*
X0265800Y0308329D03*
X0265800Y0308229D03*
X0265800Y0308129D03*
X0265900Y0307929D03*
X0265900Y0307829D03*
X0265900Y0307729D03*
X0265900Y0307629D03*
X0266000Y0307329D03*
X0262900Y0299029D03*
X0263200Y0298829D03*
X0262900Y0298529D03*
D31*
X0263200Y0299529D03*
X0263200Y0299629D03*
X0263300Y0299729D03*
X0261200Y0299629D03*
X0260600Y0298329D03*
X0260600Y0298229D03*
X0259700Y0296329D03*
X0261000Y0294229D03*
X0263500Y0293629D03*
X0257200Y0293529D03*
X0256200Y0296529D03*
X0256200Y0302129D03*
X0256600Y0302329D03*
X0257000Y0303029D03*
X0257200Y0303429D03*
X0259400Y0308329D03*
X0263300Y0303429D03*
X0263300Y0303329D03*
X0250500Y0295329D03*
X0256300Y0288329D03*
X0261000Y0286529D03*
X0261000Y0286329D03*
X0261000Y0286229D03*
X0260900Y0286029D03*
X0252000Y0316129D03*
X0252600Y0316729D03*
D32*
X0270400Y0286129D03*
X0270400Y0286029D03*
D33*
X0261050Y0289129D03*
X0256450Y0289229D03*
X0256350Y0289029D03*
X0256350Y0288929D03*
X0256250Y0286429D03*
X0256250Y0286329D03*
X0256350Y0286129D03*
X0262950Y0294729D03*
X0263250Y0298929D03*
X0259550Y0298929D03*
X0259850Y0302229D03*
X0257550Y0303729D03*
X0255850Y0301329D03*
X0253850Y0298729D03*
X0254150Y0298329D03*
X0254350Y0298129D03*
X0254550Y0297829D03*
X0251150Y0296729D03*
X0251050Y0296629D03*
X0250950Y0296429D03*
X0250150Y0305229D03*
X0250150Y0305329D03*
X0250250Y0305429D03*
X0249350Y0307329D03*
X0249350Y0307429D03*
X0249750Y0309929D03*
X0250150Y0310129D03*
X0250250Y0310229D03*
X0250250Y0310429D03*
X0250950Y0310429D03*
X0251450Y0310629D03*
X0251350Y0309029D03*
X0250050Y0311429D03*
X0249950Y0311529D03*
X0250250Y0312229D03*
X0250350Y0312329D03*
X0250250Y0312529D03*
X0251550Y0315929D03*
X0251650Y0316029D03*
X0252550Y0316229D03*
X0252650Y0316329D03*
X0253050Y0317029D03*
X0253150Y0317529D03*
X0253850Y0317829D03*
X0255650Y0317229D03*
X0256750Y0317429D03*
X0256250Y0318829D03*
X0256450Y0318929D03*
X0259750Y0317929D03*
X0259850Y0317829D03*
X0262750Y0317729D03*
X0265850Y0308029D03*
X0265950Y0307529D03*
X0265950Y0307429D03*
X0264650Y0307429D03*
X0258650Y0307029D03*
X0258450Y0307129D03*
X0258550Y0306729D03*
X0255750Y0307329D03*
D34*
X0270250Y0286429D03*
X0270350Y0286329D03*
X0270350Y0286229D03*
D35*
X0245200Y0286329D03*
D36*
X0245150Y0286429D03*
D37*
X0245200Y0286529D03*
D38*
X0250750Y0295929D03*
X0250750Y0296029D03*
X0250850Y0296229D03*
X0254750Y0294429D03*
X0255450Y0294129D03*
X0256350Y0288829D03*
X0256150Y0286829D03*
X0256150Y0286729D03*
X0261050Y0289029D03*
X0262350Y0286729D03*
X0262450Y0286629D03*
X0262450Y0286529D03*
X0263150Y0294129D03*
X0263150Y0294229D03*
X0261050Y0299129D03*
X0260050Y0300829D03*
X0261950Y0302729D03*
X0263550Y0301929D03*
X0263450Y0306129D03*
X0264550Y0307529D03*
X0257050Y0301029D03*
X0255950Y0301429D03*
X0250650Y0306229D03*
X0250650Y0306329D03*
X0251250Y0307629D03*
X0251250Y0307829D03*
X0251250Y0307929D03*
X0251250Y0308029D03*
X0249550Y0307729D03*
X0251450Y0310129D03*
X0250350Y0312429D03*
X0253050Y0316529D03*
X0254850Y0317229D03*
X0257050Y0319129D03*
X0258150Y0318529D03*
D39*
X0246600Y0289429D03*
X0270200Y0286529D03*
D40*
X0245250Y0286629D03*
D41*
X0270150Y0286629D03*
D42*
X0245300Y0286729D03*
D43*
X0256300Y0288129D03*
X0261000Y0286729D03*
X0260800Y0293429D03*
X0261000Y0293629D03*
X0261100Y0293829D03*
X0261100Y0293929D03*
X0261400Y0294529D03*
X0263600Y0293529D03*
X0260500Y0298129D03*
X0260700Y0298929D03*
X0261300Y0299729D03*
X0263100Y0299329D03*
X0263400Y0300629D03*
X0263600Y0302229D03*
X0263400Y0303229D03*
X0262300Y0306629D03*
X0258800Y0307529D03*
X0258700Y0307729D03*
X0256900Y0303129D03*
X0256900Y0302829D03*
X0256700Y0302729D03*
X0256300Y0301929D03*
X0255300Y0297429D03*
X0256100Y0296629D03*
X0250800Y0310729D03*
X0256500Y0318129D03*
D44*
X0270050Y0286829D03*
X0270150Y0286729D03*
D45*
X0245350Y0286829D03*
D46*
X0256400Y0287429D03*
X0261500Y0286829D03*
X0259400Y0292829D03*
X0261000Y0299829D03*
X0261000Y0302029D03*
X0261500Y0302229D03*
X0262700Y0307429D03*
X0262800Y0307629D03*
X0263800Y0309229D03*
X0258900Y0308529D03*
X0258600Y0309029D03*
D47*
X0245250Y0286929D03*
D48*
X0250450Y0295229D03*
X0255850Y0296729D03*
X0257050Y0292829D03*
X0257150Y0292729D03*
X0257350Y0292629D03*
X0260950Y0293529D03*
X0261050Y0293729D03*
X0261050Y0296729D03*
X0260750Y0297929D03*
X0263350Y0300929D03*
X0263350Y0301029D03*
X0256850Y0302929D03*
X0256350Y0302229D03*
X0255950Y0301829D03*
X0258750Y0309229D03*
X0252350Y0316429D03*
X0250350Y0310929D03*
X0250350Y0310829D03*
X0256350Y0288229D03*
X0256350Y0286929D03*
X0261150Y0288229D03*
X0261150Y0288329D03*
D49*
X0261350Y0287129D03*
X0261450Y0286929D03*
X0259350Y0292729D03*
X0262650Y0307229D03*
X0262650Y0307329D03*
X0262750Y0307529D03*
X0258750Y0308629D03*
X0261350Y0318329D03*
D50*
X0270000Y0286929D03*
D51*
X0245300Y0287029D03*
D52*
X0250300Y0294829D03*
X0256400Y0287929D03*
X0256300Y0287829D03*
X0256300Y0287729D03*
X0256600Y0287129D03*
X0256600Y0287029D03*
X0261300Y0287529D03*
X0261300Y0287629D03*
X0261000Y0294029D03*
X0260500Y0296629D03*
X0263500Y0302929D03*
X0262300Y0306529D03*
X0262400Y0306929D03*
X0263000Y0308629D03*
X0259100Y0308429D03*
D53*
X0257900Y0307329D03*
X0261300Y0302329D03*
X0261100Y0301929D03*
X0261100Y0301729D03*
X0264000Y0293029D03*
X0259000Y0291629D03*
X0261200Y0287429D03*
X0261200Y0287329D03*
X0261300Y0287229D03*
X0261400Y0287029D03*
X0256300Y0287529D03*
X0250300Y0294529D03*
X0257200Y0318729D03*
D54*
X0269850Y0287029D03*
D55*
X0245350Y0287129D03*
D56*
X0269800Y0287129D03*
D57*
X0245350Y0287229D03*
D58*
X0250300Y0294729D03*
X0256700Y0296129D03*
X0257100Y0293129D03*
X0260400Y0298429D03*
X0263900Y0293229D03*
X0256300Y0287629D03*
X0256600Y0287229D03*
X0258800Y0308229D03*
X0258600Y0309129D03*
X0262700Y0308129D03*
X0264000Y0309329D03*
X0261600Y0318229D03*
D59*
X0246850Y0289829D03*
X0269750Y0287229D03*
D60*
X0245400Y0287329D03*
D61*
X0256350Y0287329D03*
X0259050Y0291729D03*
X0264150Y0292929D03*
X0261150Y0301829D03*
X0263150Y0307929D03*
X0262950Y0308029D03*
X0258350Y0308129D03*
X0258050Y0308029D03*
D62*
X0246900Y0289929D03*
X0269700Y0287329D03*
D63*
X0245400Y0287429D03*
D64*
X0269650Y0287429D03*
D65*
X0245450Y0287529D03*
D66*
X0246900Y0290029D03*
X0269600Y0287529D03*
D67*
X0245500Y0287629D03*
D68*
X0250650Y0295729D03*
X0257250Y0292529D03*
X0256450Y0288729D03*
X0256350Y0288529D03*
X0259650Y0287629D03*
X0261150Y0288629D03*
X0261250Y0297829D03*
X0261850Y0298129D03*
X0260050Y0299129D03*
X0260050Y0301029D03*
X0260650Y0302429D03*
X0260650Y0302529D03*
X0259350Y0302729D03*
X0259150Y0302929D03*
X0257350Y0303529D03*
X0256050Y0302029D03*
X0256050Y0301529D03*
X0263150Y0303729D03*
X0250650Y0306129D03*
X0250450Y0305829D03*
X0250350Y0305729D03*
X0249550Y0307629D03*
X0250050Y0310329D03*
X0252350Y0316629D03*
X0252950Y0317129D03*
X0257650Y0318429D03*
D69*
X0269500Y0287629D03*
D70*
X0245550Y0287729D03*
D71*
X0256950Y0293429D03*
X0263750Y0293329D03*
X0261250Y0287729D03*
X0263550Y0302429D03*
X0263650Y0302729D03*
X0262450Y0306429D03*
X0262350Y0306829D03*
X0262450Y0308229D03*
X0262550Y0308329D03*
X0256950Y0307729D03*
X0258050Y0317929D03*
X0258050Y0318329D03*
X0262250Y0317829D03*
D72*
X0269450Y0287729D03*
D73*
X0245600Y0287829D03*
D74*
X0250400Y0294929D03*
X0250400Y0295029D03*
X0256100Y0296429D03*
X0256300Y0296329D03*
X0257100Y0293229D03*
X0258800Y0293329D03*
X0263100Y0299429D03*
X0263400Y0302329D03*
X0263600Y0302829D03*
X0257700Y0300829D03*
X0257500Y0300929D03*
X0256500Y0302529D03*
X0256600Y0302629D03*
X0258700Y0307429D03*
X0261200Y0287929D03*
X0261200Y0287829D03*
D75*
X0269350Y0287829D03*
D76*
X0245600Y0287929D03*
D77*
X0269300Y0287929D03*
D78*
X0245700Y0288029D03*
D79*
X0250450Y0295129D03*
X0256250Y0288029D03*
X0261150Y0288029D03*
X0261150Y0288129D03*
X0260750Y0293329D03*
X0263650Y0293429D03*
X0261250Y0296329D03*
X0260650Y0299029D03*
X0263150Y0299829D03*
X0263350Y0303029D03*
X0263350Y0303129D03*
X0262250Y0306729D03*
X0262250Y0307029D03*
X0263750Y0309429D03*
X0258750Y0307629D03*
X0250350Y0311129D03*
D80*
X0247300Y0290229D03*
X0269100Y0288129D03*
X0269200Y0288029D03*
D81*
X0245700Y0288129D03*
D82*
X0245750Y0288229D03*
D83*
X0269000Y0288229D03*
D84*
X0245850Y0288329D03*
D85*
X0268900Y0288329D03*
D86*
X0245800Y0288429D03*
D87*
X0247450Y0290429D03*
X0268850Y0288429D03*
D88*
X0245900Y0288529D03*
D89*
X0268750Y0288529D03*
D90*
X0245900Y0288629D03*
D91*
X0247500Y0290529D03*
X0268600Y0288629D03*
D92*
X0246050Y0288729D03*
D93*
X0268550Y0288729D03*
D94*
X0246100Y0288829D03*
D95*
X0268450Y0288829D03*
D96*
X0246250Y0288929D03*
D97*
X0268350Y0288929D03*
D98*
X0246300Y0289029D03*
D99*
X0268250Y0289029D03*
D100*
X0268150Y0289129D03*
X0247850Y0290929D03*
D101*
X0246450Y0289229D03*
D102*
X0268050Y0289229D03*
D103*
X0246550Y0289329D03*
D104*
X0247950Y0291129D03*
X0267950Y0289329D03*
D105*
X0267850Y0289429D03*
X0248050Y0291229D03*
D106*
X0246700Y0289529D03*
D107*
X0267800Y0289529D03*
D108*
X0246750Y0289629D03*
D109*
X0267700Y0289629D03*
D110*
X0246800Y0289729D03*
D111*
X0267600Y0289729D03*
D112*
X0267450Y0289829D03*
X0248150Y0291429D03*
D113*
X0248250Y0291529D03*
X0267350Y0289929D03*
D114*
X0267300Y0290029D03*
X0267200Y0290129D03*
D115*
X0247100Y0290129D03*
D116*
X0248400Y0291729D03*
X0267100Y0290229D03*
D117*
X0247350Y0290329D03*
D118*
X0248400Y0291929D03*
X0267000Y0290329D03*
D119*
X0266900Y0290429D03*
X0248500Y0292029D03*
D120*
X0266800Y0290529D03*
D121*
X0247600Y0290629D03*
D122*
X0266750Y0290629D03*
D123*
X0247600Y0290729D03*
D124*
X0266650Y0290729D03*
D125*
X0247800Y0290829D03*
D126*
X0266550Y0290829D03*
D127*
X0266450Y0290929D03*
X0258950Y0295629D03*
X0258950Y0295729D03*
D128*
X0247900Y0291029D03*
D129*
X0248850Y0292529D03*
X0258950Y0295229D03*
X0258950Y0295429D03*
X0258950Y0295529D03*
X0266350Y0291029D03*
D130*
X0266250Y0291129D03*
X0259050Y0295029D03*
D131*
X0266100Y0291229D03*
D132*
X0248150Y0291329D03*
D133*
X0249250Y0292929D03*
X0265850Y0291329D03*
D134*
X0265800Y0291429D03*
X0261100Y0300329D03*
X0260900Y0300429D03*
X0259300Y0318629D03*
D135*
X0265650Y0291529D03*
D136*
X0248350Y0291629D03*
D137*
X0249400Y0293129D03*
X0261200Y0300229D03*
X0265600Y0291629D03*
X0260200Y0318129D03*
D138*
X0249500Y0293229D03*
X0265400Y0291729D03*
D139*
X0248450Y0291829D03*
D140*
X0250150Y0294229D03*
X0259050Y0291829D03*
X0260350Y0298629D03*
X0258750Y0300729D03*
X0258550Y0308829D03*
X0263350Y0308529D03*
D141*
X0265300Y0291829D03*
D142*
X0259050Y0291929D03*
X0260250Y0298829D03*
X0261050Y0301429D03*
X0263050Y0307829D03*
X0263550Y0309129D03*
X0250050Y0294129D03*
D143*
X0249650Y0293329D03*
X0260250Y0296129D03*
X0261650Y0300029D03*
X0265250Y0292029D03*
X0265250Y0291929D03*
D144*
X0259000Y0292029D03*
X0263700Y0308729D03*
X0263700Y0308829D03*
X0263600Y0308929D03*
D145*
X0248600Y0292129D03*
D146*
X0249900Y0293829D03*
X0258200Y0294029D03*
X0259000Y0292129D03*
D147*
X0265050Y0292129D03*
X0259750Y0300629D03*
X0260450Y0318429D03*
D148*
X0248650Y0292229D03*
D149*
X0258150Y0293929D03*
X0258950Y0292229D03*
X0260750Y0296229D03*
X0264550Y0292529D03*
X0260250Y0318729D03*
X0259650Y0319129D03*
D150*
X0259500Y0319029D03*
X0259600Y0318029D03*
X0258100Y0293729D03*
X0258000Y0293629D03*
X0258900Y0292429D03*
X0264900Y0292229D03*
X0249800Y0293529D03*
D151*
X0248700Y0292329D03*
D152*
X0258900Y0292329D03*
X0264800Y0292329D03*
X0259800Y0318929D03*
D153*
X0258900Y0295829D03*
X0248800Y0292429D03*
D154*
X0249850Y0293629D03*
X0263250Y0307129D03*
X0260550Y0318529D03*
X0264650Y0292429D03*
D155*
X0259650Y0292929D03*
X0259450Y0292529D03*
X0250050Y0294029D03*
X0261350Y0301629D03*
X0257850Y0307829D03*
D156*
X0259100Y0295929D03*
X0259000Y0295329D03*
X0259000Y0295129D03*
X0258900Y0294729D03*
X0248900Y0292629D03*
D157*
X0259600Y0292629D03*
X0260600Y0296429D03*
X0260600Y0296529D03*
X0260300Y0298729D03*
X0261100Y0301229D03*
X0261100Y0301329D03*
X0258000Y0307929D03*
X0264300Y0292829D03*
D158*
X0264450Y0292629D03*
X0259750Y0293229D03*
X0259550Y0293029D03*
X0249950Y0293929D03*
X0258550Y0318229D03*
D159*
X0259050Y0294829D03*
X0249050Y0292729D03*
D160*
X0259800Y0293129D03*
X0264400Y0292729D03*
X0261100Y0302129D03*
X0263000Y0302629D03*
X0263200Y0307729D03*
X0263600Y0309029D03*
D161*
X0249100Y0292829D03*
D162*
X0249300Y0293029D03*
D163*
X0250350Y0294429D03*
X0250250Y0294629D03*
X0256650Y0296229D03*
X0256950Y0296029D03*
X0259050Y0293529D03*
X0261050Y0298029D03*
X0260950Y0301529D03*
X0262650Y0306229D03*
X0263950Y0293129D03*
D164*
X0258950Y0293429D03*
X0256850Y0293329D03*
X0263650Y0302529D03*
X0262550Y0306329D03*
X0262650Y0308429D03*
X0256850Y0307629D03*
X0256750Y0307529D03*
D165*
X0259000Y0319229D03*
X0249700Y0293429D03*
D166*
X0249900Y0293729D03*
D167*
X0257650Y0293829D03*
D168*
X0259250Y0294129D03*
D169*
X0258250Y0294229D03*
X0258250Y0294529D03*
D170*
X0260700Y0298529D03*
X0258600Y0308729D03*
X0258600Y0308929D03*
X0250100Y0294329D03*
D171*
X0258900Y0294929D03*
X0259200Y0294429D03*
X0259200Y0294329D03*
D172*
X0259150Y0294629D03*
D173*
X0260350Y0296029D03*
X0261750Y0299929D03*
D174*
X0261450Y0300129D03*
D175*
X0260850Y0300529D03*
D176*
X0259300Y0318829D03*
D177*
X0291763Y0173473D02*
X0291763Y0173233D01*
D178*
X0290787Y0176403D02*
X0289786Y0176403D01*
X0290286Y0176403D02*
X0290286Y0177904D01*
X0289786Y0177404D01*
X0289314Y0177654D02*
X0289063Y0177904D01*
X0288563Y0177904D01*
X0288313Y0177654D01*
X0288313Y0176653D01*
X0288563Y0176403D01*
X0289063Y0176403D01*
X0289314Y0176653D01*
X0247228Y0091064D02*
X0246978Y0091064D01*
X0246728Y0090814D01*
X0246728Y0090063D01*
X0247228Y0090063D01*
X0247479Y0090313D01*
X0247479Y0090814D01*
X0247228Y0091064D01*
X0246228Y0090564D02*
X0246728Y0090063D01*
X0246728Y0089591D02*
X0246978Y0089341D01*
X0246978Y0088590D01*
X0246978Y0089090D02*
X0247479Y0089591D01*
X0246728Y0089591D02*
X0246228Y0089591D01*
X0245977Y0089341D01*
X0245977Y0088590D01*
X0247479Y0088590D01*
X0246228Y0090564D02*
X0245977Y0091064D01*
X0231235Y0068783D02*
X0230235Y0068783D01*
X0230235Y0068033D01*
X0230735Y0068283D01*
X0230985Y0068283D01*
X0231235Y0068033D01*
X0231235Y0067532D01*
X0230985Y0067282D01*
X0230485Y0067282D01*
X0230235Y0067532D01*
X0229762Y0067282D02*
X0229262Y0067782D01*
X0229512Y0067782D02*
X0228761Y0067782D01*
X0228761Y0067282D02*
X0228761Y0068783D01*
X0229512Y0068783D01*
X0229762Y0068533D01*
X0229762Y0068033D01*
X0229512Y0067782D01*
X0133912Y0179988D02*
X0132411Y0179988D01*
X0132411Y0180739D01*
X0132661Y0180989D01*
X0133162Y0180989D01*
X0133412Y0180739D01*
X0133412Y0179988D01*
X0133412Y0180489D02*
X0133912Y0180989D01*
X0133912Y0181461D02*
X0133912Y0182462D01*
X0133912Y0181962D02*
X0132411Y0181962D01*
X0132912Y0181461D01*
X0125997Y0213244D02*
X0124496Y0213244D01*
X0124496Y0213995D01*
X0124746Y0214245D01*
X0125247Y0214245D01*
X0125497Y0213995D01*
X0125497Y0213244D01*
X0125497Y0213744D02*
X0125997Y0214245D01*
X0125997Y0214717D02*
X0124997Y0215718D01*
X0124746Y0215718D01*
X0124496Y0215468D01*
X0124496Y0214967D01*
X0124746Y0214717D01*
X0125997Y0214717D02*
X0125997Y0215718D01*
X0111308Y0246143D02*
X0110808Y0246143D01*
X0110558Y0246393D01*
X0110085Y0246393D02*
X0110085Y0247394D01*
X0109835Y0247644D01*
X0109084Y0247644D01*
X0109084Y0246143D01*
X0109835Y0246143D01*
X0110085Y0246393D01*
X0110558Y0246894D02*
X0111058Y0247144D01*
X0111308Y0247144D01*
X0111558Y0246894D01*
X0111558Y0246393D01*
X0111308Y0246143D01*
X0110558Y0246894D02*
X0110558Y0247644D01*
X0111558Y0247644D01*
X0111481Y0253791D02*
X0111481Y0255292D01*
X0110731Y0254541D01*
X0111731Y0254541D01*
X0110258Y0254041D02*
X0110258Y0255042D01*
X0110008Y0255292D01*
X0109257Y0255292D01*
X0109257Y0253791D01*
X0110008Y0253791D01*
X0110258Y0254041D01*
X0109935Y0261495D02*
X0109185Y0261495D01*
X0109185Y0262997D01*
X0109935Y0262997D01*
X0110186Y0262746D01*
X0110186Y0261746D01*
X0109935Y0261495D01*
X0110658Y0261746D02*
X0110908Y0261495D01*
X0111409Y0261495D01*
X0111659Y0261746D01*
X0111659Y0261996D01*
X0111409Y0262246D01*
X0111158Y0262246D01*
X0111409Y0262246D02*
X0111659Y0262496D01*
X0111659Y0262746D01*
X0111409Y0262997D01*
X0110908Y0262997D01*
X0110658Y0262746D01*
X0110728Y0269363D02*
X0111729Y0270364D01*
X0111729Y0270614D01*
X0111479Y0270864D01*
X0110979Y0270864D01*
X0110728Y0270614D01*
X0110256Y0270614D02*
X0110006Y0270864D01*
X0109255Y0270864D01*
X0109255Y0269363D01*
X0110006Y0269363D01*
X0110256Y0269613D01*
X0110256Y0270614D01*
X0110728Y0269363D02*
X0111729Y0269363D01*
X0119254Y0269264D02*
X0120005Y0269264D01*
X0120255Y0269515D01*
X0120255Y0270015D01*
X0120005Y0270265D01*
X0119254Y0270265D01*
X0119254Y0268764D01*
X0119754Y0269264D02*
X0120255Y0268764D01*
X0120727Y0268764D02*
X0121728Y0268764D01*
X0122200Y0268764D02*
X0123201Y0269765D01*
X0123201Y0270015D01*
X0122951Y0270265D01*
X0122451Y0270265D01*
X0122200Y0270015D01*
X0121228Y0270265D02*
X0121228Y0268764D01*
X0122200Y0268764D02*
X0123201Y0268764D01*
X0121228Y0270265D02*
X0120727Y0269765D01*
X0120695Y0276856D02*
X0121696Y0276856D01*
X0122169Y0276856D02*
X0123169Y0276856D01*
X0122669Y0276856D02*
X0122669Y0278357D01*
X0122169Y0277857D01*
X0121196Y0278357D02*
X0121196Y0276856D01*
X0120223Y0276856D02*
X0119723Y0277356D01*
X0119973Y0277356D02*
X0119222Y0277356D01*
X0119222Y0276856D02*
X0119222Y0278357D01*
X0119973Y0278357D01*
X0120223Y0278107D01*
X0120223Y0277606D01*
X0119973Y0277356D01*
X0120695Y0277857D02*
X0121196Y0278357D01*
X0121234Y0262228D02*
X0121234Y0260727D01*
X0121734Y0260727D02*
X0120733Y0260727D01*
X0120261Y0260727D02*
X0119761Y0261227D01*
X0120011Y0261227D02*
X0119260Y0261227D01*
X0119260Y0260727D02*
X0119260Y0262228D01*
X0120011Y0262228D01*
X0120261Y0261978D01*
X0120261Y0261477D01*
X0120011Y0261227D01*
X0120733Y0261727D02*
X0121234Y0262228D01*
X0122207Y0261978D02*
X0122457Y0262228D01*
X0122957Y0262228D01*
X0123208Y0261978D01*
X0123208Y0261727D01*
X0122957Y0261477D01*
X0123208Y0261227D01*
X0123208Y0260977D01*
X0122957Y0260727D01*
X0122457Y0260727D01*
X0122207Y0260977D01*
X0122707Y0261477D02*
X0122957Y0261477D01*
X0122873Y0254175D02*
X0122123Y0253424D01*
X0123124Y0253424D01*
X0122873Y0252673D02*
X0122873Y0254175D01*
X0121150Y0254175D02*
X0121150Y0252673D01*
X0121650Y0252673D02*
X0120649Y0252673D01*
X0120177Y0252673D02*
X0119677Y0253174D01*
X0119927Y0253174D02*
X0119176Y0253174D01*
X0119176Y0252673D02*
X0119176Y0254175D01*
X0119927Y0254175D01*
X0120177Y0253925D01*
X0120177Y0253424D01*
X0119927Y0253174D01*
X0120649Y0253674D02*
X0121150Y0254175D01*
X0140444Y0270546D02*
X0141695Y0270546D01*
X0141945Y0270797D01*
X0141945Y0271297D01*
X0141695Y0271547D01*
X0140444Y0271547D01*
X0140694Y0272020D02*
X0140444Y0272270D01*
X0140444Y0272770D01*
X0140694Y0273021D01*
X0140694Y0273493D02*
X0140945Y0273493D01*
X0141195Y0273743D01*
X0141195Y0274494D01*
X0141695Y0274494D02*
X0140694Y0274494D01*
X0140444Y0274244D01*
X0140444Y0273743D01*
X0140694Y0273493D01*
X0141195Y0272770D02*
X0141195Y0272270D01*
X0140945Y0272020D01*
X0140694Y0272020D01*
X0140194Y0272520D02*
X0142196Y0272520D01*
X0141945Y0272270D02*
X0141945Y0272770D01*
X0141695Y0273021D01*
X0141445Y0273021D01*
X0141195Y0272770D01*
X0141695Y0273493D02*
X0141945Y0273743D01*
X0141945Y0274244D01*
X0141695Y0274494D01*
X0141945Y0272270D02*
X0141695Y0272020D01*
D179*
X0149775Y0274508D02*
X0171035Y0274508D01*
X0171035Y0253248D01*
X0149775Y0253248D01*
X0149775Y0274508D01*
X0109203Y0274583D02*
X0107982Y0273663D01*
X0107982Y0271852D01*
X0109203Y0272803D02*
X0108043Y0273563D01*
X0107982Y0273663D02*
X0107982Y0275474D01*
X0107912Y0267606D02*
X0107912Y0265795D01*
X0109132Y0266716D01*
X0107912Y0265795D02*
X0107912Y0263984D01*
X0109132Y0264936D02*
X0107973Y0265695D01*
X0107985Y0259902D02*
X0107985Y0258091D01*
X0109205Y0259011D01*
X0107985Y0258091D02*
X0107985Y0256280D01*
X0109205Y0257231D02*
X0108045Y0257991D01*
X0107811Y0252254D02*
X0107811Y0250443D01*
X0109032Y0251363D01*
X0107811Y0250443D02*
X0107811Y0248632D01*
X0109032Y0249583D02*
X0107872Y0250343D01*
X0144530Y0227619D02*
X0144584Y0227621D01*
X0144637Y0227626D01*
X0144690Y0227635D01*
X0144742Y0227648D01*
X0144794Y0227664D01*
X0144844Y0227684D01*
X0144892Y0227707D01*
X0144939Y0227734D01*
X0144984Y0227763D01*
X0145027Y0227796D01*
X0145067Y0227831D01*
X0145105Y0227869D01*
X0145140Y0227909D01*
X0145173Y0227952D01*
X0145202Y0227997D01*
X0145229Y0228044D01*
X0145252Y0228092D01*
X0145272Y0228142D01*
X0145288Y0228194D01*
X0145301Y0228246D01*
X0145310Y0228299D01*
X0145315Y0228352D01*
X0145317Y0228406D01*
X0155553Y0228406D01*
X0155554Y0228406D02*
X0155556Y0228352D01*
X0155561Y0228299D01*
X0155570Y0228246D01*
X0155583Y0228194D01*
X0155599Y0228142D01*
X0155619Y0228092D01*
X0155642Y0228044D01*
X0155669Y0227997D01*
X0155698Y0227952D01*
X0155731Y0227909D01*
X0155766Y0227869D01*
X0155804Y0227831D01*
X0155844Y0227796D01*
X0155887Y0227763D01*
X0155932Y0227734D01*
X0155979Y0227707D01*
X0156027Y0227684D01*
X0156077Y0227664D01*
X0156129Y0227648D01*
X0156181Y0227635D01*
X0156234Y0227626D01*
X0156287Y0227621D01*
X0156341Y0227619D01*
X0156341Y0210296D02*
X0156287Y0210294D01*
X0156234Y0210289D01*
X0156181Y0210280D01*
X0156129Y0210267D01*
X0156077Y0210251D01*
X0156027Y0210231D01*
X0155979Y0210208D01*
X0155932Y0210181D01*
X0155887Y0210152D01*
X0155844Y0210119D01*
X0155804Y0210084D01*
X0155766Y0210046D01*
X0155731Y0210006D01*
X0155698Y0209963D01*
X0155669Y0209918D01*
X0155642Y0209871D01*
X0155619Y0209823D01*
X0155599Y0209773D01*
X0155583Y0209721D01*
X0155570Y0209669D01*
X0155561Y0209616D01*
X0155556Y0209563D01*
X0155554Y0209509D01*
X0155553Y0209509D02*
X0145317Y0209509D01*
X0145315Y0209563D01*
X0145310Y0209616D01*
X0145301Y0209669D01*
X0145288Y0209721D01*
X0145272Y0209773D01*
X0145252Y0209823D01*
X0145229Y0209871D01*
X0145202Y0209918D01*
X0145173Y0209963D01*
X0145140Y0210006D01*
X0145105Y0210046D01*
X0145067Y0210084D01*
X0145027Y0210119D01*
X0144984Y0210152D01*
X0144939Y0210181D01*
X0144892Y0210208D01*
X0144844Y0210231D01*
X0144794Y0210251D01*
X0144742Y0210267D01*
X0144690Y0210280D01*
X0144637Y0210289D01*
X0144584Y0210294D01*
X0144530Y0210296D01*
X0119258Y0115337D02*
X0111148Y0115337D01*
X0111148Y0105100D02*
X0119258Y0105100D01*
X0286298Y0178961D02*
X0286352Y0178959D01*
X0286405Y0178954D01*
X0286458Y0178945D01*
X0286510Y0178932D01*
X0286562Y0178916D01*
X0286612Y0178896D01*
X0286660Y0178873D01*
X0286707Y0178846D01*
X0286752Y0178817D01*
X0286795Y0178784D01*
X0286835Y0178749D01*
X0286873Y0178711D01*
X0286908Y0178671D01*
X0286941Y0178628D01*
X0286970Y0178583D01*
X0286997Y0178536D01*
X0287020Y0178488D01*
X0287040Y0178438D01*
X0287056Y0178386D01*
X0287069Y0178334D01*
X0287078Y0178281D01*
X0287083Y0178228D01*
X0287085Y0178174D01*
X0297321Y0178174D01*
X0297322Y0178174D02*
X0297324Y0178228D01*
X0297329Y0178281D01*
X0297338Y0178334D01*
X0297351Y0178386D01*
X0297367Y0178438D01*
X0297387Y0178488D01*
X0297410Y0178536D01*
X0297437Y0178583D01*
X0297466Y0178628D01*
X0297499Y0178671D01*
X0297534Y0178711D01*
X0297572Y0178749D01*
X0297612Y0178784D01*
X0297655Y0178817D01*
X0297700Y0178846D01*
X0297747Y0178873D01*
X0297795Y0178896D01*
X0297845Y0178916D01*
X0297897Y0178932D01*
X0297949Y0178945D01*
X0298002Y0178954D01*
X0298055Y0178959D01*
X0298109Y0178961D01*
X0298109Y0196285D02*
X0298055Y0196287D01*
X0298002Y0196292D01*
X0297949Y0196301D01*
X0297897Y0196314D01*
X0297845Y0196330D01*
X0297795Y0196350D01*
X0297747Y0196373D01*
X0297700Y0196400D01*
X0297655Y0196429D01*
X0297612Y0196462D01*
X0297572Y0196497D01*
X0297534Y0196535D01*
X0297499Y0196575D01*
X0297466Y0196618D01*
X0297437Y0196663D01*
X0297410Y0196710D01*
X0297387Y0196758D01*
X0297367Y0196808D01*
X0297351Y0196860D01*
X0297338Y0196912D01*
X0297329Y0196965D01*
X0297324Y0197018D01*
X0297322Y0197072D01*
X0297321Y0197072D02*
X0287085Y0197072D01*
X0287083Y0197018D01*
X0287078Y0196965D01*
X0287069Y0196912D01*
X0287056Y0196860D01*
X0287040Y0196808D01*
X0287020Y0196758D01*
X0286997Y0196710D01*
X0286970Y0196663D01*
X0286941Y0196618D01*
X0286908Y0196575D01*
X0286873Y0196535D01*
X0286835Y0196497D01*
X0286795Y0196462D01*
X0286752Y0196429D01*
X0286707Y0196400D01*
X0286660Y0196373D01*
X0286612Y0196350D01*
X0286562Y0196330D01*
X0286510Y0196314D01*
X0286458Y0196301D01*
X0286405Y0196292D01*
X0286352Y0196287D01*
X0286298Y0196285D01*
X0294438Y0363123D02*
X0294436Y0363177D01*
X0294431Y0363230D01*
X0294422Y0363283D01*
X0294409Y0363335D01*
X0294393Y0363387D01*
X0294373Y0363437D01*
X0294350Y0363485D01*
X0294323Y0363532D01*
X0294294Y0363577D01*
X0294261Y0363620D01*
X0294226Y0363660D01*
X0294188Y0363698D01*
X0294148Y0363733D01*
X0294105Y0363766D01*
X0294060Y0363795D01*
X0294013Y0363822D01*
X0293965Y0363845D01*
X0293915Y0363865D01*
X0293863Y0363881D01*
X0293811Y0363894D01*
X0293758Y0363903D01*
X0293705Y0363908D01*
X0293651Y0363910D01*
X0293651Y0363911D02*
X0293651Y0374147D01*
X0293651Y0374148D02*
X0293705Y0374150D01*
X0293758Y0374155D01*
X0293811Y0374164D01*
X0293863Y0374177D01*
X0293915Y0374193D01*
X0293965Y0374213D01*
X0294013Y0374236D01*
X0294060Y0374263D01*
X0294105Y0374292D01*
X0294148Y0374325D01*
X0294188Y0374360D01*
X0294226Y0374398D01*
X0294261Y0374438D01*
X0294294Y0374481D01*
X0294323Y0374526D01*
X0294350Y0374573D01*
X0294373Y0374621D01*
X0294393Y0374671D01*
X0294409Y0374723D01*
X0294422Y0374775D01*
X0294431Y0374828D01*
X0294436Y0374881D01*
X0294438Y0374935D01*
X0311762Y0374935D02*
X0311764Y0374881D01*
X0311769Y0374828D01*
X0311778Y0374775D01*
X0311791Y0374723D01*
X0311807Y0374671D01*
X0311827Y0374621D01*
X0311850Y0374573D01*
X0311877Y0374526D01*
X0311906Y0374481D01*
X0311939Y0374438D01*
X0311974Y0374398D01*
X0312012Y0374360D01*
X0312052Y0374325D01*
X0312095Y0374292D01*
X0312140Y0374263D01*
X0312187Y0374236D01*
X0312235Y0374213D01*
X0312285Y0374193D01*
X0312337Y0374177D01*
X0312389Y0374164D01*
X0312442Y0374155D01*
X0312495Y0374150D01*
X0312549Y0374148D01*
X0312549Y0374147D02*
X0312549Y0363911D01*
X0312549Y0363910D02*
X0312495Y0363908D01*
X0312442Y0363903D01*
X0312389Y0363894D01*
X0312337Y0363881D01*
X0312285Y0363865D01*
X0312235Y0363845D01*
X0312187Y0363822D01*
X0312140Y0363795D01*
X0312095Y0363766D01*
X0312052Y0363733D01*
X0312012Y0363698D01*
X0311974Y0363660D01*
X0311939Y0363620D01*
X0311906Y0363577D01*
X0311877Y0363532D01*
X0311850Y0363485D01*
X0311827Y0363437D01*
X0311807Y0363387D01*
X0311791Y0363335D01*
X0311778Y0363283D01*
X0311769Y0363230D01*
X0311764Y0363177D01*
X0311762Y0363123D01*
D180*
X0300206Y0379229D02*
X0298671Y0379229D01*
X0297904Y0379996D01*
X0296369Y0379996D02*
X0295602Y0379229D01*
X0294067Y0379229D01*
X0293300Y0379996D01*
X0293300Y0383066D01*
X0294067Y0383833D01*
X0295602Y0383833D01*
X0296369Y0383066D01*
X0296369Y0379996D01*
X0296369Y0379229D02*
X0294835Y0380764D01*
X0297904Y0383066D02*
X0298671Y0383833D01*
X0300206Y0383833D01*
X0300973Y0383066D01*
X0300973Y0382298D01*
X0300206Y0381531D01*
X0300973Y0380764D01*
X0300973Y0379996D01*
X0300206Y0379229D01*
X0300206Y0381531D02*
X0299439Y0381531D01*
X0176622Y0272800D02*
X0172018Y0272800D01*
X0174320Y0270498D01*
X0174320Y0273567D01*
X0175087Y0268963D02*
X0174320Y0268196D01*
X0174320Y0266661D01*
X0173553Y0265894D01*
X0172785Y0265894D01*
X0172018Y0266661D01*
X0172018Y0268196D01*
X0172785Y0268963D01*
X0171251Y0267428D02*
X0177389Y0267428D01*
X0176622Y0266661D02*
X0176622Y0268196D01*
X0175855Y0268963D01*
X0175087Y0268963D01*
X0176622Y0266661D02*
X0175855Y0265894D01*
X0175855Y0264359D02*
X0172018Y0264359D01*
X0172018Y0261290D02*
X0175855Y0261290D01*
X0176622Y0262057D01*
X0176622Y0263592D01*
X0175855Y0264359D01*
X0160585Y0270886D02*
X0155981Y0270886D01*
X0155981Y0273188D01*
X0156748Y0273956D01*
X0158283Y0273956D01*
X0159050Y0273188D01*
X0159050Y0270886D01*
X0159050Y0272421D02*
X0160585Y0273956D01*
X0160585Y0275490D02*
X0157515Y0278560D01*
X0156748Y0278560D01*
X0155981Y0277792D01*
X0155981Y0276258D01*
X0156748Y0275490D01*
X0160585Y0275490D02*
X0160585Y0278560D01*
X0160585Y0280094D02*
X0160585Y0283164D01*
X0160585Y0281629D02*
X0155981Y0281629D01*
X0157515Y0280094D01*
X0126387Y0233540D02*
X0126387Y0230470D01*
X0123318Y0233540D01*
X0122550Y0233540D01*
X0121783Y0232772D01*
X0121783Y0231238D01*
X0122550Y0230470D01*
X0122550Y0228936D02*
X0121783Y0228168D01*
X0121783Y0226634D01*
X0122550Y0225866D01*
X0123318Y0225866D01*
X0124085Y0226634D01*
X0124085Y0228168D01*
X0124852Y0228936D01*
X0125619Y0228936D01*
X0126387Y0228168D01*
X0126387Y0226634D01*
X0125619Y0225866D01*
X0125619Y0224332D02*
X0121783Y0224332D01*
X0121783Y0221263D02*
X0125619Y0221263D01*
X0126387Y0222030D01*
X0126387Y0223564D01*
X0125619Y0224332D01*
X0127154Y0227401D02*
X0121016Y0227401D01*
X0135631Y0216063D02*
X0135631Y0214529D01*
X0136399Y0213762D01*
X0136399Y0212227D02*
X0139468Y0212227D01*
X0140235Y0211460D01*
X0140235Y0209925D01*
X0139468Y0209158D01*
X0136399Y0209158D01*
X0135631Y0209925D01*
X0135631Y0211460D01*
X0136399Y0212227D01*
X0138701Y0210692D02*
X0140235Y0212227D01*
X0140235Y0213762D02*
X0137166Y0216831D01*
X0136399Y0216831D01*
X0135631Y0216063D01*
X0140235Y0216831D02*
X0140235Y0213762D01*
X0156350Y0214899D02*
X0157118Y0214132D01*
X0160187Y0214132D01*
X0160954Y0214899D01*
X0160954Y0216434D01*
X0160187Y0217201D01*
X0160954Y0218736D02*
X0157885Y0221805D01*
X0157118Y0221805D01*
X0156350Y0221038D01*
X0156350Y0219503D01*
X0157118Y0218736D01*
X0157118Y0217201D02*
X0156350Y0216434D01*
X0156350Y0214899D01*
X0160954Y0218736D02*
X0160954Y0221805D01*
X0160954Y0223340D02*
X0157885Y0226409D01*
X0157118Y0226409D01*
X0156350Y0225642D01*
X0156350Y0224107D01*
X0157118Y0223340D01*
X0160954Y0223340D02*
X0160954Y0226409D01*
X0126387Y0195831D02*
X0126387Y0194297D01*
X0125619Y0193530D01*
X0125619Y0191995D02*
X0124852Y0191995D01*
X0124085Y0191228D01*
X0124085Y0189693D01*
X0123318Y0188926D01*
X0122550Y0188926D01*
X0121783Y0189693D01*
X0121783Y0191228D01*
X0122550Y0191995D01*
X0122550Y0193530D02*
X0121783Y0194297D01*
X0121783Y0195831D01*
X0122550Y0196599D01*
X0123318Y0196599D01*
X0124085Y0195831D01*
X0124852Y0196599D01*
X0125619Y0196599D01*
X0126387Y0195831D01*
X0124085Y0195831D02*
X0124085Y0195064D01*
X0125619Y0191995D02*
X0126387Y0191228D01*
X0126387Y0189693D01*
X0125619Y0188926D01*
X0125619Y0187391D02*
X0121783Y0187391D01*
X0121783Y0184322D02*
X0125619Y0184322D01*
X0126387Y0185089D01*
X0126387Y0186624D01*
X0125619Y0187391D01*
X0127154Y0190460D02*
X0121016Y0190460D01*
X0115909Y0156496D02*
X0115909Y0153427D01*
X0112840Y0156496D01*
X0112072Y0156496D01*
X0111305Y0155729D01*
X0111305Y0154194D01*
X0112072Y0153427D01*
X0111305Y0151892D02*
X0115909Y0151892D01*
X0111305Y0148823D01*
X0115909Y0148823D01*
X0115909Y0147288D02*
X0114374Y0145753D01*
X0114374Y0146521D02*
X0114374Y0144219D01*
X0115909Y0144219D02*
X0111305Y0144219D01*
X0111305Y0146521D01*
X0112072Y0147288D01*
X0113607Y0147288D01*
X0114374Y0146521D01*
X0109062Y0148628D02*
X0103156Y0148628D01*
X0103156Y0154533D02*
X0109062Y0154533D01*
X0116176Y0102522D02*
X0118478Y0102522D01*
X0119245Y0101755D01*
X0119245Y0098686D01*
X0118478Y0097918D01*
X0116176Y0097918D01*
X0116176Y0102522D01*
X0120780Y0100220D02*
X0120780Y0098686D01*
X0121547Y0097918D01*
X0123081Y0097918D01*
X0123849Y0098686D01*
X0123849Y0099453D01*
X0123081Y0100220D01*
X0120780Y0100220D01*
X0122314Y0101755D01*
X0123849Y0102522D01*
X0120717Y0095755D02*
X0119182Y0095755D01*
X0118415Y0094987D01*
X0120717Y0095755D02*
X0121484Y0094987D01*
X0121484Y0094220D01*
X0118415Y0091151D01*
X0121484Y0091151D01*
X0116880Y0091151D02*
X0113811Y0091151D01*
X0115345Y0091151D02*
X0115345Y0095755D01*
X0113811Y0094220D01*
X0112276Y0094987D02*
X0111509Y0095755D01*
X0109974Y0095755D01*
X0109207Y0094987D01*
X0109207Y0091918D01*
X0109974Y0091151D01*
X0111509Y0091151D01*
X0112276Y0091918D01*
X0158893Y0098495D02*
X0159660Y0097727D01*
X0161195Y0097727D01*
X0161962Y0098495D01*
X0163497Y0097727D02*
X0166566Y0097727D01*
X0165031Y0097727D02*
X0165031Y0102331D01*
X0163497Y0100797D01*
X0161962Y0101564D02*
X0161195Y0102331D01*
X0159660Y0102331D01*
X0158893Y0101564D01*
X0158893Y0098495D01*
X0168101Y0098495D02*
X0171170Y0101564D01*
X0171170Y0098495D01*
X0170402Y0097727D01*
X0168868Y0097727D01*
X0168101Y0098495D01*
X0168101Y0101564D01*
X0168868Y0102331D01*
X0170402Y0102331D01*
X0171170Y0101564D01*
X0169940Y0140388D02*
X0173777Y0140388D01*
X0174544Y0141156D01*
X0174544Y0142690D01*
X0173777Y0143457D01*
X0169940Y0143457D01*
X0170708Y0144992D02*
X0169940Y0145759D01*
X0169940Y0147294D01*
X0170708Y0148061D01*
X0172242Y0147294D02*
X0172242Y0145759D01*
X0171475Y0144992D01*
X0170708Y0144992D01*
X0169173Y0146527D02*
X0175312Y0146527D01*
X0174544Y0147294D02*
X0173777Y0148061D01*
X0173010Y0148061D01*
X0172242Y0147294D01*
X0174544Y0147294D02*
X0174544Y0145759D01*
X0173777Y0144992D01*
X0174544Y0149596D02*
X0174544Y0152665D01*
X0174544Y0151131D02*
X0169940Y0151131D01*
X0171475Y0149596D01*
X0219744Y0156291D02*
X0220511Y0155523D01*
X0221278Y0155523D01*
X0222046Y0156291D01*
X0222046Y0157825D01*
X0222813Y0158593D01*
X0223580Y0158593D01*
X0224348Y0157825D01*
X0224348Y0156291D01*
X0223580Y0155523D01*
X0219744Y0156291D02*
X0219744Y0157825D01*
X0220511Y0158593D01*
X0219744Y0160127D02*
X0219744Y0163197D01*
X0219744Y0164731D02*
X0221278Y0166266D01*
X0219744Y0167800D01*
X0224348Y0167800D01*
X0223580Y0169335D02*
X0224348Y0170102D01*
X0224348Y0171637D01*
X0223580Y0172404D01*
X0222813Y0172404D01*
X0222046Y0171637D01*
X0222046Y0170870D01*
X0222046Y0171637D02*
X0221278Y0172404D01*
X0220511Y0172404D01*
X0219744Y0171637D01*
X0219744Y0170102D01*
X0220511Y0169335D01*
X0220511Y0173939D02*
X0219744Y0174706D01*
X0219744Y0176241D01*
X0220511Y0177008D01*
X0221278Y0177008D01*
X0224348Y0173939D01*
X0224348Y0177008D01*
X0224348Y0178543D02*
X0219744Y0178543D01*
X0219744Y0181612D01*
X0222046Y0180078D02*
X0222046Y0178543D01*
X0222046Y0183147D02*
X0222046Y0186216D01*
X0224348Y0185449D02*
X0219744Y0185449D01*
X0222046Y0183147D01*
X0224348Y0164731D02*
X0219744Y0164731D01*
X0219744Y0161662D02*
X0224348Y0161662D01*
X0277399Y0178590D02*
X0278167Y0177823D01*
X0281236Y0177823D01*
X0282003Y0178590D01*
X0282003Y0180125D01*
X0281236Y0180892D01*
X0278167Y0180892D01*
X0277399Y0180125D01*
X0277399Y0178590D01*
X0280469Y0179358D02*
X0282003Y0180892D01*
X0282003Y0182427D02*
X0282003Y0185496D01*
X0282003Y0183962D02*
X0277399Y0183962D01*
X0278934Y0182427D01*
X0245337Y0095422D02*
X0244570Y0095422D01*
X0243803Y0094655D01*
X0243803Y0092353D01*
X0245337Y0092353D01*
X0246105Y0093120D01*
X0246105Y0094655D01*
X0245337Y0095422D01*
X0242268Y0093887D02*
X0243803Y0092353D01*
X0244570Y0090818D02*
X0243803Y0090051D01*
X0243803Y0088516D01*
X0243035Y0087749D01*
X0242268Y0087749D01*
X0241501Y0088516D01*
X0241501Y0090051D01*
X0242268Y0090818D01*
X0240733Y0089283D02*
X0246872Y0089283D01*
X0246105Y0088516D02*
X0246105Y0090051D01*
X0245337Y0090818D01*
X0244570Y0090818D01*
X0246105Y0088516D02*
X0245337Y0087749D01*
X0245337Y0086214D02*
X0241501Y0086214D01*
X0239513Y0086008D02*
X0239513Y0092505D01*
X0242268Y0093887D02*
X0241501Y0095422D01*
X0245337Y0086214D02*
X0246105Y0085447D01*
X0246105Y0083912D01*
X0245337Y0083145D01*
X0241501Y0083145D01*
X0228096Y0086008D02*
X0228096Y0092505D01*
D181*
X0242929Y0087986D03*
X0129362Y0179385D03*
X0129047Y0216694D03*
D182*
X0122626Y0249623D03*
X0122710Y0257677D03*
X0122704Y0265714D03*
X0122672Y0273806D03*
X0232211Y0064232D03*
D183*
X0097559Y0047465D02*
X0097559Y0025811D01*
X0113826Y0108305D02*
X0113826Y0112809D01*
X0112325Y0112809D02*
X0115328Y0112809D01*
X0116929Y0112059D02*
X0117680Y0112809D01*
X0119181Y0112809D01*
X0119932Y0112059D01*
X0119932Y0111308D01*
X0119181Y0110557D01*
X0119932Y0109807D01*
X0119932Y0109056D01*
X0119181Y0108305D01*
X0117680Y0108305D01*
X0116929Y0109056D01*
X0118430Y0110557D02*
X0119181Y0110557D01*
X0140939Y0128791D02*
X0145443Y0128791D01*
X0145443Y0130292D02*
X0145443Y0127289D01*
X0142441Y0127289D02*
X0140939Y0128791D01*
X0143191Y0131893D02*
X0141690Y0133395D01*
X0140939Y0134896D01*
X0143191Y0134145D02*
X0143191Y0131893D01*
X0144692Y0131893D01*
X0145443Y0132644D01*
X0145443Y0134145D01*
X0144692Y0134896D01*
X0143942Y0134896D01*
X0143191Y0134145D01*
X0176093Y0131350D02*
X0177594Y0132852D01*
X0177594Y0128348D01*
X0176093Y0128348D02*
X0179095Y0128348D01*
X0184784Y0140188D02*
X0239902Y0140188D01*
X0239902Y0195306D01*
X0184784Y0195306D01*
X0184784Y0140188D01*
X0192593Y0132101D02*
X0192593Y0131350D01*
X0193343Y0130600D01*
X0194845Y0130600D01*
X0195595Y0129849D01*
X0195595Y0129098D01*
X0194845Y0128348D01*
X0193343Y0128348D01*
X0192593Y0129098D01*
X0192593Y0132101D02*
X0193343Y0132852D01*
X0194845Y0132852D01*
X0195595Y0132101D01*
X0197197Y0132852D02*
X0197197Y0129849D01*
X0198698Y0128348D01*
X0200199Y0129849D01*
X0200199Y0132852D01*
X0201801Y0131350D02*
X0203302Y0132852D01*
X0203302Y0128348D01*
X0201801Y0128348D02*
X0204803Y0128348D01*
X0233996Y0144125D02*
X0233998Y0144213D01*
X0234004Y0144301D01*
X0234014Y0144389D01*
X0234028Y0144477D01*
X0234045Y0144563D01*
X0234067Y0144649D01*
X0234092Y0144733D01*
X0234122Y0144817D01*
X0234154Y0144899D01*
X0234191Y0144979D01*
X0234231Y0145058D01*
X0234275Y0145135D01*
X0234322Y0145210D01*
X0234372Y0145282D01*
X0234426Y0145353D01*
X0234482Y0145420D01*
X0234542Y0145486D01*
X0234604Y0145548D01*
X0234670Y0145608D01*
X0234737Y0145664D01*
X0234808Y0145718D01*
X0234880Y0145768D01*
X0234955Y0145815D01*
X0235032Y0145859D01*
X0235111Y0145899D01*
X0235191Y0145936D01*
X0235273Y0145968D01*
X0235357Y0145998D01*
X0235441Y0146023D01*
X0235527Y0146045D01*
X0235613Y0146062D01*
X0235701Y0146076D01*
X0235789Y0146086D01*
X0235877Y0146092D01*
X0235965Y0146094D01*
X0236053Y0146092D01*
X0236141Y0146086D01*
X0236229Y0146076D01*
X0236317Y0146062D01*
X0236403Y0146045D01*
X0236489Y0146023D01*
X0236573Y0145998D01*
X0236657Y0145968D01*
X0236739Y0145936D01*
X0236819Y0145899D01*
X0236898Y0145859D01*
X0236975Y0145815D01*
X0237050Y0145768D01*
X0237122Y0145718D01*
X0237193Y0145664D01*
X0237260Y0145608D01*
X0237326Y0145548D01*
X0237388Y0145486D01*
X0237448Y0145420D01*
X0237504Y0145353D01*
X0237558Y0145282D01*
X0237608Y0145210D01*
X0237655Y0145135D01*
X0237699Y0145058D01*
X0237739Y0144979D01*
X0237776Y0144899D01*
X0237808Y0144817D01*
X0237838Y0144733D01*
X0237863Y0144649D01*
X0237885Y0144563D01*
X0237902Y0144477D01*
X0237916Y0144389D01*
X0237926Y0144301D01*
X0237932Y0144213D01*
X0237934Y0144125D01*
X0237932Y0144037D01*
X0237926Y0143949D01*
X0237916Y0143861D01*
X0237902Y0143773D01*
X0237885Y0143687D01*
X0237863Y0143601D01*
X0237838Y0143517D01*
X0237808Y0143433D01*
X0237776Y0143351D01*
X0237739Y0143271D01*
X0237699Y0143192D01*
X0237655Y0143115D01*
X0237608Y0143040D01*
X0237558Y0142968D01*
X0237504Y0142897D01*
X0237448Y0142830D01*
X0237388Y0142764D01*
X0237326Y0142702D01*
X0237260Y0142642D01*
X0237193Y0142586D01*
X0237122Y0142532D01*
X0237050Y0142482D01*
X0236975Y0142435D01*
X0236898Y0142391D01*
X0236819Y0142351D01*
X0236739Y0142314D01*
X0236657Y0142282D01*
X0236573Y0142252D01*
X0236489Y0142227D01*
X0236403Y0142205D01*
X0236317Y0142188D01*
X0236229Y0142174D01*
X0236141Y0142164D01*
X0236053Y0142158D01*
X0235965Y0142156D01*
X0235877Y0142158D01*
X0235789Y0142164D01*
X0235701Y0142174D01*
X0235613Y0142188D01*
X0235527Y0142205D01*
X0235441Y0142227D01*
X0235357Y0142252D01*
X0235273Y0142282D01*
X0235191Y0142314D01*
X0235111Y0142351D01*
X0235032Y0142391D01*
X0234955Y0142435D01*
X0234880Y0142482D01*
X0234808Y0142532D01*
X0234737Y0142586D01*
X0234670Y0142642D01*
X0234604Y0142702D01*
X0234542Y0142764D01*
X0234482Y0142830D01*
X0234426Y0142897D01*
X0234372Y0142968D01*
X0234322Y0143040D01*
X0234275Y0143115D01*
X0234231Y0143192D01*
X0234191Y0143271D01*
X0234154Y0143351D01*
X0234122Y0143433D01*
X0234092Y0143517D01*
X0234067Y0143601D01*
X0234045Y0143687D01*
X0234028Y0143773D01*
X0234014Y0143861D01*
X0234004Y0143949D01*
X0233998Y0144037D01*
X0233996Y0144125D01*
X0247242Y0135997D02*
X0247242Y0132995D01*
X0247242Y0134496D02*
X0251746Y0134496D01*
X0250245Y0135997D01*
X0249494Y0131393D02*
X0249494Y0129141D01*
X0248744Y0128391D01*
X0247993Y0128391D01*
X0247242Y0129141D01*
X0247242Y0130643D01*
X0247993Y0131393D01*
X0249494Y0131393D01*
X0250995Y0129892D01*
X0251746Y0128391D01*
X0251699Y0100852D02*
X0250198Y0100101D01*
X0248697Y0098600D01*
X0250949Y0098600D01*
X0251699Y0097849D01*
X0251699Y0097098D01*
X0250949Y0096348D01*
X0249447Y0096348D01*
X0248697Y0097098D01*
X0248697Y0098600D01*
X0247095Y0096348D02*
X0244093Y0096348D01*
X0245594Y0096348D02*
X0245594Y0100852D01*
X0244093Y0099350D01*
X0304055Y0047465D02*
X0304055Y0025811D01*
X0176692Y0174185D02*
X0177443Y0174936D01*
X0177443Y0176437D01*
X0176692Y0177188D01*
X0175942Y0177188D01*
X0175191Y0176437D01*
X0175191Y0174936D01*
X0174441Y0174185D01*
X0173690Y0174185D01*
X0172939Y0174936D01*
X0172939Y0176437D01*
X0173690Y0177188D01*
X0172939Y0178789D02*
X0175942Y0178789D01*
X0177443Y0180291D01*
X0175942Y0181792D01*
X0172939Y0181792D01*
X0173690Y0183393D02*
X0172939Y0184144D01*
X0172939Y0185645D01*
X0173690Y0186396D01*
X0174441Y0186396D01*
X0177443Y0183393D01*
X0177443Y0186396D01*
X0177443Y0199893D02*
X0177443Y0202896D01*
X0177443Y0201395D02*
X0172939Y0201395D01*
X0174441Y0199893D01*
X0166518Y0232929D02*
X0163516Y0232929D01*
X0165017Y0232929D02*
X0165017Y0237433D01*
X0163516Y0235932D01*
X0161914Y0237433D02*
X0161914Y0232929D01*
X0158912Y0237433D01*
X0158912Y0232929D01*
X0157310Y0232929D02*
X0155809Y0234430D01*
X0156560Y0234430D02*
X0154308Y0234430D01*
X0154308Y0232929D02*
X0154308Y0237433D01*
X0156560Y0237433D01*
X0157310Y0236682D01*
X0157310Y0235181D01*
X0156560Y0234430D01*
X0177344Y0239067D02*
X0180347Y0239067D01*
X0178846Y0239067D02*
X0178846Y0243571D01*
X0177344Y0242070D01*
X0181948Y0241319D02*
X0184951Y0241319D01*
X0184200Y0239067D02*
X0184200Y0243571D01*
X0181948Y0241319D01*
X0183291Y0263447D02*
X0181790Y0264948D01*
X0182540Y0264948D02*
X0180288Y0264948D01*
X0180288Y0263447D02*
X0180288Y0267951D01*
X0182540Y0267951D01*
X0183291Y0267200D01*
X0183291Y0265699D01*
X0182540Y0264948D01*
X0184892Y0263447D02*
X0184892Y0267951D01*
X0187895Y0263447D01*
X0187895Y0267951D01*
X0189496Y0267200D02*
X0190247Y0267951D01*
X0191748Y0267951D01*
X0192499Y0267200D01*
X0192499Y0266450D01*
X0191748Y0265699D01*
X0192499Y0264948D01*
X0192499Y0264198D01*
X0191748Y0263447D01*
X0190247Y0263447D01*
X0189496Y0264198D01*
X0190998Y0265699D02*
X0191748Y0265699D01*
X0210007Y0257764D02*
X0212259Y0255512D01*
X0212259Y0258514D01*
X0214511Y0257764D02*
X0210007Y0257764D01*
X0210007Y0253910D02*
X0214511Y0253910D01*
X0210007Y0250908D01*
X0214511Y0250908D01*
X0214511Y0249306D02*
X0213009Y0247805D01*
X0213009Y0248556D02*
X0213009Y0246304D01*
X0214511Y0246304D02*
X0210007Y0246304D01*
X0210007Y0248556D01*
X0210757Y0249306D01*
X0212259Y0249306D01*
X0213009Y0248556D01*
X0219991Y0211571D02*
X0219241Y0210820D01*
X0219241Y0210070D01*
X0219991Y0209319D01*
X0221492Y0209319D01*
X0222243Y0208569D01*
X0222243Y0207818D01*
X0221492Y0207067D01*
X0219991Y0207067D01*
X0219241Y0207818D01*
X0219991Y0211571D02*
X0221492Y0211571D01*
X0222243Y0210820D01*
X0223844Y0211571D02*
X0223844Y0208569D01*
X0225346Y0207067D01*
X0226847Y0208569D01*
X0226847Y0211571D01*
X0228448Y0211571D02*
X0228448Y0209319D01*
X0229950Y0210070D01*
X0230700Y0210070D01*
X0231451Y0209319D01*
X0231451Y0207818D01*
X0230700Y0207067D01*
X0229199Y0207067D01*
X0228448Y0207818D01*
X0228448Y0211571D02*
X0231451Y0211571D01*
X0239948Y0210070D02*
X0241450Y0211571D01*
X0241450Y0207067D01*
X0242951Y0207067D02*
X0239948Y0207067D01*
X0279242Y0203997D02*
X0279242Y0200995D01*
X0279242Y0202496D02*
X0283746Y0202496D01*
X0282245Y0203997D01*
X0282245Y0187497D02*
X0281494Y0186747D01*
X0281494Y0185245D01*
X0280744Y0184495D01*
X0279993Y0184495D01*
X0279242Y0185245D01*
X0279242Y0186747D01*
X0279993Y0187497D01*
X0282245Y0187497D02*
X0282995Y0187497D01*
X0283746Y0186747D01*
X0283746Y0185245D01*
X0282995Y0184495D01*
X0283746Y0182893D02*
X0280744Y0182893D01*
X0279242Y0181392D01*
X0280744Y0179891D01*
X0283746Y0179891D01*
X0282995Y0178289D02*
X0283746Y0177539D01*
X0283746Y0176037D01*
X0282995Y0175287D01*
X0282245Y0175287D01*
X0281494Y0176037D01*
X0280744Y0175287D01*
X0279993Y0175287D01*
X0279242Y0176037D01*
X0279242Y0177539D01*
X0279993Y0178289D01*
X0281494Y0176788D02*
X0281494Y0176037D01*
X0151322Y0272478D02*
X0151324Y0272526D01*
X0151330Y0272574D01*
X0151340Y0272621D01*
X0151354Y0272667D01*
X0151371Y0272712D01*
X0151392Y0272755D01*
X0151417Y0272797D01*
X0151445Y0272836D01*
X0151476Y0272873D01*
X0151510Y0272907D01*
X0151547Y0272938D01*
X0151586Y0272966D01*
X0151628Y0272991D01*
X0151671Y0273012D01*
X0151716Y0273029D01*
X0151762Y0273043D01*
X0151809Y0273053D01*
X0151857Y0273059D01*
X0151905Y0273061D01*
X0151953Y0273059D01*
X0152001Y0273053D01*
X0152048Y0273043D01*
X0152094Y0273029D01*
X0152139Y0273012D01*
X0152182Y0272991D01*
X0152224Y0272966D01*
X0152263Y0272938D01*
X0152300Y0272907D01*
X0152334Y0272873D01*
X0152365Y0272836D01*
X0152393Y0272797D01*
X0152418Y0272755D01*
X0152439Y0272712D01*
X0152456Y0272667D01*
X0152470Y0272621D01*
X0152480Y0272574D01*
X0152486Y0272526D01*
X0152488Y0272478D01*
X0152486Y0272430D01*
X0152480Y0272382D01*
X0152470Y0272335D01*
X0152456Y0272289D01*
X0152439Y0272244D01*
X0152418Y0272201D01*
X0152393Y0272159D01*
X0152365Y0272120D01*
X0152334Y0272083D01*
X0152300Y0272049D01*
X0152263Y0272018D01*
X0152224Y0271990D01*
X0152182Y0271965D01*
X0152139Y0271944D01*
X0152094Y0271927D01*
X0152048Y0271913D01*
X0152001Y0271903D01*
X0151953Y0271897D01*
X0151905Y0271895D01*
X0151857Y0271897D01*
X0151809Y0271903D01*
X0151762Y0271913D01*
X0151716Y0271927D01*
X0151671Y0271944D01*
X0151628Y0271965D01*
X0151586Y0271990D01*
X0151547Y0272018D01*
X0151510Y0272049D01*
X0151476Y0272083D01*
X0151445Y0272120D01*
X0151417Y0272159D01*
X0151392Y0272201D01*
X0151371Y0272244D01*
X0151354Y0272289D01*
X0151340Y0272335D01*
X0151330Y0272382D01*
X0151324Y0272430D01*
X0151322Y0272478D01*
X0121812Y0309716D02*
X0121812Y0383216D01*
X0196812Y0383216D01*
X0196812Y0309716D01*
X0121812Y0309716D01*
X0099710Y0344201D02*
X0080025Y0344201D01*
X0099710Y0344201D02*
X0099710Y0367823D01*
X0080025Y0367823D01*
D184*
X0238332Y0091323D03*
D185*
X0118048Y0110218D03*
M02*
