G75*
%MOIN*%
%OFA0B0*%
%FSLAX25Y25*%
%IPPOS*%
%LPD*%
%AMOC8*
5,1,8,0,0,1.08239X$1,22.5*
%
%ADD10R,0.04331X0.03937*%
%ADD11C,0.01181*%
%ADD12R,0.05906X0.06299*%
%ADD13R,0.03937X0.04331*%
%ADD14R,0.04724X0.01181*%
%ADD15R,0.01181X0.04724*%
%ADD16R,0.12598X0.07087*%
%ADD17R,0.01772X0.03937*%
%ADD18R,0.06102X0.05906*%
%ADD19R,0.05315X0.01575*%
%ADD20C,0.05150*%
%ADD21C,0.06791*%
%ADD22R,0.02756X0.01772*%
%ADD23R,0.03100X0.03500*%
%ADD24R,0.07087X0.09449*%
%ADD25R,0.06299X0.04724*%
%ADD26R,0.06299X0.12992*%
%ADD27OC8,0.05600*%
%ADD28R,0.02717X0.01102*%
%ADD29R,0.09843X0.09843*%
%ADD30R,0.01102X0.02717*%
%ADD31C,0.05500*%
%ADD32C,0.09450*%
%ADD33C,0.06000*%
%ADD34R,0.01969X0.02559*%
%ADD35R,0.02559X0.01969*%
%ADD36C,0.05600*%
%ADD37R,0.02362X0.17717*%
%ADD38R,0.06299X0.05906*%
%ADD39C,0.04000*%
%ADD40C,0.00800*%
%ADD41C,0.01000*%
%ADD42C,0.01200*%
%ADD43C,0.01600*%
%ADD44C,0.04362*%
%ADD45C,0.02400*%
%ADD46C,0.03000*%
%ADD47C,0.03200*%
D10*
X0116972Y0098451D03*
X0123665Y0098451D03*
X0157846Y0095027D03*
X0164539Y0095027D03*
X0228865Y0064232D03*
X0235558Y0064232D03*
X0288416Y0173353D03*
X0295109Y0173353D03*
X0153285Y0278652D03*
X0153285Y0285345D03*
X0126019Y0273806D03*
X0119326Y0273806D03*
X0119357Y0265714D03*
X0126050Y0265714D03*
X0126057Y0257677D03*
X0119364Y0257677D03*
X0119280Y0249623D03*
X0125973Y0249623D03*
D11*
X0113312Y0249065D02*
X0113312Y0251821D01*
X0113312Y0249065D02*
X0110556Y0249065D01*
X0110556Y0251821D01*
X0113312Y0251821D01*
X0113312Y0250245D02*
X0110556Y0250245D01*
X0110556Y0251425D02*
X0113312Y0251425D01*
X0113485Y0256713D02*
X0113485Y0259469D01*
X0113485Y0256713D02*
X0110729Y0256713D01*
X0110729Y0259469D01*
X0113485Y0259469D01*
X0113485Y0257893D02*
X0110729Y0257893D01*
X0110729Y0259073D02*
X0113485Y0259073D01*
X0113412Y0264417D02*
X0113412Y0267173D01*
X0113412Y0264417D02*
X0110656Y0264417D01*
X0110656Y0267173D01*
X0113412Y0267173D01*
X0113412Y0265597D02*
X0110656Y0265597D01*
X0110656Y0266777D02*
X0113412Y0266777D01*
X0113482Y0272285D02*
X0113482Y0275041D01*
X0113482Y0272285D02*
X0110726Y0272285D01*
X0110726Y0275041D01*
X0113482Y0275041D01*
X0113482Y0273465D02*
X0110726Y0273465D01*
X0110726Y0274645D02*
X0113482Y0274645D01*
X0106577Y0275041D02*
X0106577Y0272285D01*
X0103821Y0272285D01*
X0103821Y0275041D01*
X0106577Y0275041D01*
X0106577Y0273465D02*
X0103821Y0273465D01*
X0103821Y0274645D02*
X0106577Y0274645D01*
X0106506Y0267173D02*
X0106506Y0264417D01*
X0103750Y0264417D01*
X0103750Y0267173D01*
X0106506Y0267173D01*
X0106506Y0265597D02*
X0103750Y0265597D01*
X0103750Y0266777D02*
X0106506Y0266777D01*
X0106579Y0259469D02*
X0106579Y0256713D01*
X0103823Y0256713D01*
X0103823Y0259469D01*
X0106579Y0259469D01*
X0106579Y0257893D02*
X0103823Y0257893D01*
X0103823Y0259073D02*
X0106579Y0259073D01*
X0106406Y0251821D02*
X0106406Y0249065D01*
X0103650Y0249065D01*
X0103650Y0251821D01*
X0106406Y0251821D01*
X0106406Y0250245D02*
X0103650Y0250245D01*
X0103650Y0251425D02*
X0106406Y0251425D01*
D12*
X0145908Y0223879D03*
X0145908Y0214036D03*
X0154963Y0214036D03*
X0154963Y0223879D03*
X0287676Y0192544D03*
X0287676Y0182702D03*
X0296731Y0182702D03*
X0296731Y0192544D03*
D13*
X0242929Y0091333D03*
X0242929Y0084640D03*
X0129362Y0176038D03*
X0129362Y0182731D03*
X0129047Y0213347D03*
X0129047Y0220040D03*
X0163654Y0219778D03*
X0163654Y0213085D03*
X0144995Y0270650D03*
X0144995Y0277343D03*
D14*
X0181831Y0191369D03*
X0181831Y0189401D03*
X0181831Y0187432D03*
X0181831Y0185464D03*
X0181831Y0183495D03*
X0181831Y0181527D03*
X0181831Y0179558D03*
X0181831Y0177590D03*
X0181831Y0175621D03*
X0181831Y0173653D03*
X0181831Y0171684D03*
X0181831Y0169716D03*
X0181831Y0167747D03*
X0181831Y0165779D03*
X0181831Y0163810D03*
X0181831Y0161842D03*
X0181831Y0159873D03*
X0181831Y0157905D03*
X0181831Y0155936D03*
X0181831Y0153968D03*
X0181831Y0151999D03*
X0181831Y0150031D03*
X0181831Y0148062D03*
X0181831Y0146094D03*
X0181831Y0144125D03*
X0242855Y0144125D03*
X0242855Y0146094D03*
X0242855Y0148062D03*
X0242855Y0150031D03*
X0242855Y0151999D03*
X0242855Y0153968D03*
X0242855Y0155936D03*
X0242855Y0157905D03*
X0242855Y0159873D03*
X0242855Y0161842D03*
X0242855Y0163810D03*
X0242855Y0165779D03*
X0242855Y0167747D03*
X0242855Y0169716D03*
X0242855Y0171684D03*
X0242855Y0173653D03*
X0242855Y0175621D03*
X0242855Y0177590D03*
X0242855Y0179558D03*
X0242855Y0181527D03*
X0242855Y0183495D03*
X0242855Y0185464D03*
X0242855Y0187432D03*
X0242855Y0189401D03*
X0242855Y0191369D03*
D15*
X0235965Y0198259D03*
X0233996Y0198259D03*
X0232028Y0198259D03*
X0230059Y0198259D03*
X0228091Y0198259D03*
X0226122Y0198259D03*
X0224154Y0198259D03*
X0222185Y0198259D03*
X0220217Y0198259D03*
X0218248Y0198259D03*
X0216280Y0198259D03*
X0214311Y0198259D03*
X0212343Y0198259D03*
X0210374Y0198259D03*
X0208406Y0198259D03*
X0206437Y0198259D03*
X0204469Y0198259D03*
X0202500Y0198259D03*
X0200532Y0198259D03*
X0198563Y0198259D03*
X0196595Y0198259D03*
X0194626Y0198259D03*
X0192658Y0198259D03*
X0190689Y0198259D03*
X0188721Y0198259D03*
X0188721Y0137235D03*
X0190689Y0137235D03*
X0192658Y0137235D03*
X0194626Y0137235D03*
X0196595Y0137235D03*
X0198563Y0137235D03*
X0200532Y0137235D03*
X0202500Y0137235D03*
X0204469Y0137235D03*
X0206437Y0137235D03*
X0208406Y0137235D03*
X0210374Y0137235D03*
X0212343Y0137235D03*
X0214311Y0137235D03*
X0216280Y0137235D03*
X0218248Y0137235D03*
X0220217Y0137235D03*
X0222185Y0137235D03*
X0224154Y0137235D03*
X0226122Y0137235D03*
X0228091Y0137235D03*
X0230059Y0137235D03*
X0232028Y0137235D03*
X0233996Y0137235D03*
X0235965Y0137235D03*
D16*
X0114087Y0176910D03*
X0114087Y0198957D03*
X0114087Y0213851D03*
X0114087Y0235898D03*
D17*
X0229966Y0094079D03*
X0232525Y0094079D03*
X0235084Y0094079D03*
X0237643Y0094079D03*
X0237643Y0084434D03*
X0235084Y0084434D03*
X0232525Y0084434D03*
X0229966Y0084434D03*
D18*
X0085734Y0352075D03*
X0085734Y0359949D03*
D19*
X0096364Y0361130D03*
X0096364Y0358571D03*
X0096364Y0356012D03*
X0096364Y0353453D03*
X0096364Y0350894D03*
D20*
X0096364Y0346169D03*
X0096364Y0365854D03*
D21*
X0085734Y0370175D03*
X0085734Y0341848D03*
D22*
X0103058Y0153155D03*
X0103058Y0150006D03*
X0109160Y0150006D03*
X0109160Y0153155D03*
D23*
X0115683Y0130055D03*
X0119483Y0122055D03*
X0111883Y0122055D03*
D24*
X0107211Y0110218D03*
X0123156Y0110218D03*
D25*
X0132629Y0107965D03*
X0132629Y0117020D03*
X0132629Y0098909D03*
D26*
X0157826Y0107965D03*
D27*
X0177343Y0109598D03*
X0177343Y0119598D03*
X0187343Y0119598D03*
X0197343Y0119598D03*
X0207343Y0119598D03*
X0217343Y0119598D03*
X0227343Y0119598D03*
X0237343Y0119598D03*
X0247343Y0119598D03*
X0247343Y0109598D03*
X0237343Y0109598D03*
X0227343Y0109598D03*
X0217343Y0109598D03*
X0207343Y0109598D03*
X0197343Y0109598D03*
X0187343Y0109598D03*
X0164193Y0132747D03*
X0154193Y0132747D03*
X0154193Y0142747D03*
X0154193Y0152747D03*
X0164193Y0152747D03*
X0164193Y0142747D03*
X0164193Y0162747D03*
X0164193Y0172747D03*
X0154193Y0172747D03*
X0154193Y0162747D03*
X0154193Y0182747D03*
X0154193Y0192747D03*
X0164193Y0192747D03*
X0164193Y0182747D03*
X0164193Y0202747D03*
X0154193Y0202747D03*
X0182802Y0220317D03*
X0192802Y0220317D03*
X0202802Y0220317D03*
X0202802Y0230317D03*
X0192802Y0230317D03*
X0182802Y0230317D03*
X0212802Y0230317D03*
X0222802Y0230317D03*
X0222802Y0220317D03*
X0212802Y0220317D03*
X0232802Y0220317D03*
X0232802Y0230317D03*
X0242802Y0230317D03*
X0260492Y0202747D03*
X0270492Y0202747D03*
X0270492Y0192747D03*
X0260492Y0192747D03*
X0260492Y0182747D03*
X0270492Y0182747D03*
X0270492Y0172747D03*
X0260492Y0172747D03*
X0260492Y0162747D03*
X0270492Y0162747D03*
X0270492Y0152747D03*
X0260492Y0152747D03*
X0260492Y0142747D03*
X0270492Y0142747D03*
X0270492Y0132747D03*
X0260492Y0132747D03*
D28*
X0169046Y0258957D03*
X0169046Y0260925D03*
X0169046Y0262894D03*
X0169046Y0264862D03*
X0169046Y0266831D03*
X0169046Y0268799D03*
X0151763Y0268799D03*
X0151763Y0266831D03*
X0151763Y0264862D03*
X0151763Y0262894D03*
X0151763Y0260925D03*
X0151763Y0258957D03*
D29*
X0160405Y0263878D03*
D30*
X0161389Y0255236D03*
X0163357Y0255236D03*
X0165326Y0255236D03*
X0159420Y0255236D03*
X0157452Y0255236D03*
X0155483Y0255236D03*
X0155483Y0272520D03*
X0157452Y0272520D03*
X0159420Y0272520D03*
X0161389Y0272520D03*
X0163357Y0272520D03*
X0165326Y0272520D03*
D31*
X0161812Y0317216D03*
X0151812Y0317216D03*
X0156812Y0327216D03*
X0146812Y0327216D03*
X0141812Y0317216D03*
X0166812Y0327216D03*
X0176812Y0327216D03*
X0171812Y0317216D03*
D32*
X0190312Y0340216D03*
X0128312Y0340216D03*
D33*
X0134412Y0365516D03*
X0144412Y0371516D03*
X0174212Y0365516D03*
X0184212Y0371516D03*
D34*
X0184775Y0260854D03*
X0181626Y0260854D03*
X0181626Y0255540D03*
X0184775Y0255540D03*
X0187925Y0255540D03*
X0191075Y0255540D03*
X0191075Y0260854D03*
X0187925Y0260854D03*
X0166282Y0245337D03*
X0163133Y0245337D03*
X0159983Y0245337D03*
X0156833Y0245337D03*
X0156833Y0240022D03*
X0159983Y0240022D03*
X0163133Y0240022D03*
X0166282Y0240022D03*
D35*
X0217103Y0247641D03*
X0217103Y0250791D03*
X0217103Y0253940D03*
X0217103Y0257090D03*
X0222418Y0257090D03*
X0222418Y0253940D03*
X0222418Y0250791D03*
X0222418Y0247641D03*
D36*
X0242802Y0220317D03*
D37*
X0242440Y0035260D03*
X0239291Y0035260D03*
X0236141Y0035260D03*
X0232992Y0035260D03*
X0229842Y0035260D03*
X0226692Y0035260D03*
X0223543Y0035260D03*
X0220393Y0035260D03*
X0217244Y0035260D03*
X0214094Y0035260D03*
X0198346Y0035260D03*
X0195196Y0035260D03*
X0192047Y0035260D03*
X0188897Y0035260D03*
X0185747Y0035260D03*
X0182598Y0035260D03*
X0179448Y0035260D03*
X0176299Y0035260D03*
X0173149Y0035260D03*
X0169999Y0035260D03*
X0166850Y0035260D03*
X0163700Y0035260D03*
X0160551Y0035260D03*
X0157401Y0035260D03*
X0154251Y0035260D03*
X0151102Y0035260D03*
X0147952Y0035260D03*
X0144803Y0035260D03*
X0141653Y0035260D03*
X0138503Y0035260D03*
X0135354Y0035260D03*
X0132204Y0035260D03*
X0129055Y0035260D03*
X0125905Y0035260D03*
X0122755Y0035260D03*
X0119606Y0035260D03*
X0116456Y0035260D03*
X0113307Y0035260D03*
X0110157Y0035260D03*
X0107007Y0035260D03*
X0103858Y0035260D03*
X0100708Y0035260D03*
X0245590Y0035260D03*
X0248740Y0035260D03*
X0251889Y0035260D03*
X0255039Y0035260D03*
X0258188Y0035260D03*
X0261338Y0035260D03*
X0264488Y0035260D03*
X0267637Y0035260D03*
X0270787Y0035260D03*
X0273936Y0035260D03*
X0277086Y0035260D03*
X0280236Y0035260D03*
X0283385Y0035260D03*
X0286535Y0035260D03*
X0289684Y0035260D03*
X0292834Y0035260D03*
X0295984Y0035260D03*
X0299133Y0035260D03*
D38*
X0298179Y0364501D03*
X0298179Y0373557D03*
X0308021Y0373557D03*
X0308021Y0364501D03*
D39*
X0184531Y0245762D03*
X0191700Y0239306D03*
X0174889Y0251296D03*
X0175771Y0256078D03*
X0173824Y0262698D03*
X0160553Y0250692D03*
X0151476Y0249483D03*
X0151941Y0255309D03*
X0150751Y0272231D03*
X0167982Y0277369D03*
X0162249Y0299937D03*
X0171049Y0234914D03*
X0162724Y0233155D03*
X0181515Y0206044D03*
X0192554Y0191767D03*
X0187695Y0179357D03*
X0211975Y0176121D03*
X0231485Y0178500D03*
X0236452Y0182326D03*
X0236480Y0187031D03*
X0231816Y0192289D03*
X0233982Y0209251D03*
X0228635Y0209356D03*
X0246343Y0206154D03*
X0236779Y0174510D03*
X0237157Y0169702D03*
X0236541Y0163820D03*
X0234072Y0144586D03*
X0245011Y0137476D03*
X0230870Y0103223D03*
X0234630Y0099889D03*
X0249926Y0089938D03*
X0208485Y0143885D03*
X0187588Y0143144D03*
X0187776Y0147852D03*
X0148032Y0137655D03*
X0143979Y0143929D03*
X0137268Y0130625D03*
X0156291Y0088673D03*
X0188638Y0092374D03*
X0138837Y0175696D03*
D40*
X0154193Y0172747D02*
X0159193Y0167747D01*
X0181831Y0167747D01*
X0181831Y0165779D02*
X0167225Y0165779D01*
X0164193Y0162747D01*
X0166709Y0157909D02*
X0169713Y0160913D01*
X0169713Y0162102D01*
X0171421Y0163810D01*
X0181831Y0163810D01*
X0181831Y0161842D02*
X0173288Y0161842D01*
X0164193Y0152747D01*
X0162205Y0147763D02*
X0159527Y0149893D01*
X0155881Y0152819D01*
X0154193Y0152747D01*
X0162075Y0157909D02*
X0157319Y0162665D01*
X0154276Y0162665D01*
X0154193Y0162747D01*
X0162075Y0157909D02*
X0166709Y0157909D01*
X0169402Y0155090D02*
X0169402Y0150771D01*
X0169339Y0150708D01*
X0169280Y0150708D01*
X0166335Y0147763D01*
X0162205Y0147763D01*
X0164193Y0142747D02*
X0171047Y0149602D01*
X0171047Y0154389D01*
X0174563Y0157905D01*
X0181831Y0157905D01*
X0181831Y0159873D02*
X0174185Y0159873D01*
X0169402Y0155090D01*
X0173029Y0153712D02*
X0173029Y0148621D01*
X0169536Y0145676D01*
X0169536Y0141031D01*
X0166355Y0137850D01*
X0159091Y0137850D01*
X0154193Y0142747D01*
X0173029Y0153712D02*
X0175254Y0155936D01*
X0181831Y0155936D01*
X0181831Y0153968D02*
X0178538Y0153968D01*
X0175728Y0152516D01*
X0178235Y0151516D02*
X0178880Y0151999D01*
X0181831Y0151999D01*
X0178235Y0151516D02*
X0178235Y0149015D01*
X0175997Y0146858D01*
X0178829Y0145893D02*
X0175399Y0142463D01*
X0175399Y0139519D01*
X0178829Y0145893D02*
X0181630Y0145893D01*
X0181831Y0146094D01*
X0180543Y0133609D02*
X0177288Y0130354D01*
X0177288Y0119653D01*
X0177343Y0119598D01*
X0182236Y0114491D02*
X0177343Y0109598D01*
X0176299Y0108554D01*
X0176299Y0035260D01*
X0232525Y0094079D02*
X0232595Y0094149D01*
X0232595Y0096631D01*
X0230855Y0098371D01*
X0230870Y0103223D01*
X0232473Y0107664D02*
X0237864Y0102273D01*
X0237864Y0094300D01*
X0237643Y0094079D01*
X0235084Y0094079D02*
X0234630Y0094534D01*
X0234630Y0099889D01*
X0232473Y0107664D02*
X0232473Y0111854D01*
X0232158Y0114413D02*
X0227343Y0109598D01*
X0232158Y0114413D02*
X0232158Y0122295D01*
X0229634Y0124818D01*
X0225201Y0124818D01*
X0218248Y0131771D01*
X0218248Y0137235D01*
X0220217Y0137235D02*
X0220217Y0131976D01*
X0225855Y0126338D01*
X0230603Y0126338D01*
X0237343Y0119598D01*
X0238980Y0124424D02*
X0235187Y0124424D01*
X0231711Y0127933D01*
X0226594Y0127933D01*
X0222185Y0132310D01*
X0222185Y0137235D01*
X0226122Y0137235D02*
X0226224Y0137133D01*
X0226224Y0130804D01*
X0227433Y0129595D01*
X0232188Y0129595D01*
X0235744Y0126039D01*
X0240902Y0126039D01*
X0247343Y0119598D01*
X0242197Y0121208D02*
X0242197Y0114452D01*
X0237343Y0109598D01*
X0242197Y0121208D02*
X0238980Y0124424D01*
X0235965Y0137235D02*
X0235965Y0142670D01*
X0234072Y0144563D01*
X0234072Y0144586D01*
X0232729Y0145928D01*
X0232706Y0145928D01*
X0232706Y0150602D01*
X0231908Y0151400D01*
X0233337Y0151271D02*
X0197525Y0151271D01*
X0197525Y0150473D02*
X0233356Y0150473D01*
X0233375Y0149674D02*
X0197525Y0149674D01*
X0197620Y0149301D02*
X0197525Y0149253D01*
X0197525Y0152815D01*
X0228967Y0152815D01*
X0228739Y0159641D01*
X0228910Y0159413D01*
X0228834Y0165221D01*
X0233005Y0165069D01*
X0233384Y0149301D01*
X0197620Y0149301D01*
X0197525Y0152070D02*
X0233317Y0152070D01*
X0233298Y0152868D02*
X0228965Y0152868D01*
X0228939Y0153667D02*
X0233279Y0153667D01*
X0233260Y0154466D02*
X0228912Y0154466D01*
X0228885Y0155264D02*
X0233241Y0155264D01*
X0233221Y0156063D02*
X0228859Y0156063D01*
X0228832Y0156861D02*
X0233202Y0156861D01*
X0233183Y0157660D02*
X0228805Y0157660D01*
X0228779Y0158458D02*
X0233164Y0158458D01*
X0233144Y0159257D02*
X0228752Y0159257D01*
X0228902Y0160055D02*
X0233125Y0160055D01*
X0233106Y0160854D02*
X0228891Y0160854D01*
X0228881Y0161652D02*
X0233087Y0161652D01*
X0233068Y0162451D02*
X0228871Y0162451D01*
X0228860Y0163249D02*
X0233048Y0163249D01*
X0233029Y0164048D02*
X0228850Y0164048D01*
X0228839Y0164846D02*
X0233010Y0164846D01*
X0232172Y0163840D02*
X0236522Y0163840D01*
X0236541Y0163820D01*
X0242806Y0163820D01*
X0242825Y0163840D01*
X0242855Y0163810D01*
X0242855Y0165779D02*
X0246441Y0165779D01*
X0249917Y0169254D01*
X0249917Y0193850D01*
X0253920Y0197854D01*
X0265386Y0197854D01*
X0270492Y0192747D01*
X0265372Y0187867D02*
X0258224Y0187867D01*
X0253284Y0182928D01*
X0253284Y0161107D01*
X0250110Y0157905D01*
X0242855Y0157905D01*
X0242855Y0159873D02*
X0248772Y0159873D01*
X0251645Y0162746D01*
X0251645Y0188872D01*
X0255520Y0192747D01*
X0260492Y0192747D01*
X0265372Y0187867D02*
X0270492Y0182747D01*
X0260492Y0182747D02*
X0255833Y0178319D01*
X0255602Y0160449D01*
X0251221Y0156068D01*
X0242855Y0155936D01*
X0242855Y0151999D02*
X0251327Y0151999D01*
X0259337Y0151994D01*
X0260406Y0152834D01*
X0260492Y0152747D01*
X0256406Y0150031D02*
X0258421Y0148015D01*
X0265225Y0148015D01*
X0270492Y0142747D01*
X0268811Y0137708D02*
X0270614Y0135905D01*
X0270614Y0132869D01*
X0270492Y0132747D01*
X0268811Y0137708D02*
X0258803Y0137708D01*
X0255374Y0141137D01*
X0255374Y0144023D01*
X0253303Y0146094D01*
X0242855Y0146094D01*
X0242855Y0148062D02*
X0255177Y0148062D01*
X0260492Y0142747D01*
X0256406Y0150031D02*
X0242855Y0150031D01*
X0242855Y0144125D02*
X0252925Y0144125D01*
X0253662Y0143389D01*
X0253662Y0140684D01*
X0258441Y0135905D01*
X0258441Y0134798D01*
X0260492Y0132747D01*
X0246044Y0167758D02*
X0242865Y0167758D01*
X0242855Y0167747D01*
X0246044Y0167758D02*
X0248266Y0169980D01*
X0248266Y0196939D01*
X0254075Y0202747D01*
X0260492Y0202747D01*
X0260240Y0202999D01*
X0260378Y0202861D02*
X0260492Y0202747D01*
X0246343Y0206154D02*
X0246343Y0173815D01*
X0242855Y0179558D02*
X0240324Y0179565D01*
X0237063Y0176304D01*
X0236910Y0175344D01*
X0236779Y0174510D01*
X0237389Y0178786D02*
X0231742Y0178758D01*
X0231485Y0178500D01*
X0237389Y0178786D02*
X0240158Y0181554D01*
X0242855Y0181527D01*
X0242855Y0189401D02*
X0239518Y0189401D01*
X0237792Y0191127D01*
X0237792Y0213113D01*
X0236559Y0214346D01*
X0222580Y0214346D01*
X0217739Y0219188D01*
X0217739Y0225666D01*
X0213088Y0230317D01*
X0217697Y0228917D02*
X0222708Y0223906D01*
X0222708Y0220411D01*
X0227899Y0217551D02*
X0227899Y0224234D01*
X0222802Y0229330D01*
X0217697Y0228917D02*
X0217697Y0232153D01*
X0217697Y0240887D01*
X0219794Y0242983D01*
X0219794Y0254915D01*
X0219800Y0254922D01*
X0219800Y0256351D01*
X0220540Y0257090D01*
X0191290Y0266008D02*
X0187092Y0270206D01*
X0170749Y0270206D01*
X0169343Y0268799D01*
X0169046Y0268799D01*
X0169046Y0266831D02*
X0170711Y0266831D01*
X0171975Y0268071D01*
X0184909Y0268060D01*
X0188267Y0263822D01*
X0183766Y0264862D02*
X0182707Y0266160D01*
X0172572Y0266205D01*
X0170668Y0264768D01*
X0169140Y0264768D01*
X0169046Y0264862D01*
X0169046Y0260925D02*
X0170462Y0260925D01*
X0170899Y0260957D01*
X0172532Y0259324D01*
X0180057Y0259286D01*
X0181626Y0260854D01*
X0180563Y0259792D01*
X0174667Y0251519D02*
X0174889Y0251296D01*
X0174667Y0251519D02*
X0169043Y0251519D01*
X0164669Y0251348D02*
X0164669Y0248391D01*
X0163133Y0246854D01*
X0163133Y0245337D01*
X0163357Y0245561D01*
X0159983Y0245337D02*
X0159983Y0246374D01*
X0157452Y0248906D01*
X0157452Y0255236D01*
X0155483Y0255236D02*
X0155402Y0255155D01*
X0155402Y0248097D01*
X0156833Y0246666D01*
X0156833Y0245337D01*
X0159497Y0245822D02*
X0159983Y0245337D01*
X0156833Y0240022D02*
X0156833Y0233970D01*
X0157092Y0233711D01*
X0164669Y0251348D02*
X0164516Y0251501D01*
X0164516Y0251539D01*
X0163429Y0252627D01*
X0163429Y0255165D01*
X0163357Y0255236D01*
X0164193Y0202747D02*
X0164197Y0202743D01*
X0176288Y0202743D01*
X0178040Y0200991D01*
X0178040Y0184271D01*
X0178815Y0183495D01*
X0181831Y0183495D01*
X0181831Y0181527D02*
X0178469Y0181527D01*
X0176438Y0183420D01*
X0176438Y0196192D01*
X0175410Y0197358D01*
X0162705Y0197358D01*
X0157256Y0202806D01*
X0154252Y0202806D01*
X0154193Y0202747D01*
X0154193Y0192747D02*
X0155847Y0191094D01*
X0158823Y0191094D01*
X0162390Y0187527D01*
X0172158Y0187527D01*
X0173130Y0186555D01*
X0172970Y0180506D01*
X0177855Y0175621D01*
X0181831Y0175621D01*
X0181831Y0173653D02*
X0177634Y0173653D01*
X0171429Y0179858D01*
X0171429Y0181641D01*
X0170559Y0182511D01*
X0164429Y0182511D01*
X0164193Y0182747D01*
X0162996Y0177295D02*
X0157780Y0182511D01*
X0154429Y0182511D01*
X0154193Y0182747D01*
X0162996Y0177295D02*
X0171689Y0177295D01*
X0177299Y0171684D01*
X0181831Y0171684D01*
X0181831Y0169716D02*
X0177063Y0169716D01*
X0174126Y0172653D01*
X0164288Y0172653D01*
X0164193Y0172747D01*
X0174847Y0182593D02*
X0177472Y0179968D01*
X0177472Y0178802D01*
X0178684Y0177590D01*
X0181831Y0177590D01*
X0174847Y0182593D02*
X0174847Y0192098D01*
X0174095Y0192850D01*
X0164295Y0192850D01*
X0164193Y0192747D01*
X0192658Y0137235D02*
X0192658Y0134519D01*
X0191748Y0133609D01*
X0180543Y0133609D01*
X0182236Y0130543D02*
X0182236Y0114491D01*
X0187343Y0109598D02*
X0192205Y0114460D01*
X0192205Y0125605D01*
X0198505Y0131905D01*
X0198505Y0134665D01*
X0198563Y0134724D01*
X0198563Y0137235D01*
X0196595Y0137235D02*
X0196595Y0134948D01*
X0196596Y0134946D01*
X0196596Y0134176D01*
X0196599Y0134173D01*
X0196599Y0133085D01*
X0193804Y0130291D01*
X0188492Y0130291D01*
X0187366Y0129165D01*
X0187366Y0119621D01*
X0187343Y0119598D01*
X0197288Y0119653D02*
X0197343Y0119598D01*
X0200532Y0122787D01*
X0200532Y0137235D01*
X0202500Y0137235D02*
X0202500Y0114755D01*
X0197343Y0109598D01*
X0207343Y0109598D02*
X0212335Y0114590D01*
X0212335Y0122905D01*
X0206437Y0128802D01*
X0206437Y0137235D01*
X0204469Y0137235D02*
X0204469Y0122472D01*
X0207343Y0119598D01*
X0213599Y0124342D02*
X0216355Y0124342D01*
X0217103Y0123594D01*
X0217103Y0119838D01*
X0217343Y0119598D01*
X0213599Y0124342D02*
X0208406Y0129535D01*
X0208406Y0137235D01*
X0194626Y0137235D02*
X0194626Y0134609D01*
X0194648Y0134588D01*
X0194648Y0133882D01*
X0192686Y0131920D01*
X0183614Y0131920D01*
X0182236Y0130543D01*
X0241168Y0191369D02*
X0239564Y0192973D01*
X0239564Y0213795D01*
X0237240Y0216119D01*
X0229331Y0216119D01*
X0227899Y0217551D01*
X0228635Y0209356D02*
X0230207Y0207783D01*
X0230207Y0198407D01*
X0241168Y0191369D02*
X0242855Y0191369D01*
D41*
X0239080Y0185464D02*
X0236876Y0186910D01*
X0236711Y0186860D01*
X0236480Y0187031D01*
X0214447Y0187031D01*
X0220217Y0198259D02*
X0220160Y0198316D01*
X0220160Y0204004D01*
X0203847Y0220317D01*
X0202802Y0220317D01*
X0197487Y0222938D02*
X0197487Y0216392D01*
X0192714Y0211619D01*
X0192714Y0198315D01*
X0192658Y0198259D01*
X0190689Y0198259D02*
X0190689Y0193632D01*
X0192554Y0191767D01*
X0188640Y0193691D02*
X0188640Y0186818D01*
X0191314Y0184143D01*
X0195303Y0184143D01*
X0195471Y0184311D01*
X0188640Y0193691D02*
X0188721Y0198259D01*
X0186033Y0192394D02*
X0186033Y0214293D01*
X0187997Y0216257D01*
X0187997Y0225390D01*
X0183070Y0230317D01*
X0182802Y0230317D01*
X0187925Y0229004D02*
X0187925Y0255540D01*
X0188373Y0255092D01*
X0191075Y0255540D02*
X0191075Y0240325D01*
X0191700Y0239306D01*
X0192802Y0230317D02*
X0192802Y0227623D01*
X0197487Y0222938D01*
X0192802Y0224127D02*
X0192802Y0220317D01*
X0192802Y0224127D02*
X0192800Y0224218D01*
X0192795Y0224308D01*
X0192785Y0224398D01*
X0192772Y0224488D01*
X0192755Y0224577D01*
X0192735Y0224665D01*
X0192711Y0224752D01*
X0192683Y0224839D01*
X0192652Y0224924D01*
X0192617Y0225008D01*
X0192579Y0225090D01*
X0192538Y0225170D01*
X0192493Y0225249D01*
X0192445Y0225326D01*
X0192394Y0225401D01*
X0192340Y0225473D01*
X0192283Y0225544D01*
X0192223Y0225612D01*
X0192160Y0225677D01*
X0192095Y0225740D01*
X0192027Y0225800D01*
X0191956Y0225857D01*
X0191884Y0225911D01*
X0191809Y0225962D01*
X0191732Y0226010D01*
X0191653Y0226055D01*
X0191573Y0226096D01*
X0191491Y0226134D01*
X0191407Y0226169D01*
X0191322Y0226200D01*
X0191235Y0226228D01*
X0191148Y0226252D01*
X0191060Y0226272D01*
X0190971Y0226289D01*
X0190881Y0226302D01*
X0190791Y0226312D01*
X0190701Y0226317D01*
X0190610Y0226319D01*
X0190507Y0226321D01*
X0190404Y0226327D01*
X0190302Y0226337D01*
X0190200Y0226350D01*
X0190099Y0226368D01*
X0189998Y0226390D01*
X0189899Y0226415D01*
X0189800Y0226444D01*
X0189702Y0226477D01*
X0189606Y0226514D01*
X0189512Y0226554D01*
X0189419Y0226598D01*
X0189327Y0226645D01*
X0189238Y0226696D01*
X0189151Y0226750D01*
X0189065Y0226808D01*
X0188982Y0226869D01*
X0188902Y0226933D01*
X0188824Y0227000D01*
X0188748Y0227069D01*
X0188675Y0227142D01*
X0188606Y0227218D01*
X0188539Y0227296D01*
X0188475Y0227376D01*
X0188414Y0227459D01*
X0188356Y0227545D01*
X0188302Y0227632D01*
X0188251Y0227721D01*
X0188204Y0227813D01*
X0188160Y0227906D01*
X0188120Y0228000D01*
X0188083Y0228096D01*
X0188050Y0228194D01*
X0188021Y0228293D01*
X0187996Y0228392D01*
X0187974Y0228493D01*
X0187956Y0228594D01*
X0187943Y0228696D01*
X0187933Y0228798D01*
X0187927Y0228901D01*
X0187925Y0229004D01*
X0202802Y0230317D02*
X0202802Y0226926D01*
X0207558Y0222170D01*
X0207558Y0219551D01*
X0222205Y0204904D01*
X0222205Y0198279D01*
X0222185Y0198259D01*
X0224154Y0198259D02*
X0224154Y0208966D01*
X0212802Y0220317D01*
X0222708Y0220411D02*
X0222802Y0220317D01*
X0222802Y0229330D02*
X0222802Y0230317D01*
X0226741Y0234256D01*
X0226741Y0252176D01*
X0224976Y0253940D01*
X0222418Y0253940D01*
X0222418Y0257090D02*
X0220540Y0257090D01*
X0217103Y0257090D02*
X0200734Y0257090D01*
X0200701Y0257124D01*
X0192595Y0258208D02*
X0212802Y0238001D01*
X0212802Y0230317D01*
X0213088Y0230317D01*
X0207877Y0251519D02*
X0210299Y0253940D01*
X0217103Y0253940D01*
X0192595Y0258208D02*
X0181967Y0258208D01*
X0181626Y0257867D01*
X0181626Y0255540D01*
X0184531Y0255295D02*
X0184531Y0245762D01*
X0184531Y0255295D02*
X0184775Y0255540D01*
X0184775Y0260854D02*
X0184770Y0260860D01*
X0184770Y0263859D01*
X0183766Y0264862D01*
X0188267Y0263822D02*
X0188267Y0261196D01*
X0187925Y0260854D01*
X0191075Y0260854D02*
X0191290Y0261070D01*
X0191290Y0266008D01*
X0175771Y0256078D02*
X0170954Y0256058D01*
X0169046Y0258957D01*
X0169046Y0262894D02*
X0173263Y0262894D01*
X0173824Y0262698D01*
X0171539Y0272471D02*
X0171539Y0272602D01*
X0169129Y0272602D01*
X0160405Y0263878D01*
X0161380Y0272520D02*
X0161380Y0280971D01*
X0166781Y0286372D01*
X0166781Y0318483D01*
X0167273Y0318975D01*
X0167921Y0319622D01*
X0175515Y0327216D01*
X0176812Y0327216D01*
X0166812Y0327216D02*
X0165233Y0327216D01*
X0157452Y0319436D01*
X0157452Y0272520D01*
X0159420Y0272520D02*
X0159420Y0282209D01*
X0162249Y0285037D01*
X0162249Y0299937D01*
X0171812Y0317217D02*
X0172070Y0317214D01*
X0172328Y0317205D01*
X0172586Y0317189D01*
X0172843Y0317167D01*
X0173100Y0317139D01*
X0173356Y0317105D01*
X0173611Y0317064D01*
X0173865Y0317018D01*
X0174118Y0316965D01*
X0174369Y0316906D01*
X0174619Y0316842D01*
X0174868Y0316771D01*
X0175114Y0316694D01*
X0175359Y0316611D01*
X0175601Y0316523D01*
X0175842Y0316428D01*
X0176080Y0316328D01*
X0176315Y0316222D01*
X0176548Y0316110D01*
X0176778Y0315993D01*
X0177005Y0315870D01*
X0177229Y0315742D01*
X0177450Y0315608D01*
X0177668Y0315470D01*
X0177882Y0315325D01*
X0178093Y0315176D01*
X0178300Y0315022D01*
X0178503Y0314863D01*
X0178703Y0314698D01*
X0178898Y0314530D01*
X0179089Y0314356D01*
X0179276Y0314178D01*
X0179459Y0313995D01*
X0179637Y0313808D01*
X0179811Y0313617D01*
X0179979Y0313422D01*
X0180144Y0313222D01*
X0180303Y0313019D01*
X0180457Y0312812D01*
X0180606Y0312601D01*
X0180751Y0312387D01*
X0180889Y0312169D01*
X0181023Y0311948D01*
X0181151Y0311724D01*
X0181274Y0311497D01*
X0181391Y0311267D01*
X0181503Y0311034D01*
X0181609Y0310799D01*
X0181709Y0310561D01*
X0181804Y0310320D01*
X0181892Y0310078D01*
X0181975Y0309833D01*
X0182052Y0309587D01*
X0182123Y0309338D01*
X0182187Y0309088D01*
X0182246Y0308837D01*
X0182299Y0308584D01*
X0182345Y0308330D01*
X0182386Y0308075D01*
X0182420Y0307819D01*
X0182448Y0307562D01*
X0182470Y0307305D01*
X0182486Y0307047D01*
X0182495Y0306789D01*
X0182498Y0306531D01*
X0182497Y0306531D02*
X0182497Y0291577D01*
X0182494Y0291361D01*
X0182487Y0291145D01*
X0182474Y0290930D01*
X0182455Y0290715D01*
X0182432Y0290500D01*
X0182403Y0290286D01*
X0182369Y0290073D01*
X0182331Y0289860D01*
X0182286Y0289649D01*
X0182237Y0289438D01*
X0182183Y0289229D01*
X0182124Y0289022D01*
X0182060Y0288816D01*
X0181990Y0288611D01*
X0181916Y0288408D01*
X0181837Y0288207D01*
X0181753Y0288008D01*
X0181665Y0287811D01*
X0181571Y0287617D01*
X0181473Y0287424D01*
X0181371Y0287234D01*
X0181264Y0287047D01*
X0181152Y0286862D01*
X0181036Y0286680D01*
X0180915Y0286501D01*
X0180790Y0286325D01*
X0180661Y0286151D01*
X0180528Y0285981D01*
X0180391Y0285815D01*
X0180250Y0285651D01*
X0180105Y0285491D01*
X0179956Y0285335D01*
X0179803Y0285182D01*
X0179647Y0285033D01*
X0179487Y0284888D01*
X0179323Y0284747D01*
X0179157Y0284610D01*
X0178987Y0284477D01*
X0178813Y0284348D01*
X0178637Y0284223D01*
X0178458Y0284102D01*
X0178276Y0283986D01*
X0178091Y0283874D01*
X0177904Y0283767D01*
X0177714Y0283665D01*
X0177521Y0283567D01*
X0177327Y0283473D01*
X0177130Y0283385D01*
X0176931Y0283301D01*
X0176730Y0283222D01*
X0176527Y0283148D01*
X0176322Y0283078D01*
X0176116Y0283014D01*
X0175909Y0282955D01*
X0175700Y0282901D01*
X0175489Y0282852D01*
X0175278Y0282807D01*
X0175065Y0282769D01*
X0174852Y0282735D01*
X0174638Y0282706D01*
X0174423Y0282683D01*
X0174208Y0282664D01*
X0173993Y0282651D01*
X0173777Y0282644D01*
X0173561Y0282641D01*
X0172086Y0282641D01*
X0167982Y0277369D02*
X0165326Y0274712D01*
X0165326Y0272520D01*
X0163357Y0272520D02*
X0163357Y0273912D01*
X0161389Y0272520D02*
X0161380Y0272520D01*
X0155483Y0272520D02*
X0155483Y0276453D01*
X0153285Y0278652D01*
X0150751Y0272231D02*
X0150778Y0269568D01*
X0151763Y0268799D01*
X0146846Y0268799D01*
X0144995Y0270650D01*
X0142440Y0266831D02*
X0139477Y0269794D01*
X0139477Y0310982D01*
X0134247Y0316212D01*
X0134247Y0325552D01*
X0174212Y0365516D01*
X0134412Y0365516D02*
X0121309Y0352414D01*
X0121309Y0325757D01*
X0136777Y0310290D01*
X0136587Y0270270D01*
X0142173Y0264684D01*
X0151763Y0264862D01*
X0151763Y0266831D02*
X0142440Y0266831D01*
X0148737Y0260925D02*
X0144072Y0256260D01*
X0144072Y0225715D01*
X0145908Y0223879D01*
X0145908Y0214036D02*
X0137801Y0214036D01*
X0137053Y0214784D01*
X0137053Y0216741D01*
X0134023Y0219772D01*
X0129316Y0219772D01*
X0129047Y0220040D01*
X0129047Y0213851D02*
X0129047Y0213347D01*
X0129018Y0213318D01*
X0129018Y0207380D01*
X0129047Y0213851D02*
X0114087Y0213851D01*
X0114087Y0198957D02*
X0104856Y0198957D01*
X0102675Y0196776D01*
X0102675Y0188297D01*
X0102977Y0187994D01*
X0113824Y0187994D01*
X0114087Y0198957D02*
X0125857Y0198957D01*
X0137053Y0210153D01*
X0137053Y0214784D01*
X0145908Y0214036D02*
X0151281Y0208663D01*
X0159365Y0208663D01*
X0163654Y0212953D01*
X0163654Y0213085D01*
X0163654Y0219778D02*
X0159063Y0219778D01*
X0154963Y0223879D01*
X0162724Y0233155D02*
X0159983Y0235896D01*
X0159983Y0240022D01*
X0163133Y0240022D02*
X0163218Y0239936D01*
X0163218Y0237509D01*
X0165813Y0234914D01*
X0171049Y0234914D01*
X0163494Y0238954D02*
X0163133Y0240022D01*
X0160553Y0250692D02*
X0159420Y0252441D01*
X0159420Y0255236D01*
X0165326Y0255236D02*
X0169043Y0251519D01*
X0151941Y0255309D02*
X0151763Y0256488D01*
X0151763Y0258957D01*
X0151763Y0260925D02*
X0148737Y0260925D01*
X0151476Y0249482D02*
X0151514Y0249480D01*
X0151551Y0249475D01*
X0151587Y0249465D01*
X0151623Y0249453D01*
X0151657Y0249437D01*
X0151689Y0249417D01*
X0151720Y0249395D01*
X0151748Y0249370D01*
X0151773Y0249342D01*
X0151795Y0249311D01*
X0151815Y0249279D01*
X0151831Y0249245D01*
X0151843Y0249209D01*
X0151853Y0249173D01*
X0151858Y0249136D01*
X0151860Y0249098D01*
X0131718Y0250200D02*
X0126223Y0250200D01*
X0125973Y0249623D01*
X0119280Y0249623D02*
X0119272Y0250443D01*
X0111934Y0250443D01*
X0112107Y0258091D02*
X0119362Y0258091D01*
X0119364Y0257677D01*
X0126057Y0257677D02*
X0131231Y0257594D01*
X0131275Y0258133D01*
X0131306Y0265774D02*
X0131229Y0265851D01*
X0126050Y0265714D01*
X0119357Y0265714D02*
X0119329Y0265795D01*
X0112034Y0265795D01*
X0112104Y0273663D02*
X0119293Y0273663D01*
X0119326Y0273806D01*
X0126019Y0273806D02*
X0130725Y0273668D01*
X0130758Y0273635D01*
X0144995Y0277343D02*
X0144995Y0284520D01*
X0145033Y0284558D01*
X0163357Y0273912D02*
X0163360Y0274123D01*
X0163367Y0274334D01*
X0163380Y0274544D01*
X0163398Y0274754D01*
X0163421Y0274964D01*
X0163449Y0275173D01*
X0163482Y0275382D01*
X0163520Y0275589D01*
X0163563Y0275796D01*
X0163611Y0276001D01*
X0163664Y0276205D01*
X0163721Y0276408D01*
X0163784Y0276609D01*
X0163852Y0276809D01*
X0163924Y0277007D01*
X0164001Y0277204D01*
X0164083Y0277398D01*
X0164170Y0277590D01*
X0164261Y0277781D01*
X0164357Y0277969D01*
X0164457Y0278154D01*
X0164562Y0278337D01*
X0164671Y0278518D01*
X0164784Y0278696D01*
X0164902Y0278871D01*
X0165024Y0279043D01*
X0165150Y0279212D01*
X0165280Y0279378D01*
X0165414Y0279541D01*
X0165552Y0279700D01*
X0165694Y0279857D01*
X0165840Y0280009D01*
X0165989Y0280158D01*
X0166141Y0280304D01*
X0166298Y0280446D01*
X0166457Y0280584D01*
X0166620Y0280718D01*
X0166786Y0280848D01*
X0166955Y0280974D01*
X0167127Y0281096D01*
X0167302Y0281214D01*
X0167480Y0281327D01*
X0167661Y0281436D01*
X0167844Y0281541D01*
X0168029Y0281641D01*
X0168217Y0281737D01*
X0168408Y0281828D01*
X0168600Y0281915D01*
X0168794Y0281997D01*
X0168991Y0282074D01*
X0169189Y0282146D01*
X0169389Y0282214D01*
X0169590Y0282277D01*
X0169793Y0282334D01*
X0169997Y0282387D01*
X0170202Y0282435D01*
X0170409Y0282478D01*
X0170616Y0282516D01*
X0170825Y0282549D01*
X0171034Y0282577D01*
X0171244Y0282600D01*
X0171454Y0282618D01*
X0171664Y0282631D01*
X0171875Y0282638D01*
X0172086Y0282641D01*
X0171497Y0316902D02*
X0171812Y0317216D01*
X0242802Y0230317D02*
X0242802Y0220317D01*
X0233982Y0209251D02*
X0233948Y0206500D01*
X0233996Y0198259D01*
X0232028Y0198259D02*
X0232028Y0192384D01*
X0231816Y0192289D01*
X0236480Y0187031D02*
X0236475Y0182763D01*
X0236452Y0182326D01*
X0239080Y0185464D02*
X0242855Y0185464D01*
X0242855Y0183495D01*
X0231542Y0178557D02*
X0231485Y0178500D01*
X0242855Y0173653D02*
X0242922Y0173721D01*
X0246248Y0173721D01*
X0246343Y0173815D01*
X0246320Y0173653D02*
X0242855Y0173653D01*
X0242855Y0169716D02*
X0237170Y0169716D01*
X0237157Y0169702D01*
X0239306Y0161842D02*
X0237887Y0160423D01*
X0237712Y0144478D01*
X0243915Y0138274D01*
X0244877Y0128419D02*
X0236024Y0128419D01*
X0232980Y0131463D01*
X0228941Y0131463D01*
X0228091Y0132313D01*
X0228091Y0137235D01*
X0224154Y0137235D02*
X0224130Y0137235D01*
X0224130Y0142549D01*
X0216280Y0137235D02*
X0216280Y0130661D01*
X0227343Y0119598D01*
X0227343Y0116664D01*
X0222445Y0111767D01*
X0222445Y0050600D01*
X0226596Y0046450D01*
X0226596Y0035357D01*
X0226692Y0035260D01*
X0229842Y0035260D02*
X0229842Y0063255D01*
X0228865Y0064232D01*
X0232174Y0067541D01*
X0232174Y0084082D01*
X0232525Y0084434D01*
X0235084Y0084434D02*
X0235282Y0084236D01*
X0235282Y0074450D01*
X0235558Y0074174D01*
X0235558Y0064232D01*
X0232992Y0061666D01*
X0232992Y0035260D01*
X0239291Y0035260D02*
X0239418Y0035388D01*
X0239418Y0053272D01*
X0255127Y0068981D01*
X0255127Y0091554D01*
X0237343Y0109339D01*
X0237343Y0109598D01*
X0232473Y0111854D02*
X0237343Y0116724D01*
X0237343Y0119598D01*
X0242367Y0111807D02*
X0242367Y0106995D01*
X0256931Y0092431D01*
X0256931Y0067806D01*
X0242583Y0053458D01*
X0242583Y0035403D01*
X0242440Y0035260D01*
X0217343Y0035359D02*
X0217244Y0035260D01*
X0217343Y0035359D02*
X0217343Y0109598D01*
X0221415Y0113670D01*
X0221415Y0121945D01*
X0214311Y0129048D01*
X0214311Y0137235D01*
X0217343Y0119598D02*
X0217343Y0116726D01*
X0212329Y0111712D01*
X0212329Y0053527D01*
X0213969Y0051887D01*
X0213969Y0035385D01*
X0214094Y0035260D01*
X0198346Y0035260D02*
X0198233Y0035373D01*
X0198233Y0060250D01*
X0207343Y0069360D01*
X0207343Y0109598D01*
X0202527Y0112123D02*
X0207343Y0116939D01*
X0207343Y0119598D01*
X0202527Y0112123D02*
X0202527Y0067879D01*
X0195359Y0060711D01*
X0195359Y0035423D01*
X0195196Y0035260D01*
X0155020Y0035096D02*
X0138766Y0035096D01*
X0138594Y0035198D02*
X0138594Y0035351D01*
X0141562Y0035351D01*
X0141562Y0035169D01*
X0141184Y0035169D01*
X0139276Y0035169D01*
X0138594Y0035198D01*
X0138413Y0035206D02*
X0135444Y0035331D01*
X0135444Y0035351D01*
X0135822Y0035351D01*
X0138413Y0035351D01*
X0138413Y0035206D01*
X0138374Y0035096D02*
X0135473Y0035096D01*
X0134782Y0035787D01*
X0134782Y0035234D01*
X0135128Y0034889D01*
X0135096Y0035244D02*
X0135396Y0035244D01*
X0135463Y0035311D01*
X0135163Y0035311D01*
X0134996Y0035477D01*
X0135112Y0035260D02*
X0135096Y0035244D01*
X0136612Y0035260D02*
X0136640Y0035288D01*
X0138374Y0035096D02*
X0139273Y0035994D01*
X0141276Y0035027D02*
X0141407Y0035027D01*
X0141591Y0035211D01*
X0141744Y0035169D02*
X0141744Y0035351D01*
X0142121Y0035351D01*
X0144712Y0035351D01*
X0144712Y0035328D01*
X0144553Y0035169D01*
X0141744Y0035169D01*
X0141828Y0034820D02*
X0141483Y0034820D01*
X0141276Y0035027D01*
X0141828Y0034820D02*
X0142269Y0035260D01*
X0132397Y0035231D02*
X0155020Y0034753D01*
X0155020Y0044615D01*
X0155723Y0045318D01*
X0156061Y0045318D01*
X0156061Y0059385D01*
X0130961Y0059572D01*
X0130961Y0045090D01*
X0131436Y0044615D01*
X0131436Y0035056D01*
X0132397Y0035231D01*
X0131658Y0035096D02*
X0131436Y0035096D01*
X0131436Y0036095D02*
X0155020Y0036095D01*
X0155020Y0037093D02*
X0131436Y0037093D01*
X0131436Y0038092D02*
X0155020Y0038092D01*
X0155020Y0039090D02*
X0131436Y0039090D01*
X0131436Y0040089D02*
X0155020Y0040089D01*
X0155020Y0041087D02*
X0131436Y0041087D01*
X0131436Y0042086D02*
X0155020Y0042086D01*
X0155020Y0043084D02*
X0131436Y0043084D01*
X0131436Y0044083D02*
X0155020Y0044083D01*
X0155486Y0045081D02*
X0130970Y0045081D01*
X0130961Y0046080D02*
X0156061Y0046080D01*
X0156061Y0047078D02*
X0130961Y0047078D01*
X0130961Y0048077D02*
X0156061Y0048077D01*
X0156061Y0049075D02*
X0130961Y0049075D01*
X0130961Y0050074D02*
X0156061Y0050074D01*
X0156061Y0051072D02*
X0130961Y0051072D01*
X0130961Y0052071D02*
X0156061Y0052071D01*
X0156061Y0053069D02*
X0130961Y0053069D01*
X0130961Y0054068D02*
X0156061Y0054068D01*
X0156061Y0055066D02*
X0130961Y0055066D01*
X0130961Y0056065D02*
X0156061Y0056065D01*
X0156061Y0057063D02*
X0130961Y0057063D01*
X0130961Y0058062D02*
X0156061Y0058062D01*
X0156061Y0059061D02*
X0130961Y0059061D01*
X0117231Y0059061D02*
X0100056Y0059061D01*
X0100083Y0060059D02*
X0117228Y0060059D01*
X0117225Y0061058D02*
X0100110Y0061058D01*
X0100137Y0062056D02*
X0117222Y0062056D01*
X0117219Y0063055D02*
X0100164Y0063055D01*
X0100191Y0064053D02*
X0117216Y0064053D01*
X0117214Y0065052D02*
X0100218Y0065052D01*
X0100245Y0066050D02*
X0117211Y0066050D01*
X0117208Y0067049D02*
X0100272Y0067049D01*
X0100299Y0068047D02*
X0117205Y0068047D01*
X0117202Y0069046D02*
X0100326Y0069046D01*
X0100353Y0070044D02*
X0117199Y0070044D01*
X0117196Y0071043D02*
X0100380Y0071043D01*
X0100407Y0072041D02*
X0117193Y0072041D01*
X0117190Y0073040D02*
X0100434Y0073040D01*
X0100461Y0074038D02*
X0117187Y0074038D01*
X0117185Y0075037D02*
X0100488Y0075037D01*
X0100515Y0076035D02*
X0117182Y0076035D01*
X0117181Y0076250D02*
X0117273Y0044663D01*
X0117225Y0044615D01*
X0117225Y0034331D01*
X0107311Y0034025D01*
X0107177Y0034250D01*
X0107076Y0036863D01*
X0099469Y0037289D01*
X0100515Y0076061D01*
X0117181Y0076250D01*
X0117234Y0058062D02*
X0100029Y0058062D01*
X0100002Y0057063D02*
X0117237Y0057063D01*
X0117240Y0056065D02*
X0099976Y0056065D01*
X0099949Y0055066D02*
X0117243Y0055066D01*
X0117245Y0054068D02*
X0099922Y0054068D01*
X0099895Y0053069D02*
X0117248Y0053069D01*
X0117251Y0052071D02*
X0099868Y0052071D01*
X0099841Y0051072D02*
X0117254Y0051072D01*
X0117257Y0050074D02*
X0099814Y0050074D01*
X0099787Y0049075D02*
X0117260Y0049075D01*
X0117263Y0048077D02*
X0099760Y0048077D01*
X0099733Y0047078D02*
X0117266Y0047078D01*
X0117269Y0046080D02*
X0099706Y0046080D01*
X0099679Y0045081D02*
X0117272Y0045081D01*
X0117225Y0044083D02*
X0099652Y0044083D01*
X0099625Y0043084D02*
X0117225Y0043084D01*
X0117225Y0042086D02*
X0099598Y0042086D01*
X0099571Y0041087D02*
X0117225Y0041087D01*
X0117225Y0040089D02*
X0099544Y0040089D01*
X0099517Y0039090D02*
X0117225Y0039090D01*
X0117225Y0038092D02*
X0099490Y0038092D01*
X0102962Y0037093D02*
X0117225Y0037093D01*
X0117225Y0036095D02*
X0107106Y0036095D01*
X0107145Y0035096D02*
X0117225Y0035096D01*
X0109678Y0034098D02*
X0107267Y0034098D01*
X0156291Y0088673D02*
X0156291Y0093473D01*
X0157846Y0095027D01*
X0132629Y0098909D02*
X0132171Y0098451D01*
X0107211Y0110218D02*
X0107198Y0110232D01*
X0110988Y0122041D02*
X0111002Y0122055D01*
X0111883Y0122055D01*
X0137268Y0130625D02*
X0152071Y0130625D01*
X0154193Y0132747D01*
X0153867Y0132421D01*
X0143310Y0132421D01*
X0140059Y0135672D01*
X0140059Y0153752D01*
X0124694Y0169117D01*
X0106287Y0169117D01*
X0102675Y0172729D01*
X0102675Y0188297D01*
X0114087Y0176910D02*
X0129362Y0176910D01*
X0129362Y0176038D01*
X0129663Y0175738D01*
X0129663Y0169327D01*
X0143945Y0150153D02*
X0150874Y0157082D01*
X0159858Y0157082D01*
X0164193Y0152747D01*
X0154193Y0152747D02*
X0148984Y0147539D01*
X0148032Y0137655D01*
X0143979Y0143929D02*
X0143945Y0150153D01*
X0181831Y0148062D02*
X0186612Y0148062D01*
X0187776Y0147852D01*
X0181831Y0144125D02*
X0181742Y0144125D01*
X0181742Y0141902D01*
X0181835Y0189397D02*
X0181831Y0189401D01*
X0182075Y0189407D01*
X0185149Y0189407D01*
X0185935Y0190430D01*
X0185935Y0192296D01*
X0186033Y0192394D01*
X0181831Y0191369D02*
X0181515Y0191685D01*
X0181515Y0206044D01*
X0230059Y0198259D02*
X0230207Y0198407D01*
X0260492Y0162747D02*
X0251713Y0153968D01*
X0242855Y0153968D01*
X0242855Y0161842D02*
X0239306Y0161842D01*
X0233996Y0137235D02*
X0233996Y0133509D01*
X0234127Y0133378D01*
X0234127Y0133298D01*
X0235976Y0131449D01*
X0244877Y0128419D02*
X0251573Y0121724D01*
X0251573Y0113828D01*
X0247343Y0109598D01*
X0247343Y0105208D01*
X0250598Y0101952D01*
X0283015Y0101952D01*
X0298573Y0086394D01*
X0298573Y0035820D01*
X0299133Y0035260D01*
X0242929Y0084640D02*
X0237911Y0084702D01*
X0237643Y0084434D01*
X0237643Y0094079D02*
X0237552Y0094171D01*
X0229966Y0094079D02*
X0227343Y0096703D01*
X0227343Y0109598D01*
X0242367Y0111807D02*
X0247343Y0116783D01*
X0247343Y0119598D01*
X0280583Y0168295D02*
X0294039Y0168365D01*
X0295385Y0169711D01*
X0295385Y0173077D01*
X0295109Y0173353D01*
X0280583Y0168295D02*
X0276130Y0172747D01*
X0270492Y0172747D01*
X0270492Y0192747D02*
X0287402Y0192818D01*
X0287676Y0192544D01*
D42*
X0287676Y0182702D02*
X0287642Y0182668D01*
X0279362Y0182598D01*
X0274362Y0177598D01*
X0263933Y0177598D01*
X0260492Y0174157D01*
X0260492Y0172747D01*
X0260492Y0162747D01*
X0295109Y0173353D02*
X0295192Y0173271D01*
X0298267Y0173271D01*
X0301551Y0176554D01*
X0301551Y0189865D01*
X0298871Y0192544D01*
X0296731Y0192544D01*
D43*
X0082935Y0052305D02*
X0082939Y0049554D01*
X0097799Y0049554D01*
X0098515Y0076076D01*
X0098506Y0076866D01*
X0098537Y0076898D01*
X0098538Y0076943D01*
X0099112Y0077486D01*
X0099664Y0078051D01*
X0099709Y0078052D01*
X0099741Y0078082D01*
X0100531Y0078061D01*
X0105190Y0078114D01*
X0105190Y0103994D01*
X0103046Y0103994D01*
X0102168Y0104873D01*
X0102168Y0115564D01*
X0103046Y0116443D01*
X0108288Y0116443D01*
X0108288Y0122578D01*
X0108699Y0123570D01*
X0108833Y0123704D01*
X0108833Y0124427D01*
X0109712Y0125305D01*
X0114054Y0125305D01*
X0114933Y0124427D01*
X0114933Y0119684D01*
X0114054Y0118805D01*
X0113688Y0118805D01*
X0113688Y0113458D01*
X0113277Y0112466D01*
X0112254Y0111443D01*
X0112254Y0104873D01*
X0111390Y0104008D01*
X0111390Y0078185D01*
X0116340Y0078241D01*
X0116347Y0078248D01*
X0117166Y0078250D01*
X0117987Y0078260D01*
X0117994Y0078253D01*
X0118004Y0078253D01*
X0118585Y0077675D01*
X0119171Y0077102D01*
X0119172Y0077092D01*
X0119179Y0077085D01*
X0119181Y0076264D01*
X0119190Y0075445D01*
X0119183Y0075438D01*
X0119270Y0045618D01*
X0130021Y0045618D01*
X0130328Y0045796D01*
X0130786Y0045918D01*
X0132204Y0045918D01*
X0132204Y0035260D01*
X0132204Y0035260D01*
X0132204Y0045918D01*
X0133622Y0045918D01*
X0133779Y0045876D01*
X0133936Y0045918D01*
X0135354Y0045918D01*
X0135354Y0035260D01*
X0135522Y0035260D01*
X0138503Y0035260D01*
X0135354Y0035260D01*
X0135354Y0035260D01*
X0135354Y0035260D01*
X0135354Y0045918D01*
X0136772Y0045918D01*
X0136929Y0045876D01*
X0137085Y0045918D01*
X0138503Y0045918D01*
X0138503Y0035260D01*
X0138503Y0035260D01*
X0138503Y0035260D01*
X0138503Y0045918D01*
X0139921Y0045918D01*
X0140078Y0045876D01*
X0140235Y0045918D01*
X0141653Y0045918D01*
X0141653Y0035260D01*
X0141821Y0035260D01*
X0144802Y0035260D01*
X0141653Y0035260D01*
X0141653Y0035260D01*
X0141653Y0035260D01*
X0141484Y0035260D01*
X0138504Y0035260D01*
X0141653Y0035260D01*
X0141653Y0035260D01*
X0141653Y0045918D01*
X0143071Y0045918D01*
X0143228Y0045876D01*
X0143385Y0045918D01*
X0144803Y0045918D01*
X0144803Y0035260D01*
X0147952Y0035260D01*
X0147784Y0035260D01*
X0144803Y0035260D01*
X0144803Y0035260D01*
X0144803Y0035260D01*
X0144803Y0045918D01*
X0146221Y0045918D01*
X0146377Y0045876D01*
X0146534Y0045918D01*
X0147952Y0045918D01*
X0147952Y0035260D01*
X0147952Y0035260D01*
X0147952Y0035260D01*
X0147952Y0045918D01*
X0149370Y0045918D01*
X0149527Y0045876D01*
X0149684Y0045918D01*
X0151102Y0045918D01*
X0151102Y0035260D01*
X0154251Y0035260D01*
X0154083Y0035260D01*
X0151102Y0035260D01*
X0151102Y0035260D01*
X0151102Y0035260D01*
X0151102Y0045918D01*
X0152520Y0045918D01*
X0152677Y0045876D01*
X0152833Y0045918D01*
X0154251Y0045918D01*
X0154251Y0035260D01*
X0154251Y0035260D01*
X0154251Y0035260D01*
X0154251Y0045918D01*
X0155669Y0045918D01*
X0156127Y0045796D01*
X0156434Y0045618D01*
X0174399Y0045618D01*
X0174399Y0106461D01*
X0173043Y0107817D01*
X0173043Y0109445D01*
X0162998Y0099400D01*
X0162394Y0098796D01*
X0164355Y0098796D01*
X0164355Y0095212D01*
X0164723Y0095212D01*
X0164723Y0098796D01*
X0166941Y0098796D01*
X0167399Y0098673D01*
X0167810Y0098436D01*
X0168145Y0098101D01*
X0168382Y0097691D01*
X0168504Y0097233D01*
X0168504Y0095212D01*
X0164723Y0095212D01*
X0164723Y0094843D01*
X0164723Y0091259D01*
X0166941Y0091259D01*
X0167399Y0091382D01*
X0167810Y0091619D01*
X0168145Y0091954D01*
X0168382Y0092364D01*
X0168504Y0092822D01*
X0168504Y0094843D01*
X0164723Y0094843D01*
X0164355Y0094843D01*
X0164355Y0091259D01*
X0162137Y0091259D01*
X0161679Y0091382D01*
X0161269Y0091619D01*
X0160981Y0091907D01*
X0160633Y0091559D01*
X0158355Y0091559D01*
X0159259Y0090655D01*
X0159791Y0089369D01*
X0159791Y0087976D01*
X0159259Y0086690D01*
X0158274Y0085705D01*
X0156988Y0085173D01*
X0155595Y0085173D01*
X0154309Y0085705D01*
X0153324Y0086690D01*
X0152791Y0087976D01*
X0152791Y0089369D01*
X0153324Y0090655D01*
X0154291Y0091622D01*
X0154291Y0092327D01*
X0154181Y0092438D01*
X0154181Y0097617D01*
X0155060Y0098496D01*
X0155126Y0098496D01*
X0155126Y0099877D01*
X0155035Y0099968D01*
X0154055Y0099968D01*
X0153177Y0100847D01*
X0153177Y0101826D01*
X0152988Y0102015D01*
X0152988Y0105265D01*
X0137279Y0105265D01*
X0137279Y0104981D01*
X0136400Y0104102D01*
X0128859Y0104102D01*
X0128144Y0104817D01*
X0127321Y0103994D01*
X0125856Y0103994D01*
X0125856Y0101919D01*
X0126452Y0101919D01*
X0126711Y0101660D01*
X0127980Y0101660D01*
X0127980Y0101893D01*
X0128859Y0102772D01*
X0136400Y0102772D01*
X0137279Y0101893D01*
X0137279Y0095926D01*
X0136400Y0095047D01*
X0128859Y0095047D01*
X0127980Y0095926D01*
X0127980Y0096260D01*
X0127330Y0096260D01*
X0127330Y0095861D01*
X0126452Y0094982D01*
X0120878Y0094982D01*
X0120531Y0095330D01*
X0120243Y0095042D01*
X0119832Y0094805D01*
X0119374Y0094682D01*
X0117156Y0094682D01*
X0117156Y0098267D01*
X0116788Y0098267D01*
X0113007Y0098267D01*
X0113007Y0096245D01*
X0113129Y0095788D01*
X0113366Y0095377D01*
X0113701Y0095042D01*
X0114112Y0094805D01*
X0114570Y0094682D01*
X0116788Y0094682D01*
X0116788Y0098267D01*
X0116788Y0098635D01*
X0116788Y0102219D01*
X0114570Y0102219D01*
X0114112Y0102097D01*
X0113701Y0101860D01*
X0113366Y0101525D01*
X0113129Y0101114D01*
X0113007Y0100656D01*
X0113007Y0098635D01*
X0116788Y0098635D01*
X0117156Y0098635D01*
X0117156Y0102219D01*
X0119374Y0102219D01*
X0119832Y0102097D01*
X0120243Y0101860D01*
X0120456Y0101646D01*
X0120456Y0103994D01*
X0118991Y0103994D01*
X0118113Y0104873D01*
X0118113Y0115564D01*
X0118991Y0116443D01*
X0119378Y0116443D01*
X0117194Y0118627D01*
X0116985Y0119132D01*
X0116433Y0119684D01*
X0116433Y0124427D01*
X0117312Y0125305D01*
X0121654Y0125305D01*
X0122533Y0124427D01*
X0122533Y0120925D01*
X0125317Y0118141D01*
X0126077Y0117381D01*
X0126465Y0116443D01*
X0127321Y0116443D01*
X0127680Y0116083D01*
X0127680Y0116638D01*
X0132248Y0116638D01*
X0133011Y0116638D01*
X0133011Y0117401D01*
X0137579Y0117401D01*
X0137579Y0119619D01*
X0137456Y0120077D01*
X0137219Y0120487D01*
X0136884Y0120822D01*
X0136474Y0121059D01*
X0136016Y0121182D01*
X0133011Y0121182D01*
X0133011Y0117401D01*
X0132248Y0117401D01*
X0132248Y0116638D01*
X0132248Y0112857D01*
X0129243Y0112857D01*
X0128785Y0112980D01*
X0128375Y0113217D01*
X0128199Y0113393D01*
X0128199Y0111167D01*
X0128859Y0111827D01*
X0136400Y0111827D01*
X0137279Y0110948D01*
X0137279Y0110664D01*
X0152931Y0110664D01*
X0152646Y0124995D01*
X0149017Y0128625D01*
X0140218Y0128625D01*
X0139250Y0127658D01*
X0137964Y0127125D01*
X0136572Y0127125D01*
X0135285Y0127658D01*
X0134301Y0128643D01*
X0133768Y0129929D01*
X0133768Y0131321D01*
X0134301Y0132608D01*
X0135285Y0133592D01*
X0136572Y0134125D01*
X0137964Y0134125D01*
X0139250Y0133592D01*
X0140218Y0132625D01*
X0140277Y0132625D01*
X0138059Y0134843D01*
X0138059Y0152923D01*
X0123865Y0167117D01*
X0105458Y0167117D01*
X0104287Y0168289D01*
X0101527Y0171049D01*
X0101527Y0157939D01*
X0103925Y0155541D01*
X0105057Y0155541D01*
X0105936Y0154663D01*
X0105936Y0151648D01*
X0105868Y0151581D01*
X0105936Y0151513D01*
X0105936Y0148499D01*
X0105057Y0147620D01*
X0101058Y0147620D01*
X0100895Y0147784D01*
X0097487Y0147784D01*
X0092261Y0153010D01*
X0090913Y0154357D01*
X0090913Y0330990D01*
X0092261Y0332337D01*
X0092261Y0332337D01*
X0100298Y0340374D01*
X0100298Y0344254D01*
X0100105Y0343876D01*
X0099701Y0343319D01*
X0099214Y0342832D01*
X0098657Y0342427D01*
X0098043Y0342115D01*
X0097388Y0341902D01*
X0096708Y0341794D01*
X0096364Y0341794D01*
X0096364Y0346169D01*
X0096364Y0346169D01*
X0096364Y0346169D01*
X0096364Y0350893D01*
X0096364Y0350893D01*
X0096364Y0350544D01*
X0096364Y0346169D01*
X0096364Y0341794D01*
X0096019Y0341794D01*
X0095339Y0341902D01*
X0094684Y0342115D01*
X0094071Y0342427D01*
X0093514Y0342832D01*
X0093027Y0343319D01*
X0092622Y0343876D01*
X0092309Y0344490D01*
X0092097Y0345145D01*
X0091989Y0345825D01*
X0091989Y0346169D01*
X0096364Y0346169D01*
X0096364Y0346169D01*
X0091989Y0346169D01*
X0091989Y0346513D01*
X0092097Y0347194D01*
X0092309Y0347848D01*
X0092622Y0348462D01*
X0092720Y0348597D01*
X0092601Y0348666D01*
X0092266Y0349001D01*
X0092029Y0349411D01*
X0091906Y0349869D01*
X0091906Y0350893D01*
X0093364Y0350893D01*
X0093363Y0350894D01*
X0091906Y0350894D01*
X0091906Y0351918D01*
X0091975Y0352173D01*
X0091906Y0352428D01*
X0091906Y0353453D01*
X0093364Y0353453D01*
X0093363Y0353453D01*
X0091906Y0353453D01*
X0091906Y0354477D01*
X0092029Y0354935D01*
X0092206Y0355242D01*
X0092206Y0362538D01*
X0092877Y0363210D01*
X0092622Y0363561D01*
X0092309Y0364175D01*
X0092097Y0364830D01*
X0091989Y0365510D01*
X0091989Y0365854D01*
X0096364Y0365854D01*
X0096364Y0365854D01*
X0100738Y0365854D01*
X0100738Y0365510D01*
X0100631Y0364830D01*
X0100418Y0364175D01*
X0100105Y0363561D01*
X0099994Y0363408D01*
X0112024Y0363408D01*
X0116033Y0359399D01*
X0117381Y0358052D01*
X0117381Y0281826D01*
X0118201Y0281005D01*
X0118762Y0279652D01*
X0118762Y0278188D01*
X0118383Y0277274D01*
X0122112Y0277274D01*
X0122672Y0276714D01*
X0123232Y0277274D01*
X0128805Y0277274D01*
X0129655Y0276425D01*
X0130161Y0276635D01*
X0131355Y0276635D01*
X0132458Y0276178D01*
X0133301Y0275334D01*
X0133758Y0274231D01*
X0133758Y0273038D01*
X0133301Y0271935D01*
X0132458Y0271091D01*
X0131355Y0270635D01*
X0130161Y0270635D01*
X0129413Y0270945D01*
X0128805Y0270337D01*
X0123232Y0270337D01*
X0122672Y0270897D01*
X0122112Y0270337D01*
X0116539Y0270337D01*
X0115660Y0271216D01*
X0115660Y0271663D01*
X0115573Y0271663D01*
X0115573Y0271419D01*
X0114348Y0270195D01*
X0109860Y0270195D01*
X0108756Y0271299D01*
X0108695Y0271153D01*
X0108434Y0270761D01*
X0108101Y0270428D01*
X0107709Y0270167D01*
X0107274Y0269986D01*
X0106812Y0269895D01*
X0105383Y0269895D01*
X0105383Y0273479D01*
X0105015Y0273479D01*
X0105015Y0269895D01*
X0103585Y0269895D01*
X0103124Y0269986D01*
X0102689Y0270167D01*
X0102297Y0270428D01*
X0101964Y0270761D01*
X0101702Y0271153D01*
X0101527Y0271577D01*
X0101527Y0268052D01*
X0101632Y0268306D01*
X0101894Y0268697D01*
X0102227Y0269030D01*
X0102618Y0269292D01*
X0103053Y0269472D01*
X0103515Y0269564D01*
X0104944Y0269564D01*
X0104944Y0265980D01*
X0105313Y0265980D01*
X0105313Y0269564D01*
X0106742Y0269564D01*
X0107204Y0269472D01*
X0107639Y0269292D01*
X0108030Y0269030D01*
X0108363Y0268697D01*
X0108625Y0268306D01*
X0108685Y0268159D01*
X0109790Y0269264D01*
X0114278Y0269264D01*
X0115502Y0268039D01*
X0115502Y0267795D01*
X0115692Y0267795D01*
X0115692Y0268304D01*
X0116571Y0269183D01*
X0122144Y0269183D01*
X0122704Y0268623D01*
X0123264Y0269183D01*
X0128837Y0269183D01*
X0129674Y0268346D01*
X0130709Y0268774D01*
X0131903Y0268774D01*
X0133005Y0268318D01*
X0133849Y0267474D01*
X0134306Y0266371D01*
X0134306Y0265178D01*
X0133849Y0264075D01*
X0133005Y0263231D01*
X0131903Y0262774D01*
X0130709Y0262774D01*
X0129716Y0263186D01*
X0129716Y0263124D01*
X0128837Y0262246D01*
X0123264Y0262246D01*
X0122704Y0262805D01*
X0122144Y0262246D01*
X0116571Y0262246D01*
X0115692Y0263124D01*
X0115692Y0263795D01*
X0115502Y0263795D01*
X0115502Y0263552D01*
X0114278Y0262327D01*
X0109790Y0262327D01*
X0108685Y0263431D01*
X0108625Y0263285D01*
X0108363Y0262894D01*
X0108030Y0262561D01*
X0107639Y0262299D01*
X0107204Y0262119D01*
X0106742Y0262027D01*
X0105313Y0262027D01*
X0105313Y0265611D01*
X0104944Y0265611D01*
X0104944Y0262027D01*
X0103515Y0262027D01*
X0103053Y0262119D01*
X0102618Y0262299D01*
X0102227Y0262561D01*
X0101894Y0262894D01*
X0101632Y0263285D01*
X0101527Y0263539D01*
X0101527Y0260172D01*
X0101705Y0260601D01*
X0101966Y0260993D01*
X0102299Y0261326D01*
X0102691Y0261587D01*
X0103126Y0261767D01*
X0103588Y0261859D01*
X0105017Y0261859D01*
X0105017Y0258275D01*
X0105385Y0258275D01*
X0105385Y0261859D01*
X0106815Y0261859D01*
X0107276Y0261767D01*
X0107711Y0261587D01*
X0108103Y0261326D01*
X0108436Y0260993D01*
X0108698Y0260601D01*
X0108758Y0260455D01*
X0109863Y0261559D01*
X0114351Y0261559D01*
X0115575Y0260335D01*
X0115575Y0260091D01*
X0115698Y0260091D01*
X0115698Y0260266D01*
X0116577Y0261145D01*
X0122150Y0261145D01*
X0122710Y0260585D01*
X0123270Y0261145D01*
X0128843Y0261145D01*
X0129444Y0260544D01*
X0129576Y0260676D01*
X0130679Y0261133D01*
X0131872Y0261133D01*
X0132975Y0260676D01*
X0133819Y0259832D01*
X0134275Y0258730D01*
X0134275Y0257536D01*
X0133819Y0256434D01*
X0132975Y0255590D01*
X0131872Y0255133D01*
X0130679Y0255133D01*
X0129722Y0255529D01*
X0129722Y0255087D01*
X0128843Y0254208D01*
X0123270Y0254208D01*
X0122710Y0254768D01*
X0122150Y0254208D01*
X0116577Y0254208D01*
X0115698Y0255087D01*
X0115698Y0256091D01*
X0115575Y0256091D01*
X0115575Y0255847D01*
X0114351Y0254622D01*
X0109863Y0254622D01*
X0108758Y0255727D01*
X0108698Y0255580D01*
X0108436Y0255189D01*
X0108103Y0254856D01*
X0107711Y0254594D01*
X0107276Y0254414D01*
X0106815Y0254322D01*
X0105385Y0254322D01*
X0105385Y0257906D01*
X0105017Y0257906D01*
X0105017Y0254322D01*
X0103588Y0254322D01*
X0103126Y0254414D01*
X0102691Y0254594D01*
X0102299Y0254856D01*
X0101966Y0255189D01*
X0101705Y0255580D01*
X0101527Y0256010D01*
X0101527Y0252942D01*
X0101532Y0252953D01*
X0101793Y0253345D01*
X0102126Y0253678D01*
X0102518Y0253939D01*
X0102953Y0254120D01*
X0103415Y0254211D01*
X0104844Y0254211D01*
X0104844Y0250627D01*
X0105212Y0250627D01*
X0105212Y0254211D01*
X0106641Y0254211D01*
X0107103Y0254120D01*
X0107538Y0253939D01*
X0107930Y0253678D01*
X0108263Y0253345D01*
X0108524Y0252953D01*
X0108585Y0252807D01*
X0109690Y0253911D01*
X0114177Y0253911D01*
X0115402Y0252687D01*
X0115402Y0252443D01*
X0115844Y0252443D01*
X0116493Y0253092D01*
X0122066Y0253092D01*
X0122626Y0252532D01*
X0123186Y0253092D01*
X0128759Y0253092D01*
X0129563Y0252288D01*
X0130019Y0252744D01*
X0131121Y0253200D01*
X0132315Y0253200D01*
X0133417Y0252744D01*
X0134261Y0251900D01*
X0134718Y0250797D01*
X0134718Y0249604D01*
X0134261Y0248501D01*
X0133417Y0247657D01*
X0132315Y0247200D01*
X0131121Y0247200D01*
X0130019Y0247657D01*
X0129638Y0248038D01*
X0129638Y0247034D01*
X0128759Y0246155D01*
X0123186Y0246155D01*
X0122626Y0246715D01*
X0122066Y0246155D01*
X0116493Y0246155D01*
X0115614Y0247034D01*
X0115614Y0248443D01*
X0115402Y0248443D01*
X0115402Y0248199D01*
X0114177Y0246974D01*
X0109690Y0246974D01*
X0108585Y0248079D01*
X0108524Y0247933D01*
X0108263Y0247541D01*
X0107930Y0247208D01*
X0107538Y0246946D01*
X0107103Y0246766D01*
X0106641Y0246674D01*
X0105212Y0246674D01*
X0105212Y0250259D01*
X0104844Y0250259D01*
X0104844Y0246674D01*
X0103415Y0246674D01*
X0102953Y0246766D01*
X0102518Y0246946D01*
X0102126Y0247208D01*
X0101793Y0247541D01*
X0101532Y0247933D01*
X0101527Y0247944D01*
X0101527Y0198456D01*
X0101846Y0198776D01*
X0104028Y0200957D01*
X0106288Y0200957D01*
X0106288Y0203122D01*
X0107166Y0204000D01*
X0121007Y0204000D01*
X0121886Y0203122D01*
X0121886Y0200957D01*
X0125029Y0200957D01*
X0128452Y0204380D01*
X0128421Y0204380D01*
X0127318Y0204837D01*
X0126474Y0205681D01*
X0126018Y0206783D01*
X0126018Y0207977D01*
X0126474Y0209079D01*
X0127018Y0209623D01*
X0127018Y0209682D01*
X0126458Y0209682D01*
X0125579Y0210561D01*
X0125579Y0211851D01*
X0121886Y0211851D01*
X0121886Y0209686D01*
X0121007Y0208807D01*
X0107166Y0208807D01*
X0106288Y0209686D01*
X0106288Y0218015D01*
X0107166Y0218894D01*
X0121007Y0218894D01*
X0121886Y0218015D01*
X0121886Y0215851D01*
X0125579Y0215851D01*
X0125579Y0216134D01*
X0126139Y0216694D01*
X0125579Y0217254D01*
X0125579Y0222827D01*
X0126458Y0223706D01*
X0131637Y0223706D01*
X0132516Y0222827D01*
X0132516Y0221772D01*
X0134851Y0221772D01*
X0136023Y0220600D01*
X0139053Y0217570D01*
X0139053Y0216036D01*
X0141455Y0216036D01*
X0141455Y0217807D01*
X0142334Y0218686D01*
X0149482Y0218686D01*
X0150360Y0217807D01*
X0150360Y0212412D01*
X0150510Y0212262D01*
X0150510Y0217807D01*
X0151389Y0218686D01*
X0158537Y0218686D01*
X0159416Y0217807D01*
X0159416Y0211542D01*
X0160186Y0212312D01*
X0160186Y0215872D01*
X0160534Y0216220D01*
X0160246Y0216508D01*
X0160009Y0216918D01*
X0159886Y0217376D01*
X0159886Y0219594D01*
X0163470Y0219594D01*
X0163470Y0219962D01*
X0159886Y0219962D01*
X0159886Y0222181D01*
X0160009Y0222638D01*
X0160246Y0223049D01*
X0160581Y0223384D01*
X0160991Y0223621D01*
X0161449Y0223744D01*
X0163470Y0223744D01*
X0163470Y0219963D01*
X0163839Y0219963D01*
X0163839Y0223744D01*
X0165860Y0223744D01*
X0166318Y0223621D01*
X0166728Y0223384D01*
X0167063Y0223049D01*
X0167300Y0222638D01*
X0167423Y0222181D01*
X0167423Y0219962D01*
X0163839Y0219962D01*
X0163839Y0219594D01*
X0167423Y0219594D01*
X0167423Y0217376D01*
X0167300Y0216918D01*
X0167063Y0216508D01*
X0166775Y0216220D01*
X0167123Y0215872D01*
X0167123Y0210299D01*
X0166244Y0209420D01*
X0162950Y0209420D01*
X0161365Y0207835D01*
X0160194Y0206663D01*
X0156358Y0206663D01*
X0158493Y0204528D01*
X0158493Y0204256D01*
X0159893Y0202856D01*
X0159893Y0204528D01*
X0162412Y0207047D01*
X0165974Y0207047D01*
X0168378Y0204643D01*
X0177075Y0204643D01*
X0179515Y0202203D01*
X0179515Y0203094D01*
X0178548Y0204061D01*
X0178015Y0205348D01*
X0178015Y0206740D01*
X0178548Y0208027D01*
X0179532Y0209011D01*
X0180819Y0209544D01*
X0182211Y0209544D01*
X0183498Y0209011D01*
X0184033Y0208476D01*
X0184033Y0215121D01*
X0185997Y0217086D01*
X0185997Y0217431D01*
X0184583Y0216017D01*
X0181021Y0216017D01*
X0178502Y0218536D01*
X0178502Y0222098D01*
X0181021Y0224617D01*
X0184583Y0224617D01*
X0185997Y0223203D01*
X0185997Y0224561D01*
X0184541Y0226017D01*
X0181021Y0226017D01*
X0178502Y0228536D01*
X0178502Y0232098D01*
X0181021Y0234617D01*
X0184583Y0234617D01*
X0185925Y0233276D01*
X0185925Y0242551D01*
X0185227Y0242262D01*
X0183834Y0242262D01*
X0182548Y0242795D01*
X0181564Y0243779D01*
X0181031Y0245065D01*
X0181031Y0246458D01*
X0181564Y0247744D01*
X0182531Y0248712D01*
X0182531Y0252760D01*
X0180020Y0252760D01*
X0179142Y0253639D01*
X0179142Y0255070D01*
X0178738Y0254096D01*
X0177875Y0253233D01*
X0178389Y0251992D01*
X0178389Y0250600D01*
X0177857Y0249314D01*
X0176872Y0248329D01*
X0175586Y0247796D01*
X0174193Y0247796D01*
X0172907Y0248329D01*
X0171922Y0249314D01*
X0171796Y0249619D01*
X0169972Y0249619D01*
X0169872Y0249519D01*
X0168215Y0249519D01*
X0166569Y0251165D01*
X0166569Y0248116D01*
X0167888Y0248116D01*
X0168766Y0247238D01*
X0168766Y0243436D01*
X0168010Y0242679D01*
X0168766Y0241923D01*
X0168766Y0238121D01*
X0167888Y0237242D01*
X0166313Y0237242D01*
X0166641Y0236914D01*
X0168100Y0236914D01*
X0169067Y0237881D01*
X0170353Y0238414D01*
X0171745Y0238414D01*
X0173032Y0237881D01*
X0174016Y0236897D01*
X0174549Y0235610D01*
X0174549Y0234218D01*
X0174016Y0232932D01*
X0173032Y0231947D01*
X0171745Y0231414D01*
X0170353Y0231414D01*
X0169067Y0231947D01*
X0168100Y0232914D01*
X0166224Y0232914D01*
X0166224Y0232459D01*
X0165691Y0231172D01*
X0164707Y0230188D01*
X0163420Y0229655D01*
X0162028Y0229655D01*
X0160742Y0230188D01*
X0159758Y0231171D01*
X0159177Y0230591D01*
X0157824Y0230030D01*
X0156360Y0230030D01*
X0155007Y0230591D01*
X0153971Y0231626D01*
X0153411Y0232979D01*
X0153411Y0234444D01*
X0153971Y0235796D01*
X0154933Y0236758D01*
X0154933Y0237537D01*
X0154349Y0238121D01*
X0154349Y0241923D01*
X0155106Y0242679D01*
X0154349Y0243436D01*
X0154349Y0246463D01*
X0153502Y0247310D01*
X0153502Y0252168D01*
X0152638Y0251809D01*
X0151245Y0251809D01*
X0149959Y0252342D01*
X0148974Y0253327D01*
X0148441Y0254613D01*
X0148441Y0256006D01*
X0148974Y0257292D01*
X0149186Y0257503D01*
X0148905Y0257784D01*
X0148905Y0258264D01*
X0146072Y0255432D01*
X0146072Y0228528D01*
X0149482Y0228528D01*
X0150323Y0227687D01*
X0150333Y0227723D01*
X0150570Y0228134D01*
X0150905Y0228469D01*
X0151315Y0228706D01*
X0151773Y0228828D01*
X0154286Y0228828D01*
X0154286Y0224555D01*
X0155639Y0224555D01*
X0159716Y0224555D01*
X0159716Y0227265D01*
X0159593Y0227723D01*
X0159356Y0228134D01*
X0159021Y0228469D01*
X0158610Y0228706D01*
X0158152Y0228828D01*
X0155639Y0228828D01*
X0155639Y0224555D01*
X0155639Y0223202D01*
X0155639Y0218929D01*
X0158152Y0218929D01*
X0158610Y0219052D01*
X0159021Y0219289D01*
X0159356Y0219624D01*
X0159593Y0220034D01*
X0159716Y0220492D01*
X0159716Y0223202D01*
X0155639Y0223202D01*
X0154286Y0223202D01*
X0154286Y0218929D01*
X0151773Y0218929D01*
X0151315Y0219052D01*
X0150905Y0219289D01*
X0150570Y0219624D01*
X0150333Y0220034D01*
X0150323Y0220071D01*
X0149482Y0219229D01*
X0142334Y0219229D01*
X0141455Y0220108D01*
X0141455Y0227650D01*
X0142072Y0228267D01*
X0142072Y0257089D01*
X0143243Y0258260D01*
X0147771Y0262788D01*
X0143016Y0262700D01*
X0143001Y0262684D01*
X0142191Y0262684D01*
X0141381Y0262669D01*
X0141366Y0262684D01*
X0141344Y0262684D01*
X0140772Y0263257D01*
X0140188Y0263819D01*
X0140188Y0263841D01*
X0135754Y0268274D01*
X0135749Y0268274D01*
X0135168Y0268860D01*
X0134587Y0269442D01*
X0134587Y0269447D01*
X0134583Y0269451D01*
X0134587Y0270276D01*
X0134587Y0271099D01*
X0134591Y0271103D01*
X0134773Y0309465D01*
X0120481Y0323757D01*
X0119309Y0324929D01*
X0119309Y0353242D01*
X0130139Y0364072D01*
X0129912Y0364621D01*
X0129912Y0366411D01*
X0130597Y0368065D01*
X0131862Y0369331D01*
X0133516Y0370016D01*
X0135307Y0370016D01*
X0136961Y0369331D01*
X0138226Y0368065D01*
X0138911Y0366411D01*
X0138911Y0364621D01*
X0138226Y0362967D01*
X0136961Y0361701D01*
X0135307Y0361016D01*
X0133516Y0361016D01*
X0132967Y0361244D01*
X0123309Y0351586D01*
X0123309Y0344416D01*
X0123395Y0344528D01*
X0124000Y0345133D01*
X0124679Y0345653D01*
X0125419Y0346081D01*
X0126210Y0346408D01*
X0127036Y0346630D01*
X0127536Y0346696D01*
X0127536Y0340991D01*
X0129087Y0340991D01*
X0134791Y0340991D01*
X0134725Y0341492D01*
X0134503Y0342318D01*
X0134176Y0343108D01*
X0133748Y0343849D01*
X0133228Y0344528D01*
X0132623Y0345133D01*
X0132478Y0345244D01*
X0135200Y0344116D01*
X0138423Y0344116D01*
X0141400Y0345350D01*
X0143678Y0347628D01*
X0144911Y0350605D01*
X0144911Y0353828D01*
X0143678Y0356805D01*
X0141400Y0359083D01*
X0138423Y0360316D01*
X0135200Y0360316D01*
X0132223Y0359083D01*
X0129945Y0356805D01*
X0128712Y0353828D01*
X0128712Y0350605D01*
X0129945Y0347628D01*
X0131885Y0345687D01*
X0131204Y0346081D01*
X0130413Y0346408D01*
X0129587Y0346630D01*
X0129087Y0346696D01*
X0129087Y0340991D01*
X0129087Y0339441D01*
X0134791Y0339441D01*
X0134725Y0338941D01*
X0134503Y0338114D01*
X0134176Y0337324D01*
X0133748Y0336583D01*
X0133228Y0335905D01*
X0132623Y0335300D01*
X0131944Y0334779D01*
X0131204Y0334352D01*
X0130413Y0334024D01*
X0129587Y0333803D01*
X0129087Y0333737D01*
X0129087Y0339441D01*
X0127536Y0339441D01*
X0127536Y0333737D01*
X0127036Y0333803D01*
X0126210Y0334024D01*
X0125419Y0334352D01*
X0124679Y0334779D01*
X0124000Y0335300D01*
X0123395Y0335905D01*
X0123309Y0336017D01*
X0123309Y0326586D01*
X0132247Y0317647D01*
X0132247Y0326381D01*
X0169939Y0364072D01*
X0169712Y0364621D01*
X0169712Y0366411D01*
X0170397Y0368065D01*
X0171662Y0369331D01*
X0173316Y0370016D01*
X0175107Y0370016D01*
X0176761Y0369331D01*
X0178026Y0368065D01*
X0178711Y0366411D01*
X0178711Y0364621D01*
X0178026Y0362967D01*
X0176761Y0361701D01*
X0175107Y0361016D01*
X0173316Y0361016D01*
X0172767Y0361244D01*
X0136247Y0324724D01*
X0136247Y0317040D01*
X0137488Y0315800D01*
X0137374Y0316151D01*
X0137262Y0316858D01*
X0137262Y0317141D01*
X0141736Y0317141D01*
X0141736Y0317291D01*
X0137262Y0317291D01*
X0137262Y0317574D01*
X0137374Y0318282D01*
X0137595Y0318963D01*
X0137920Y0319601D01*
X0138341Y0320180D01*
X0138847Y0320687D01*
X0139427Y0321108D01*
X0140065Y0321433D01*
X0140746Y0321654D01*
X0141453Y0321766D01*
X0141736Y0321766D01*
X0141736Y0317291D01*
X0141887Y0317291D01*
X0146361Y0317291D01*
X0146361Y0317574D01*
X0146249Y0318282D01*
X0146028Y0318963D01*
X0145703Y0319601D01*
X0145282Y0320180D01*
X0144776Y0320687D01*
X0144196Y0321108D01*
X0143558Y0321433D01*
X0142877Y0321654D01*
X0142170Y0321766D01*
X0141887Y0321766D01*
X0141887Y0317291D01*
X0141887Y0317141D01*
X0146361Y0317141D01*
X0146361Y0316858D01*
X0146249Y0316151D01*
X0146028Y0315470D01*
X0145703Y0314832D01*
X0145282Y0314252D01*
X0144776Y0313746D01*
X0144196Y0313325D01*
X0143558Y0313000D01*
X0142877Y0312778D01*
X0142170Y0312666D01*
X0141887Y0312666D01*
X0141887Y0317141D01*
X0141736Y0317141D01*
X0141736Y0312666D01*
X0141453Y0312666D01*
X0140746Y0312778D01*
X0140395Y0312892D01*
X0141477Y0311811D01*
X0141477Y0285591D01*
X0141913Y0286643D01*
X0142948Y0287678D01*
X0144301Y0288239D01*
X0145765Y0288239D01*
X0147118Y0287678D01*
X0148154Y0286643D01*
X0148714Y0285290D01*
X0148714Y0283826D01*
X0148154Y0282473D01*
X0147118Y0281437D01*
X0146995Y0281386D01*
X0146995Y0281008D01*
X0147585Y0281008D01*
X0148464Y0280130D01*
X0148464Y0274893D01*
X0148768Y0275198D01*
X0149981Y0275700D01*
X0149619Y0276062D01*
X0149619Y0281242D01*
X0150204Y0281826D01*
X0150014Y0281936D01*
X0149679Y0282271D01*
X0149442Y0282681D01*
X0149319Y0283139D01*
X0149319Y0285160D01*
X0153100Y0285160D01*
X0153100Y0285529D01*
X0149319Y0285529D01*
X0149319Y0287550D01*
X0149442Y0288008D01*
X0149679Y0288418D01*
X0150014Y0288754D01*
X0150425Y0288990D01*
X0150882Y0289113D01*
X0153100Y0289113D01*
X0153100Y0285529D01*
X0153469Y0285529D01*
X0153469Y0289113D01*
X0155452Y0289113D01*
X0155452Y0314899D01*
X0155414Y0314809D01*
X0154219Y0313613D01*
X0152657Y0312966D01*
X0150966Y0312966D01*
X0149404Y0313613D01*
X0148209Y0314809D01*
X0147562Y0316371D01*
X0147562Y0318062D01*
X0148209Y0319624D01*
X0149404Y0320819D01*
X0150966Y0321466D01*
X0152657Y0321466D01*
X0154219Y0320819D01*
X0155414Y0319624D01*
X0155452Y0319534D01*
X0155452Y0320264D01*
X0158506Y0323318D01*
X0157657Y0322966D01*
X0155966Y0322966D01*
X0154404Y0323613D01*
X0153209Y0324809D01*
X0152562Y0326371D01*
X0152562Y0328062D01*
X0153209Y0329624D01*
X0154404Y0330819D01*
X0155966Y0331466D01*
X0157657Y0331466D01*
X0159219Y0330819D01*
X0160414Y0329624D01*
X0161061Y0328062D01*
X0161061Y0326371D01*
X0160710Y0325522D01*
X0162562Y0327374D01*
X0162562Y0328062D01*
X0163209Y0329624D01*
X0164404Y0330819D01*
X0165966Y0331466D01*
X0167657Y0331466D01*
X0169219Y0330819D01*
X0170414Y0329624D01*
X0171061Y0328062D01*
X0171061Y0326371D01*
X0170510Y0325040D01*
X0172562Y0327091D01*
X0172562Y0328062D01*
X0173209Y0329624D01*
X0174404Y0330819D01*
X0175966Y0331466D01*
X0177657Y0331466D01*
X0179219Y0330819D01*
X0180414Y0329624D01*
X0181061Y0328062D01*
X0181061Y0326371D01*
X0180414Y0324809D01*
X0179219Y0323613D01*
X0177657Y0322966D01*
X0175966Y0322966D01*
X0174642Y0323515D01*
X0172593Y0321466D01*
X0172657Y0321466D01*
X0174219Y0320819D01*
X0175414Y0319624D01*
X0175857Y0318555D01*
X0177642Y0317975D01*
X0177642Y0317975D01*
X0180893Y0315613D01*
X0180893Y0315613D01*
X0180893Y0315613D01*
X0183255Y0312362D01*
X0183255Y0312362D01*
X0184497Y0308540D01*
X0184497Y0289845D01*
X0183427Y0286550D01*
X0183427Y0286550D01*
X0181390Y0283747D01*
X0181390Y0283747D01*
X0178588Y0281711D01*
X0178588Y0281711D01*
X0175293Y0280641D01*
X0172086Y0280641D01*
X0171034Y0280558D01*
X0170060Y0280241D01*
X0170949Y0279351D01*
X0171482Y0278065D01*
X0171482Y0276673D01*
X0170949Y0275386D01*
X0169965Y0274402D01*
X0168678Y0273869D01*
X0167377Y0273869D01*
X0167377Y0270850D01*
X0168707Y0270850D01*
X0168849Y0270993D01*
X0169962Y0272106D01*
X0187879Y0272106D01*
X0191977Y0268008D01*
X0192119Y0268008D01*
X0193290Y0266836D01*
X0193290Y0263024D01*
X0193559Y0262755D01*
X0193559Y0260073D01*
X0194595Y0259037D01*
X0194595Y0259037D01*
X0197019Y0256613D01*
X0197019Y0257856D01*
X0197580Y0259209D01*
X0198615Y0260244D01*
X0199968Y0260805D01*
X0201433Y0260805D01*
X0202786Y0260244D01*
X0203821Y0259209D01*
X0203870Y0259090D01*
X0214718Y0259090D01*
X0215202Y0259574D01*
X0219004Y0259574D01*
X0219600Y0258979D01*
X0219711Y0259090D01*
X0220033Y0259090D01*
X0220517Y0259574D01*
X0224319Y0259574D01*
X0225198Y0258696D01*
X0225198Y0255940D01*
X0225805Y0255940D01*
X0227569Y0254176D01*
X0228741Y0253004D01*
X0228741Y0233427D01*
X0227102Y0231789D01*
X0227102Y0228536D01*
X0226693Y0228127D01*
X0229799Y0225021D01*
X0229799Y0223819D01*
X0230897Y0224917D01*
X0232702Y0224917D01*
X0232702Y0220417D01*
X0232902Y0220417D01*
X0232902Y0224917D01*
X0234708Y0224917D01*
X0237402Y0222223D01*
X0237402Y0220417D01*
X0232902Y0220417D01*
X0232902Y0220217D01*
X0237402Y0220217D01*
X0237402Y0218412D01*
X0237010Y0218019D01*
X0238027Y0218019D01*
X0241464Y0214582D01*
X0241464Y0193760D01*
X0241765Y0193460D01*
X0244443Y0193460D01*
X0244443Y0203153D01*
X0244360Y0203187D01*
X0243376Y0204171D01*
X0242843Y0205458D01*
X0242843Y0206850D01*
X0243376Y0208136D01*
X0244360Y0209121D01*
X0245647Y0209654D01*
X0247039Y0209654D01*
X0248325Y0209121D01*
X0249310Y0208136D01*
X0249843Y0206850D01*
X0249843Y0205458D01*
X0249310Y0204171D01*
X0248325Y0203187D01*
X0248243Y0203153D01*
X0248243Y0199602D01*
X0253288Y0204647D01*
X0256311Y0204647D01*
X0258711Y0207047D01*
X0262273Y0207047D01*
X0264792Y0204528D01*
X0264792Y0200966D01*
X0263580Y0199754D01*
X0266173Y0199754D01*
X0267286Y0198641D01*
X0268879Y0197047D01*
X0272273Y0197047D01*
X0274556Y0194764D01*
X0283223Y0194800D01*
X0283223Y0196315D01*
X0284102Y0197194D01*
X0291250Y0197194D01*
X0292091Y0196353D01*
X0292101Y0196389D01*
X0292338Y0196799D01*
X0292673Y0197134D01*
X0293083Y0197371D01*
X0293541Y0197494D01*
X0296054Y0197494D01*
X0296054Y0193221D01*
X0297407Y0193221D01*
X0297407Y0197494D01*
X0299921Y0197494D01*
X0300378Y0197371D01*
X0300789Y0197134D01*
X0301124Y0196799D01*
X0301361Y0196389D01*
X0301484Y0195931D01*
X0301484Y0193221D01*
X0297407Y0193221D01*
X0297407Y0191868D01*
X0297407Y0187595D01*
X0299921Y0187595D01*
X0300378Y0187717D01*
X0300789Y0187954D01*
X0301124Y0188289D01*
X0301361Y0188700D01*
X0301484Y0189158D01*
X0301484Y0191868D01*
X0297407Y0191868D01*
X0296054Y0191868D01*
X0296054Y0187595D01*
X0293541Y0187595D01*
X0293083Y0187717D01*
X0292673Y0187954D01*
X0292338Y0188289D01*
X0292101Y0188700D01*
X0292091Y0188736D01*
X0291250Y0187895D01*
X0284102Y0187895D01*
X0283223Y0188773D01*
X0283223Y0190800D01*
X0274590Y0190764D01*
X0272273Y0188447D01*
X0268711Y0188447D01*
X0266192Y0190966D01*
X0266192Y0194360D01*
X0264599Y0195954D01*
X0263367Y0195954D01*
X0264792Y0194528D01*
X0264792Y0190966D01*
X0263594Y0189767D01*
X0266159Y0189767D01*
X0267272Y0188654D01*
X0267272Y0188654D01*
X0268879Y0187047D01*
X0272273Y0187047D01*
X0274792Y0184528D01*
X0274792Y0180997D01*
X0277871Y0184076D01*
X0278475Y0184690D01*
X0278485Y0184690D01*
X0278493Y0184698D01*
X0279353Y0184698D01*
X0283223Y0184731D01*
X0283223Y0186473D01*
X0284102Y0187351D01*
X0291250Y0187351D01*
X0292128Y0186473D01*
X0292128Y0178931D01*
X0291250Y0178052D01*
X0289976Y0178052D01*
X0289976Y0176821D01*
X0291203Y0176821D01*
X0291551Y0176474D01*
X0291839Y0176762D01*
X0292249Y0176999D01*
X0292707Y0177121D01*
X0294925Y0177121D01*
X0294925Y0173537D01*
X0295293Y0173537D01*
X0295293Y0177121D01*
X0297511Y0177121D01*
X0297969Y0176999D01*
X0298380Y0176762D01*
X0298715Y0176427D01*
X0298952Y0176016D01*
X0299074Y0175558D01*
X0299074Y0173537D01*
X0295293Y0173537D01*
X0295293Y0173169D01*
X0295293Y0169584D01*
X0297511Y0169584D01*
X0297969Y0169707D01*
X0298380Y0169944D01*
X0298715Y0170279D01*
X0298952Y0170690D01*
X0299074Y0171147D01*
X0299074Y0173169D01*
X0295293Y0173169D01*
X0294925Y0173169D01*
X0294925Y0169584D01*
X0292707Y0169584D01*
X0292249Y0169707D01*
X0291839Y0169944D01*
X0291551Y0170232D01*
X0291203Y0169884D01*
X0285630Y0169884D01*
X0284751Y0170763D01*
X0284751Y0175943D01*
X0285376Y0176568D01*
X0285376Y0178052D01*
X0284102Y0178052D01*
X0283223Y0178931D01*
X0283223Y0180530D01*
X0280240Y0180505D01*
X0275232Y0175498D01*
X0274247Y0175498D01*
X0275092Y0174653D01*
X0275092Y0172847D01*
X0270592Y0172847D01*
X0270592Y0172647D01*
X0270592Y0168147D01*
X0272398Y0168147D01*
X0275092Y0170842D01*
X0275092Y0172647D01*
X0270592Y0172647D01*
X0270392Y0172647D01*
X0270392Y0168147D01*
X0268587Y0168147D01*
X0265892Y0170842D01*
X0265892Y0172647D01*
X0270392Y0172647D01*
X0270392Y0172847D01*
X0265892Y0172847D01*
X0265892Y0174653D01*
X0266737Y0175498D01*
X0264803Y0175498D01*
X0264313Y0175008D01*
X0264792Y0174528D01*
X0264792Y0170966D01*
X0262592Y0168766D01*
X0262592Y0166728D01*
X0264792Y0164528D01*
X0264792Y0160966D01*
X0262273Y0158447D01*
X0259021Y0158447D01*
X0254471Y0153897D01*
X0256192Y0153896D01*
X0256192Y0154528D01*
X0258711Y0157047D01*
X0262273Y0157047D01*
X0264792Y0154528D01*
X0264792Y0150966D01*
X0263741Y0149915D01*
X0266012Y0149915D01*
X0267125Y0148802D01*
X0267125Y0148802D01*
X0268879Y0147047D01*
X0272273Y0147047D01*
X0274792Y0144528D01*
X0274792Y0140966D01*
X0272273Y0138447D01*
X0270759Y0138447D01*
X0271401Y0137805D01*
X0272159Y0137047D01*
X0272273Y0137047D01*
X0274792Y0134528D01*
X0274792Y0130966D01*
X0272273Y0128447D01*
X0268711Y0128447D01*
X0266192Y0130966D01*
X0266192Y0134528D01*
X0267472Y0135808D01*
X0263513Y0135808D01*
X0264792Y0134528D01*
X0264792Y0130966D01*
X0262273Y0128447D01*
X0258711Y0128447D01*
X0256192Y0130966D01*
X0256192Y0134528D01*
X0256541Y0134877D01*
X0256541Y0135118D01*
X0251762Y0139897D01*
X0251762Y0142225D01*
X0246029Y0142225D01*
X0245838Y0142035D01*
X0239871Y0142035D01*
X0238992Y0142913D01*
X0238992Y0160249D01*
X0238815Y0160556D01*
X0238692Y0161014D01*
X0238692Y0161021D01*
X0238524Y0160853D01*
X0237237Y0160320D01*
X0235845Y0160320D01*
X0235011Y0160666D01*
X0235265Y0150106D01*
X0235284Y0150088D01*
X0235284Y0149324D01*
X0235302Y0148560D01*
X0235284Y0148540D01*
X0235284Y0148514D01*
X0234830Y0148060D01*
X0236054Y0147553D01*
X0237039Y0146569D01*
X0237571Y0145282D01*
X0237571Y0143890D01*
X0237531Y0143791D01*
X0237865Y0143457D01*
X0237865Y0140410D01*
X0238055Y0140219D01*
X0238055Y0134252D01*
X0237177Y0133373D01*
X0235589Y0133373D01*
X0235282Y0133196D01*
X0234824Y0133073D01*
X0234198Y0133073D01*
X0236852Y0130419D01*
X0245706Y0130419D01*
X0252402Y0123724D01*
X0253573Y0122552D01*
X0253573Y0113000D01*
X0251643Y0111069D01*
X0251643Y0107817D01*
X0249602Y0105776D01*
X0251426Y0103952D01*
X0283844Y0103952D01*
X0299402Y0088394D01*
X0300573Y0087223D01*
X0300573Y0045618D01*
X0300936Y0045618D01*
X0301814Y0044740D01*
X0301814Y0027861D01*
X0302005Y0027861D01*
X0302005Y0048353D01*
X0303205Y0049554D01*
X0319366Y0049554D01*
X0319370Y0052108D01*
X0313425Y0052108D01*
X0311925Y0052973D01*
X0311925Y0052973D01*
X0311925Y0052973D01*
X0311198Y0054233D01*
X0311060Y0054371D01*
X0311060Y0079942D01*
X0305179Y0079942D01*
X0305101Y0079864D01*
X0303402Y0079864D01*
X0302201Y0081064D01*
X0302201Y0105400D01*
X0303402Y0106601D01*
X0305101Y0106601D01*
X0306301Y0105400D01*
X0306301Y0084042D01*
X0313959Y0084042D01*
X0315160Y0082841D01*
X0315160Y0056208D01*
X0319377Y0056208D01*
X0319909Y0380648D01*
X0082551Y0379675D01*
X0082557Y0374289D01*
X0083011Y0374619D01*
X0083739Y0374990D01*
X0084517Y0375243D01*
X0085325Y0375371D01*
X0085402Y0375371D01*
X0085402Y0370507D01*
X0086066Y0370507D01*
X0090929Y0370507D01*
X0090929Y0370584D01*
X0090801Y0371392D01*
X0090549Y0372169D01*
X0090177Y0372898D01*
X0089697Y0373560D01*
X0089119Y0374138D01*
X0088457Y0374619D01*
X0087728Y0374990D01*
X0086950Y0375243D01*
X0086143Y0375371D01*
X0086066Y0375371D01*
X0086066Y0370507D01*
X0086066Y0369843D01*
X0090929Y0369843D01*
X0090929Y0369766D01*
X0090801Y0368958D01*
X0090549Y0368181D01*
X0090177Y0367452D01*
X0089697Y0366790D01*
X0089119Y0366212D01*
X0088457Y0365731D01*
X0087728Y0365360D01*
X0086950Y0365107D01*
X0086143Y0364979D01*
X0086066Y0364979D01*
X0086066Y0369843D01*
X0085402Y0369843D01*
X0085402Y0364979D01*
X0085325Y0364979D01*
X0084517Y0365107D01*
X0083739Y0365360D01*
X0083011Y0365731D01*
X0082567Y0366054D01*
X0082568Y0364701D01*
X0085057Y0364701D01*
X0085057Y0360625D01*
X0086410Y0360625D01*
X0086410Y0364701D01*
X0089022Y0364701D01*
X0089480Y0364579D01*
X0089890Y0364342D01*
X0090225Y0364007D01*
X0090462Y0363596D01*
X0090585Y0363138D01*
X0090585Y0360625D01*
X0086410Y0360625D01*
X0086410Y0359272D01*
X0086410Y0352751D01*
X0085057Y0352751D01*
X0085057Y0356827D01*
X0085057Y0359272D01*
X0086410Y0359272D01*
X0090585Y0359272D01*
X0090585Y0356759D01*
X0090462Y0356301D01*
X0090295Y0356012D01*
X0090462Y0355722D01*
X0090585Y0355264D01*
X0090585Y0352751D01*
X0086410Y0352751D01*
X0086410Y0351398D01*
X0086410Y0347322D01*
X0089022Y0347322D01*
X0089480Y0347445D01*
X0089890Y0347682D01*
X0090225Y0348017D01*
X0090462Y0348427D01*
X0090585Y0348885D01*
X0090585Y0351398D01*
X0086410Y0351398D01*
X0085057Y0351398D01*
X0085057Y0347322D01*
X0082589Y0347322D01*
X0082590Y0345986D01*
X0083011Y0346292D01*
X0083739Y0346663D01*
X0084517Y0346916D01*
X0085325Y0347044D01*
X0085402Y0347044D01*
X0085402Y0342180D01*
X0086066Y0342180D01*
X0090929Y0342180D01*
X0090929Y0342257D01*
X0090801Y0343065D01*
X0090549Y0343843D01*
X0090177Y0344571D01*
X0089697Y0345233D01*
X0089119Y0345811D01*
X0088457Y0346292D01*
X0087728Y0346663D01*
X0086950Y0346916D01*
X0086143Y0347044D01*
X0086066Y0347044D01*
X0086066Y0342180D01*
X0086066Y0341516D01*
X0090929Y0341516D01*
X0090929Y0341439D01*
X0090801Y0340632D01*
X0090549Y0339854D01*
X0090177Y0339125D01*
X0089697Y0338463D01*
X0089119Y0337885D01*
X0088457Y0337405D01*
X0087728Y0337033D01*
X0086950Y0336781D01*
X0086143Y0336653D01*
X0086066Y0336653D01*
X0086066Y0341516D01*
X0085402Y0341516D01*
X0085402Y0336653D01*
X0085325Y0336653D01*
X0084517Y0336781D01*
X0083739Y0337033D01*
X0083011Y0337405D01*
X0082600Y0337703D01*
X0082931Y0056404D01*
X0086650Y0056404D01*
X0086650Y0083235D01*
X0087851Y0084436D01*
X0095509Y0084436D01*
X0095509Y0105400D01*
X0096709Y0106601D01*
X0098408Y0106601D01*
X0099608Y0105400D01*
X0099608Y0081537D01*
X0098408Y0080336D01*
X0090750Y0080336D01*
X0090750Y0054670D01*
X0089884Y0053170D01*
X0089884Y0053170D01*
X0088811Y0052551D01*
X0088565Y0052305D01*
X0082935Y0052305D01*
X0082936Y0051493D02*
X0097851Y0051493D01*
X0097808Y0049895D02*
X0082938Y0049895D01*
X0089748Y0053092D02*
X0097895Y0053092D01*
X0097938Y0054690D02*
X0090750Y0054690D01*
X0090750Y0056289D02*
X0097981Y0056289D01*
X0098024Y0057887D02*
X0090750Y0057887D01*
X0090750Y0059486D02*
X0098067Y0059486D01*
X0098110Y0061084D02*
X0090750Y0061084D01*
X0090750Y0062683D02*
X0098153Y0062683D01*
X0098197Y0064281D02*
X0090750Y0064281D01*
X0090750Y0065880D02*
X0098240Y0065880D01*
X0098283Y0067478D02*
X0090750Y0067478D01*
X0090750Y0069077D02*
X0098326Y0069077D01*
X0098369Y0070675D02*
X0090750Y0070675D01*
X0090750Y0072274D02*
X0098412Y0072274D01*
X0098455Y0073872D02*
X0090750Y0073872D01*
X0090750Y0075471D02*
X0098499Y0075471D01*
X0098672Y0077069D02*
X0090750Y0077069D01*
X0090750Y0078668D02*
X0105190Y0078668D01*
X0105190Y0080266D02*
X0090750Y0080266D01*
X0086650Y0080266D02*
X0082903Y0080266D01*
X0082904Y0078668D02*
X0086650Y0078668D01*
X0086650Y0077069D02*
X0082906Y0077069D01*
X0082908Y0075471D02*
X0086650Y0075471D01*
X0086650Y0073872D02*
X0082910Y0073872D01*
X0082912Y0072274D02*
X0086650Y0072274D01*
X0086650Y0070675D02*
X0082914Y0070675D01*
X0082916Y0069077D02*
X0086650Y0069077D01*
X0086650Y0067478D02*
X0082918Y0067478D01*
X0082919Y0065880D02*
X0086650Y0065880D01*
X0086650Y0064281D02*
X0082921Y0064281D01*
X0082923Y0062683D02*
X0086650Y0062683D01*
X0086650Y0061084D02*
X0082925Y0061084D01*
X0082927Y0059486D02*
X0086650Y0059486D01*
X0086650Y0057887D02*
X0082929Y0057887D01*
X0089884Y0053170D02*
X0089884Y0053170D01*
X0111390Y0078668D02*
X0174399Y0078668D01*
X0174399Y0080266D02*
X0111390Y0080266D01*
X0111390Y0081865D02*
X0174399Y0081865D01*
X0174399Y0083463D02*
X0111390Y0083463D01*
X0111390Y0085062D02*
X0174399Y0085062D01*
X0174399Y0086661D02*
X0159229Y0086661D01*
X0159791Y0088259D02*
X0174399Y0088259D01*
X0174399Y0089858D02*
X0159589Y0089858D01*
X0158458Y0091456D02*
X0161550Y0091456D01*
X0164355Y0091456D02*
X0164723Y0091456D01*
X0164723Y0093055D02*
X0164355Y0093055D01*
X0164355Y0094653D02*
X0164723Y0094653D01*
X0164723Y0096252D02*
X0164355Y0096252D01*
X0164355Y0097850D02*
X0164723Y0097850D01*
X0163046Y0099449D02*
X0174399Y0099449D01*
X0174399Y0101047D02*
X0164645Y0101047D01*
X0166244Y0102646D02*
X0174399Y0102646D01*
X0174399Y0104244D02*
X0167842Y0104244D01*
X0169441Y0105843D02*
X0174399Y0105843D01*
X0173418Y0107441D02*
X0171039Y0107441D01*
X0172638Y0109040D02*
X0173043Y0109040D01*
X0171427Y0111081D02*
X0160698Y0100352D01*
X0157903Y0100352D01*
X0155288Y0102968D01*
X0155288Y0107838D01*
X0154927Y0125967D01*
X0149969Y0130926D01*
X0149969Y0133632D01*
X0152493Y0136157D01*
X0155017Y0136157D01*
X0157452Y0133722D01*
X0157452Y0130654D01*
X0160878Y0127228D01*
X0166286Y0127228D01*
X0169984Y0130926D01*
X0169984Y0138593D01*
X0171772Y0140381D01*
X0171718Y0140251D01*
X0171718Y0138787D01*
X0172279Y0137434D01*
X0173314Y0136398D01*
X0174667Y0135838D01*
X0176132Y0135838D01*
X0177485Y0136398D01*
X0178520Y0137434D01*
X0179080Y0138787D01*
X0179080Y0140251D01*
X0178520Y0141604D01*
X0177874Y0142251D01*
X0178778Y0143155D01*
X0184900Y0143096D01*
X0188794Y0144302D01*
X0189253Y0144676D01*
X0189758Y0144885D01*
X0190743Y0145870D01*
X0190756Y0145903D01*
X0194986Y0149355D01*
X0194465Y0187194D01*
X0219602Y0187369D01*
X0219603Y0183889D01*
X0203882Y0183905D01*
X0199441Y0183777D01*
X0198115Y0183882D01*
X0198297Y0147321D01*
X0188803Y0141098D01*
X0187509Y0141098D01*
X0186630Y0140219D01*
X0186630Y0139460D01*
X0185491Y0138321D01*
X0183240Y0138321D01*
X0180429Y0135509D01*
X0179756Y0135509D01*
X0176501Y0132254D01*
X0175388Y0131141D01*
X0175388Y0130468D01*
X0173771Y0128852D01*
X0173771Y0123800D01*
X0171427Y0121456D01*
X0171427Y0111081D01*
X0170983Y0110638D02*
X0155232Y0110638D01*
X0155264Y0109040D02*
X0169385Y0109040D01*
X0167786Y0107441D02*
X0155288Y0107441D01*
X0155288Y0105843D02*
X0166188Y0105843D01*
X0164589Y0104244D02*
X0155288Y0104244D01*
X0155610Y0102646D02*
X0162991Y0102646D01*
X0161392Y0101047D02*
X0157209Y0101047D01*
X0155126Y0099449D02*
X0137279Y0099449D01*
X0137279Y0101047D02*
X0153177Y0101047D01*
X0152988Y0102646D02*
X0136526Y0102646D01*
X0136542Y0104244D02*
X0152988Y0104244D01*
X0154414Y0097850D02*
X0137279Y0097850D01*
X0137279Y0096252D02*
X0154181Y0096252D01*
X0154181Y0094653D02*
X0111390Y0094653D01*
X0111390Y0093055D02*
X0154181Y0093055D01*
X0154125Y0091456D02*
X0111390Y0091456D01*
X0111390Y0089858D02*
X0152994Y0089858D01*
X0152791Y0088259D02*
X0111390Y0088259D01*
X0111390Y0086661D02*
X0153354Y0086661D01*
X0167528Y0091456D02*
X0174399Y0091456D01*
X0174399Y0093055D02*
X0168504Y0093055D01*
X0168504Y0094653D02*
X0174399Y0094653D01*
X0174399Y0096252D02*
X0168504Y0096252D01*
X0168290Y0097850D02*
X0174399Y0097850D01*
X0178199Y0097850D02*
X0200527Y0097850D01*
X0200527Y0096252D02*
X0178199Y0096252D01*
X0178199Y0094653D02*
X0200527Y0094653D01*
X0200527Y0093055D02*
X0178199Y0093055D01*
X0178199Y0091456D02*
X0200527Y0091456D01*
X0200527Y0089858D02*
X0178199Y0089858D01*
X0178199Y0088259D02*
X0200527Y0088259D01*
X0200527Y0086661D02*
X0178199Y0086661D01*
X0178199Y0085062D02*
X0200527Y0085062D01*
X0200527Y0083463D02*
X0178199Y0083463D01*
X0178199Y0081865D02*
X0200527Y0081865D01*
X0200527Y0080266D02*
X0178199Y0080266D01*
X0178199Y0078668D02*
X0200527Y0078668D01*
X0200527Y0077069D02*
X0178199Y0077069D01*
X0178199Y0075471D02*
X0200527Y0075471D01*
X0200527Y0073872D02*
X0178199Y0073872D01*
X0178199Y0072274D02*
X0200527Y0072274D01*
X0200527Y0070675D02*
X0178199Y0070675D01*
X0178199Y0069077D02*
X0200527Y0069077D01*
X0200527Y0068707D02*
X0194530Y0062711D01*
X0193359Y0061540D01*
X0193359Y0045618D01*
X0190244Y0045618D01*
X0178199Y0045618D01*
X0178199Y0105298D01*
X0179124Y0105298D01*
X0181643Y0107817D01*
X0181643Y0111211D01*
X0184136Y0113704D01*
X0184136Y0116723D01*
X0185562Y0115298D01*
X0189124Y0115298D01*
X0190305Y0116479D01*
X0190305Y0115247D01*
X0188956Y0113898D01*
X0185562Y0113898D01*
X0183043Y0111379D01*
X0183043Y0107817D01*
X0185562Y0105298D01*
X0189124Y0105298D01*
X0191643Y0107817D01*
X0191643Y0111211D01*
X0192992Y0112560D01*
X0194105Y0113673D01*
X0194105Y0116754D01*
X0195562Y0115298D01*
X0199124Y0115298D01*
X0200600Y0116774D01*
X0200600Y0115542D01*
X0198956Y0113898D01*
X0195562Y0113898D01*
X0193043Y0111379D01*
X0193043Y0107817D01*
X0195562Y0105298D01*
X0199124Y0105298D01*
X0200527Y0106701D01*
X0200527Y0068707D01*
X0199298Y0067478D02*
X0178199Y0067478D01*
X0178199Y0065880D02*
X0197699Y0065880D01*
X0196101Y0064281D02*
X0178199Y0064281D01*
X0178199Y0062683D02*
X0194502Y0062683D01*
X0193359Y0061084D02*
X0178199Y0061084D01*
X0178199Y0059486D02*
X0193359Y0059486D01*
X0193359Y0057887D02*
X0178199Y0057887D01*
X0178199Y0056289D02*
X0193359Y0056289D01*
X0193359Y0054690D02*
X0178199Y0054690D01*
X0178199Y0053092D02*
X0193359Y0053092D01*
X0193359Y0051493D02*
X0178199Y0051493D01*
X0178199Y0049895D02*
X0193359Y0049895D01*
X0193359Y0048296D02*
X0178199Y0048296D01*
X0178199Y0046698D02*
X0193359Y0046698D01*
X0174399Y0046698D02*
X0119267Y0046698D01*
X0119262Y0048296D02*
X0174399Y0048296D01*
X0174399Y0049895D02*
X0119258Y0049895D01*
X0119253Y0051493D02*
X0174399Y0051493D01*
X0174399Y0053092D02*
X0119248Y0053092D01*
X0119244Y0054690D02*
X0174399Y0054690D01*
X0174399Y0056289D02*
X0119239Y0056289D01*
X0119234Y0057887D02*
X0174399Y0057887D01*
X0174399Y0059486D02*
X0119230Y0059486D01*
X0119225Y0061084D02*
X0174399Y0061084D01*
X0174399Y0062683D02*
X0119220Y0062683D01*
X0119216Y0064281D02*
X0174399Y0064281D01*
X0174399Y0065880D02*
X0119211Y0065880D01*
X0119206Y0067478D02*
X0174399Y0067478D01*
X0174399Y0069077D02*
X0119202Y0069077D01*
X0119197Y0070675D02*
X0174399Y0070675D01*
X0174399Y0072274D02*
X0119193Y0072274D01*
X0119188Y0073872D02*
X0174399Y0073872D01*
X0174399Y0075471D02*
X0119190Y0075471D01*
X0119179Y0077069D02*
X0174399Y0077069D01*
X0178199Y0099449D02*
X0200527Y0099449D01*
X0200527Y0101047D02*
X0178199Y0101047D01*
X0178199Y0102646D02*
X0200527Y0102646D01*
X0200527Y0104244D02*
X0178199Y0104244D01*
X0179669Y0105843D02*
X0185017Y0105843D01*
X0183418Y0107441D02*
X0181267Y0107441D01*
X0181643Y0109040D02*
X0183043Y0109040D01*
X0183043Y0110638D02*
X0181643Y0110638D01*
X0182669Y0112237D02*
X0183901Y0112237D01*
X0184136Y0113835D02*
X0185499Y0113835D01*
X0185426Y0115434D02*
X0184136Y0115434D01*
X0189260Y0115434D02*
X0190305Y0115434D01*
X0194105Y0115434D02*
X0195426Y0115434D01*
X0195499Y0113835D02*
X0194105Y0113835D01*
X0193901Y0112237D02*
X0192669Y0112237D01*
X0193043Y0110638D02*
X0191643Y0110638D01*
X0191643Y0109040D02*
X0193043Y0109040D01*
X0193418Y0107441D02*
X0191267Y0107441D01*
X0189669Y0105843D02*
X0195017Y0105843D01*
X0199669Y0105843D02*
X0200527Y0105843D01*
X0200492Y0115434D02*
X0199260Y0115434D01*
X0181133Y0136214D02*
X0177040Y0136214D01*
X0178677Y0137813D02*
X0182732Y0137813D01*
X0179080Y0139411D02*
X0186582Y0139411D01*
X0187421Y0141010D02*
X0178766Y0141010D01*
X0178232Y0142608D02*
X0191107Y0142608D01*
X0193546Y0144207D02*
X0188488Y0144207D01*
X0190678Y0145805D02*
X0195985Y0145805D01*
X0198297Y0147404D02*
X0192595Y0147404D01*
X0194554Y0149002D02*
X0198289Y0149002D01*
X0198281Y0150601D02*
X0194968Y0150601D01*
X0194946Y0152199D02*
X0198273Y0152199D01*
X0198265Y0153798D02*
X0194924Y0153798D01*
X0194902Y0155397D02*
X0198257Y0155397D01*
X0198249Y0156995D02*
X0194880Y0156995D01*
X0194858Y0158594D02*
X0198241Y0158594D01*
X0198233Y0160192D02*
X0194836Y0160192D01*
X0194814Y0161791D02*
X0198225Y0161791D01*
X0198217Y0163389D02*
X0194792Y0163389D01*
X0194770Y0164988D02*
X0198209Y0164988D01*
X0198201Y0166586D02*
X0194748Y0166586D01*
X0194726Y0168185D02*
X0198193Y0168185D01*
X0198185Y0169783D02*
X0194704Y0169783D01*
X0194682Y0171382D02*
X0198177Y0171382D01*
X0198169Y0172980D02*
X0194660Y0172980D01*
X0194638Y0174579D02*
X0198161Y0174579D01*
X0198153Y0176177D02*
X0194616Y0176177D01*
X0194594Y0177776D02*
X0198145Y0177776D01*
X0198137Y0179374D02*
X0194572Y0179374D01*
X0194550Y0180973D02*
X0198129Y0180973D01*
X0198121Y0182571D02*
X0194528Y0182571D01*
X0194506Y0184170D02*
X0219603Y0184170D01*
X0219603Y0185768D02*
X0194484Y0185768D01*
X0200426Y0181504D02*
X0203914Y0181605D01*
X0218650Y0181590D01*
X0218651Y0181589D01*
X0219604Y0181589D01*
X0220553Y0181588D01*
X0220554Y0181589D01*
X0220556Y0181589D01*
X0221225Y0182259D01*
X0221902Y0182934D01*
X0221902Y0182935D01*
X0221903Y0182937D01*
X0221903Y0183885D01*
X0221904Y0184839D01*
X0221903Y0184840D01*
X0221903Y0185031D01*
X0233530Y0185031D01*
X0233868Y0184693D01*
X0233484Y0184309D01*
X0232952Y0183022D01*
X0232952Y0181630D01*
X0233484Y0180344D01*
X0234469Y0179359D01*
X0235755Y0178826D01*
X0236899Y0178826D01*
X0236082Y0178009D01*
X0234797Y0177477D01*
X0233812Y0176492D01*
X0233279Y0175206D01*
X0233279Y0173814D01*
X0233812Y0172527D01*
X0234422Y0171917D01*
X0234190Y0171685D01*
X0233657Y0170399D01*
X0233657Y0169006D01*
X0234190Y0167720D01*
X0234957Y0166952D01*
X0234559Y0166787D01*
X0234270Y0166499D01*
X0233860Y0166939D01*
X0233794Y0166942D01*
X0233746Y0166988D01*
X0233016Y0166970D01*
X0229635Y0167093D01*
X0229596Y0167131D01*
X0228856Y0167121D01*
X0228117Y0167148D01*
X0228077Y0167111D01*
X0228022Y0167111D01*
X0227506Y0166580D01*
X0226964Y0166077D01*
X0226962Y0166022D01*
X0226924Y0165983D01*
X0226934Y0165243D01*
X0226907Y0164504D01*
X0226944Y0164464D01*
X0226993Y0160706D01*
X0226969Y0160688D01*
X0226943Y0160502D01*
X0226814Y0160364D01*
X0226835Y0159744D01*
X0226747Y0159130D01*
X0226860Y0158980D01*
X0227003Y0154715D01*
X0200560Y0154715D01*
X0200426Y0181504D01*
X0200429Y0180973D02*
X0233224Y0180973D01*
X0232952Y0182571D02*
X0221539Y0182571D01*
X0221903Y0184170D02*
X0233427Y0184170D01*
X0234454Y0179374D02*
X0213267Y0179374D01*
X0212671Y0179621D02*
X0211279Y0179621D01*
X0209993Y0179088D01*
X0209008Y0178103D01*
X0208475Y0176817D01*
X0208475Y0175425D01*
X0209008Y0174138D01*
X0209993Y0173154D01*
X0211279Y0172621D01*
X0212671Y0172621D01*
X0213958Y0173154D01*
X0214942Y0174138D01*
X0215475Y0175425D01*
X0215475Y0176817D01*
X0214942Y0178103D01*
X0213958Y0179088D01*
X0212671Y0179621D01*
X0210684Y0179374D02*
X0200437Y0179374D01*
X0200445Y0177776D02*
X0208872Y0177776D01*
X0208475Y0176177D02*
X0200453Y0176177D01*
X0200461Y0174579D02*
X0208826Y0174579D01*
X0210412Y0172980D02*
X0200469Y0172980D01*
X0200477Y0171382D02*
X0234064Y0171382D01*
X0233657Y0169783D02*
X0200485Y0169783D01*
X0200493Y0168185D02*
X0233998Y0168185D01*
X0234189Y0166586D02*
X0234357Y0166586D01*
X0233625Y0172980D02*
X0213539Y0172980D01*
X0215125Y0174579D02*
X0233279Y0174579D01*
X0233682Y0176177D02*
X0215475Y0176177D01*
X0215078Y0177776D02*
X0235518Y0177776D01*
X0227512Y0166586D02*
X0200501Y0166586D01*
X0200509Y0164988D02*
X0226925Y0164988D01*
X0226958Y0163389D02*
X0200517Y0163389D01*
X0200525Y0161791D02*
X0226979Y0161791D01*
X0226820Y0160192D02*
X0200533Y0160192D01*
X0200541Y0158594D02*
X0226873Y0158594D01*
X0226927Y0156995D02*
X0200549Y0156995D01*
X0200557Y0155397D02*
X0226980Y0155397D01*
X0235138Y0155397D02*
X0238992Y0155397D01*
X0238992Y0156995D02*
X0235099Y0156995D01*
X0235061Y0158594D02*
X0238992Y0158594D01*
X0238992Y0160192D02*
X0235022Y0160192D01*
X0235176Y0153798D02*
X0238992Y0153798D01*
X0238992Y0152199D02*
X0235215Y0152199D01*
X0235253Y0150601D02*
X0238992Y0150601D01*
X0238992Y0149002D02*
X0235292Y0149002D01*
X0236203Y0147404D02*
X0238992Y0147404D01*
X0238992Y0145805D02*
X0237355Y0145805D01*
X0237571Y0144207D02*
X0238992Y0144207D01*
X0239297Y0142608D02*
X0237865Y0142608D01*
X0237865Y0141010D02*
X0251762Y0141010D01*
X0252247Y0139411D02*
X0238055Y0139411D01*
X0238055Y0137813D02*
X0253846Y0137813D01*
X0255444Y0136214D02*
X0238055Y0136214D01*
X0238055Y0134616D02*
X0256280Y0134616D01*
X0256192Y0133017D02*
X0234254Y0133017D01*
X0233996Y0133275D02*
X0233996Y0133275D01*
X0233996Y0134130D01*
X0233996Y0134130D01*
X0233996Y0134130D01*
X0233996Y0133275D01*
X0235853Y0131419D02*
X0256192Y0131419D01*
X0257338Y0129820D02*
X0246305Y0129820D01*
X0247903Y0128222D02*
X0319495Y0128222D01*
X0319498Y0129820D02*
X0273646Y0129820D01*
X0274792Y0131419D02*
X0319500Y0131419D01*
X0319503Y0133017D02*
X0274792Y0133017D01*
X0274705Y0134616D02*
X0319506Y0134616D01*
X0319508Y0136214D02*
X0273106Y0136214D01*
X0271393Y0137813D02*
X0319511Y0137813D01*
X0319513Y0139411D02*
X0273238Y0139411D01*
X0274792Y0141010D02*
X0319516Y0141010D01*
X0319519Y0142608D02*
X0274792Y0142608D01*
X0274792Y0144207D02*
X0319521Y0144207D01*
X0319524Y0145805D02*
X0273515Y0145805D01*
X0272398Y0148147D02*
X0270592Y0148147D01*
X0270592Y0152647D01*
X0270392Y0152647D01*
X0265892Y0152647D01*
X0265892Y0150842D01*
X0268587Y0148147D01*
X0270392Y0148147D01*
X0270392Y0152647D01*
X0270392Y0152847D01*
X0265892Y0152847D01*
X0265892Y0154653D01*
X0268587Y0157347D01*
X0270392Y0157347D01*
X0270392Y0152847D01*
X0270592Y0152847D01*
X0270592Y0157347D01*
X0272398Y0157347D01*
X0275092Y0154653D01*
X0275092Y0152847D01*
X0270592Y0152847D01*
X0270592Y0152647D01*
X0275092Y0152647D01*
X0275092Y0150842D01*
X0272398Y0148147D01*
X0273253Y0149002D02*
X0319529Y0149002D01*
X0319527Y0147404D02*
X0268523Y0147404D01*
X0267732Y0149002D02*
X0266924Y0149002D01*
X0266133Y0150601D02*
X0264427Y0150601D01*
X0264792Y0152199D02*
X0265892Y0152199D01*
X0265892Y0153798D02*
X0264792Y0153798D01*
X0263924Y0155397D02*
X0266636Y0155397D01*
X0268235Y0156995D02*
X0262326Y0156995D01*
X0262420Y0158594D02*
X0268141Y0158594D01*
X0268587Y0158147D02*
X0265892Y0160842D01*
X0265892Y0162647D01*
X0270392Y0162647D01*
X0270392Y0162847D01*
X0265892Y0162847D01*
X0265892Y0164653D01*
X0268587Y0167347D01*
X0270392Y0167347D01*
X0270392Y0162847D01*
X0270592Y0162847D01*
X0270592Y0167347D01*
X0272398Y0167347D01*
X0275092Y0164653D01*
X0275092Y0162847D01*
X0270592Y0162847D01*
X0270592Y0162647D01*
X0270592Y0158147D01*
X0272398Y0158147D01*
X0275092Y0160842D01*
X0275092Y0162647D01*
X0270592Y0162647D01*
X0270392Y0162647D01*
X0270392Y0158147D01*
X0268587Y0158147D01*
X0270392Y0158594D02*
X0270592Y0158594D01*
X0270592Y0160192D02*
X0270392Y0160192D01*
X0270392Y0161791D02*
X0270592Y0161791D01*
X0270592Y0163389D02*
X0270392Y0163389D01*
X0270392Y0164988D02*
X0270592Y0164988D01*
X0270592Y0166586D02*
X0270392Y0166586D01*
X0270392Y0168185D02*
X0270592Y0168185D01*
X0270592Y0169783D02*
X0270392Y0169783D01*
X0270392Y0171382D02*
X0270592Y0171382D01*
X0272435Y0168185D02*
X0319561Y0168185D01*
X0319563Y0169783D02*
X0298101Y0169783D01*
X0299074Y0171382D02*
X0319566Y0171382D01*
X0319568Y0172980D02*
X0299074Y0172980D01*
X0299074Y0174579D02*
X0319571Y0174579D01*
X0319574Y0176177D02*
X0298859Y0176177D01*
X0300305Y0178052D02*
X0301184Y0178931D01*
X0301184Y0186473D01*
X0300305Y0187351D01*
X0293157Y0187351D01*
X0292278Y0186473D01*
X0292278Y0178931D01*
X0293157Y0178052D01*
X0300305Y0178052D01*
X0301184Y0179374D02*
X0319579Y0179374D01*
X0319576Y0177776D02*
X0289976Y0177776D01*
X0292128Y0179374D02*
X0292278Y0179374D01*
X0292278Y0180973D02*
X0292128Y0180973D01*
X0292128Y0182571D02*
X0292278Y0182571D01*
X0292278Y0184170D02*
X0292128Y0184170D01*
X0292128Y0185768D02*
X0292278Y0185768D01*
X0296054Y0188965D02*
X0297407Y0188965D01*
X0297407Y0190564D02*
X0296054Y0190564D01*
X0297407Y0192162D02*
X0319600Y0192162D01*
X0319597Y0190564D02*
X0301484Y0190564D01*
X0301432Y0188965D02*
X0319595Y0188965D01*
X0319592Y0187367D02*
X0268560Y0187367D01*
X0268193Y0188965D02*
X0266961Y0188965D01*
X0266595Y0190564D02*
X0264390Y0190564D01*
X0264792Y0192162D02*
X0266192Y0192162D01*
X0266192Y0193761D02*
X0264792Y0193761D01*
X0265193Y0195359D02*
X0263961Y0195359D01*
X0267370Y0198556D02*
X0268178Y0198556D01*
X0268587Y0198147D02*
X0265892Y0200842D01*
X0265892Y0202647D01*
X0270392Y0202647D01*
X0270392Y0202847D01*
X0265892Y0202847D01*
X0265892Y0204653D01*
X0268587Y0207347D01*
X0270392Y0207347D01*
X0270392Y0202847D01*
X0270592Y0202847D01*
X0270592Y0207347D01*
X0272398Y0207347D01*
X0275092Y0204653D01*
X0275092Y0202847D01*
X0270592Y0202847D01*
X0270592Y0202647D01*
X0270592Y0198147D01*
X0272398Y0198147D01*
X0275092Y0200842D01*
X0275092Y0202647D01*
X0270592Y0202647D01*
X0270392Y0202647D01*
X0270392Y0198147D01*
X0268587Y0198147D01*
X0270392Y0198556D02*
X0270592Y0198556D01*
X0270592Y0200155D02*
X0270392Y0200155D01*
X0270392Y0201753D02*
X0270592Y0201753D01*
X0270592Y0203352D02*
X0270392Y0203352D01*
X0270392Y0204950D02*
X0270592Y0204950D01*
X0270592Y0206549D02*
X0270392Y0206549D01*
X0267789Y0206549D02*
X0262772Y0206549D01*
X0264370Y0204950D02*
X0266190Y0204950D01*
X0265892Y0203352D02*
X0264792Y0203352D01*
X0264792Y0201753D02*
X0265892Y0201753D01*
X0266579Y0200155D02*
X0263981Y0200155D01*
X0258213Y0206549D02*
X0249843Y0206549D01*
X0249633Y0204950D02*
X0256614Y0204950D01*
X0251992Y0203352D02*
X0248490Y0203352D01*
X0248243Y0201753D02*
X0250394Y0201753D01*
X0248795Y0200155D02*
X0248243Y0200155D01*
X0244443Y0200155D02*
X0241464Y0200155D01*
X0241464Y0201753D02*
X0244443Y0201753D01*
X0244195Y0203352D02*
X0241464Y0203352D01*
X0241464Y0204950D02*
X0243053Y0204950D01*
X0242843Y0206549D02*
X0241464Y0206549D01*
X0241464Y0208147D02*
X0243386Y0208147D01*
X0241464Y0209746D02*
X0319629Y0209746D01*
X0319631Y0211344D02*
X0241464Y0211344D01*
X0241464Y0212943D02*
X0319634Y0212943D01*
X0319637Y0214541D02*
X0241464Y0214541D01*
X0241947Y0216017D02*
X0243658Y0216017D01*
X0245238Y0216672D01*
X0246448Y0217882D01*
X0247102Y0219462D01*
X0247102Y0221173D01*
X0246448Y0222753D01*
X0245238Y0223963D01*
X0244802Y0224143D01*
X0244802Y0226236D01*
X0247102Y0228536D01*
X0247102Y0232098D01*
X0244583Y0234617D01*
X0241021Y0234617D01*
X0238502Y0232098D01*
X0238502Y0228536D01*
X0240802Y0226236D01*
X0240802Y0224143D01*
X0240367Y0223963D01*
X0239157Y0222753D01*
X0238502Y0221173D01*
X0238502Y0219462D01*
X0239157Y0217882D01*
X0240367Y0216672D01*
X0241947Y0216017D01*
X0241651Y0216140D02*
X0239907Y0216140D01*
X0239300Y0217738D02*
X0238308Y0217738D01*
X0238554Y0219337D02*
X0237402Y0219337D01*
X0237402Y0220935D02*
X0238502Y0220935D01*
X0239066Y0222534D02*
X0237091Y0222534D01*
X0235492Y0224132D02*
X0240777Y0224132D01*
X0240802Y0225731D02*
X0234721Y0225731D01*
X0234708Y0225717D02*
X0237402Y0228412D01*
X0237402Y0230217D01*
X0232902Y0230217D01*
X0232902Y0225717D01*
X0234708Y0225717D01*
X0232902Y0225731D02*
X0232702Y0225731D01*
X0232702Y0225717D02*
X0232702Y0230217D01*
X0232902Y0230217D01*
X0232902Y0230417D01*
X0237402Y0230417D01*
X0237402Y0232223D01*
X0234708Y0234917D01*
X0232902Y0234917D01*
X0232902Y0230417D01*
X0232702Y0230417D01*
X0232702Y0230217D01*
X0228202Y0230217D01*
X0228202Y0228412D01*
X0230897Y0225717D01*
X0232702Y0225717D01*
X0232702Y0224132D02*
X0232902Y0224132D01*
X0232902Y0222534D02*
X0232702Y0222534D01*
X0232702Y0220935D02*
X0232902Y0220935D01*
X0230112Y0224132D02*
X0229799Y0224132D01*
X0229089Y0225731D02*
X0230883Y0225731D01*
X0229285Y0227330D02*
X0227490Y0227330D01*
X0227102Y0228928D02*
X0228202Y0228928D01*
X0228202Y0230417D02*
X0232702Y0230417D01*
X0232702Y0234917D01*
X0230897Y0234917D01*
X0228202Y0232223D01*
X0228202Y0230417D01*
X0228202Y0230527D02*
X0227102Y0230527D01*
X0227438Y0232125D02*
X0228202Y0232125D01*
X0228741Y0233724D02*
X0229703Y0233724D01*
X0228741Y0235322D02*
X0319671Y0235322D01*
X0319668Y0233724D02*
X0245477Y0233724D01*
X0247076Y0232125D02*
X0319665Y0232125D01*
X0319663Y0230527D02*
X0247102Y0230527D01*
X0247102Y0228928D02*
X0319660Y0228928D01*
X0319657Y0227330D02*
X0245896Y0227330D01*
X0244802Y0225731D02*
X0319655Y0225731D01*
X0319652Y0224132D02*
X0244828Y0224132D01*
X0246538Y0222534D02*
X0319650Y0222534D01*
X0319647Y0220935D02*
X0247102Y0220935D01*
X0247051Y0219337D02*
X0319644Y0219337D01*
X0319642Y0217738D02*
X0246305Y0217738D01*
X0243954Y0216140D02*
X0319639Y0216140D01*
X0319626Y0208147D02*
X0249299Y0208147D01*
X0244443Y0198556D02*
X0241464Y0198556D01*
X0241464Y0196958D02*
X0244443Y0196958D01*
X0244443Y0195359D02*
X0241464Y0195359D01*
X0241464Y0193761D02*
X0244443Y0193761D01*
X0235892Y0202121D02*
X0235589Y0202121D01*
X0235282Y0202299D01*
X0234824Y0202421D01*
X0233996Y0202421D01*
X0233169Y0202421D01*
X0232711Y0202299D01*
X0232404Y0202121D01*
X0232107Y0202121D01*
X0232107Y0208570D01*
X0232100Y0208577D01*
X0232135Y0208660D01*
X0232135Y0210052D01*
X0231602Y0211339D01*
X0230617Y0212323D01*
X0230320Y0212446D01*
X0235772Y0212446D01*
X0235892Y0212326D01*
X0235892Y0202121D01*
X0235892Y0203352D02*
X0232107Y0203352D01*
X0232107Y0204950D02*
X0235892Y0204950D01*
X0235892Y0206549D02*
X0232107Y0206549D01*
X0232107Y0208147D02*
X0235892Y0208147D01*
X0235892Y0209746D02*
X0232135Y0209746D01*
X0231596Y0211344D02*
X0235892Y0211344D01*
X0233996Y0202421D02*
X0233996Y0201365D01*
X0233996Y0202421D01*
X0233996Y0201753D02*
X0233996Y0201753D01*
X0233996Y0201365D02*
X0233996Y0201365D01*
X0233996Y0201365D01*
X0219602Y0187367D02*
X0219291Y0187367D01*
X0184033Y0209746D02*
X0166570Y0209746D01*
X0167123Y0211344D02*
X0184033Y0211344D01*
X0184033Y0212943D02*
X0167123Y0212943D01*
X0167123Y0214541D02*
X0184033Y0214541D01*
X0184706Y0216140D02*
X0185052Y0216140D01*
X0180899Y0216140D02*
X0166855Y0216140D01*
X0167423Y0217738D02*
X0179300Y0217738D01*
X0178502Y0219337D02*
X0167423Y0219337D01*
X0167423Y0220935D02*
X0178502Y0220935D01*
X0178938Y0222534D02*
X0167328Y0222534D01*
X0163839Y0222534D02*
X0163470Y0222534D01*
X0163470Y0220935D02*
X0163839Y0220935D01*
X0159886Y0220935D02*
X0159716Y0220935D01*
X0159716Y0222534D02*
X0159981Y0222534D01*
X0159886Y0219337D02*
X0159069Y0219337D01*
X0159416Y0217738D02*
X0159886Y0217738D01*
X0159416Y0216140D02*
X0160454Y0216140D01*
X0160186Y0214541D02*
X0159416Y0214541D01*
X0159416Y0212943D02*
X0160186Y0212943D01*
X0161678Y0208147D02*
X0178669Y0208147D01*
X0178015Y0206549D02*
X0166473Y0206549D01*
X0168071Y0204950D02*
X0178180Y0204950D01*
X0178366Y0203352D02*
X0179257Y0203352D01*
X0161914Y0206549D02*
X0156473Y0206549D01*
X0158071Y0204950D02*
X0160315Y0204950D01*
X0159893Y0203352D02*
X0159398Y0203352D01*
X0157451Y0199924D02*
X0161370Y0196005D01*
X0159893Y0194528D01*
X0159893Y0192711D01*
X0159610Y0192994D01*
X0158493Y0192994D01*
X0158493Y0194528D01*
X0155974Y0197047D01*
X0152412Y0197047D01*
X0149893Y0194528D01*
X0149893Y0190966D01*
X0152412Y0188447D01*
X0155974Y0188447D01*
X0156721Y0189194D01*
X0158036Y0189194D01*
X0161297Y0185933D01*
X0159893Y0184528D01*
X0159893Y0183085D01*
X0159680Y0183298D01*
X0158567Y0184411D01*
X0158493Y0184411D01*
X0158493Y0184528D01*
X0155974Y0187047D01*
X0152412Y0187047D01*
X0149893Y0184528D01*
X0149893Y0180966D01*
X0152412Y0178447D01*
X0155974Y0178447D01*
X0157565Y0180038D01*
X0161484Y0176120D01*
X0159893Y0174528D01*
X0159893Y0170966D01*
X0161212Y0169647D01*
X0159980Y0169647D01*
X0158493Y0171134D01*
X0158493Y0174528D01*
X0155974Y0177047D01*
X0152412Y0177047D01*
X0149893Y0174528D01*
X0149893Y0170966D01*
X0152412Y0168447D01*
X0155806Y0168447D01*
X0158406Y0165847D01*
X0161212Y0165847D01*
X0159893Y0164528D01*
X0159893Y0162778D01*
X0159219Y0163452D01*
X0158493Y0164178D01*
X0158493Y0164528D01*
X0155974Y0167047D01*
X0152412Y0167047D01*
X0149893Y0164528D01*
X0149893Y0160966D01*
X0151777Y0159082D01*
X0150046Y0159082D01*
X0148874Y0157910D01*
X0143112Y0152148D01*
X0143106Y0152148D01*
X0142527Y0151563D01*
X0142059Y0151095D01*
X0142059Y0154580D01*
X0140888Y0155752D01*
X0130297Y0166343D01*
X0131362Y0166784D01*
X0132206Y0167628D01*
X0132663Y0168731D01*
X0132663Y0169924D01*
X0132206Y0171027D01*
X0131663Y0171570D01*
X0131663Y0172373D01*
X0131952Y0172373D01*
X0132831Y0173251D01*
X0132831Y0178825D01*
X0132483Y0179173D01*
X0132771Y0179461D01*
X0133008Y0179871D01*
X0133131Y0180329D01*
X0133131Y0182547D01*
X0129547Y0182547D01*
X0129547Y0182915D01*
X0133131Y0182915D01*
X0133131Y0185133D01*
X0133008Y0185591D01*
X0132771Y0186002D01*
X0132436Y0186337D01*
X0132026Y0186574D01*
X0131568Y0186696D01*
X0129547Y0186696D01*
X0129547Y0182915D01*
X0129178Y0182915D01*
X0129178Y0182547D01*
X0125594Y0182547D01*
X0125594Y0180329D01*
X0125717Y0179871D01*
X0125954Y0179461D01*
X0126242Y0179173D01*
X0125979Y0178910D01*
X0121886Y0178910D01*
X0121886Y0181074D01*
X0121007Y0181953D01*
X0107166Y0181953D01*
X0106288Y0181074D01*
X0106288Y0172745D01*
X0107166Y0171867D01*
X0121007Y0171867D01*
X0121886Y0172745D01*
X0121886Y0174910D01*
X0125894Y0174910D01*
X0125894Y0173251D01*
X0126773Y0172373D01*
X0127663Y0172373D01*
X0127663Y0171570D01*
X0127120Y0171027D01*
X0126678Y0169961D01*
X0125522Y0171117D01*
X0107115Y0171117D01*
X0104675Y0173558D01*
X0104675Y0185994D01*
X0110668Y0185994D01*
X0110704Y0185909D01*
X0111739Y0184874D01*
X0113092Y0184313D01*
X0114557Y0184313D01*
X0115909Y0184874D01*
X0116945Y0185909D01*
X0117505Y0187262D01*
X0117505Y0188727D01*
X0116945Y0190080D01*
X0115909Y0191115D01*
X0114557Y0191676D01*
X0113092Y0191676D01*
X0111739Y0191115D01*
X0110704Y0190080D01*
X0110668Y0189994D01*
X0104675Y0189994D01*
X0104675Y0195947D01*
X0105685Y0196957D01*
X0106288Y0196957D01*
X0106288Y0194792D01*
X0107166Y0193914D01*
X0121007Y0193914D01*
X0121886Y0194792D01*
X0121886Y0196957D01*
X0126686Y0196957D01*
X0137882Y0208153D01*
X0139053Y0209325D01*
X0139053Y0212036D01*
X0141455Y0212036D01*
X0141455Y0210265D01*
X0142334Y0209387D01*
X0147729Y0209387D01*
X0150452Y0206663D01*
X0152028Y0206663D01*
X0149893Y0204528D01*
X0149893Y0200966D01*
X0152412Y0198447D01*
X0155974Y0198447D01*
X0157451Y0199924D01*
X0156083Y0198556D02*
X0158819Y0198556D01*
X0160418Y0196958D02*
X0156064Y0196958D01*
X0157662Y0195359D02*
X0160724Y0195359D01*
X0159893Y0193761D02*
X0158493Y0193761D01*
X0158264Y0188965D02*
X0156492Y0188965D01*
X0157253Y0185768D02*
X0161133Y0185768D01*
X0159893Y0184170D02*
X0158808Y0184170D01*
X0159863Y0187367D02*
X0117505Y0187367D01*
X0117407Y0188965D02*
X0151894Y0188965D01*
X0150295Y0190564D02*
X0116461Y0190564D01*
X0111188Y0190564D02*
X0104675Y0190564D01*
X0104675Y0192162D02*
X0149893Y0192162D01*
X0149893Y0193761D02*
X0104675Y0193761D01*
X0104675Y0195359D02*
X0106288Y0195359D01*
X0101627Y0198556D02*
X0101527Y0198556D01*
X0101527Y0200155D02*
X0103226Y0200155D01*
X0101527Y0201753D02*
X0106288Y0201753D01*
X0106518Y0203352D02*
X0101527Y0203352D01*
X0101527Y0204950D02*
X0127205Y0204950D01*
X0127424Y0203352D02*
X0121656Y0203352D01*
X0121886Y0201753D02*
X0125825Y0201753D01*
X0128285Y0198556D02*
X0152303Y0198556D01*
X0152323Y0196958D02*
X0126686Y0196958D01*
X0129883Y0200155D02*
X0150704Y0200155D01*
X0149893Y0201753D02*
X0131482Y0201753D01*
X0133080Y0203352D02*
X0149893Y0203352D01*
X0150315Y0204950D02*
X0134679Y0204950D01*
X0136277Y0206549D02*
X0151914Y0206549D01*
X0148968Y0208147D02*
X0137876Y0208147D01*
X0139053Y0209746D02*
X0141974Y0209746D01*
X0141455Y0211344D02*
X0139053Y0211344D01*
X0139053Y0216140D02*
X0141455Y0216140D01*
X0141455Y0217738D02*
X0138885Y0217738D01*
X0137286Y0219337D02*
X0142226Y0219337D01*
X0141455Y0220935D02*
X0135688Y0220935D01*
X0132516Y0222534D02*
X0141455Y0222534D01*
X0141455Y0224132D02*
X0101527Y0224132D01*
X0101527Y0222534D02*
X0125579Y0222534D01*
X0125579Y0220935D02*
X0101527Y0220935D01*
X0101527Y0219337D02*
X0125579Y0219337D01*
X0125579Y0217738D02*
X0121886Y0217738D01*
X0121886Y0216140D02*
X0125585Y0216140D01*
X0125579Y0211344D02*
X0121886Y0211344D01*
X0121886Y0209746D02*
X0126394Y0209746D01*
X0126088Y0208147D02*
X0101527Y0208147D01*
X0101527Y0206549D02*
X0126115Y0206549D01*
X0121886Y0195359D02*
X0150724Y0195359D01*
X0151133Y0185768D02*
X0132906Y0185768D01*
X0133131Y0184170D02*
X0149893Y0184170D01*
X0149893Y0182571D02*
X0129547Y0182571D01*
X0129178Y0182571D02*
X0104675Y0182571D01*
X0104675Y0180973D02*
X0106288Y0180973D01*
X0106288Y0179374D02*
X0104675Y0179374D01*
X0104675Y0177776D02*
X0106288Y0177776D01*
X0106288Y0176177D02*
X0104675Y0176177D01*
X0104675Y0174579D02*
X0106288Y0174579D01*
X0106288Y0172980D02*
X0105253Y0172980D01*
X0106851Y0171382D02*
X0127475Y0171382D01*
X0126165Y0172980D02*
X0121886Y0172980D01*
X0121886Y0174579D02*
X0125894Y0174579D01*
X0126040Y0179374D02*
X0121886Y0179374D01*
X0121886Y0180973D02*
X0125594Y0180973D01*
X0125594Y0182915D02*
X0129178Y0182915D01*
X0129178Y0186696D01*
X0127157Y0186696D01*
X0126699Y0186574D01*
X0126289Y0186337D01*
X0125954Y0186002D01*
X0125717Y0185591D01*
X0125594Y0185133D01*
X0125594Y0182915D01*
X0125594Y0184170D02*
X0104675Y0184170D01*
X0104675Y0185768D02*
X0110845Y0185768D01*
X0116804Y0185768D02*
X0125819Y0185768D01*
X0129178Y0185768D02*
X0129547Y0185768D01*
X0129547Y0184170D02*
X0129178Y0184170D01*
X0133131Y0180973D02*
X0149893Y0180973D01*
X0151485Y0179374D02*
X0132685Y0179374D01*
X0132831Y0177776D02*
X0159828Y0177776D01*
X0158230Y0179374D02*
X0156901Y0179374D01*
X0156844Y0176177D02*
X0161427Y0176177D01*
X0159943Y0174579D02*
X0158443Y0174579D01*
X0158493Y0172980D02*
X0159893Y0172980D01*
X0159893Y0171382D02*
X0158493Y0171382D01*
X0159844Y0169783D02*
X0161076Y0169783D01*
X0157667Y0166586D02*
X0156435Y0166586D01*
X0156069Y0168185D02*
X0132437Y0168185D01*
X0132663Y0169783D02*
X0151076Y0169783D01*
X0149893Y0171382D02*
X0131851Y0171382D01*
X0132560Y0172980D02*
X0149893Y0172980D01*
X0149943Y0174579D02*
X0132831Y0174579D01*
X0132831Y0176177D02*
X0151542Y0176177D01*
X0151951Y0166586D02*
X0130884Y0166586D01*
X0131652Y0164988D02*
X0150352Y0164988D01*
X0149893Y0163389D02*
X0133250Y0163389D01*
X0134849Y0161791D02*
X0149893Y0161791D01*
X0150667Y0160192D02*
X0136447Y0160192D01*
X0138046Y0158594D02*
X0149557Y0158594D01*
X0147959Y0156995D02*
X0139644Y0156995D01*
X0141243Y0155397D02*
X0146360Y0155397D01*
X0144762Y0153798D02*
X0142059Y0153798D01*
X0142059Y0152199D02*
X0143163Y0152199D01*
X0138059Y0152199D02*
X0119093Y0152199D01*
X0119093Y0150601D02*
X0138059Y0150601D01*
X0138059Y0149002D02*
X0119093Y0149002D01*
X0119093Y0147404D02*
X0138059Y0147404D01*
X0138059Y0145805D02*
X0119093Y0145805D01*
X0119093Y0144207D02*
X0138059Y0144207D01*
X0138059Y0142608D02*
X0119093Y0142608D01*
X0119093Y0141010D02*
X0138059Y0141010D01*
X0138059Y0139411D02*
X0119093Y0139411D01*
X0119093Y0137813D02*
X0138059Y0137813D01*
X0138059Y0136214D02*
X0118887Y0136214D01*
X0119093Y0136420D02*
X0119093Y0155859D01*
X0112803Y0162148D01*
X0111456Y0163495D01*
X0111062Y0163495D01*
X0110241Y0164316D01*
X0108888Y0164877D01*
X0107424Y0164877D01*
X0106071Y0164316D01*
X0105035Y0163281D01*
X0104475Y0161928D01*
X0104475Y0160463D01*
X0105035Y0159110D01*
X0106071Y0158075D01*
X0107424Y0157514D01*
X0108888Y0157514D01*
X0110241Y0158075D01*
X0110306Y0158140D01*
X0112311Y0156135D01*
X0111617Y0155848D01*
X0111235Y0155466D01*
X0111159Y0155541D01*
X0107161Y0155541D01*
X0106282Y0154663D01*
X0106282Y0151648D01*
X0106350Y0151581D01*
X0106282Y0151513D01*
X0106282Y0148499D01*
X0107161Y0147620D01*
X0111159Y0147620D01*
X0111215Y0147676D01*
X0111927Y0146964D01*
X0113030Y0146507D01*
X0114223Y0146507D01*
X0114493Y0146619D01*
X0114493Y0138325D01*
X0113348Y0137181D01*
X0113348Y0133142D01*
X0112633Y0132427D01*
X0112633Y0127684D01*
X0113512Y0126805D01*
X0117854Y0126805D01*
X0118733Y0127684D01*
X0118733Y0132427D01*
X0117967Y0133192D01*
X0117967Y0134096D01*
X0117948Y0134115D01*
X0117948Y0135275D01*
X0119093Y0136420D01*
X0117948Y0134616D02*
X0138286Y0134616D01*
X0139825Y0133017D02*
X0139885Y0133017D01*
X0139814Y0128222D02*
X0149420Y0128222D01*
X0151018Y0126623D02*
X0082848Y0126623D01*
X0082850Y0125025D02*
X0109431Y0125025D01*
X0108639Y0123426D02*
X0082852Y0123426D01*
X0082854Y0121828D02*
X0108288Y0121828D01*
X0108288Y0120229D02*
X0082856Y0120229D01*
X0082857Y0118631D02*
X0108288Y0118631D01*
X0108288Y0117032D02*
X0082859Y0117032D01*
X0082861Y0115434D02*
X0102168Y0115434D01*
X0102168Y0113835D02*
X0082863Y0113835D01*
X0082865Y0112237D02*
X0102168Y0112237D01*
X0102168Y0110638D02*
X0082867Y0110638D01*
X0082869Y0109040D02*
X0102168Y0109040D01*
X0102168Y0107441D02*
X0082871Y0107441D01*
X0082872Y0105843D02*
X0095951Y0105843D01*
X0095509Y0104244D02*
X0082874Y0104244D01*
X0082876Y0102646D02*
X0095509Y0102646D01*
X0095509Y0101047D02*
X0082878Y0101047D01*
X0082880Y0099449D02*
X0095509Y0099449D01*
X0095509Y0097850D02*
X0082882Y0097850D01*
X0082884Y0096252D02*
X0095509Y0096252D01*
X0095509Y0094653D02*
X0082886Y0094653D01*
X0082888Y0093055D02*
X0095509Y0093055D01*
X0095509Y0091456D02*
X0082889Y0091456D01*
X0082891Y0089858D02*
X0095509Y0089858D01*
X0095509Y0088259D02*
X0082893Y0088259D01*
X0082895Y0086661D02*
X0095509Y0086661D01*
X0095509Y0085062D02*
X0082897Y0085062D01*
X0082899Y0083463D02*
X0086879Y0083463D01*
X0086650Y0081865D02*
X0082901Y0081865D01*
X0099608Y0081865D02*
X0105190Y0081865D01*
X0105190Y0083463D02*
X0099608Y0083463D01*
X0099608Y0085062D02*
X0105190Y0085062D01*
X0105190Y0086661D02*
X0099608Y0086661D01*
X0099608Y0088259D02*
X0105190Y0088259D01*
X0105190Y0089858D02*
X0099608Y0089858D01*
X0099608Y0091456D02*
X0105190Y0091456D01*
X0105190Y0093055D02*
X0099608Y0093055D01*
X0099608Y0094653D02*
X0105190Y0094653D01*
X0105190Y0096252D02*
X0099608Y0096252D01*
X0099608Y0097850D02*
X0105190Y0097850D01*
X0105190Y0099449D02*
X0099608Y0099449D01*
X0099608Y0101047D02*
X0105190Y0101047D01*
X0105190Y0102646D02*
X0099608Y0102646D01*
X0099608Y0104244D02*
X0102796Y0104244D01*
X0102168Y0105843D02*
X0099166Y0105843D01*
X0111626Y0104244D02*
X0118741Y0104244D01*
X0118113Y0105843D02*
X0112254Y0105843D01*
X0112254Y0107441D02*
X0118113Y0107441D01*
X0118113Y0109040D02*
X0112254Y0109040D01*
X0112254Y0110638D02*
X0118113Y0110638D01*
X0118113Y0112237D02*
X0113048Y0112237D01*
X0113688Y0113835D02*
X0118113Y0113835D01*
X0118113Y0115434D02*
X0113688Y0115434D01*
X0113688Y0117032D02*
X0118789Y0117032D01*
X0117192Y0118631D02*
X0113688Y0118631D01*
X0114933Y0120229D02*
X0116433Y0120229D01*
X0116433Y0121828D02*
X0114933Y0121828D01*
X0114933Y0123426D02*
X0116433Y0123426D01*
X0117031Y0125025D02*
X0114335Y0125025D01*
X0112633Y0128222D02*
X0082846Y0128222D01*
X0082844Y0129820D02*
X0112633Y0129820D01*
X0112633Y0131419D02*
X0082842Y0131419D01*
X0082841Y0133017D02*
X0113224Y0133017D01*
X0113348Y0134616D02*
X0082839Y0134616D01*
X0082837Y0136214D02*
X0113348Y0136214D01*
X0113980Y0137813D02*
X0082835Y0137813D01*
X0082833Y0139411D02*
X0114493Y0139411D01*
X0114493Y0141010D02*
X0082831Y0141010D01*
X0082829Y0142608D02*
X0114493Y0142608D01*
X0114493Y0144207D02*
X0082827Y0144207D01*
X0082826Y0145805D02*
X0114493Y0145805D01*
X0111487Y0147404D02*
X0082824Y0147404D01*
X0082822Y0149002D02*
X0096268Y0149002D01*
X0094669Y0150601D02*
X0082820Y0150601D01*
X0082818Y0152199D02*
X0093071Y0152199D01*
X0091472Y0153798D02*
X0082816Y0153798D01*
X0082814Y0155397D02*
X0090913Y0155397D01*
X0090913Y0156995D02*
X0082812Y0156995D01*
X0082810Y0158594D02*
X0090913Y0158594D01*
X0090913Y0160192D02*
X0082809Y0160192D01*
X0082807Y0161791D02*
X0090913Y0161791D01*
X0090913Y0163389D02*
X0082805Y0163389D01*
X0082803Y0164988D02*
X0090913Y0164988D01*
X0090913Y0166586D02*
X0082801Y0166586D01*
X0082799Y0168185D02*
X0090913Y0168185D01*
X0090913Y0169783D02*
X0082797Y0169783D01*
X0082795Y0171382D02*
X0090913Y0171382D01*
X0090913Y0172980D02*
X0082794Y0172980D01*
X0082792Y0174579D02*
X0090913Y0174579D01*
X0090913Y0176177D02*
X0082790Y0176177D01*
X0082788Y0177776D02*
X0090913Y0177776D01*
X0090913Y0179374D02*
X0082786Y0179374D01*
X0082784Y0180973D02*
X0090913Y0180973D01*
X0090913Y0182571D02*
X0082782Y0182571D01*
X0082780Y0184170D02*
X0090913Y0184170D01*
X0090913Y0185768D02*
X0082779Y0185768D01*
X0082777Y0187367D02*
X0090913Y0187367D01*
X0090913Y0188965D02*
X0082775Y0188965D01*
X0082773Y0190564D02*
X0090913Y0190564D01*
X0090913Y0192162D02*
X0082771Y0192162D01*
X0082769Y0193761D02*
X0090913Y0193761D01*
X0090913Y0195359D02*
X0082767Y0195359D01*
X0082765Y0196958D02*
X0090913Y0196958D01*
X0090913Y0198556D02*
X0082763Y0198556D01*
X0082762Y0200155D02*
X0090913Y0200155D01*
X0090913Y0201753D02*
X0082760Y0201753D01*
X0082758Y0203352D02*
X0090913Y0203352D01*
X0090913Y0204950D02*
X0082756Y0204950D01*
X0082754Y0206549D02*
X0090913Y0206549D01*
X0090913Y0208147D02*
X0082752Y0208147D01*
X0082750Y0209746D02*
X0090913Y0209746D01*
X0090913Y0211344D02*
X0082748Y0211344D01*
X0082747Y0212943D02*
X0090913Y0212943D01*
X0090913Y0214541D02*
X0082745Y0214541D01*
X0082743Y0216140D02*
X0090913Y0216140D01*
X0090913Y0217738D02*
X0082741Y0217738D01*
X0082739Y0219337D02*
X0090913Y0219337D01*
X0090913Y0220935D02*
X0082737Y0220935D01*
X0082735Y0222534D02*
X0090913Y0222534D01*
X0090913Y0224132D02*
X0082733Y0224132D01*
X0082732Y0225731D02*
X0090913Y0225731D01*
X0090913Y0227330D02*
X0082730Y0227330D01*
X0082728Y0228928D02*
X0090913Y0228928D01*
X0090913Y0230527D02*
X0082726Y0230527D01*
X0082724Y0232125D02*
X0090913Y0232125D01*
X0090913Y0233724D02*
X0082722Y0233724D01*
X0082720Y0235322D02*
X0090913Y0235322D01*
X0090913Y0236921D02*
X0082718Y0236921D01*
X0082717Y0238519D02*
X0090913Y0238519D01*
X0090913Y0240118D02*
X0082715Y0240118D01*
X0082713Y0241716D02*
X0090913Y0241716D01*
X0090913Y0243315D02*
X0082711Y0243315D01*
X0082709Y0244913D02*
X0090913Y0244913D01*
X0090913Y0246512D02*
X0082707Y0246512D01*
X0082705Y0248110D02*
X0090913Y0248110D01*
X0090913Y0249709D02*
X0082703Y0249709D01*
X0082701Y0251307D02*
X0090913Y0251307D01*
X0090913Y0252906D02*
X0082700Y0252906D01*
X0082698Y0254504D02*
X0090913Y0254504D01*
X0090913Y0256103D02*
X0082696Y0256103D01*
X0082694Y0257701D02*
X0090913Y0257701D01*
X0090913Y0259300D02*
X0082692Y0259300D01*
X0082690Y0260898D02*
X0090913Y0260898D01*
X0090913Y0262497D02*
X0082688Y0262497D01*
X0082686Y0264095D02*
X0090913Y0264095D01*
X0090913Y0265694D02*
X0082685Y0265694D01*
X0082683Y0267292D02*
X0090913Y0267292D01*
X0090913Y0268891D02*
X0082681Y0268891D01*
X0082679Y0270489D02*
X0090913Y0270489D01*
X0090913Y0272088D02*
X0082677Y0272088D01*
X0082675Y0273686D02*
X0090913Y0273686D01*
X0090913Y0275285D02*
X0082673Y0275285D01*
X0082671Y0276883D02*
X0090913Y0276883D01*
X0090913Y0278482D02*
X0082670Y0278482D01*
X0082668Y0280080D02*
X0090913Y0280080D01*
X0090913Y0281679D02*
X0082666Y0281679D01*
X0082664Y0283277D02*
X0090913Y0283277D01*
X0090913Y0284876D02*
X0082662Y0284876D01*
X0082660Y0286474D02*
X0090913Y0286474D01*
X0090913Y0288073D02*
X0082658Y0288073D01*
X0082656Y0289671D02*
X0090913Y0289671D01*
X0090913Y0291270D02*
X0082655Y0291270D01*
X0082653Y0292868D02*
X0090913Y0292868D01*
X0090913Y0294467D02*
X0082651Y0294467D01*
X0082649Y0296066D02*
X0090913Y0296066D01*
X0090913Y0297664D02*
X0082647Y0297664D01*
X0082645Y0299263D02*
X0090913Y0299263D01*
X0090913Y0300861D02*
X0082643Y0300861D01*
X0082641Y0302460D02*
X0090913Y0302460D01*
X0090913Y0304058D02*
X0082639Y0304058D01*
X0082638Y0305657D02*
X0090913Y0305657D01*
X0090913Y0307255D02*
X0082636Y0307255D01*
X0082634Y0308854D02*
X0090913Y0308854D01*
X0090913Y0310452D02*
X0082632Y0310452D01*
X0082630Y0312051D02*
X0090913Y0312051D01*
X0090913Y0313649D02*
X0082628Y0313649D01*
X0082626Y0315248D02*
X0090913Y0315248D01*
X0090913Y0316846D02*
X0082624Y0316846D01*
X0082623Y0318445D02*
X0090913Y0318445D01*
X0090913Y0320043D02*
X0082621Y0320043D01*
X0082619Y0321642D02*
X0090913Y0321642D01*
X0090913Y0323240D02*
X0082617Y0323240D01*
X0082615Y0324839D02*
X0090913Y0324839D01*
X0090913Y0326437D02*
X0082613Y0326437D01*
X0082611Y0328036D02*
X0090913Y0328036D01*
X0090913Y0329634D02*
X0082609Y0329634D01*
X0082608Y0331233D02*
X0091156Y0331233D01*
X0092755Y0332831D02*
X0082606Y0332831D01*
X0082604Y0334430D02*
X0094353Y0334430D01*
X0095952Y0336028D02*
X0082602Y0336028D01*
X0082600Y0337627D02*
X0082705Y0337627D01*
X0085402Y0337627D02*
X0086066Y0337627D01*
X0086066Y0339225D02*
X0085402Y0339225D01*
X0085402Y0340824D02*
X0086066Y0340824D01*
X0086066Y0342422D02*
X0085402Y0342422D01*
X0085402Y0344021D02*
X0086066Y0344021D01*
X0086066Y0345619D02*
X0085402Y0345619D01*
X0085057Y0348816D02*
X0086410Y0348816D01*
X0086410Y0350415D02*
X0085057Y0350415D01*
X0086410Y0352013D02*
X0091932Y0352013D01*
X0091906Y0350415D02*
X0090585Y0350415D01*
X0090567Y0348816D02*
X0092450Y0348816D01*
X0092105Y0347218D02*
X0082589Y0347218D01*
X0085057Y0353612D02*
X0086410Y0353612D01*
X0086410Y0355210D02*
X0085057Y0355210D01*
X0085057Y0356809D02*
X0086410Y0356809D01*
X0086410Y0358407D02*
X0085057Y0358407D01*
X0086410Y0360006D02*
X0092206Y0360006D01*
X0092206Y0361604D02*
X0090585Y0361604D01*
X0090568Y0363203D02*
X0092871Y0363203D01*
X0092106Y0364801D02*
X0082568Y0364801D01*
X0085057Y0363203D02*
X0086410Y0363203D01*
X0086410Y0361604D02*
X0085057Y0361604D01*
X0085402Y0366400D02*
X0086066Y0366400D01*
X0086066Y0367999D02*
X0085402Y0367999D01*
X0085402Y0369597D02*
X0086066Y0369597D01*
X0086066Y0371196D02*
X0085402Y0371196D01*
X0085402Y0372794D02*
X0086066Y0372794D01*
X0086066Y0374393D02*
X0085402Y0374393D01*
X0082699Y0374393D02*
X0082557Y0374393D01*
X0082555Y0375991D02*
X0143455Y0375991D01*
X0143516Y0376016D02*
X0141862Y0375331D01*
X0140597Y0374065D01*
X0139912Y0372411D01*
X0139912Y0370621D01*
X0140597Y0368967D01*
X0141862Y0367701D01*
X0143516Y0367016D01*
X0145307Y0367016D01*
X0146961Y0367701D01*
X0148226Y0368967D01*
X0148911Y0370621D01*
X0148911Y0372411D01*
X0148226Y0374065D01*
X0146961Y0375331D01*
X0145307Y0376016D01*
X0143516Y0376016D01*
X0145368Y0375991D02*
X0183255Y0375991D01*
X0183316Y0376016D02*
X0181662Y0375331D01*
X0180397Y0374065D01*
X0179712Y0372411D01*
X0179712Y0370621D01*
X0180397Y0368967D01*
X0181662Y0367701D01*
X0183316Y0367016D01*
X0185107Y0367016D01*
X0186761Y0367701D01*
X0188026Y0368967D01*
X0188711Y0370621D01*
X0188711Y0372411D01*
X0188026Y0374065D01*
X0186761Y0375331D01*
X0185107Y0376016D01*
X0183316Y0376016D01*
X0185168Y0375991D02*
X0293529Y0375991D01*
X0293529Y0377131D02*
X0293529Y0369982D01*
X0294408Y0369104D01*
X0299528Y0369104D01*
X0299379Y0368954D01*
X0294408Y0368954D01*
X0293529Y0368076D01*
X0293529Y0360927D01*
X0294408Y0360049D01*
X0301950Y0360049D01*
X0302828Y0360927D01*
X0302828Y0365898D01*
X0303372Y0366442D01*
X0303372Y0360927D01*
X0304250Y0360049D01*
X0311792Y0360049D01*
X0312671Y0360927D01*
X0312671Y0368076D01*
X0311792Y0368954D01*
X0307627Y0368954D01*
X0307478Y0369104D01*
X0311792Y0369104D01*
X0312671Y0369982D01*
X0312671Y0377131D01*
X0311792Y0378009D01*
X0304250Y0378009D01*
X0303372Y0377131D01*
X0303372Y0375857D01*
X0302828Y0375857D01*
X0302828Y0377131D01*
X0301950Y0378009D01*
X0294408Y0378009D01*
X0293529Y0377131D01*
X0293988Y0377590D02*
X0082553Y0377590D01*
X0082551Y0379188D02*
X0319906Y0379188D01*
X0319904Y0377590D02*
X0312212Y0377590D01*
X0312671Y0375991D02*
X0319901Y0375991D01*
X0319898Y0374393D02*
X0312671Y0374393D01*
X0312671Y0372794D02*
X0319896Y0372794D01*
X0319893Y0371196D02*
X0312671Y0371196D01*
X0312285Y0369597D02*
X0319890Y0369597D01*
X0319888Y0367999D02*
X0312671Y0367999D01*
X0312671Y0366400D02*
X0319885Y0366400D01*
X0319883Y0364801D02*
X0312671Y0364801D01*
X0312671Y0363203D02*
X0319880Y0363203D01*
X0319877Y0361604D02*
X0312671Y0361604D01*
X0309900Y0363429D02*
X0309094Y0363429D01*
X0308021Y0364501D01*
X0309900Y0363429D02*
X0299772Y0373557D01*
X0298179Y0373557D01*
X0298051Y0373429D01*
X0295900Y0373429D01*
X0296028Y0373557D01*
X0298179Y0373557D01*
X0307234Y0373557D01*
X0298179Y0364501D01*
X0302828Y0364801D02*
X0303372Y0364801D01*
X0303372Y0363203D02*
X0302828Y0363203D01*
X0302828Y0361604D02*
X0303372Y0361604D01*
X0303330Y0366400D02*
X0303372Y0366400D01*
X0307234Y0373557D02*
X0308021Y0373557D01*
X0303372Y0375991D02*
X0302828Y0375991D01*
X0302369Y0377590D02*
X0303831Y0377590D01*
X0293529Y0374393D02*
X0187699Y0374393D01*
X0188553Y0372794D02*
X0293529Y0372794D01*
X0293529Y0371196D02*
X0188711Y0371196D01*
X0188287Y0369597D02*
X0293915Y0369597D01*
X0293529Y0367999D02*
X0187058Y0367999D01*
X0181365Y0367999D02*
X0178054Y0367999D01*
X0178711Y0366400D02*
X0293529Y0366400D01*
X0293529Y0364801D02*
X0178711Y0364801D01*
X0178124Y0363203D02*
X0293529Y0363203D01*
X0293529Y0361604D02*
X0176526Y0361604D01*
X0177223Y0359083D02*
X0174945Y0356805D01*
X0173712Y0353828D01*
X0173712Y0350605D01*
X0174945Y0347628D01*
X0177223Y0345350D01*
X0180200Y0344116D01*
X0183423Y0344116D01*
X0186145Y0345244D01*
X0186000Y0345133D01*
X0185395Y0344528D01*
X0184875Y0343849D01*
X0184447Y0343108D01*
X0184120Y0342318D01*
X0183898Y0341492D01*
X0183832Y0340991D01*
X0189536Y0340991D01*
X0189536Y0339441D01*
X0183832Y0339441D01*
X0183898Y0338941D01*
X0184120Y0338114D01*
X0184447Y0337324D01*
X0184875Y0336583D01*
X0185395Y0335905D01*
X0186000Y0335300D01*
X0186679Y0334779D01*
X0187419Y0334352D01*
X0188210Y0334024D01*
X0189036Y0333803D01*
X0189536Y0333737D01*
X0189536Y0339441D01*
X0191087Y0339441D01*
X0191087Y0340991D01*
X0196791Y0340991D01*
X0196725Y0341492D01*
X0196503Y0342318D01*
X0196176Y0343108D01*
X0195748Y0343849D01*
X0195228Y0344528D01*
X0194623Y0345133D01*
X0193944Y0345653D01*
X0193204Y0346081D01*
X0192413Y0346408D01*
X0191587Y0346630D01*
X0191087Y0346696D01*
X0191087Y0340991D01*
X0189536Y0340991D01*
X0189536Y0346696D01*
X0189036Y0346630D01*
X0188210Y0346408D01*
X0187419Y0346081D01*
X0186738Y0345687D01*
X0188678Y0347628D01*
X0189911Y0350605D01*
X0189911Y0353828D01*
X0188678Y0356805D01*
X0186400Y0359083D01*
X0183423Y0360316D01*
X0180200Y0360316D01*
X0177223Y0359083D01*
X0176547Y0358407D02*
X0169931Y0358407D01*
X0168332Y0356809D02*
X0174949Y0356809D01*
X0174284Y0355210D02*
X0166734Y0355210D01*
X0165135Y0353612D02*
X0173712Y0353612D01*
X0173712Y0352013D02*
X0163537Y0352013D01*
X0161938Y0350415D02*
X0173790Y0350415D01*
X0174452Y0348816D02*
X0160340Y0348816D01*
X0158741Y0347218D02*
X0175355Y0347218D01*
X0176953Y0345619D02*
X0157143Y0345619D01*
X0155544Y0344021D02*
X0185006Y0344021D01*
X0184163Y0342422D02*
X0153946Y0342422D01*
X0152347Y0340824D02*
X0189536Y0340824D01*
X0191087Y0340824D02*
X0319843Y0340824D01*
X0319846Y0342422D02*
X0196460Y0342422D01*
X0195617Y0344021D02*
X0319849Y0344021D01*
X0319851Y0345619D02*
X0193989Y0345619D01*
X0191087Y0345619D02*
X0189536Y0345619D01*
X0189536Y0344021D02*
X0191087Y0344021D01*
X0191087Y0342422D02*
X0189536Y0342422D01*
X0189536Y0339225D02*
X0191087Y0339225D01*
X0191087Y0339441D02*
X0191087Y0333737D01*
X0191587Y0333803D01*
X0192413Y0334024D01*
X0193204Y0334352D01*
X0193944Y0334779D01*
X0194623Y0335300D01*
X0195228Y0335905D01*
X0195748Y0336583D01*
X0196176Y0337324D01*
X0196503Y0338114D01*
X0196725Y0338941D01*
X0196791Y0339441D01*
X0191087Y0339441D01*
X0191087Y0337627D02*
X0189536Y0337627D01*
X0189536Y0336028D02*
X0191087Y0336028D01*
X0191087Y0334430D02*
X0189536Y0334430D01*
X0187284Y0334430D02*
X0145953Y0334430D01*
X0144355Y0332831D02*
X0319830Y0332831D01*
X0319828Y0331233D02*
X0178221Y0331233D01*
X0180404Y0329634D02*
X0319825Y0329634D01*
X0319822Y0328036D02*
X0181061Y0328036D01*
X0181061Y0326437D02*
X0319820Y0326437D01*
X0319817Y0324839D02*
X0180427Y0324839D01*
X0178318Y0323240D02*
X0319815Y0323240D01*
X0319812Y0321642D02*
X0172769Y0321642D01*
X0174367Y0323240D02*
X0175305Y0323240D01*
X0174995Y0320043D02*
X0319809Y0320043D01*
X0319807Y0318445D02*
X0176196Y0318445D01*
X0179196Y0316846D02*
X0319804Y0316846D01*
X0319801Y0315248D02*
X0181159Y0315248D01*
X0182320Y0313649D02*
X0319799Y0313649D01*
X0319796Y0312051D02*
X0183356Y0312051D01*
X0183876Y0310452D02*
X0319794Y0310452D01*
X0319791Y0308854D02*
X0184395Y0308854D01*
X0184497Y0307255D02*
X0319788Y0307255D01*
X0319786Y0305657D02*
X0184497Y0305657D01*
X0184497Y0304058D02*
X0319783Y0304058D01*
X0319781Y0302460D02*
X0184497Y0302460D01*
X0184497Y0300861D02*
X0319778Y0300861D01*
X0319775Y0299263D02*
X0184497Y0299263D01*
X0184497Y0297664D02*
X0319773Y0297664D01*
X0319770Y0296066D02*
X0184497Y0296066D01*
X0184497Y0294467D02*
X0319767Y0294467D01*
X0319765Y0292868D02*
X0184497Y0292868D01*
X0184497Y0291270D02*
X0319762Y0291270D01*
X0319760Y0289671D02*
X0184441Y0289671D01*
X0183921Y0288073D02*
X0319757Y0288073D01*
X0319754Y0286474D02*
X0183372Y0286474D01*
X0182210Y0284876D02*
X0319752Y0284876D01*
X0319749Y0283277D02*
X0180744Y0283277D01*
X0178489Y0281679D02*
X0319746Y0281679D01*
X0319744Y0280080D02*
X0170221Y0280080D01*
X0171310Y0278482D02*
X0319741Y0278482D01*
X0319739Y0276883D02*
X0171482Y0276883D01*
X0170848Y0275285D02*
X0319736Y0275285D01*
X0319733Y0273686D02*
X0167377Y0273686D01*
X0167377Y0272088D02*
X0169945Y0272088D01*
X0178907Y0254504D02*
X0179142Y0254504D01*
X0179875Y0252906D02*
X0178011Y0252906D01*
X0178389Y0251307D02*
X0182531Y0251307D01*
X0182531Y0249709D02*
X0178020Y0249709D01*
X0176343Y0248110D02*
X0181929Y0248110D01*
X0181053Y0246512D02*
X0168766Y0246512D01*
X0168766Y0244913D02*
X0181094Y0244913D01*
X0182028Y0243315D02*
X0168645Y0243315D01*
X0168766Y0241716D02*
X0185925Y0241716D01*
X0185925Y0240118D02*
X0168766Y0240118D01*
X0168766Y0238519D02*
X0185925Y0238519D01*
X0185925Y0236921D02*
X0173993Y0236921D01*
X0174549Y0235322D02*
X0185925Y0235322D01*
X0185925Y0233724D02*
X0185477Y0233724D01*
X0180127Y0233724D02*
X0174344Y0233724D01*
X0173210Y0232125D02*
X0178529Y0232125D01*
X0178502Y0230527D02*
X0165046Y0230527D01*
X0166086Y0232125D02*
X0168889Y0232125D01*
X0168106Y0236921D02*
X0166635Y0236921D01*
X0160403Y0230527D02*
X0159023Y0230527D01*
X0159698Y0227330D02*
X0179709Y0227330D01*
X0178502Y0228928D02*
X0146072Y0228928D01*
X0146072Y0230527D02*
X0155162Y0230527D01*
X0153765Y0232125D02*
X0146072Y0232125D01*
X0146072Y0233724D02*
X0153411Y0233724D01*
X0153775Y0235322D02*
X0146072Y0235322D01*
X0146072Y0236921D02*
X0154933Y0236921D01*
X0154349Y0238519D02*
X0146072Y0238519D01*
X0146072Y0240118D02*
X0154349Y0240118D01*
X0154349Y0241716D02*
X0146072Y0241716D01*
X0146072Y0243315D02*
X0154470Y0243315D01*
X0154349Y0244913D02*
X0146072Y0244913D01*
X0146072Y0246512D02*
X0154301Y0246512D01*
X0153502Y0248110D02*
X0146072Y0248110D01*
X0146072Y0249709D02*
X0153502Y0249709D01*
X0153502Y0251307D02*
X0146072Y0251307D01*
X0146072Y0252906D02*
X0149395Y0252906D01*
X0148487Y0254504D02*
X0146072Y0254504D01*
X0146743Y0256103D02*
X0148482Y0256103D01*
X0148341Y0257701D02*
X0148988Y0257701D01*
X0145882Y0260898D02*
X0132438Y0260898D01*
X0134039Y0259300D02*
X0144283Y0259300D01*
X0142685Y0257701D02*
X0134275Y0257701D01*
X0133488Y0256103D02*
X0142072Y0256103D01*
X0142072Y0254504D02*
X0129140Y0254504D01*
X0128946Y0252906D02*
X0130410Y0252906D01*
X0133026Y0252906D02*
X0142072Y0252906D01*
X0142072Y0251307D02*
X0134507Y0251307D01*
X0134718Y0249709D02*
X0142072Y0249709D01*
X0142072Y0248110D02*
X0133870Y0248110D01*
X0129116Y0246512D02*
X0142072Y0246512D01*
X0142072Y0244913D02*
X0101527Y0244913D01*
X0101527Y0243315D02*
X0142072Y0243315D01*
X0142072Y0241716D02*
X0101527Y0241716D01*
X0101527Y0240118D02*
X0106105Y0240118D01*
X0106110Y0240136D02*
X0105988Y0239678D01*
X0105988Y0236698D01*
X0113287Y0236698D01*
X0113287Y0241241D01*
X0107551Y0241241D01*
X0107093Y0241119D01*
X0106682Y0240882D01*
X0106347Y0240546D01*
X0106110Y0240136D01*
X0105988Y0238519D02*
X0101527Y0238519D01*
X0101527Y0236921D02*
X0105988Y0236921D01*
X0105988Y0235098D02*
X0105988Y0232118D01*
X0106110Y0231660D01*
X0106347Y0231249D01*
X0106682Y0230914D01*
X0107093Y0230677D01*
X0107551Y0230555D01*
X0113287Y0230555D01*
X0113287Y0235098D01*
X0114887Y0235098D01*
X0114887Y0236698D01*
X0122186Y0236698D01*
X0122186Y0239678D01*
X0122063Y0240136D01*
X0121826Y0240546D01*
X0121491Y0240882D01*
X0121081Y0241119D01*
X0120623Y0241241D01*
X0114887Y0241241D01*
X0114887Y0236698D01*
X0113287Y0236698D01*
X0113287Y0235098D01*
X0105988Y0235098D01*
X0105988Y0233724D02*
X0101527Y0233724D01*
X0101527Y0235322D02*
X0113287Y0235322D01*
X0113287Y0233724D02*
X0114887Y0233724D01*
X0114887Y0235098D02*
X0114887Y0230555D01*
X0120623Y0230555D01*
X0121081Y0230677D01*
X0121491Y0230914D01*
X0121826Y0231249D01*
X0122063Y0231660D01*
X0122186Y0232118D01*
X0122186Y0235098D01*
X0114887Y0235098D01*
X0114887Y0235322D02*
X0142072Y0235322D01*
X0142072Y0233724D02*
X0122186Y0233724D01*
X0122186Y0232125D02*
X0142072Y0232125D01*
X0142072Y0230527D02*
X0101527Y0230527D01*
X0101527Y0232125D02*
X0105988Y0232125D01*
X0101527Y0228928D02*
X0142072Y0228928D01*
X0141455Y0227330D02*
X0101527Y0227330D01*
X0101527Y0225731D02*
X0141455Y0225731D01*
X0149589Y0219337D02*
X0150857Y0219337D01*
X0150510Y0217738D02*
X0150360Y0217738D01*
X0150360Y0216140D02*
X0150510Y0216140D01*
X0150510Y0214541D02*
X0150360Y0214541D01*
X0150360Y0212943D02*
X0150510Y0212943D01*
X0154286Y0219337D02*
X0155639Y0219337D01*
X0155639Y0220935D02*
X0154286Y0220935D01*
X0154286Y0222534D02*
X0155639Y0222534D01*
X0155639Y0224132D02*
X0180536Y0224132D01*
X0185068Y0224132D02*
X0185997Y0224132D01*
X0184828Y0225731D02*
X0159716Y0225731D01*
X0155639Y0225731D02*
X0154286Y0225731D01*
X0154286Y0227330D02*
X0155639Y0227330D01*
X0142072Y0236921D02*
X0122186Y0236921D01*
X0122186Y0238519D02*
X0142072Y0238519D01*
X0142072Y0240118D02*
X0122068Y0240118D01*
X0122423Y0246512D02*
X0122829Y0246512D01*
X0123000Y0252906D02*
X0122253Y0252906D01*
X0122447Y0254504D02*
X0122974Y0254504D01*
X0123023Y0260898D02*
X0122397Y0260898D01*
X0122395Y0262497D02*
X0123012Y0262497D01*
X0129088Y0262497D02*
X0147480Y0262497D01*
X0139933Y0264095D02*
X0133858Y0264095D01*
X0134306Y0265694D02*
X0138335Y0265694D01*
X0136736Y0267292D02*
X0133925Y0267292D01*
X0135138Y0268891D02*
X0129129Y0268891D01*
X0128957Y0270489D02*
X0134587Y0270489D01*
X0134595Y0272088D02*
X0133365Y0272088D01*
X0133758Y0273686D02*
X0134603Y0273686D01*
X0134610Y0275285D02*
X0133322Y0275285D01*
X0134618Y0276883D02*
X0129196Y0276883D01*
X0122841Y0276883D02*
X0122503Y0276883D01*
X0118762Y0278482D02*
X0134626Y0278482D01*
X0134633Y0280080D02*
X0118584Y0280080D01*
X0117527Y0281679D02*
X0134641Y0281679D01*
X0134648Y0283277D02*
X0117381Y0283277D01*
X0117381Y0284876D02*
X0134656Y0284876D01*
X0134664Y0286474D02*
X0117381Y0286474D01*
X0117381Y0288073D02*
X0134671Y0288073D01*
X0134679Y0289671D02*
X0117381Y0289671D01*
X0117381Y0291270D02*
X0134686Y0291270D01*
X0134694Y0292868D02*
X0117381Y0292868D01*
X0117381Y0294467D02*
X0134702Y0294467D01*
X0134709Y0296066D02*
X0117381Y0296066D01*
X0117381Y0297664D02*
X0134717Y0297664D01*
X0134724Y0299263D02*
X0117381Y0299263D01*
X0117381Y0300861D02*
X0134732Y0300861D01*
X0134739Y0302460D02*
X0117381Y0302460D01*
X0117381Y0304058D02*
X0134747Y0304058D01*
X0134755Y0305657D02*
X0117381Y0305657D01*
X0117381Y0307255D02*
X0134762Y0307255D01*
X0134770Y0308854D02*
X0117381Y0308854D01*
X0117381Y0310452D02*
X0133786Y0310452D01*
X0132187Y0312051D02*
X0117381Y0312051D01*
X0117381Y0313649D02*
X0130589Y0313649D01*
X0128990Y0315248D02*
X0117381Y0315248D01*
X0117381Y0316846D02*
X0127392Y0316846D01*
X0125793Y0318445D02*
X0117381Y0318445D01*
X0117381Y0320043D02*
X0124195Y0320043D01*
X0122596Y0321642D02*
X0117381Y0321642D01*
X0117381Y0323240D02*
X0120998Y0323240D01*
X0119399Y0324839D02*
X0117381Y0324839D01*
X0117381Y0326437D02*
X0119309Y0326437D01*
X0119309Y0328036D02*
X0117381Y0328036D01*
X0117381Y0329634D02*
X0119309Y0329634D01*
X0119309Y0331233D02*
X0117381Y0331233D01*
X0117381Y0332831D02*
X0119309Y0332831D01*
X0119309Y0334430D02*
X0117381Y0334430D01*
X0117381Y0336028D02*
X0119309Y0336028D01*
X0119309Y0337627D02*
X0117381Y0337627D01*
X0117381Y0339225D02*
X0119309Y0339225D01*
X0119309Y0340824D02*
X0117381Y0340824D01*
X0117381Y0342422D02*
X0119309Y0342422D01*
X0119309Y0344021D02*
X0117381Y0344021D01*
X0117381Y0345619D02*
X0119309Y0345619D01*
X0119309Y0347218D02*
X0117381Y0347218D01*
X0117381Y0348816D02*
X0119309Y0348816D01*
X0119309Y0350415D02*
X0117381Y0350415D01*
X0117381Y0352013D02*
X0119309Y0352013D01*
X0119679Y0353612D02*
X0117381Y0353612D01*
X0117381Y0355210D02*
X0121277Y0355210D01*
X0122876Y0356809D02*
X0117381Y0356809D01*
X0117025Y0358407D02*
X0124474Y0358407D01*
X0126073Y0360006D02*
X0115427Y0360006D01*
X0113828Y0361604D02*
X0127671Y0361604D01*
X0129270Y0363203D02*
X0112229Y0363203D01*
X0111072Y0361108D02*
X0115081Y0357099D01*
X0115081Y0281086D01*
X0115081Y0278920D01*
X0112634Y0281679D02*
X0101527Y0281679D01*
X0101527Y0283277D02*
X0112781Y0283277D01*
X0112781Y0281826D02*
X0111960Y0281005D01*
X0111399Y0279652D01*
X0111399Y0278188D01*
X0111837Y0277131D01*
X0109860Y0277131D01*
X0108756Y0276027D01*
X0108695Y0276173D01*
X0108434Y0276565D01*
X0108101Y0276898D01*
X0107709Y0277159D01*
X0107274Y0277340D01*
X0106812Y0277431D01*
X0105383Y0277431D01*
X0105383Y0273847D01*
X0105015Y0273847D01*
X0105015Y0277431D01*
X0103585Y0277431D01*
X0103124Y0277340D01*
X0102689Y0277159D01*
X0102297Y0276898D01*
X0101964Y0276565D01*
X0101702Y0276173D01*
X0101527Y0275749D01*
X0101527Y0328355D01*
X0108744Y0335573D01*
X0110091Y0336920D01*
X0110091Y0355045D01*
X0106328Y0358808D01*
X0110119Y0358808D01*
X0112781Y0356147D01*
X0112781Y0281826D01*
X0111577Y0280080D02*
X0101527Y0280080D01*
X0101527Y0278482D02*
X0111399Y0278482D01*
X0109612Y0276883D02*
X0108115Y0276883D01*
X0105383Y0276883D02*
X0105015Y0276883D01*
X0105015Y0275285D02*
X0105383Y0275285D01*
X0105383Y0272088D02*
X0105015Y0272088D01*
X0105015Y0270489D02*
X0105383Y0270489D01*
X0105313Y0268891D02*
X0104944Y0268891D01*
X0104944Y0267292D02*
X0105313Y0267292D01*
X0105313Y0264095D02*
X0104944Y0264095D01*
X0104944Y0262497D02*
X0105313Y0262497D01*
X0105385Y0260898D02*
X0105017Y0260898D01*
X0105017Y0259300D02*
X0105385Y0259300D01*
X0105385Y0257701D02*
X0105017Y0257701D01*
X0105017Y0256103D02*
X0105385Y0256103D01*
X0105385Y0254504D02*
X0105017Y0254504D01*
X0104844Y0252906D02*
X0105212Y0252906D01*
X0105212Y0251307D02*
X0104844Y0251307D01*
X0104844Y0249709D02*
X0105212Y0249709D01*
X0105212Y0248110D02*
X0104844Y0248110D01*
X0101527Y0246512D02*
X0116136Y0246512D01*
X0115614Y0248110D02*
X0115313Y0248110D01*
X0115183Y0252906D02*
X0116307Y0252906D01*
X0116281Y0254504D02*
X0107494Y0254504D01*
X0108544Y0252906D02*
X0108684Y0252906D01*
X0102909Y0254504D02*
X0101527Y0254504D01*
X0101527Y0260898D02*
X0101903Y0260898D01*
X0101527Y0262497D02*
X0102322Y0262497D01*
X0107935Y0262497D02*
X0109620Y0262497D01*
X0109202Y0260898D02*
X0108499Y0260898D01*
X0114448Y0262497D02*
X0116320Y0262497D01*
X0116330Y0260898D02*
X0115012Y0260898D01*
X0114651Y0268891D02*
X0116279Y0268891D01*
X0116387Y0270489D02*
X0114643Y0270489D01*
X0109566Y0270489D02*
X0108162Y0270489D01*
X0108170Y0268891D02*
X0109417Y0268891D01*
X0102087Y0268891D02*
X0101527Y0268891D01*
X0101527Y0270489D02*
X0102236Y0270489D01*
X0102283Y0276883D02*
X0101527Y0276883D01*
X0101527Y0284876D02*
X0112781Y0284876D01*
X0112781Y0286474D02*
X0101527Y0286474D01*
X0101527Y0288073D02*
X0112781Y0288073D01*
X0112781Y0289671D02*
X0101527Y0289671D01*
X0101527Y0291270D02*
X0112781Y0291270D01*
X0112781Y0292868D02*
X0101527Y0292868D01*
X0101527Y0294467D02*
X0112781Y0294467D01*
X0112781Y0296066D02*
X0101527Y0296066D01*
X0101527Y0297664D02*
X0112781Y0297664D01*
X0112781Y0299263D02*
X0101527Y0299263D01*
X0101527Y0300861D02*
X0112781Y0300861D01*
X0112781Y0302460D02*
X0101527Y0302460D01*
X0101527Y0304058D02*
X0112781Y0304058D01*
X0112781Y0305657D02*
X0101527Y0305657D01*
X0101527Y0307255D02*
X0112781Y0307255D01*
X0112781Y0308854D02*
X0101527Y0308854D01*
X0101527Y0310452D02*
X0112781Y0310452D01*
X0112781Y0312051D02*
X0101527Y0312051D01*
X0101527Y0313649D02*
X0112781Y0313649D01*
X0112781Y0315248D02*
X0101527Y0315248D01*
X0101527Y0316846D02*
X0112781Y0316846D01*
X0112781Y0318445D02*
X0101527Y0318445D01*
X0101527Y0320043D02*
X0112781Y0320043D01*
X0112781Y0321642D02*
X0101527Y0321642D01*
X0101527Y0323240D02*
X0112781Y0323240D01*
X0112781Y0324839D02*
X0101527Y0324839D01*
X0101527Y0326437D02*
X0112781Y0326437D01*
X0112781Y0328036D02*
X0101527Y0328036D01*
X0102806Y0329634D02*
X0112781Y0329634D01*
X0112781Y0331233D02*
X0104404Y0331233D01*
X0106003Y0332831D02*
X0112781Y0332831D01*
X0112781Y0334430D02*
X0107601Y0334430D01*
X0109200Y0336028D02*
X0112781Y0336028D01*
X0112781Y0337627D02*
X0110091Y0337627D01*
X0110091Y0339225D02*
X0112781Y0339225D01*
X0112781Y0340824D02*
X0110091Y0340824D01*
X0110091Y0342422D02*
X0112781Y0342422D01*
X0112781Y0344021D02*
X0110091Y0344021D01*
X0110091Y0345619D02*
X0112781Y0345619D01*
X0112781Y0347218D02*
X0110091Y0347218D01*
X0110091Y0348816D02*
X0112781Y0348816D01*
X0112781Y0350415D02*
X0110091Y0350415D01*
X0110091Y0352013D02*
X0112781Y0352013D01*
X0112781Y0353612D02*
X0110091Y0353612D01*
X0109926Y0355210D02*
X0112781Y0355210D01*
X0112118Y0356809D02*
X0108327Y0356809D01*
X0106729Y0358407D02*
X0110520Y0358407D01*
X0111072Y0361108D02*
X0096385Y0361108D01*
X0096364Y0361130D01*
X0096364Y0358571D02*
X0103313Y0358571D01*
X0107791Y0354092D01*
X0107791Y0337873D01*
X0099227Y0329308D01*
X0099227Y0156986D01*
X0103058Y0153155D01*
X0105936Y0153798D02*
X0106282Y0153798D01*
X0106282Y0152199D02*
X0105936Y0152199D01*
X0105936Y0150601D02*
X0106282Y0150601D01*
X0106282Y0149002D02*
X0105936Y0149002D01*
X0103058Y0150006D02*
X0102980Y0150084D01*
X0098439Y0150084D01*
X0093213Y0155310D01*
X0093213Y0330037D01*
X0102598Y0339422D01*
X0102598Y0355194D01*
X0101751Y0356041D01*
X0096393Y0356041D01*
X0096364Y0356012D01*
X0096364Y0353452D02*
X0096364Y0350894D01*
X0096364Y0350894D01*
X0096364Y0353452D01*
X0096364Y0353452D01*
X0096364Y0352013D02*
X0096364Y0352013D01*
X0096364Y0350415D02*
X0096364Y0350415D01*
X0096364Y0348816D02*
X0096364Y0348816D01*
X0096364Y0347218D02*
X0096364Y0347218D01*
X0096364Y0345619D02*
X0096364Y0345619D01*
X0096364Y0344021D02*
X0096364Y0344021D01*
X0096364Y0342422D02*
X0096364Y0342422D01*
X0098647Y0342422D02*
X0100298Y0342422D01*
X0100298Y0340824D02*
X0090832Y0340824D01*
X0090903Y0342422D02*
X0094081Y0342422D01*
X0092548Y0344021D02*
X0090458Y0344021D01*
X0089310Y0345619D02*
X0092021Y0345619D01*
X0090229Y0339225D02*
X0099149Y0339225D01*
X0097550Y0337627D02*
X0088763Y0337627D01*
X0100179Y0344021D02*
X0100298Y0344021D01*
X0091906Y0353612D02*
X0090585Y0353612D01*
X0090585Y0355210D02*
X0092188Y0355210D01*
X0092206Y0356809D02*
X0090585Y0356809D01*
X0090585Y0358407D02*
X0092206Y0358407D01*
X0091989Y0365854D02*
X0096364Y0365854D01*
X0100738Y0365854D01*
X0100738Y0366198D01*
X0100631Y0366879D01*
X0100418Y0367533D01*
X0100105Y0368147D01*
X0099701Y0368704D01*
X0099214Y0369191D01*
X0098657Y0369596D01*
X0098043Y0369908D01*
X0097388Y0370121D01*
X0096708Y0370229D01*
X0096364Y0370229D01*
X0096364Y0365854D01*
X0096364Y0365854D01*
X0096364Y0365854D01*
X0096364Y0370229D01*
X0096019Y0370229D01*
X0095339Y0370121D01*
X0094684Y0369908D01*
X0094071Y0369596D01*
X0093514Y0369191D01*
X0093027Y0368704D01*
X0092622Y0368147D01*
X0092309Y0367533D01*
X0092097Y0366879D01*
X0091989Y0366198D01*
X0091989Y0365854D01*
X0092021Y0366400D02*
X0089307Y0366400D01*
X0090456Y0367999D02*
X0092546Y0367999D01*
X0094073Y0369597D02*
X0090903Y0369597D01*
X0090833Y0371196D02*
X0139912Y0371196D01*
X0140070Y0372794D02*
X0090231Y0372794D01*
X0088768Y0374393D02*
X0140924Y0374393D01*
X0140336Y0369597D02*
X0136319Y0369597D01*
X0138254Y0367999D02*
X0141565Y0367999D01*
X0138911Y0366400D02*
X0169712Y0366400D01*
X0169712Y0364801D02*
X0138911Y0364801D01*
X0138324Y0363203D02*
X0169070Y0363203D01*
X0167471Y0361604D02*
X0136726Y0361604D01*
X0134451Y0360006D02*
X0131730Y0360006D01*
X0131547Y0358407D02*
X0130131Y0358407D01*
X0129949Y0356809D02*
X0128532Y0356809D01*
X0129284Y0355210D02*
X0126934Y0355210D01*
X0125335Y0353612D02*
X0128712Y0353612D01*
X0128712Y0352013D02*
X0123737Y0352013D01*
X0123309Y0350415D02*
X0128790Y0350415D01*
X0129452Y0348816D02*
X0123309Y0348816D01*
X0123309Y0347218D02*
X0130355Y0347218D01*
X0129087Y0345619D02*
X0127536Y0345619D01*
X0127536Y0344021D02*
X0129087Y0344021D01*
X0129087Y0342422D02*
X0127536Y0342422D01*
X0129087Y0340824D02*
X0146691Y0340824D01*
X0148289Y0342422D02*
X0134460Y0342422D01*
X0133617Y0344021D02*
X0149888Y0344021D01*
X0151486Y0345619D02*
X0141670Y0345619D01*
X0143268Y0347218D02*
X0153085Y0347218D01*
X0154683Y0348816D02*
X0144171Y0348816D01*
X0144833Y0350415D02*
X0156282Y0350415D01*
X0157880Y0352013D02*
X0144911Y0352013D01*
X0144911Y0353612D02*
X0159479Y0353612D01*
X0161077Y0355210D02*
X0144339Y0355210D01*
X0143674Y0356809D02*
X0162676Y0356809D01*
X0164274Y0358407D02*
X0142076Y0358407D01*
X0139172Y0360006D02*
X0165873Y0360006D01*
X0171530Y0360006D02*
X0179451Y0360006D01*
X0184172Y0360006D02*
X0319875Y0360006D01*
X0319872Y0358407D02*
X0187076Y0358407D01*
X0188674Y0356809D02*
X0319870Y0356809D01*
X0319867Y0355210D02*
X0189339Y0355210D01*
X0189911Y0353612D02*
X0319864Y0353612D01*
X0319862Y0352013D02*
X0189911Y0352013D01*
X0189833Y0350415D02*
X0319859Y0350415D01*
X0319856Y0348816D02*
X0189171Y0348816D01*
X0188268Y0347218D02*
X0319854Y0347218D01*
X0319841Y0339225D02*
X0196762Y0339225D01*
X0196301Y0337627D02*
X0319838Y0337627D01*
X0319836Y0336028D02*
X0195322Y0336028D01*
X0193339Y0334430D02*
X0319833Y0334430D01*
X0319731Y0272088D02*
X0187897Y0272088D01*
X0189496Y0270489D02*
X0319728Y0270489D01*
X0319726Y0268891D02*
X0191094Y0268891D01*
X0192834Y0267292D02*
X0319723Y0267292D01*
X0319720Y0265694D02*
X0193290Y0265694D01*
X0193290Y0264095D02*
X0319718Y0264095D01*
X0319715Y0262497D02*
X0193559Y0262497D01*
X0193559Y0260898D02*
X0319712Y0260898D01*
X0319710Y0259300D02*
X0224594Y0259300D01*
X0225198Y0257701D02*
X0319707Y0257701D01*
X0319705Y0256103D02*
X0225198Y0256103D01*
X0227241Y0254504D02*
X0319702Y0254504D01*
X0319699Y0252906D02*
X0228741Y0252906D01*
X0228741Y0251307D02*
X0319697Y0251307D01*
X0319694Y0249709D02*
X0228741Y0249709D01*
X0228741Y0248110D02*
X0319691Y0248110D01*
X0319689Y0246512D02*
X0228741Y0246512D01*
X0228741Y0244913D02*
X0319686Y0244913D01*
X0319684Y0243315D02*
X0228741Y0243315D01*
X0228741Y0241716D02*
X0319681Y0241716D01*
X0319678Y0240118D02*
X0228741Y0240118D01*
X0228741Y0238519D02*
X0319676Y0238519D01*
X0319673Y0236921D02*
X0228741Y0236921D01*
X0232702Y0233724D02*
X0232902Y0233724D01*
X0232902Y0232125D02*
X0232702Y0232125D01*
X0232702Y0230527D02*
X0232902Y0230527D01*
X0232902Y0228928D02*
X0232702Y0228928D01*
X0232702Y0227330D02*
X0232902Y0227330D01*
X0236320Y0227330D02*
X0239709Y0227330D01*
X0238502Y0228928D02*
X0237402Y0228928D01*
X0237402Y0230527D02*
X0238502Y0230527D01*
X0238529Y0232125D02*
X0237402Y0232125D01*
X0235901Y0233724D02*
X0240127Y0233724D01*
X0220243Y0259300D02*
X0219279Y0259300D01*
X0214928Y0259300D02*
X0203730Y0259300D01*
X0197671Y0259300D02*
X0194332Y0259300D01*
X0195931Y0257701D02*
X0197019Y0257701D01*
X0173435Y0248110D02*
X0167894Y0248110D01*
X0168025Y0249709D02*
X0166569Y0249709D01*
X0148978Y0275285D02*
X0148464Y0275285D01*
X0148464Y0276883D02*
X0149619Y0276883D01*
X0149619Y0278482D02*
X0148464Y0278482D01*
X0148464Y0280080D02*
X0149619Y0280080D01*
X0150057Y0281679D02*
X0147360Y0281679D01*
X0148487Y0283277D02*
X0149319Y0283277D01*
X0149319Y0284876D02*
X0148714Y0284876D01*
X0148224Y0286474D02*
X0149319Y0286474D01*
X0149480Y0288073D02*
X0146166Y0288073D01*
X0143900Y0288073D02*
X0141477Y0288073D01*
X0141477Y0289671D02*
X0155452Y0289671D01*
X0155452Y0291270D02*
X0141477Y0291270D01*
X0141477Y0292868D02*
X0155452Y0292868D01*
X0155452Y0294467D02*
X0141477Y0294467D01*
X0141477Y0296066D02*
X0155452Y0296066D01*
X0155452Y0297664D02*
X0141477Y0297664D01*
X0141477Y0299263D02*
X0155452Y0299263D01*
X0155452Y0300861D02*
X0141477Y0300861D01*
X0141477Y0302460D02*
X0155452Y0302460D01*
X0155452Y0304058D02*
X0141477Y0304058D01*
X0141477Y0305657D02*
X0155452Y0305657D01*
X0155452Y0307255D02*
X0141477Y0307255D01*
X0141477Y0308854D02*
X0155452Y0308854D01*
X0155452Y0310452D02*
X0141477Y0310452D01*
X0141237Y0312051D02*
X0155452Y0312051D01*
X0155452Y0313649D02*
X0154255Y0313649D01*
X0154995Y0320043D02*
X0155452Y0320043D01*
X0156830Y0321642D02*
X0142916Y0321642D01*
X0141887Y0321642D02*
X0141736Y0321642D01*
X0140707Y0321642D02*
X0136247Y0321642D01*
X0136247Y0323240D02*
X0145305Y0323240D01*
X0145966Y0322966D02*
X0147657Y0322966D01*
X0149219Y0323613D01*
X0150414Y0324809D01*
X0151061Y0326371D01*
X0151061Y0328062D01*
X0150414Y0329624D01*
X0149219Y0330819D01*
X0147657Y0331466D01*
X0145966Y0331466D01*
X0144404Y0330819D01*
X0143209Y0329624D01*
X0142562Y0328062D01*
X0142562Y0326371D01*
X0143209Y0324809D01*
X0144404Y0323613D01*
X0145966Y0322966D01*
X0148318Y0323240D02*
X0155305Y0323240D01*
X0153196Y0324839D02*
X0150427Y0324839D01*
X0151061Y0326437D02*
X0152562Y0326437D01*
X0152562Y0328036D02*
X0151061Y0328036D01*
X0150404Y0329634D02*
X0153219Y0329634D01*
X0155402Y0331233D02*
X0148221Y0331233D01*
X0145402Y0331233D02*
X0142756Y0331233D01*
X0143219Y0329634D02*
X0141158Y0329634D01*
X0142562Y0328036D02*
X0139559Y0328036D01*
X0137961Y0326437D02*
X0142562Y0326437D01*
X0143196Y0324839D02*
X0136362Y0324839D01*
X0133902Y0328036D02*
X0123309Y0328036D01*
X0123309Y0329634D02*
X0135501Y0329634D01*
X0137099Y0331233D02*
X0123309Y0331233D01*
X0123309Y0332831D02*
X0138698Y0332831D01*
X0140296Y0334430D02*
X0131339Y0334430D01*
X0129087Y0334430D02*
X0127536Y0334430D01*
X0127536Y0336028D02*
X0129087Y0336028D01*
X0129087Y0337627D02*
X0127536Y0337627D01*
X0127536Y0339225D02*
X0129087Y0339225D01*
X0133322Y0336028D02*
X0141895Y0336028D01*
X0143494Y0337627D02*
X0134301Y0337627D01*
X0134762Y0339225D02*
X0145092Y0339225D01*
X0147552Y0336028D02*
X0185301Y0336028D01*
X0184322Y0337627D02*
X0149150Y0337627D01*
X0150749Y0339225D02*
X0183861Y0339225D01*
X0175402Y0331233D02*
X0168221Y0331233D01*
X0170404Y0329634D02*
X0173219Y0329634D01*
X0172562Y0328036D02*
X0171061Y0328036D01*
X0171061Y0326437D02*
X0171908Y0326437D01*
X0165402Y0331233D02*
X0158221Y0331233D01*
X0160404Y0329634D02*
X0163219Y0329634D01*
X0162562Y0328036D02*
X0161061Y0328036D01*
X0161061Y0326437D02*
X0161625Y0326437D01*
X0158428Y0323240D02*
X0158318Y0323240D01*
X0148628Y0320043D02*
X0145382Y0320043D01*
X0146197Y0318445D02*
X0147720Y0318445D01*
X0147562Y0316846D02*
X0146360Y0316846D01*
X0145915Y0315248D02*
X0148027Y0315248D01*
X0149368Y0313649D02*
X0144643Y0313649D01*
X0141887Y0313649D02*
X0141736Y0313649D01*
X0141736Y0315248D02*
X0141887Y0315248D01*
X0141887Y0316846D02*
X0141736Y0316846D01*
X0141736Y0318445D02*
X0141887Y0318445D01*
X0141887Y0320043D02*
X0141736Y0320043D01*
X0138241Y0320043D02*
X0136247Y0320043D01*
X0136247Y0318445D02*
X0137426Y0318445D01*
X0137263Y0316846D02*
X0136442Y0316846D01*
X0132247Y0318445D02*
X0131450Y0318445D01*
X0132247Y0320043D02*
X0129852Y0320043D01*
X0128253Y0321642D02*
X0132247Y0321642D01*
X0132247Y0323240D02*
X0126655Y0323240D01*
X0125056Y0324839D02*
X0132247Y0324839D01*
X0132304Y0326437D02*
X0123458Y0326437D01*
X0123309Y0334430D02*
X0125284Y0334430D01*
X0124634Y0345619D02*
X0123309Y0345619D01*
X0129912Y0364801D02*
X0100622Y0364801D01*
X0100707Y0366400D02*
X0129912Y0366400D01*
X0130569Y0367999D02*
X0100181Y0367999D01*
X0098654Y0369597D02*
X0132504Y0369597D01*
X0147258Y0367999D02*
X0170369Y0367999D01*
X0172304Y0369597D02*
X0148487Y0369597D01*
X0148911Y0371196D02*
X0179712Y0371196D01*
X0179870Y0372794D02*
X0148753Y0372794D01*
X0147899Y0374393D02*
X0180724Y0374393D01*
X0180136Y0369597D02*
X0176119Y0369597D01*
X0096364Y0369597D02*
X0096364Y0369597D01*
X0096364Y0367999D02*
X0096364Y0367999D01*
X0096364Y0366400D02*
X0096364Y0366400D01*
X0141477Y0286474D02*
X0141843Y0286474D01*
X0153100Y0286474D02*
X0153469Y0286474D01*
X0153469Y0288073D02*
X0153100Y0288073D01*
X0123080Y0270489D02*
X0122264Y0270489D01*
X0122436Y0268891D02*
X0122972Y0268891D01*
X0129090Y0260898D02*
X0130112Y0260898D01*
X0114887Y0240118D02*
X0113287Y0240118D01*
X0113287Y0238519D02*
X0114887Y0238519D01*
X0114887Y0236921D02*
X0113287Y0236921D01*
X0113287Y0232125D02*
X0114887Y0232125D01*
X0106288Y0217738D02*
X0101527Y0217738D01*
X0101527Y0216140D02*
X0106288Y0216140D01*
X0106288Y0214541D02*
X0101527Y0214541D01*
X0101527Y0212943D02*
X0106288Y0212943D01*
X0106288Y0211344D02*
X0101527Y0211344D01*
X0101527Y0209746D02*
X0106288Y0209746D01*
X0102793Y0169783D02*
X0101527Y0169783D01*
X0101527Y0168185D02*
X0104391Y0168185D01*
X0101527Y0166586D02*
X0124396Y0166586D01*
X0125995Y0164988D02*
X0101527Y0164988D01*
X0101527Y0163389D02*
X0105144Y0163389D01*
X0104475Y0161791D02*
X0101527Y0161791D01*
X0101527Y0160192D02*
X0104587Y0160192D01*
X0105552Y0158594D02*
X0101527Y0158594D01*
X0102471Y0156995D02*
X0111451Y0156995D01*
X0113316Y0153305D02*
X0113316Y0153155D01*
X0109160Y0153155D01*
X0107016Y0155397D02*
X0105202Y0155397D01*
X0108156Y0161195D02*
X0110503Y0161195D01*
X0116793Y0154906D01*
X0116793Y0137372D01*
X0115648Y0136228D01*
X0115648Y0133162D01*
X0115667Y0133143D01*
X0115667Y0130071D01*
X0115683Y0130055D01*
X0118733Y0129820D02*
X0133813Y0129820D01*
X0133808Y0131419D02*
X0118733Y0131419D01*
X0118142Y0133017D02*
X0134710Y0133017D01*
X0134722Y0128222D02*
X0118733Y0128222D01*
X0121935Y0125025D02*
X0152617Y0125025D01*
X0152677Y0123426D02*
X0122533Y0123426D01*
X0122533Y0121828D02*
X0152709Y0121828D01*
X0152741Y0120229D02*
X0137368Y0120229D01*
X0137579Y0118631D02*
X0152773Y0118631D01*
X0152805Y0117032D02*
X0133011Y0117032D01*
X0133011Y0116638D02*
X0137579Y0116638D01*
X0137579Y0114420D01*
X0137456Y0113963D01*
X0137219Y0113552D01*
X0136884Y0113217D01*
X0136474Y0112980D01*
X0136016Y0112857D01*
X0133011Y0112857D01*
X0133011Y0116638D01*
X0132248Y0117032D02*
X0126221Y0117032D01*
X0127680Y0117401D02*
X0132248Y0117401D01*
X0132248Y0121182D01*
X0129243Y0121182D01*
X0128785Y0121059D01*
X0128375Y0120822D01*
X0128040Y0120487D01*
X0127803Y0120077D01*
X0127680Y0119619D01*
X0127680Y0117401D01*
X0127680Y0118631D02*
X0124827Y0118631D01*
X0123228Y0120229D02*
X0127891Y0120229D01*
X0132248Y0120229D02*
X0133011Y0120229D01*
X0133011Y0118631D02*
X0132248Y0118631D01*
X0132248Y0115434D02*
X0133011Y0115434D01*
X0133011Y0113835D02*
X0132248Y0113835D01*
X0128199Y0112237D02*
X0152900Y0112237D01*
X0152868Y0113835D02*
X0137383Y0113835D01*
X0137579Y0115434D02*
X0152836Y0115434D01*
X0155137Y0115434D02*
X0171427Y0115434D01*
X0171427Y0117032D02*
X0155105Y0117032D01*
X0155073Y0118631D02*
X0171427Y0118631D01*
X0171427Y0120229D02*
X0155042Y0120229D01*
X0155010Y0121828D02*
X0171798Y0121828D01*
X0173397Y0123426D02*
X0154978Y0123426D01*
X0154946Y0125025D02*
X0173771Y0125025D01*
X0173771Y0126623D02*
X0154271Y0126623D01*
X0152673Y0128222D02*
X0159884Y0128222D01*
X0158286Y0129820D02*
X0151074Y0129820D01*
X0149969Y0131419D02*
X0157452Y0131419D01*
X0157452Y0133017D02*
X0149969Y0133017D01*
X0150952Y0134616D02*
X0156558Y0134616D01*
X0167280Y0128222D02*
X0173771Y0128222D01*
X0174739Y0129820D02*
X0168878Y0129820D01*
X0169984Y0131419D02*
X0175666Y0131419D01*
X0177264Y0133017D02*
X0169984Y0133017D01*
X0169984Y0134616D02*
X0178863Y0134616D01*
X0173759Y0136214D02*
X0169984Y0136214D01*
X0169984Y0137813D02*
X0172122Y0137813D01*
X0171718Y0139411D02*
X0170802Y0139411D01*
X0159893Y0163389D02*
X0159282Y0163389D01*
X0160352Y0164988D02*
X0158034Y0164988D01*
X0137185Y0153798D02*
X0119093Y0153798D01*
X0119093Y0155397D02*
X0135586Y0155397D01*
X0133988Y0156995D02*
X0117956Y0156995D01*
X0116358Y0158594D02*
X0132389Y0158594D01*
X0130791Y0160192D02*
X0114759Y0160192D01*
X0113161Y0161791D02*
X0129192Y0161791D01*
X0127594Y0163389D02*
X0111562Y0163389D01*
X0113626Y0150006D02*
X0109160Y0150006D01*
X0113626Y0150006D02*
X0113626Y0149507D01*
X0127571Y0104244D02*
X0128717Y0104244D01*
X0128733Y0102646D02*
X0125856Y0102646D01*
X0127330Y0096252D02*
X0127980Y0096252D01*
X0120456Y0102646D02*
X0111390Y0102646D01*
X0111390Y0101047D02*
X0113111Y0101047D01*
X0113007Y0099449D02*
X0111390Y0099449D01*
X0111390Y0097850D02*
X0113007Y0097850D01*
X0113007Y0096252D02*
X0111390Y0096252D01*
X0116788Y0096252D02*
X0117156Y0096252D01*
X0117156Y0097850D02*
X0116788Y0097850D01*
X0116788Y0099449D02*
X0117156Y0099449D01*
X0117156Y0101047D02*
X0116788Y0101047D01*
X0155201Y0112237D02*
X0171427Y0112237D01*
X0171427Y0113835D02*
X0155169Y0113835D01*
X0154251Y0045099D02*
X0154251Y0045099D01*
X0154251Y0043501D02*
X0154251Y0043501D01*
X0154251Y0041902D02*
X0154251Y0041902D01*
X0154251Y0040304D02*
X0154251Y0040304D01*
X0154251Y0038705D02*
X0154251Y0038705D01*
X0154251Y0037107D02*
X0154251Y0037107D01*
X0154251Y0035508D02*
X0154251Y0035508D01*
X0151102Y0035508D02*
X0151102Y0035508D01*
X0151102Y0035260D02*
X0151102Y0035260D01*
X0147952Y0035260D01*
X0148121Y0035260D01*
X0151102Y0035260D01*
X0151102Y0037107D02*
X0151102Y0037107D01*
X0151102Y0038705D02*
X0151102Y0038705D01*
X0151102Y0040304D02*
X0151102Y0040304D01*
X0151102Y0041902D02*
X0151102Y0041902D01*
X0151102Y0043501D02*
X0151102Y0043501D01*
X0151102Y0045099D02*
X0151102Y0045099D01*
X0147952Y0045099D02*
X0147952Y0045099D01*
X0147952Y0043501D02*
X0147952Y0043501D01*
X0147952Y0041902D02*
X0147952Y0041902D01*
X0147952Y0040304D02*
X0147952Y0040304D01*
X0147952Y0038705D02*
X0147952Y0038705D01*
X0147952Y0037107D02*
X0147952Y0037107D01*
X0147952Y0035508D02*
X0147952Y0035508D01*
X0147952Y0035260D02*
X0147952Y0035260D01*
X0144802Y0035260D02*
X0144802Y0035260D01*
X0144803Y0035508D02*
X0144803Y0035508D01*
X0144803Y0037107D02*
X0144803Y0037107D01*
X0144803Y0038705D02*
X0144803Y0038705D01*
X0144803Y0040304D02*
X0144803Y0040304D01*
X0144803Y0041902D02*
X0144803Y0041902D01*
X0144803Y0043501D02*
X0144803Y0043501D01*
X0144803Y0045099D02*
X0144803Y0045099D01*
X0141653Y0045099D02*
X0141653Y0045099D01*
X0141653Y0043501D02*
X0141653Y0043501D01*
X0141653Y0041902D02*
X0141653Y0041902D01*
X0141653Y0040304D02*
X0141653Y0040304D01*
X0141653Y0038705D02*
X0141653Y0038705D01*
X0141653Y0037107D02*
X0141653Y0037107D01*
X0141653Y0035508D02*
X0141653Y0035508D01*
X0138503Y0035508D02*
X0138503Y0035508D01*
X0138504Y0035260D02*
X0138504Y0035260D01*
X0138503Y0037107D02*
X0138503Y0037107D01*
X0138503Y0038705D02*
X0138503Y0038705D01*
X0138503Y0040304D02*
X0138503Y0040304D01*
X0138503Y0041902D02*
X0138503Y0041902D01*
X0138503Y0043501D02*
X0138503Y0043501D01*
X0138503Y0045099D02*
X0138503Y0045099D01*
X0135354Y0045099D02*
X0135354Y0045099D01*
X0135354Y0043501D02*
X0135354Y0043501D01*
X0135354Y0041902D02*
X0135354Y0041902D01*
X0135354Y0040304D02*
X0135354Y0040304D01*
X0135354Y0038705D02*
X0135354Y0038705D01*
X0135354Y0037107D02*
X0135354Y0037107D01*
X0135354Y0035508D02*
X0135354Y0035508D01*
X0135354Y0035260D02*
X0135354Y0035260D01*
X0132373Y0035260D01*
X0132204Y0035260D01*
X0135354Y0035260D01*
X0132204Y0035260D02*
X0132204Y0035260D01*
X0132204Y0035508D02*
X0132204Y0035508D01*
X0132204Y0037107D02*
X0132204Y0037107D01*
X0132204Y0038705D02*
X0132204Y0038705D01*
X0132204Y0040304D02*
X0132204Y0040304D01*
X0132204Y0041902D02*
X0132204Y0041902D01*
X0132204Y0043501D02*
X0132204Y0043501D01*
X0132204Y0045099D02*
X0132204Y0045099D01*
X0224445Y0051429D02*
X0224445Y0106414D01*
X0225343Y0105517D01*
X0225343Y0095874D01*
X0227580Y0093637D01*
X0227580Y0091489D01*
X0228459Y0090611D01*
X0233196Y0090611D01*
X0233504Y0090433D01*
X0233961Y0090311D01*
X0235084Y0090311D01*
X0235084Y0094079D01*
X0235084Y0094079D01*
X0235084Y0090311D01*
X0236207Y0090311D01*
X0236665Y0090433D01*
X0236972Y0090611D01*
X0239150Y0090611D01*
X0239160Y0090621D01*
X0239160Y0088931D01*
X0239283Y0088473D01*
X0239520Y0088062D01*
X0239808Y0087774D01*
X0239543Y0087510D01*
X0239150Y0087902D01*
X0228459Y0087902D01*
X0227580Y0087023D01*
X0227580Y0081844D01*
X0228459Y0080965D01*
X0230174Y0080965D01*
X0230174Y0068369D01*
X0229505Y0067701D01*
X0226078Y0067701D01*
X0225199Y0066822D01*
X0225199Y0061642D01*
X0226078Y0060764D01*
X0227842Y0060764D01*
X0227842Y0048032D01*
X0227424Y0048450D01*
X0224445Y0051429D01*
X0224445Y0051493D02*
X0227842Y0051493D01*
X0227842Y0049895D02*
X0225979Y0049895D01*
X0227578Y0048296D02*
X0227842Y0048296D01*
X0227842Y0053092D02*
X0224445Y0053092D01*
X0224445Y0054690D02*
X0227842Y0054690D01*
X0227842Y0056289D02*
X0224445Y0056289D01*
X0224445Y0057887D02*
X0227842Y0057887D01*
X0227842Y0059486D02*
X0224445Y0059486D01*
X0224445Y0061084D02*
X0225757Y0061084D01*
X0225199Y0062683D02*
X0224445Y0062683D01*
X0224445Y0064281D02*
X0225199Y0064281D01*
X0225199Y0065880D02*
X0224445Y0065880D01*
X0224445Y0067478D02*
X0225856Y0067478D01*
X0224445Y0069077D02*
X0230174Y0069077D01*
X0230174Y0070675D02*
X0224445Y0070675D01*
X0224445Y0072274D02*
X0230174Y0072274D01*
X0230174Y0073872D02*
X0224445Y0073872D01*
X0224445Y0075471D02*
X0230174Y0075471D01*
X0230174Y0077069D02*
X0224445Y0077069D01*
X0224445Y0078668D02*
X0230174Y0078668D01*
X0230174Y0080266D02*
X0224445Y0080266D01*
X0224445Y0081865D02*
X0227580Y0081865D01*
X0227580Y0083463D02*
X0224445Y0083463D01*
X0224445Y0085062D02*
X0227580Y0085062D01*
X0227580Y0086661D02*
X0224445Y0086661D01*
X0224445Y0088259D02*
X0239406Y0088259D01*
X0239160Y0089858D02*
X0224445Y0089858D01*
X0224445Y0091456D02*
X0227614Y0091456D01*
X0227580Y0093055D02*
X0224445Y0093055D01*
X0224445Y0094653D02*
X0226564Y0094653D01*
X0225343Y0096252D02*
X0224445Y0096252D01*
X0224445Y0097850D02*
X0225343Y0097850D01*
X0225343Y0099449D02*
X0224445Y0099449D01*
X0224445Y0101047D02*
X0225343Y0101047D01*
X0225343Y0102646D02*
X0224445Y0102646D01*
X0224445Y0104244D02*
X0225343Y0104244D01*
X0225017Y0105843D02*
X0224445Y0105843D01*
X0232761Y0100218D02*
X0232853Y0100256D01*
X0233838Y0101241D01*
X0234370Y0102527D01*
X0234370Y0103080D01*
X0235964Y0101486D01*
X0235964Y0097848D01*
X0235084Y0097848D01*
X0234065Y0097848D01*
X0233382Y0098531D01*
X0233382Y0098531D01*
X0232757Y0099156D01*
X0232761Y0100218D01*
X0232758Y0099449D02*
X0235964Y0099449D01*
X0235964Y0101047D02*
X0233644Y0101047D01*
X0234370Y0102646D02*
X0234805Y0102646D01*
X0237527Y0105298D02*
X0238555Y0105298D01*
X0253127Y0090725D01*
X0253127Y0069810D01*
X0238590Y0055272D01*
X0237418Y0054101D01*
X0237418Y0045618D01*
X0234992Y0045618D01*
X0234992Y0060764D01*
X0238344Y0060764D01*
X0239223Y0061642D01*
X0239223Y0066822D01*
X0238344Y0067701D01*
X0237558Y0067701D01*
X0237558Y0075003D01*
X0237282Y0075279D01*
X0237282Y0080965D01*
X0239150Y0080965D01*
X0239749Y0081564D01*
X0240339Y0080975D01*
X0245518Y0080975D01*
X0246397Y0081853D01*
X0246397Y0087427D01*
X0246049Y0087774D01*
X0246337Y0088062D01*
X0246574Y0088473D01*
X0246697Y0088931D01*
X0246697Y0091149D01*
X0243113Y0091149D01*
X0243113Y0091517D01*
X0246697Y0091517D01*
X0246697Y0093735D01*
X0246574Y0094193D01*
X0246337Y0094603D01*
X0246002Y0094939D01*
X0245592Y0095176D01*
X0245134Y0095298D01*
X0243113Y0095298D01*
X0243113Y0091517D01*
X0242744Y0091517D01*
X0242744Y0095298D01*
X0240723Y0095298D01*
X0240265Y0095176D01*
X0240029Y0095039D01*
X0240029Y0096669D01*
X0239764Y0096934D01*
X0239764Y0103060D01*
X0238651Y0104173D01*
X0237527Y0105298D01*
X0238580Y0104244D02*
X0239609Y0104244D01*
X0239764Y0102646D02*
X0241207Y0102646D01*
X0239764Y0101047D02*
X0242806Y0101047D01*
X0244404Y0099449D02*
X0239764Y0099449D01*
X0239764Y0097850D02*
X0246003Y0097850D01*
X0247601Y0096252D02*
X0240029Y0096252D01*
X0242744Y0094653D02*
X0243113Y0094653D01*
X0243113Y0093055D02*
X0242744Y0093055D01*
X0243113Y0091456D02*
X0252397Y0091456D01*
X0253127Y0089858D02*
X0246697Y0089858D01*
X0246451Y0088259D02*
X0253127Y0088259D01*
X0253127Y0086661D02*
X0246397Y0086661D01*
X0246397Y0085062D02*
X0253127Y0085062D01*
X0253127Y0083463D02*
X0246397Y0083463D01*
X0246397Y0081865D02*
X0253127Y0081865D01*
X0253127Y0080266D02*
X0237282Y0080266D01*
X0237282Y0078668D02*
X0253127Y0078668D01*
X0253127Y0077069D02*
X0237282Y0077069D01*
X0237282Y0075471D02*
X0253127Y0075471D01*
X0253127Y0073872D02*
X0237558Y0073872D01*
X0237558Y0072274D02*
X0253127Y0072274D01*
X0253127Y0070675D02*
X0237558Y0070675D01*
X0237558Y0069077D02*
X0252395Y0069077D01*
X0250796Y0067478D02*
X0238567Y0067478D01*
X0239223Y0065880D02*
X0249198Y0065880D01*
X0247599Y0064281D02*
X0239223Y0064281D01*
X0239223Y0062683D02*
X0246001Y0062683D01*
X0244402Y0061084D02*
X0238665Y0061084D01*
X0234992Y0059486D02*
X0242804Y0059486D01*
X0241205Y0057887D02*
X0234992Y0057887D01*
X0234992Y0056289D02*
X0239606Y0056289D01*
X0238008Y0054690D02*
X0234992Y0054690D01*
X0234992Y0053092D02*
X0237418Y0053092D01*
X0237418Y0051493D02*
X0234992Y0051493D01*
X0234992Y0049895D02*
X0237418Y0049895D01*
X0237418Y0048296D02*
X0234992Y0048296D01*
X0234992Y0046698D02*
X0237418Y0046698D01*
X0235084Y0091456D02*
X0235084Y0091456D01*
X0235084Y0093055D02*
X0235084Y0093055D01*
X0235084Y0094079D02*
X0235084Y0097848D01*
X0235084Y0094079D01*
X0235084Y0094079D01*
X0235084Y0094653D02*
X0235084Y0094653D01*
X0235084Y0096252D02*
X0235084Y0096252D01*
X0235964Y0097850D02*
X0234063Y0097850D01*
X0246288Y0094653D02*
X0249200Y0094653D01*
X0250798Y0093055D02*
X0246697Y0093055D01*
X0251134Y0104244D02*
X0302201Y0104244D01*
X0302201Y0102646D02*
X0285150Y0102646D01*
X0286749Y0101047D02*
X0302201Y0101047D01*
X0302201Y0099449D02*
X0288347Y0099449D01*
X0289946Y0097850D02*
X0302201Y0097850D01*
X0302201Y0096252D02*
X0291544Y0096252D01*
X0293143Y0094653D02*
X0302201Y0094653D01*
X0302201Y0093055D02*
X0294741Y0093055D01*
X0296340Y0091456D02*
X0302201Y0091456D01*
X0302201Y0089858D02*
X0297938Y0089858D01*
X0299537Y0088259D02*
X0302201Y0088259D01*
X0302201Y0086661D02*
X0300573Y0086661D01*
X0300573Y0085062D02*
X0302201Y0085062D01*
X0302201Y0083463D02*
X0300573Y0083463D01*
X0300573Y0081865D02*
X0302201Y0081865D01*
X0302999Y0080266D02*
X0300573Y0080266D01*
X0300573Y0078668D02*
X0311060Y0078668D01*
X0311060Y0077069D02*
X0300573Y0077069D01*
X0300573Y0075471D02*
X0311060Y0075471D01*
X0311060Y0073872D02*
X0300573Y0073872D01*
X0300573Y0072274D02*
X0311060Y0072274D01*
X0311060Y0070675D02*
X0300573Y0070675D01*
X0300573Y0069077D02*
X0311060Y0069077D01*
X0311060Y0067478D02*
X0300573Y0067478D01*
X0300573Y0065880D02*
X0311060Y0065880D01*
X0311060Y0064281D02*
X0300573Y0064281D01*
X0300573Y0062683D02*
X0311060Y0062683D01*
X0311060Y0061084D02*
X0300573Y0061084D01*
X0300573Y0059486D02*
X0311060Y0059486D01*
X0311060Y0057887D02*
X0300573Y0057887D01*
X0300573Y0056289D02*
X0311060Y0056289D01*
X0311060Y0054690D02*
X0300573Y0054690D01*
X0300573Y0053092D02*
X0311857Y0053092D01*
X0315160Y0056289D02*
X0319377Y0056289D01*
X0319380Y0057887D02*
X0315160Y0057887D01*
X0315160Y0059486D02*
X0319383Y0059486D01*
X0319385Y0061084D02*
X0315160Y0061084D01*
X0315160Y0062683D02*
X0319388Y0062683D01*
X0319390Y0064281D02*
X0315160Y0064281D01*
X0315160Y0065880D02*
X0319393Y0065880D01*
X0319396Y0067478D02*
X0315160Y0067478D01*
X0315160Y0069077D02*
X0319398Y0069077D01*
X0319401Y0070675D02*
X0315160Y0070675D01*
X0315160Y0072274D02*
X0319403Y0072274D01*
X0319406Y0073872D02*
X0315160Y0073872D01*
X0315160Y0075471D02*
X0319409Y0075471D01*
X0319411Y0077069D02*
X0315160Y0077069D01*
X0315160Y0078668D02*
X0319414Y0078668D01*
X0319417Y0080266D02*
X0315160Y0080266D01*
X0315160Y0081865D02*
X0319419Y0081865D01*
X0319422Y0083463D02*
X0314538Y0083463D01*
X0319424Y0085062D02*
X0306301Y0085062D01*
X0306301Y0086661D02*
X0319427Y0086661D01*
X0319430Y0088259D02*
X0306301Y0088259D01*
X0306301Y0089858D02*
X0319432Y0089858D01*
X0319435Y0091456D02*
X0306301Y0091456D01*
X0306301Y0093055D02*
X0319438Y0093055D01*
X0319440Y0094653D02*
X0306301Y0094653D01*
X0306301Y0096252D02*
X0319443Y0096252D01*
X0319445Y0097850D02*
X0306301Y0097850D01*
X0306301Y0099449D02*
X0319448Y0099449D01*
X0319451Y0101047D02*
X0306301Y0101047D01*
X0306301Y0102646D02*
X0319453Y0102646D01*
X0319456Y0104244D02*
X0306301Y0104244D01*
X0305859Y0105843D02*
X0319458Y0105843D01*
X0319461Y0107441D02*
X0251267Y0107441D01*
X0251643Y0109040D02*
X0319464Y0109040D01*
X0319466Y0110638D02*
X0251643Y0110638D01*
X0252810Y0112237D02*
X0319469Y0112237D01*
X0319472Y0113835D02*
X0253573Y0113835D01*
X0253573Y0115434D02*
X0319474Y0115434D01*
X0319477Y0117032D02*
X0253573Y0117032D01*
X0253573Y0118631D02*
X0319479Y0118631D01*
X0319482Y0120229D02*
X0253573Y0120229D01*
X0253573Y0121828D02*
X0319485Y0121828D01*
X0319487Y0123426D02*
X0252699Y0123426D01*
X0251100Y0125025D02*
X0319490Y0125025D01*
X0319492Y0126623D02*
X0249502Y0126623D01*
X0263646Y0129820D02*
X0267338Y0129820D01*
X0266192Y0131419D02*
X0264792Y0131419D01*
X0264792Y0133017D02*
X0266192Y0133017D01*
X0266280Y0134616D02*
X0264705Y0134616D01*
X0270392Y0149002D02*
X0270592Y0149002D01*
X0270592Y0150601D02*
X0270392Y0150601D01*
X0270392Y0152199D02*
X0270592Y0152199D01*
X0270592Y0153798D02*
X0270392Y0153798D01*
X0270392Y0155397D02*
X0270592Y0155397D01*
X0270592Y0156995D02*
X0270392Y0156995D01*
X0272750Y0156995D02*
X0319542Y0156995D01*
X0319540Y0155397D02*
X0274348Y0155397D01*
X0275092Y0153798D02*
X0319537Y0153798D01*
X0319534Y0152199D02*
X0275092Y0152199D01*
X0274851Y0150601D02*
X0319532Y0150601D01*
X0319545Y0158594D02*
X0272844Y0158594D01*
X0274442Y0160192D02*
X0319547Y0160192D01*
X0319550Y0161791D02*
X0275092Y0161791D01*
X0275092Y0163389D02*
X0319553Y0163389D01*
X0319555Y0164988D02*
X0274757Y0164988D01*
X0273159Y0166586D02*
X0319558Y0166586D01*
X0319582Y0180973D02*
X0301184Y0180973D01*
X0301184Y0182571D02*
X0319584Y0182571D01*
X0319587Y0184170D02*
X0301184Y0184170D01*
X0301184Y0185768D02*
X0319589Y0185768D01*
X0319602Y0193761D02*
X0301484Y0193761D01*
X0301484Y0195359D02*
X0319605Y0195359D01*
X0319608Y0196958D02*
X0300965Y0196958D01*
X0297407Y0196958D02*
X0296054Y0196958D01*
X0296054Y0195359D02*
X0297407Y0195359D01*
X0297407Y0193761D02*
X0296054Y0193761D01*
X0292496Y0196958D02*
X0291486Y0196958D01*
X0283866Y0196958D02*
X0272363Y0196958D01*
X0272807Y0198556D02*
X0319610Y0198556D01*
X0319613Y0200155D02*
X0274405Y0200155D01*
X0275092Y0201753D02*
X0319616Y0201753D01*
X0319618Y0203352D02*
X0275092Y0203352D01*
X0274795Y0204950D02*
X0319621Y0204950D01*
X0319623Y0206549D02*
X0273196Y0206549D01*
X0273961Y0195359D02*
X0283223Y0195359D01*
X0283223Y0190564D02*
X0274390Y0190564D01*
X0272791Y0188965D02*
X0283223Y0188965D01*
X0283223Y0185768D02*
X0273552Y0185768D01*
X0274792Y0184170D02*
X0277963Y0184170D01*
X0276366Y0182571D02*
X0274792Y0182571D01*
X0279109Y0179374D02*
X0283223Y0179374D01*
X0285376Y0177776D02*
X0277510Y0177776D01*
X0275912Y0176177D02*
X0284985Y0176177D01*
X0284751Y0174579D02*
X0275092Y0174579D01*
X0275092Y0172980D02*
X0284751Y0172980D01*
X0284751Y0171382D02*
X0275092Y0171382D01*
X0274034Y0169783D02*
X0292117Y0169783D01*
X0294925Y0169783D02*
X0295293Y0169783D01*
X0295293Y0171382D02*
X0294925Y0171382D01*
X0294925Y0172980D02*
X0295293Y0172980D01*
X0295293Y0174579D02*
X0294925Y0174579D01*
X0294925Y0176177D02*
X0295293Y0176177D01*
X0288416Y0173353D02*
X0287676Y0174093D01*
X0287676Y0182702D01*
X0268550Y0168185D02*
X0262592Y0168185D01*
X0262735Y0166586D02*
X0267826Y0166586D01*
X0266227Y0164988D02*
X0264333Y0164988D01*
X0264792Y0163389D02*
X0265892Y0163389D01*
X0265892Y0161791D02*
X0264792Y0161791D01*
X0264018Y0160192D02*
X0266542Y0160192D01*
X0258659Y0156995D02*
X0257568Y0156995D01*
X0257060Y0155397D02*
X0255970Y0155397D01*
X0263609Y0169783D02*
X0266951Y0169783D01*
X0265892Y0171382D02*
X0264792Y0171382D01*
X0264792Y0172980D02*
X0265892Y0172980D01*
X0265892Y0174579D02*
X0264742Y0174579D01*
X0249669Y0105843D02*
X0302644Y0105843D01*
X0300573Y0051493D02*
X0319369Y0051493D01*
X0319367Y0049895D02*
X0300573Y0049895D01*
X0300573Y0048296D02*
X0302005Y0048296D01*
X0302005Y0046698D02*
X0300573Y0046698D01*
X0301455Y0045099D02*
X0302005Y0045099D01*
X0302005Y0043501D02*
X0301814Y0043501D01*
X0301814Y0041902D02*
X0302005Y0041902D01*
X0302005Y0040304D02*
X0301814Y0040304D01*
X0301814Y0038705D02*
X0302005Y0038705D01*
X0302005Y0037107D02*
X0301814Y0037107D01*
X0301814Y0035508D02*
X0302005Y0035508D01*
X0302005Y0033910D02*
X0301814Y0033910D01*
X0301814Y0032311D02*
X0302005Y0032311D01*
X0302005Y0030713D02*
X0301814Y0030713D01*
X0301814Y0029114D02*
X0302005Y0029114D01*
D44*
X0175399Y0139519D03*
X0113824Y0187994D03*
X0108156Y0161195D03*
X0157092Y0233711D03*
X0200701Y0257124D03*
X0207877Y0251519D03*
X0185266Y0285800D03*
X0145033Y0284558D03*
X0115081Y0278920D03*
D45*
X0208080Y0186124D02*
X0214245Y0192289D01*
X0231816Y0192289D01*
X0157826Y0107965D02*
X0157826Y0095047D01*
X0157846Y0095027D01*
X0157826Y0107965D02*
X0132629Y0107965D01*
X0123788Y0110850D02*
X0123788Y0115852D01*
X0119483Y0120156D01*
X0119483Y0122055D01*
X0110988Y0122041D02*
X0110988Y0113995D01*
X0107211Y0110218D01*
X0123156Y0110218D02*
X0123156Y0098960D01*
X0123665Y0098451D01*
X0123156Y0098960D02*
X0132579Y0098960D01*
X0132629Y0098909D01*
X0123156Y0110218D02*
X0123788Y0110850D01*
D46*
X0113626Y0149507D03*
X0113316Y0153305D03*
X0129663Y0169327D03*
X0129018Y0207380D03*
X0131718Y0250200D03*
X0131275Y0258133D03*
X0131306Y0265774D03*
X0130758Y0273635D03*
X0175728Y0152516D03*
X0175997Y0146858D03*
X0224130Y0142549D03*
D47*
X0108290Y0110218D02*
X0108290Y0066978D01*
X0108290Y0110218D02*
X0107211Y0110218D01*
M02*
