G75*
%MOIN*%
%OFA0B0*%
%FSLAX25Y25*%
%IPPOS*%
%LPD*%
%AMOC8*
5,1,8,0,0,1.08239X$1,22.5*
%
%ADD10R,0.05131X0.04737*%
%ADD11C,0.01421*%
%ADD12R,0.06706X0.07099*%
%ADD13R,0.04737X0.05131*%
%ADD14R,0.05524X0.01981*%
%ADD15R,0.01981X0.05524*%
%ADD16R,0.13398X0.07887*%
%ADD17R,0.02572X0.04737*%
%ADD18R,0.06902X0.06706*%
%ADD19R,0.06115X0.02375*%
%ADD20C,0.05950*%
%ADD21C,0.07591*%
%ADD22R,0.03556X0.02572*%
%ADD23R,0.03900X0.04300*%
%ADD24R,0.07887X0.10249*%
%ADD25R,0.07099X0.05524*%
%ADD26R,0.07099X0.13792*%
%ADD27OC8,0.06400*%
%ADD28R,0.03517X0.01902*%
%ADD29R,0.10643X0.10643*%
%ADD30R,0.01902X0.03517*%
%ADD31C,0.06300*%
%ADD32C,0.10250*%
%ADD33C,0.06800*%
%ADD34C,0.13400*%
%ADD35R,0.02769X0.03359*%
%ADD36R,0.03359X0.02769*%
%ADD37C,0.06400*%
%ADD38R,0.03162X0.18517*%
%ADD39R,0.07099X0.06706*%
D10*
X0116972Y0098451D03*
X0123665Y0098451D03*
X0157846Y0095027D03*
X0164539Y0095027D03*
X0228865Y0064232D03*
X0235558Y0064232D03*
X0288416Y0173353D03*
X0295109Y0173353D03*
X0153285Y0278652D03*
X0153285Y0285345D03*
X0126019Y0273806D03*
X0119326Y0273806D03*
X0119357Y0265714D03*
X0126050Y0265714D03*
X0126057Y0257677D03*
X0119364Y0257677D03*
X0119280Y0249623D03*
X0125973Y0249623D03*
D11*
X0113592Y0248785D02*
X0113592Y0252101D01*
X0113592Y0248785D02*
X0110276Y0248785D01*
X0110276Y0252101D01*
X0113592Y0252101D01*
X0113592Y0250205D02*
X0110276Y0250205D01*
X0110276Y0251625D02*
X0113592Y0251625D01*
X0113765Y0256433D02*
X0113765Y0259749D01*
X0113765Y0256433D02*
X0110449Y0256433D01*
X0110449Y0259749D01*
X0113765Y0259749D01*
X0113765Y0257853D02*
X0110449Y0257853D01*
X0110449Y0259273D02*
X0113765Y0259273D01*
X0113692Y0264137D02*
X0113692Y0267453D01*
X0113692Y0264137D02*
X0110376Y0264137D01*
X0110376Y0267453D01*
X0113692Y0267453D01*
X0113692Y0265557D02*
X0110376Y0265557D01*
X0110376Y0266977D02*
X0113692Y0266977D01*
X0113762Y0272005D02*
X0113762Y0275321D01*
X0113762Y0272005D02*
X0110446Y0272005D01*
X0110446Y0275321D01*
X0113762Y0275321D01*
X0113762Y0273425D02*
X0110446Y0273425D01*
X0110446Y0274845D02*
X0113762Y0274845D01*
X0106857Y0275321D02*
X0106857Y0272005D01*
X0103541Y0272005D01*
X0103541Y0275321D01*
X0106857Y0275321D01*
X0106857Y0273425D02*
X0103541Y0273425D01*
X0103541Y0274845D02*
X0106857Y0274845D01*
X0106786Y0267453D02*
X0106786Y0264137D01*
X0103470Y0264137D01*
X0103470Y0267453D01*
X0106786Y0267453D01*
X0106786Y0265557D02*
X0103470Y0265557D01*
X0103470Y0266977D02*
X0106786Y0266977D01*
X0106859Y0259749D02*
X0106859Y0256433D01*
X0103543Y0256433D01*
X0103543Y0259749D01*
X0106859Y0259749D01*
X0106859Y0257853D02*
X0103543Y0257853D01*
X0103543Y0259273D02*
X0106859Y0259273D01*
X0106686Y0252101D02*
X0106686Y0248785D01*
X0103370Y0248785D01*
X0103370Y0252101D01*
X0106686Y0252101D01*
X0106686Y0250205D02*
X0103370Y0250205D01*
X0103370Y0251625D02*
X0106686Y0251625D01*
D12*
X0145908Y0223879D03*
X0145908Y0214036D03*
X0154963Y0214036D03*
X0154963Y0223879D03*
X0287676Y0192544D03*
X0287676Y0182702D03*
X0296731Y0182702D03*
X0296731Y0192544D03*
D13*
X0242929Y0091333D03*
X0242929Y0084640D03*
X0129362Y0176038D03*
X0129362Y0182731D03*
X0129047Y0213347D03*
X0129047Y0220040D03*
X0163654Y0219778D03*
X0163654Y0213085D03*
X0144995Y0270650D03*
X0144995Y0277343D03*
D14*
X0181831Y0191369D03*
X0181831Y0189401D03*
X0181831Y0187432D03*
X0181831Y0185464D03*
X0181831Y0183495D03*
X0181831Y0181527D03*
X0181831Y0179558D03*
X0181831Y0177590D03*
X0181831Y0175621D03*
X0181831Y0173653D03*
X0181831Y0171684D03*
X0181831Y0169716D03*
X0181831Y0167747D03*
X0181831Y0165779D03*
X0181831Y0163810D03*
X0181831Y0161842D03*
X0181831Y0159873D03*
X0181831Y0157905D03*
X0181831Y0155936D03*
X0181831Y0153968D03*
X0181831Y0151999D03*
X0181831Y0150031D03*
X0181831Y0148062D03*
X0181831Y0146094D03*
X0181831Y0144125D03*
X0242855Y0144125D03*
X0242855Y0146094D03*
X0242855Y0148062D03*
X0242855Y0150031D03*
X0242855Y0151999D03*
X0242855Y0153968D03*
X0242855Y0155936D03*
X0242855Y0157905D03*
X0242855Y0159873D03*
X0242855Y0161842D03*
X0242855Y0163810D03*
X0242855Y0165779D03*
X0242855Y0167747D03*
X0242855Y0169716D03*
X0242855Y0171684D03*
X0242855Y0173653D03*
X0242855Y0175621D03*
X0242855Y0177590D03*
X0242855Y0179558D03*
X0242855Y0181527D03*
X0242855Y0183495D03*
X0242855Y0185464D03*
X0242855Y0187432D03*
X0242855Y0189401D03*
X0242855Y0191369D03*
D15*
X0235965Y0198259D03*
X0233996Y0198259D03*
X0232028Y0198259D03*
X0230059Y0198259D03*
X0228091Y0198259D03*
X0226122Y0198259D03*
X0224154Y0198259D03*
X0222185Y0198259D03*
X0220217Y0198259D03*
X0218248Y0198259D03*
X0216280Y0198259D03*
X0214311Y0198259D03*
X0212343Y0198259D03*
X0210374Y0198259D03*
X0208406Y0198259D03*
X0206437Y0198259D03*
X0204469Y0198259D03*
X0202500Y0198259D03*
X0200532Y0198259D03*
X0198563Y0198259D03*
X0196595Y0198259D03*
X0194626Y0198259D03*
X0192658Y0198259D03*
X0190689Y0198259D03*
X0188721Y0198259D03*
X0188721Y0137235D03*
X0190689Y0137235D03*
X0192658Y0137235D03*
X0194626Y0137235D03*
X0196595Y0137235D03*
X0198563Y0137235D03*
X0200532Y0137235D03*
X0202500Y0137235D03*
X0204469Y0137235D03*
X0206437Y0137235D03*
X0208406Y0137235D03*
X0210374Y0137235D03*
X0212343Y0137235D03*
X0214311Y0137235D03*
X0216280Y0137235D03*
X0218248Y0137235D03*
X0220217Y0137235D03*
X0222185Y0137235D03*
X0224154Y0137235D03*
X0226122Y0137235D03*
X0228091Y0137235D03*
X0230059Y0137235D03*
X0232028Y0137235D03*
X0233996Y0137235D03*
X0235965Y0137235D03*
D16*
X0114087Y0176910D03*
X0114087Y0198957D03*
X0114087Y0213851D03*
X0114087Y0235898D03*
D17*
X0229966Y0094079D03*
X0232525Y0094079D03*
X0235084Y0094079D03*
X0237643Y0094079D03*
X0237643Y0084434D03*
X0235084Y0084434D03*
X0232525Y0084434D03*
X0229966Y0084434D03*
D18*
X0085734Y0352075D03*
X0085734Y0359949D03*
D19*
X0096364Y0361130D03*
X0096364Y0358571D03*
X0096364Y0356012D03*
X0096364Y0353453D03*
X0096364Y0350894D03*
D20*
X0096364Y0346169D03*
X0096364Y0365854D03*
D21*
X0085734Y0370175D03*
X0085734Y0341848D03*
D22*
X0103058Y0153155D03*
X0103058Y0150006D03*
X0109160Y0150006D03*
X0109160Y0153155D03*
D23*
X0115683Y0130055D03*
X0119483Y0122055D03*
X0111883Y0122055D03*
D24*
X0107211Y0110218D03*
X0123156Y0110218D03*
D25*
X0132629Y0107965D03*
X0132629Y0117020D03*
X0132629Y0098909D03*
D26*
X0157826Y0107965D03*
D27*
X0177343Y0109598D03*
X0177343Y0119598D03*
X0187343Y0119598D03*
X0197343Y0119598D03*
X0207343Y0119598D03*
X0217343Y0119598D03*
X0227343Y0119598D03*
X0237343Y0119598D03*
X0247343Y0119598D03*
X0247343Y0109598D03*
X0237343Y0109598D03*
X0227343Y0109598D03*
X0217343Y0109598D03*
X0207343Y0109598D03*
X0197343Y0109598D03*
X0187343Y0109598D03*
X0164193Y0132747D03*
X0154193Y0132747D03*
X0154193Y0142747D03*
X0154193Y0152747D03*
X0164193Y0152747D03*
X0164193Y0142747D03*
X0164193Y0162747D03*
X0164193Y0172747D03*
X0154193Y0172747D03*
X0154193Y0162747D03*
X0154193Y0182747D03*
X0154193Y0192747D03*
X0164193Y0192747D03*
X0164193Y0182747D03*
X0164193Y0202747D03*
X0154193Y0202747D03*
X0182802Y0220317D03*
X0192802Y0220317D03*
X0202802Y0220317D03*
X0202802Y0230317D03*
X0192802Y0230317D03*
X0182802Y0230317D03*
X0212802Y0230317D03*
X0222802Y0230317D03*
X0222802Y0220317D03*
X0212802Y0220317D03*
X0232802Y0220317D03*
X0232802Y0230317D03*
X0242802Y0230317D03*
X0260492Y0202747D03*
X0270492Y0202747D03*
X0270492Y0192747D03*
X0260492Y0192747D03*
X0260492Y0182747D03*
X0270492Y0182747D03*
X0270492Y0172747D03*
X0260492Y0172747D03*
X0260492Y0162747D03*
X0270492Y0162747D03*
X0270492Y0152747D03*
X0260492Y0152747D03*
X0260492Y0142747D03*
X0270492Y0142747D03*
X0270492Y0132747D03*
X0260492Y0132747D03*
D28*
X0169046Y0258957D03*
X0169046Y0260925D03*
X0169046Y0262894D03*
X0169046Y0264862D03*
X0169046Y0266831D03*
X0169046Y0268799D03*
X0151763Y0268799D03*
X0151763Y0266831D03*
X0151763Y0264862D03*
X0151763Y0262894D03*
X0151763Y0260925D03*
X0151763Y0258957D03*
D29*
X0160405Y0263878D03*
D30*
X0161389Y0255236D03*
X0163357Y0255236D03*
X0165326Y0255236D03*
X0159420Y0255236D03*
X0157452Y0255236D03*
X0155483Y0255236D03*
X0155483Y0272520D03*
X0157452Y0272520D03*
X0159420Y0272520D03*
X0161389Y0272520D03*
X0163357Y0272520D03*
X0165326Y0272520D03*
D31*
X0161812Y0317216D03*
X0151812Y0317216D03*
X0156812Y0327216D03*
X0146812Y0327216D03*
X0141812Y0317216D03*
X0166812Y0327216D03*
X0176812Y0327216D03*
X0171812Y0317216D03*
D32*
X0190312Y0340216D03*
X0128312Y0340216D03*
D33*
X0134412Y0365516D03*
X0144412Y0371516D03*
X0174212Y0365516D03*
X0184212Y0371516D03*
D34*
X0181812Y0352216D03*
X0136812Y0352216D03*
D35*
X0181626Y0260854D03*
X0184775Y0260854D03*
X0187925Y0260854D03*
X0191075Y0260854D03*
X0191075Y0255540D03*
X0187925Y0255540D03*
X0184775Y0255540D03*
X0181626Y0255540D03*
X0166282Y0245337D03*
X0163133Y0245337D03*
X0159983Y0245337D03*
X0156833Y0245337D03*
X0156833Y0240022D03*
X0159983Y0240022D03*
X0163133Y0240022D03*
X0166282Y0240022D03*
D36*
X0217103Y0247641D03*
X0217103Y0250791D03*
X0217103Y0253940D03*
X0217103Y0257090D03*
X0222418Y0257090D03*
X0222418Y0253940D03*
X0222418Y0250791D03*
X0222418Y0247641D03*
D37*
X0242802Y0220317D03*
D38*
X0100708Y0035260D03*
X0103858Y0035260D03*
X0107007Y0035260D03*
X0110157Y0035260D03*
X0113307Y0035260D03*
X0116456Y0035260D03*
X0119606Y0035260D03*
X0122755Y0035260D03*
X0125905Y0035260D03*
X0129055Y0035260D03*
X0132204Y0035260D03*
X0135354Y0035260D03*
X0138503Y0035260D03*
X0141653Y0035260D03*
X0144803Y0035260D03*
X0147952Y0035260D03*
X0151102Y0035260D03*
X0154251Y0035260D03*
X0157401Y0035260D03*
X0160551Y0035260D03*
X0163700Y0035260D03*
X0166850Y0035260D03*
X0169999Y0035260D03*
X0173149Y0035260D03*
X0176299Y0035260D03*
X0179448Y0035260D03*
X0182598Y0035260D03*
X0185747Y0035260D03*
X0188897Y0035260D03*
X0192047Y0035260D03*
X0195196Y0035260D03*
X0198346Y0035260D03*
X0214094Y0035260D03*
X0217244Y0035260D03*
X0220393Y0035260D03*
X0223543Y0035260D03*
X0226692Y0035260D03*
X0229842Y0035260D03*
X0232992Y0035260D03*
X0236141Y0035260D03*
X0239291Y0035260D03*
X0242440Y0035260D03*
X0245590Y0035260D03*
X0248740Y0035260D03*
X0251889Y0035260D03*
X0255039Y0035260D03*
X0258188Y0035260D03*
X0261338Y0035260D03*
X0264488Y0035260D03*
X0267637Y0035260D03*
X0270787Y0035260D03*
X0273936Y0035260D03*
X0277086Y0035260D03*
X0280236Y0035260D03*
X0283385Y0035260D03*
X0286535Y0035260D03*
X0289684Y0035260D03*
X0292834Y0035260D03*
X0295984Y0035260D03*
X0299133Y0035260D03*
D39*
X0298179Y0364501D03*
X0298179Y0373557D03*
X0308021Y0373557D03*
X0308021Y0364501D03*
M02*
