G75*
%MOIN*%
%OFA0B0*%
%FSLAX25Y25*%
%IPPOS*%
%LPD*%
%AMOC8*
5,1,8,0,0,1.08239X$1,22.5*
%
%ADD10C,0.00300*%
%ADD11C,0.02200*%
%ADD12C,0.00100*%
%ADD13R,0.01800X0.03000*%
%ADD14C,0.00400*%
D10*
X0118523Y0131099D02*
X0120992Y0131099D01*
X0122206Y0131099D02*
X0124675Y0131099D01*
X0125890Y0131099D02*
X0125890Y0133568D01*
X0127124Y0134803D01*
X0128358Y0133568D01*
X0128358Y0131099D01*
X0128358Y0132951D02*
X0125890Y0132951D01*
X0124675Y0133568D02*
X0123441Y0134803D01*
X0123441Y0131099D01*
X0120992Y0133568D02*
X0119758Y0134803D01*
X0119758Y0131099D01*
X0129573Y0132951D02*
X0130190Y0132334D01*
X0132041Y0132334D01*
X0132041Y0131099D02*
X0132041Y0134803D01*
X0130190Y0134803D01*
X0129573Y0134185D01*
X0129573Y0132951D01*
X0128606Y0140161D02*
X0131075Y0140161D01*
X0131075Y0143865D01*
X0132289Y0143247D02*
X0132907Y0143865D01*
X0134141Y0143865D01*
X0134758Y0143247D01*
X0134758Y0140779D01*
X0134141Y0140161D01*
X0132907Y0140161D01*
X0132289Y0140779D01*
X0135973Y0140779D02*
X0136590Y0140161D01*
X0137824Y0140161D01*
X0138441Y0140779D01*
X0137824Y0142013D02*
X0136590Y0142013D01*
X0135973Y0141396D01*
X0135973Y0140779D01*
X0137824Y0142013D02*
X0138441Y0142630D01*
X0138441Y0143247D01*
X0137824Y0143865D01*
X0136590Y0143865D01*
X0135973Y0143247D01*
X0133882Y0149870D02*
X0132648Y0149870D01*
X0132030Y0150487D01*
X0130816Y0150487D02*
X0130199Y0149870D01*
X0128965Y0149870D01*
X0128347Y0150487D01*
X0128347Y0151105D01*
X0128965Y0151722D01*
X0130199Y0151722D01*
X0130816Y0152339D01*
X0130816Y0152956D01*
X0130199Y0153573D01*
X0128965Y0153573D01*
X0128347Y0152956D01*
X0128347Y0152339D01*
X0128965Y0151722D01*
X0130199Y0151722D02*
X0130816Y0151105D01*
X0130816Y0150487D01*
X0132030Y0152956D02*
X0132648Y0153573D01*
X0133882Y0153573D01*
X0134499Y0152956D01*
X0134499Y0150487D01*
X0133882Y0149870D01*
X0135714Y0151722D02*
X0136331Y0151105D01*
X0138182Y0151105D01*
X0138182Y0149870D02*
X0138182Y0153573D01*
X0136331Y0153573D01*
X0135714Y0152956D01*
X0135714Y0151722D01*
X0137341Y0158349D02*
X0137341Y0162052D01*
X0135489Y0162052D01*
X0134872Y0161435D01*
X0134872Y0160201D01*
X0135489Y0159583D01*
X0137341Y0159583D01*
X0133658Y0158966D02*
X0133041Y0158349D01*
X0131806Y0158349D01*
X0131189Y0158966D01*
X0129975Y0158966D02*
X0129358Y0158349D01*
X0128123Y0158349D01*
X0127506Y0158966D01*
X0127506Y0159583D01*
X0128123Y0160201D01*
X0129975Y0160201D01*
X0129975Y0158966D01*
X0129975Y0160201D02*
X0128740Y0161435D01*
X0127506Y0162052D01*
X0131189Y0161435D02*
X0131806Y0162052D01*
X0133041Y0162052D01*
X0133658Y0161435D01*
X0133658Y0158966D01*
X0133489Y0171100D02*
X0132872Y0171717D01*
X0132872Y0174186D01*
X0133489Y0174803D01*
X0135341Y0174803D01*
X0135341Y0171100D01*
X0133489Y0171100D01*
X0131658Y0171100D02*
X0129189Y0171100D01*
X0130423Y0171100D02*
X0130423Y0174803D01*
X0131658Y0173569D01*
X0127974Y0172951D02*
X0125506Y0172951D01*
X0126123Y0171100D02*
X0126123Y0174803D01*
X0127974Y0172951D01*
X0127672Y0179260D02*
X0125204Y0179260D01*
X0125204Y0181728D02*
X0125204Y0182345D01*
X0125821Y0182963D01*
X0127055Y0182963D01*
X0127672Y0182345D01*
X0130121Y0182963D02*
X0130121Y0179260D01*
X0128887Y0179260D02*
X0131356Y0179260D01*
X0132570Y0179877D02*
X0132570Y0182345D01*
X0133187Y0182963D01*
X0135039Y0182963D01*
X0135039Y0179260D01*
X0133187Y0179260D01*
X0132570Y0179877D01*
X0131356Y0181728D02*
X0130121Y0182963D01*
X0127672Y0179260D02*
X0125204Y0181728D01*
X0128965Y0189935D02*
X0128347Y0190552D01*
X0128347Y0193021D01*
X0128965Y0193638D01*
X0130199Y0193638D01*
X0130816Y0193021D01*
X0130816Y0192404D01*
X0130199Y0191786D01*
X0128347Y0191786D01*
X0128965Y0189935D02*
X0130199Y0189935D01*
X0130816Y0190552D01*
X0132030Y0190552D02*
X0132030Y0193021D01*
X0132648Y0193638D01*
X0134499Y0193638D01*
X0134499Y0189935D01*
X0132648Y0189935D01*
X0132030Y0190552D01*
X0135714Y0191786D02*
X0135714Y0193021D01*
X0136331Y0193638D01*
X0138182Y0193638D01*
X0138182Y0189935D01*
X0138182Y0191169D02*
X0136331Y0191169D01*
X0135714Y0191786D01*
X0136870Y0182963D02*
X0136253Y0182345D01*
X0136253Y0181111D01*
X0136870Y0180494D01*
X0138722Y0180494D01*
X0138722Y0179260D02*
X0138722Y0182963D01*
X0136870Y0182963D01*
X0137172Y0174803D02*
X0136555Y0174186D01*
X0136555Y0172951D01*
X0137172Y0172334D01*
X0139024Y0172334D01*
X0139024Y0171100D02*
X0139024Y0174803D01*
X0137172Y0174803D01*
X0162256Y0180735D02*
X0164725Y0180735D01*
X0165939Y0180735D02*
X0168408Y0180735D01*
X0167173Y0180735D02*
X0167173Y0184439D01*
X0168408Y0183204D01*
X0169622Y0183821D02*
X0170239Y0184439D01*
X0172091Y0184439D01*
X0172091Y0180735D01*
X0170239Y0180735D01*
X0169622Y0181353D01*
X0169622Y0183821D01*
X0173305Y0183821D02*
X0173305Y0182587D01*
X0173922Y0181970D01*
X0175774Y0181970D01*
X0175774Y0180735D02*
X0175774Y0184439D01*
X0173922Y0184439D01*
X0173305Y0183821D01*
X0173444Y0188969D02*
X0173444Y0192672D01*
X0171592Y0192672D01*
X0170975Y0192055D01*
X0170975Y0190821D01*
X0171592Y0190204D01*
X0173444Y0190204D01*
X0169761Y0188969D02*
X0169761Y0192672D01*
X0167909Y0192672D01*
X0167292Y0192055D01*
X0167292Y0189586D01*
X0167909Y0188969D01*
X0169761Y0188969D01*
X0166077Y0189586D02*
X0166077Y0190204D01*
X0165460Y0190821D01*
X0164226Y0190821D01*
X0163609Y0190204D01*
X0163609Y0189586D01*
X0164226Y0188969D01*
X0165460Y0188969D01*
X0166077Y0189586D01*
X0165460Y0190821D02*
X0166077Y0191438D01*
X0166077Y0192055D01*
X0165460Y0192672D01*
X0164226Y0192672D01*
X0163609Y0192055D01*
X0163609Y0191438D01*
X0164226Y0190821D01*
X0163490Y0184439D02*
X0163490Y0180735D01*
X0164725Y0183204D02*
X0163490Y0184439D01*
X0163650Y0172554D02*
X0163033Y0171937D01*
X0163033Y0171320D01*
X0163650Y0170702D01*
X0163033Y0170085D01*
X0163033Y0169468D01*
X0163650Y0168851D01*
X0164884Y0168851D01*
X0165501Y0169468D01*
X0166716Y0168851D02*
X0169185Y0168851D01*
X0167950Y0168851D02*
X0167950Y0172554D01*
X0169185Y0171320D01*
X0170399Y0171937D02*
X0171016Y0172554D01*
X0172868Y0172554D01*
X0172868Y0168851D01*
X0171016Y0168851D01*
X0170399Y0169468D01*
X0170399Y0171937D01*
X0174082Y0171937D02*
X0174082Y0170702D01*
X0174699Y0170085D01*
X0176551Y0170085D01*
X0176551Y0168851D02*
X0176551Y0172554D01*
X0174699Y0172554D01*
X0174082Y0171937D01*
X0165501Y0171937D02*
X0164884Y0172554D01*
X0163650Y0172554D01*
X0163650Y0170702D02*
X0164267Y0170702D01*
X0165346Y0163233D02*
X0162877Y0163233D01*
X0163494Y0161998D02*
X0162877Y0161381D01*
X0162877Y0160147D01*
X0163494Y0159530D01*
X0164729Y0159530D01*
X0165346Y0160147D01*
X0165346Y0161381D02*
X0164112Y0161998D01*
X0163494Y0161998D01*
X0165346Y0161381D02*
X0165346Y0163233D01*
X0167795Y0163233D02*
X0167795Y0159530D01*
X0169029Y0159530D02*
X0166560Y0159530D01*
X0169029Y0161998D02*
X0167795Y0163233D01*
X0170243Y0162615D02*
X0170861Y0163233D01*
X0172712Y0163233D01*
X0172712Y0159530D01*
X0170861Y0159530D01*
X0170243Y0160147D01*
X0170243Y0162615D01*
X0173927Y0162615D02*
X0173927Y0161381D01*
X0174544Y0160764D01*
X0176395Y0160764D01*
X0176395Y0159530D02*
X0176395Y0163233D01*
X0174544Y0163233D01*
X0173927Y0162615D01*
X0172745Y0153445D02*
X0170893Y0153445D01*
X0170276Y0152828D01*
X0170276Y0151594D01*
X0170893Y0150976D01*
X0172745Y0150976D01*
X0172745Y0149742D02*
X0172745Y0153445D01*
X0169061Y0152828D02*
X0169061Y0150359D01*
X0168444Y0149742D01*
X0167210Y0149742D01*
X0166593Y0150359D01*
X0165378Y0150359D02*
X0165378Y0149742D01*
X0165378Y0150359D02*
X0162910Y0152828D01*
X0162910Y0153445D01*
X0165378Y0153445D01*
X0166593Y0152828D02*
X0167210Y0153445D01*
X0168444Y0153445D01*
X0169061Y0152828D01*
X0168763Y0147852D02*
X0170615Y0147852D01*
X0170615Y0144149D01*
X0168763Y0144149D01*
X0168146Y0144766D01*
X0168146Y0147235D01*
X0168763Y0147852D01*
X0166932Y0146618D02*
X0166932Y0144149D01*
X0166932Y0146001D02*
X0164463Y0146001D01*
X0164463Y0146618D02*
X0164463Y0144149D01*
X0163249Y0144149D02*
X0160780Y0146618D01*
X0160780Y0147235D01*
X0161397Y0147852D01*
X0162631Y0147852D01*
X0163249Y0147235D01*
X0164463Y0146618D02*
X0165697Y0147852D01*
X0166932Y0146618D01*
X0163249Y0144149D02*
X0160780Y0144149D01*
X0171829Y0144766D02*
X0172447Y0144149D01*
X0173681Y0144149D01*
X0174298Y0144766D01*
X0173681Y0146001D02*
X0172447Y0146001D01*
X0171829Y0145384D01*
X0171829Y0144766D01*
X0173681Y0146001D02*
X0174298Y0146618D01*
X0174298Y0147235D01*
X0173681Y0147852D01*
X0172447Y0147852D01*
X0171829Y0147235D01*
X0178743Y0129926D02*
X0178743Y0127457D01*
X0181212Y0129926D01*
X0181829Y0129926D01*
X0182446Y0129308D01*
X0182446Y0128074D01*
X0181829Y0127457D01*
X0182446Y0125008D02*
X0178743Y0125008D01*
X0178743Y0123774D02*
X0178743Y0126242D01*
X0181212Y0123774D02*
X0182446Y0125008D01*
X0181829Y0122559D02*
X0182446Y0121942D01*
X0182446Y0120708D01*
X0181829Y0120091D01*
X0179360Y0120091D01*
X0178743Y0120708D01*
X0178743Y0121942D01*
X0179360Y0122559D01*
X0180594Y0118876D02*
X0179977Y0118259D01*
X0179977Y0116407D01*
X0178743Y0116407D02*
X0182446Y0116407D01*
X0182446Y0118259D01*
X0181829Y0118876D01*
X0180594Y0118876D01*
X0173366Y0121623D02*
X0173366Y0125326D01*
X0171514Y0125326D01*
X0170897Y0124709D01*
X0170897Y0123474D01*
X0171514Y0122857D01*
X0173366Y0122857D01*
X0169683Y0123474D02*
X0167214Y0123474D01*
X0167214Y0124092D02*
X0167214Y0121623D01*
X0166000Y0122240D02*
X0165383Y0121623D01*
X0164148Y0121623D01*
X0163531Y0122240D01*
X0163531Y0124709D01*
X0164148Y0125326D01*
X0165383Y0125326D01*
X0166000Y0124709D01*
X0166000Y0124092D01*
X0165383Y0123474D01*
X0163531Y0123474D01*
X0167214Y0124092D02*
X0168448Y0125326D01*
X0169683Y0124092D01*
X0169683Y0121623D01*
X0162724Y0116009D02*
X0162724Y0113540D01*
X0162107Y0112923D01*
X0160873Y0112923D01*
X0160255Y0113540D01*
X0160255Y0114775D01*
X0161490Y0114775D01*
X0162724Y0116009D02*
X0162107Y0116626D01*
X0160873Y0116626D01*
X0160255Y0116009D01*
X0159041Y0116626D02*
X0156572Y0112923D01*
X0156572Y0116626D01*
X0155358Y0116626D02*
X0153506Y0116626D01*
X0152889Y0116009D01*
X0152889Y0113540D01*
X0153506Y0112923D01*
X0155358Y0112923D01*
X0155358Y0116626D01*
X0159041Y0116626D02*
X0159041Y0112923D01*
X0158668Y0111243D02*
X0159902Y0111243D01*
X0160520Y0110626D01*
X0160520Y0108157D01*
X0159902Y0107540D01*
X0158668Y0107540D01*
X0158051Y0108157D01*
X0156837Y0107540D02*
X0154368Y0107540D01*
X0153153Y0107540D02*
X0150685Y0107540D01*
X0151919Y0107540D02*
X0151919Y0111243D01*
X0153153Y0110009D01*
X0155602Y0111243D02*
X0155602Y0107540D01*
X0156837Y0110009D02*
X0155602Y0111243D01*
X0158051Y0110626D02*
X0158668Y0111243D01*
X0161734Y0110626D02*
X0161734Y0109392D01*
X0162351Y0108774D01*
X0164203Y0108774D01*
X0164203Y0107540D02*
X0164203Y0111243D01*
X0162351Y0111243D01*
X0161734Y0110626D01*
X0161560Y0103130D02*
X0160943Y0102512D01*
X0160943Y0100661D01*
X0160943Y0099446D02*
X0162794Y0099446D01*
X0163412Y0098829D01*
X0162794Y0098212D01*
X0160943Y0098212D01*
X0160943Y0096978D02*
X0163412Y0096978D01*
X0163412Y0097595D01*
X0162794Y0098212D01*
X0162794Y0095763D02*
X0162177Y0095763D01*
X0162177Y0093294D01*
X0161560Y0093294D02*
X0162794Y0093294D01*
X0163412Y0093912D01*
X0163412Y0095146D01*
X0162794Y0095763D01*
X0160943Y0095146D02*
X0160943Y0093912D01*
X0161560Y0093294D01*
X0160943Y0090846D02*
X0164646Y0090846D01*
X0164646Y0092080D02*
X0164646Y0089611D01*
X0175191Y0090251D02*
X0177660Y0087782D01*
X0177043Y0087165D01*
X0175808Y0087165D01*
X0175191Y0087782D01*
X0175191Y0090251D01*
X0175808Y0090868D01*
X0177043Y0090868D01*
X0177660Y0090251D01*
X0177660Y0087782D01*
X0178874Y0087782D02*
X0178874Y0090251D01*
X0179491Y0090868D01*
X0181343Y0090868D01*
X0181343Y0087165D01*
X0179491Y0087165D01*
X0178874Y0087782D01*
X0182557Y0089016D02*
X0183174Y0088399D01*
X0185026Y0088399D01*
X0185026Y0087165D02*
X0185026Y0090868D01*
X0183174Y0090868D01*
X0182557Y0090251D01*
X0182557Y0089016D01*
X0187041Y0088776D02*
X0189510Y0091245D01*
X0190127Y0091245D01*
X0190744Y0090628D01*
X0190744Y0089393D01*
X0190127Y0088776D01*
X0190127Y0087562D02*
X0190744Y0086944D01*
X0190744Y0085093D01*
X0187041Y0085093D01*
X0187041Y0086944D01*
X0187658Y0087562D01*
X0190127Y0087562D01*
X0187041Y0088776D02*
X0187041Y0091245D01*
X0188893Y0083879D02*
X0188275Y0083261D01*
X0188275Y0081410D01*
X0187041Y0081410D02*
X0190744Y0081410D01*
X0190744Y0083261D01*
X0190127Y0083879D01*
X0188893Y0083879D01*
X0197850Y0084516D02*
X0197850Y0085750D01*
X0198468Y0086367D01*
X0197850Y0087582D02*
X0197850Y0088816D01*
X0197850Y0088199D02*
X0201554Y0088199D01*
X0201554Y0087582D01*
X0200936Y0086367D02*
X0201554Y0085750D01*
X0201554Y0084516D01*
X0200936Y0083899D01*
X0198468Y0083899D01*
X0197850Y0084516D01*
X0197850Y0082677D02*
X0198468Y0082060D01*
X0200936Y0082060D01*
X0200319Y0081443D02*
X0200319Y0082677D01*
X0199702Y0080222D02*
X0199702Y0078988D01*
X0200936Y0079605D02*
X0201554Y0080222D01*
X0200936Y0079605D02*
X0197850Y0079605D01*
X0197850Y0077767D02*
X0197850Y0076532D01*
X0197850Y0077149D02*
X0200319Y0077149D01*
X0200319Y0076532D01*
X0199702Y0075318D02*
X0197850Y0075318D01*
X0199702Y0075318D02*
X0200319Y0074701D01*
X0200319Y0073466D01*
X0199702Y0072849D01*
X0199085Y0071635D02*
X0198468Y0071635D01*
X0197850Y0071018D01*
X0197850Y0069783D01*
X0198468Y0069166D01*
X0199702Y0069783D02*
X0199702Y0071018D01*
X0199085Y0071635D01*
X0197850Y0072849D02*
X0201554Y0072849D01*
X0200936Y0071635D02*
X0201554Y0071018D01*
X0201554Y0069783D01*
X0200936Y0069166D01*
X0200319Y0069166D01*
X0199702Y0069783D01*
X0201554Y0077149D02*
X0202171Y0077149D01*
X0207012Y0078393D02*
X0207012Y0080862D01*
X0207630Y0082076D02*
X0211333Y0082076D01*
X0211333Y0083928D01*
X0210716Y0084545D01*
X0209481Y0084545D01*
X0208864Y0083928D01*
X0208864Y0082076D01*
X0207630Y0085759D02*
X0208864Y0086994D01*
X0207630Y0088228D01*
X0211333Y0088228D01*
X0211333Y0089442D02*
X0210098Y0090677D01*
X0211333Y0091911D01*
X0207630Y0091911D01*
X0207630Y0089442D02*
X0211333Y0089442D01*
X0211333Y0085759D02*
X0207630Y0085759D01*
X0201554Y0090037D02*
X0197850Y0090037D01*
X0199085Y0090037D02*
X0197850Y0091889D01*
X0199085Y0090037D02*
X0200319Y0091889D01*
X0210098Y0077175D02*
X0210098Y0076558D01*
X0208864Y0075324D01*
X0208864Y0074109D02*
X0208864Y0072258D01*
X0208247Y0071641D01*
X0207630Y0072258D01*
X0207630Y0074109D01*
X0209481Y0074109D01*
X0210098Y0073492D01*
X0210098Y0072258D01*
X0209481Y0070426D02*
X0207630Y0070426D01*
X0209481Y0070426D02*
X0210098Y0069809D01*
X0210098Y0067957D01*
X0207630Y0067957D01*
X0208247Y0066743D02*
X0209481Y0066743D01*
X0210098Y0066126D01*
X0210098Y0064891D01*
X0209481Y0064274D01*
X0208247Y0064274D01*
X0207630Y0064891D01*
X0207630Y0066126D01*
X0208247Y0066743D01*
X0208247Y0063060D02*
X0207630Y0062443D01*
X0207630Y0061208D01*
X0208247Y0060591D01*
X0209481Y0061208D02*
X0209481Y0062443D01*
X0208864Y0063060D01*
X0208247Y0063060D01*
X0209481Y0061208D02*
X0210098Y0060591D01*
X0210716Y0060591D01*
X0211333Y0061208D01*
X0211333Y0062443D01*
X0210716Y0063060D01*
X0216931Y0071836D02*
X0216314Y0072453D01*
X0216314Y0073687D01*
X0216931Y0074304D01*
X0216314Y0075519D02*
X0218782Y0075519D01*
X0220017Y0076753D01*
X0218782Y0077988D01*
X0216314Y0077988D01*
X0216314Y0079202D02*
X0220017Y0079202D01*
X0216314Y0081671D01*
X0220017Y0081671D01*
X0218165Y0077988D02*
X0218165Y0075519D01*
X0219400Y0074304D02*
X0220017Y0073687D01*
X0220017Y0072453D01*
X0219400Y0071836D01*
X0216931Y0071836D01*
X0210098Y0075324D02*
X0207630Y0075324D01*
X0215696Y0082885D02*
X0215696Y0085354D01*
X0216314Y0086568D02*
X0220017Y0086568D01*
X0220017Y0088420D01*
X0219400Y0089037D01*
X0218165Y0089037D01*
X0217548Y0088420D01*
X0217548Y0086568D01*
X0217548Y0087803D02*
X0216314Y0089037D01*
X0216314Y0090251D02*
X0220017Y0092720D01*
X0220017Y0090251D02*
X0216314Y0092720D01*
X0229798Y0092241D02*
X0233501Y0092241D01*
X0232267Y0091007D01*
X0232267Y0089792D02*
X0229798Y0089792D01*
X0229798Y0091007D02*
X0229798Y0093475D01*
X0231650Y0089792D02*
X0231650Y0087323D01*
X0232267Y0087323D02*
X0233501Y0088558D01*
X0232267Y0089792D01*
X0232267Y0087323D02*
X0229798Y0087323D01*
X0230415Y0086109D02*
X0232884Y0086109D01*
X0233501Y0085492D01*
X0233501Y0083640D01*
X0229798Y0083640D01*
X0229798Y0085492D01*
X0230415Y0086109D01*
X0230415Y0082426D02*
X0229798Y0081809D01*
X0229798Y0080574D01*
X0230415Y0079957D01*
X0231650Y0080574D02*
X0231650Y0081809D01*
X0231032Y0082426D01*
X0230415Y0082426D01*
X0231650Y0080574D02*
X0232267Y0079957D01*
X0232884Y0079957D01*
X0233501Y0080574D01*
X0233501Y0081809D01*
X0232884Y0082426D01*
X0256967Y0107152D02*
X0259436Y0107152D01*
X0260650Y0107152D02*
X0263119Y0107152D01*
X0263119Y0110855D01*
X0264333Y0110238D02*
X0264950Y0110855D01*
X0266185Y0110855D01*
X0266802Y0110238D01*
X0266802Y0107769D01*
X0266185Y0107152D01*
X0264950Y0107152D01*
X0264333Y0107769D01*
X0268016Y0107769D02*
X0268016Y0108386D01*
X0268633Y0109003D01*
X0269868Y0109003D01*
X0270485Y0109620D01*
X0270485Y0110238D01*
X0269868Y0110855D01*
X0268633Y0110855D01*
X0268016Y0110238D01*
X0268016Y0107769D02*
X0268633Y0107152D01*
X0269868Y0107152D01*
X0270485Y0107769D01*
X0270834Y0102505D02*
X0270217Y0101888D01*
X0270834Y0102505D02*
X0272069Y0102505D01*
X0272686Y0101888D01*
X0272686Y0099419D01*
X0272069Y0098802D01*
X0270834Y0098802D01*
X0270217Y0099419D01*
X0269003Y0098802D02*
X0269003Y0101271D01*
X0267768Y0102505D01*
X0266534Y0101271D01*
X0266534Y0098802D01*
X0265319Y0098802D02*
X0265319Y0102505D01*
X0264085Y0101271D01*
X0262851Y0102505D01*
X0262851Y0098802D01*
X0261636Y0098802D02*
X0259167Y0101271D01*
X0259167Y0101888D01*
X0259785Y0102505D01*
X0261019Y0102505D01*
X0261636Y0101888D01*
X0261636Y0098802D02*
X0259167Y0098802D01*
X0266534Y0100654D02*
X0269003Y0100654D01*
X0259436Y0109620D02*
X0258201Y0110855D01*
X0258201Y0107152D01*
X0256583Y0113675D02*
X0256583Y0117378D01*
X0254732Y0117378D01*
X0254115Y0116761D01*
X0254115Y0115527D01*
X0254732Y0114909D01*
X0256583Y0114909D01*
X0252900Y0115527D02*
X0251666Y0115527D01*
X0252900Y0117378D02*
X0252900Y0113675D01*
X0250432Y0113675D01*
X0249217Y0113675D02*
X0246748Y0116144D01*
X0246748Y0116761D01*
X0247366Y0117378D01*
X0248600Y0117378D01*
X0249217Y0116761D01*
X0250432Y0117378D02*
X0252900Y0117378D01*
X0249217Y0113675D02*
X0246748Y0113675D01*
X0245418Y0115317D02*
X0244801Y0114700D01*
X0243567Y0114700D01*
X0242950Y0115317D01*
X0241735Y0114700D02*
X0241735Y0117169D01*
X0240501Y0118403D01*
X0239266Y0117169D01*
X0239266Y0114700D01*
X0238052Y0114700D02*
X0238052Y0118403D01*
X0235583Y0114700D01*
X0235583Y0118403D01*
X0239266Y0116551D02*
X0241735Y0116551D01*
X0242950Y0117786D02*
X0243567Y0118403D01*
X0244801Y0118403D01*
X0245418Y0117786D01*
X0245418Y0115317D01*
X0245028Y0125313D02*
X0241325Y0125313D01*
X0242559Y0125313D02*
X0242559Y0127165D01*
X0243176Y0127782D01*
X0244411Y0127782D01*
X0245028Y0127165D01*
X0245028Y0125313D01*
X0245028Y0128996D02*
X0241325Y0128996D01*
X0241325Y0131465D01*
X0243176Y0132679D02*
X0243176Y0135148D01*
X0243947Y0135088D02*
X0247650Y0135088D01*
X0247650Y0136940D01*
X0247033Y0137557D01*
X0245798Y0137557D01*
X0245181Y0136940D01*
X0245181Y0135088D01*
X0245028Y0134531D02*
X0241325Y0134531D01*
X0243176Y0132679D02*
X0245028Y0134531D01*
X0245028Y0131465D02*
X0245028Y0128996D01*
X0243176Y0128996D02*
X0243176Y0130231D01*
X0243947Y0138771D02*
X0243947Y0141240D01*
X0244564Y0142454D02*
X0243947Y0143072D01*
X0243947Y0144306D01*
X0244564Y0144923D01*
X0245181Y0144923D01*
X0245798Y0144306D01*
X0245798Y0142454D01*
X0244564Y0142454D01*
X0245798Y0142454D02*
X0247033Y0143689D01*
X0247650Y0144923D01*
X0246368Y0146733D02*
X0246368Y0149202D01*
X0247602Y0150417D02*
X0248219Y0151034D01*
X0248219Y0152268D01*
X0247602Y0152885D01*
X0246985Y0152885D01*
X0246368Y0152268D01*
X0245750Y0152885D01*
X0245133Y0152885D01*
X0244516Y0152268D01*
X0244516Y0151034D01*
X0245133Y0150417D01*
X0246368Y0151651D02*
X0246368Y0152268D01*
X0245750Y0154100D02*
X0244516Y0155334D01*
X0245750Y0156568D01*
X0248219Y0156568D01*
X0247602Y0157783D02*
X0248219Y0158400D01*
X0248219Y0159634D01*
X0247602Y0160252D01*
X0246985Y0160252D01*
X0246368Y0159634D01*
X0245750Y0160252D01*
X0245133Y0160252D01*
X0244516Y0159634D01*
X0244516Y0158400D01*
X0245133Y0157783D01*
X0246368Y0159017D02*
X0246368Y0159634D01*
X0245660Y0162504D02*
X0245660Y0164356D01*
X0246278Y0164973D01*
X0247512Y0164973D01*
X0248129Y0164356D01*
X0248129Y0162504D01*
X0244426Y0162504D01*
X0245043Y0166187D02*
X0244426Y0166805D01*
X0244426Y0168039D01*
X0245043Y0168656D01*
X0244426Y0169870D02*
X0244426Y0172339D01*
X0244426Y0171105D02*
X0248129Y0171105D01*
X0246895Y0169870D01*
X0247512Y0168656D02*
X0248129Y0168039D01*
X0248129Y0166805D01*
X0247512Y0166187D01*
X0245043Y0166187D01*
X0245043Y0173554D02*
X0244426Y0174171D01*
X0244426Y0175405D01*
X0245043Y0176022D01*
X0245660Y0176022D01*
X0246278Y0175405D01*
X0246278Y0174788D01*
X0246278Y0175405D02*
X0246895Y0176022D01*
X0247512Y0176022D01*
X0248129Y0175405D01*
X0248129Y0174171D01*
X0247512Y0173554D01*
X0247876Y0175388D02*
X0247876Y0177239D01*
X0247259Y0177857D01*
X0246024Y0177857D01*
X0245407Y0177239D01*
X0245407Y0175388D01*
X0244173Y0175388D02*
X0247876Y0175388D01*
X0247259Y0179071D02*
X0244790Y0179071D01*
X0244173Y0179688D01*
X0244173Y0180923D01*
X0244790Y0181540D01*
X0244173Y0182754D02*
X0244173Y0185223D01*
X0244173Y0183988D02*
X0247876Y0183988D01*
X0246641Y0182754D01*
X0247259Y0181540D02*
X0247876Y0180923D01*
X0247876Y0179688D01*
X0247259Y0179071D01*
X0247876Y0186437D02*
X0246024Y0186437D01*
X0246641Y0187672D01*
X0246641Y0188289D01*
X0246024Y0188906D01*
X0244790Y0188906D01*
X0244173Y0188289D01*
X0244173Y0187054D01*
X0244790Y0186437D01*
X0245881Y0187260D02*
X0245881Y0189112D01*
X0245264Y0189729D01*
X0244029Y0189729D01*
X0243412Y0189112D01*
X0243412Y0187260D01*
X0242178Y0187260D02*
X0245881Y0187260D01*
X0247876Y0186437D02*
X0247876Y0188906D01*
X0245881Y0190943D02*
X0242178Y0190943D01*
X0244029Y0190943D02*
X0244029Y0193412D01*
X0244646Y0194627D02*
X0245881Y0195861D01*
X0242178Y0195861D01*
X0242178Y0194627D02*
X0242178Y0197095D01*
X0241096Y0200039D02*
X0239862Y0201273D01*
X0239862Y0203742D01*
X0238647Y0203125D02*
X0238030Y0203742D01*
X0236796Y0203742D01*
X0236179Y0203125D01*
X0236179Y0202507D01*
X0236796Y0201890D01*
X0236179Y0201273D01*
X0236179Y0200656D01*
X0236796Y0200039D01*
X0238030Y0200039D01*
X0238647Y0200656D01*
X0237413Y0201890D02*
X0236796Y0201890D01*
X0232482Y0202518D02*
X0232482Y0200666D01*
X0228779Y0200666D01*
X0228779Y0202518D01*
X0229396Y0203135D01*
X0231865Y0203135D01*
X0232482Y0202518D01*
X0232482Y0199452D02*
X0228779Y0199452D01*
X0232482Y0196983D01*
X0228779Y0196983D01*
X0229396Y0195769D02*
X0230630Y0195769D01*
X0230630Y0194534D01*
X0229396Y0193300D02*
X0228779Y0193917D01*
X0228779Y0195152D01*
X0229396Y0195769D01*
X0231865Y0195769D02*
X0232482Y0195152D01*
X0232482Y0193917D01*
X0231865Y0193300D01*
X0229396Y0193300D01*
X0216984Y0193166D02*
X0215750Y0191931D01*
X0216984Y0190697D01*
X0213281Y0190697D01*
X0213281Y0193166D02*
X0216984Y0193166D01*
X0216984Y0194380D02*
X0216984Y0196232D01*
X0216367Y0196849D01*
X0213898Y0196849D01*
X0213281Y0196232D01*
X0213281Y0194380D01*
X0216984Y0194380D01*
X0216367Y0198063D02*
X0213898Y0198063D01*
X0213281Y0198681D01*
X0213281Y0199915D01*
X0213898Y0200532D01*
X0216367Y0200532D02*
X0216984Y0199915D01*
X0216984Y0198681D01*
X0216367Y0198063D01*
X0206803Y0200283D02*
X0206803Y0202135D01*
X0206186Y0202752D01*
X0203717Y0202752D01*
X0203100Y0202135D01*
X0203100Y0200283D01*
X0206803Y0200283D01*
X0206803Y0203966D02*
X0204335Y0203966D01*
X0203100Y0205201D01*
X0204335Y0206435D01*
X0206803Y0206435D01*
X0202483Y0199069D02*
X0202483Y0196600D01*
X0203717Y0195385D02*
X0203100Y0194768D01*
X0203100Y0193534D01*
X0203717Y0192917D01*
X0203100Y0191702D02*
X0204335Y0190468D01*
X0204335Y0191085D02*
X0204335Y0189234D01*
X0203100Y0189234D02*
X0206803Y0189234D01*
X0206803Y0191085D01*
X0206186Y0191702D01*
X0204952Y0191702D01*
X0204335Y0191085D01*
X0205569Y0192917D02*
X0204952Y0193534D01*
X0204952Y0194768D01*
X0204335Y0195385D01*
X0203717Y0195385D01*
X0206186Y0195385D02*
X0206803Y0194768D01*
X0206803Y0193534D01*
X0206186Y0192917D01*
X0205569Y0192917D01*
X0206186Y0188019D02*
X0206803Y0187402D01*
X0206803Y0186168D01*
X0206186Y0185550D01*
X0203717Y0185550D01*
X0203100Y0186168D01*
X0203100Y0187402D01*
X0203717Y0188019D01*
X0196846Y0189355D02*
X0196846Y0191206D01*
X0196229Y0191823D01*
X0194995Y0191823D01*
X0194378Y0191206D01*
X0194378Y0189355D01*
X0194378Y0190589D02*
X0193143Y0191823D01*
X0193143Y0193038D02*
X0196846Y0195506D01*
X0196846Y0196721D02*
X0193143Y0196721D01*
X0193143Y0198572D01*
X0193760Y0199190D01*
X0196229Y0199190D01*
X0196846Y0198572D01*
X0196846Y0196721D01*
X0196846Y0193038D02*
X0193143Y0195506D01*
X0191798Y0198109D02*
X0191798Y0201812D01*
X0193032Y0201812D02*
X0190563Y0201812D01*
X0189349Y0201812D02*
X0186880Y0198109D01*
X0185666Y0198109D02*
X0183814Y0198109D01*
X0183197Y0198726D01*
X0183197Y0201195D01*
X0183814Y0201812D01*
X0185666Y0201812D01*
X0185666Y0198109D01*
X0189349Y0198109D02*
X0186880Y0201812D01*
X0181983Y0201195D02*
X0181983Y0198726D01*
X0179514Y0201195D01*
X0179514Y0198726D01*
X0180131Y0198109D01*
X0181365Y0198109D01*
X0181983Y0198726D01*
X0181983Y0201195D02*
X0181365Y0201812D01*
X0180131Y0201812D01*
X0179514Y0201195D01*
X0193143Y0201638D02*
X0196846Y0201638D01*
X0195612Y0200404D01*
X0193143Y0200404D02*
X0193143Y0202873D01*
X0193143Y0189355D02*
X0196846Y0189355D01*
X0196764Y0226400D02*
X0193061Y0226400D01*
X0194295Y0226400D02*
X0194295Y0228251D01*
X0194912Y0228868D01*
X0196147Y0228868D01*
X0196764Y0228251D01*
X0196764Y0226400D01*
X0194295Y0227634D02*
X0193061Y0228868D01*
X0193061Y0230083D02*
X0196764Y0232552D01*
X0196764Y0233766D02*
X0196764Y0235618D01*
X0196147Y0236235D01*
X0193678Y0236235D01*
X0193061Y0235618D01*
X0193061Y0233766D01*
X0196764Y0233766D01*
X0199359Y0234735D02*
X0201828Y0232266D01*
X0201211Y0232883D02*
X0199359Y0231032D01*
X0201828Y0231032D02*
X0201828Y0234735D01*
X0205511Y0234735D02*
X0205511Y0231032D01*
X0203043Y0231032D01*
X0206726Y0231649D02*
X0207343Y0231032D01*
X0208577Y0231032D01*
X0209195Y0231649D01*
X0209195Y0234118D01*
X0208577Y0234735D01*
X0207343Y0234735D01*
X0206726Y0234118D01*
X0210409Y0234735D02*
X0212878Y0234735D01*
X0212878Y0231032D01*
X0212882Y0230657D02*
X0212265Y0230039D01*
X0212265Y0227571D01*
X0212882Y0226954D01*
X0214117Y0226954D01*
X0214734Y0227571D01*
X0214734Y0230039D01*
X0214117Y0230657D01*
X0212882Y0230657D01*
X0214092Y0231032D02*
X0216561Y0231032D01*
X0216561Y0234735D01*
X0214092Y0234735D01*
X0212878Y0232883D02*
X0211643Y0232883D01*
X0215326Y0232883D02*
X0216561Y0232883D01*
X0217775Y0232883D02*
X0218392Y0232266D01*
X0220244Y0232266D01*
X0220244Y0231032D02*
X0220244Y0234735D01*
X0218392Y0234735D01*
X0217775Y0234118D01*
X0217775Y0232883D01*
X0219010Y0232266D02*
X0217775Y0231032D01*
X0217189Y0230657D02*
X0215955Y0230657D01*
X0216572Y0230657D02*
X0216572Y0226954D01*
X0217189Y0226954D02*
X0215955Y0226954D01*
X0218404Y0227571D02*
X0218404Y0230039D01*
X0219021Y0230657D01*
X0220872Y0230657D01*
X0220872Y0226954D01*
X0219021Y0226954D01*
X0218404Y0227571D01*
X0222087Y0226954D02*
X0222087Y0230657D01*
X0223321Y0229422D01*
X0224555Y0230657D01*
X0224555Y0226954D01*
X0227186Y0226397D02*
X0227803Y0227014D01*
X0229037Y0227014D01*
X0229037Y0225780D01*
X0227803Y0224545D02*
X0227186Y0225163D01*
X0227186Y0226397D01*
X0227186Y0228229D02*
X0230889Y0228229D01*
X0227186Y0230697D01*
X0230889Y0230697D01*
X0230889Y0231912D02*
X0227186Y0231912D01*
X0227186Y0233763D01*
X0227803Y0234381D01*
X0230272Y0234381D01*
X0230889Y0233763D01*
X0230889Y0231912D01*
X0230272Y0227014D02*
X0230889Y0226397D01*
X0230889Y0225163D01*
X0230272Y0224545D01*
X0227803Y0224545D01*
X0242331Y0203742D02*
X0242331Y0201273D01*
X0241096Y0200039D01*
X0243545Y0200656D02*
X0244162Y0200039D01*
X0245397Y0200039D01*
X0246014Y0200656D01*
X0247228Y0201890D02*
X0249697Y0201890D01*
X0248462Y0200656D02*
X0248462Y0203125D01*
X0246014Y0203125D02*
X0245397Y0203742D01*
X0244162Y0203742D01*
X0243545Y0203125D01*
X0243545Y0202507D01*
X0244162Y0201890D01*
X0243545Y0201273D01*
X0243545Y0200656D01*
X0244162Y0201890D02*
X0244779Y0201890D01*
X0245881Y0193412D02*
X0242178Y0193412D01*
X0269033Y0174065D02*
X0269033Y0170362D01*
X0268416Y0172213D02*
X0270885Y0172213D01*
X0269033Y0174065D01*
X0273334Y0174065D02*
X0273334Y0170362D01*
X0274568Y0170362D02*
X0272099Y0170362D01*
X0274568Y0172831D02*
X0273334Y0174065D01*
X0275782Y0173448D02*
X0276400Y0174065D01*
X0277634Y0174065D01*
X0278251Y0173448D01*
X0278251Y0170979D01*
X0277634Y0170362D01*
X0276400Y0170362D01*
X0275782Y0170979D01*
X0279466Y0172213D02*
X0279466Y0173448D01*
X0280083Y0174065D01*
X0281934Y0174065D01*
X0281934Y0170362D01*
X0281934Y0171596D02*
X0280083Y0171596D01*
X0279466Y0172213D01*
X0279944Y0179175D02*
X0277475Y0179175D01*
X0276261Y0179792D02*
X0275026Y0179792D01*
X0275643Y0179792D02*
X0275643Y0183495D01*
X0275026Y0183495D02*
X0276261Y0183495D01*
X0273805Y0183495D02*
X0271336Y0179792D01*
X0271336Y0183495D01*
X0273805Y0183495D02*
X0273805Y0179792D01*
X0281158Y0180409D02*
X0281775Y0179792D01*
X0283010Y0179792D01*
X0283627Y0180409D01*
X0283627Y0182878D01*
X0283010Y0183495D01*
X0281775Y0183495D01*
X0281158Y0182878D01*
X0284841Y0182878D02*
X0285458Y0183495D01*
X0286693Y0183495D01*
X0287310Y0182878D01*
X0287310Y0182261D01*
X0286693Y0181643D01*
X0285458Y0181643D01*
X0284841Y0181026D01*
X0284841Y0180409D01*
X0285458Y0179792D01*
X0286693Y0179792D01*
X0287310Y0180409D01*
X0288524Y0180409D02*
X0288524Y0182878D01*
X0289142Y0183495D01*
X0290376Y0183495D01*
X0290993Y0182878D01*
X0290993Y0180409D01*
X0290376Y0179792D01*
X0289142Y0179792D01*
X0288524Y0180409D01*
X0280805Y0190054D02*
X0279571Y0190054D01*
X0278953Y0190671D01*
X0278953Y0191905D01*
X0280188Y0191905D01*
X0281422Y0190671D02*
X0280805Y0190054D01*
X0281422Y0190671D02*
X0281422Y0193140D01*
X0280805Y0193757D01*
X0279571Y0193757D01*
X0278953Y0193140D01*
X0277739Y0193757D02*
X0275270Y0190054D01*
X0275270Y0193757D01*
X0274056Y0193757D02*
X0274056Y0190054D01*
X0272204Y0190054D01*
X0271587Y0190671D01*
X0271587Y0193140D01*
X0272204Y0193757D01*
X0274056Y0193757D01*
X0277739Y0193757D02*
X0277739Y0190054D01*
X0277502Y0163847D02*
X0275033Y0160143D01*
X0275033Y0163847D01*
X0273819Y0163847D02*
X0273819Y0160143D01*
X0271967Y0160143D01*
X0271350Y0160761D01*
X0271350Y0163229D01*
X0271967Y0163847D01*
X0273819Y0163847D01*
X0277502Y0163847D02*
X0277502Y0160143D01*
X0278716Y0160761D02*
X0278716Y0161995D01*
X0279951Y0161995D01*
X0281185Y0163229D02*
X0281185Y0160761D01*
X0280568Y0160143D01*
X0279333Y0160143D01*
X0278716Y0160761D01*
X0278716Y0163229D02*
X0279333Y0163847D01*
X0280568Y0163847D01*
X0281185Y0163229D01*
X0280593Y0152863D02*
X0281827Y0152863D01*
X0282445Y0152246D01*
X0282445Y0149777D01*
X0281827Y0149160D01*
X0280593Y0149160D01*
X0279976Y0149777D01*
X0279976Y0151011D01*
X0281210Y0151011D01*
X0279976Y0152246D02*
X0280593Y0152863D01*
X0278761Y0152863D02*
X0276293Y0149160D01*
X0276293Y0152863D01*
X0275078Y0152863D02*
X0273227Y0152863D01*
X0272609Y0152246D01*
X0272609Y0149777D01*
X0273227Y0149160D01*
X0275078Y0149160D01*
X0275078Y0152863D01*
X0278761Y0152863D02*
X0278761Y0149160D01*
X0279583Y0143775D02*
X0280818Y0143775D01*
X0281435Y0143158D01*
X0281435Y0140689D01*
X0280818Y0140072D01*
X0279583Y0140072D01*
X0278966Y0140689D01*
X0278966Y0141923D01*
X0280200Y0141923D01*
X0278966Y0143158D02*
X0279583Y0143775D01*
X0277752Y0143775D02*
X0275283Y0140072D01*
X0275283Y0143775D01*
X0274068Y0143775D02*
X0274068Y0140072D01*
X0272217Y0140072D01*
X0271600Y0140689D01*
X0271600Y0143158D01*
X0272217Y0143775D01*
X0274068Y0143775D01*
X0277752Y0143775D02*
X0277752Y0140072D01*
X0275165Y0138527D02*
X0275165Y0136058D01*
X0273314Y0136058D01*
X0273931Y0137292D01*
X0273931Y0137909D01*
X0273314Y0138527D01*
X0272079Y0138527D01*
X0271462Y0137909D01*
X0271462Y0136675D01*
X0272079Y0136058D01*
X0271462Y0134843D02*
X0271462Y0132375D01*
X0275165Y0132375D01*
X0275165Y0134843D01*
X0273314Y0133609D02*
X0273314Y0132375D01*
X0273314Y0131160D02*
X0272696Y0130543D01*
X0272696Y0128691D01*
X0272541Y0128040D02*
X0271924Y0128040D01*
X0271307Y0127423D01*
X0271307Y0126189D01*
X0271924Y0125571D01*
X0271307Y0124357D02*
X0271307Y0121888D01*
X0275010Y0121888D01*
X0275010Y0124357D01*
X0274393Y0125571D02*
X0275010Y0126189D01*
X0275010Y0127423D01*
X0274393Y0128040D01*
X0273775Y0128040D01*
X0273158Y0127423D01*
X0272541Y0128040D01*
X0273158Y0127423D02*
X0273158Y0126806D01*
X0271462Y0128691D02*
X0275165Y0128691D01*
X0275165Y0130543D01*
X0274548Y0131160D01*
X0273314Y0131160D01*
X0273158Y0123123D02*
X0273158Y0121888D01*
X0273158Y0120674D02*
X0272541Y0120057D01*
X0272541Y0118205D01*
X0271307Y0118205D02*
X0275010Y0118205D01*
X0275010Y0120057D01*
X0274393Y0120674D01*
X0273158Y0120674D01*
X0247650Y0138771D02*
X0243947Y0138771D01*
X0245798Y0138771D02*
X0245798Y0140006D01*
X0247650Y0141240D02*
X0247650Y0138771D01*
X0247602Y0147968D02*
X0245133Y0147968D01*
X0245750Y0154100D02*
X0248219Y0154100D01*
X0221671Y0131020D02*
X0220436Y0129785D01*
X0221671Y0128551D01*
X0217967Y0128551D01*
X0217350Y0127337D02*
X0217350Y0124868D01*
X0217967Y0123653D02*
X0219819Y0123653D01*
X0220436Y0123036D01*
X0219819Y0122419D01*
X0217967Y0122419D01*
X0217967Y0121185D02*
X0220436Y0121185D01*
X0220436Y0121802D01*
X0219819Y0122419D01*
X0219819Y0119970D02*
X0217967Y0119970D01*
X0217967Y0118119D01*
X0218585Y0117502D01*
X0219202Y0118119D01*
X0219202Y0119970D01*
X0219819Y0119970D02*
X0220436Y0119353D01*
X0220436Y0118119D01*
X0221053Y0116287D02*
X0221671Y0115670D01*
X0221671Y0114436D01*
X0221053Y0113818D01*
X0218585Y0113818D01*
X0217967Y0114436D01*
X0217967Y0115670D01*
X0218585Y0116287D01*
X0211832Y0116830D02*
X0211215Y0116213D01*
X0210598Y0116213D01*
X0209981Y0116830D01*
X0209981Y0118065D01*
X0209363Y0118682D01*
X0208746Y0118682D01*
X0208129Y0118065D01*
X0208129Y0116830D01*
X0208746Y0116213D01*
X0211832Y0116830D02*
X0211832Y0118065D01*
X0211215Y0118682D01*
X0211832Y0119896D02*
X0208129Y0119896D01*
X0209981Y0119896D02*
X0210598Y0120514D01*
X0210598Y0121748D01*
X0209981Y0122365D01*
X0208129Y0122365D01*
X0208129Y0123579D02*
X0208129Y0124814D01*
X0208129Y0124197D02*
X0210598Y0124197D01*
X0210598Y0123579D01*
X0211832Y0124197D02*
X0212449Y0124197D01*
X0211215Y0126652D02*
X0211832Y0127269D01*
X0211215Y0126652D02*
X0208129Y0126652D01*
X0209981Y0126035D02*
X0209981Y0127269D01*
X0210598Y0128490D02*
X0210598Y0129725D01*
X0211215Y0129108D02*
X0208746Y0129108D01*
X0208129Y0129725D01*
X0208129Y0130946D02*
X0208129Y0132797D01*
X0208746Y0133415D01*
X0211215Y0133415D01*
X0211832Y0132797D01*
X0211832Y0130946D01*
X0208129Y0130946D01*
X0208746Y0134629D02*
X0209363Y0135246D01*
X0209363Y0137098D01*
X0209981Y0137098D02*
X0208129Y0137098D01*
X0208129Y0135246D01*
X0208746Y0134629D01*
X0210598Y0135246D02*
X0210598Y0136480D01*
X0209981Y0137098D01*
X0210598Y0138312D02*
X0210598Y0139546D01*
X0211215Y0138929D02*
X0208746Y0138929D01*
X0208129Y0139546D01*
X0200371Y0134086D02*
X0199754Y0134703D01*
X0197902Y0134703D01*
X0197902Y0132234D02*
X0200371Y0132234D01*
X0200371Y0134086D01*
X0201605Y0131020D02*
X0201605Y0128551D01*
X0197902Y0128551D01*
X0197902Y0131020D01*
X0199754Y0129785D02*
X0199754Y0128551D01*
X0200371Y0127330D02*
X0200371Y0126096D01*
X0200988Y0126713D02*
X0198519Y0126713D01*
X0197902Y0127330D01*
X0197902Y0124257D02*
X0200988Y0124257D01*
X0201605Y0124875D01*
X0199754Y0124875D02*
X0199754Y0123640D01*
X0200371Y0121802D02*
X0197902Y0121802D01*
X0197902Y0121185D02*
X0197902Y0122419D01*
X0197902Y0119970D02*
X0199754Y0119970D01*
X0200371Y0119353D01*
X0200371Y0118119D01*
X0199754Y0117502D01*
X0199136Y0116287D02*
X0198519Y0116287D01*
X0197902Y0115670D01*
X0197902Y0114436D01*
X0198519Y0113818D01*
X0199754Y0114436D02*
X0199754Y0115670D01*
X0199136Y0116287D01*
X0197902Y0117502D02*
X0201605Y0117502D01*
X0200988Y0116287D02*
X0201605Y0115670D01*
X0201605Y0114436D01*
X0200988Y0113818D01*
X0200371Y0113818D01*
X0199754Y0114436D01*
X0200371Y0121185D02*
X0200371Y0121802D01*
X0201605Y0121802D02*
X0202222Y0121802D01*
X0192479Y0122136D02*
X0192479Y0120285D01*
X0188775Y0120285D01*
X0188775Y0122136D01*
X0189393Y0122754D01*
X0191861Y0122754D01*
X0192479Y0122136D01*
X0191244Y0123968D02*
X0192479Y0125202D01*
X0188775Y0125202D01*
X0188775Y0123968D02*
X0188775Y0126437D01*
X0190627Y0119070D02*
X0190010Y0118453D01*
X0190010Y0116602D01*
X0188775Y0116602D02*
X0192479Y0116602D01*
X0192479Y0118453D01*
X0191861Y0119070D01*
X0190627Y0119070D01*
X0163412Y0102512D02*
X0162794Y0103130D01*
X0161560Y0103130D01*
X0163412Y0102512D02*
X0163412Y0100661D01*
X0159708Y0100661D01*
X0148751Y0113307D02*
X0148751Y0115776D01*
X0149985Y0114542D02*
X0147516Y0114542D01*
X0146302Y0115776D02*
X0145685Y0116393D01*
X0144450Y0116393D01*
X0143833Y0115776D01*
X0143833Y0115159D01*
X0144450Y0114542D01*
X0143833Y0113924D01*
X0143833Y0113307D01*
X0144450Y0112690D01*
X0145685Y0112690D01*
X0146302Y0113307D01*
X0145067Y0114542D02*
X0144450Y0114542D01*
X0142619Y0113924D02*
X0142619Y0116393D01*
X0142619Y0113924D02*
X0141384Y0112690D01*
X0140150Y0113924D01*
X0140150Y0116393D01*
X0138936Y0115776D02*
X0138318Y0116393D01*
X0137084Y0116393D01*
X0136467Y0115776D01*
X0136467Y0115159D01*
X0137084Y0114542D01*
X0136467Y0113924D01*
X0136467Y0113307D01*
X0137084Y0112690D01*
X0138318Y0112690D01*
X0138936Y0113307D01*
X0137701Y0114542D02*
X0137084Y0114542D01*
X0127392Y0140161D02*
X0124923Y0140161D01*
X0127392Y0140161D02*
X0124923Y0142630D01*
X0124923Y0143247D01*
X0125540Y0143865D01*
X0126775Y0143865D01*
X0127392Y0143247D01*
X0169333Y0227199D02*
X0171802Y0227199D01*
X0170568Y0227199D02*
X0170568Y0230902D01*
X0171802Y0229668D01*
X0173016Y0230285D02*
X0173634Y0230902D01*
X0175485Y0230902D01*
X0175485Y0227199D01*
X0173634Y0227199D01*
X0173016Y0227816D01*
X0173016Y0230285D01*
X0176700Y0230902D02*
X0179168Y0227199D01*
X0181617Y0227199D02*
X0181617Y0230902D01*
X0182851Y0230902D02*
X0180383Y0230902D01*
X0179168Y0230902D02*
X0176700Y0227199D01*
X0187947Y0227310D02*
X0191650Y0227310D01*
X0191650Y0226076D02*
X0191650Y0228545D01*
X0191650Y0229759D02*
X0187947Y0232228D01*
X0187947Y0233442D02*
X0187947Y0235911D01*
X0187947Y0237126D02*
X0191650Y0237126D01*
X0187947Y0239594D01*
X0191650Y0239594D01*
X0193061Y0239301D02*
X0193061Y0238066D01*
X0193678Y0237449D01*
X0196147Y0239918D01*
X0193678Y0239918D01*
X0193061Y0239301D01*
X0193678Y0237449D02*
X0196147Y0237449D01*
X0196764Y0238066D01*
X0196764Y0239301D01*
X0196147Y0239918D01*
X0191650Y0235911D02*
X0191650Y0233442D01*
X0187947Y0233442D01*
X0189799Y0233442D02*
X0189799Y0234677D01*
X0191650Y0232228D02*
X0187947Y0229759D01*
X0193061Y0232552D02*
X0196764Y0230083D01*
X0217967Y0131020D02*
X0221671Y0131020D01*
X0224534Y0118403D02*
X0227003Y0114700D01*
X0229451Y0114700D02*
X0229451Y0118403D01*
X0228217Y0118403D02*
X0230686Y0118403D01*
X0227003Y0118403D02*
X0224534Y0114700D01*
X0231900Y0114083D02*
X0234369Y0114083D01*
D11*
X0228266Y0124137D02*
X0228026Y0124137D01*
X0236870Y0141630D02*
X0236870Y0141870D01*
X0235067Y0151802D02*
X0234827Y0151802D01*
X0237417Y0161809D02*
X0237417Y0162049D01*
X0237383Y0169862D02*
X0237383Y0170103D01*
X0237407Y0177911D02*
X0237407Y0178151D01*
X0231751Y0190149D02*
X0231511Y0190149D01*
X0223300Y0190162D02*
X0223060Y0190162D01*
X0183008Y0190589D02*
X0182768Y0190589D01*
X0188226Y0133840D02*
X0188226Y0133600D01*
X0174332Y0134188D02*
X0174091Y0134188D01*
D12*
X0112249Y0070545D02*
X0111248Y0070545D01*
X0111498Y0069795D02*
X0111498Y0071296D01*
X0112249Y0070545D01*
X0112721Y0070545D02*
X0112972Y0070295D01*
X0113722Y0070295D01*
X0113222Y0070295D02*
X0112721Y0069795D01*
X0112721Y0070545D02*
X0112721Y0071046D01*
X0112972Y0071296D01*
X0113722Y0071296D01*
X0113722Y0069795D01*
X0140444Y0067281D02*
X0140444Y0067030D01*
X0140694Y0066780D01*
X0140444Y0066530D01*
X0140444Y0066280D01*
X0140694Y0066030D01*
X0141194Y0066030D01*
X0141445Y0066280D01*
X0141917Y0066030D02*
X0142418Y0066530D01*
X0142167Y0066530D02*
X0142918Y0066530D01*
X0142918Y0066030D02*
X0142918Y0067531D01*
X0142167Y0067531D01*
X0141917Y0067281D01*
X0141917Y0066780D01*
X0142167Y0066530D01*
X0141445Y0067281D02*
X0141194Y0067531D01*
X0140694Y0067531D01*
X0140444Y0067281D01*
X0140694Y0066780D02*
X0140944Y0066780D01*
X0185399Y0129170D02*
X0185899Y0129170D01*
X0186149Y0129420D01*
X0186622Y0129170D02*
X0187623Y0129170D01*
X0187122Y0129170D02*
X0187122Y0130671D01*
X0187623Y0130171D01*
X0188095Y0130421D02*
X0188345Y0130671D01*
X0188846Y0130671D01*
X0189096Y0130421D01*
X0189096Y0129420D01*
X0188846Y0129170D01*
X0188345Y0129170D01*
X0188095Y0129420D01*
X0186149Y0130421D02*
X0185899Y0130671D01*
X0185399Y0130671D01*
X0185149Y0130421D01*
X0185149Y0130171D01*
X0185399Y0129921D01*
X0185149Y0129671D01*
X0185149Y0129420D01*
X0185399Y0129170D01*
X0185399Y0129921D02*
X0185649Y0129921D01*
X0171163Y0135041D02*
X0170913Y0134791D01*
X0169912Y0134791D01*
X0169662Y0135041D01*
X0169662Y0135542D01*
X0169912Y0135792D01*
X0169662Y0136264D02*
X0170662Y0137265D01*
X0170913Y0137265D01*
X0171163Y0137015D01*
X0171163Y0136515D01*
X0170913Y0136264D01*
X0170913Y0135792D02*
X0171163Y0135542D01*
X0171163Y0135041D01*
X0169662Y0136264D02*
X0169662Y0137265D01*
X0186188Y0187139D02*
X0185938Y0187390D01*
X0185938Y0187890D01*
X0186188Y0188140D01*
X0186188Y0188613D02*
X0185938Y0188863D01*
X0185938Y0189363D01*
X0186188Y0189614D01*
X0186439Y0189614D01*
X0186689Y0189363D01*
X0186689Y0189113D01*
X0186689Y0189363D02*
X0186939Y0189614D01*
X0187189Y0189614D01*
X0187440Y0189363D01*
X0187440Y0188863D01*
X0187189Y0188613D01*
X0187189Y0188140D02*
X0187440Y0187890D01*
X0187440Y0187390D01*
X0187189Y0187139D01*
X0186188Y0187139D01*
X0226230Y0186962D02*
X0226230Y0187462D01*
X0226480Y0187712D01*
X0226980Y0188185D02*
X0226980Y0189186D01*
X0226230Y0188935D02*
X0227731Y0188935D01*
X0226980Y0188185D01*
X0227481Y0187712D02*
X0227731Y0187462D01*
X0227731Y0186962D01*
X0227481Y0186712D01*
X0226480Y0186712D01*
X0226230Y0186962D01*
X0234681Y0186949D02*
X0234681Y0187450D01*
X0234931Y0187700D01*
X0234931Y0188172D02*
X0235181Y0188172D01*
X0235431Y0188422D01*
X0235431Y0188923D01*
X0235181Y0189173D01*
X0234931Y0189173D01*
X0234681Y0188923D01*
X0234681Y0188422D01*
X0234931Y0188172D01*
X0235431Y0188422D02*
X0235682Y0188172D01*
X0235932Y0188172D01*
X0236182Y0188422D01*
X0236182Y0188923D01*
X0235932Y0189173D01*
X0235682Y0189173D01*
X0235431Y0188923D01*
X0235932Y0187700D02*
X0236182Y0187450D01*
X0236182Y0186949D01*
X0235932Y0186699D01*
X0234931Y0186699D01*
X0234681Y0186949D01*
X0234329Y0174983D02*
X0234329Y0174732D01*
X0235330Y0173732D01*
X0235330Y0173481D01*
X0235803Y0173481D02*
X0236803Y0173481D01*
X0236303Y0173481D02*
X0236303Y0174983D01*
X0236803Y0174482D01*
X0237276Y0174732D02*
X0237526Y0174983D01*
X0238026Y0174983D01*
X0238277Y0174732D01*
X0238277Y0173732D01*
X0238026Y0173481D01*
X0237526Y0173481D01*
X0237276Y0173732D01*
X0235330Y0174983D02*
X0234329Y0174983D01*
X0234556Y0166934D02*
X0235056Y0166934D01*
X0235306Y0166684D01*
X0235306Y0166433D01*
X0235056Y0166183D01*
X0234305Y0166183D01*
X0234305Y0165683D02*
X0234305Y0166684D01*
X0234556Y0166934D01*
X0235779Y0166684D02*
X0236029Y0166934D01*
X0236529Y0166934D01*
X0236780Y0166684D01*
X0236780Y0165683D01*
X0236529Y0165433D01*
X0236029Y0165433D01*
X0235779Y0165683D01*
X0235306Y0165683D02*
X0235056Y0165433D01*
X0234556Y0165433D01*
X0234305Y0165683D01*
X0234840Y0158880D02*
X0234840Y0157379D01*
X0235340Y0157379D02*
X0234339Y0157379D01*
X0235340Y0158380D02*
X0234840Y0158880D01*
X0236313Y0158880D02*
X0236313Y0157379D01*
X0235813Y0157379D02*
X0236814Y0157379D01*
X0237286Y0157629D02*
X0237536Y0157379D01*
X0238037Y0157379D01*
X0238287Y0157629D01*
X0238287Y0158630D01*
X0238037Y0158880D01*
X0237536Y0158880D01*
X0237286Y0158630D01*
X0236814Y0158380D02*
X0236313Y0158880D01*
X0231898Y0154879D02*
X0231648Y0154379D01*
X0231147Y0153878D01*
X0231147Y0154629D01*
X0230897Y0154879D01*
X0230647Y0154879D01*
X0230397Y0154629D01*
X0230397Y0154129D01*
X0230647Y0153878D01*
X0231147Y0153878D01*
X0230647Y0153406D02*
X0230397Y0153156D01*
X0230397Y0152655D01*
X0230647Y0152405D01*
X0231648Y0152405D01*
X0231898Y0152655D01*
X0231898Y0153156D01*
X0231648Y0153406D01*
X0236622Y0146301D02*
X0236372Y0146051D01*
X0236372Y0145801D01*
X0236622Y0145551D01*
X0237123Y0145551D01*
X0237373Y0145801D01*
X0237373Y0146051D01*
X0237123Y0146301D01*
X0236622Y0146301D01*
X0236622Y0145551D02*
X0236372Y0145300D01*
X0236372Y0145050D01*
X0236622Y0144800D01*
X0237123Y0144800D01*
X0237373Y0145050D01*
X0237373Y0145300D01*
X0237123Y0145551D01*
X0237845Y0144800D02*
X0238846Y0144800D01*
X0238346Y0144800D02*
X0238346Y0146301D01*
X0238846Y0145801D01*
X0239319Y0146051D02*
X0239569Y0146301D01*
X0240069Y0146301D01*
X0240320Y0146051D01*
X0240320Y0145050D01*
X0240069Y0144800D01*
X0239569Y0144800D01*
X0239319Y0145050D01*
X0224347Y0127215D02*
X0224347Y0126214D01*
X0225098Y0126965D01*
X0223596Y0126965D01*
X0223596Y0125742D02*
X0223596Y0124741D01*
X0223596Y0125241D02*
X0225098Y0125241D01*
X0224597Y0124741D01*
X0224847Y0124268D02*
X0225098Y0124018D01*
X0225098Y0123518D01*
X0224847Y0123268D01*
X0223847Y0123268D01*
X0223596Y0123518D01*
X0223596Y0124018D01*
X0223847Y0124268D01*
X0249158Y0105796D02*
X0249408Y0106046D01*
X0249908Y0106046D01*
X0250159Y0105796D01*
X0250159Y0105546D01*
X0249908Y0105295D01*
X0249158Y0105295D01*
X0249158Y0104795D02*
X0249158Y0105796D01*
X0249158Y0104795D02*
X0249408Y0104545D01*
X0249908Y0104545D01*
X0250159Y0104795D01*
X0250631Y0104545D02*
X0251131Y0105045D01*
X0250881Y0105045D02*
X0251632Y0105045D01*
X0251632Y0104545D02*
X0251632Y0106046D01*
X0250881Y0106046D01*
X0250631Y0105796D01*
X0250631Y0105295D01*
X0250881Y0105045D01*
X0251092Y0097766D02*
X0251092Y0096265D01*
X0251592Y0096265D02*
X0250591Y0096265D01*
X0250119Y0096515D02*
X0249868Y0096265D01*
X0249368Y0096265D01*
X0249118Y0096515D01*
X0249118Y0097516D01*
X0250119Y0096515D01*
X0250119Y0097516D01*
X0249868Y0097766D01*
X0249368Y0097766D01*
X0249118Y0097516D01*
X0251092Y0097766D02*
X0251592Y0097266D01*
X0252064Y0097016D02*
X0252315Y0096766D01*
X0253065Y0096766D01*
X0252565Y0096766D02*
X0252064Y0096265D01*
X0252064Y0097016D02*
X0252064Y0097516D01*
X0252315Y0097766D01*
X0253065Y0097766D01*
X0253065Y0096265D01*
X0174661Y0247947D02*
X0174661Y0249448D01*
X0173910Y0249448D01*
X0173660Y0249198D01*
X0173660Y0248697D01*
X0173910Y0248447D01*
X0174661Y0248447D01*
X0174160Y0248447D02*
X0173660Y0247947D01*
X0173187Y0248197D02*
X0173187Y0248447D01*
X0172937Y0248697D01*
X0172437Y0248697D01*
X0172187Y0248447D01*
X0172187Y0248197D01*
X0172437Y0247947D01*
X0172937Y0247947D01*
X0173187Y0248197D01*
X0172937Y0248697D02*
X0173187Y0248948D01*
X0173187Y0249198D01*
X0172937Y0249448D01*
X0172437Y0249448D01*
X0172187Y0249198D01*
X0172187Y0248948D01*
X0172437Y0248697D01*
D13*
X0175264Y0252497D03*
X0252235Y0109095D03*
X0252195Y0100815D03*
X0143521Y0070580D03*
X0114326Y0074345D03*
D14*
X0114318Y0174738D02*
X0117388Y0174738D01*
X0115853Y0174738D02*
X0115853Y0179342D01*
X0117388Y0177807D01*
X0118922Y0178574D02*
X0119690Y0179342D01*
X0121224Y0179342D01*
X0121992Y0178574D01*
X0121992Y0175505D01*
X0121224Y0174738D01*
X0119690Y0174738D01*
X0118922Y0175505D01*
X0112784Y0175505D02*
X0112017Y0174738D01*
X0110482Y0174738D01*
X0109715Y0175505D01*
X0109715Y0178574D01*
X0110482Y0179342D01*
X0112017Y0179342D01*
X0112784Y0178574D01*
X0112784Y0177807D01*
X0112017Y0177040D01*
X0109715Y0177040D01*
X0110146Y0183209D02*
X0111681Y0183209D01*
X0112448Y0183977D01*
X0109379Y0187046D01*
X0109379Y0183977D01*
X0110146Y0183209D01*
X0112448Y0183977D02*
X0112448Y0187046D01*
X0111681Y0187813D01*
X0110146Y0187813D01*
X0109379Y0187046D01*
X0113983Y0187046D02*
X0114750Y0187813D01*
X0116285Y0187813D01*
X0117052Y0187046D01*
X0118587Y0187046D02*
X0119354Y0187813D01*
X0120889Y0187813D01*
X0121656Y0187046D01*
X0121656Y0183977D01*
X0120889Y0183209D01*
X0119354Y0183209D01*
X0118587Y0183977D01*
X0117052Y0183209D02*
X0113983Y0186279D01*
X0113983Y0187046D01*
X0113983Y0183209D02*
X0117052Y0183209D01*
X0162648Y0234692D02*
X0161881Y0235460D01*
X0161881Y0236994D01*
X0162648Y0237761D01*
X0161881Y0239296D02*
X0164950Y0242365D01*
X0165718Y0242365D01*
X0166485Y0241598D01*
X0166485Y0240063D01*
X0165718Y0239296D01*
X0165718Y0237761D02*
X0166485Y0236994D01*
X0166485Y0235460D01*
X0165718Y0234692D01*
X0162648Y0234692D01*
X0161881Y0239296D02*
X0161881Y0242365D01*
X0161881Y0243900D02*
X0161881Y0246969D01*
X0161881Y0245435D02*
X0166485Y0245435D01*
X0164950Y0243900D01*
X0155245Y0243430D02*
X0154477Y0242663D01*
X0151408Y0242663D01*
X0150641Y0243430D01*
X0150641Y0244965D01*
X0151408Y0245732D01*
X0150641Y0247267D02*
X0150641Y0250336D01*
X0150641Y0248801D02*
X0155245Y0248801D01*
X0153710Y0247267D01*
X0154477Y0245732D02*
X0155245Y0244965D01*
X0155245Y0243430D01*
X0147171Y0243421D02*
X0146404Y0242654D01*
X0143335Y0242654D01*
X0142567Y0243421D01*
X0142567Y0244956D01*
X0143335Y0245723D01*
X0142567Y0247258D02*
X0142567Y0250327D01*
X0142567Y0248792D02*
X0147171Y0248792D01*
X0145637Y0247258D01*
X0146404Y0245723D02*
X0147171Y0244956D01*
X0147171Y0243421D01*
X0147171Y0251862D02*
X0144869Y0251862D01*
X0145637Y0253396D01*
X0145637Y0254163D01*
X0144869Y0254931D01*
X0143335Y0254931D01*
X0142567Y0254163D01*
X0142567Y0252629D01*
X0143335Y0251862D01*
X0147171Y0251862D02*
X0147171Y0254931D01*
X0150641Y0254172D02*
X0151408Y0254940D01*
X0152175Y0254940D01*
X0152943Y0254172D01*
X0152943Y0251871D01*
X0151408Y0251871D01*
X0150641Y0252638D01*
X0150641Y0254172D01*
X0152943Y0251871D02*
X0154477Y0253405D01*
X0155245Y0254940D01*
X0161385Y0284877D02*
X0165989Y0284877D01*
X0165989Y0287179D01*
X0165221Y0287946D01*
X0163687Y0287946D01*
X0162919Y0287179D01*
X0162919Y0284877D01*
X0162919Y0286412D02*
X0161385Y0287946D01*
X0161385Y0289481D02*
X0161385Y0292550D01*
X0161385Y0291016D02*
X0165989Y0291016D01*
X0164454Y0289481D01*
X0164454Y0294085D02*
X0165221Y0294085D01*
X0165989Y0294852D01*
X0165989Y0296387D01*
X0165221Y0297154D01*
X0164454Y0297154D01*
X0163687Y0296387D01*
X0163687Y0294852D01*
X0164454Y0294085D01*
X0163687Y0294852D02*
X0162919Y0294085D01*
X0162152Y0294085D01*
X0161385Y0294852D01*
X0161385Y0296387D01*
X0162152Y0297154D01*
X0162919Y0297154D01*
X0163687Y0296387D01*
X0169697Y0297834D02*
X0174301Y0297834D01*
X0174301Y0300136D01*
X0173534Y0300903D01*
X0171999Y0300903D01*
X0171232Y0300136D01*
X0171232Y0297834D01*
X0171232Y0299369D02*
X0169697Y0300903D01*
X0169697Y0302438D02*
X0169697Y0305507D01*
X0169697Y0303972D02*
X0174301Y0303972D01*
X0172766Y0302438D01*
X0172766Y0307042D02*
X0171999Y0307809D01*
X0171999Y0310111D01*
X0173534Y0310111D02*
X0174301Y0309344D01*
X0174301Y0307809D01*
X0173534Y0307042D01*
X0172766Y0307042D01*
X0170464Y0307042D02*
X0169697Y0307809D01*
X0169697Y0309344D01*
X0170464Y0310111D01*
X0173534Y0310111D01*
X0170362Y0324326D02*
X0165758Y0324326D01*
X0167293Y0324326D02*
X0167293Y0326628D01*
X0168060Y0327396D01*
X0169595Y0327396D01*
X0170362Y0326628D01*
X0170362Y0324326D01*
X0167293Y0325861D02*
X0165758Y0327396D01*
X0165758Y0328930D02*
X0165758Y0332000D01*
X0165758Y0330465D02*
X0170362Y0330465D01*
X0168827Y0328930D01*
X0168060Y0333534D02*
X0166525Y0333534D01*
X0165758Y0334301D01*
X0165758Y0335836D01*
X0166525Y0336603D01*
X0167293Y0336603D01*
X0168060Y0335836D01*
X0168060Y0333534D01*
X0169595Y0335069D01*
X0170362Y0336603D01*
X0161073Y0336401D02*
X0161073Y0334099D01*
X0156469Y0334099D01*
X0158004Y0334099D02*
X0158004Y0336401D01*
X0158771Y0337168D01*
X0160306Y0337168D01*
X0161073Y0336401D01*
X0161073Y0338703D02*
X0161073Y0341772D01*
X0160306Y0341772D01*
X0157236Y0338703D01*
X0156469Y0338703D01*
X0156469Y0337168D02*
X0158004Y0335633D01*
X0148466Y0335018D02*
X0148466Y0337320D01*
X0147699Y0338087D01*
X0146164Y0338087D01*
X0145397Y0337320D01*
X0145397Y0335018D01*
X0145397Y0336553D02*
X0143862Y0338087D01*
X0143862Y0339622D02*
X0143862Y0342691D01*
X0143862Y0341157D02*
X0148466Y0341157D01*
X0146932Y0339622D01*
X0146164Y0344226D02*
X0146932Y0345760D01*
X0146932Y0346528D01*
X0146164Y0347295D01*
X0144630Y0347295D01*
X0143862Y0346528D01*
X0143862Y0344993D01*
X0144630Y0344226D01*
X0146164Y0344226D02*
X0148466Y0344226D01*
X0148466Y0347295D01*
X0157279Y0349453D02*
X0161883Y0349453D01*
X0161883Y0351755D01*
X0161116Y0352523D01*
X0159581Y0352523D01*
X0158814Y0351755D01*
X0158814Y0349453D01*
X0158814Y0350988D02*
X0157279Y0352523D01*
X0157279Y0354057D02*
X0160349Y0357126D01*
X0161116Y0357126D01*
X0161883Y0356359D01*
X0161883Y0354825D01*
X0161116Y0354057D01*
X0157279Y0354057D02*
X0157279Y0357126D01*
X0157279Y0358661D02*
X0160349Y0361730D01*
X0161116Y0361730D01*
X0161883Y0360963D01*
X0161883Y0359428D01*
X0161116Y0358661D01*
X0157279Y0358661D02*
X0157279Y0361730D01*
X0148466Y0335018D02*
X0143862Y0335018D01*
X0140846Y0296106D02*
X0140078Y0296106D01*
X0137009Y0293037D01*
X0136242Y0293037D01*
X0136242Y0291503D02*
X0136242Y0288433D01*
X0136242Y0286899D02*
X0137776Y0285364D01*
X0137776Y0286131D02*
X0137776Y0283829D01*
X0136242Y0283829D02*
X0140846Y0283829D01*
X0140846Y0286131D01*
X0140078Y0286899D01*
X0138544Y0286899D01*
X0137776Y0286131D01*
X0139311Y0288433D02*
X0140846Y0289968D01*
X0136242Y0289968D01*
X0140846Y0293037D02*
X0140846Y0296106D01*
X0209583Y0234269D02*
X0209583Y0233502D01*
X0210350Y0232735D01*
X0209583Y0231967D01*
X0209583Y0231200D01*
X0210350Y0230433D01*
X0211885Y0230433D01*
X0212652Y0231200D01*
X0214187Y0230433D02*
X0217256Y0230433D01*
X0214187Y0233502D01*
X0214187Y0234269D01*
X0214954Y0235037D01*
X0216489Y0235037D01*
X0217256Y0234269D01*
X0218791Y0234269D02*
X0218791Y0232735D01*
X0219558Y0231967D01*
X0221860Y0231967D01*
X0221860Y0230433D02*
X0221860Y0235037D01*
X0219558Y0235037D01*
X0218791Y0234269D01*
X0220325Y0231967D02*
X0218791Y0230433D01*
X0212652Y0234269D02*
X0211885Y0235037D01*
X0210350Y0235037D01*
X0209583Y0234269D01*
X0210350Y0232735D02*
X0211117Y0232735D01*
M02*
