G75*
%MOIN*%
%OFA0B0*%
%FSLAX25Y25*%
%IPPOS*%
%LPD*%
%AMOC8*
5,1,8,0,0,1.08239X$1,22.5*
%
%ADD10R,0.05131X0.04737*%
%ADD11R,0.04737X0.05131*%
%ADD12C,0.05950*%
%ADD13C,0.07591*%
%ADD14OC8,0.06400*%
%ADD15C,0.06300*%
%ADD16C,0.10250*%
%ADD17C,0.06800*%
%ADD18C,0.13400*%
%ADD19C,0.06400*%
%ADD20R,0.03162X0.18517*%
D10*
X0118809Y0085003D03*
X0125502Y0085003D03*
X0148005Y0081238D03*
X0154698Y0081238D03*
X0192710Y0144378D03*
X0199403Y0144378D03*
X0241353Y0152408D03*
X0248046Y0152408D03*
X0248594Y0172587D03*
X0241901Y0172587D03*
X0241867Y0180641D03*
X0248560Y0180641D03*
X0248583Y0188689D03*
X0241891Y0188689D03*
X0256719Y0119753D03*
X0263412Y0119753D03*
X0263372Y0111473D03*
X0256679Y0111473D03*
X0130868Y0182696D03*
X0124175Y0182696D03*
X0123840Y0191167D03*
X0130532Y0191167D03*
X0179748Y0263155D03*
X0186441Y0263155D03*
X0176515Y0303300D03*
X0176515Y0309993D03*
X0184827Y0316257D03*
X0184827Y0322950D03*
X0170888Y0333938D03*
X0170888Y0340631D03*
X0161599Y0343710D03*
X0161599Y0350403D03*
X0162410Y0359065D03*
X0162410Y0365758D03*
X0148992Y0351322D03*
X0148992Y0344630D03*
X0151372Y0308946D03*
X0151372Y0302253D03*
D11*
X0157697Y0267770D03*
X0157697Y0261077D03*
X0165771Y0261086D03*
X0165771Y0267779D03*
X0167011Y0250997D03*
X0167011Y0244304D03*
X0190718Y0204594D03*
X0190718Y0197901D03*
X0231010Y0197473D03*
X0231010Y0204166D03*
X0239461Y0204153D03*
X0239461Y0197460D03*
X0242777Y0165806D03*
X0242777Y0159113D03*
X0235976Y0138142D03*
X0235976Y0131449D03*
X0182042Y0141499D03*
X0182042Y0148192D03*
X0215232Y0248391D03*
X0221925Y0248391D03*
D12*
X0096364Y0346169D03*
X0096364Y0365854D03*
D13*
X0085734Y0370175D03*
X0085734Y0341848D03*
D14*
X0182802Y0230317D03*
X0192802Y0230317D03*
X0202802Y0230317D03*
X0202802Y0220317D03*
X0192802Y0220317D03*
X0182802Y0220317D03*
X0164193Y0202747D03*
X0164193Y0192747D03*
X0164193Y0182747D03*
X0164193Y0172747D03*
X0164193Y0162747D03*
X0164193Y0152747D03*
X0164193Y0142747D03*
X0164193Y0132747D03*
X0154193Y0132747D03*
X0154193Y0142747D03*
X0154193Y0152747D03*
X0154193Y0162747D03*
X0154193Y0172747D03*
X0154193Y0182747D03*
X0154193Y0192747D03*
X0154193Y0202747D03*
X0212802Y0220317D03*
X0222802Y0220317D03*
X0222802Y0230317D03*
X0212802Y0230317D03*
X0232802Y0230317D03*
X0242802Y0230317D03*
X0232802Y0220317D03*
X0260492Y0202747D03*
X0270492Y0202747D03*
X0270492Y0192747D03*
X0260492Y0192747D03*
X0260492Y0182747D03*
X0270492Y0182747D03*
X0270492Y0172747D03*
X0260492Y0172747D03*
X0260492Y0162747D03*
X0270492Y0162747D03*
X0270492Y0152747D03*
X0260492Y0152747D03*
X0260492Y0142747D03*
X0270492Y0142747D03*
X0270492Y0132747D03*
X0260492Y0132747D03*
X0247343Y0119598D03*
X0237343Y0119598D03*
X0227343Y0119598D03*
X0217343Y0119598D03*
X0207343Y0119598D03*
X0197343Y0119598D03*
X0187343Y0119598D03*
X0177343Y0119598D03*
X0177343Y0109598D03*
X0187343Y0109598D03*
X0197343Y0109598D03*
X0207343Y0109598D03*
X0217343Y0109598D03*
X0227343Y0109598D03*
X0237343Y0109598D03*
X0247343Y0109598D03*
D15*
X0171812Y0317216D03*
X0176812Y0327216D03*
X0166812Y0327216D03*
X0161812Y0317216D03*
X0151812Y0317216D03*
X0156812Y0327216D03*
X0146812Y0327216D03*
X0141812Y0317216D03*
D16*
X0128312Y0340216D03*
X0190312Y0340216D03*
D17*
X0174212Y0365516D03*
X0184212Y0371516D03*
X0144412Y0371516D03*
X0134412Y0365516D03*
D18*
X0136812Y0352216D03*
X0181812Y0352216D03*
D19*
X0242802Y0220317D03*
D20*
X0100708Y0035260D03*
X0103858Y0035260D03*
X0107007Y0035260D03*
X0110157Y0035260D03*
X0113307Y0035260D03*
X0116456Y0035260D03*
X0119606Y0035260D03*
X0122755Y0035260D03*
X0125905Y0035260D03*
X0129055Y0035260D03*
X0132204Y0035260D03*
X0135354Y0035260D03*
X0138503Y0035260D03*
X0141653Y0035260D03*
X0144803Y0035260D03*
X0147952Y0035260D03*
X0151102Y0035260D03*
X0154251Y0035260D03*
X0157401Y0035260D03*
X0160551Y0035260D03*
X0163700Y0035260D03*
X0166850Y0035260D03*
X0169999Y0035260D03*
X0173149Y0035260D03*
X0176299Y0035260D03*
X0179448Y0035260D03*
X0182598Y0035260D03*
X0185747Y0035260D03*
X0188897Y0035260D03*
X0192047Y0035260D03*
X0195196Y0035260D03*
X0198346Y0035260D03*
X0214094Y0035260D03*
X0217244Y0035260D03*
X0220393Y0035260D03*
X0223543Y0035260D03*
X0226692Y0035260D03*
X0229842Y0035260D03*
X0232992Y0035260D03*
X0236141Y0035260D03*
X0239291Y0035260D03*
X0242440Y0035260D03*
X0245590Y0035260D03*
X0248740Y0035260D03*
X0251889Y0035260D03*
X0255039Y0035260D03*
X0258188Y0035260D03*
X0261338Y0035260D03*
X0264488Y0035260D03*
X0267637Y0035260D03*
X0270787Y0035260D03*
X0273936Y0035260D03*
X0277086Y0035260D03*
X0280236Y0035260D03*
X0283385Y0035260D03*
X0286535Y0035260D03*
X0289684Y0035260D03*
X0292834Y0035260D03*
X0295984Y0035260D03*
X0299133Y0035260D03*
M02*
