G75*
%MOIN*%
%OFA0B0*%
%FSLAX25Y25*%
%IPPOS*%
%LPD*%
%AMOC8*
5,1,8,0,0,1.08239X$1,22.5*
%
%ADD10R,0.04331X0.03937*%
%ADD11C,0.01181*%
%ADD12R,0.05906X0.06299*%
%ADD13R,0.03937X0.04331*%
%ADD14R,0.04724X0.01181*%
%ADD15R,0.01181X0.04724*%
%ADD16R,0.12598X0.07087*%
%ADD17R,0.01772X0.03937*%
%ADD18R,0.06102X0.05906*%
%ADD19R,0.05315X0.01575*%
%ADD20C,0.05150*%
%ADD21C,0.06791*%
%ADD22R,0.02756X0.01772*%
%ADD23R,0.03100X0.03500*%
%ADD24R,0.07087X0.09449*%
%ADD25R,0.06299X0.04724*%
%ADD26R,0.06299X0.12992*%
%ADD27OC8,0.05600*%
%ADD28R,0.02717X0.01102*%
%ADD29R,0.09843X0.09843*%
%ADD30R,0.01102X0.02717*%
%ADD31C,0.05500*%
%ADD32C,0.09450*%
%ADD33C,0.06000*%
%ADD34R,0.01969X0.02559*%
%ADD35R,0.02559X0.01969*%
%ADD36C,0.05600*%
%ADD37R,0.02362X0.17717*%
%ADD38C,0.03600*%
%ADD39C,0.00800*%
%ADD40C,0.01000*%
%ADD41C,0.01200*%
%ADD42C,0.01600*%
%ADD43C,0.03962*%
%ADD44C,0.02400*%
%ADD45C,0.02600*%
%ADD46C,0.03200*%
D10*
X0109142Y0087793D03*
X0115835Y0087793D03*
X0150016Y0084369D03*
X0156709Y0084369D03*
X0221035Y0053574D03*
X0227728Y0053574D03*
X0280586Y0162695D03*
X0287279Y0162695D03*
X0145455Y0267994D03*
X0145455Y0274687D03*
X0118188Y0263148D03*
X0111496Y0263148D03*
X0111527Y0255056D03*
X0118220Y0255056D03*
X0118227Y0247019D03*
X0111534Y0247019D03*
X0111450Y0238965D03*
X0118143Y0238965D03*
D11*
X0105481Y0238407D02*
X0105481Y0241163D01*
X0105481Y0238407D02*
X0102725Y0238407D01*
X0102725Y0241163D01*
X0105481Y0241163D01*
X0105481Y0239587D02*
X0102725Y0239587D01*
X0102725Y0240767D02*
X0105481Y0240767D01*
X0105655Y0246055D02*
X0105655Y0248811D01*
X0105655Y0246055D02*
X0102899Y0246055D01*
X0102899Y0248811D01*
X0105655Y0248811D01*
X0105655Y0247235D02*
X0102899Y0247235D01*
X0102899Y0248415D02*
X0105655Y0248415D01*
X0105582Y0253759D02*
X0105582Y0256515D01*
X0105582Y0253759D02*
X0102826Y0253759D01*
X0102826Y0256515D01*
X0105582Y0256515D01*
X0105582Y0254939D02*
X0102826Y0254939D01*
X0102826Y0256119D02*
X0105582Y0256119D01*
X0105652Y0261627D02*
X0105652Y0264383D01*
X0105652Y0261627D02*
X0102896Y0261627D01*
X0102896Y0264383D01*
X0105652Y0264383D01*
X0105652Y0262807D02*
X0102896Y0262807D01*
X0102896Y0263987D02*
X0105652Y0263987D01*
X0098747Y0264383D02*
X0098747Y0261627D01*
X0095991Y0261627D01*
X0095991Y0264383D01*
X0098747Y0264383D01*
X0098747Y0262807D02*
X0095991Y0262807D01*
X0095991Y0263987D02*
X0098747Y0263987D01*
X0098676Y0256515D02*
X0098676Y0253759D01*
X0095920Y0253759D01*
X0095920Y0256515D01*
X0098676Y0256515D01*
X0098676Y0254939D02*
X0095920Y0254939D01*
X0095920Y0256119D02*
X0098676Y0256119D01*
X0098749Y0248811D02*
X0098749Y0246055D01*
X0095993Y0246055D01*
X0095993Y0248811D01*
X0098749Y0248811D01*
X0098749Y0247235D02*
X0095993Y0247235D01*
X0095993Y0248415D02*
X0098749Y0248415D01*
X0098576Y0241163D02*
X0098576Y0238407D01*
X0095820Y0238407D01*
X0095820Y0241163D01*
X0098576Y0241163D01*
X0098576Y0239587D02*
X0095820Y0239587D01*
X0095820Y0240767D02*
X0098576Y0240767D01*
D12*
X0138078Y0213221D03*
X0147133Y0213221D03*
X0147133Y0203378D03*
X0138078Y0203378D03*
X0279846Y0181886D03*
X0288901Y0181886D03*
X0288901Y0172044D03*
X0279846Y0172044D03*
D13*
X0235098Y0080675D03*
X0235098Y0073982D03*
X0121532Y0165380D03*
X0121532Y0172073D03*
X0121217Y0202689D03*
X0121217Y0209382D03*
X0155824Y0209120D03*
X0155824Y0202427D03*
X0137165Y0259992D03*
X0137165Y0266685D03*
D14*
X0174001Y0180711D03*
X0174001Y0178743D03*
X0174001Y0176774D03*
X0174001Y0174806D03*
X0174001Y0172837D03*
X0174001Y0170869D03*
X0174001Y0168900D03*
X0174001Y0166932D03*
X0174001Y0164963D03*
X0174001Y0162995D03*
X0174001Y0161026D03*
X0174001Y0159058D03*
X0174001Y0157089D03*
X0174001Y0155121D03*
X0174001Y0153152D03*
X0174001Y0151184D03*
X0174001Y0149215D03*
X0174001Y0147247D03*
X0174001Y0145278D03*
X0174001Y0143310D03*
X0174001Y0141341D03*
X0174001Y0139373D03*
X0174001Y0137404D03*
X0174001Y0135436D03*
X0174001Y0133467D03*
X0235024Y0133467D03*
X0235024Y0135436D03*
X0235024Y0137404D03*
X0235024Y0139373D03*
X0235024Y0141341D03*
X0235024Y0143310D03*
X0235024Y0145278D03*
X0235024Y0147247D03*
X0235024Y0149215D03*
X0235024Y0151184D03*
X0235024Y0153152D03*
X0235024Y0155121D03*
X0235024Y0157089D03*
X0235024Y0159058D03*
X0235024Y0161026D03*
X0235024Y0162995D03*
X0235024Y0164963D03*
X0235024Y0166932D03*
X0235024Y0168900D03*
X0235024Y0170869D03*
X0235024Y0172837D03*
X0235024Y0174806D03*
X0235024Y0176774D03*
X0235024Y0178743D03*
X0235024Y0180711D03*
D15*
X0228135Y0187601D03*
X0226166Y0187601D03*
X0224198Y0187601D03*
X0222229Y0187601D03*
X0220261Y0187601D03*
X0218292Y0187601D03*
X0216324Y0187601D03*
X0214355Y0187601D03*
X0212387Y0187601D03*
X0210418Y0187601D03*
X0208450Y0187601D03*
X0206481Y0187601D03*
X0204513Y0187601D03*
X0202544Y0187601D03*
X0200576Y0187601D03*
X0198607Y0187601D03*
X0196639Y0187601D03*
X0194670Y0187601D03*
X0192702Y0187601D03*
X0190733Y0187601D03*
X0188765Y0187601D03*
X0186796Y0187601D03*
X0184828Y0187601D03*
X0182859Y0187601D03*
X0180891Y0187601D03*
X0180891Y0126577D03*
X0182859Y0126577D03*
X0184828Y0126577D03*
X0186796Y0126577D03*
X0188765Y0126577D03*
X0190733Y0126577D03*
X0192702Y0126577D03*
X0194670Y0126577D03*
X0196639Y0126577D03*
X0198607Y0126577D03*
X0200576Y0126577D03*
X0202544Y0126577D03*
X0204513Y0126577D03*
X0206481Y0126577D03*
X0208450Y0126577D03*
X0210418Y0126577D03*
X0212387Y0126577D03*
X0214355Y0126577D03*
X0216324Y0126577D03*
X0218292Y0126577D03*
X0220261Y0126577D03*
X0222229Y0126577D03*
X0224198Y0126577D03*
X0226166Y0126577D03*
X0228135Y0126577D03*
D16*
X0106257Y0166252D03*
X0106257Y0188299D03*
X0106257Y0203193D03*
X0106257Y0225240D03*
D17*
X0222136Y0083421D03*
X0224695Y0083421D03*
X0227254Y0083421D03*
X0229813Y0083421D03*
X0229813Y0073776D03*
X0227254Y0073776D03*
X0224695Y0073776D03*
X0222136Y0073776D03*
D18*
X0078662Y0135919D03*
X0078662Y0143793D03*
D19*
X0089292Y0144974D03*
X0089292Y0142415D03*
X0089292Y0139856D03*
X0089292Y0137297D03*
X0089292Y0134738D03*
D20*
X0089292Y0130013D03*
X0089292Y0149698D03*
D21*
X0078662Y0154019D03*
X0078662Y0125693D03*
D22*
X0095228Y0139348D03*
X0095228Y0142497D03*
X0101330Y0142497D03*
X0101330Y0139348D03*
D23*
X0107853Y0119397D03*
X0111653Y0111397D03*
X0104053Y0111397D03*
D24*
X0099381Y0099560D03*
X0115326Y0099560D03*
D25*
X0124799Y0097307D03*
X0124799Y0106362D03*
X0124799Y0088251D03*
D26*
X0149996Y0097307D03*
D27*
X0169513Y0098940D03*
X0179513Y0098940D03*
X0189513Y0098940D03*
X0199513Y0098940D03*
X0209513Y0098940D03*
X0219513Y0098940D03*
X0229513Y0098940D03*
X0239513Y0098940D03*
X0239513Y0108940D03*
X0229513Y0108940D03*
X0219513Y0108940D03*
X0209513Y0108940D03*
X0199513Y0108940D03*
X0189513Y0108940D03*
X0179513Y0108940D03*
X0169513Y0108940D03*
X0156363Y0122089D03*
X0146363Y0122089D03*
X0146363Y0132089D03*
X0146363Y0142089D03*
X0156363Y0142089D03*
X0156363Y0132089D03*
X0156363Y0152089D03*
X0146363Y0152089D03*
X0146363Y0162089D03*
X0146363Y0172089D03*
X0156363Y0172089D03*
X0156363Y0162089D03*
X0156363Y0182089D03*
X0156363Y0192089D03*
X0146363Y0192089D03*
X0146363Y0182089D03*
X0174972Y0209659D03*
X0184972Y0209659D03*
X0194972Y0209659D03*
X0204972Y0209659D03*
X0214972Y0209659D03*
X0224972Y0209659D03*
X0224972Y0219659D03*
X0214972Y0219659D03*
X0204972Y0219659D03*
X0194972Y0219659D03*
X0184972Y0219659D03*
X0174972Y0219659D03*
X0234972Y0219659D03*
X0252662Y0192089D03*
X0252662Y0182089D03*
X0262662Y0182089D03*
X0262662Y0192089D03*
X0262662Y0172089D03*
X0262662Y0162089D03*
X0252662Y0162089D03*
X0252662Y0172089D03*
X0252662Y0152089D03*
X0262662Y0152089D03*
X0262662Y0142089D03*
X0262662Y0132089D03*
X0252662Y0132089D03*
X0252662Y0142089D03*
X0252662Y0122089D03*
X0262662Y0122089D03*
D28*
X0161216Y0248299D03*
X0161216Y0250267D03*
X0161216Y0252236D03*
X0161216Y0254204D03*
X0161216Y0256173D03*
X0161216Y0258141D03*
X0143933Y0258141D03*
X0143933Y0256173D03*
X0143933Y0254204D03*
X0143933Y0252236D03*
X0143933Y0250267D03*
X0143933Y0248299D03*
D29*
X0152574Y0253220D03*
D30*
X0151590Y0244578D03*
X0149622Y0244578D03*
X0147653Y0244578D03*
X0153559Y0244578D03*
X0155527Y0244578D03*
X0157496Y0244578D03*
X0157496Y0261862D03*
X0155527Y0261862D03*
X0153559Y0261862D03*
X0151590Y0261862D03*
X0149622Y0261862D03*
X0147653Y0261862D03*
D31*
X0143981Y0306558D03*
X0153981Y0306558D03*
X0163981Y0306558D03*
X0158981Y0316558D03*
X0148981Y0316558D03*
X0138981Y0316558D03*
X0133981Y0306558D03*
X0168981Y0316558D03*
D32*
X0182481Y0329558D03*
X0120481Y0329558D03*
D33*
X0126581Y0354858D03*
X0136581Y0360858D03*
X0166381Y0354858D03*
X0176381Y0360858D03*
D34*
X0176945Y0250196D03*
X0173796Y0250196D03*
X0173796Y0244882D03*
X0176945Y0244882D03*
X0180095Y0244882D03*
X0183245Y0244882D03*
X0183245Y0250196D03*
X0180095Y0250196D03*
X0158452Y0234679D03*
X0155303Y0234679D03*
X0152153Y0234679D03*
X0149003Y0234679D03*
X0149003Y0229364D03*
X0152153Y0229364D03*
X0155303Y0229364D03*
X0158452Y0229364D03*
D35*
X0209273Y0236983D03*
X0209273Y0240133D03*
X0209273Y0243282D03*
X0209273Y0246432D03*
X0214588Y0246432D03*
X0214588Y0243282D03*
X0214588Y0240133D03*
X0214588Y0236983D03*
D36*
X0234972Y0209659D03*
D37*
X0234610Y0024602D03*
X0231461Y0024602D03*
X0228311Y0024602D03*
X0225161Y0024602D03*
X0222012Y0024602D03*
X0218862Y0024602D03*
X0215713Y0024602D03*
X0212563Y0024602D03*
X0209413Y0024602D03*
X0206264Y0024602D03*
X0190516Y0024602D03*
X0187366Y0024602D03*
X0184217Y0024602D03*
X0181067Y0024602D03*
X0177917Y0024602D03*
X0174768Y0024602D03*
X0171618Y0024602D03*
X0168469Y0024602D03*
X0165319Y0024602D03*
X0162169Y0024602D03*
X0159020Y0024602D03*
X0155870Y0024602D03*
X0152721Y0024602D03*
X0149571Y0024602D03*
X0146421Y0024602D03*
X0143272Y0024602D03*
X0140122Y0024602D03*
X0136972Y0024602D03*
X0133823Y0024602D03*
X0130673Y0024602D03*
X0127524Y0024602D03*
X0124374Y0024602D03*
X0121224Y0024602D03*
X0118075Y0024602D03*
X0114925Y0024602D03*
X0111776Y0024602D03*
X0108626Y0024602D03*
X0105476Y0024602D03*
X0102327Y0024602D03*
X0099177Y0024602D03*
X0096028Y0024602D03*
X0092878Y0024602D03*
X0237760Y0024602D03*
X0240909Y0024602D03*
X0244059Y0024602D03*
X0247209Y0024602D03*
X0250358Y0024602D03*
X0253508Y0024602D03*
X0256658Y0024602D03*
X0259807Y0024602D03*
X0262957Y0024602D03*
X0266106Y0024602D03*
X0269256Y0024602D03*
X0272406Y0024602D03*
X0275555Y0024602D03*
X0278705Y0024602D03*
X0281854Y0024602D03*
X0285004Y0024602D03*
X0288154Y0024602D03*
X0291303Y0024602D03*
D38*
X0242096Y0079280D03*
X0226800Y0089231D03*
X0223040Y0092565D03*
X0237181Y0126818D03*
X0226241Y0133928D03*
X0228711Y0153162D03*
X0229327Y0159044D03*
X0228949Y0163852D03*
X0223655Y0167842D03*
X0228621Y0171668D03*
X0228650Y0176373D03*
X0223986Y0181631D03*
X0238513Y0195496D03*
X0226152Y0198593D03*
X0220805Y0198698D03*
X0204145Y0165463D03*
X0184724Y0181109D03*
X0173685Y0195386D03*
X0179865Y0168699D03*
X0179945Y0137195D03*
X0179758Y0132486D03*
X0200655Y0133227D03*
X0180808Y0081716D03*
X0148461Y0078015D03*
X0129438Y0119967D03*
X0140202Y0126997D03*
X0136115Y0133573D03*
X0131007Y0165038D03*
X0154894Y0222497D03*
X0163219Y0224256D03*
X0176701Y0235104D03*
X0183870Y0228648D03*
X0167941Y0245420D03*
X0167059Y0240638D03*
X0165994Y0252040D03*
X0152723Y0240034D03*
X0143646Y0238825D03*
X0144111Y0244651D03*
X0142921Y0261573D03*
X0160152Y0266711D03*
X0167156Y0276944D03*
X0155897Y0289526D03*
X0181437Y0263855D03*
D39*
X0179262Y0259548D02*
X0183460Y0255350D01*
X0180437Y0253164D02*
X0177079Y0257402D01*
X0164144Y0257413D01*
X0162881Y0256173D01*
X0161216Y0256173D01*
X0161216Y0258141D02*
X0161513Y0258141D01*
X0162919Y0259548D01*
X0179262Y0259548D01*
X0174877Y0255502D02*
X0175936Y0254204D01*
X0174877Y0255502D02*
X0164742Y0255547D01*
X0162838Y0254110D01*
X0161310Y0254110D01*
X0161216Y0254204D01*
X0161216Y0250267D02*
X0162632Y0250267D01*
X0163069Y0250299D01*
X0164702Y0248666D01*
X0172227Y0248628D01*
X0173796Y0250196D01*
X0172733Y0249134D01*
X0166837Y0240861D02*
X0167059Y0240638D01*
X0166837Y0240861D02*
X0161213Y0240861D01*
X0156839Y0240691D02*
X0156839Y0237733D01*
X0155303Y0236196D01*
X0155303Y0234679D01*
X0155527Y0234903D01*
X0152153Y0234679D02*
X0152153Y0235716D01*
X0149622Y0238248D01*
X0149622Y0244578D01*
X0147653Y0244578D02*
X0147572Y0244497D01*
X0147572Y0237439D01*
X0149003Y0236008D01*
X0149003Y0234679D01*
X0151667Y0235164D02*
X0152153Y0234679D01*
X0149003Y0229364D02*
X0149003Y0223312D01*
X0149262Y0223053D01*
X0156839Y0240691D02*
X0156686Y0240843D01*
X0156686Y0240881D01*
X0155598Y0241969D01*
X0155598Y0244507D01*
X0155527Y0244578D01*
X0205257Y0219659D02*
X0209909Y0215008D01*
X0209909Y0208530D01*
X0214750Y0203688D01*
X0228729Y0203688D01*
X0229962Y0202455D01*
X0229962Y0180469D01*
X0231688Y0178743D01*
X0235024Y0178743D01*
X0235024Y0180711D02*
X0233338Y0180711D01*
X0231734Y0182316D01*
X0231734Y0203137D01*
X0229410Y0205461D01*
X0221501Y0205461D01*
X0220069Y0206893D01*
X0220069Y0213576D01*
X0214972Y0218673D01*
X0209867Y0218259D02*
X0214878Y0213248D01*
X0214878Y0209753D01*
X0209867Y0218259D02*
X0209867Y0221495D01*
X0209867Y0230229D01*
X0211963Y0232325D01*
X0211963Y0244257D01*
X0211970Y0244264D01*
X0211970Y0245693D01*
X0212709Y0246432D01*
X0220805Y0198698D02*
X0222377Y0197125D01*
X0222377Y0187749D01*
X0238513Y0195496D02*
X0238513Y0163157D01*
X0240436Y0159323D02*
X0240436Y0186281D01*
X0246244Y0192089D01*
X0252662Y0192089D01*
X0252410Y0192341D01*
X0252548Y0192203D02*
X0252662Y0192089D01*
X0257556Y0187196D02*
X0246090Y0187196D01*
X0242086Y0183192D01*
X0242086Y0158596D01*
X0238611Y0155121D01*
X0235024Y0155121D01*
X0234995Y0153182D02*
X0234976Y0153162D01*
X0228711Y0153162D01*
X0228692Y0153182D01*
X0224342Y0153182D01*
X0225554Y0153390D02*
X0221137Y0153390D01*
X0221137Y0154188D02*
X0225554Y0154188D01*
X0225554Y0154987D02*
X0221137Y0154987D01*
X0221137Y0155785D02*
X0225554Y0155785D01*
X0225554Y0156584D02*
X0221137Y0156584D01*
X0221137Y0157382D02*
X0225554Y0157382D01*
X0225554Y0158181D02*
X0221137Y0158181D01*
X0221137Y0158979D02*
X0225554Y0158979D01*
X0225554Y0159778D02*
X0221137Y0159778D01*
X0221137Y0160576D02*
X0225554Y0160576D01*
X0225554Y0161375D02*
X0221137Y0161375D01*
X0221137Y0162173D02*
X0225554Y0162173D01*
X0225554Y0162972D02*
X0221137Y0162972D01*
X0221232Y0163673D02*
X0225554Y0163673D01*
X0225554Y0138643D01*
X0189790Y0138643D01*
X0189695Y0138595D01*
X0189695Y0142157D01*
X0221137Y0142157D01*
X0221137Y0163863D01*
X0221232Y0163863D01*
X0221232Y0163673D01*
X0221232Y0163770D02*
X0221137Y0163770D01*
X0223655Y0167842D02*
X0223912Y0168100D01*
X0229559Y0168128D01*
X0232328Y0170896D01*
X0235024Y0170869D01*
X0235024Y0168900D02*
X0232494Y0168907D01*
X0229233Y0165646D01*
X0229080Y0164686D01*
X0228949Y0163852D01*
X0235035Y0157100D02*
X0238213Y0157100D01*
X0240436Y0159323D01*
X0235035Y0157100D02*
X0235024Y0157089D01*
X0234995Y0153182D02*
X0235024Y0153152D01*
X0235024Y0149215D02*
X0240942Y0149215D01*
X0243815Y0152088D01*
X0243815Y0178214D01*
X0247690Y0182089D01*
X0252662Y0182089D01*
X0257556Y0187196D02*
X0262662Y0182089D01*
X0257542Y0177209D02*
X0250394Y0177209D01*
X0245454Y0172270D01*
X0245454Y0150449D01*
X0242280Y0147247D01*
X0235024Y0147247D01*
X0235024Y0145278D02*
X0243391Y0145410D01*
X0247772Y0149791D01*
X0248003Y0167661D01*
X0252662Y0172089D01*
X0257542Y0177209D02*
X0262662Y0172089D01*
X0252576Y0142176D02*
X0252662Y0142089D01*
X0252576Y0142176D02*
X0251507Y0141336D01*
X0243497Y0141341D01*
X0235024Y0141341D01*
X0235024Y0139373D02*
X0248576Y0139373D01*
X0250591Y0137357D01*
X0257394Y0137357D01*
X0262662Y0132089D01*
X0260981Y0127050D02*
X0250973Y0127050D01*
X0247544Y0130479D01*
X0247544Y0133365D01*
X0245473Y0135436D01*
X0235024Y0135436D01*
X0235024Y0137404D02*
X0247347Y0137404D01*
X0252662Y0132089D01*
X0245831Y0132731D02*
X0245831Y0130026D01*
X0250611Y0125247D01*
X0250611Y0124140D01*
X0252662Y0122089D01*
X0260981Y0127050D02*
X0262784Y0125247D01*
X0262784Y0122211D01*
X0262662Y0122089D01*
X0245831Y0132731D02*
X0245095Y0133467D01*
X0235024Y0133467D01*
X0228135Y0132012D02*
X0228135Y0126577D01*
X0228135Y0132012D02*
X0226241Y0133905D01*
X0226241Y0133928D01*
X0224899Y0135270D01*
X0224876Y0135270D01*
X0224876Y0139944D01*
X0224078Y0140742D01*
X0225554Y0140613D02*
X0189695Y0140613D01*
X0189695Y0139815D02*
X0225554Y0139815D01*
X0225554Y0139016D02*
X0189695Y0139016D01*
X0189695Y0141412D02*
X0225554Y0141412D01*
X0225554Y0142210D02*
X0221137Y0142210D01*
X0221137Y0143009D02*
X0225554Y0143009D01*
X0225554Y0143808D02*
X0221137Y0143808D01*
X0221137Y0144606D02*
X0225554Y0144606D01*
X0225554Y0145405D02*
X0221137Y0145405D01*
X0221137Y0146203D02*
X0225554Y0146203D01*
X0225554Y0147002D02*
X0221137Y0147002D01*
X0221137Y0147800D02*
X0225554Y0147800D01*
X0225554Y0148599D02*
X0221137Y0148599D01*
X0221137Y0149397D02*
X0225554Y0149397D01*
X0225554Y0150196D02*
X0221137Y0150196D01*
X0221137Y0150994D02*
X0225554Y0150994D01*
X0225554Y0151793D02*
X0221137Y0151793D01*
X0221137Y0152591D02*
X0225554Y0152591D01*
X0218292Y0126577D02*
X0218394Y0126475D01*
X0218394Y0120146D01*
X0219603Y0118937D01*
X0224358Y0118937D01*
X0227914Y0115381D01*
X0233072Y0115381D01*
X0239513Y0108940D01*
X0234367Y0110550D02*
X0234367Y0103794D01*
X0229513Y0098940D01*
X0224643Y0097006D02*
X0224643Y0101196D01*
X0224328Y0103755D02*
X0219513Y0098940D01*
X0224643Y0097006D02*
X0230034Y0091615D01*
X0230034Y0083642D01*
X0229813Y0083421D01*
X0227254Y0083421D02*
X0226800Y0083876D01*
X0226800Y0089231D01*
X0224765Y0085973D02*
X0224765Y0083491D01*
X0224695Y0083421D01*
X0224765Y0085973D02*
X0223025Y0087713D01*
X0223040Y0092565D01*
X0224328Y0103755D02*
X0224328Y0111637D01*
X0221804Y0114160D01*
X0217371Y0114160D01*
X0210418Y0121113D01*
X0210418Y0126577D01*
X0212387Y0126577D02*
X0212387Y0121318D01*
X0218024Y0115680D01*
X0222772Y0115680D01*
X0229513Y0108940D01*
X0231150Y0113766D02*
X0227357Y0113766D01*
X0223881Y0117275D01*
X0218764Y0117275D01*
X0214355Y0121652D01*
X0214355Y0126577D01*
X0200576Y0126577D02*
X0200576Y0118877D01*
X0205768Y0113684D01*
X0208524Y0113684D01*
X0209272Y0112936D01*
X0209272Y0109180D01*
X0209513Y0108940D01*
X0204505Y0112247D02*
X0204505Y0103932D01*
X0199513Y0098940D01*
X0194670Y0104097D02*
X0189513Y0098940D01*
X0184375Y0103802D02*
X0184375Y0114947D01*
X0190675Y0121247D01*
X0190675Y0124007D01*
X0190733Y0124066D01*
X0190733Y0126577D01*
X0188765Y0126577D02*
X0188765Y0124290D01*
X0188766Y0124288D01*
X0188766Y0123518D01*
X0188769Y0123515D01*
X0188769Y0122427D01*
X0185974Y0119633D01*
X0180662Y0119633D01*
X0179536Y0118507D01*
X0179536Y0108963D01*
X0179513Y0108940D01*
X0184375Y0103802D02*
X0179513Y0098940D01*
X0174406Y0103833D02*
X0169513Y0098940D01*
X0168469Y0097896D01*
X0168469Y0024602D01*
X0174406Y0103833D02*
X0174406Y0119885D01*
X0175784Y0121262D01*
X0184856Y0121262D01*
X0186818Y0123224D01*
X0186818Y0123930D01*
X0186796Y0123951D01*
X0186796Y0126577D01*
X0184828Y0126577D02*
X0184828Y0123861D01*
X0183918Y0122951D01*
X0172713Y0122951D01*
X0169457Y0119696D01*
X0169457Y0108995D01*
X0169513Y0108940D01*
X0189457Y0108995D02*
X0189513Y0108940D01*
X0192702Y0112129D01*
X0192702Y0126577D01*
X0194670Y0126577D02*
X0194670Y0104097D01*
X0199513Y0108940D02*
X0196639Y0111814D01*
X0196639Y0126577D01*
X0198607Y0126577D02*
X0198607Y0118144D01*
X0204505Y0112247D01*
X0231150Y0113766D02*
X0234367Y0110550D01*
X0174001Y0135436D02*
X0173800Y0135235D01*
X0170999Y0135235D01*
X0167569Y0131805D01*
X0167569Y0128861D01*
X0161705Y0130373D02*
X0161705Y0135018D01*
X0165199Y0137963D01*
X0165199Y0143054D01*
X0167424Y0145278D01*
X0174001Y0145278D01*
X0174001Y0143310D02*
X0170708Y0143310D01*
X0167898Y0141858D01*
X0170405Y0140858D02*
X0171050Y0141341D01*
X0174001Y0141341D01*
X0170405Y0140858D02*
X0170405Y0138357D01*
X0168167Y0136200D01*
X0163217Y0138944D02*
X0156363Y0132089D01*
X0158524Y0127192D02*
X0151261Y0127192D01*
X0146363Y0132089D01*
X0151697Y0139235D02*
X0148051Y0142161D01*
X0146363Y0142089D01*
X0151697Y0139235D02*
X0154375Y0137105D01*
X0158505Y0137105D01*
X0161450Y0140050D01*
X0161509Y0140050D01*
X0161572Y0140113D01*
X0161572Y0144432D01*
X0166355Y0149215D01*
X0174001Y0149215D01*
X0174001Y0147247D02*
X0166733Y0147247D01*
X0163217Y0143731D01*
X0163217Y0138944D01*
X0156363Y0142089D02*
X0165457Y0151184D01*
X0174001Y0151184D01*
X0174001Y0153152D02*
X0163591Y0153152D01*
X0161883Y0151444D01*
X0161883Y0150255D01*
X0158879Y0147251D01*
X0154245Y0147251D01*
X0149489Y0152007D01*
X0146446Y0152007D01*
X0146363Y0152089D01*
X0151363Y0157089D02*
X0146363Y0162089D01*
X0151363Y0157089D02*
X0174001Y0157089D01*
X0174001Y0155121D02*
X0159394Y0155121D01*
X0156363Y0152089D01*
X0156457Y0161995D02*
X0156363Y0162089D01*
X0156457Y0161995D02*
X0166296Y0161995D01*
X0169233Y0159058D01*
X0174001Y0159058D01*
X0174001Y0161026D02*
X0169469Y0161026D01*
X0163859Y0166637D01*
X0155166Y0166637D01*
X0149950Y0171853D01*
X0146599Y0171853D01*
X0146363Y0172089D01*
X0148017Y0180436D02*
X0146363Y0182089D01*
X0148017Y0180436D02*
X0150993Y0180436D01*
X0154560Y0176869D01*
X0164328Y0176869D01*
X0165299Y0175897D01*
X0165140Y0169848D01*
X0170025Y0164963D01*
X0174001Y0164963D01*
X0174001Y0162995D02*
X0169804Y0162995D01*
X0163599Y0169200D01*
X0163599Y0170983D01*
X0162729Y0171853D01*
X0156599Y0171853D01*
X0156363Y0172089D01*
X0167017Y0171935D02*
X0169641Y0169310D01*
X0169641Y0168144D01*
X0170854Y0166932D01*
X0174001Y0166932D01*
X0174001Y0170869D02*
X0170639Y0170869D01*
X0168608Y0172762D01*
X0168608Y0185534D01*
X0167580Y0186700D01*
X0154875Y0186700D01*
X0149426Y0192148D01*
X0146422Y0192148D01*
X0146363Y0192089D01*
X0156363Y0192089D02*
X0156367Y0192085D01*
X0168457Y0192085D01*
X0170209Y0190333D01*
X0170209Y0173613D01*
X0170985Y0172837D01*
X0174001Y0172837D01*
X0167017Y0171935D02*
X0167017Y0181440D01*
X0166265Y0182192D01*
X0156465Y0182192D01*
X0156363Y0182089D01*
X0161705Y0130373D02*
X0158524Y0127192D01*
D40*
X0146363Y0122089D02*
X0144241Y0119967D01*
X0129438Y0119967D01*
X0132229Y0125014D02*
X0135480Y0121763D01*
X0146036Y0121763D01*
X0146363Y0122089D01*
X0140202Y0126997D02*
X0141154Y0136881D01*
X0146363Y0142089D01*
X0143044Y0146424D02*
X0152028Y0146424D01*
X0156363Y0142089D01*
X0143044Y0146424D02*
X0136115Y0139495D01*
X0136115Y0133573D01*
X0132229Y0125014D02*
X0132229Y0143094D01*
X0116863Y0158459D01*
X0098457Y0158459D01*
X0094845Y0162071D01*
X0094845Y0177639D01*
X0095147Y0177336D01*
X0105994Y0177336D01*
X0106257Y0188299D02*
X0097026Y0188299D01*
X0094845Y0186118D01*
X0094845Y0177639D01*
X0106257Y0188299D02*
X0118027Y0188299D01*
X0129223Y0199495D01*
X0129223Y0204126D01*
X0129971Y0203378D01*
X0138078Y0203378D01*
X0143451Y0198005D01*
X0151535Y0198005D01*
X0155824Y0202295D01*
X0155824Y0202427D01*
X0155824Y0209120D02*
X0151233Y0209120D01*
X0147133Y0213221D01*
X0138078Y0213221D02*
X0136242Y0215057D01*
X0136242Y0245602D01*
X0140907Y0250267D01*
X0143933Y0250267D01*
X0143933Y0248299D02*
X0143933Y0245830D01*
X0144111Y0244651D01*
X0143646Y0238825D02*
X0143684Y0238823D01*
X0143721Y0238818D01*
X0143757Y0238808D01*
X0143793Y0238796D01*
X0143827Y0238780D01*
X0143859Y0238760D01*
X0143890Y0238738D01*
X0143918Y0238713D01*
X0143943Y0238685D01*
X0143965Y0238654D01*
X0143985Y0238622D01*
X0144001Y0238588D01*
X0144013Y0238552D01*
X0144023Y0238516D01*
X0144028Y0238479D01*
X0144030Y0238441D01*
X0151590Y0241783D02*
X0151590Y0244578D01*
X0151590Y0241783D02*
X0152723Y0240034D01*
X0157496Y0244578D02*
X0161213Y0240861D01*
X0163124Y0245400D02*
X0161216Y0248299D01*
X0163124Y0245400D02*
X0167941Y0245420D01*
X0173796Y0244882D02*
X0173796Y0247209D01*
X0174137Y0247550D01*
X0184765Y0247550D01*
X0204972Y0227343D01*
X0204972Y0219659D01*
X0205257Y0219659D01*
X0214972Y0219659D02*
X0214972Y0218673D01*
X0214972Y0219659D02*
X0218911Y0223598D01*
X0218911Y0241518D01*
X0217146Y0243282D01*
X0214588Y0243282D01*
X0214588Y0246432D02*
X0212709Y0246432D01*
X0209273Y0246432D02*
X0192904Y0246432D01*
X0192870Y0246466D01*
X0200047Y0240861D02*
X0202469Y0243282D01*
X0209273Y0243282D01*
X0183245Y0244882D02*
X0183244Y0229667D01*
X0183870Y0228648D01*
X0184972Y0219659D02*
X0184972Y0216965D01*
X0189657Y0212280D01*
X0189657Y0205734D01*
X0184884Y0200961D01*
X0184884Y0187657D01*
X0184828Y0187601D01*
X0182859Y0187601D02*
X0182859Y0182974D01*
X0184724Y0181109D01*
X0180810Y0183033D02*
X0180891Y0187601D01*
X0180810Y0183033D02*
X0180810Y0176160D01*
X0183484Y0173485D01*
X0187473Y0173485D01*
X0187641Y0173653D01*
X0178105Y0179772D02*
X0178105Y0181638D01*
X0178203Y0181736D01*
X0178203Y0203635D01*
X0180167Y0205599D01*
X0180167Y0214732D01*
X0175240Y0219659D01*
X0174972Y0219659D01*
X0180095Y0218346D02*
X0180095Y0244882D01*
X0180543Y0244434D01*
X0176945Y0244882D02*
X0176701Y0244637D01*
X0176701Y0235104D01*
X0176945Y0250196D02*
X0176940Y0250202D01*
X0176940Y0253201D01*
X0175936Y0254204D01*
X0180437Y0253164D02*
X0180437Y0250538D01*
X0180095Y0250196D01*
X0183245Y0250196D02*
X0183460Y0250412D01*
X0183460Y0255350D01*
X0165994Y0252040D02*
X0165432Y0252236D01*
X0161216Y0252236D01*
X0152574Y0253220D02*
X0161299Y0261944D01*
X0163709Y0261944D01*
X0163709Y0261813D01*
X0155527Y0263254D02*
X0155530Y0263465D01*
X0155537Y0263676D01*
X0155550Y0263886D01*
X0155568Y0264096D01*
X0155591Y0264306D01*
X0155619Y0264515D01*
X0155652Y0264724D01*
X0155690Y0264931D01*
X0155733Y0265138D01*
X0155781Y0265343D01*
X0155834Y0265547D01*
X0155891Y0265750D01*
X0155954Y0265951D01*
X0156022Y0266151D01*
X0156094Y0266349D01*
X0156171Y0266546D01*
X0156253Y0266740D01*
X0156340Y0266932D01*
X0156431Y0267123D01*
X0156527Y0267311D01*
X0156627Y0267496D01*
X0156732Y0267679D01*
X0156841Y0267860D01*
X0156954Y0268038D01*
X0157072Y0268213D01*
X0157194Y0268385D01*
X0157320Y0268554D01*
X0157450Y0268720D01*
X0157584Y0268883D01*
X0157722Y0269042D01*
X0157864Y0269199D01*
X0158010Y0269351D01*
X0158159Y0269500D01*
X0158311Y0269646D01*
X0158468Y0269788D01*
X0158627Y0269926D01*
X0158790Y0270060D01*
X0158956Y0270190D01*
X0159125Y0270316D01*
X0159297Y0270438D01*
X0159472Y0270556D01*
X0159650Y0270669D01*
X0159831Y0270778D01*
X0160014Y0270883D01*
X0160199Y0270983D01*
X0160387Y0271079D01*
X0160578Y0271170D01*
X0160770Y0271257D01*
X0160964Y0271339D01*
X0161161Y0271416D01*
X0161359Y0271488D01*
X0161559Y0271556D01*
X0161760Y0271619D01*
X0161963Y0271676D01*
X0162167Y0271729D01*
X0162372Y0271777D01*
X0162579Y0271820D01*
X0162786Y0271858D01*
X0162995Y0271891D01*
X0163204Y0271919D01*
X0163414Y0271942D01*
X0163624Y0271960D01*
X0163834Y0271973D01*
X0164045Y0271980D01*
X0164256Y0271983D01*
X0165731Y0271983D01*
X0159443Y0275812D02*
X0159443Y0308317D01*
X0167685Y0316558D01*
X0168981Y0316558D01*
X0158981Y0316558D02*
X0157403Y0316558D01*
X0149622Y0308778D01*
X0149622Y0261862D01*
X0151446Y0261717D02*
X0151590Y0261862D01*
X0151590Y0271551D01*
X0155774Y0276871D01*
X0155891Y0289576D01*
X0155897Y0289526D01*
X0163981Y0306559D02*
X0164239Y0306556D01*
X0164497Y0306547D01*
X0164755Y0306531D01*
X0165012Y0306509D01*
X0165269Y0306481D01*
X0165525Y0306447D01*
X0165780Y0306406D01*
X0166034Y0306360D01*
X0166287Y0306307D01*
X0166538Y0306248D01*
X0166788Y0306184D01*
X0167037Y0306113D01*
X0167283Y0306036D01*
X0167528Y0305953D01*
X0167770Y0305865D01*
X0168011Y0305770D01*
X0168249Y0305670D01*
X0168484Y0305564D01*
X0168717Y0305452D01*
X0168947Y0305335D01*
X0169174Y0305212D01*
X0169398Y0305084D01*
X0169619Y0304950D01*
X0169837Y0304812D01*
X0170051Y0304667D01*
X0170262Y0304518D01*
X0170469Y0304364D01*
X0170672Y0304205D01*
X0170872Y0304040D01*
X0171067Y0303872D01*
X0171258Y0303698D01*
X0171445Y0303520D01*
X0171628Y0303337D01*
X0171806Y0303150D01*
X0171980Y0302959D01*
X0172148Y0302764D01*
X0172313Y0302564D01*
X0172472Y0302361D01*
X0172626Y0302154D01*
X0172775Y0301943D01*
X0172920Y0301729D01*
X0173058Y0301511D01*
X0173192Y0301290D01*
X0173320Y0301066D01*
X0173443Y0300839D01*
X0173560Y0300609D01*
X0173672Y0300376D01*
X0173778Y0300141D01*
X0173878Y0299903D01*
X0173973Y0299662D01*
X0174061Y0299420D01*
X0174144Y0299175D01*
X0174221Y0298929D01*
X0174292Y0298680D01*
X0174356Y0298430D01*
X0174415Y0298179D01*
X0174468Y0297926D01*
X0174514Y0297672D01*
X0174555Y0297417D01*
X0174589Y0297161D01*
X0174617Y0296904D01*
X0174639Y0296647D01*
X0174655Y0296389D01*
X0174664Y0296131D01*
X0174667Y0295873D01*
X0174667Y0280919D01*
X0174664Y0280703D01*
X0174657Y0280487D01*
X0174644Y0280272D01*
X0174625Y0280057D01*
X0174602Y0279842D01*
X0174573Y0279628D01*
X0174539Y0279415D01*
X0174501Y0279202D01*
X0174456Y0278991D01*
X0174407Y0278780D01*
X0174353Y0278571D01*
X0174294Y0278364D01*
X0174230Y0278158D01*
X0174160Y0277953D01*
X0174086Y0277750D01*
X0174007Y0277549D01*
X0173923Y0277350D01*
X0173835Y0277153D01*
X0173741Y0276959D01*
X0173643Y0276766D01*
X0173541Y0276576D01*
X0173434Y0276389D01*
X0173322Y0276204D01*
X0173206Y0276022D01*
X0173085Y0275843D01*
X0172960Y0275667D01*
X0172831Y0275493D01*
X0172698Y0275323D01*
X0172561Y0275157D01*
X0172420Y0274993D01*
X0172275Y0274833D01*
X0172126Y0274677D01*
X0171973Y0274524D01*
X0171817Y0274375D01*
X0171657Y0274230D01*
X0171493Y0274089D01*
X0171327Y0273952D01*
X0171157Y0273819D01*
X0170983Y0273690D01*
X0170807Y0273565D01*
X0170628Y0273444D01*
X0170446Y0273328D01*
X0170261Y0273216D01*
X0170074Y0273109D01*
X0169884Y0273007D01*
X0169691Y0272909D01*
X0169497Y0272815D01*
X0169300Y0272727D01*
X0169101Y0272643D01*
X0168900Y0272564D01*
X0168697Y0272490D01*
X0168492Y0272420D01*
X0168286Y0272356D01*
X0168079Y0272297D01*
X0167870Y0272243D01*
X0167659Y0272194D01*
X0167448Y0272149D01*
X0167235Y0272111D01*
X0167022Y0272077D01*
X0166808Y0272048D01*
X0166593Y0272025D01*
X0166378Y0272006D01*
X0166163Y0271993D01*
X0165947Y0271986D01*
X0165731Y0271983D01*
X0159443Y0275812D02*
X0159345Y0275714D01*
X0153550Y0270313D01*
X0153550Y0261862D01*
X0153559Y0261862D01*
X0155527Y0261862D02*
X0155527Y0263254D01*
X0157496Y0264054D02*
X0160152Y0266711D01*
X0157496Y0264054D02*
X0157496Y0261862D01*
X0147653Y0261862D02*
X0147653Y0265795D01*
X0145455Y0267994D01*
X0142921Y0261573D02*
X0142948Y0258910D01*
X0143933Y0258141D01*
X0139016Y0258141D01*
X0137165Y0259992D01*
X0134610Y0256173D02*
X0131647Y0259136D01*
X0131647Y0300324D01*
X0126417Y0305554D01*
X0126417Y0314894D01*
X0166381Y0354858D01*
X0126581Y0354858D02*
X0113479Y0341756D01*
X0113479Y0315099D01*
X0128946Y0299632D01*
X0128757Y0259612D01*
X0134343Y0254026D01*
X0143933Y0254204D01*
X0143933Y0256173D02*
X0134610Y0256173D01*
X0123476Y0255116D02*
X0123399Y0255193D01*
X0118220Y0255056D01*
X0111527Y0255056D02*
X0111499Y0255137D01*
X0104204Y0255137D01*
X0104277Y0247433D02*
X0111532Y0247433D01*
X0111534Y0247019D01*
X0118227Y0247019D02*
X0123401Y0246936D01*
X0123445Y0247475D01*
X0123888Y0239542D02*
X0118393Y0239542D01*
X0118143Y0238965D01*
X0111450Y0238965D02*
X0111441Y0239785D01*
X0104103Y0239785D01*
X0104274Y0263005D02*
X0111463Y0263005D01*
X0111496Y0263148D01*
X0118188Y0263148D02*
X0122894Y0263010D01*
X0122928Y0262977D01*
X0137165Y0266685D02*
X0137165Y0273862D01*
X0137203Y0273900D01*
X0163667Y0306244D02*
X0163981Y0306558D01*
X0155303Y0229364D02*
X0155388Y0229278D01*
X0155388Y0226851D01*
X0157982Y0224256D01*
X0163219Y0224256D01*
X0155664Y0228296D02*
X0155303Y0229364D01*
X0152153Y0229364D02*
X0152153Y0225238D01*
X0154894Y0222497D01*
X0129223Y0206084D02*
X0129223Y0204126D01*
X0129223Y0206084D02*
X0126193Y0209114D01*
X0121486Y0209114D01*
X0121217Y0209382D01*
X0121217Y0203193D02*
X0121217Y0202689D01*
X0121188Y0202660D01*
X0121188Y0196722D01*
X0121217Y0203193D02*
X0106257Y0203193D01*
X0106257Y0166252D02*
X0121532Y0166252D01*
X0121532Y0165380D01*
X0121833Y0165080D01*
X0121833Y0158669D01*
X0174001Y0178743D02*
X0174245Y0178749D01*
X0177319Y0178749D01*
X0178105Y0179772D01*
X0174001Y0180711D02*
X0173685Y0181027D01*
X0173685Y0195386D01*
X0174001Y0178743D02*
X0174005Y0178739D01*
X0184972Y0209659D02*
X0184972Y0213469D01*
X0184970Y0213560D01*
X0184965Y0213650D01*
X0184955Y0213740D01*
X0184942Y0213830D01*
X0184925Y0213919D01*
X0184905Y0214007D01*
X0184881Y0214094D01*
X0184853Y0214181D01*
X0184822Y0214266D01*
X0184787Y0214350D01*
X0184749Y0214432D01*
X0184708Y0214512D01*
X0184663Y0214591D01*
X0184615Y0214668D01*
X0184564Y0214743D01*
X0184510Y0214815D01*
X0184453Y0214886D01*
X0184393Y0214954D01*
X0184330Y0215019D01*
X0184265Y0215082D01*
X0184197Y0215142D01*
X0184126Y0215199D01*
X0184054Y0215253D01*
X0183979Y0215304D01*
X0183902Y0215352D01*
X0183823Y0215397D01*
X0183743Y0215438D01*
X0183661Y0215476D01*
X0183577Y0215511D01*
X0183492Y0215542D01*
X0183405Y0215570D01*
X0183318Y0215594D01*
X0183230Y0215614D01*
X0183141Y0215631D01*
X0183051Y0215644D01*
X0182961Y0215654D01*
X0182871Y0215659D01*
X0182780Y0215661D01*
X0182677Y0215663D01*
X0182574Y0215669D01*
X0182472Y0215679D01*
X0182370Y0215692D01*
X0182269Y0215710D01*
X0182168Y0215732D01*
X0182069Y0215757D01*
X0181970Y0215786D01*
X0181872Y0215819D01*
X0181776Y0215856D01*
X0181682Y0215896D01*
X0181589Y0215940D01*
X0181497Y0215987D01*
X0181408Y0216038D01*
X0181321Y0216092D01*
X0181235Y0216150D01*
X0181152Y0216211D01*
X0181072Y0216275D01*
X0180994Y0216342D01*
X0180918Y0216411D01*
X0180845Y0216484D01*
X0180776Y0216560D01*
X0180709Y0216638D01*
X0180645Y0216718D01*
X0180584Y0216801D01*
X0180526Y0216887D01*
X0180472Y0216974D01*
X0180421Y0217063D01*
X0180374Y0217155D01*
X0180330Y0217248D01*
X0180290Y0217342D01*
X0180253Y0217438D01*
X0180220Y0217536D01*
X0180191Y0217635D01*
X0180166Y0217734D01*
X0180144Y0217835D01*
X0180126Y0217936D01*
X0180113Y0218038D01*
X0180103Y0218140D01*
X0180097Y0218243D01*
X0180095Y0218346D01*
X0194972Y0219659D02*
X0194972Y0216268D01*
X0199728Y0211512D01*
X0199728Y0208893D01*
X0214375Y0194246D01*
X0214375Y0187621D01*
X0214355Y0187601D01*
X0212387Y0187601D02*
X0212330Y0187658D01*
X0212330Y0193346D01*
X0196016Y0209659D01*
X0194972Y0209659D01*
X0204972Y0209659D02*
X0216324Y0198308D01*
X0216324Y0187601D01*
X0222229Y0187601D02*
X0222377Y0187749D01*
X0224198Y0187601D02*
X0224198Y0181726D01*
X0223986Y0181631D01*
X0224344Y0177568D02*
X0224198Y0176635D01*
X0224198Y0175442D01*
X0224834Y0174806D01*
X0222863Y0174806D01*
X0222863Y0174191D01*
X0222913Y0174191D01*
X0222913Y0174644D01*
X0221956Y0174644D01*
X0221478Y0175123D01*
X0221956Y0174644D02*
X0222827Y0172837D01*
X0222827Y0171428D01*
X0222910Y0171512D01*
X0223712Y0167899D02*
X0223655Y0167842D01*
X0228621Y0171668D02*
X0228645Y0172105D01*
X0228650Y0176373D01*
X0228881Y0176202D01*
X0229046Y0176252D01*
X0224344Y0177568D01*
X0224198Y0176635D02*
X0224198Y0187601D01*
X0226166Y0187601D02*
X0226118Y0195842D01*
X0226152Y0198593D01*
X0234972Y0209659D02*
X0234972Y0219659D01*
X0214972Y0209659D02*
X0214878Y0209753D01*
X0229046Y0176252D02*
X0231250Y0174806D01*
X0235024Y0174806D01*
X0235024Y0172837D01*
X0235092Y0163063D02*
X0238418Y0163063D01*
X0238513Y0163157D01*
X0238490Y0162995D02*
X0235024Y0162995D01*
X0235092Y0163063D01*
X0235024Y0159058D02*
X0229340Y0159058D01*
X0229327Y0159044D01*
X0231476Y0151184D02*
X0230056Y0149765D01*
X0229881Y0133820D01*
X0236085Y0127616D01*
X0228146Y0120791D02*
X0226297Y0122640D01*
X0226297Y0122720D01*
X0226166Y0122851D01*
X0226166Y0126577D01*
X0225150Y0120805D02*
X0221110Y0120805D01*
X0220261Y0121655D01*
X0220261Y0126577D01*
X0216324Y0126577D02*
X0216300Y0126577D01*
X0216300Y0131891D01*
X0208450Y0126577D02*
X0208450Y0120003D01*
X0219513Y0108940D01*
X0219513Y0106006D01*
X0214615Y0101109D01*
X0214615Y0039942D01*
X0218765Y0035792D01*
X0218765Y0024699D01*
X0218862Y0024602D01*
X0222012Y0024602D02*
X0222012Y0052597D01*
X0221035Y0053574D01*
X0224344Y0056883D01*
X0224344Y0073424D01*
X0224695Y0073776D01*
X0227254Y0073776D02*
X0227452Y0073578D01*
X0227452Y0063792D01*
X0227728Y0063516D01*
X0227728Y0053574D01*
X0225161Y0051008D01*
X0225161Y0024602D01*
X0231461Y0024602D02*
X0231588Y0024730D01*
X0231588Y0042614D01*
X0247297Y0058323D01*
X0247297Y0080896D01*
X0229513Y0098681D01*
X0229513Y0098940D01*
X0224643Y0101196D02*
X0229513Y0106066D01*
X0229513Y0108940D01*
X0228193Y0117761D02*
X0237047Y0117761D01*
X0243743Y0111066D01*
X0243743Y0103170D01*
X0239513Y0098940D01*
X0239513Y0094550D01*
X0242768Y0091295D01*
X0275185Y0091295D01*
X0290743Y0075736D01*
X0290743Y0025162D01*
X0291303Y0024602D01*
X0249101Y0057148D02*
X0234753Y0042800D01*
X0234753Y0024745D01*
X0234610Y0024602D01*
X0209513Y0024701D02*
X0209413Y0024602D01*
X0209513Y0024701D02*
X0209513Y0098940D01*
X0213585Y0103012D01*
X0213585Y0111287D01*
X0206481Y0118390D01*
X0206481Y0126577D01*
X0209513Y0108940D02*
X0209513Y0106068D01*
X0204499Y0101054D01*
X0204499Y0042869D01*
X0206139Y0041229D01*
X0206139Y0024727D01*
X0206264Y0024602D01*
X0190516Y0024602D02*
X0190403Y0024715D01*
X0190403Y0049592D01*
X0199513Y0058702D01*
X0199513Y0098940D01*
X0194697Y0101465D02*
X0199513Y0106281D01*
X0199513Y0108940D01*
X0194697Y0101465D02*
X0194697Y0057221D01*
X0187529Y0050053D01*
X0187529Y0024765D01*
X0187366Y0024602D01*
X0148231Y0034560D02*
X0147934Y0034560D01*
X0147290Y0033916D01*
X0147290Y0024093D01*
X0124567Y0024573D01*
X0123506Y0024380D01*
X0123506Y0033916D01*
X0123131Y0034291D01*
X0123131Y0048914D01*
X0148231Y0048727D01*
X0148231Y0034560D01*
X0147797Y0034423D02*
X0123131Y0034423D01*
X0123131Y0035422D02*
X0148231Y0035422D01*
X0148231Y0036420D02*
X0123131Y0036420D01*
X0123131Y0037419D02*
X0148231Y0037419D01*
X0148231Y0038417D02*
X0123131Y0038417D01*
X0123131Y0039416D02*
X0148231Y0039416D01*
X0148231Y0040414D02*
X0123131Y0040414D01*
X0123131Y0041413D02*
X0148231Y0041413D01*
X0148231Y0042411D02*
X0123131Y0042411D01*
X0123131Y0043410D02*
X0148231Y0043410D01*
X0148231Y0044408D02*
X0123131Y0044408D01*
X0123131Y0045407D02*
X0148231Y0045407D01*
X0148231Y0046405D02*
X0123131Y0046405D01*
X0123131Y0047404D02*
X0148231Y0047404D01*
X0148231Y0048403D02*
X0123131Y0048403D01*
X0109401Y0048403D02*
X0092226Y0048403D01*
X0092253Y0049401D02*
X0109398Y0049401D01*
X0109395Y0050400D02*
X0092280Y0050400D01*
X0092307Y0051398D02*
X0109392Y0051398D01*
X0109389Y0052397D02*
X0092334Y0052397D01*
X0092361Y0053395D02*
X0109386Y0053395D01*
X0109383Y0054394D02*
X0092388Y0054394D01*
X0092415Y0055392D02*
X0109381Y0055392D01*
X0109378Y0056391D02*
X0092442Y0056391D01*
X0092469Y0057389D02*
X0109375Y0057389D01*
X0109372Y0058388D02*
X0092496Y0058388D01*
X0092523Y0059386D02*
X0109369Y0059386D01*
X0109366Y0060385D02*
X0092550Y0060385D01*
X0092577Y0061383D02*
X0109363Y0061383D01*
X0109360Y0062382D02*
X0092604Y0062382D01*
X0092631Y0063380D02*
X0109357Y0063380D01*
X0109354Y0064379D02*
X0092657Y0064379D01*
X0092684Y0065377D02*
X0109352Y0065377D01*
X0109351Y0065592D02*
X0109473Y0023676D01*
X0099480Y0023367D01*
X0099347Y0023592D01*
X0099246Y0026205D01*
X0091978Y0026612D01*
X0091978Y0037778D01*
X0091941Y0037816D01*
X0092685Y0065403D01*
X0109351Y0065592D01*
X0109404Y0047404D02*
X0092199Y0047404D01*
X0092172Y0046405D02*
X0109407Y0046405D01*
X0109410Y0045407D02*
X0092145Y0045407D01*
X0092118Y0044408D02*
X0109412Y0044408D01*
X0109415Y0043410D02*
X0092092Y0043410D01*
X0092065Y0042411D02*
X0109418Y0042411D01*
X0109421Y0041413D02*
X0092038Y0041413D01*
X0092011Y0040414D02*
X0109424Y0040414D01*
X0109427Y0039416D02*
X0091984Y0039416D01*
X0091957Y0038417D02*
X0109430Y0038417D01*
X0109433Y0037419D02*
X0091978Y0037419D01*
X0091978Y0036420D02*
X0109436Y0036420D01*
X0109439Y0035422D02*
X0091978Y0035422D01*
X0091978Y0034423D02*
X0109441Y0034423D01*
X0109444Y0033425D02*
X0091978Y0033425D01*
X0091978Y0032426D02*
X0109447Y0032426D01*
X0109450Y0031428D02*
X0091978Y0031428D01*
X0091978Y0030429D02*
X0109453Y0030429D01*
X0109456Y0029431D02*
X0091978Y0029431D01*
X0091978Y0028432D02*
X0109459Y0028432D01*
X0109462Y0027434D02*
X0091978Y0027434D01*
X0095132Y0026435D02*
X0109465Y0026435D01*
X0109468Y0025437D02*
X0099276Y0025437D01*
X0099314Y0024438D02*
X0109470Y0024438D01*
X0101848Y0023440D02*
X0099437Y0023440D01*
X0123506Y0024438D02*
X0123828Y0024438D01*
X0123506Y0025437D02*
X0147290Y0025437D01*
X0147290Y0026435D02*
X0123506Y0026435D01*
X0123506Y0027434D02*
X0147290Y0027434D01*
X0147290Y0028432D02*
X0123506Y0028432D01*
X0123506Y0029431D02*
X0147290Y0029431D01*
X0147290Y0030429D02*
X0123506Y0030429D01*
X0123506Y0031428D02*
X0147290Y0031428D01*
X0147290Y0032426D02*
X0123506Y0032426D01*
X0123506Y0033425D02*
X0147290Y0033425D01*
X0147290Y0024438D02*
X0130936Y0024438D01*
X0130764Y0024540D02*
X0130764Y0024693D01*
X0133732Y0024693D01*
X0133732Y0024511D01*
X0133354Y0024511D01*
X0131446Y0024511D01*
X0130764Y0024540D01*
X0130583Y0024548D02*
X0127614Y0024673D01*
X0127614Y0024693D01*
X0127992Y0024693D01*
X0130583Y0024693D01*
X0130583Y0024548D01*
X0130544Y0024438D02*
X0127643Y0024438D01*
X0126952Y0025129D01*
X0126952Y0024576D01*
X0127297Y0024231D01*
X0127266Y0024586D02*
X0127566Y0024586D01*
X0127632Y0024653D01*
X0127333Y0024653D01*
X0127166Y0024819D01*
X0127282Y0024602D02*
X0127266Y0024586D01*
X0128782Y0024602D02*
X0128810Y0024630D01*
X0130544Y0024438D02*
X0131442Y0025336D01*
X0133446Y0024369D02*
X0133577Y0024369D01*
X0133761Y0024553D01*
X0133914Y0024511D02*
X0133914Y0024693D01*
X0134291Y0024693D01*
X0136882Y0024693D01*
X0136882Y0024670D01*
X0136723Y0024511D01*
X0133914Y0024511D01*
X0133998Y0024162D02*
X0133653Y0024162D01*
X0133446Y0024369D01*
X0133998Y0024162D02*
X0134439Y0024602D01*
X0148461Y0078015D02*
X0148461Y0082815D01*
X0150016Y0084369D01*
X0124799Y0088251D02*
X0124341Y0087793D01*
X0099381Y0099560D02*
X0099367Y0099574D01*
X0173912Y0131244D02*
X0173912Y0133467D01*
X0174001Y0133467D01*
X0174001Y0137404D02*
X0178782Y0137404D01*
X0179945Y0137195D01*
X0219513Y0098940D02*
X0219513Y0086045D01*
X0222136Y0083421D01*
X0229721Y0083513D02*
X0229813Y0083421D01*
X0230081Y0074044D02*
X0229813Y0073776D01*
X0230081Y0074044D02*
X0235098Y0073982D01*
X0249101Y0081773D02*
X0249101Y0057148D01*
X0249101Y0081773D02*
X0234537Y0096337D01*
X0234537Y0101149D01*
X0239513Y0106125D01*
X0239513Y0108940D01*
X0228193Y0117761D02*
X0225150Y0120805D01*
X0235024Y0143310D02*
X0243883Y0143310D01*
X0252662Y0152089D01*
X0262662Y0162089D02*
X0268300Y0162089D01*
X0272753Y0157637D01*
X0286209Y0157707D01*
X0287555Y0159053D01*
X0287555Y0162419D01*
X0287279Y0162695D01*
X0279846Y0181886D02*
X0279572Y0182160D01*
X0262662Y0182089D01*
X0235024Y0151184D02*
X0231476Y0151184D01*
D41*
X0252662Y0152089D02*
X0252662Y0162089D01*
X0252662Y0163499D01*
X0256103Y0166940D01*
X0266532Y0166940D01*
X0271532Y0171940D01*
X0279812Y0172010D01*
X0279846Y0172044D01*
X0287279Y0162695D02*
X0287361Y0162613D01*
X0290437Y0162613D01*
X0293720Y0165896D01*
X0293720Y0179207D01*
X0291041Y0181886D01*
X0288901Y0181886D01*
D42*
X0075606Y0041147D02*
X0075608Y0039396D01*
X0090083Y0039396D01*
X0090785Y0065417D01*
X0090776Y0066168D01*
X0090806Y0066198D01*
X0090807Y0066241D01*
X0091352Y0066757D01*
X0091877Y0067294D01*
X0091919Y0067294D01*
X0091950Y0067323D01*
X0092700Y0067303D01*
X0097460Y0067357D01*
X0097460Y0093436D01*
X0095258Y0093436D01*
X0094438Y0094256D01*
X0094438Y0104865D01*
X0095258Y0105685D01*
X0103504Y0105685D01*
X0104324Y0104865D01*
X0104324Y0094256D01*
X0103504Y0093436D01*
X0103460Y0093436D01*
X0103460Y0067425D01*
X0108552Y0067484D01*
X0108558Y0067490D01*
X0109336Y0067492D01*
X0110116Y0067501D01*
X0110123Y0067495D01*
X0110132Y0067495D01*
X0110684Y0066946D01*
X0111242Y0066401D01*
X0111242Y0066392D01*
X0111249Y0066385D01*
X0111251Y0065607D01*
X0111260Y0064827D01*
X0111253Y0064820D01*
X0111340Y0034860D01*
X0122047Y0034860D01*
X0122088Y0034901D01*
X0122498Y0035138D01*
X0122956Y0035260D01*
X0124374Y0035260D01*
X0124374Y0024602D01*
X0124374Y0024602D01*
X0124374Y0035260D01*
X0125792Y0035260D01*
X0125949Y0035218D01*
X0126106Y0035260D01*
X0127524Y0035260D01*
X0127524Y0024602D01*
X0127692Y0024602D01*
X0130673Y0024602D01*
X0127524Y0024602D01*
X0127524Y0024602D01*
X0127524Y0024602D01*
X0127524Y0035260D01*
X0128942Y0035260D01*
X0129098Y0035218D01*
X0129255Y0035260D01*
X0130673Y0035260D01*
X0130673Y0024602D01*
X0130673Y0024602D01*
X0130673Y0024602D01*
X0130673Y0035260D01*
X0132091Y0035260D01*
X0132248Y0035218D01*
X0132405Y0035260D01*
X0133823Y0035260D01*
X0133823Y0024602D01*
X0133991Y0024602D01*
X0136972Y0024602D01*
X0133823Y0024602D01*
X0133823Y0024602D01*
X0133823Y0024602D01*
X0133823Y0035260D01*
X0135241Y0035260D01*
X0135398Y0035218D01*
X0135554Y0035260D01*
X0136972Y0035260D01*
X0136972Y0024602D01*
X0136972Y0024602D01*
X0136973Y0024602D01*
X0140122Y0024602D01*
X0139954Y0024602D01*
X0136973Y0024602D01*
X0136973Y0024602D01*
X0136973Y0035260D01*
X0138391Y0035260D01*
X0138547Y0035218D01*
X0138704Y0035260D01*
X0140122Y0035260D01*
X0140122Y0024602D01*
X0140122Y0024602D01*
X0140122Y0024602D01*
X0140122Y0035260D01*
X0141540Y0035260D01*
X0141697Y0035218D01*
X0141854Y0035260D01*
X0143272Y0035260D01*
X0143272Y0024602D01*
X0146421Y0024602D01*
X0146253Y0024602D01*
X0143272Y0024602D01*
X0143272Y0024602D01*
X0143272Y0024602D01*
X0143272Y0035260D01*
X0144690Y0035260D01*
X0144847Y0035218D01*
X0145003Y0035260D01*
X0146421Y0035260D01*
X0146421Y0024602D01*
X0146421Y0024602D01*
X0146421Y0024602D01*
X0146421Y0035260D01*
X0147839Y0035260D01*
X0148297Y0035138D01*
X0148708Y0034901D01*
X0148748Y0034860D01*
X0166669Y0034860D01*
X0166669Y0095844D01*
X0165313Y0097200D01*
X0165313Y0099028D01*
X0155067Y0088783D01*
X0154422Y0088138D01*
X0156525Y0088138D01*
X0156525Y0084554D01*
X0156893Y0084554D01*
X0156893Y0088138D01*
X0159111Y0088138D01*
X0159569Y0088015D01*
X0159980Y0087778D01*
X0160315Y0087443D01*
X0160552Y0087033D01*
X0160674Y0086575D01*
X0160674Y0084554D01*
X0156893Y0084554D01*
X0156893Y0084185D01*
X0156893Y0080601D01*
X0159111Y0080601D01*
X0159569Y0080724D01*
X0159980Y0080961D01*
X0160315Y0081296D01*
X0160552Y0081706D01*
X0160674Y0082164D01*
X0160674Y0084185D01*
X0156893Y0084185D01*
X0156525Y0084185D01*
X0156525Y0080601D01*
X0154307Y0080601D01*
X0153849Y0080724D01*
X0153438Y0080961D01*
X0153103Y0081296D01*
X0153086Y0081326D01*
X0152761Y0081001D01*
X0150361Y0081001D01*
X0150361Y0080640D01*
X0151174Y0079827D01*
X0151661Y0078651D01*
X0151661Y0077378D01*
X0151174Y0076202D01*
X0150274Y0075302D01*
X0149098Y0074815D01*
X0147825Y0074815D01*
X0146649Y0075302D01*
X0145749Y0076202D01*
X0145261Y0077378D01*
X0145261Y0078651D01*
X0145749Y0079827D01*
X0146561Y0080640D01*
X0146561Y0081710D01*
X0146451Y0081821D01*
X0146451Y0086918D01*
X0147271Y0087738D01*
X0147396Y0087738D01*
X0147396Y0089260D01*
X0147246Y0089410D01*
X0146267Y0089410D01*
X0145447Y0090231D01*
X0145447Y0091210D01*
X0145258Y0091399D01*
X0145258Y0094707D01*
X0129349Y0094707D01*
X0129349Y0094364D01*
X0128529Y0093544D01*
X0121070Y0093544D01*
X0120269Y0094345D01*
X0120269Y0094256D01*
X0119449Y0093436D01*
X0117926Y0093436D01*
X0117926Y0091161D01*
X0118580Y0091161D01*
X0118840Y0090902D01*
X0120250Y0090902D01*
X0120250Y0091193D01*
X0121070Y0092014D01*
X0128529Y0092014D01*
X0129349Y0091193D01*
X0129349Y0085309D01*
X0128529Y0084489D01*
X0121070Y0084489D01*
X0120250Y0085309D01*
X0120250Y0085702D01*
X0119400Y0085702D01*
X0119400Y0085244D01*
X0118580Y0084424D01*
X0113090Y0084424D01*
X0112765Y0084749D01*
X0112748Y0084719D01*
X0112413Y0084384D01*
X0112002Y0084147D01*
X0111544Y0084024D01*
X0109326Y0084024D01*
X0109326Y0087609D01*
X0108958Y0087609D01*
X0105177Y0087609D01*
X0105177Y0085587D01*
X0105299Y0085130D01*
X0105536Y0084719D01*
X0105871Y0084384D01*
X0106282Y0084147D01*
X0106740Y0084024D01*
X0108958Y0084024D01*
X0108958Y0087609D01*
X0108958Y0087977D01*
X0108958Y0091561D01*
X0106740Y0091561D01*
X0106282Y0091439D01*
X0105871Y0091202D01*
X0105536Y0090867D01*
X0105299Y0090456D01*
X0105177Y0089998D01*
X0105177Y0087977D01*
X0108958Y0087977D01*
X0109326Y0087977D01*
X0109326Y0091561D01*
X0111544Y0091561D01*
X0112002Y0091439D01*
X0112413Y0091202D01*
X0112726Y0090888D01*
X0112726Y0093436D01*
X0111203Y0093436D01*
X0110382Y0094256D01*
X0110382Y0104865D01*
X0111203Y0105685D01*
X0111789Y0105685D01*
X0109449Y0108026D01*
X0109239Y0108531D01*
X0108703Y0109067D01*
X0108703Y0113727D01*
X0109523Y0114547D01*
X0113783Y0114547D01*
X0114603Y0113727D01*
X0114603Y0110225D01*
X0117430Y0107398D01*
X0118162Y0106666D01*
X0118557Y0105711D01*
X0118557Y0105685D01*
X0119449Y0105685D01*
X0119850Y0105284D01*
X0119850Y0105980D01*
X0124418Y0105980D01*
X0125180Y0105980D01*
X0125180Y0102199D01*
X0128186Y0102199D01*
X0128644Y0102322D01*
X0129054Y0102559D01*
X0129389Y0102894D01*
X0129626Y0103305D01*
X0129749Y0103762D01*
X0129749Y0105980D01*
X0125181Y0105980D01*
X0125181Y0106743D01*
X0129749Y0106743D01*
X0129749Y0108961D01*
X0129626Y0109419D01*
X0129389Y0109829D01*
X0129054Y0110164D01*
X0128644Y0110401D01*
X0128186Y0110524D01*
X0125180Y0110524D01*
X0125180Y0106743D01*
X0124418Y0106743D01*
X0124418Y0110524D01*
X0121413Y0110524D01*
X0120955Y0110401D01*
X0120545Y0110164D01*
X0120209Y0109829D01*
X0119972Y0109419D01*
X0119850Y0108961D01*
X0119850Y0106743D01*
X0124418Y0106743D01*
X0124418Y0105980D01*
X0124418Y0102199D01*
X0121413Y0102199D01*
X0120955Y0102322D01*
X0120545Y0102559D01*
X0120269Y0102835D01*
X0120269Y0100268D01*
X0121070Y0101069D01*
X0128529Y0101069D01*
X0129349Y0100249D01*
X0129349Y0099906D01*
X0145203Y0099906D01*
X0144915Y0114380D01*
X0141228Y0118067D01*
X0132063Y0118067D01*
X0131250Y0117254D01*
X0130074Y0116767D01*
X0128801Y0116767D01*
X0127625Y0117254D01*
X0126725Y0118155D01*
X0126238Y0119331D01*
X0126238Y0120604D01*
X0126725Y0121780D01*
X0127625Y0122680D01*
X0128801Y0123167D01*
X0130074Y0123167D01*
X0131250Y0122680D01*
X0132063Y0121867D01*
X0132688Y0121867D01*
X0131442Y0123114D01*
X0131442Y0123114D01*
X0130329Y0124227D01*
X0130329Y0142307D01*
X0116076Y0156559D01*
X0097670Y0156559D01*
X0096557Y0157672D01*
X0092945Y0161284D01*
X0092945Y0186905D01*
X0094058Y0188018D01*
X0096239Y0190199D01*
X0098557Y0190199D01*
X0098557Y0192422D01*
X0099378Y0193242D01*
X0113136Y0193242D01*
X0113956Y0192422D01*
X0113956Y0190199D01*
X0117240Y0190199D01*
X0121063Y0194022D01*
X0120651Y0194022D01*
X0119658Y0194433D01*
X0118899Y0195193D01*
X0118488Y0196185D01*
X0118488Y0197259D01*
X0118899Y0198251D01*
X0119288Y0198640D01*
X0119288Y0199124D01*
X0118669Y0199124D01*
X0117849Y0199944D01*
X0117849Y0201293D01*
X0113956Y0201293D01*
X0113956Y0199069D01*
X0113136Y0198249D01*
X0099378Y0198249D01*
X0098557Y0199069D01*
X0098557Y0207316D01*
X0099378Y0208136D01*
X0113136Y0208136D01*
X0113956Y0207316D01*
X0113956Y0205093D01*
X0117849Y0205093D01*
X0117849Y0205435D01*
X0118450Y0206036D01*
X0117849Y0206637D01*
X0117849Y0212128D01*
X0118669Y0212948D01*
X0123766Y0212948D01*
X0124586Y0212128D01*
X0124586Y0211014D01*
X0126980Y0211014D01*
X0128093Y0209901D01*
X0131123Y0206870D01*
X0131123Y0205278D01*
X0133725Y0205278D01*
X0133725Y0207108D01*
X0134545Y0207928D01*
X0141610Y0207928D01*
X0142430Y0207108D01*
X0142430Y0201713D01*
X0142780Y0201363D01*
X0142780Y0207108D01*
X0143600Y0207928D01*
X0150665Y0207928D01*
X0151485Y0207108D01*
X0151485Y0200643D01*
X0152456Y0201613D01*
X0152456Y0205173D01*
X0152780Y0205497D01*
X0152751Y0205515D01*
X0152415Y0205850D01*
X0152178Y0206260D01*
X0152056Y0206718D01*
X0152056Y0208936D01*
X0155640Y0208936D01*
X0155640Y0209305D01*
X0155640Y0213086D01*
X0153619Y0213086D01*
X0153161Y0212963D01*
X0152751Y0212726D01*
X0152415Y0212391D01*
X0152178Y0211980D01*
X0152056Y0211523D01*
X0152056Y0209305D01*
X0155640Y0209305D01*
X0156009Y0209305D01*
X0156009Y0213086D01*
X0158030Y0213086D01*
X0158488Y0212963D01*
X0158898Y0212726D01*
X0159233Y0212391D01*
X0159470Y0211980D01*
X0159593Y0211523D01*
X0159593Y0209305D01*
X0156009Y0209305D01*
X0156009Y0208936D01*
X0159593Y0208936D01*
X0159593Y0206718D01*
X0159470Y0206260D01*
X0159233Y0205850D01*
X0158898Y0205515D01*
X0158868Y0205497D01*
X0159193Y0205173D01*
X0159193Y0199682D01*
X0158373Y0198862D01*
X0155079Y0198862D01*
X0153435Y0197218D01*
X0152322Y0196105D01*
X0148287Y0196105D01*
X0150563Y0193829D01*
X0150563Y0193557D01*
X0151226Y0192894D01*
X0152163Y0191957D01*
X0152163Y0193829D01*
X0154623Y0196289D01*
X0158103Y0196289D01*
X0160507Y0193885D01*
X0169203Y0193885D01*
X0170257Y0192831D01*
X0171785Y0191303D01*
X0171785Y0192761D01*
X0170972Y0193573D01*
X0170485Y0194750D01*
X0170485Y0196023D01*
X0170972Y0197199D01*
X0171872Y0198099D01*
X0173048Y0198586D01*
X0174321Y0198586D01*
X0175498Y0198099D01*
X0176303Y0197294D01*
X0176303Y0204422D01*
X0178267Y0206386D01*
X0178267Y0207015D01*
X0176712Y0205459D01*
X0173232Y0205459D01*
X0170772Y0207920D01*
X0170772Y0211399D01*
X0173232Y0213859D01*
X0176712Y0213859D01*
X0178267Y0212304D01*
X0178267Y0213945D01*
X0176732Y0215480D01*
X0176712Y0215459D01*
X0173232Y0215459D01*
X0170772Y0217920D01*
X0170772Y0221399D01*
X0173232Y0223859D01*
X0176712Y0223859D01*
X0178195Y0222376D01*
X0178195Y0232259D01*
X0177337Y0231904D01*
X0176064Y0231904D01*
X0174888Y0232391D01*
X0173988Y0233291D01*
X0173501Y0234467D01*
X0173501Y0235740D01*
X0173988Y0236916D01*
X0174801Y0237729D01*
X0174801Y0242202D01*
X0172232Y0242202D01*
X0171411Y0243022D01*
X0171411Y0246741D01*
X0171499Y0246828D01*
X0171482Y0246828D01*
X0171478Y0246832D01*
X0170818Y0246835D01*
X0171141Y0246057D01*
X0171141Y0244784D01*
X0170654Y0243608D01*
X0169753Y0242707D01*
X0169585Y0242638D01*
X0169772Y0242451D01*
X0170259Y0241275D01*
X0170259Y0240002D01*
X0169772Y0238826D01*
X0168872Y0237925D01*
X0167696Y0237438D01*
X0166423Y0237438D01*
X0165247Y0237925D01*
X0164346Y0238826D01*
X0164249Y0239061D01*
X0162100Y0239061D01*
X0162000Y0238961D01*
X0160426Y0238961D01*
X0158639Y0240748D01*
X0158639Y0237358D01*
X0160016Y0237358D01*
X0160836Y0236538D01*
X0160836Y0232819D01*
X0160038Y0232021D01*
X0160836Y0231223D01*
X0160836Y0227504D01*
X0160016Y0226684D01*
X0158242Y0226684D01*
X0158769Y0226156D01*
X0160594Y0226156D01*
X0161407Y0226969D01*
X0162583Y0227456D01*
X0163856Y0227456D01*
X0165032Y0226969D01*
X0165932Y0226069D01*
X0166419Y0224893D01*
X0166419Y0223620D01*
X0165932Y0222444D01*
X0165032Y0221543D01*
X0163856Y0221056D01*
X0162583Y0221056D01*
X0161407Y0221543D01*
X0160594Y0222356D01*
X0158094Y0222356D01*
X0158094Y0221860D01*
X0157607Y0220684D01*
X0156707Y0219784D01*
X0155531Y0219297D01*
X0154258Y0219297D01*
X0153081Y0219784D01*
X0152181Y0220684D01*
X0152033Y0221043D01*
X0151177Y0220187D01*
X0149935Y0219672D01*
X0148589Y0219672D01*
X0147347Y0220187D01*
X0146396Y0221138D01*
X0145881Y0222381D01*
X0145881Y0223726D01*
X0146396Y0224969D01*
X0147203Y0225776D01*
X0147203Y0226920D01*
X0146619Y0227504D01*
X0146619Y0231223D01*
X0147417Y0232021D01*
X0146619Y0232819D01*
X0146619Y0235847D01*
X0145772Y0236694D01*
X0145772Y0241876D01*
X0144748Y0241451D01*
X0143475Y0241451D01*
X0142299Y0241939D01*
X0141398Y0242839D01*
X0140911Y0244015D01*
X0140911Y0245288D01*
X0141398Y0246464D01*
X0141638Y0246704D01*
X0141174Y0247168D01*
X0141174Y0247848D01*
X0138142Y0244815D01*
X0138142Y0217770D01*
X0141610Y0217770D01*
X0142430Y0216950D01*
X0142430Y0216795D01*
X0142503Y0217065D01*
X0142740Y0217476D01*
X0143075Y0217811D01*
X0143485Y0218048D01*
X0143943Y0218170D01*
X0146456Y0218170D01*
X0146456Y0213897D01*
X0147809Y0213897D01*
X0151885Y0213897D01*
X0151885Y0216607D01*
X0151763Y0217065D01*
X0151526Y0217476D01*
X0151191Y0217811D01*
X0150780Y0218048D01*
X0150322Y0218170D01*
X0147809Y0218170D01*
X0147809Y0213897D01*
X0147809Y0212544D01*
X0147809Y0208271D01*
X0150322Y0208271D01*
X0150780Y0208394D01*
X0151191Y0208631D01*
X0151526Y0208966D01*
X0151763Y0209376D01*
X0151885Y0209834D01*
X0151885Y0212544D01*
X0147809Y0212544D01*
X0146456Y0212544D01*
X0146456Y0208271D01*
X0143943Y0208271D01*
X0143485Y0208394D01*
X0143075Y0208631D01*
X0142740Y0208966D01*
X0142503Y0209376D01*
X0142430Y0209646D01*
X0142430Y0209491D01*
X0141610Y0208671D01*
X0134545Y0208671D01*
X0133725Y0209491D01*
X0133725Y0216950D01*
X0134342Y0217567D01*
X0134342Y0246389D01*
X0135455Y0247502D01*
X0140120Y0252167D01*
X0141174Y0252167D01*
X0141174Y0252253D01*
X0135144Y0252141D01*
X0135130Y0252126D01*
X0134360Y0252126D01*
X0133591Y0252112D01*
X0133576Y0252126D01*
X0133556Y0252126D01*
X0133012Y0252670D01*
X0132457Y0253204D01*
X0132457Y0253225D01*
X0127966Y0257716D01*
X0127961Y0257716D01*
X0127409Y0258272D01*
X0126857Y0258825D01*
X0126857Y0258830D01*
X0126853Y0258834D01*
X0126857Y0259617D01*
X0126857Y0260399D01*
X0126860Y0260403D01*
X0127043Y0298849D01*
X0112692Y0313199D01*
X0111579Y0314312D01*
X0111579Y0342543D01*
X0122427Y0353391D01*
X0122181Y0353983D01*
X0122181Y0355734D01*
X0122851Y0357351D01*
X0124089Y0358588D01*
X0125706Y0359258D01*
X0127457Y0359258D01*
X0129074Y0358588D01*
X0130312Y0357351D01*
X0130981Y0355734D01*
X0130981Y0353983D01*
X0130312Y0352366D01*
X0129074Y0351128D01*
X0127457Y0350458D01*
X0125706Y0350458D01*
X0125114Y0350704D01*
X0115379Y0340969D01*
X0115379Y0333627D01*
X0115565Y0333870D01*
X0116170Y0334475D01*
X0116849Y0334995D01*
X0117589Y0335423D01*
X0118379Y0335750D01*
X0119206Y0335972D01*
X0119706Y0336038D01*
X0119706Y0330333D01*
X0121256Y0330333D01*
X0121256Y0336038D01*
X0121757Y0335972D01*
X0122583Y0335750D01*
X0122658Y0335719D01*
X0121691Y0336687D01*
X0120381Y0339848D01*
X0120381Y0343269D01*
X0121691Y0346430D01*
X0124110Y0348849D01*
X0127271Y0350158D01*
X0130692Y0350158D01*
X0133853Y0348849D01*
X0136272Y0346430D01*
X0137581Y0343269D01*
X0137581Y0339848D01*
X0136272Y0336687D01*
X0133853Y0334268D01*
X0130692Y0332958D01*
X0127271Y0332958D01*
X0125550Y0333671D01*
X0125918Y0333191D01*
X0126346Y0332450D01*
X0126673Y0331660D01*
X0126895Y0330834D01*
X0126961Y0330333D01*
X0121256Y0330333D01*
X0121256Y0328783D01*
X0121256Y0323079D01*
X0121757Y0323145D01*
X0122583Y0323366D01*
X0123374Y0323694D01*
X0124114Y0324121D01*
X0124793Y0324642D01*
X0125398Y0325247D01*
X0125918Y0325925D01*
X0126346Y0326666D01*
X0126673Y0327456D01*
X0126895Y0328283D01*
X0126961Y0328783D01*
X0121256Y0328783D01*
X0119706Y0328783D01*
X0119706Y0323079D01*
X0119206Y0323145D01*
X0118379Y0323366D01*
X0117589Y0323694D01*
X0116849Y0324121D01*
X0116170Y0324642D01*
X0115565Y0325247D01*
X0115379Y0325489D01*
X0115379Y0315886D01*
X0124517Y0306748D01*
X0124517Y0315681D01*
X0162227Y0353391D01*
X0161981Y0353983D01*
X0161981Y0355734D01*
X0162651Y0357351D01*
X0163889Y0358588D01*
X0165506Y0359258D01*
X0167257Y0359258D01*
X0168874Y0358588D01*
X0170112Y0357351D01*
X0170781Y0355734D01*
X0170781Y0353983D01*
X0170112Y0352366D01*
X0168874Y0351128D01*
X0167257Y0350458D01*
X0165506Y0350458D01*
X0164914Y0350704D01*
X0128317Y0314107D01*
X0128317Y0306341D01*
X0129725Y0304933D01*
X0129543Y0305493D01*
X0129431Y0306200D01*
X0129431Y0306483D01*
X0133906Y0306483D01*
X0133906Y0306633D01*
X0129431Y0306633D01*
X0129431Y0306916D01*
X0129543Y0307624D01*
X0129765Y0308305D01*
X0130090Y0308943D01*
X0130511Y0309522D01*
X0131017Y0310029D01*
X0131597Y0310450D01*
X0132235Y0310775D01*
X0132916Y0310996D01*
X0133623Y0311108D01*
X0133906Y0311108D01*
X0133906Y0306633D01*
X0134056Y0306633D01*
X0134056Y0311108D01*
X0134339Y0311108D01*
X0135047Y0310996D01*
X0135728Y0310775D01*
X0136366Y0310450D01*
X0136946Y0310029D01*
X0137452Y0309522D01*
X0137873Y0308943D01*
X0138198Y0308305D01*
X0138419Y0307624D01*
X0138531Y0306916D01*
X0138531Y0306633D01*
X0134056Y0306633D01*
X0134056Y0306483D01*
X0134056Y0302008D01*
X0134339Y0302008D01*
X0135047Y0302120D01*
X0135728Y0302342D01*
X0136366Y0302667D01*
X0136946Y0303088D01*
X0137452Y0303594D01*
X0137873Y0304174D01*
X0138198Y0304812D01*
X0138419Y0305493D01*
X0138531Y0306200D01*
X0138531Y0306483D01*
X0134056Y0306483D01*
X0133906Y0306483D01*
X0133906Y0302008D01*
X0133623Y0302008D01*
X0132916Y0302120D01*
X0132356Y0302302D01*
X0133547Y0301111D01*
X0133547Y0259923D01*
X0133797Y0259673D01*
X0133797Y0262737D01*
X0134398Y0263338D01*
X0133797Y0263940D01*
X0133797Y0269430D01*
X0134617Y0270250D01*
X0135265Y0270250D01*
X0135265Y0271056D01*
X0134337Y0271985D01*
X0133822Y0273227D01*
X0133822Y0274572D01*
X0134337Y0275815D01*
X0135288Y0276766D01*
X0136531Y0277281D01*
X0137876Y0277281D01*
X0139118Y0276766D01*
X0140069Y0275815D01*
X0140584Y0274572D01*
X0140584Y0273227D01*
X0140069Y0271985D01*
X0139118Y0271033D01*
X0139065Y0271011D01*
X0139065Y0270250D01*
X0139714Y0270250D01*
X0140534Y0269430D01*
X0140534Y0263940D01*
X0139933Y0263338D01*
X0140114Y0263157D01*
X0140208Y0263386D01*
X0141108Y0264286D01*
X0142284Y0264773D01*
X0142562Y0264773D01*
X0141889Y0265445D01*
X0141889Y0270542D01*
X0142464Y0271116D01*
X0142184Y0271278D01*
X0141849Y0271613D01*
X0141612Y0272023D01*
X0141489Y0272481D01*
X0141489Y0274502D01*
X0145270Y0274502D01*
X0145270Y0274871D01*
X0141489Y0274871D01*
X0141489Y0276892D01*
X0141612Y0277350D01*
X0141849Y0277760D01*
X0142184Y0278096D01*
X0142594Y0278332D01*
X0143052Y0278455D01*
X0145270Y0278455D01*
X0145270Y0274871D01*
X0145639Y0274871D01*
X0145639Y0278455D01*
X0147722Y0278455D01*
X0147722Y0304744D01*
X0147500Y0304208D01*
X0146332Y0303040D01*
X0144807Y0302408D01*
X0143156Y0302408D01*
X0141631Y0303040D01*
X0140463Y0304208D01*
X0139831Y0305733D01*
X0139831Y0307384D01*
X0140463Y0308909D01*
X0141631Y0310077D01*
X0143156Y0310708D01*
X0144807Y0310708D01*
X0146332Y0310077D01*
X0147500Y0308909D01*
X0147722Y0308373D01*
X0147722Y0309565D01*
X0151102Y0312945D01*
X0149807Y0312408D01*
X0148156Y0312408D01*
X0146631Y0313040D01*
X0145463Y0314208D01*
X0144831Y0315733D01*
X0144831Y0317384D01*
X0145463Y0318909D01*
X0146631Y0320077D01*
X0148156Y0320708D01*
X0149807Y0320708D01*
X0151332Y0320077D01*
X0152500Y0318909D01*
X0153131Y0317384D01*
X0153131Y0315733D01*
X0152595Y0314438D01*
X0154831Y0316674D01*
X0154831Y0317384D01*
X0155463Y0318909D01*
X0156631Y0320077D01*
X0158156Y0320708D01*
X0159807Y0320708D01*
X0161332Y0320077D01*
X0162500Y0318909D01*
X0163131Y0317384D01*
X0163131Y0315733D01*
X0162500Y0314208D01*
X0161332Y0313040D01*
X0159807Y0312408D01*
X0158156Y0312408D01*
X0156631Y0313040D01*
X0156601Y0313070D01*
X0154240Y0310708D01*
X0154807Y0310708D01*
X0156332Y0310077D01*
X0157500Y0308909D01*
X0157543Y0308803D01*
X0157543Y0309104D01*
X0164831Y0316392D01*
X0164831Y0317384D01*
X0165463Y0318909D01*
X0166631Y0320077D01*
X0168156Y0320708D01*
X0169807Y0320708D01*
X0171332Y0320077D01*
X0172500Y0318909D01*
X0173131Y0317384D01*
X0173131Y0315733D01*
X0172500Y0314208D01*
X0171332Y0313040D01*
X0169807Y0312408D01*
X0168156Y0312408D01*
X0166788Y0312975D01*
X0164522Y0310708D01*
X0164807Y0310708D01*
X0166332Y0310077D01*
X0167500Y0308909D01*
X0167952Y0307816D01*
X0169766Y0307226D01*
X0169766Y0307226D01*
X0172992Y0304883D01*
X0172992Y0304883D01*
X0175335Y0301658D01*
X0176567Y0297866D01*
X0176567Y0279203D01*
X0175506Y0275938D01*
X0175506Y0275938D01*
X0173489Y0273161D01*
X0173489Y0273161D01*
X0173489Y0273161D01*
X0170712Y0271143D01*
X0170712Y0271143D01*
X0167447Y0270083D01*
X0164256Y0270083D01*
X0163188Y0269999D01*
X0161725Y0269523D01*
X0161965Y0269424D01*
X0162865Y0268524D01*
X0163352Y0267347D01*
X0163352Y0266074D01*
X0162865Y0264898D01*
X0161965Y0263998D01*
X0160789Y0263511D01*
X0159639Y0263511D01*
X0159447Y0263319D01*
X0159447Y0260092D01*
X0160918Y0260092D01*
X0161119Y0260293D01*
X0162174Y0261348D01*
X0179419Y0261348D01*
X0178724Y0262042D01*
X0178237Y0263218D01*
X0178237Y0264491D01*
X0178724Y0265667D01*
X0179625Y0266567D01*
X0180801Y0267055D01*
X0182074Y0267055D01*
X0183250Y0266567D01*
X0184150Y0265667D01*
X0184637Y0264491D01*
X0184637Y0263218D01*
X0184150Y0262042D01*
X0183250Y0261142D01*
X0182074Y0260655D01*
X0180801Y0260655D01*
X0180630Y0260725D01*
X0184106Y0257250D01*
X0184247Y0257250D01*
X0185360Y0256137D01*
X0185360Y0252325D01*
X0185629Y0252056D01*
X0185629Y0249374D01*
X0189687Y0245315D01*
X0189489Y0245793D01*
X0189489Y0247138D01*
X0190004Y0248381D01*
X0190955Y0249332D01*
X0192198Y0249847D01*
X0193543Y0249847D01*
X0194786Y0249332D01*
X0195737Y0248381D01*
X0195757Y0248332D01*
X0206929Y0248332D01*
X0207414Y0248816D01*
X0211132Y0248816D01*
X0211770Y0248179D01*
X0211922Y0248332D01*
X0212244Y0248332D01*
X0212729Y0248816D01*
X0216447Y0248816D01*
X0217267Y0247996D01*
X0217267Y0245182D01*
X0217933Y0245182D01*
X0219698Y0243418D01*
X0220811Y0242305D01*
X0220811Y0222811D01*
X0219172Y0221172D01*
X0219172Y0217920D01*
X0218721Y0217469D01*
X0221868Y0214322D01*
X0221868Y0213061D01*
X0223067Y0214259D01*
X0224872Y0214259D01*
X0224872Y0209759D01*
X0225072Y0209759D01*
X0229572Y0209759D01*
X0229572Y0211565D01*
X0226878Y0214259D01*
X0225072Y0214259D01*
X0225072Y0209759D01*
X0225072Y0209559D01*
X0229572Y0209559D01*
X0229572Y0207754D01*
X0229080Y0207261D01*
X0230156Y0207261D01*
X0233534Y0203883D01*
X0233534Y0183061D01*
X0233893Y0182702D01*
X0236713Y0182702D01*
X0236713Y0192778D01*
X0236700Y0192783D01*
X0235800Y0193683D01*
X0235313Y0194859D01*
X0235313Y0196132D01*
X0235800Y0197309D01*
X0236700Y0198209D01*
X0237876Y0198696D01*
X0239149Y0198696D01*
X0240325Y0198209D01*
X0241225Y0197309D01*
X0241713Y0196132D01*
X0241713Y0194859D01*
X0241225Y0193683D01*
X0240325Y0192783D01*
X0240313Y0192778D01*
X0240313Y0188703D01*
X0245499Y0193889D01*
X0248522Y0193889D01*
X0250922Y0196289D01*
X0254402Y0196289D01*
X0256862Y0193829D01*
X0256862Y0190350D01*
X0255508Y0188996D01*
X0258301Y0188996D01*
X0259356Y0187941D01*
X0261008Y0186289D01*
X0264402Y0186289D01*
X0266685Y0184006D01*
X0275493Y0184043D01*
X0275493Y0185616D01*
X0276313Y0186436D01*
X0283378Y0186436D01*
X0284198Y0185616D01*
X0284198Y0185461D01*
X0284271Y0185731D01*
X0284508Y0186141D01*
X0284843Y0186476D01*
X0285253Y0186713D01*
X0285711Y0186836D01*
X0288224Y0186836D01*
X0288224Y0182563D01*
X0289577Y0182563D01*
X0289577Y0186836D01*
X0292090Y0186836D01*
X0292548Y0186713D01*
X0292959Y0186476D01*
X0293294Y0186141D01*
X0293531Y0185731D01*
X0293653Y0185273D01*
X0293653Y0182563D01*
X0289577Y0182563D01*
X0289577Y0181210D01*
X0293653Y0181210D01*
X0293653Y0178500D01*
X0293531Y0178042D01*
X0293294Y0177631D01*
X0292959Y0177296D01*
X0292548Y0177059D01*
X0292090Y0176937D01*
X0289577Y0176937D01*
X0289577Y0181210D01*
X0288224Y0181210D01*
X0288224Y0176937D01*
X0285711Y0176937D01*
X0285253Y0177059D01*
X0284843Y0177296D01*
X0284508Y0177631D01*
X0284271Y0178042D01*
X0284198Y0178312D01*
X0284198Y0178157D01*
X0283378Y0177337D01*
X0276313Y0177337D01*
X0275493Y0178157D01*
X0275493Y0180243D01*
X0266719Y0180206D01*
X0264402Y0177889D01*
X0260922Y0177889D01*
X0258462Y0180350D01*
X0258462Y0183744D01*
X0256810Y0185396D01*
X0255296Y0185396D01*
X0256862Y0183829D01*
X0256862Y0180350D01*
X0255522Y0179009D01*
X0258288Y0179009D01*
X0259342Y0177955D01*
X0259342Y0177955D01*
X0261008Y0176289D01*
X0264402Y0176289D01*
X0266862Y0173829D01*
X0266862Y0170350D01*
X0265452Y0168940D01*
X0265704Y0168940D01*
X0270112Y0173348D01*
X0270687Y0173933D01*
X0270697Y0173933D01*
X0270704Y0173940D01*
X0271524Y0173940D01*
X0275493Y0173973D01*
X0275493Y0175773D01*
X0276313Y0176593D01*
X0283378Y0176593D01*
X0284198Y0175773D01*
X0284198Y0168314D01*
X0283378Y0167494D01*
X0282046Y0167494D01*
X0282046Y0166063D01*
X0283331Y0166063D01*
X0283656Y0165739D01*
X0283673Y0165769D01*
X0284008Y0166104D01*
X0284419Y0166341D01*
X0284877Y0166463D01*
X0287095Y0166463D01*
X0287095Y0162879D01*
X0287463Y0162879D01*
X0287463Y0166463D01*
X0289681Y0166463D01*
X0290139Y0166341D01*
X0290550Y0166104D01*
X0290885Y0165769D01*
X0291122Y0165358D01*
X0291244Y0164900D01*
X0291244Y0162879D01*
X0287463Y0162879D01*
X0287463Y0162511D01*
X0291244Y0162511D01*
X0291244Y0160489D01*
X0291122Y0160032D01*
X0290885Y0159621D01*
X0290550Y0159286D01*
X0290139Y0159049D01*
X0289681Y0158926D01*
X0287463Y0158926D01*
X0287463Y0162511D01*
X0287095Y0162511D01*
X0287095Y0158926D01*
X0284877Y0158926D01*
X0284419Y0159049D01*
X0284008Y0159286D01*
X0283673Y0159621D01*
X0283656Y0159651D01*
X0283331Y0159326D01*
X0277841Y0159326D01*
X0277021Y0160147D01*
X0277021Y0165243D01*
X0277646Y0165868D01*
X0277646Y0167494D01*
X0276313Y0167494D01*
X0275493Y0168314D01*
X0275493Y0169973D01*
X0272368Y0169947D01*
X0267361Y0164940D01*
X0266317Y0164940D01*
X0267262Y0163995D01*
X0267262Y0162189D01*
X0262762Y0162189D01*
X0262762Y0161989D01*
X0262762Y0157489D01*
X0264568Y0157489D01*
X0267262Y0160184D01*
X0267262Y0161989D01*
X0262762Y0161989D01*
X0262562Y0161989D01*
X0262562Y0157489D01*
X0260757Y0157489D01*
X0258062Y0160184D01*
X0258062Y0161989D01*
X0262562Y0161989D01*
X0262562Y0162189D01*
X0258062Y0162189D01*
X0258062Y0163995D01*
X0259007Y0164940D01*
X0256932Y0164940D01*
X0256342Y0164350D01*
X0256862Y0163829D01*
X0256862Y0160350D01*
X0254662Y0158150D01*
X0254662Y0156029D01*
X0256862Y0153829D01*
X0256862Y0150350D01*
X0254402Y0147889D01*
X0251149Y0147889D01*
X0246399Y0143139D01*
X0248462Y0143138D01*
X0248462Y0143829D01*
X0250922Y0146289D01*
X0254402Y0146289D01*
X0256862Y0143829D01*
X0256862Y0140350D01*
X0255670Y0139157D01*
X0258140Y0139157D01*
X0261008Y0136289D01*
X0264402Y0136289D01*
X0266862Y0133829D01*
X0266862Y0130350D01*
X0264402Y0127889D01*
X0262687Y0127889D01*
X0263530Y0127047D01*
X0264287Y0126289D01*
X0264402Y0126289D01*
X0266862Y0123829D01*
X0266862Y0120350D01*
X0264402Y0117889D01*
X0260922Y0117889D01*
X0258462Y0120350D01*
X0258462Y0123829D01*
X0259883Y0125250D01*
X0255441Y0125250D01*
X0256862Y0123829D01*
X0256862Y0120350D01*
X0254402Y0117889D01*
X0250922Y0117889D01*
X0248462Y0120350D01*
X0248462Y0123829D01*
X0248811Y0124178D01*
X0248811Y0124501D01*
X0244031Y0129281D01*
X0244031Y0131667D01*
X0238157Y0131667D01*
X0237966Y0131477D01*
X0232082Y0131477D01*
X0231262Y0132297D01*
X0231262Y0149448D01*
X0231222Y0149488D01*
X0230985Y0149898D01*
X0230862Y0150356D01*
X0230862Y0150788D01*
X0230524Y0150449D01*
X0229348Y0149962D01*
X0228075Y0149962D01*
X0227958Y0150010D01*
X0228065Y0138241D01*
X0228070Y0138237D01*
X0228073Y0137331D01*
X0228080Y0136615D01*
X0228954Y0135741D01*
X0229441Y0134565D01*
X0229441Y0133291D01*
X0229429Y0133262D01*
X0229935Y0132757D01*
X0229935Y0129710D01*
X0230125Y0129520D01*
X0230125Y0123635D01*
X0229305Y0122815D01*
X0227902Y0122815D01*
X0227862Y0122775D01*
X0227451Y0122538D01*
X0226994Y0122415D01*
X0226227Y0122415D01*
X0228980Y0119661D01*
X0237834Y0119661D01*
X0244530Y0112966D01*
X0245643Y0111853D01*
X0245643Y0102383D01*
X0243713Y0100453D01*
X0243713Y0097200D01*
X0241631Y0095118D01*
X0243555Y0093194D01*
X0275972Y0093194D01*
X0291530Y0077636D01*
X0292643Y0076523D01*
X0292643Y0034860D01*
X0293064Y0034860D01*
X0293674Y0034250D01*
X0293674Y0037353D01*
X0294063Y0038291D01*
X0294780Y0039008D01*
X0295717Y0039396D01*
X0311037Y0039396D01*
X0311039Y0040950D01*
X0305461Y0040950D01*
X0303729Y0041949D01*
X0303729Y0041949D01*
X0303729Y0041949D01*
X0302730Y0043681D01*
X0302730Y0068784D01*
X0297119Y0068784D01*
X0296929Y0068706D01*
X0295914Y0068706D01*
X0294977Y0069094D01*
X0294260Y0069811D01*
X0293871Y0070748D01*
X0293871Y0094401D01*
X0294260Y0095338D01*
X0294977Y0096055D01*
X0295914Y0096443D01*
X0296929Y0096443D01*
X0297866Y0096055D01*
X0298583Y0095338D01*
X0298971Y0094401D01*
X0298971Y0073884D01*
X0305787Y0073884D01*
X0306724Y0073496D01*
X0307441Y0072779D01*
X0307830Y0071842D01*
X0307830Y0046050D01*
X0311048Y0046050D01*
X0311578Y0369487D01*
X0075221Y0368519D01*
X0075468Y0158121D01*
X0075939Y0158463D01*
X0076667Y0158834D01*
X0077445Y0159087D01*
X0078253Y0159215D01*
X0078330Y0159215D01*
X0078330Y0154351D01*
X0078994Y0154351D01*
X0083857Y0154351D01*
X0083857Y0154428D01*
X0083729Y0155236D01*
X0083477Y0156014D01*
X0083105Y0156742D01*
X0082625Y0157404D01*
X0082047Y0157982D01*
X0081385Y0158463D01*
X0080656Y0158834D01*
X0079878Y0159087D01*
X0079071Y0159215D01*
X0078994Y0159215D01*
X0078994Y0154351D01*
X0078994Y0153687D01*
X0083857Y0153687D01*
X0083857Y0153610D01*
X0083729Y0152803D01*
X0083477Y0152025D01*
X0083105Y0151296D01*
X0082625Y0150635D01*
X0082047Y0150056D01*
X0081385Y0149576D01*
X0080656Y0149204D01*
X0079878Y0148952D01*
X0079071Y0148824D01*
X0078994Y0148824D01*
X0078994Y0153687D01*
X0078330Y0153687D01*
X0078330Y0148824D01*
X0078253Y0148824D01*
X0077445Y0148952D01*
X0076667Y0149204D01*
X0075939Y0149576D01*
X0075478Y0149910D01*
X0075480Y0148546D01*
X0077985Y0148546D01*
X0077985Y0144469D01*
X0079338Y0144469D01*
X0083513Y0144469D01*
X0083513Y0146983D01*
X0083390Y0147440D01*
X0083153Y0147851D01*
X0082818Y0148186D01*
X0082408Y0148423D01*
X0081950Y0148546D01*
X0079338Y0148546D01*
X0079338Y0144469D01*
X0079338Y0143117D01*
X0083513Y0143117D01*
X0083513Y0140603D01*
X0083390Y0140145D01*
X0083223Y0139856D01*
X0083390Y0139566D01*
X0083513Y0139109D01*
X0083513Y0136595D01*
X0079338Y0136595D01*
X0079338Y0135243D01*
X0083513Y0135243D01*
X0083513Y0132729D01*
X0083390Y0132271D01*
X0083153Y0131861D01*
X0082818Y0131526D01*
X0082408Y0131289D01*
X0081950Y0131166D01*
X0079338Y0131166D01*
X0079338Y0135242D01*
X0077985Y0135242D01*
X0077985Y0131166D01*
X0075500Y0131166D01*
X0075502Y0129819D01*
X0075939Y0130136D01*
X0076667Y0130508D01*
X0077445Y0130760D01*
X0078253Y0130888D01*
X0078330Y0130888D01*
X0078330Y0126025D01*
X0078994Y0126025D01*
X0078994Y0130888D01*
X0079071Y0130888D01*
X0079878Y0130760D01*
X0080656Y0130508D01*
X0081385Y0130136D01*
X0082047Y0129656D01*
X0082625Y0129077D01*
X0083105Y0128416D01*
X0083477Y0127687D01*
X0083729Y0126909D01*
X0083857Y0126101D01*
X0083857Y0126024D01*
X0078994Y0126024D01*
X0078994Y0125361D01*
X0083857Y0125361D01*
X0083857Y0125284D01*
X0083729Y0124476D01*
X0083477Y0123698D01*
X0083105Y0122969D01*
X0082625Y0122308D01*
X0082047Y0121730D01*
X0081385Y0121249D01*
X0080656Y0120878D01*
X0079878Y0120625D01*
X0079071Y0120497D01*
X0078994Y0120497D01*
X0078994Y0125361D01*
X0078330Y0125361D01*
X0078330Y0120497D01*
X0078253Y0120497D01*
X0077445Y0120625D01*
X0076667Y0120878D01*
X0075939Y0121249D01*
X0075511Y0121559D01*
X0075600Y0046246D01*
X0078320Y0046246D01*
X0078320Y0072235D01*
X0078708Y0073172D01*
X0079426Y0073890D01*
X0080363Y0074278D01*
X0087178Y0074278D01*
X0087178Y0094401D01*
X0087567Y0095338D01*
X0088284Y0096055D01*
X0089221Y0096443D01*
X0090236Y0096443D01*
X0091173Y0096055D01*
X0091890Y0095338D01*
X0092278Y0094401D01*
X0092278Y0071221D01*
X0091890Y0070284D01*
X0091173Y0069566D01*
X0090236Y0069178D01*
X0083420Y0069178D01*
X0083420Y0043878D01*
X0082420Y0042146D01*
X0082420Y0042146D01*
X0080689Y0041147D01*
X0075606Y0041147D01*
X0075606Y0040835D02*
X0090121Y0040835D01*
X0090165Y0042434D02*
X0082586Y0042434D01*
X0082420Y0042146D02*
X0082420Y0042146D01*
X0083420Y0044032D02*
X0090208Y0044032D01*
X0090251Y0045631D02*
X0083420Y0045631D01*
X0083420Y0047229D02*
X0090294Y0047229D01*
X0090337Y0048828D02*
X0083420Y0048828D01*
X0083420Y0050426D02*
X0090380Y0050426D01*
X0090423Y0052025D02*
X0083420Y0052025D01*
X0083420Y0053623D02*
X0090467Y0053623D01*
X0090510Y0055222D02*
X0083420Y0055222D01*
X0083420Y0056820D02*
X0090553Y0056820D01*
X0090596Y0058419D02*
X0083420Y0058419D01*
X0083420Y0060017D02*
X0090639Y0060017D01*
X0090682Y0061616D02*
X0083420Y0061616D01*
X0083420Y0063214D02*
X0090725Y0063214D01*
X0090769Y0064813D02*
X0083420Y0064813D01*
X0083420Y0066411D02*
X0090987Y0066411D01*
X0091215Y0069608D02*
X0097460Y0069608D01*
X0097460Y0068010D02*
X0083420Y0068010D01*
X0078320Y0068010D02*
X0075574Y0068010D01*
X0075572Y0069608D02*
X0078320Y0069608D01*
X0078320Y0071207D02*
X0075571Y0071207D01*
X0075569Y0072805D02*
X0078556Y0072805D01*
X0075567Y0074404D02*
X0087178Y0074404D01*
X0087178Y0076003D02*
X0075565Y0076003D01*
X0075563Y0077601D02*
X0087178Y0077601D01*
X0087178Y0079200D02*
X0075561Y0079200D01*
X0075559Y0080798D02*
X0087178Y0080798D01*
X0087178Y0082397D02*
X0075557Y0082397D01*
X0075556Y0083995D02*
X0087178Y0083995D01*
X0087178Y0085594D02*
X0075554Y0085594D01*
X0075552Y0087192D02*
X0087178Y0087192D01*
X0087178Y0088791D02*
X0075550Y0088791D01*
X0075548Y0090389D02*
X0087178Y0090389D01*
X0087178Y0091988D02*
X0075546Y0091988D01*
X0075544Y0093586D02*
X0087178Y0093586D01*
X0087503Y0095185D02*
X0075542Y0095185D01*
X0075541Y0096783D02*
X0094438Y0096783D01*
X0094438Y0095185D02*
X0091954Y0095185D01*
X0092278Y0093586D02*
X0095108Y0093586D01*
X0097460Y0091988D02*
X0092278Y0091988D01*
X0092278Y0090389D02*
X0097460Y0090389D01*
X0097460Y0088791D02*
X0092278Y0088791D01*
X0092278Y0087192D02*
X0097460Y0087192D01*
X0097460Y0085594D02*
X0092278Y0085594D01*
X0092278Y0083995D02*
X0097460Y0083995D01*
X0097460Y0082397D02*
X0092278Y0082397D01*
X0092278Y0080798D02*
X0097460Y0080798D01*
X0097460Y0079200D02*
X0092278Y0079200D01*
X0092278Y0077601D02*
X0097460Y0077601D01*
X0097460Y0076003D02*
X0092278Y0076003D01*
X0092278Y0074404D02*
X0097460Y0074404D01*
X0097460Y0072805D02*
X0092278Y0072805D01*
X0092273Y0071207D02*
X0097460Y0071207D01*
X0103460Y0071207D02*
X0166669Y0071207D01*
X0166669Y0072805D02*
X0103460Y0072805D01*
X0103460Y0074404D02*
X0166669Y0074404D01*
X0166669Y0076003D02*
X0150975Y0076003D01*
X0151661Y0077601D02*
X0166669Y0077601D01*
X0166669Y0079200D02*
X0151434Y0079200D01*
X0150361Y0080798D02*
X0153720Y0080798D01*
X0156525Y0080798D02*
X0156893Y0080798D01*
X0156893Y0082397D02*
X0156525Y0082397D01*
X0156525Y0083995D02*
X0156893Y0083995D01*
X0156893Y0085594D02*
X0156525Y0085594D01*
X0156525Y0087192D02*
X0156893Y0087192D01*
X0155075Y0088791D02*
X0166669Y0088791D01*
X0166669Y0090389D02*
X0156673Y0090389D01*
X0155161Y0091988D02*
X0147780Y0091988D01*
X0147458Y0092310D02*
X0147458Y0097180D01*
X0147097Y0115309D01*
X0142138Y0120268D01*
X0142138Y0122974D01*
X0144663Y0125499D01*
X0147187Y0125499D01*
X0149622Y0123064D01*
X0149622Y0119996D01*
X0153048Y0116570D01*
X0158456Y0116570D01*
X0162154Y0120268D01*
X0162154Y0127935D01*
X0164496Y0130277D01*
X0164188Y0129534D01*
X0164188Y0128189D01*
X0164703Y0126946D01*
X0165654Y0125995D01*
X0166897Y0125480D01*
X0168242Y0125480D01*
X0169485Y0125995D01*
X0170436Y0126946D01*
X0170950Y0128189D01*
X0170950Y0129534D01*
X0170436Y0130776D01*
X0169761Y0131451D01*
X0170808Y0132498D01*
X0177070Y0132438D01*
X0179517Y0133995D01*
X0180582Y0133995D01*
X0181758Y0134482D01*
X0182658Y0135382D01*
X0183145Y0136558D01*
X0183145Y0137789D01*
X0185889Y0141087D01*
X0185877Y0176890D01*
X0225511Y0177141D01*
X0225572Y0170450D01*
X0225467Y0170555D01*
X0224291Y0171042D01*
X0223018Y0171042D01*
X0221842Y0170555D01*
X0221625Y0170338D01*
X0221624Y0172546D01*
X0218339Y0172965D01*
X0219500Y0173120D01*
X0190002Y0173294D01*
X0189812Y0137645D01*
X0180802Y0130340D01*
X0179720Y0130340D01*
X0178900Y0129520D01*
X0178900Y0128902D01*
X0177661Y0127663D01*
X0175410Y0127663D01*
X0172498Y0124751D01*
X0171968Y0124751D01*
X0168712Y0121496D01*
X0167657Y0120441D01*
X0167657Y0119910D01*
X0165940Y0118194D01*
X0165940Y0113142D01*
X0163596Y0110798D01*
X0163596Y0100423D01*
X0152867Y0089694D01*
X0150073Y0089694D01*
X0147458Y0092310D01*
X0147458Y0093586D02*
X0156759Y0093586D01*
X0158272Y0091988D02*
X0166669Y0091988D01*
X0166669Y0093586D02*
X0159870Y0093586D01*
X0158358Y0095185D02*
X0147458Y0095185D01*
X0147458Y0096783D02*
X0159956Y0096783D01*
X0161469Y0095185D02*
X0166669Y0095185D01*
X0165729Y0096783D02*
X0163068Y0096783D01*
X0161555Y0098382D02*
X0147434Y0098382D01*
X0147402Y0099980D02*
X0163153Y0099980D01*
X0163596Y0101579D02*
X0147370Y0101579D01*
X0147339Y0103177D02*
X0163596Y0103177D01*
X0163596Y0104776D02*
X0147307Y0104776D01*
X0147275Y0106374D02*
X0163596Y0106374D01*
X0163596Y0107973D02*
X0147243Y0107973D01*
X0147211Y0109571D02*
X0163596Y0109571D01*
X0163968Y0111170D02*
X0147180Y0111170D01*
X0147148Y0112768D02*
X0165567Y0112768D01*
X0165940Y0114367D02*
X0147116Y0114367D01*
X0146441Y0115965D02*
X0165940Y0115965D01*
X0165940Y0117564D02*
X0159450Y0117564D01*
X0161048Y0119162D02*
X0166909Y0119162D01*
X0167977Y0120761D02*
X0162154Y0120761D01*
X0162154Y0122359D02*
X0169576Y0122359D01*
X0171174Y0123958D02*
X0162154Y0123958D01*
X0162154Y0125556D02*
X0166713Y0125556D01*
X0168426Y0125556D02*
X0173303Y0125556D01*
X0174902Y0127155D02*
X0170522Y0127155D01*
X0170950Y0128753D02*
X0178751Y0128753D01*
X0180817Y0130352D02*
X0170611Y0130352D01*
X0170260Y0131950D02*
X0182789Y0131950D01*
X0184761Y0133549D02*
X0178816Y0133549D01*
X0182424Y0135147D02*
X0186732Y0135147D01*
X0188704Y0136746D02*
X0183145Y0136746D01*
X0183608Y0138344D02*
X0189816Y0138344D01*
X0190496Y0138344D02*
X0225864Y0138344D01*
X0225873Y0137317D02*
X0225619Y0165281D01*
X0225467Y0165129D01*
X0224291Y0164642D01*
X0223018Y0164642D01*
X0221842Y0165129D01*
X0221627Y0165345D01*
X0221633Y0143172D01*
X0190438Y0143108D01*
X0190510Y0137186D01*
X0225873Y0137317D01*
X0228078Y0136746D02*
X0231262Y0136746D01*
X0231262Y0138344D02*
X0228064Y0138344D01*
X0228049Y0139943D02*
X0231262Y0139943D01*
X0231262Y0141541D02*
X0228035Y0141541D01*
X0228020Y0143140D02*
X0231262Y0143140D01*
X0231262Y0144739D02*
X0228006Y0144739D01*
X0227991Y0146337D02*
X0231262Y0146337D01*
X0231262Y0147936D02*
X0227977Y0147936D01*
X0227962Y0149534D02*
X0231195Y0149534D01*
X0231258Y0151184D02*
X0231258Y0151184D01*
X0232060Y0151184D01*
X0232060Y0151184D01*
X0231258Y0151184D01*
X0232060Y0151184D02*
X0232060Y0151184D01*
X0225748Y0151133D02*
X0221631Y0151133D01*
X0221630Y0152731D02*
X0225733Y0152731D01*
X0225719Y0154330D02*
X0221630Y0154330D01*
X0221629Y0155928D02*
X0225704Y0155928D01*
X0225690Y0157527D02*
X0221629Y0157527D01*
X0221628Y0159125D02*
X0225675Y0159125D01*
X0225660Y0160724D02*
X0221628Y0160724D01*
X0221627Y0162322D02*
X0225646Y0162322D01*
X0225631Y0163921D02*
X0221627Y0163921D01*
X0221625Y0171913D02*
X0225559Y0171913D01*
X0225544Y0173512D02*
X0185878Y0173512D01*
X0185877Y0175110D02*
X0225530Y0175110D01*
X0225515Y0176709D02*
X0185877Y0176709D01*
X0185878Y0171913D02*
X0189994Y0171913D01*
X0189986Y0170315D02*
X0185879Y0170315D01*
X0185879Y0168716D02*
X0189977Y0168716D01*
X0189969Y0167118D02*
X0185880Y0167118D01*
X0185881Y0165519D02*
X0189961Y0165519D01*
X0189952Y0163921D02*
X0185881Y0163921D01*
X0185882Y0162322D02*
X0189944Y0162322D01*
X0189935Y0160724D02*
X0185882Y0160724D01*
X0185883Y0159125D02*
X0189927Y0159125D01*
X0189918Y0157527D02*
X0185883Y0157527D01*
X0185884Y0155928D02*
X0189910Y0155928D01*
X0189901Y0154330D02*
X0185884Y0154330D01*
X0185885Y0152731D02*
X0189893Y0152731D01*
X0189884Y0151133D02*
X0185886Y0151133D01*
X0185886Y0149534D02*
X0189876Y0149534D01*
X0189867Y0147936D02*
X0185887Y0147936D01*
X0185887Y0146337D02*
X0189859Y0146337D01*
X0189850Y0144739D02*
X0185888Y0144739D01*
X0185888Y0143140D02*
X0189842Y0143140D01*
X0189833Y0141541D02*
X0185889Y0141541D01*
X0184937Y0139943D02*
X0189825Y0139943D01*
X0190476Y0139943D02*
X0225849Y0139943D01*
X0225835Y0141541D02*
X0190457Y0141541D01*
X0205984Y0143140D02*
X0225820Y0143140D01*
X0225806Y0144739D02*
X0221632Y0144739D01*
X0221632Y0146337D02*
X0225791Y0146337D01*
X0225777Y0147936D02*
X0221632Y0147936D01*
X0221631Y0149534D02*
X0225762Y0149534D01*
X0229200Y0135147D02*
X0231262Y0135147D01*
X0231262Y0133549D02*
X0229441Y0133549D01*
X0229935Y0131950D02*
X0231609Y0131950D01*
X0229935Y0130352D02*
X0244031Y0130352D01*
X0244559Y0128753D02*
X0230125Y0128753D01*
X0230125Y0127155D02*
X0246157Y0127155D01*
X0247756Y0125556D02*
X0230125Y0125556D01*
X0230125Y0123958D02*
X0248591Y0123958D01*
X0248462Y0122359D02*
X0226283Y0122359D01*
X0226166Y0122476D02*
X0226166Y0122476D01*
X0226166Y0123613D01*
X0226166Y0123613D01*
X0226166Y0122476D01*
X0226166Y0123613D02*
X0226166Y0123613D01*
X0227881Y0120761D02*
X0248462Y0120761D01*
X0249649Y0119162D02*
X0238333Y0119162D01*
X0239932Y0117564D02*
X0311165Y0117564D01*
X0311168Y0119162D02*
X0265675Y0119162D01*
X0266862Y0120761D02*
X0311170Y0120761D01*
X0311173Y0122359D02*
X0266862Y0122359D01*
X0266733Y0123958D02*
X0311175Y0123958D01*
X0311178Y0125556D02*
X0265135Y0125556D01*
X0263422Y0127155D02*
X0311181Y0127155D01*
X0311183Y0128753D02*
X0265266Y0128753D01*
X0266862Y0130352D02*
X0311186Y0130352D01*
X0311189Y0131950D02*
X0266862Y0131950D01*
X0266862Y0133549D02*
X0311191Y0133549D01*
X0311194Y0135147D02*
X0265544Y0135147D01*
X0264568Y0137489D02*
X0267262Y0140184D01*
X0267262Y0141989D01*
X0262762Y0141989D01*
X0262762Y0137489D01*
X0264568Y0137489D01*
X0265423Y0138344D02*
X0311199Y0138344D01*
X0311196Y0136746D02*
X0260551Y0136746D01*
X0260757Y0137489D02*
X0258062Y0140184D01*
X0258062Y0141989D01*
X0262562Y0141989D01*
X0262762Y0141989D01*
X0262762Y0142189D01*
X0267262Y0142189D01*
X0267262Y0143995D01*
X0264568Y0146689D01*
X0262762Y0146689D01*
X0262762Y0142189D01*
X0262562Y0142189D01*
X0262562Y0141989D01*
X0262562Y0137489D01*
X0260757Y0137489D01*
X0259902Y0138344D02*
X0258953Y0138344D01*
X0258303Y0139943D02*
X0256456Y0139943D01*
X0256862Y0141541D02*
X0258062Y0141541D01*
X0258062Y0142189D02*
X0262562Y0142189D01*
X0262562Y0146689D01*
X0260757Y0146689D01*
X0258062Y0143995D01*
X0258062Y0142189D01*
X0258062Y0143140D02*
X0256862Y0143140D01*
X0255953Y0144739D02*
X0258806Y0144739D01*
X0260405Y0146337D02*
X0249597Y0146337D01*
X0249372Y0144739D02*
X0247998Y0144739D01*
X0248462Y0143140D02*
X0246400Y0143140D01*
X0254448Y0147936D02*
X0260311Y0147936D01*
X0260757Y0147489D02*
X0258062Y0150184D01*
X0258062Y0151989D01*
X0262562Y0151989D01*
X0262762Y0151989D01*
X0262762Y0147489D01*
X0264568Y0147489D01*
X0267262Y0150184D01*
X0267262Y0151989D01*
X0262762Y0151989D01*
X0262762Y0152189D01*
X0267262Y0152189D01*
X0267262Y0153995D01*
X0264568Y0156689D01*
X0262762Y0156689D01*
X0262762Y0152189D01*
X0262562Y0152189D01*
X0262562Y0151989D01*
X0262562Y0147489D01*
X0260757Y0147489D01*
X0262562Y0147936D02*
X0262762Y0147936D01*
X0262762Y0149534D02*
X0262562Y0149534D01*
X0262562Y0151133D02*
X0262762Y0151133D01*
X0262562Y0152189D02*
X0258062Y0152189D01*
X0258062Y0153995D01*
X0260757Y0156689D01*
X0262562Y0156689D01*
X0262562Y0152189D01*
X0262562Y0152731D02*
X0262762Y0152731D01*
X0262762Y0154330D02*
X0262562Y0154330D01*
X0262562Y0155928D02*
X0262762Y0155928D01*
X0262762Y0157527D02*
X0262562Y0157527D01*
X0262562Y0159125D02*
X0262762Y0159125D01*
X0262762Y0160724D02*
X0262562Y0160724D01*
X0260719Y0157527D02*
X0254662Y0157527D01*
X0254763Y0155928D02*
X0259996Y0155928D01*
X0258397Y0154330D02*
X0256362Y0154330D01*
X0256862Y0152731D02*
X0258062Y0152731D01*
X0258062Y0151133D02*
X0256862Y0151133D01*
X0256047Y0149534D02*
X0258712Y0149534D01*
X0262562Y0146337D02*
X0262762Y0146337D01*
X0262762Y0144739D02*
X0262562Y0144739D01*
X0262562Y0143140D02*
X0262762Y0143140D01*
X0262762Y0141541D02*
X0262562Y0141541D01*
X0262562Y0139943D02*
X0262762Y0139943D01*
X0262762Y0138344D02*
X0262562Y0138344D01*
X0267021Y0139943D02*
X0311202Y0139943D01*
X0311204Y0141541D02*
X0267262Y0141541D01*
X0267262Y0143140D02*
X0311207Y0143140D01*
X0311210Y0144739D02*
X0266518Y0144739D01*
X0264920Y0146337D02*
X0311212Y0146337D01*
X0311215Y0147936D02*
X0265014Y0147936D01*
X0266612Y0149534D02*
X0311217Y0149534D01*
X0311220Y0151133D02*
X0267262Y0151133D01*
X0267262Y0152731D02*
X0311223Y0152731D01*
X0311225Y0154330D02*
X0266927Y0154330D01*
X0265329Y0155928D02*
X0311228Y0155928D01*
X0311230Y0157527D02*
X0264605Y0157527D01*
X0266203Y0159125D02*
X0284287Y0159125D01*
X0287095Y0159125D02*
X0287463Y0159125D01*
X0287463Y0160724D02*
X0287095Y0160724D01*
X0287095Y0162322D02*
X0287463Y0162322D01*
X0287463Y0163921D02*
X0287095Y0163921D01*
X0287095Y0165519D02*
X0287463Y0165519D01*
X0285368Y0167494D02*
X0292433Y0167494D01*
X0293253Y0168314D01*
X0293253Y0175773D01*
X0292433Y0176593D01*
X0285368Y0176593D01*
X0284548Y0175773D01*
X0284548Y0168314D01*
X0285368Y0167494D01*
X0284548Y0168716D02*
X0284198Y0168716D01*
X0284198Y0170315D02*
X0284548Y0170315D01*
X0284548Y0171913D02*
X0284198Y0171913D01*
X0284198Y0173512D02*
X0284548Y0173512D01*
X0284548Y0175110D02*
X0284198Y0175110D01*
X0284198Y0178307D02*
X0284200Y0178307D01*
X0288224Y0178307D02*
X0289577Y0178307D01*
X0289577Y0179906D02*
X0288224Y0179906D01*
X0289577Y0181504D02*
X0311270Y0181504D01*
X0311267Y0179906D02*
X0293653Y0179906D01*
X0293602Y0178307D02*
X0311264Y0178307D01*
X0311262Y0176709D02*
X0260588Y0176709D01*
X0260505Y0178307D02*
X0258990Y0178307D01*
X0258906Y0179906D02*
X0256418Y0179906D01*
X0256862Y0181504D02*
X0258462Y0181504D01*
X0258462Y0183103D02*
X0256862Y0183103D01*
X0257505Y0184701D02*
X0255990Y0184701D01*
X0259399Y0187898D02*
X0260348Y0187898D01*
X0260757Y0187489D02*
X0258062Y0190184D01*
X0258062Y0191989D01*
X0262562Y0191989D01*
X0262762Y0191989D01*
X0262762Y0187489D01*
X0264568Y0187489D01*
X0267262Y0190184D01*
X0267262Y0191989D01*
X0262762Y0191989D01*
X0262762Y0192189D01*
X0267262Y0192189D01*
X0267262Y0193995D01*
X0264568Y0196689D01*
X0262762Y0196689D01*
X0262762Y0192189D01*
X0262562Y0192189D01*
X0262562Y0191989D01*
X0262562Y0187489D01*
X0260757Y0187489D01*
X0260997Y0186300D02*
X0276177Y0186300D01*
X0275493Y0184701D02*
X0265990Y0184701D01*
X0264977Y0187898D02*
X0311280Y0187898D01*
X0311278Y0186300D02*
X0293135Y0186300D01*
X0293653Y0184701D02*
X0311275Y0184701D01*
X0311272Y0183103D02*
X0293653Y0183103D01*
X0289577Y0183103D02*
X0288224Y0183103D01*
X0288224Y0184701D02*
X0289577Y0184701D01*
X0289577Y0186300D02*
X0288224Y0186300D01*
X0284666Y0186300D02*
X0283514Y0186300D01*
X0275493Y0179906D02*
X0266418Y0179906D01*
X0264820Y0178307D02*
X0275493Y0178307D01*
X0275493Y0175110D02*
X0265581Y0175110D01*
X0266862Y0173512D02*
X0270273Y0173512D01*
X0268677Y0171913D02*
X0266862Y0171913D01*
X0266827Y0170315D02*
X0267079Y0170315D01*
X0269539Y0167118D02*
X0277646Y0167118D01*
X0277297Y0165519D02*
X0267940Y0165519D01*
X0267262Y0163921D02*
X0277021Y0163921D01*
X0277021Y0162322D02*
X0267262Y0162322D01*
X0267262Y0160724D02*
X0277021Y0160724D01*
X0279846Y0163435D02*
X0280586Y0162695D01*
X0279846Y0163435D02*
X0279846Y0172044D01*
X0282046Y0167118D02*
X0311246Y0167118D01*
X0311249Y0168716D02*
X0293253Y0168716D01*
X0293253Y0170315D02*
X0311251Y0170315D01*
X0311254Y0171913D02*
X0293253Y0171913D01*
X0293253Y0173512D02*
X0311257Y0173512D01*
X0311259Y0175110D02*
X0293253Y0175110D01*
X0291029Y0165519D02*
X0311244Y0165519D01*
X0311241Y0163921D02*
X0291244Y0163921D01*
X0291244Y0162322D02*
X0311238Y0162322D01*
X0311236Y0160724D02*
X0291244Y0160724D01*
X0290271Y0159125D02*
X0311233Y0159125D01*
X0311283Y0189497D02*
X0266575Y0189497D01*
X0267262Y0191095D02*
X0311285Y0191095D01*
X0311288Y0192694D02*
X0267262Y0192694D01*
X0266964Y0194292D02*
X0311291Y0194292D01*
X0311293Y0195891D02*
X0265366Y0195891D01*
X0262762Y0195891D02*
X0262562Y0195891D01*
X0262562Y0196689D02*
X0262562Y0192189D01*
X0258062Y0192189D01*
X0258062Y0193995D01*
X0260757Y0196689D01*
X0262562Y0196689D01*
X0262562Y0194292D02*
X0262762Y0194292D01*
X0262762Y0192694D02*
X0262562Y0192694D01*
X0262562Y0191095D02*
X0262762Y0191095D01*
X0262762Y0189497D02*
X0262562Y0189497D01*
X0262562Y0187898D02*
X0262762Y0187898D01*
X0258749Y0189497D02*
X0256009Y0189497D01*
X0256862Y0191095D02*
X0258062Y0191095D01*
X0258062Y0192694D02*
X0256862Y0192694D01*
X0256399Y0194292D02*
X0258360Y0194292D01*
X0259958Y0195891D02*
X0254800Y0195891D01*
X0250524Y0195891D02*
X0241713Y0195891D01*
X0241478Y0194292D02*
X0248926Y0194292D01*
X0244303Y0192694D02*
X0240313Y0192694D01*
X0240313Y0191095D02*
X0242705Y0191095D01*
X0241106Y0189497D02*
X0240313Y0189497D01*
X0236713Y0189497D02*
X0233534Y0189497D01*
X0233534Y0191095D02*
X0236713Y0191095D01*
X0236713Y0192694D02*
X0233534Y0192694D01*
X0233534Y0194292D02*
X0235547Y0194292D01*
X0235313Y0195891D02*
X0233534Y0195891D01*
X0233534Y0197489D02*
X0235981Y0197489D01*
X0233534Y0199088D02*
X0311299Y0199088D01*
X0311301Y0200686D02*
X0233534Y0200686D01*
X0233534Y0202285D02*
X0311304Y0202285D01*
X0311306Y0203883D02*
X0233534Y0203883D01*
X0234137Y0205459D02*
X0235808Y0205459D01*
X0237351Y0206099D01*
X0238533Y0207280D01*
X0239172Y0208824D01*
X0239172Y0210495D01*
X0238533Y0212038D01*
X0237351Y0213220D01*
X0236872Y0213418D01*
X0236872Y0215620D01*
X0239172Y0217920D01*
X0239172Y0221399D01*
X0236712Y0223859D01*
X0233232Y0223859D01*
X0230772Y0221399D01*
X0230772Y0217920D01*
X0233072Y0215620D01*
X0233072Y0213418D01*
X0232593Y0213220D01*
X0231412Y0212038D01*
X0230772Y0210495D01*
X0230772Y0208824D01*
X0231412Y0207280D01*
X0232593Y0206099D01*
X0234137Y0205459D01*
X0234082Y0205482D02*
X0231935Y0205482D01*
X0231611Y0207080D02*
X0230337Y0207080D01*
X0230832Y0208679D02*
X0229572Y0208679D01*
X0229572Y0210277D02*
X0230772Y0210277D01*
X0231344Y0211876D02*
X0229261Y0211876D01*
X0227662Y0213474D02*
X0233072Y0213474D01*
X0233072Y0215073D02*
X0226891Y0215073D01*
X0226878Y0215059D02*
X0229572Y0217754D01*
X0229572Y0219559D01*
X0225072Y0219559D01*
X0225072Y0215059D01*
X0226878Y0215059D01*
X0225072Y0215073D02*
X0224872Y0215073D01*
X0224872Y0215059D02*
X0224872Y0219559D01*
X0225072Y0219559D01*
X0225072Y0219759D01*
X0229572Y0219759D01*
X0229572Y0221565D01*
X0226878Y0224259D01*
X0225072Y0224259D01*
X0225072Y0219759D01*
X0224872Y0219759D01*
X0224872Y0219559D01*
X0220372Y0219559D01*
X0220372Y0217754D01*
X0223067Y0215059D01*
X0224872Y0215059D01*
X0224872Y0213474D02*
X0225072Y0213474D01*
X0225072Y0211876D02*
X0224872Y0211876D01*
X0224872Y0210277D02*
X0225072Y0210277D01*
X0222282Y0213474D02*
X0221868Y0213474D01*
X0221117Y0215073D02*
X0223053Y0215073D01*
X0221455Y0216672D02*
X0219519Y0216672D01*
X0219172Y0218270D02*
X0220372Y0218270D01*
X0220372Y0219759D02*
X0224872Y0219759D01*
X0224872Y0224259D01*
X0223067Y0224259D01*
X0220372Y0221565D01*
X0220372Y0219759D01*
X0220372Y0219869D02*
X0219172Y0219869D01*
X0219467Y0221467D02*
X0220372Y0221467D01*
X0220811Y0223066D02*
X0221873Y0223066D01*
X0220811Y0224664D02*
X0311340Y0224664D01*
X0311338Y0223066D02*
X0237506Y0223066D01*
X0239104Y0221467D02*
X0311335Y0221467D01*
X0311333Y0219869D02*
X0239172Y0219869D01*
X0239172Y0218270D02*
X0311330Y0218270D01*
X0311327Y0216672D02*
X0237924Y0216672D01*
X0236872Y0215073D02*
X0311325Y0215073D01*
X0311322Y0213474D02*
X0236872Y0213474D01*
X0238600Y0211876D02*
X0311319Y0211876D01*
X0311317Y0210277D02*
X0239172Y0210277D01*
X0239112Y0208679D02*
X0311314Y0208679D01*
X0311312Y0207080D02*
X0238333Y0207080D01*
X0235862Y0205482D02*
X0311309Y0205482D01*
X0311296Y0197489D02*
X0241045Y0197489D01*
X0236713Y0187898D02*
X0233534Y0187898D01*
X0233534Y0186300D02*
X0236713Y0186300D01*
X0236713Y0184701D02*
X0233534Y0184701D01*
X0233534Y0183103D02*
X0236713Y0183103D01*
X0228162Y0191363D02*
X0227902Y0191363D01*
X0227862Y0191404D01*
X0227451Y0191641D01*
X0226994Y0191763D01*
X0226166Y0191763D01*
X0225339Y0191763D01*
X0224881Y0191641D01*
X0224470Y0191404D01*
X0224430Y0191363D01*
X0224177Y0191363D01*
X0224177Y0197871D01*
X0223999Y0198049D01*
X0224004Y0198062D01*
X0224004Y0199335D01*
X0223517Y0200511D01*
X0222617Y0201411D01*
X0221464Y0201888D01*
X0227984Y0201888D01*
X0228162Y0201710D01*
X0228162Y0191363D01*
X0228162Y0192694D02*
X0224177Y0192694D01*
X0224177Y0194292D02*
X0228162Y0194292D01*
X0228162Y0195891D02*
X0224177Y0195891D01*
X0224177Y0197489D02*
X0228162Y0197489D01*
X0228162Y0199088D02*
X0224004Y0199088D01*
X0223342Y0200686D02*
X0228162Y0200686D01*
X0226166Y0191763D02*
X0226166Y0190565D01*
X0226166Y0190565D01*
X0226166Y0190565D01*
X0226166Y0191763D01*
X0226166Y0191095D02*
X0226166Y0191095D01*
X0225072Y0216672D02*
X0224872Y0216672D01*
X0224872Y0218270D02*
X0225072Y0218270D01*
X0225072Y0219869D02*
X0224872Y0219869D01*
X0224872Y0221467D02*
X0225072Y0221467D01*
X0225072Y0223066D02*
X0224872Y0223066D01*
X0228071Y0223066D02*
X0232439Y0223066D01*
X0230840Y0221467D02*
X0229572Y0221467D01*
X0229572Y0219869D02*
X0230772Y0219869D01*
X0230772Y0218270D02*
X0229572Y0218270D01*
X0228490Y0216672D02*
X0232020Y0216672D01*
X0220811Y0226263D02*
X0311343Y0226263D01*
X0311346Y0227861D02*
X0220811Y0227861D01*
X0220811Y0229460D02*
X0311348Y0229460D01*
X0311351Y0231058D02*
X0220811Y0231058D01*
X0220811Y0232657D02*
X0311354Y0232657D01*
X0311356Y0234255D02*
X0220811Y0234255D01*
X0220811Y0235854D02*
X0311359Y0235854D01*
X0311361Y0237452D02*
X0220811Y0237452D01*
X0220811Y0239051D02*
X0311364Y0239051D01*
X0311367Y0240649D02*
X0220811Y0240649D01*
X0220811Y0242248D02*
X0311369Y0242248D01*
X0311372Y0243846D02*
X0219269Y0243846D01*
X0217267Y0245445D02*
X0311374Y0245445D01*
X0311377Y0247043D02*
X0217267Y0247043D01*
X0216622Y0248642D02*
X0311380Y0248642D01*
X0311382Y0250240D02*
X0185629Y0250240D01*
X0185629Y0251839D02*
X0311385Y0251839D01*
X0311388Y0253437D02*
X0185360Y0253437D01*
X0185360Y0255036D02*
X0311390Y0255036D01*
X0311393Y0256634D02*
X0184862Y0256634D01*
X0183123Y0258233D02*
X0311395Y0258233D01*
X0311398Y0259831D02*
X0181524Y0259831D01*
X0183538Y0261430D02*
X0311401Y0261430D01*
X0311403Y0263028D02*
X0184559Y0263028D01*
X0184581Y0264627D02*
X0311406Y0264627D01*
X0311409Y0266225D02*
X0183592Y0266225D01*
X0179283Y0266225D02*
X0163352Y0266225D01*
X0163155Y0267824D02*
X0311411Y0267824D01*
X0311414Y0269422D02*
X0161966Y0269422D01*
X0162594Y0264627D02*
X0178293Y0264627D01*
X0178316Y0263028D02*
X0159447Y0263028D01*
X0159447Y0261430D02*
X0179336Y0261430D01*
X0172743Y0272619D02*
X0311419Y0272619D01*
X0311416Y0271021D02*
X0170335Y0271021D01*
X0174257Y0274218D02*
X0311422Y0274218D01*
X0311424Y0275816D02*
X0175418Y0275816D01*
X0175986Y0277415D02*
X0311427Y0277415D01*
X0311429Y0279013D02*
X0176506Y0279013D01*
X0176567Y0280612D02*
X0311432Y0280612D01*
X0311435Y0282210D02*
X0176567Y0282210D01*
X0176567Y0283809D02*
X0311437Y0283809D01*
X0311440Y0285408D02*
X0176567Y0285408D01*
X0176567Y0287006D02*
X0311443Y0287006D01*
X0311445Y0288605D02*
X0176567Y0288605D01*
X0176567Y0290203D02*
X0311448Y0290203D01*
X0311450Y0291802D02*
X0176567Y0291802D01*
X0176567Y0293400D02*
X0311453Y0293400D01*
X0311456Y0294999D02*
X0176567Y0294999D01*
X0176567Y0296597D02*
X0311458Y0296597D01*
X0311461Y0298196D02*
X0176460Y0298196D01*
X0175941Y0299794D02*
X0311463Y0299794D01*
X0311466Y0301393D02*
X0175421Y0301393D01*
X0174366Y0302991D02*
X0311469Y0302991D01*
X0311471Y0304590D02*
X0173205Y0304590D01*
X0171195Y0306188D02*
X0311474Y0306188D01*
X0311477Y0307787D02*
X0168042Y0307787D01*
X0167024Y0309385D02*
X0311479Y0309385D01*
X0311482Y0310984D02*
X0164797Y0310984D01*
X0166396Y0312582D02*
X0167736Y0312582D01*
X0170227Y0312582D02*
X0311484Y0312582D01*
X0311487Y0314181D02*
X0172473Y0314181D01*
X0173131Y0315779D02*
X0311490Y0315779D01*
X0311492Y0317378D02*
X0173131Y0317378D01*
X0172432Y0318976D02*
X0311495Y0318976D01*
X0311498Y0320575D02*
X0170129Y0320575D01*
X0167833Y0320575D02*
X0160129Y0320575D01*
X0157833Y0320575D02*
X0150129Y0320575D01*
X0147833Y0320575D02*
X0140129Y0320575D01*
X0139807Y0320708D02*
X0138156Y0320708D01*
X0136631Y0320077D01*
X0135463Y0318909D01*
X0134831Y0317384D01*
X0134831Y0315733D01*
X0135463Y0314208D01*
X0136631Y0313040D01*
X0138156Y0312408D01*
X0139807Y0312408D01*
X0141332Y0313040D01*
X0142500Y0314208D01*
X0143131Y0315733D01*
X0143131Y0317384D01*
X0142500Y0318909D01*
X0141332Y0320077D01*
X0139807Y0320708D01*
X0137833Y0320575D02*
X0134785Y0320575D01*
X0135530Y0318976D02*
X0133186Y0318976D01*
X0131588Y0317378D02*
X0134831Y0317378D01*
X0134831Y0315779D02*
X0129989Y0315779D01*
X0128391Y0314181D02*
X0135490Y0314181D01*
X0137736Y0312582D02*
X0128317Y0312582D01*
X0128317Y0310984D02*
X0132877Y0310984D01*
X0133906Y0310984D02*
X0134056Y0310984D01*
X0135086Y0310984D02*
X0149141Y0310984D01*
X0150227Y0312582D02*
X0150739Y0312582D01*
X0147736Y0312582D02*
X0140227Y0312582D01*
X0142473Y0314181D02*
X0145490Y0314181D01*
X0144831Y0315779D02*
X0143131Y0315779D01*
X0143131Y0317378D02*
X0144831Y0317378D01*
X0145530Y0318976D02*
X0142432Y0318976D01*
X0136383Y0322173D02*
X0311500Y0322173D01*
X0311503Y0323772D02*
X0185509Y0323772D01*
X0185374Y0323694D02*
X0186114Y0324121D01*
X0186793Y0324642D01*
X0187398Y0325247D01*
X0187918Y0325925D01*
X0188346Y0326666D01*
X0188673Y0327456D01*
X0188895Y0328283D01*
X0188961Y0328783D01*
X0183256Y0328783D01*
X0183256Y0323079D01*
X0183757Y0323145D01*
X0184583Y0323366D01*
X0185374Y0323694D01*
X0183256Y0323772D02*
X0181706Y0323772D01*
X0181706Y0323079D02*
X0181706Y0328783D01*
X0183256Y0328783D01*
X0183256Y0330333D01*
X0188961Y0330333D01*
X0188895Y0330834D01*
X0188673Y0331660D01*
X0188346Y0332450D01*
X0187918Y0333191D01*
X0187398Y0333870D01*
X0186793Y0334475D01*
X0186114Y0334995D01*
X0185374Y0335423D01*
X0184583Y0335750D01*
X0183757Y0335972D01*
X0183256Y0336038D01*
X0183256Y0330333D01*
X0181706Y0330333D01*
X0181706Y0328783D01*
X0176002Y0328783D01*
X0176068Y0328283D01*
X0176289Y0327456D01*
X0176617Y0326666D01*
X0177044Y0325925D01*
X0177565Y0325247D01*
X0178170Y0324642D01*
X0178849Y0324121D01*
X0179589Y0323694D01*
X0180379Y0323366D01*
X0181206Y0323145D01*
X0181706Y0323079D01*
X0181706Y0325370D02*
X0183256Y0325370D01*
X0183256Y0326969D02*
X0181706Y0326969D01*
X0181706Y0328567D02*
X0183256Y0328567D01*
X0183256Y0330166D02*
X0311513Y0330166D01*
X0311516Y0331764D02*
X0188630Y0331764D01*
X0187787Y0333363D02*
X0311518Y0333363D01*
X0311521Y0334961D02*
X0186159Y0334961D01*
X0183256Y0334961D02*
X0181706Y0334961D01*
X0181706Y0336038D02*
X0181706Y0330333D01*
X0176002Y0330333D01*
X0176068Y0330834D01*
X0176289Y0331660D01*
X0176617Y0332450D01*
X0177044Y0333191D01*
X0177413Y0333671D01*
X0175692Y0332958D01*
X0172271Y0332958D01*
X0169110Y0334268D01*
X0166691Y0336687D01*
X0165381Y0339848D01*
X0165381Y0343269D01*
X0166691Y0346430D01*
X0169110Y0348849D01*
X0172271Y0350158D01*
X0175692Y0350158D01*
X0178853Y0348849D01*
X0181272Y0346430D01*
X0182581Y0343269D01*
X0182581Y0339848D01*
X0181272Y0336687D01*
X0180305Y0335719D01*
X0180379Y0335750D01*
X0181206Y0335972D01*
X0181706Y0336038D01*
X0181145Y0336560D02*
X0311524Y0336560D01*
X0311526Y0338158D02*
X0181882Y0338158D01*
X0182544Y0339757D02*
X0311529Y0339757D01*
X0311532Y0341355D02*
X0182581Y0341355D01*
X0182581Y0342954D02*
X0311534Y0342954D01*
X0311537Y0344552D02*
X0182050Y0344552D01*
X0181388Y0346151D02*
X0311539Y0346151D01*
X0311542Y0347749D02*
X0179953Y0347749D01*
X0177649Y0349348D02*
X0311545Y0349348D01*
X0311547Y0350946D02*
X0168435Y0350946D01*
X0170186Y0352545D02*
X0311550Y0352545D01*
X0311553Y0354143D02*
X0170781Y0354143D01*
X0170778Y0355742D02*
X0311555Y0355742D01*
X0311558Y0357341D02*
X0179086Y0357341D01*
X0178874Y0357128D02*
X0180112Y0358366D01*
X0180781Y0359983D01*
X0180781Y0361734D01*
X0180112Y0363351D01*
X0178874Y0364588D01*
X0177257Y0365258D01*
X0175506Y0365258D01*
X0173889Y0364588D01*
X0172651Y0363351D01*
X0171981Y0361734D01*
X0171981Y0359983D01*
X0172651Y0358366D01*
X0173889Y0357128D01*
X0175506Y0356458D01*
X0177257Y0356458D01*
X0178874Y0357128D01*
X0180349Y0358939D02*
X0311560Y0358939D01*
X0311563Y0360538D02*
X0180781Y0360538D01*
X0180615Y0362136D02*
X0311566Y0362136D01*
X0311568Y0363735D02*
X0179728Y0363735D01*
X0173035Y0363735D02*
X0139928Y0363735D01*
X0140312Y0363351D02*
X0139074Y0364588D01*
X0137457Y0365258D01*
X0135706Y0365258D01*
X0134089Y0364588D01*
X0132851Y0363351D01*
X0132181Y0361734D01*
X0132181Y0359983D01*
X0132851Y0358366D01*
X0134089Y0357128D01*
X0135706Y0356458D01*
X0137457Y0356458D01*
X0139074Y0357128D01*
X0140312Y0358366D01*
X0140981Y0359983D01*
X0140981Y0361734D01*
X0140312Y0363351D01*
X0140815Y0362136D02*
X0172148Y0362136D01*
X0171981Y0360538D02*
X0140981Y0360538D01*
X0140549Y0358939D02*
X0164735Y0358939D01*
X0162647Y0357341D02*
X0139286Y0357341D01*
X0133877Y0357341D02*
X0130316Y0357341D01*
X0130978Y0355742D02*
X0161985Y0355742D01*
X0161981Y0354143D02*
X0130981Y0354143D01*
X0130386Y0352545D02*
X0161381Y0352545D01*
X0159783Y0350946D02*
X0128635Y0350946D01*
X0125314Y0349348D02*
X0123758Y0349348D01*
X0123010Y0347749D02*
X0122159Y0347749D01*
X0121575Y0346151D02*
X0120561Y0346151D01*
X0120913Y0344552D02*
X0118962Y0344552D01*
X0120381Y0342954D02*
X0117364Y0342954D01*
X0115765Y0341355D02*
X0120381Y0341355D01*
X0120419Y0339757D02*
X0115379Y0339757D01*
X0115379Y0338158D02*
X0121081Y0338158D01*
X0121818Y0336560D02*
X0115379Y0336560D01*
X0115379Y0334961D02*
X0116804Y0334961D01*
X0119706Y0334961D02*
X0121256Y0334961D01*
X0121256Y0333363D02*
X0119706Y0333363D01*
X0119706Y0331764D02*
X0121256Y0331764D01*
X0121256Y0330166D02*
X0139002Y0330166D01*
X0140600Y0331764D02*
X0126630Y0331764D01*
X0126294Y0333363D02*
X0125787Y0333363D01*
X0126932Y0328567D02*
X0137403Y0328567D01*
X0135805Y0326969D02*
X0126471Y0326969D01*
X0125492Y0325370D02*
X0134206Y0325370D01*
X0132608Y0323772D02*
X0123509Y0323772D01*
X0121256Y0323772D02*
X0119706Y0323772D01*
X0119706Y0325370D02*
X0121256Y0325370D01*
X0121256Y0326969D02*
X0119706Y0326969D01*
X0119706Y0328567D02*
X0121256Y0328567D01*
X0117454Y0323772D02*
X0115379Y0323772D01*
X0115379Y0325370D02*
X0115470Y0325370D01*
X0115379Y0322173D02*
X0131009Y0322173D01*
X0129411Y0320575D02*
X0115379Y0320575D01*
X0115379Y0318976D02*
X0127812Y0318976D01*
X0126214Y0317378D02*
X0115379Y0317378D01*
X0115486Y0315779D02*
X0124615Y0315779D01*
X0124517Y0314181D02*
X0117085Y0314181D01*
X0118683Y0312582D02*
X0124517Y0312582D01*
X0124517Y0310984D02*
X0120282Y0310984D01*
X0121880Y0309385D02*
X0124517Y0309385D01*
X0124517Y0307787D02*
X0123479Y0307787D01*
X0121302Y0304590D02*
X0075296Y0304590D01*
X0075294Y0306188D02*
X0119703Y0306188D01*
X0118105Y0307787D02*
X0075292Y0307787D01*
X0075291Y0309385D02*
X0116506Y0309385D01*
X0114908Y0310984D02*
X0075289Y0310984D01*
X0075287Y0312582D02*
X0113309Y0312582D01*
X0111711Y0314181D02*
X0075285Y0314181D01*
X0075283Y0315779D02*
X0111579Y0315779D01*
X0111579Y0317378D02*
X0075281Y0317378D01*
X0075279Y0318976D02*
X0111579Y0318976D01*
X0111579Y0320575D02*
X0075277Y0320575D01*
X0075276Y0322173D02*
X0111579Y0322173D01*
X0111579Y0323772D02*
X0075274Y0323772D01*
X0075272Y0325370D02*
X0111579Y0325370D01*
X0111579Y0326969D02*
X0075270Y0326969D01*
X0075268Y0328567D02*
X0111579Y0328567D01*
X0111579Y0330166D02*
X0075266Y0330166D01*
X0075264Y0331764D02*
X0111579Y0331764D01*
X0111579Y0333363D02*
X0075262Y0333363D01*
X0075261Y0334961D02*
X0111579Y0334961D01*
X0111579Y0336560D02*
X0075259Y0336560D01*
X0075257Y0338158D02*
X0111579Y0338158D01*
X0111579Y0339757D02*
X0075255Y0339757D01*
X0075253Y0341355D02*
X0111579Y0341355D01*
X0111990Y0342954D02*
X0075251Y0342954D01*
X0075249Y0344552D02*
X0113588Y0344552D01*
X0115187Y0346151D02*
X0075247Y0346151D01*
X0075245Y0347749D02*
X0116785Y0347749D01*
X0118384Y0349348D02*
X0075244Y0349348D01*
X0075242Y0350946D02*
X0119983Y0350946D01*
X0121581Y0352545D02*
X0075240Y0352545D01*
X0075238Y0354143D02*
X0122181Y0354143D01*
X0122185Y0355742D02*
X0075236Y0355742D01*
X0075234Y0357341D02*
X0122847Y0357341D01*
X0124935Y0358939D02*
X0075232Y0358939D01*
X0075230Y0360538D02*
X0132181Y0360538D01*
X0132348Y0362136D02*
X0075229Y0362136D01*
X0075227Y0363735D02*
X0133235Y0363735D01*
X0132614Y0358939D02*
X0128228Y0358939D01*
X0132649Y0349348D02*
X0158184Y0349348D01*
X0156585Y0347749D02*
X0134953Y0347749D01*
X0136388Y0346151D02*
X0154987Y0346151D01*
X0153388Y0344552D02*
X0137050Y0344552D01*
X0137581Y0342954D02*
X0151790Y0342954D01*
X0150191Y0341355D02*
X0137581Y0341355D01*
X0137544Y0339757D02*
X0148593Y0339757D01*
X0146994Y0338158D02*
X0136882Y0338158D01*
X0136145Y0336560D02*
X0145396Y0336560D01*
X0143797Y0334961D02*
X0134547Y0334961D01*
X0131669Y0333363D02*
X0142199Y0333363D01*
X0144376Y0330166D02*
X0181706Y0330166D01*
X0181706Y0331764D02*
X0183256Y0331764D01*
X0183256Y0333363D02*
X0181706Y0333363D01*
X0177176Y0333363D02*
X0176669Y0333363D01*
X0176333Y0331764D02*
X0145974Y0331764D01*
X0147573Y0333363D02*
X0171294Y0333363D01*
X0168416Y0334961D02*
X0149171Y0334961D01*
X0150770Y0336560D02*
X0166818Y0336560D01*
X0166081Y0338158D02*
X0152368Y0338158D01*
X0153967Y0339757D02*
X0165419Y0339757D01*
X0165381Y0341355D02*
X0155565Y0341355D01*
X0157164Y0342954D02*
X0165381Y0342954D01*
X0165913Y0344552D02*
X0158762Y0344552D01*
X0160361Y0346151D02*
X0166575Y0346151D01*
X0168010Y0347749D02*
X0161959Y0347749D01*
X0163558Y0349348D02*
X0170314Y0349348D01*
X0170116Y0357341D02*
X0173677Y0357341D01*
X0172414Y0358939D02*
X0168028Y0358939D01*
X0176031Y0328567D02*
X0142777Y0328567D01*
X0141179Y0326969D02*
X0176491Y0326969D01*
X0177470Y0325370D02*
X0139580Y0325370D01*
X0137982Y0323772D02*
X0179454Y0323772D01*
X0187492Y0325370D02*
X0311505Y0325370D01*
X0311508Y0326969D02*
X0188471Y0326969D01*
X0188932Y0328567D02*
X0311511Y0328567D01*
X0311571Y0365333D02*
X0075225Y0365333D01*
X0075223Y0366932D02*
X0311573Y0366932D01*
X0311576Y0368530D02*
X0077834Y0368530D01*
X0128317Y0309385D02*
X0130411Y0309385D01*
X0129596Y0307787D02*
X0128317Y0307787D01*
X0128470Y0306188D02*
X0129433Y0306188D01*
X0133906Y0306188D02*
X0134056Y0306188D01*
X0134056Y0304590D02*
X0133906Y0304590D01*
X0133906Y0302991D02*
X0134056Y0302991D01*
X0133266Y0301393D02*
X0147722Y0301393D01*
X0147722Y0302991D02*
X0146214Y0302991D01*
X0147658Y0304590D02*
X0147722Y0304590D01*
X0147722Y0309385D02*
X0147024Y0309385D01*
X0140939Y0309385D02*
X0137552Y0309385D01*
X0138366Y0307787D02*
X0139998Y0307787D01*
X0139831Y0306188D02*
X0138529Y0306188D01*
X0138085Y0304590D02*
X0140305Y0304590D01*
X0141749Y0302991D02*
X0136812Y0302991D01*
X0133547Y0299794D02*
X0147722Y0299794D01*
X0147722Y0298196D02*
X0133547Y0298196D01*
X0133547Y0296597D02*
X0147722Y0296597D01*
X0147722Y0294999D02*
X0133547Y0294999D01*
X0133547Y0293400D02*
X0147722Y0293400D01*
X0147722Y0291802D02*
X0133547Y0291802D01*
X0133547Y0290203D02*
X0147722Y0290203D01*
X0147722Y0288605D02*
X0133547Y0288605D01*
X0133547Y0287006D02*
X0147722Y0287006D01*
X0147722Y0285408D02*
X0133547Y0285408D01*
X0133547Y0283809D02*
X0147722Y0283809D01*
X0147722Y0282210D02*
X0133547Y0282210D01*
X0133547Y0280612D02*
X0147722Y0280612D01*
X0147722Y0279013D02*
X0133547Y0279013D01*
X0133547Y0277415D02*
X0141649Y0277415D01*
X0141489Y0275816D02*
X0140068Y0275816D01*
X0140584Y0274218D02*
X0141489Y0274218D01*
X0141489Y0272619D02*
X0140332Y0272619D01*
X0139088Y0271021D02*
X0142368Y0271021D01*
X0141889Y0269422D02*
X0140534Y0269422D01*
X0140534Y0267824D02*
X0141889Y0267824D01*
X0141889Y0266225D02*
X0140534Y0266225D01*
X0140534Y0264627D02*
X0141932Y0264627D01*
X0134088Y0263028D02*
X0133547Y0263028D01*
X0133547Y0261430D02*
X0133797Y0261430D01*
X0133797Y0259831D02*
X0133638Y0259831D01*
X0133547Y0264627D02*
X0133797Y0264627D01*
X0133797Y0266225D02*
X0133547Y0266225D01*
X0133547Y0267824D02*
X0133797Y0267824D01*
X0133797Y0269422D02*
X0133547Y0269422D01*
X0133547Y0271021D02*
X0135265Y0271021D01*
X0134074Y0272619D02*
X0133547Y0272619D01*
X0133547Y0274218D02*
X0133822Y0274218D01*
X0133547Y0275816D02*
X0134338Y0275816D01*
X0126933Y0275816D02*
X0075330Y0275816D01*
X0075332Y0274218D02*
X0126926Y0274218D01*
X0126918Y0272619D02*
X0075334Y0272619D01*
X0075336Y0271021D02*
X0126911Y0271021D01*
X0126903Y0269422D02*
X0075338Y0269422D01*
X0075339Y0267824D02*
X0126896Y0267824D01*
X0126888Y0266225D02*
X0121225Y0266225D01*
X0120934Y0266516D02*
X0115443Y0266516D01*
X0114842Y0265915D01*
X0114241Y0266516D01*
X0108750Y0266516D01*
X0107930Y0265696D01*
X0107930Y0264905D01*
X0107643Y0264905D01*
X0107643Y0265207D01*
X0106477Y0266373D01*
X0102072Y0266373D01*
X0100967Y0265269D01*
X0100865Y0265515D01*
X0100604Y0265907D01*
X0100271Y0266240D01*
X0099879Y0266501D01*
X0099444Y0266682D01*
X0098982Y0266773D01*
X0097553Y0266773D01*
X0097553Y0263189D01*
X0097184Y0263189D01*
X0097184Y0262821D01*
X0093600Y0262821D01*
X0093600Y0261392D01*
X0093692Y0260930D01*
X0093872Y0260495D01*
X0094134Y0260103D01*
X0094467Y0259770D01*
X0094858Y0259509D01*
X0095293Y0259328D01*
X0095755Y0259237D01*
X0097184Y0259237D01*
X0097184Y0262821D01*
X0097553Y0262821D01*
X0097553Y0259237D01*
X0098982Y0259237D01*
X0099444Y0259328D01*
X0099879Y0259509D01*
X0100271Y0259770D01*
X0100604Y0260103D01*
X0100865Y0260495D01*
X0100967Y0260741D01*
X0102072Y0259637D01*
X0106477Y0259637D01*
X0107643Y0260803D01*
X0107643Y0261105D01*
X0107930Y0261105D01*
X0107930Y0260599D01*
X0108750Y0259779D01*
X0114241Y0259779D01*
X0114842Y0260380D01*
X0115443Y0259779D01*
X0120934Y0259779D01*
X0121712Y0260558D01*
X0122391Y0260277D01*
X0123465Y0260277D01*
X0124458Y0260688D01*
X0125217Y0261447D01*
X0125628Y0262440D01*
X0125628Y0263514D01*
X0125217Y0264506D01*
X0124458Y0265266D01*
X0123465Y0265677D01*
X0122391Y0265677D01*
X0121754Y0265413D01*
X0121754Y0265696D01*
X0120934Y0266516D01*
X0125096Y0264627D02*
X0126880Y0264627D01*
X0126873Y0263028D02*
X0125628Y0263028D01*
X0125200Y0261430D02*
X0126865Y0261430D01*
X0126857Y0259831D02*
X0120986Y0259831D01*
X0120966Y0258425D02*
X0115475Y0258425D01*
X0114874Y0257823D01*
X0114273Y0258425D01*
X0108782Y0258425D01*
X0107962Y0257604D01*
X0107962Y0257037D01*
X0107572Y0257037D01*
X0107572Y0257340D01*
X0106406Y0258506D01*
X0102001Y0258506D01*
X0100897Y0257401D01*
X0100795Y0257648D01*
X0100533Y0258039D01*
X0100200Y0258372D01*
X0099809Y0258634D01*
X0099374Y0258814D01*
X0098912Y0258906D01*
X0097483Y0258906D01*
X0097483Y0255322D01*
X0097114Y0255322D01*
X0097114Y0258906D01*
X0095685Y0258906D01*
X0095223Y0258814D01*
X0094788Y0258634D01*
X0094396Y0258372D01*
X0094064Y0258039D01*
X0093802Y0257648D01*
X0093622Y0257213D01*
X0093530Y0256751D01*
X0093530Y0255322D01*
X0097114Y0255322D01*
X0097114Y0254953D01*
X0097483Y0254953D01*
X0097483Y0251369D01*
X0098912Y0251369D01*
X0099374Y0251461D01*
X0099809Y0251641D01*
X0100200Y0251903D01*
X0100533Y0252236D01*
X0100795Y0252627D01*
X0100897Y0252873D01*
X0102001Y0251769D01*
X0106406Y0251769D01*
X0107572Y0252935D01*
X0107572Y0253237D01*
X0107962Y0253237D01*
X0107962Y0252508D01*
X0108782Y0251688D01*
X0114273Y0251688D01*
X0114874Y0252289D01*
X0115475Y0251688D01*
X0120966Y0251688D01*
X0121786Y0252508D01*
X0121786Y0252988D01*
X0121947Y0252827D01*
X0122939Y0252416D01*
X0124013Y0252416D01*
X0125005Y0252827D01*
X0125765Y0253587D01*
X0126176Y0254579D01*
X0126176Y0255653D01*
X0125765Y0256646D01*
X0125005Y0257405D01*
X0124013Y0257816D01*
X0122939Y0257816D01*
X0121947Y0257405D01*
X0121786Y0257244D01*
X0121786Y0257604D01*
X0120966Y0258425D01*
X0121157Y0258233D02*
X0127449Y0258233D01*
X0129047Y0256634D02*
X0125770Y0256634D01*
X0126176Y0255036D02*
X0130646Y0255036D01*
X0132245Y0253437D02*
X0125615Y0253437D01*
X0123982Y0250175D02*
X0122908Y0250175D01*
X0121916Y0249764D01*
X0121755Y0249603D01*
X0120972Y0250387D01*
X0115481Y0250387D01*
X0114880Y0249786D01*
X0114279Y0250387D01*
X0108788Y0250387D01*
X0107968Y0249567D01*
X0107968Y0249333D01*
X0107645Y0249333D01*
X0107645Y0249635D01*
X0106479Y0250801D01*
X0102074Y0250801D01*
X0100970Y0249697D01*
X0100867Y0249943D01*
X0100606Y0250335D01*
X0100273Y0250668D01*
X0099881Y0250929D01*
X0099446Y0251109D01*
X0098984Y0251201D01*
X0097555Y0251201D01*
X0097555Y0247617D01*
X0097187Y0247617D01*
X0097187Y0251201D01*
X0095758Y0251201D01*
X0095296Y0251109D01*
X0094861Y0250929D01*
X0094469Y0250668D01*
X0094136Y0250335D01*
X0093875Y0249943D01*
X0093694Y0249508D01*
X0093603Y0249046D01*
X0093603Y0247617D01*
X0097187Y0247617D01*
X0097187Y0247249D01*
X0093603Y0247249D01*
X0093603Y0245819D01*
X0093694Y0245358D01*
X0093875Y0244923D01*
X0094136Y0244531D01*
X0094469Y0244198D01*
X0094861Y0243936D01*
X0095296Y0243756D01*
X0095758Y0243664D01*
X0097187Y0243664D01*
X0097187Y0247248D01*
X0097555Y0247248D01*
X0097555Y0243664D01*
X0098984Y0243664D01*
X0099446Y0243756D01*
X0099881Y0243936D01*
X0100273Y0244198D01*
X0100606Y0244531D01*
X0100867Y0244923D01*
X0100970Y0245169D01*
X0102074Y0244064D01*
X0106479Y0244064D01*
X0107645Y0245230D01*
X0107645Y0245533D01*
X0107968Y0245533D01*
X0107968Y0244470D01*
X0108788Y0243650D01*
X0114279Y0243650D01*
X0114880Y0244251D01*
X0115481Y0243650D01*
X0120972Y0243650D01*
X0121792Y0244470D01*
X0121792Y0245062D01*
X0122233Y0245055D01*
X0122908Y0244775D01*
X0123982Y0244775D01*
X0124975Y0245186D01*
X0125734Y0245945D01*
X0126145Y0246938D01*
X0126145Y0248012D01*
X0125734Y0249004D01*
X0124975Y0249764D01*
X0123982Y0250175D01*
X0125884Y0248642D02*
X0136594Y0248642D01*
X0134996Y0247043D02*
X0126145Y0247043D01*
X0125233Y0245445D02*
X0134342Y0245445D01*
X0134342Y0243846D02*
X0121168Y0243846D01*
X0120888Y0242334D02*
X0115397Y0242334D01*
X0114796Y0241733D01*
X0114195Y0242334D01*
X0108704Y0242334D01*
X0108055Y0241685D01*
X0107472Y0241685D01*
X0107472Y0241987D01*
X0106306Y0243153D01*
X0101901Y0243153D01*
X0100796Y0242049D01*
X0100694Y0242295D01*
X0100433Y0242687D01*
X0100100Y0243020D01*
X0099708Y0243281D01*
X0099273Y0243462D01*
X0098811Y0243553D01*
X0097382Y0243553D01*
X0097382Y0239969D01*
X0097014Y0239969D01*
X0097014Y0243553D01*
X0095585Y0243553D01*
X0095123Y0243462D01*
X0094688Y0243281D01*
X0094296Y0243020D01*
X0093963Y0242687D01*
X0093701Y0242295D01*
X0093521Y0241860D01*
X0093429Y0241398D01*
X0093429Y0239969D01*
X0097014Y0239969D01*
X0097014Y0239601D01*
X0097382Y0239601D01*
X0097382Y0236016D01*
X0098811Y0236016D01*
X0099273Y0236108D01*
X0099708Y0236288D01*
X0100100Y0236550D01*
X0100433Y0236883D01*
X0100694Y0237275D01*
X0100796Y0237521D01*
X0101901Y0236416D01*
X0106306Y0236416D01*
X0107472Y0237582D01*
X0107472Y0237885D01*
X0107884Y0237885D01*
X0107884Y0236417D01*
X0108704Y0235597D01*
X0114195Y0235597D01*
X0114796Y0236198D01*
X0115397Y0235597D01*
X0120888Y0235597D01*
X0121708Y0236417D01*
X0121708Y0237642D01*
X0121969Y0237642D01*
X0122358Y0237253D01*
X0123351Y0236842D01*
X0124425Y0236842D01*
X0125417Y0237253D01*
X0126177Y0238013D01*
X0126588Y0239005D01*
X0126588Y0240079D01*
X0126177Y0241072D01*
X0125417Y0241831D01*
X0124425Y0242242D01*
X0123351Y0242242D01*
X0122358Y0241831D01*
X0121969Y0241442D01*
X0121708Y0241442D01*
X0121708Y0241514D01*
X0120888Y0242334D01*
X0120974Y0242248D02*
X0134342Y0242248D01*
X0134342Y0240649D02*
X0126352Y0240649D01*
X0126588Y0239051D02*
X0134342Y0239051D01*
X0134342Y0237452D02*
X0125616Y0237452D01*
X0122160Y0237452D02*
X0121708Y0237452D01*
X0121144Y0235854D02*
X0134342Y0235854D01*
X0134342Y0234255D02*
X0075379Y0234255D01*
X0075381Y0232657D02*
X0134342Y0232657D01*
X0134342Y0231058D02*
X0075383Y0231058D01*
X0075385Y0229460D02*
X0098275Y0229460D01*
X0098280Y0229478D02*
X0098157Y0229020D01*
X0098157Y0226040D01*
X0105457Y0226040D01*
X0105457Y0230583D01*
X0099720Y0230583D01*
X0099263Y0230461D01*
X0098852Y0230224D01*
X0098517Y0229888D01*
X0098280Y0229478D01*
X0098157Y0227861D02*
X0075386Y0227861D01*
X0075388Y0226263D02*
X0098157Y0226263D01*
X0098157Y0224440D02*
X0098157Y0221460D01*
X0098280Y0221002D01*
X0098517Y0220591D01*
X0098852Y0220256D01*
X0099263Y0220019D01*
X0099720Y0219897D01*
X0105457Y0219897D01*
X0105457Y0224440D01*
X0107057Y0224440D01*
X0107057Y0226040D01*
X0114356Y0226040D01*
X0114356Y0229020D01*
X0114233Y0229478D01*
X0113996Y0229888D01*
X0113661Y0230224D01*
X0113251Y0230461D01*
X0112793Y0230583D01*
X0107057Y0230583D01*
X0107057Y0226040D01*
X0105457Y0226040D01*
X0105457Y0224440D01*
X0098157Y0224440D01*
X0098157Y0223066D02*
X0075392Y0223066D01*
X0075390Y0224664D02*
X0105457Y0224664D01*
X0105457Y0223066D02*
X0107057Y0223066D01*
X0107057Y0224440D02*
X0107057Y0219897D01*
X0112793Y0219897D01*
X0113251Y0220019D01*
X0113661Y0220256D01*
X0113996Y0220591D01*
X0114233Y0221002D01*
X0114356Y0221460D01*
X0114356Y0224440D01*
X0107057Y0224440D01*
X0107057Y0224664D02*
X0134342Y0224664D01*
X0134342Y0223066D02*
X0114356Y0223066D01*
X0114356Y0221467D02*
X0134342Y0221467D01*
X0134342Y0219869D02*
X0075396Y0219869D01*
X0075394Y0221467D02*
X0098157Y0221467D01*
X0105457Y0221467D02*
X0107057Y0221467D01*
X0107057Y0226263D02*
X0105457Y0226263D01*
X0105457Y0227861D02*
X0107057Y0227861D01*
X0107057Y0229460D02*
X0105457Y0229460D01*
X0108448Y0235854D02*
X0075377Y0235854D01*
X0075375Y0237452D02*
X0093628Y0237452D01*
X0093701Y0237275D02*
X0093963Y0236883D01*
X0094296Y0236550D01*
X0094688Y0236288D01*
X0095123Y0236108D01*
X0095585Y0236016D01*
X0097014Y0236016D01*
X0097014Y0239601D01*
X0093429Y0239601D01*
X0093429Y0238171D01*
X0093521Y0237710D01*
X0093701Y0237275D01*
X0093429Y0239051D02*
X0075373Y0239051D01*
X0075371Y0240649D02*
X0093429Y0240649D01*
X0093682Y0242248D02*
X0075370Y0242248D01*
X0075368Y0243846D02*
X0095078Y0243846D01*
X0097187Y0243846D02*
X0097555Y0243846D01*
X0097555Y0245445D02*
X0097187Y0245445D01*
X0097187Y0247043D02*
X0097555Y0247043D01*
X0097555Y0248642D02*
X0097187Y0248642D01*
X0097187Y0250240D02*
X0097555Y0250240D01*
X0097114Y0251369D02*
X0097114Y0254953D01*
X0093530Y0254953D01*
X0093530Y0253524D01*
X0093622Y0253062D01*
X0093802Y0252627D01*
X0094064Y0252236D01*
X0094396Y0251903D01*
X0094788Y0251641D01*
X0095223Y0251461D01*
X0095685Y0251369D01*
X0097114Y0251369D01*
X0097114Y0251839D02*
X0097483Y0251839D01*
X0097483Y0253437D02*
X0097114Y0253437D01*
X0097114Y0255036D02*
X0075354Y0255036D01*
X0075353Y0256634D02*
X0093530Y0256634D01*
X0094257Y0258233D02*
X0075351Y0258233D01*
X0075349Y0259831D02*
X0094406Y0259831D01*
X0093600Y0261430D02*
X0075347Y0261430D01*
X0075345Y0263028D02*
X0097184Y0263028D01*
X0097184Y0263189D02*
X0093600Y0263189D01*
X0093600Y0264618D01*
X0093692Y0265080D01*
X0093872Y0265515D01*
X0094134Y0265907D01*
X0094467Y0266240D01*
X0094858Y0266501D01*
X0095293Y0266682D01*
X0095755Y0266773D01*
X0097184Y0266773D01*
X0097184Y0263189D01*
X0097184Y0264627D02*
X0097553Y0264627D01*
X0097553Y0266225D02*
X0097184Y0266225D01*
X0094452Y0266225D02*
X0075341Y0266225D01*
X0075343Y0264627D02*
X0093602Y0264627D01*
X0097184Y0261430D02*
X0097553Y0261430D01*
X0097553Y0259831D02*
X0097184Y0259831D01*
X0097114Y0258233D02*
X0097483Y0258233D01*
X0097483Y0256634D02*
X0097114Y0256634D01*
X0100340Y0258233D02*
X0101728Y0258233D01*
X0101877Y0259831D02*
X0100332Y0259831D01*
X0106672Y0259831D02*
X0108698Y0259831D01*
X0108590Y0258233D02*
X0106679Y0258233D01*
X0106476Y0251839D02*
X0108631Y0251839D01*
X0108642Y0250240D02*
X0107040Y0250240D01*
X0107645Y0245445D02*
X0107968Y0245445D01*
X0108592Y0243846D02*
X0099664Y0243846D01*
X0100714Y0242248D02*
X0100995Y0242248D01*
X0097382Y0242248D02*
X0097014Y0242248D01*
X0097014Y0240649D02*
X0097382Y0240649D01*
X0097382Y0239051D02*
X0097014Y0239051D01*
X0097014Y0237452D02*
X0097382Y0237452D01*
X0100768Y0237452D02*
X0100865Y0237452D01*
X0107342Y0237452D02*
X0107884Y0237452D01*
X0107212Y0242248D02*
X0108618Y0242248D01*
X0114281Y0242248D02*
X0115311Y0242248D01*
X0115285Y0243846D02*
X0114475Y0243846D01*
X0114426Y0250240D02*
X0115335Y0250240D01*
X0115324Y0251839D02*
X0114424Y0251839D01*
X0114464Y0258233D02*
X0115283Y0258233D01*
X0115391Y0259831D02*
X0114293Y0259831D01*
X0114532Y0266225D02*
X0115152Y0266225D01*
X0108459Y0266225D02*
X0106625Y0266225D01*
X0101924Y0266225D02*
X0100285Y0266225D01*
X0100105Y0251839D02*
X0101932Y0251839D01*
X0101513Y0250240D02*
X0100669Y0250240D01*
X0094492Y0251839D02*
X0075358Y0251839D01*
X0075356Y0253437D02*
X0093547Y0253437D01*
X0094073Y0250240D02*
X0075360Y0250240D01*
X0075362Y0248642D02*
X0093603Y0248642D01*
X0093603Y0247043D02*
X0075364Y0247043D01*
X0075366Y0245445D02*
X0093677Y0245445D01*
X0114452Y0235854D02*
X0115141Y0235854D01*
X0114238Y0229460D02*
X0134342Y0229460D01*
X0134342Y0227861D02*
X0114356Y0227861D01*
X0114356Y0226263D02*
X0134342Y0226263D01*
X0138142Y0226263D02*
X0147203Y0226263D01*
X0146619Y0227861D02*
X0138142Y0227861D01*
X0138142Y0229460D02*
X0146619Y0229460D01*
X0146619Y0231058D02*
X0138142Y0231058D01*
X0138142Y0232657D02*
X0146782Y0232657D01*
X0146619Y0234255D02*
X0138142Y0234255D01*
X0138142Y0235854D02*
X0146612Y0235854D01*
X0145772Y0237452D02*
X0138142Y0237452D01*
X0138142Y0239051D02*
X0145772Y0239051D01*
X0145772Y0240649D02*
X0138142Y0240649D01*
X0138142Y0242248D02*
X0141989Y0242248D01*
X0140981Y0243846D02*
X0138142Y0243846D01*
X0138771Y0245445D02*
X0140976Y0245445D01*
X0141299Y0247043D02*
X0140370Y0247043D01*
X0138193Y0250240D02*
X0121119Y0250240D01*
X0121117Y0251839D02*
X0139791Y0251839D01*
X0158639Y0240649D02*
X0158738Y0240649D01*
X0158639Y0239051D02*
X0160336Y0239051D01*
X0162090Y0239051D02*
X0164253Y0239051D01*
X0166389Y0237452D02*
X0158639Y0237452D01*
X0160836Y0235854D02*
X0173548Y0235854D01*
X0173588Y0234255D02*
X0160836Y0234255D01*
X0160674Y0232657D02*
X0174622Y0232657D01*
X0178195Y0231058D02*
X0160836Y0231058D01*
X0160836Y0229460D02*
X0178195Y0229460D01*
X0178195Y0227861D02*
X0160836Y0227861D01*
X0160700Y0226263D02*
X0158663Y0226263D01*
X0157931Y0221467D02*
X0161591Y0221467D01*
X0164847Y0221467D02*
X0170840Y0221467D01*
X0170772Y0219869D02*
X0156791Y0219869D01*
X0152997Y0219869D02*
X0150409Y0219869D01*
X0148115Y0219869D02*
X0138142Y0219869D01*
X0138142Y0221467D02*
X0146259Y0221467D01*
X0145881Y0223066D02*
X0138142Y0223066D01*
X0138142Y0224664D02*
X0146270Y0224664D01*
X0146456Y0216672D02*
X0147809Y0216672D01*
X0147809Y0215073D02*
X0146456Y0215073D01*
X0147809Y0213474D02*
X0172848Y0213474D01*
X0171249Y0211876D02*
X0159498Y0211876D01*
X0159593Y0210277D02*
X0170772Y0210277D01*
X0170772Y0208679D02*
X0159593Y0208679D01*
X0159593Y0207080D02*
X0171611Y0207080D01*
X0173210Y0205482D02*
X0158883Y0205482D01*
X0159193Y0203883D02*
X0176303Y0203883D01*
X0176303Y0202285D02*
X0159193Y0202285D01*
X0159193Y0200686D02*
X0176303Y0200686D01*
X0176303Y0199088D02*
X0158599Y0199088D01*
X0158501Y0195891D02*
X0170485Y0195891D01*
X0170674Y0194292D02*
X0160100Y0194292D01*
X0154225Y0195891D02*
X0148501Y0195891D01*
X0150100Y0194292D02*
X0152626Y0194292D01*
X0152163Y0192694D02*
X0151426Y0192694D01*
X0149621Y0189408D02*
X0153681Y0185347D01*
X0152163Y0183829D01*
X0152163Y0181811D01*
X0151738Y0182236D01*
X0150563Y0182236D01*
X0150563Y0183829D01*
X0148103Y0186289D01*
X0144623Y0186289D01*
X0142163Y0183829D01*
X0142163Y0180350D01*
X0144623Y0177889D01*
X0148103Y0177889D01*
X0148849Y0178636D01*
X0150247Y0178636D01*
X0153609Y0175275D01*
X0152163Y0173829D01*
X0152163Y0172185D01*
X0151750Y0172599D01*
X0150695Y0173653D01*
X0150563Y0173653D01*
X0150563Y0173829D01*
X0148103Y0176289D01*
X0144623Y0176289D01*
X0142163Y0173829D01*
X0142163Y0170350D01*
X0144623Y0167889D01*
X0148103Y0167889D01*
X0149735Y0169522D01*
X0153796Y0165462D01*
X0152163Y0163829D01*
X0152163Y0160350D01*
X0153623Y0158889D01*
X0152109Y0158889D01*
X0150563Y0160435D01*
X0150563Y0163829D01*
X0148103Y0166289D01*
X0144623Y0166289D01*
X0142163Y0163829D01*
X0142163Y0160350D01*
X0144623Y0157889D01*
X0148017Y0157889D01*
X0150617Y0155289D01*
X0153623Y0155289D01*
X0152163Y0153829D01*
X0152163Y0151878D01*
X0150563Y0153478D01*
X0150563Y0153829D01*
X0148103Y0156289D01*
X0144623Y0156289D01*
X0142163Y0153829D01*
X0142163Y0150350D01*
X0144189Y0148324D01*
X0142257Y0148324D01*
X0141144Y0147211D01*
X0134215Y0140282D01*
X0134215Y0136199D01*
X0134129Y0136113D01*
X0134129Y0143881D01*
X0133016Y0144994D01*
X0122041Y0155969D01*
X0122370Y0155969D01*
X0123362Y0156380D01*
X0124122Y0157140D01*
X0124533Y0158132D01*
X0124533Y0159206D01*
X0124122Y0160199D01*
X0123733Y0160588D01*
X0123733Y0161815D01*
X0124081Y0161815D01*
X0124901Y0162635D01*
X0124901Y0168125D01*
X0124576Y0168450D01*
X0124606Y0168467D01*
X0124941Y0168803D01*
X0125178Y0169213D01*
X0125301Y0169671D01*
X0125301Y0171889D01*
X0121717Y0171889D01*
X0121717Y0172257D01*
X0125301Y0172257D01*
X0125301Y0174475D01*
X0125178Y0174933D01*
X0124941Y0175344D01*
X0124606Y0175679D01*
X0124196Y0175916D01*
X0123738Y0176038D01*
X0121717Y0176038D01*
X0121717Y0172257D01*
X0121348Y0172257D01*
X0121348Y0171889D01*
X0117764Y0171889D01*
X0117764Y0169671D01*
X0117886Y0169213D01*
X0118123Y0168803D01*
X0118459Y0168467D01*
X0118488Y0168450D01*
X0118190Y0168152D01*
X0113956Y0168152D01*
X0113956Y0170375D01*
X0113136Y0171195D01*
X0099378Y0171195D01*
X0098557Y0170375D01*
X0098557Y0162129D01*
X0099378Y0161309D01*
X0113136Y0161309D01*
X0113956Y0162129D01*
X0113956Y0164352D01*
X0118164Y0164352D01*
X0118164Y0162635D01*
X0118984Y0161815D01*
X0119933Y0161815D01*
X0119933Y0160588D01*
X0119544Y0160199D01*
X0119133Y0159206D01*
X0119133Y0158877D01*
X0117650Y0160359D01*
X0099244Y0160359D01*
X0096745Y0162858D01*
X0096745Y0175436D01*
X0103122Y0175436D01*
X0103128Y0175421D01*
X0104079Y0174470D01*
X0105322Y0173955D01*
X0106667Y0173955D01*
X0107909Y0174470D01*
X0108861Y0175421D01*
X0109375Y0176664D01*
X0109375Y0178009D01*
X0108861Y0179252D01*
X0107909Y0180203D01*
X0106667Y0180718D01*
X0105322Y0180718D01*
X0104079Y0180203D01*
X0103128Y0179252D01*
X0103122Y0179236D01*
X0096745Y0179236D01*
X0096745Y0185331D01*
X0097813Y0186399D01*
X0098557Y0186399D01*
X0098557Y0184176D01*
X0099378Y0183356D01*
X0113136Y0183356D01*
X0113956Y0184176D01*
X0113956Y0186399D01*
X0118814Y0186399D01*
X0130010Y0197595D01*
X0131123Y0198708D01*
X0131123Y0201478D01*
X0133725Y0201478D01*
X0133725Y0199649D01*
X0134545Y0198829D01*
X0139940Y0198829D01*
X0142664Y0196105D01*
X0144439Y0196105D01*
X0142163Y0193829D01*
X0142163Y0190350D01*
X0144623Y0187889D01*
X0148103Y0187889D01*
X0149621Y0189408D01*
X0148112Y0187898D02*
X0151130Y0187898D01*
X0152729Y0186300D02*
X0113956Y0186300D01*
X0113956Y0184701D02*
X0143035Y0184701D01*
X0142163Y0183103D02*
X0096745Y0183103D01*
X0096745Y0184701D02*
X0098557Y0184701D01*
X0098557Y0186300D02*
X0097714Y0186300D01*
X0095537Y0189497D02*
X0075432Y0189497D01*
X0075430Y0191095D02*
X0098557Y0191095D01*
X0098829Y0192694D02*
X0075428Y0192694D01*
X0075426Y0194292D02*
X0119998Y0194292D01*
X0119735Y0192694D02*
X0113684Y0192694D01*
X0113956Y0191095D02*
X0118136Y0191095D01*
X0120313Y0187898D02*
X0144614Y0187898D01*
X0143016Y0189497D02*
X0121912Y0189497D01*
X0123510Y0191095D02*
X0142163Y0191095D01*
X0142163Y0192694D02*
X0125109Y0192694D01*
X0126707Y0194292D02*
X0142626Y0194292D01*
X0144225Y0195891D02*
X0128306Y0195891D01*
X0129904Y0197489D02*
X0141279Y0197489D01*
X0142430Y0202285D02*
X0142780Y0202285D01*
X0142780Y0203883D02*
X0142430Y0203883D01*
X0142430Y0205482D02*
X0142780Y0205482D01*
X0142780Y0207080D02*
X0142430Y0207080D01*
X0143027Y0208679D02*
X0141618Y0208679D01*
X0146456Y0208679D02*
X0147809Y0208679D01*
X0147809Y0210277D02*
X0146456Y0210277D01*
X0146456Y0211876D02*
X0147809Y0211876D01*
X0151885Y0211876D02*
X0152150Y0211876D01*
X0152056Y0210277D02*
X0151885Y0210277D01*
X0152056Y0208679D02*
X0151239Y0208679D01*
X0151485Y0207080D02*
X0152056Y0207080D01*
X0151485Y0205482D02*
X0152765Y0205482D01*
X0152456Y0203883D02*
X0151485Y0203883D01*
X0151485Y0202285D02*
X0152456Y0202285D01*
X0151529Y0200686D02*
X0151485Y0200686D01*
X0153706Y0197489D02*
X0171263Y0197489D01*
X0171785Y0192694D02*
X0170395Y0192694D01*
X0176107Y0197489D02*
X0176303Y0197489D01*
X0176735Y0205482D02*
X0177363Y0205482D01*
X0177097Y0213474D02*
X0178267Y0213474D01*
X0177139Y0215073D02*
X0151885Y0215073D01*
X0151868Y0216672D02*
X0172020Y0216672D01*
X0170772Y0218270D02*
X0138142Y0218270D01*
X0134342Y0218270D02*
X0075398Y0218270D01*
X0075400Y0216672D02*
X0133725Y0216672D01*
X0133725Y0215073D02*
X0075401Y0215073D01*
X0075403Y0213474D02*
X0133725Y0213474D01*
X0133725Y0211876D02*
X0124586Y0211876D01*
X0127716Y0210277D02*
X0133725Y0210277D01*
X0134537Y0208679D02*
X0129315Y0208679D01*
X0130913Y0207080D02*
X0133725Y0207080D01*
X0133725Y0205482D02*
X0131123Y0205482D01*
X0131123Y0200686D02*
X0133725Y0200686D01*
X0134286Y0199088D02*
X0131123Y0199088D01*
X0119288Y0199088D02*
X0113956Y0199088D01*
X0113956Y0200686D02*
X0117849Y0200686D01*
X0118583Y0197489D02*
X0075422Y0197489D01*
X0075424Y0195891D02*
X0118609Y0195891D01*
X0117896Y0205482D02*
X0113956Y0205482D01*
X0113956Y0207080D02*
X0117849Y0207080D01*
X0117849Y0208679D02*
X0075409Y0208679D01*
X0075407Y0210277D02*
X0117849Y0210277D01*
X0117849Y0211876D02*
X0075405Y0211876D01*
X0075411Y0207080D02*
X0098557Y0207080D01*
X0098557Y0205482D02*
X0075413Y0205482D01*
X0075415Y0203883D02*
X0098557Y0203883D01*
X0098557Y0202285D02*
X0075416Y0202285D01*
X0075418Y0200686D02*
X0098557Y0200686D01*
X0098557Y0199088D02*
X0075420Y0199088D01*
X0075433Y0187898D02*
X0093939Y0187898D01*
X0092945Y0186300D02*
X0075435Y0186300D01*
X0075437Y0184701D02*
X0092945Y0184701D01*
X0092945Y0183103D02*
X0075439Y0183103D01*
X0075441Y0181504D02*
X0092945Y0181504D01*
X0092945Y0179906D02*
X0075443Y0179906D01*
X0075445Y0178307D02*
X0092945Y0178307D01*
X0092945Y0176709D02*
X0075447Y0176709D01*
X0075448Y0175110D02*
X0092945Y0175110D01*
X0092945Y0173512D02*
X0075450Y0173512D01*
X0075452Y0171913D02*
X0092945Y0171913D01*
X0092945Y0170315D02*
X0075454Y0170315D01*
X0075456Y0168716D02*
X0092945Y0168716D01*
X0092945Y0167118D02*
X0075458Y0167118D01*
X0075460Y0165519D02*
X0092945Y0165519D01*
X0092945Y0163921D02*
X0075462Y0163921D01*
X0075463Y0162322D02*
X0092945Y0162322D01*
X0093506Y0160724D02*
X0075465Y0160724D01*
X0075467Y0159125D02*
X0077685Y0159125D01*
X0078330Y0159125D02*
X0078994Y0159125D01*
X0079638Y0159125D02*
X0095104Y0159125D01*
X0096703Y0157527D02*
X0082502Y0157527D01*
X0083505Y0155928D02*
X0116708Y0155928D01*
X0118306Y0154330D02*
X0078994Y0154330D01*
X0078994Y0155928D02*
X0078330Y0155928D01*
X0078330Y0157527D02*
X0078994Y0157527D01*
X0078994Y0152731D02*
X0078330Y0152731D01*
X0078330Y0151133D02*
X0078994Y0151133D01*
X0078994Y0149534D02*
X0078330Y0149534D01*
X0077985Y0147936D02*
X0079338Y0147936D01*
X0079338Y0146337D02*
X0077985Y0146337D01*
X0077985Y0144739D02*
X0079338Y0144739D01*
X0079338Y0143140D02*
X0085234Y0143140D01*
X0085234Y0144739D02*
X0083513Y0144739D01*
X0083513Y0146337D02*
X0085234Y0146337D01*
X0085234Y0146341D02*
X0085234Y0139230D01*
X0085194Y0139190D01*
X0084957Y0138779D01*
X0084834Y0138321D01*
X0084834Y0137297D01*
X0086292Y0137297D01*
X0086291Y0137297D01*
X0084834Y0137297D01*
X0084834Y0136273D01*
X0084903Y0136017D01*
X0084834Y0135762D01*
X0084834Y0134738D01*
X0086291Y0134738D01*
X0086292Y0134738D01*
X0084834Y0134738D01*
X0084834Y0133713D01*
X0084957Y0133256D01*
X0085194Y0132845D01*
X0085529Y0132510D01*
X0085648Y0132441D01*
X0085550Y0132306D01*
X0085237Y0131693D01*
X0085025Y0131038D01*
X0084917Y0130358D01*
X0084917Y0130013D01*
X0084917Y0129669D01*
X0085025Y0128989D01*
X0085237Y0128334D01*
X0085550Y0127721D01*
X0085955Y0127163D01*
X0086442Y0126677D01*
X0086999Y0126272D01*
X0087612Y0125959D01*
X0088267Y0125746D01*
X0088947Y0125639D01*
X0089292Y0125639D01*
X0089636Y0125639D01*
X0090316Y0125746D01*
X0090971Y0125959D01*
X0091585Y0126272D01*
X0092142Y0126677D01*
X0092629Y0127163D01*
X0093033Y0127721D01*
X0093346Y0128334D01*
X0093559Y0128989D01*
X0093666Y0129669D01*
X0093666Y0130013D01*
X0089292Y0130013D01*
X0089292Y0130013D01*
X0089292Y0125639D01*
X0089292Y0130013D01*
X0089292Y0130013D01*
X0093666Y0130013D01*
X0093666Y0130358D01*
X0093559Y0131038D01*
X0093346Y0131693D01*
X0093033Y0132306D01*
X0092935Y0132441D01*
X0093054Y0132510D01*
X0093390Y0132845D01*
X0093627Y0133256D01*
X0093749Y0133713D01*
X0093749Y0134738D01*
X0093749Y0135762D01*
X0093681Y0136017D01*
X0093749Y0136273D01*
X0093749Y0137062D01*
X0094806Y0137062D01*
X0094946Y0136983D01*
X0095226Y0137062D01*
X0097185Y0137062D01*
X0098006Y0137882D01*
X0098006Y0140813D01*
X0097896Y0140923D01*
X0098006Y0141032D01*
X0098006Y0143963D01*
X0097319Y0144649D01*
X0099238Y0144649D01*
X0098552Y0143963D01*
X0098552Y0141032D01*
X0098661Y0140923D01*
X0098552Y0140813D01*
X0098552Y0137882D01*
X0099372Y0137062D01*
X0103288Y0137062D01*
X0103374Y0137148D01*
X0103679Y0137148D01*
X0104267Y0136560D01*
X0105259Y0136149D01*
X0106333Y0136149D01*
X0106763Y0136327D01*
X0106763Y0127626D01*
X0105618Y0126481D01*
X0105618Y0122443D01*
X0104903Y0121727D01*
X0104903Y0117067D01*
X0105723Y0116247D01*
X0109983Y0116247D01*
X0110803Y0117067D01*
X0110803Y0121727D01*
X0110037Y0122493D01*
X0110037Y0123396D01*
X0110018Y0123415D01*
X0110018Y0124659D01*
X0111163Y0125803D01*
X0111163Y0145159D01*
X0109874Y0146448D01*
X0107272Y0149049D01*
X0094473Y0149049D01*
X0093245Y0147822D01*
X0093346Y0148019D01*
X0093559Y0148674D01*
X0093666Y0149354D01*
X0093666Y0149698D01*
X0089292Y0149698D01*
X0089292Y0149699D01*
X0089292Y0149699D01*
X0089292Y0154073D01*
X0089636Y0154073D01*
X0090316Y0153966D01*
X0090971Y0153753D01*
X0091585Y0153440D01*
X0092142Y0153035D01*
X0092629Y0152548D01*
X0093033Y0151991D01*
X0093346Y0151378D01*
X0093559Y0150723D01*
X0093666Y0150043D01*
X0093666Y0149699D01*
X0089292Y0149699D01*
X0089292Y0154073D01*
X0088947Y0154073D01*
X0088267Y0153966D01*
X0087612Y0153753D01*
X0086999Y0153440D01*
X0086442Y0153035D01*
X0085955Y0152548D01*
X0085550Y0151991D01*
X0085237Y0151378D01*
X0085025Y0150723D01*
X0084917Y0150043D01*
X0084917Y0149699D01*
X0089292Y0149699D01*
X0089292Y0149698D01*
X0084917Y0149698D01*
X0084917Y0149354D01*
X0085025Y0148674D01*
X0085237Y0148019D01*
X0085550Y0147406D01*
X0085865Y0146972D01*
X0085234Y0146341D01*
X0085280Y0147936D02*
X0083069Y0147936D01*
X0081303Y0149534D02*
X0084917Y0149534D01*
X0085158Y0151133D02*
X0082987Y0151133D01*
X0083706Y0152731D02*
X0086137Y0152731D01*
X0089292Y0152731D02*
X0089292Y0152731D01*
X0089292Y0151133D02*
X0089292Y0151133D01*
X0092446Y0152731D02*
X0119905Y0152731D01*
X0121503Y0151133D02*
X0093426Y0151133D01*
X0093666Y0149534D02*
X0123102Y0149534D01*
X0124700Y0147936D02*
X0108386Y0147936D01*
X0109985Y0146337D02*
X0126299Y0146337D01*
X0127897Y0144739D02*
X0111163Y0144739D01*
X0111163Y0143140D02*
X0129496Y0143140D01*
X0130329Y0141541D02*
X0111163Y0141541D01*
X0111163Y0139943D02*
X0130329Y0139943D01*
X0130329Y0138344D02*
X0111163Y0138344D01*
X0111163Y0136746D02*
X0130329Y0136746D01*
X0130329Y0135147D02*
X0111163Y0135147D01*
X0111163Y0133549D02*
X0130329Y0133549D01*
X0130329Y0131950D02*
X0111163Y0131950D01*
X0111163Y0130352D02*
X0130329Y0130352D01*
X0130329Y0128753D02*
X0111163Y0128753D01*
X0111163Y0127155D02*
X0130329Y0127155D01*
X0130329Y0125556D02*
X0110916Y0125556D01*
X0110018Y0123958D02*
X0130598Y0123958D01*
X0131571Y0122359D02*
X0132196Y0122359D01*
X0131560Y0117564D02*
X0141731Y0117564D01*
X0143244Y0119162D02*
X0150456Y0119162D01*
X0149622Y0120761D02*
X0142138Y0120761D01*
X0142138Y0122359D02*
X0149622Y0122359D01*
X0148727Y0123958D02*
X0143122Y0123958D01*
X0144842Y0117564D02*
X0152054Y0117564D01*
X0144916Y0114367D02*
X0113963Y0114367D01*
X0114603Y0112768D02*
X0144947Y0112768D01*
X0144979Y0111170D02*
X0114603Y0111170D01*
X0115257Y0109571D02*
X0120061Y0109571D01*
X0119850Y0107973D02*
X0116855Y0107973D01*
X0118283Y0106374D02*
X0124418Y0106374D01*
X0125181Y0106374D02*
X0145075Y0106374D01*
X0145106Y0104776D02*
X0129749Y0104776D01*
X0129553Y0103177D02*
X0145138Y0103177D01*
X0145170Y0101579D02*
X0120269Y0101579D01*
X0124418Y0103177D02*
X0125180Y0103177D01*
X0125180Y0104776D02*
X0124418Y0104776D01*
X0124418Y0107973D02*
X0125180Y0107973D01*
X0125180Y0109571D02*
X0124418Y0109571D01*
X0129538Y0109571D02*
X0145011Y0109571D01*
X0145043Y0107973D02*
X0129749Y0107973D01*
X0127316Y0117564D02*
X0110803Y0117564D01*
X0110803Y0119162D02*
X0126308Y0119162D01*
X0126303Y0120761D02*
X0110803Y0120761D01*
X0110171Y0122359D02*
X0127304Y0122359D01*
X0134129Y0136746D02*
X0134215Y0136746D01*
X0134215Y0138344D02*
X0134129Y0138344D01*
X0134129Y0139943D02*
X0134215Y0139943D01*
X0134129Y0141541D02*
X0135475Y0141541D01*
X0134129Y0143140D02*
X0137073Y0143140D01*
X0138672Y0144739D02*
X0133271Y0144739D01*
X0131673Y0146337D02*
X0140270Y0146337D01*
X0141869Y0147936D02*
X0130074Y0147936D01*
X0128476Y0149534D02*
X0142979Y0149534D01*
X0142163Y0151133D02*
X0126877Y0151133D01*
X0125279Y0152731D02*
X0142163Y0152731D01*
X0142664Y0154330D02*
X0123680Y0154330D01*
X0122082Y0155928D02*
X0144262Y0155928D01*
X0143387Y0159125D02*
X0124533Y0159125D01*
X0124282Y0157527D02*
X0148380Y0157527D01*
X0148464Y0155928D02*
X0149979Y0155928D01*
X0150062Y0154330D02*
X0152664Y0154330D01*
X0152163Y0152731D02*
X0151310Y0152731D01*
X0151873Y0159125D02*
X0153387Y0159125D01*
X0152163Y0160724D02*
X0150563Y0160724D01*
X0150563Y0162322D02*
X0152163Y0162322D01*
X0152255Y0163921D02*
X0150471Y0163921D01*
X0148873Y0165519D02*
X0153738Y0165519D01*
X0152139Y0167118D02*
X0124901Y0167118D01*
X0124855Y0168716D02*
X0143796Y0168716D01*
X0142198Y0170315D02*
X0125301Y0170315D01*
X0125301Y0173512D02*
X0142163Y0173512D01*
X0142163Y0171913D02*
X0121717Y0171913D01*
X0121348Y0171913D02*
X0096745Y0171913D01*
X0096745Y0170315D02*
X0098557Y0170315D01*
X0098557Y0168716D02*
X0096745Y0168716D01*
X0096745Y0167118D02*
X0098557Y0167118D01*
X0098557Y0165519D02*
X0096745Y0165519D01*
X0096745Y0163921D02*
X0098557Y0163921D01*
X0098557Y0162322D02*
X0097281Y0162322D01*
X0098880Y0160724D02*
X0119933Y0160724D01*
X0119133Y0159125D02*
X0118885Y0159125D01*
X0118477Y0162322D02*
X0113956Y0162322D01*
X0113956Y0163921D02*
X0118164Y0163921D01*
X0118210Y0168716D02*
X0113956Y0168716D01*
X0113956Y0170315D02*
X0117764Y0170315D01*
X0117764Y0172257D02*
X0121348Y0172257D01*
X0121348Y0176038D01*
X0119327Y0176038D01*
X0118869Y0175916D01*
X0118459Y0175679D01*
X0118123Y0175344D01*
X0117886Y0174933D01*
X0117764Y0174475D01*
X0117764Y0172257D01*
X0117764Y0173512D02*
X0096745Y0173512D01*
X0096745Y0175110D02*
X0103439Y0175110D01*
X0103782Y0179906D02*
X0096745Y0179906D01*
X0096745Y0181504D02*
X0142163Y0181504D01*
X0142607Y0179906D02*
X0108207Y0179906D01*
X0109252Y0178307D02*
X0144205Y0178307D01*
X0143444Y0175110D02*
X0125076Y0175110D01*
X0121717Y0175110D02*
X0121348Y0175110D01*
X0121348Y0173512D02*
X0121717Y0173512D01*
X0117989Y0175110D02*
X0108550Y0175110D01*
X0109375Y0176709D02*
X0152174Y0176709D01*
X0153444Y0175110D02*
X0149282Y0175110D01*
X0150837Y0173512D02*
X0152163Y0173512D01*
X0150576Y0178307D02*
X0148521Y0178307D01*
X0150563Y0183103D02*
X0152163Y0183103D01*
X0153035Y0184701D02*
X0149691Y0184701D01*
X0148930Y0168716D02*
X0150541Y0168716D01*
X0143853Y0165519D02*
X0124901Y0165519D01*
X0124901Y0163921D02*
X0142255Y0163921D01*
X0142163Y0162322D02*
X0124588Y0162322D01*
X0123733Y0160724D02*
X0142163Y0160724D01*
X0108963Y0144248D02*
X0108963Y0126714D01*
X0107818Y0125570D01*
X0107818Y0122504D01*
X0107837Y0122485D01*
X0107837Y0119413D01*
X0107853Y0119397D01*
X0104903Y0119162D02*
X0075514Y0119162D01*
X0075516Y0117564D02*
X0104903Y0117564D01*
X0104903Y0120761D02*
X0080297Y0120761D01*
X0078994Y0120761D02*
X0078330Y0120761D01*
X0077026Y0120761D02*
X0075512Y0120761D01*
X0078330Y0122359D02*
X0078994Y0122359D01*
X0078994Y0123958D02*
X0078330Y0123958D01*
X0078994Y0125556D02*
X0105618Y0125556D01*
X0105618Y0123958D02*
X0083561Y0123958D01*
X0082662Y0122359D02*
X0105535Y0122359D01*
X0106292Y0127155D02*
X0092620Y0127155D01*
X0093482Y0128753D02*
X0106763Y0128753D01*
X0106763Y0130352D02*
X0093666Y0130352D01*
X0093215Y0131950D02*
X0106763Y0131950D01*
X0106763Y0133549D02*
X0093705Y0133549D01*
X0093749Y0134738D02*
X0092292Y0134738D01*
X0093749Y0134738D01*
X0093749Y0135147D02*
X0106763Y0135147D01*
X0104081Y0136746D02*
X0093749Y0136746D01*
X0092292Y0134738D02*
X0092292Y0134738D01*
X0089292Y0134738D02*
X0089292Y0130014D01*
X0089292Y0130014D01*
X0089292Y0134388D01*
X0089292Y0134738D01*
X0089292Y0134738D01*
X0089292Y0137297D01*
X0089292Y0137297D01*
X0089292Y0134738D01*
X0089292Y0134738D01*
X0089292Y0135147D02*
X0089292Y0135147D01*
X0089292Y0133549D02*
X0089292Y0133549D01*
X0089292Y0131950D02*
X0089292Y0131950D01*
X0089292Y0130352D02*
X0089292Y0130352D01*
X0089292Y0130013D02*
X0089292Y0130013D01*
X0084917Y0130013D01*
X0089292Y0130013D01*
X0089292Y0128753D02*
X0089292Y0128753D01*
X0089292Y0127155D02*
X0089292Y0127155D01*
X0085963Y0127155D02*
X0083650Y0127155D01*
X0082860Y0128753D02*
X0085101Y0128753D01*
X0084917Y0130352D02*
X0080962Y0130352D01*
X0078994Y0130352D02*
X0078330Y0130352D01*
X0078330Y0128753D02*
X0078994Y0128753D01*
X0078994Y0127155D02*
X0078330Y0127155D01*
X0076362Y0130352D02*
X0075501Y0130352D01*
X0077985Y0131950D02*
X0079338Y0131950D01*
X0079338Y0133549D02*
X0077985Y0133549D01*
X0077985Y0135147D02*
X0079338Y0135147D01*
X0079338Y0136595D02*
X0077985Y0136595D01*
X0077985Y0140672D01*
X0077985Y0143116D01*
X0079338Y0143116D01*
X0079338Y0136595D01*
X0079338Y0136746D02*
X0077985Y0136746D01*
X0077985Y0138344D02*
X0079338Y0138344D01*
X0079338Y0139943D02*
X0077985Y0139943D01*
X0077985Y0141541D02*
X0079338Y0141541D01*
X0083513Y0141541D02*
X0085234Y0141541D01*
X0085234Y0139943D02*
X0083273Y0139943D01*
X0083513Y0138344D02*
X0084840Y0138344D01*
X0084834Y0136746D02*
X0083513Y0136746D01*
X0083513Y0135147D02*
X0084834Y0135147D01*
X0084878Y0133549D02*
X0083513Y0133549D01*
X0083205Y0131950D02*
X0085369Y0131950D01*
X0089292Y0136746D02*
X0089292Y0136746D01*
X0089292Y0139856D02*
X0094322Y0139856D01*
X0095228Y0139348D01*
X0098006Y0139943D02*
X0098552Y0139943D01*
X0098552Y0141541D02*
X0098006Y0141541D01*
X0098006Y0143140D02*
X0098552Y0143140D01*
X0101330Y0142497D02*
X0105486Y0142497D01*
X0105486Y0142647D01*
X0105796Y0139348D02*
X0101330Y0139348D01*
X0098552Y0138344D02*
X0098006Y0138344D01*
X0095228Y0142497D02*
X0094322Y0142415D01*
X0089292Y0142415D01*
X0089292Y0144974D02*
X0093509Y0144974D01*
X0095384Y0146849D01*
X0106361Y0146849D01*
X0108963Y0144248D01*
X0105796Y0139348D02*
X0105796Y0138849D01*
X0093359Y0147936D02*
X0093303Y0147936D01*
X0076020Y0149534D02*
X0075478Y0149534D01*
X0075518Y0115965D02*
X0143330Y0115965D01*
X0162154Y0127155D02*
X0164616Y0127155D01*
X0164188Y0128753D02*
X0162972Y0128753D01*
X0176206Y0106306D02*
X0177773Y0104740D01*
X0181252Y0104740D01*
X0182575Y0106062D01*
X0182575Y0104547D01*
X0181167Y0103140D01*
X0177773Y0103140D01*
X0175313Y0100679D01*
X0175313Y0097200D01*
X0177773Y0094740D01*
X0181252Y0094740D01*
X0183713Y0097200D01*
X0183713Y0100594D01*
X0185120Y0102002D01*
X0186175Y0103056D01*
X0186175Y0106338D01*
X0187773Y0104740D01*
X0191252Y0104740D01*
X0192870Y0106357D01*
X0192870Y0104843D01*
X0191167Y0103140D01*
X0187773Y0103140D01*
X0185313Y0100679D01*
X0185313Y0097200D01*
X0187773Y0094740D01*
X0191252Y0094740D01*
X0192797Y0096284D01*
X0192797Y0058008D01*
X0186742Y0051953D01*
X0185629Y0050840D01*
X0185629Y0034860D01*
X0170269Y0034860D01*
X0170269Y0094740D01*
X0171252Y0094740D01*
X0173713Y0097200D01*
X0173713Y0100594D01*
X0176206Y0103088D01*
X0176206Y0106306D01*
X0176206Y0104776D02*
X0177737Y0104776D01*
X0176206Y0103177D02*
X0181205Y0103177D01*
X0181288Y0104776D02*
X0182575Y0104776D01*
X0186175Y0104776D02*
X0187737Y0104776D01*
X0186175Y0103177D02*
X0191205Y0103177D01*
X0191288Y0104776D02*
X0192803Y0104776D01*
X0186212Y0101579D02*
X0184697Y0101579D01*
X0185120Y0102002D02*
X0185120Y0102002D01*
X0185313Y0099980D02*
X0183713Y0099980D01*
X0183713Y0098382D02*
X0185313Y0098382D01*
X0185729Y0096783D02*
X0183296Y0096783D01*
X0181697Y0095185D02*
X0187328Y0095185D01*
X0191697Y0095185D02*
X0192797Y0095185D01*
X0192797Y0093586D02*
X0170269Y0093586D01*
X0170269Y0091988D02*
X0192797Y0091988D01*
X0192797Y0090389D02*
X0170269Y0090389D01*
X0170269Y0088791D02*
X0192797Y0088791D01*
X0192797Y0087192D02*
X0170269Y0087192D01*
X0170269Y0085594D02*
X0192797Y0085594D01*
X0192797Y0083995D02*
X0170269Y0083995D01*
X0170269Y0082397D02*
X0192797Y0082397D01*
X0192797Y0080798D02*
X0170269Y0080798D01*
X0170269Y0079200D02*
X0192797Y0079200D01*
X0192797Y0077601D02*
X0170269Y0077601D01*
X0170269Y0076003D02*
X0192797Y0076003D01*
X0192797Y0074404D02*
X0170269Y0074404D01*
X0170269Y0072805D02*
X0192797Y0072805D01*
X0192797Y0071207D02*
X0170269Y0071207D01*
X0170269Y0069608D02*
X0192797Y0069608D01*
X0192797Y0068010D02*
X0170269Y0068010D01*
X0170269Y0066411D02*
X0192797Y0066411D01*
X0192797Y0064813D02*
X0170269Y0064813D01*
X0170269Y0063214D02*
X0192797Y0063214D01*
X0192797Y0061616D02*
X0170269Y0061616D01*
X0170269Y0060017D02*
X0192797Y0060017D01*
X0192797Y0058419D02*
X0170269Y0058419D01*
X0170269Y0056820D02*
X0191609Y0056820D01*
X0190010Y0055222D02*
X0170269Y0055222D01*
X0170269Y0053623D02*
X0188412Y0053623D01*
X0186813Y0052025D02*
X0170269Y0052025D01*
X0170269Y0050426D02*
X0185629Y0050426D01*
X0185629Y0048828D02*
X0170269Y0048828D01*
X0170269Y0047229D02*
X0185629Y0047229D01*
X0185629Y0045631D02*
X0170269Y0045631D01*
X0170269Y0044032D02*
X0185629Y0044032D01*
X0185629Y0042434D02*
X0170269Y0042434D01*
X0170269Y0040835D02*
X0185629Y0040835D01*
X0185629Y0039237D02*
X0170269Y0039237D01*
X0170269Y0037638D02*
X0185629Y0037638D01*
X0185629Y0036040D02*
X0170269Y0036040D01*
X0166669Y0036040D02*
X0111337Y0036040D01*
X0111332Y0037638D02*
X0166669Y0037638D01*
X0166669Y0039237D02*
X0111327Y0039237D01*
X0111323Y0040835D02*
X0166669Y0040835D01*
X0166669Y0042434D02*
X0111318Y0042434D01*
X0111314Y0044032D02*
X0166669Y0044032D01*
X0166669Y0045631D02*
X0111309Y0045631D01*
X0111304Y0047229D02*
X0166669Y0047229D01*
X0166669Y0048828D02*
X0111300Y0048828D01*
X0111295Y0050426D02*
X0166669Y0050426D01*
X0166669Y0052025D02*
X0111290Y0052025D01*
X0111286Y0053623D02*
X0166669Y0053623D01*
X0166669Y0055222D02*
X0111281Y0055222D01*
X0111276Y0056820D02*
X0166669Y0056820D01*
X0166669Y0058419D02*
X0111272Y0058419D01*
X0111267Y0060017D02*
X0166669Y0060017D01*
X0166669Y0061616D02*
X0111262Y0061616D01*
X0111258Y0063214D02*
X0166669Y0063214D01*
X0166669Y0064813D02*
X0111253Y0064813D01*
X0111231Y0066411D02*
X0166669Y0066411D01*
X0166669Y0068010D02*
X0103460Y0068010D01*
X0103460Y0069608D02*
X0166669Y0069608D01*
X0166669Y0080798D02*
X0159698Y0080798D01*
X0160674Y0082397D02*
X0166669Y0082397D01*
X0166669Y0083995D02*
X0160674Y0083995D01*
X0160674Y0085594D02*
X0166669Y0085594D01*
X0166669Y0087192D02*
X0160460Y0087192D01*
X0153562Y0090389D02*
X0149379Y0090389D01*
X0147396Y0088791D02*
X0129349Y0088791D01*
X0129349Y0090389D02*
X0145447Y0090389D01*
X0145258Y0091988D02*
X0128555Y0091988D01*
X0128571Y0093586D02*
X0145258Y0093586D01*
X0145202Y0099980D02*
X0129349Y0099980D01*
X0121028Y0093586D02*
X0119599Y0093586D01*
X0121044Y0091988D02*
X0117926Y0091988D01*
X0112726Y0091988D02*
X0103460Y0091988D01*
X0103460Y0090389D02*
X0105281Y0090389D01*
X0105177Y0088791D02*
X0103460Y0088791D01*
X0103460Y0087192D02*
X0105177Y0087192D01*
X0105177Y0085594D02*
X0103460Y0085594D01*
X0103460Y0083995D02*
X0146451Y0083995D01*
X0146451Y0082397D02*
X0103460Y0082397D01*
X0103460Y0080798D02*
X0146561Y0080798D01*
X0145489Y0079200D02*
X0103460Y0079200D01*
X0103460Y0077601D02*
X0145261Y0077601D01*
X0145948Y0076003D02*
X0103460Y0076003D01*
X0108958Y0085594D02*
X0109326Y0085594D01*
X0109326Y0087192D02*
X0108958Y0087192D01*
X0108958Y0088791D02*
X0109326Y0088791D01*
X0109326Y0090389D02*
X0108958Y0090389D01*
X0111052Y0093586D02*
X0103654Y0093586D01*
X0104324Y0095185D02*
X0110382Y0095185D01*
X0110382Y0096783D02*
X0104324Y0096783D01*
X0104324Y0098382D02*
X0110382Y0098382D01*
X0110382Y0099980D02*
X0104324Y0099980D01*
X0104324Y0101579D02*
X0110382Y0101579D01*
X0110382Y0103177D02*
X0104324Y0103177D01*
X0104324Y0104776D02*
X0110382Y0104776D01*
X0111100Y0106374D02*
X0075529Y0106374D01*
X0075531Y0104776D02*
X0094438Y0104776D01*
X0094438Y0103177D02*
X0075533Y0103177D01*
X0075535Y0101579D02*
X0094438Y0101579D01*
X0094438Y0099980D02*
X0075537Y0099980D01*
X0075539Y0098382D02*
X0094438Y0098382D01*
X0101923Y0108247D02*
X0106183Y0108247D01*
X0107003Y0109067D01*
X0107003Y0113727D01*
X0106183Y0114547D01*
X0101923Y0114547D01*
X0101103Y0113727D01*
X0101103Y0109067D01*
X0101923Y0108247D01*
X0101103Y0109571D02*
X0075525Y0109571D01*
X0075527Y0107973D02*
X0109501Y0107973D01*
X0108703Y0109571D02*
X0107003Y0109571D01*
X0107003Y0111170D02*
X0108703Y0111170D01*
X0108703Y0112768D02*
X0107003Y0112768D01*
X0106363Y0114367D02*
X0109342Y0114367D01*
X0101742Y0114367D02*
X0075520Y0114367D01*
X0075522Y0112768D02*
X0101103Y0112768D01*
X0101103Y0111170D02*
X0075524Y0111170D01*
X0075576Y0066411D02*
X0078320Y0066411D01*
X0078320Y0064813D02*
X0075578Y0064813D01*
X0075580Y0063214D02*
X0078320Y0063214D01*
X0078320Y0061616D02*
X0075582Y0061616D01*
X0075584Y0060017D02*
X0078320Y0060017D01*
X0078320Y0058419D02*
X0075586Y0058419D01*
X0075587Y0056820D02*
X0078320Y0056820D01*
X0078320Y0055222D02*
X0075589Y0055222D01*
X0075591Y0053623D02*
X0078320Y0053623D01*
X0078320Y0052025D02*
X0075593Y0052025D01*
X0075595Y0050426D02*
X0078320Y0050426D01*
X0078320Y0048828D02*
X0075597Y0048828D01*
X0075599Y0047229D02*
X0078320Y0047229D01*
X0119400Y0085594D02*
X0120250Y0085594D01*
X0129349Y0085594D02*
X0146451Y0085594D01*
X0146725Y0087192D02*
X0129349Y0087192D01*
X0164666Y0098382D02*
X0165313Y0098382D01*
X0171697Y0095185D02*
X0177328Y0095185D01*
X0175729Y0096783D02*
X0173296Y0096783D01*
X0173713Y0098382D02*
X0175313Y0098382D01*
X0175313Y0099980D02*
X0173713Y0099980D01*
X0174697Y0101579D02*
X0176212Y0101579D01*
X0216515Y0095997D02*
X0217613Y0094900D01*
X0217613Y0085258D01*
X0219850Y0083020D01*
X0219850Y0080873D01*
X0220670Y0080053D01*
X0225223Y0080053D01*
X0225263Y0080012D01*
X0225673Y0079775D01*
X0226131Y0079653D01*
X0227254Y0079653D01*
X0227254Y0083421D01*
X0227254Y0083421D01*
X0227254Y0079653D01*
X0228377Y0079653D01*
X0228835Y0079775D01*
X0229245Y0080012D01*
X0229286Y0080053D01*
X0231279Y0080053D01*
X0231330Y0080104D01*
X0231330Y0078273D01*
X0231453Y0077815D01*
X0231690Y0077404D01*
X0232025Y0077069D01*
X0232055Y0077052D01*
X0231730Y0076727D01*
X0231730Y0076693D01*
X0231279Y0077144D01*
X0220670Y0077144D01*
X0219850Y0076324D01*
X0219850Y0071227D01*
X0220670Y0070407D01*
X0222444Y0070407D01*
X0222444Y0057670D01*
X0221716Y0056943D01*
X0218289Y0056943D01*
X0217469Y0056122D01*
X0217469Y0051026D01*
X0218289Y0050206D01*
X0220112Y0050206D01*
X0220112Y0037133D01*
X0219552Y0037692D01*
X0216515Y0040729D01*
X0216515Y0095997D01*
X0216515Y0095185D02*
X0217328Y0095185D01*
X0217613Y0093586D02*
X0216515Y0093586D01*
X0216515Y0091988D02*
X0217613Y0091988D01*
X0217613Y0090389D02*
X0216515Y0090389D01*
X0216515Y0088791D02*
X0217613Y0088791D01*
X0217613Y0087192D02*
X0216515Y0087192D01*
X0216515Y0085594D02*
X0217613Y0085594D01*
X0216515Y0083995D02*
X0218875Y0083995D01*
X0219850Y0082397D02*
X0216515Y0082397D01*
X0216515Y0080798D02*
X0219925Y0080798D01*
X0216515Y0079200D02*
X0231330Y0079200D01*
X0231576Y0077601D02*
X0216515Y0077601D01*
X0216515Y0076003D02*
X0219850Y0076003D01*
X0219850Y0074404D02*
X0216515Y0074404D01*
X0216515Y0072805D02*
X0219850Y0072805D01*
X0219870Y0071207D02*
X0216515Y0071207D01*
X0216515Y0069608D02*
X0222444Y0069608D01*
X0222444Y0068010D02*
X0216515Y0068010D01*
X0216515Y0066411D02*
X0222444Y0066411D01*
X0222444Y0064813D02*
X0216515Y0064813D01*
X0216515Y0063214D02*
X0222444Y0063214D01*
X0222444Y0061616D02*
X0216515Y0061616D01*
X0216515Y0060017D02*
X0222444Y0060017D01*
X0222444Y0058419D02*
X0216515Y0058419D01*
X0216515Y0056820D02*
X0218167Y0056820D01*
X0217469Y0055222D02*
X0216515Y0055222D01*
X0216515Y0053623D02*
X0217469Y0053623D01*
X0217469Y0052025D02*
X0216515Y0052025D01*
X0216515Y0050426D02*
X0218069Y0050426D01*
X0216515Y0048828D02*
X0220112Y0048828D01*
X0220112Y0047229D02*
X0216515Y0047229D01*
X0216515Y0045631D02*
X0220112Y0045631D01*
X0220112Y0044032D02*
X0216515Y0044032D01*
X0216515Y0042434D02*
X0220112Y0042434D01*
X0220112Y0040835D02*
X0216515Y0040835D01*
X0218008Y0039237D02*
X0220112Y0039237D01*
X0220112Y0037638D02*
X0219606Y0037638D01*
X0227061Y0037638D02*
X0229688Y0037638D01*
X0229688Y0036040D02*
X0227061Y0036040D01*
X0227061Y0034860D02*
X0229688Y0034860D01*
X0229688Y0043401D01*
X0230801Y0044514D01*
X0245397Y0059110D01*
X0245397Y0080109D01*
X0230766Y0094740D01*
X0229455Y0094740D01*
X0230780Y0093415D01*
X0231834Y0092361D01*
X0231834Y0086235D01*
X0232099Y0085970D01*
X0232099Y0084323D01*
X0232435Y0084518D01*
X0232893Y0084640D01*
X0234914Y0084640D01*
X0234914Y0080859D01*
X0235283Y0080859D01*
X0238867Y0080859D01*
X0238867Y0083077D01*
X0238744Y0083535D01*
X0238507Y0083945D01*
X0238172Y0084281D01*
X0237762Y0084518D01*
X0237304Y0084640D01*
X0235283Y0084640D01*
X0235283Y0080859D01*
X0235283Y0080491D01*
X0238867Y0080491D01*
X0238867Y0078273D01*
X0238744Y0077815D01*
X0238507Y0077404D01*
X0238172Y0077069D01*
X0238142Y0077052D01*
X0238467Y0076727D01*
X0238467Y0071237D01*
X0237647Y0070417D01*
X0232550Y0070417D01*
X0231919Y0071047D01*
X0231279Y0070407D01*
X0229352Y0070407D01*
X0229352Y0064579D01*
X0229628Y0064303D01*
X0229628Y0056943D01*
X0230473Y0056943D01*
X0231293Y0056122D01*
X0231293Y0051026D01*
X0230473Y0050206D01*
X0227061Y0050206D01*
X0227061Y0034860D01*
X0227061Y0039237D02*
X0229688Y0039237D01*
X0229688Y0040835D02*
X0227061Y0040835D01*
X0227061Y0042434D02*
X0229688Y0042434D01*
X0230319Y0044032D02*
X0227061Y0044032D01*
X0227061Y0045631D02*
X0231918Y0045631D01*
X0233516Y0047229D02*
X0227061Y0047229D01*
X0227061Y0048828D02*
X0235115Y0048828D01*
X0236713Y0050426D02*
X0230694Y0050426D01*
X0231293Y0052025D02*
X0238312Y0052025D01*
X0239910Y0053623D02*
X0231293Y0053623D01*
X0231293Y0055222D02*
X0241509Y0055222D01*
X0243107Y0056820D02*
X0230595Y0056820D01*
X0229628Y0058419D02*
X0244706Y0058419D01*
X0245397Y0060017D02*
X0229628Y0060017D01*
X0229628Y0061616D02*
X0245397Y0061616D01*
X0245397Y0063214D02*
X0229628Y0063214D01*
X0229352Y0064813D02*
X0245397Y0064813D01*
X0245397Y0066411D02*
X0229352Y0066411D01*
X0229352Y0068010D02*
X0245397Y0068010D01*
X0245397Y0069608D02*
X0229352Y0069608D01*
X0238437Y0071207D02*
X0245397Y0071207D01*
X0245397Y0072805D02*
X0238467Y0072805D01*
X0238467Y0074404D02*
X0245397Y0074404D01*
X0245397Y0076003D02*
X0238467Y0076003D01*
X0238621Y0077601D02*
X0245397Y0077601D01*
X0245397Y0079200D02*
X0238867Y0079200D01*
X0238867Y0082397D02*
X0243110Y0082397D01*
X0244708Y0080798D02*
X0235283Y0080798D01*
X0235283Y0082397D02*
X0234914Y0082397D01*
X0234914Y0083995D02*
X0235283Y0083995D01*
X0238458Y0083995D02*
X0241511Y0083995D01*
X0239912Y0085594D02*
X0232099Y0085594D01*
X0231834Y0087192D02*
X0238314Y0087192D01*
X0236715Y0088791D02*
X0231834Y0088791D01*
X0231834Y0090389D02*
X0235117Y0090389D01*
X0233518Y0091988D02*
X0231834Y0091988D01*
X0231920Y0093586D02*
X0230609Y0093586D01*
X0228234Y0090870D02*
X0228234Y0087190D01*
X0227254Y0087190D01*
X0226131Y0087190D01*
X0226102Y0087182D01*
X0225510Y0087773D01*
X0224827Y0088457D01*
X0224832Y0089843D01*
X0224853Y0089852D01*
X0225753Y0090752D01*
X0226240Y0091929D01*
X0226240Y0092863D01*
X0228234Y0090870D01*
X0228234Y0090389D02*
X0225390Y0090389D01*
X0224828Y0088791D02*
X0228234Y0088791D01*
X0228234Y0087192D02*
X0226092Y0087192D01*
X0227254Y0087190D02*
X0227254Y0083421D01*
X0227254Y0083421D01*
X0227254Y0087190D01*
X0227254Y0085594D02*
X0227254Y0085594D01*
X0227254Y0083995D02*
X0227254Y0083995D01*
X0227254Y0082397D02*
X0227254Y0082397D01*
X0227254Y0080798D02*
X0227254Y0080798D01*
X0227116Y0091988D02*
X0226240Y0091988D01*
X0241697Y0095185D02*
X0294196Y0095185D01*
X0293871Y0093586D02*
X0243163Y0093586D01*
X0243296Y0096783D02*
X0311131Y0096783D01*
X0311128Y0095185D02*
X0298647Y0095185D01*
X0298971Y0093586D02*
X0311126Y0093586D01*
X0311123Y0091988D02*
X0298971Y0091988D01*
X0298971Y0090389D02*
X0311120Y0090389D01*
X0311118Y0088791D02*
X0298971Y0088791D01*
X0298971Y0087192D02*
X0311115Y0087192D01*
X0311113Y0085594D02*
X0298971Y0085594D01*
X0298971Y0083995D02*
X0311110Y0083995D01*
X0311107Y0082397D02*
X0298971Y0082397D01*
X0298971Y0080798D02*
X0311105Y0080798D01*
X0311102Y0079200D02*
X0298971Y0079200D01*
X0298971Y0077601D02*
X0311100Y0077601D01*
X0311097Y0076003D02*
X0298971Y0076003D01*
X0298971Y0074404D02*
X0311094Y0074404D01*
X0311092Y0072805D02*
X0307415Y0072805D01*
X0307830Y0071207D02*
X0311089Y0071207D01*
X0311086Y0069608D02*
X0307830Y0069608D01*
X0307830Y0068010D02*
X0311084Y0068010D01*
X0311081Y0066411D02*
X0307830Y0066411D01*
X0307830Y0064813D02*
X0311079Y0064813D01*
X0311076Y0063214D02*
X0307830Y0063214D01*
X0307830Y0061616D02*
X0311073Y0061616D01*
X0311071Y0060017D02*
X0307830Y0060017D01*
X0307830Y0058419D02*
X0311068Y0058419D01*
X0311066Y0056820D02*
X0307830Y0056820D01*
X0307830Y0055222D02*
X0311063Y0055222D01*
X0311060Y0053623D02*
X0307830Y0053623D01*
X0307830Y0052025D02*
X0311058Y0052025D01*
X0311055Y0050426D02*
X0307830Y0050426D01*
X0307830Y0048828D02*
X0311052Y0048828D01*
X0311050Y0047229D02*
X0307830Y0047229D01*
X0302730Y0047229D02*
X0292643Y0047229D01*
X0292643Y0045631D02*
X0302730Y0045631D01*
X0302730Y0044032D02*
X0292643Y0044032D01*
X0292643Y0042434D02*
X0303450Y0042434D01*
X0302730Y0048828D02*
X0292643Y0048828D01*
X0292643Y0050426D02*
X0302730Y0050426D01*
X0302730Y0052025D02*
X0292643Y0052025D01*
X0292643Y0053623D02*
X0302730Y0053623D01*
X0302730Y0055222D02*
X0292643Y0055222D01*
X0292643Y0056820D02*
X0302730Y0056820D01*
X0302730Y0058419D02*
X0292643Y0058419D01*
X0292643Y0060017D02*
X0302730Y0060017D01*
X0302730Y0061616D02*
X0292643Y0061616D01*
X0292643Y0063214D02*
X0302730Y0063214D01*
X0302730Y0064813D02*
X0292643Y0064813D01*
X0292643Y0066411D02*
X0302730Y0066411D01*
X0302730Y0068010D02*
X0292643Y0068010D01*
X0292643Y0069608D02*
X0294462Y0069608D01*
X0293871Y0071207D02*
X0292643Y0071207D01*
X0292643Y0072805D02*
X0293871Y0072805D01*
X0293871Y0074404D02*
X0292643Y0074404D01*
X0292643Y0076003D02*
X0293871Y0076003D01*
X0293871Y0077601D02*
X0291565Y0077601D01*
X0289967Y0079200D02*
X0293871Y0079200D01*
X0293871Y0080798D02*
X0288368Y0080798D01*
X0286770Y0082397D02*
X0293871Y0082397D01*
X0293871Y0083995D02*
X0285171Y0083995D01*
X0283573Y0085594D02*
X0293871Y0085594D01*
X0293871Y0087192D02*
X0281974Y0087192D01*
X0280376Y0088791D02*
X0293871Y0088791D01*
X0293871Y0090389D02*
X0278777Y0090389D01*
X0277179Y0091988D02*
X0293871Y0091988D01*
X0311134Y0098382D02*
X0243713Y0098382D01*
X0243713Y0099980D02*
X0311136Y0099980D01*
X0311139Y0101579D02*
X0244839Y0101579D01*
X0245643Y0103177D02*
X0311141Y0103177D01*
X0311144Y0104776D02*
X0245643Y0104776D01*
X0245643Y0106374D02*
X0311147Y0106374D01*
X0311149Y0107973D02*
X0245643Y0107973D01*
X0245643Y0109571D02*
X0311152Y0109571D01*
X0311155Y0111170D02*
X0245643Y0111170D01*
X0244727Y0112768D02*
X0311157Y0112768D01*
X0311160Y0114367D02*
X0243129Y0114367D01*
X0241530Y0115965D02*
X0311162Y0115965D01*
X0259649Y0119162D02*
X0255675Y0119162D01*
X0256862Y0120761D02*
X0258462Y0120761D01*
X0258462Y0122359D02*
X0256862Y0122359D01*
X0256733Y0123958D02*
X0258591Y0123958D01*
X0259121Y0159125D02*
X0255638Y0159125D01*
X0256862Y0160724D02*
X0258062Y0160724D01*
X0258062Y0162322D02*
X0256862Y0162322D01*
X0256770Y0163921D02*
X0258062Y0163921D01*
X0271137Y0168716D02*
X0275493Y0168716D01*
X0212554Y0248642D02*
X0211307Y0248642D01*
X0207239Y0248642D02*
X0195476Y0248642D01*
X0190265Y0248642D02*
X0186361Y0248642D01*
X0187959Y0247043D02*
X0189489Y0247043D01*
X0189558Y0245445D02*
X0189634Y0245445D01*
X0174801Y0240649D02*
X0170259Y0240649D01*
X0169865Y0239051D02*
X0174801Y0239051D01*
X0174524Y0237452D02*
X0167729Y0237452D01*
X0169856Y0242248D02*
X0172186Y0242248D01*
X0171411Y0243846D02*
X0170752Y0243846D01*
X0171141Y0245445D02*
X0171411Y0245445D01*
X0165738Y0226263D02*
X0178195Y0226263D01*
X0178195Y0224664D02*
X0166419Y0224664D01*
X0166190Y0223066D02*
X0172439Y0223066D01*
X0177506Y0223066D02*
X0178195Y0223066D01*
X0156009Y0211876D02*
X0155640Y0211876D01*
X0155640Y0210277D02*
X0156009Y0210277D01*
X0145639Y0275816D02*
X0145270Y0275816D01*
X0145270Y0277415D02*
X0145639Y0277415D01*
X0126941Y0277415D02*
X0075328Y0277415D01*
X0075326Y0279013D02*
X0126949Y0279013D01*
X0126956Y0280612D02*
X0075324Y0280612D01*
X0075323Y0282210D02*
X0126964Y0282210D01*
X0126971Y0283809D02*
X0075321Y0283809D01*
X0075319Y0285408D02*
X0126979Y0285408D01*
X0126987Y0287006D02*
X0075317Y0287006D01*
X0075315Y0288605D02*
X0126994Y0288605D01*
X0127002Y0290203D02*
X0075313Y0290203D01*
X0075311Y0291802D02*
X0127009Y0291802D01*
X0127017Y0293400D02*
X0075309Y0293400D01*
X0075307Y0294999D02*
X0127024Y0294999D01*
X0127032Y0296597D02*
X0075306Y0296597D01*
X0075304Y0298196D02*
X0127040Y0298196D01*
X0126097Y0299794D02*
X0075302Y0299794D01*
X0075300Y0301393D02*
X0124499Y0301393D01*
X0122900Y0302991D02*
X0075298Y0302991D01*
X0133906Y0307787D02*
X0134056Y0307787D01*
X0134056Y0309385D02*
X0133906Y0309385D01*
X0153131Y0315779D02*
X0153936Y0315779D01*
X0153131Y0317378D02*
X0154831Y0317378D01*
X0155530Y0318976D02*
X0152432Y0318976D01*
X0156113Y0312582D02*
X0157736Y0312582D01*
X0159423Y0310984D02*
X0154515Y0310984D01*
X0157024Y0309385D02*
X0157825Y0309385D01*
X0160227Y0312582D02*
X0161022Y0312582D01*
X0162473Y0314181D02*
X0162620Y0314181D01*
X0163131Y0315779D02*
X0164219Y0315779D01*
X0164831Y0317378D02*
X0163131Y0317378D01*
X0162432Y0318976D02*
X0165530Y0318976D01*
X0292643Y0040835D02*
X0311039Y0040835D01*
X0295333Y0039237D02*
X0292643Y0039237D01*
X0292643Y0037638D02*
X0293792Y0037638D01*
X0293674Y0036040D02*
X0292643Y0036040D01*
X0293483Y0034441D02*
X0293674Y0034441D01*
X0146421Y0034441D02*
X0146421Y0034441D01*
X0146421Y0032843D02*
X0146421Y0032843D01*
X0146421Y0031244D02*
X0146421Y0031244D01*
X0146421Y0029646D02*
X0146421Y0029646D01*
X0146421Y0028047D02*
X0146421Y0028047D01*
X0146421Y0026449D02*
X0146421Y0026449D01*
X0146421Y0024850D02*
X0146421Y0024850D01*
X0143272Y0024850D02*
X0143272Y0024850D01*
X0143272Y0024602D02*
X0143272Y0024602D01*
X0140122Y0024602D01*
X0140291Y0024602D01*
X0143272Y0024602D01*
X0143272Y0026449D02*
X0143272Y0026449D01*
X0143272Y0028047D02*
X0143272Y0028047D01*
X0143272Y0029646D02*
X0143272Y0029646D01*
X0143272Y0031244D02*
X0143272Y0031244D01*
X0143272Y0032843D02*
X0143272Y0032843D01*
X0143272Y0034441D02*
X0143272Y0034441D01*
X0140122Y0034441D02*
X0140122Y0034441D01*
X0140122Y0032843D02*
X0140122Y0032843D01*
X0140122Y0031244D02*
X0140122Y0031244D01*
X0140122Y0029646D02*
X0140122Y0029646D01*
X0140122Y0028047D02*
X0140122Y0028047D01*
X0140122Y0026449D02*
X0140122Y0026449D01*
X0140122Y0024850D02*
X0140122Y0024850D01*
X0140122Y0024602D02*
X0140122Y0024602D01*
X0136973Y0024850D02*
X0136972Y0024850D01*
X0136972Y0026449D02*
X0136973Y0026449D01*
X0136972Y0028047D02*
X0136973Y0028047D01*
X0136972Y0029646D02*
X0136973Y0029646D01*
X0136972Y0031244D02*
X0136973Y0031244D01*
X0136972Y0032843D02*
X0136973Y0032843D01*
X0136972Y0034441D02*
X0136973Y0034441D01*
X0133823Y0034441D02*
X0133823Y0034441D01*
X0133823Y0032843D02*
X0133823Y0032843D01*
X0133823Y0031244D02*
X0133823Y0031244D01*
X0133823Y0029646D02*
X0133823Y0029646D01*
X0133823Y0028047D02*
X0133823Y0028047D01*
X0133823Y0026449D02*
X0133823Y0026449D01*
X0133823Y0024850D02*
X0133823Y0024850D01*
X0133823Y0024602D02*
X0133823Y0024602D01*
X0133654Y0024602D01*
X0130673Y0024602D01*
X0133823Y0024602D01*
X0130673Y0024602D02*
X0130673Y0024602D01*
X0130673Y0024850D02*
X0130673Y0024850D01*
X0130673Y0026449D02*
X0130673Y0026449D01*
X0130673Y0028047D02*
X0130673Y0028047D01*
X0130673Y0029646D02*
X0130673Y0029646D01*
X0130673Y0031244D02*
X0130673Y0031244D01*
X0130673Y0032843D02*
X0130673Y0032843D01*
X0130673Y0034441D02*
X0130673Y0034441D01*
X0127524Y0034441D02*
X0127524Y0034441D01*
X0127524Y0032843D02*
X0127524Y0032843D01*
X0127524Y0031244D02*
X0127524Y0031244D01*
X0127524Y0029646D02*
X0127524Y0029646D01*
X0127524Y0028047D02*
X0127524Y0028047D01*
X0127524Y0026449D02*
X0127524Y0026449D01*
X0127524Y0024850D02*
X0127524Y0024850D01*
X0127524Y0024602D02*
X0127524Y0024602D01*
X0124543Y0024602D01*
X0124374Y0024602D01*
X0127524Y0024602D01*
X0124374Y0024602D02*
X0124374Y0024602D01*
X0124374Y0024850D02*
X0124374Y0024850D01*
X0124374Y0026449D02*
X0124374Y0026449D01*
X0124374Y0028047D02*
X0124374Y0028047D01*
X0124374Y0029646D02*
X0124374Y0029646D01*
X0124374Y0031244D02*
X0124374Y0031244D01*
X0124374Y0032843D02*
X0124374Y0032843D01*
X0124374Y0034441D02*
X0124374Y0034441D01*
D43*
X0167569Y0128861D03*
X0105994Y0177336D03*
X0149262Y0223053D03*
X0192870Y0246466D03*
X0200047Y0240861D03*
X0137203Y0273900D03*
D44*
X0111653Y0111397D02*
X0111653Y0109498D01*
X0115957Y0105194D01*
X0115957Y0100192D01*
X0115326Y0099560D01*
X0115326Y0088302D01*
X0115835Y0087793D01*
X0115326Y0088302D02*
X0124749Y0088302D01*
X0124799Y0088251D01*
X0124799Y0097307D02*
X0149996Y0097307D01*
X0149996Y0084389D01*
X0150016Y0084369D01*
D45*
X0168167Y0136200D03*
X0167898Y0141858D03*
X0121833Y0158669D03*
X0105486Y0142647D03*
X0105796Y0138849D03*
X0121188Y0196722D03*
X0123888Y0239542D03*
X0123445Y0247475D03*
X0123476Y0255116D03*
X0122928Y0262977D03*
X0216300Y0131891D03*
D46*
X0100460Y0099560D02*
X0100460Y0056320D01*
X0100460Y0099560D02*
X0099381Y0099560D01*
M02*
