G75*
%MOIN*%
%OFA0B0*%
%FSLAX25Y25*%
%IPPOS*%
%LPD*%
%AMOC8*
5,1,8,0,0,1.08239X$1,22.5*
%
%ADD10R,0.04331X0.03937*%
%ADD11R,0.03937X0.04331*%
%ADD12C,0.05150*%
%ADD13C,0.06791*%
%ADD14OC8,0.05600*%
%ADD15C,0.05500*%
%ADD16C,0.09450*%
%ADD17C,0.06000*%
%ADD18C,0.05600*%
%ADD19R,0.02362X0.17717*%
%ADD20C,0.03600*%
%ADD21C,0.01600*%
%ADD22C,0.01000*%
%ADD23C,0.03962*%
%ADD24C,0.00800*%
%ADD25C,0.02600*%
D10*
X0110979Y0074345D03*
X0117672Y0074345D03*
X0140175Y0070580D03*
X0146868Y0070580D03*
X0184880Y0133720D03*
X0191573Y0133720D03*
X0233523Y0141750D03*
X0240216Y0141750D03*
X0240764Y0161929D03*
X0234071Y0161929D03*
X0234037Y0169983D03*
X0240729Y0169983D03*
X0240753Y0178031D03*
X0234060Y0178031D03*
X0248889Y0109095D03*
X0255582Y0109095D03*
X0255542Y0100815D03*
X0248849Y0100815D03*
X0123038Y0172038D03*
X0116345Y0172038D03*
X0116009Y0180509D03*
X0122702Y0180509D03*
X0171918Y0252497D03*
X0178611Y0252497D03*
X0168685Y0292642D03*
X0168685Y0299335D03*
X0176997Y0305599D03*
X0176997Y0312292D03*
X0163058Y0323280D03*
X0163058Y0329973D03*
X0153769Y0333052D03*
X0153769Y0339745D03*
X0154579Y0348407D03*
X0154579Y0355100D03*
X0141162Y0340664D03*
X0141162Y0333972D03*
X0143542Y0298288D03*
X0143542Y0291595D03*
D11*
X0149867Y0257112D03*
X0149867Y0250419D03*
X0157941Y0250428D03*
X0157941Y0257121D03*
X0159181Y0240339D03*
X0159181Y0233646D03*
X0182888Y0193936D03*
X0182888Y0187243D03*
X0223180Y0186815D03*
X0223180Y0193508D03*
X0231631Y0193495D03*
X0231631Y0186802D03*
X0234947Y0155148D03*
X0234947Y0148455D03*
X0228146Y0127484D03*
X0228146Y0120791D03*
X0174212Y0130841D03*
X0174212Y0137534D03*
X0207402Y0237733D03*
X0214094Y0237733D03*
D12*
X0089292Y0149698D03*
X0089292Y0130013D03*
D13*
X0078662Y0125693D03*
X0078662Y0154019D03*
D14*
X0146363Y0152089D03*
X0146363Y0142089D03*
X0146363Y0132089D03*
X0146363Y0122089D03*
X0156363Y0122089D03*
X0156363Y0132089D03*
X0156363Y0142089D03*
X0156363Y0152089D03*
X0156363Y0162089D03*
X0156363Y0172089D03*
X0146363Y0172089D03*
X0146363Y0162089D03*
X0146363Y0182089D03*
X0146363Y0192089D03*
X0156363Y0192089D03*
X0156363Y0182089D03*
X0174972Y0209659D03*
X0184972Y0209659D03*
X0194972Y0209659D03*
X0204972Y0209659D03*
X0214972Y0209659D03*
X0224972Y0209659D03*
X0224972Y0219659D03*
X0214972Y0219659D03*
X0204972Y0219659D03*
X0194972Y0219659D03*
X0184972Y0219659D03*
X0174972Y0219659D03*
X0234972Y0219659D03*
X0252662Y0192089D03*
X0252662Y0182089D03*
X0262662Y0182089D03*
X0262662Y0192089D03*
X0262662Y0172089D03*
X0262662Y0162089D03*
X0252662Y0162089D03*
X0252662Y0172089D03*
X0252662Y0152089D03*
X0262662Y0152089D03*
X0262662Y0142089D03*
X0262662Y0132089D03*
X0252662Y0132089D03*
X0252662Y0142089D03*
X0252662Y0122089D03*
X0262662Y0122089D03*
X0239513Y0108940D03*
X0239513Y0098940D03*
X0229513Y0098940D03*
X0219513Y0098940D03*
X0219513Y0108940D03*
X0229513Y0108940D03*
X0209513Y0108940D03*
X0199513Y0108940D03*
X0199513Y0098940D03*
X0209513Y0098940D03*
X0189513Y0098940D03*
X0179513Y0098940D03*
X0179513Y0108940D03*
X0189513Y0108940D03*
X0169513Y0108940D03*
X0169513Y0098940D03*
D15*
X0163981Y0306558D03*
X0153981Y0306558D03*
X0143981Y0306558D03*
X0133981Y0306558D03*
X0138981Y0316558D03*
X0148981Y0316558D03*
X0158981Y0316558D03*
X0168981Y0316558D03*
D16*
X0182481Y0329558D03*
X0120481Y0329558D03*
D17*
X0126581Y0354858D03*
X0136581Y0360858D03*
X0166381Y0354858D03*
X0176381Y0360858D03*
D18*
X0234972Y0209659D03*
D19*
X0234610Y0024602D03*
X0231461Y0024602D03*
X0228311Y0024602D03*
X0225161Y0024602D03*
X0222012Y0024602D03*
X0218862Y0024602D03*
X0215713Y0024602D03*
X0212563Y0024602D03*
X0209413Y0024602D03*
X0206264Y0024602D03*
X0190516Y0024602D03*
X0187366Y0024602D03*
X0184217Y0024602D03*
X0181067Y0024602D03*
X0177917Y0024602D03*
X0174768Y0024602D03*
X0171618Y0024602D03*
X0168469Y0024602D03*
X0165319Y0024602D03*
X0162169Y0024602D03*
X0159020Y0024602D03*
X0155870Y0024602D03*
X0152721Y0024602D03*
X0149571Y0024602D03*
X0146421Y0024602D03*
X0143272Y0024602D03*
X0140122Y0024602D03*
X0136972Y0024602D03*
X0133823Y0024602D03*
X0130673Y0024602D03*
X0127524Y0024602D03*
X0124374Y0024602D03*
X0121224Y0024602D03*
X0118075Y0024602D03*
X0114925Y0024602D03*
X0111776Y0024602D03*
X0108626Y0024602D03*
X0105476Y0024602D03*
X0102327Y0024602D03*
X0099177Y0024602D03*
X0096028Y0024602D03*
X0092878Y0024602D03*
X0237760Y0024602D03*
X0240909Y0024602D03*
X0244059Y0024602D03*
X0247209Y0024602D03*
X0250358Y0024602D03*
X0253508Y0024602D03*
X0256658Y0024602D03*
X0259807Y0024602D03*
X0262957Y0024602D03*
X0266106Y0024602D03*
X0269256Y0024602D03*
X0272406Y0024602D03*
X0275555Y0024602D03*
X0278705Y0024602D03*
X0281854Y0024602D03*
X0285004Y0024602D03*
X0288154Y0024602D03*
X0291303Y0024602D03*
D20*
X0242096Y0079280D03*
X0226800Y0089231D03*
X0223040Y0092565D03*
X0237181Y0126818D03*
X0226241Y0133928D03*
X0228711Y0153162D03*
X0229327Y0159044D03*
X0228949Y0163852D03*
X0223655Y0167842D03*
X0228621Y0171668D03*
X0228650Y0176373D03*
X0223986Y0181631D03*
X0238513Y0195496D03*
X0226152Y0198593D03*
X0220805Y0198698D03*
X0204145Y0165463D03*
X0184724Y0181109D03*
X0173685Y0195386D03*
X0179865Y0168699D03*
X0179945Y0137195D03*
X0179758Y0132486D03*
X0200655Y0133227D03*
X0180808Y0081716D03*
X0148461Y0078015D03*
X0129438Y0119967D03*
X0140202Y0126997D03*
X0136115Y0133573D03*
X0131007Y0165038D03*
X0154894Y0222497D03*
X0163219Y0224256D03*
X0176701Y0235104D03*
X0183870Y0228648D03*
X0167941Y0245420D03*
X0167059Y0240638D03*
X0165994Y0252040D03*
X0152723Y0240034D03*
X0143646Y0238825D03*
X0144111Y0244651D03*
X0142921Y0261573D03*
X0160152Y0266711D03*
X0167156Y0276944D03*
X0155897Y0289526D03*
X0181437Y0263855D03*
D21*
X0075606Y0041147D02*
X0075608Y0039396D01*
X0090236Y0039396D01*
X0091173Y0039008D01*
X0091890Y0038291D01*
X0092278Y0037353D01*
X0092278Y0034860D01*
X0191706Y0034860D01*
X0191706Y0040070D01*
X0192094Y0041007D01*
X0192811Y0041724D01*
X0193749Y0042113D01*
X0204015Y0042113D01*
X0204952Y0041724D01*
X0205670Y0041007D01*
X0206058Y0040070D01*
X0206058Y0034860D01*
X0210663Y0034860D01*
X0210663Y0042066D01*
X0194535Y0058194D01*
X0138630Y0058194D01*
X0138467Y0058031D01*
X0136893Y0058031D01*
X0135780Y0059144D01*
X0135780Y0059144D01*
X0131005Y0063919D01*
X0114358Y0063919D01*
X0113245Y0065032D01*
X0109079Y0069198D01*
X0109079Y0070976D01*
X0108234Y0070976D01*
X0107414Y0071796D01*
X0107414Y0076893D01*
X0108234Y0077713D01*
X0109071Y0077713D01*
X0108994Y0110969D01*
X0108942Y0111029D01*
X0108992Y0111745D01*
X0108991Y0112463D01*
X0109047Y0112520D01*
X0109053Y0112599D01*
X0109595Y0113070D01*
X0110101Y0113578D01*
X0110181Y0113579D01*
X0132915Y0133312D01*
X0132915Y0134210D01*
X0133402Y0135386D01*
X0134302Y0136286D01*
X0135478Y0136773D01*
X0136752Y0136773D01*
X0137928Y0136286D01*
X0138828Y0135386D01*
X0139315Y0134210D01*
X0139315Y0132937D01*
X0138828Y0131761D01*
X0137928Y0130861D01*
X0136752Y0130373D01*
X0135478Y0130373D01*
X0135376Y0130416D01*
X0112795Y0110815D01*
X0112871Y0077713D01*
X0113724Y0077713D01*
X0114326Y0077112D01*
X0114927Y0077713D01*
X0115772Y0077713D01*
X0115772Y0108989D01*
X0126238Y0119454D01*
X0126238Y0120604D01*
X0126725Y0121780D01*
X0127625Y0122680D01*
X0128801Y0123167D01*
X0130074Y0123167D01*
X0131250Y0122680D01*
X0132151Y0121780D01*
X0132638Y0120604D01*
X0132638Y0119331D01*
X0132151Y0118155D01*
X0131250Y0117254D01*
X0130074Y0116767D01*
X0128925Y0116767D01*
X0119572Y0107415D01*
X0119572Y0077713D01*
X0120417Y0077713D01*
X0121237Y0076893D01*
X0121237Y0071796D01*
X0120417Y0070976D01*
X0114927Y0070976D01*
X0114326Y0071577D01*
X0113724Y0070976D01*
X0112879Y0070976D01*
X0112879Y0070772D01*
X0115932Y0067719D01*
X0132579Y0067719D01*
X0138304Y0061994D01*
X0196109Y0061994D01*
X0197222Y0060881D01*
X0213785Y0044318D01*
X0213785Y0046383D01*
X0196377Y0063791D01*
X0142318Y0063791D01*
X0141205Y0064904D01*
X0138898Y0067211D01*
X0137430Y0067211D01*
X0136610Y0068031D01*
X0136610Y0073128D01*
X0137430Y0073948D01*
X0138275Y0073948D01*
X0138275Y0124399D01*
X0137489Y0125185D01*
X0137002Y0126361D01*
X0137002Y0127634D01*
X0137489Y0128810D01*
X0138389Y0129710D01*
X0139565Y0130197D01*
X0140838Y0130197D01*
X0142015Y0129710D01*
X0142915Y0128810D01*
X0143402Y0127634D01*
X0143402Y0126361D01*
X0142915Y0125185D01*
X0142075Y0124345D01*
X0142075Y0073948D01*
X0142920Y0073948D01*
X0143521Y0073347D01*
X0144123Y0073948D01*
X0144968Y0073948D01*
X0144968Y0077208D01*
X0145261Y0077501D01*
X0145261Y0078651D01*
X0145749Y0079827D01*
X0146649Y0080727D01*
X0147825Y0081214D01*
X0149024Y0081214D01*
X0162067Y0093918D01*
X0162614Y0094465D01*
X0162629Y0094465D01*
X0162639Y0094475D01*
X0163414Y0094465D01*
X0220415Y0094465D01*
X0220689Y0094740D01*
X0217773Y0094740D01*
X0215313Y0097200D01*
X0215313Y0100679D01*
X0217773Y0103140D01*
X0221252Y0103140D01*
X0223713Y0100679D01*
X0223713Y0097200D01*
X0222188Y0095676D01*
X0222404Y0095765D01*
X0223677Y0095765D01*
X0224853Y0095278D01*
X0225631Y0094500D01*
X0250106Y0094828D01*
X0252761Y0097483D01*
X0252195Y0098048D01*
X0251594Y0097447D01*
X0246104Y0097447D01*
X0245284Y0098267D01*
X0245284Y0099392D01*
X0242658Y0102018D01*
X0242374Y0102018D01*
X0243713Y0100679D01*
X0243713Y0097200D01*
X0241252Y0094740D01*
X0237773Y0094740D01*
X0235313Y0097200D01*
X0235313Y0100679D01*
X0236651Y0102018D01*
X0235277Y0102018D01*
X0233713Y0100453D01*
X0233713Y0097200D01*
X0231252Y0094740D01*
X0227773Y0094740D01*
X0225313Y0097200D01*
X0225313Y0100679D01*
X0227773Y0103140D01*
X0231026Y0103140D01*
X0233703Y0105817D01*
X0236695Y0105817D01*
X0235313Y0107200D01*
X0235313Y0110679D01*
X0237773Y0113140D01*
X0241252Y0113140D01*
X0243552Y0110840D01*
X0245323Y0110840D01*
X0245323Y0111643D01*
X0246144Y0112463D01*
X0251634Y0112463D01*
X0252235Y0111862D01*
X0252836Y0112463D01*
X0255636Y0112463D01*
X0255636Y0119123D01*
X0254402Y0117889D01*
X0250922Y0117889D01*
X0248462Y0120350D01*
X0248462Y0123829D01*
X0250922Y0126289D01*
X0254402Y0126289D01*
X0255636Y0125055D01*
X0255636Y0129123D01*
X0254402Y0127889D01*
X0250922Y0127889D01*
X0248462Y0130350D01*
X0248462Y0133829D01*
X0250922Y0136289D01*
X0254402Y0136289D01*
X0255636Y0135055D01*
X0255636Y0139123D01*
X0254402Y0137889D01*
X0250922Y0137889D01*
X0248462Y0140350D01*
X0248462Y0143829D01*
X0250922Y0146289D01*
X0254402Y0146289D01*
X0255636Y0145055D01*
X0255636Y0146429D01*
X0254175Y0147889D01*
X0251149Y0147889D01*
X0245499Y0142239D01*
X0245349Y0141868D01*
X0244964Y0141704D01*
X0244668Y0141408D01*
X0244269Y0141408D01*
X0243781Y0141201D01*
X0243781Y0139202D01*
X0242961Y0138381D01*
X0237471Y0138381D01*
X0237146Y0138706D01*
X0237129Y0138676D01*
X0236794Y0138341D01*
X0236383Y0138104D01*
X0235925Y0137981D01*
X0233707Y0137981D01*
X0233707Y0141566D01*
X0233339Y0141566D01*
X0229558Y0141566D01*
X0229558Y0139544D01*
X0229680Y0139087D01*
X0229917Y0138676D01*
X0230252Y0138341D01*
X0230663Y0138104D01*
X0231121Y0137981D01*
X0233339Y0137981D01*
X0233339Y0141566D01*
X0233339Y0141934D01*
X0229558Y0141934D01*
X0229558Y0143955D01*
X0229680Y0144413D01*
X0229917Y0144824D01*
X0230252Y0145159D01*
X0230663Y0145396D01*
X0231121Y0145518D01*
X0231345Y0145518D01*
X0231301Y0145595D01*
X0231178Y0146053D01*
X0231178Y0148271D01*
X0234762Y0148271D01*
X0234762Y0148639D01*
X0231178Y0148639D01*
X0231178Y0150858D01*
X0231268Y0151194D01*
X0230524Y0150449D01*
X0229348Y0149962D01*
X0228075Y0149962D01*
X0226898Y0150449D01*
X0225998Y0151349D01*
X0225511Y0152526D01*
X0225511Y0153799D01*
X0225998Y0154975D01*
X0226898Y0155875D01*
X0227758Y0156231D01*
X0227514Y0156332D01*
X0226702Y0157144D01*
X0224894Y0157144D01*
X0224794Y0157244D01*
X0166603Y0157244D01*
X0165549Y0158299D01*
X0163506Y0160341D01*
X0163365Y0160341D01*
X0160563Y0163143D01*
X0160563Y0160350D01*
X0158941Y0158727D01*
X0161240Y0158727D01*
X0166749Y0153219D01*
X0204972Y0153219D01*
X0217327Y0140864D01*
X0217327Y0140864D01*
X0218100Y0140091D01*
X0218100Y0133909D01*
X0218589Y0133420D01*
X0219000Y0132428D01*
X0219000Y0131354D01*
X0218589Y0130361D01*
X0217829Y0129602D01*
X0216837Y0129191D01*
X0215763Y0129191D01*
X0214770Y0129602D01*
X0214011Y0130361D01*
X0213600Y0131354D01*
X0213600Y0132428D01*
X0214011Y0133420D01*
X0214500Y0133909D01*
X0214500Y0138600D01*
X0203481Y0149619D01*
X0165257Y0149619D01*
X0164203Y0150673D01*
X0159749Y0155127D01*
X0159264Y0155127D01*
X0160563Y0153829D01*
X0160563Y0150350D01*
X0158599Y0148386D01*
X0162331Y0148386D01*
X0162347Y0148401D01*
X0163073Y0148386D01*
X0163800Y0148386D01*
X0163816Y0148371D01*
X0163837Y0148370D01*
X0164340Y0147846D01*
X0164854Y0147332D01*
X0164854Y0147310D01*
X0167494Y0144558D01*
X0168435Y0144558D01*
X0169427Y0144147D01*
X0170187Y0143387D01*
X0170598Y0142395D01*
X0170598Y0141321D01*
X0170187Y0140328D01*
X0169427Y0139569D01*
X0168435Y0139158D01*
X0167361Y0139158D01*
X0166368Y0139569D01*
X0165609Y0140328D01*
X0165198Y0141321D01*
X0165198Y0141751D01*
X0162287Y0144786D01*
X0159606Y0144786D01*
X0160563Y0143829D01*
X0160563Y0140350D01*
X0159217Y0139004D01*
X0166550Y0139004D01*
X0167123Y0139109D01*
X0167275Y0139004D01*
X0167459Y0139004D01*
X0167582Y0138881D01*
X0167629Y0138900D01*
X0168704Y0138900D01*
X0169696Y0138489D01*
X0170455Y0137730D01*
X0170843Y0136794D01*
X0170843Y0140279D01*
X0171663Y0141099D01*
X0176760Y0141099D01*
X0177580Y0140279D01*
X0177580Y0139401D01*
X0177626Y0139400D01*
X0178133Y0139907D01*
X0179309Y0140394D01*
X0180582Y0140394D01*
X0181758Y0139907D01*
X0182658Y0139007D01*
X0183145Y0137831D01*
X0183145Y0137089D01*
X0187625Y0137089D01*
X0187950Y0136764D01*
X0187967Y0136794D01*
X0188302Y0137129D01*
X0188712Y0137366D01*
X0189170Y0137489D01*
X0191388Y0137489D01*
X0191388Y0133905D01*
X0191757Y0133905D01*
X0191757Y0137489D01*
X0193975Y0137489D01*
X0194433Y0137366D01*
X0194843Y0137129D01*
X0195178Y0136794D01*
X0195415Y0136383D01*
X0195538Y0135926D01*
X0195538Y0133904D01*
X0191757Y0133904D01*
X0191757Y0133536D01*
X0195538Y0133536D01*
X0195538Y0131515D01*
X0195415Y0131057D01*
X0195178Y0130646D01*
X0194843Y0130311D01*
X0194433Y0130074D01*
X0193975Y0129952D01*
X0191757Y0129952D01*
X0191757Y0133536D01*
X0191388Y0133536D01*
X0191388Y0129952D01*
X0189170Y0129952D01*
X0188712Y0130074D01*
X0188302Y0130311D01*
X0187967Y0130646D01*
X0187950Y0130676D01*
X0187625Y0130352D01*
X0188261Y0130352D01*
X0187625Y0130352D02*
X0182150Y0130352D01*
X0181571Y0129773D01*
X0180395Y0129286D01*
X0179122Y0129286D01*
X0177980Y0129759D01*
X0177980Y0128439D01*
X0177857Y0127981D01*
X0177620Y0127571D01*
X0177285Y0127235D01*
X0176875Y0126998D01*
X0176417Y0126876D01*
X0174396Y0126876D01*
X0174396Y0130657D01*
X0174027Y0130657D01*
X0170443Y0130657D01*
X0170443Y0128439D01*
X0170566Y0127981D01*
X0170803Y0127571D01*
X0171138Y0127235D01*
X0171548Y0126998D01*
X0172006Y0126876D01*
X0174027Y0126876D01*
X0174027Y0130657D01*
X0174027Y0131025D01*
X0170443Y0131025D01*
X0170443Y0133243D01*
X0170566Y0133701D01*
X0170803Y0134112D01*
X0171138Y0134447D01*
X0171168Y0134464D01*
X0170843Y0134789D01*
X0170843Y0135606D01*
X0170455Y0134671D01*
X0169696Y0133911D01*
X0168704Y0133500D01*
X0167629Y0133500D01*
X0166637Y0133911D01*
X0165878Y0134671D01*
X0165574Y0135404D01*
X0158988Y0135404D01*
X0160563Y0133829D01*
X0160563Y0130350D01*
X0158103Y0127889D01*
X0154623Y0127889D01*
X0152163Y0130350D01*
X0152163Y0133829D01*
X0153738Y0135404D01*
X0148988Y0135404D01*
X0150563Y0133829D01*
X0150563Y0130350D01*
X0148103Y0127889D01*
X0144623Y0127889D01*
X0142163Y0130350D01*
X0142163Y0133829D01*
X0143738Y0135404D01*
X0143605Y0135404D01*
X0142060Y0136948D01*
X0107809Y0137043D01*
X0107326Y0136560D01*
X0106333Y0136149D01*
X0105259Y0136149D01*
X0104267Y0136560D01*
X0103507Y0137320D01*
X0103096Y0138312D01*
X0103096Y0139386D01*
X0103507Y0140378D01*
X0103722Y0140593D01*
X0103197Y0141117D01*
X0102786Y0142110D01*
X0102786Y0143184D01*
X0103197Y0144176D01*
X0103957Y0144936D01*
X0104949Y0145347D01*
X0106023Y0145347D01*
X0107015Y0144936D01*
X0107511Y0144441D01*
X0133386Y0144363D01*
X0138231Y0144363D01*
X0141200Y0147332D01*
X0142255Y0148386D01*
X0144127Y0148386D01*
X0142163Y0150350D01*
X0142163Y0153829D01*
X0143462Y0155127D01*
X0122829Y0155127D01*
X0121987Y0155969D01*
X0121296Y0155969D01*
X0120303Y0156380D01*
X0119544Y0157140D01*
X0119133Y0158132D01*
X0119133Y0159206D01*
X0119544Y0160199D01*
X0120303Y0160958D01*
X0121296Y0161369D01*
X0122370Y0161369D01*
X0123362Y0160958D01*
X0124122Y0160199D01*
X0124533Y0159206D01*
X0124533Y0158727D01*
X0143785Y0158727D01*
X0142163Y0160350D01*
X0142163Y0163829D01*
X0143203Y0164869D01*
X0136542Y0164869D01*
X0135769Y0164857D01*
X0135757Y0164869D01*
X0135740Y0164869D01*
X0135194Y0165415D01*
X0128036Y0172359D01*
X0128019Y0172359D01*
X0127473Y0172905D01*
X0127003Y0173361D01*
X0127003Y0172222D01*
X0123222Y0172222D01*
X0122854Y0172222D01*
X0122854Y0175806D01*
X0120636Y0175806D01*
X0120178Y0175684D01*
X0119768Y0175447D01*
X0119432Y0175112D01*
X0119415Y0175082D01*
X0119090Y0175406D01*
X0118245Y0175406D01*
X0118245Y0177141D01*
X0118755Y0177141D01*
X0119079Y0177466D01*
X0119097Y0177436D01*
X0119432Y0177101D01*
X0119842Y0176864D01*
X0120300Y0176741D01*
X0122518Y0176741D01*
X0122518Y0180325D01*
X0122887Y0180325D01*
X0122887Y0180694D01*
X0126668Y0180694D01*
X0126668Y0182715D01*
X0126545Y0183173D01*
X0126308Y0183583D01*
X0125973Y0183918D01*
X0125562Y0184155D01*
X0125105Y0184278D01*
X0122887Y0184278D01*
X0122887Y0180694D01*
X0122518Y0180694D01*
X0122518Y0184278D01*
X0120300Y0184278D01*
X0119842Y0184155D01*
X0119432Y0183918D01*
X0119097Y0183583D01*
X0119079Y0183553D01*
X0118755Y0183878D01*
X0113264Y0183878D01*
X0112444Y0183058D01*
X0112444Y0182409D01*
X0108380Y0182409D01*
X0106682Y0180711D01*
X0106667Y0180718D01*
X0105322Y0180718D01*
X0104079Y0180203D01*
X0103128Y0179252D01*
X0102613Y0178009D01*
X0102613Y0176664D01*
X0103128Y0175421D01*
X0104079Y0174470D01*
X0105322Y0173955D01*
X0106667Y0173955D01*
X0107909Y0174470D01*
X0108861Y0175421D01*
X0109375Y0176664D01*
X0109375Y0178009D01*
X0109369Y0178024D01*
X0109954Y0178609D01*
X0112444Y0178609D01*
X0112444Y0177961D01*
X0113264Y0177141D01*
X0114445Y0177141D01*
X0114445Y0175406D01*
X0113600Y0175406D01*
X0112780Y0174586D01*
X0112780Y0169489D01*
X0113600Y0168669D01*
X0119090Y0168669D01*
X0119415Y0168994D01*
X0119432Y0168964D01*
X0119768Y0168629D01*
X0120178Y0168392D01*
X0120636Y0168269D01*
X0122854Y0168269D01*
X0122854Y0171854D01*
X0123222Y0171854D01*
X0123222Y0168269D01*
X0125440Y0168269D01*
X0125898Y0168392D01*
X0126309Y0168629D01*
X0126644Y0168964D01*
X0126881Y0169375D01*
X0127003Y0169832D01*
X0127003Y0171854D01*
X0123222Y0171854D01*
X0123222Y0172222D01*
X0123222Y0175806D01*
X0125440Y0175806D01*
X0125898Y0175684D01*
X0126309Y0175447D01*
X0126644Y0175112D01*
X0126881Y0174701D01*
X0126900Y0174629D01*
X0126894Y0175017D01*
X0126906Y0175030D01*
X0126906Y0188102D01*
X0121160Y0194022D01*
X0120651Y0194022D01*
X0119658Y0194433D01*
X0118899Y0195193D01*
X0118488Y0196185D01*
X0118488Y0197259D01*
X0118899Y0198251D01*
X0119658Y0199011D01*
X0120651Y0199422D01*
X0121725Y0199422D01*
X0121988Y0199313D01*
X0121988Y0237624D01*
X0121599Y0238013D01*
X0121188Y0239005D01*
X0121188Y0240079D01*
X0121599Y0241072D01*
X0122358Y0241831D01*
X0123351Y0242242D01*
X0124425Y0242242D01*
X0124989Y0242009D01*
X0124989Y0244898D01*
X0124782Y0245106D01*
X0123982Y0244775D01*
X0122908Y0244775D01*
X0121916Y0245186D01*
X0121156Y0245945D01*
X0120745Y0246938D01*
X0120745Y0248012D01*
X0121156Y0249004D01*
X0121916Y0249764D01*
X0122908Y0250175D01*
X0123982Y0250175D01*
X0124975Y0249764D01*
X0125364Y0249375D01*
X0125887Y0249375D01*
X0127242Y0248019D01*
X0127264Y0248019D01*
X0127637Y0247646D01*
X0127637Y0248475D01*
X0123695Y0252416D01*
X0122939Y0252416D01*
X0121947Y0252827D01*
X0121187Y0253587D01*
X0120776Y0254579D01*
X0120776Y0255653D01*
X0121187Y0256646D01*
X0121947Y0257405D01*
X0122939Y0257816D01*
X0124013Y0257816D01*
X0125005Y0257405D01*
X0125765Y0256646D01*
X0126176Y0255653D01*
X0126176Y0255309D01*
X0130324Y0251162D01*
X0130388Y0251097D01*
X0130388Y0253262D01*
X0123374Y0260277D01*
X0122391Y0260277D01*
X0121399Y0260688D01*
X0120639Y0261447D01*
X0120228Y0262440D01*
X0120228Y0263514D01*
X0120639Y0264506D01*
X0121399Y0265266D01*
X0122391Y0265677D01*
X0123465Y0265677D01*
X0124458Y0265266D01*
X0125217Y0264506D01*
X0125628Y0263514D01*
X0125628Y0263396D01*
X0133075Y0255949D01*
X0134188Y0254836D01*
X0134188Y0197423D01*
X0138372Y0193239D01*
X0139485Y0192126D01*
X0139485Y0188787D01*
X0139751Y0188521D01*
X0143991Y0188521D01*
X0142163Y0190350D01*
X0142163Y0193829D01*
X0144623Y0196289D01*
X0148103Y0196289D01*
X0150563Y0193829D01*
X0150563Y0190350D01*
X0148735Y0188521D01*
X0152618Y0188521D01*
X0153731Y0187408D01*
X0153731Y0187408D01*
X0154850Y0186289D01*
X0158103Y0186289D01*
X0160563Y0183829D01*
X0160563Y0180350D01*
X0158103Y0177889D01*
X0154623Y0177889D01*
X0152163Y0180350D01*
X0152163Y0183602D01*
X0151044Y0184721D01*
X0149671Y0184721D01*
X0150563Y0183829D01*
X0150563Y0180350D01*
X0149072Y0178859D01*
X0150745Y0178859D01*
X0151858Y0177746D01*
X0153969Y0175635D01*
X0154623Y0176289D01*
X0158103Y0176289D01*
X0160563Y0173829D01*
X0160563Y0170350D01*
X0158882Y0168669D01*
X0160411Y0168669D01*
X0161524Y0167556D01*
X0166052Y0163028D01*
X0166052Y0162887D01*
X0168094Y0160844D01*
X0224768Y0160844D01*
X0224881Y0160958D01*
X0226455Y0160958D01*
X0226468Y0160944D01*
X0226702Y0160944D01*
X0227016Y0161259D01*
X0226236Y0162039D01*
X0225749Y0163215D01*
X0225749Y0164488D01*
X0226236Y0165665D01*
X0227137Y0166565D01*
X0228313Y0167052D01*
X0228419Y0167052D01*
X0230243Y0168876D01*
X0229258Y0168468D01*
X0227985Y0168468D01*
X0226809Y0168955D01*
X0225909Y0169856D01*
X0225421Y0171032D01*
X0225421Y0172305D01*
X0225909Y0173481D01*
X0226462Y0174035D01*
X0225937Y0174560D01*
X0225450Y0175736D01*
X0225450Y0176076D01*
X0225078Y0176076D01*
X0225041Y0176043D01*
X0224298Y0176076D01*
X0223553Y0176076D01*
X0223538Y0176092D01*
X0222361Y0176092D01*
X0222325Y0176059D01*
X0221581Y0176092D01*
X0220836Y0176092D01*
X0220801Y0176126D01*
X0219794Y0176171D01*
X0219049Y0176171D01*
X0219014Y0176206D01*
X0218965Y0176208D01*
X0218463Y0176758D01*
X0217244Y0177976D01*
X0217244Y0196693D01*
X0217176Y0196776D01*
X0217244Y0197467D01*
X0217244Y0198161D01*
X0217320Y0198236D01*
X0217330Y0198342D01*
X0217605Y0198568D01*
X0217605Y0199335D01*
X0218092Y0200511D01*
X0218992Y0201411D01*
X0220168Y0201898D01*
X0221441Y0201898D01*
X0222617Y0201411D01*
X0223517Y0200511D01*
X0224004Y0199335D01*
X0224004Y0198062D01*
X0223761Y0197473D01*
X0225385Y0197473D01*
X0225843Y0197351D01*
X0226253Y0197114D01*
X0226589Y0196779D01*
X0226826Y0196368D01*
X0226948Y0195910D01*
X0226948Y0193692D01*
X0223364Y0193692D01*
X0223364Y0193324D01*
X0226948Y0193324D01*
X0226948Y0191106D01*
X0226826Y0190648D01*
X0226589Y0190237D01*
X0226253Y0189902D01*
X0226223Y0189885D01*
X0226548Y0189560D01*
X0226548Y0188699D01*
X0228262Y0188691D01*
X0228262Y0189548D01*
X0228587Y0189872D01*
X0228557Y0189890D01*
X0228222Y0190225D01*
X0227985Y0190635D01*
X0227862Y0191093D01*
X0227862Y0193311D01*
X0231446Y0193311D01*
X0231446Y0193680D01*
X0227862Y0193680D01*
X0227862Y0195898D01*
X0227985Y0196355D01*
X0228222Y0196766D01*
X0228557Y0197101D01*
X0228968Y0197338D01*
X0229425Y0197461D01*
X0231447Y0197461D01*
X0231447Y0193680D01*
X0231815Y0193680D01*
X0231815Y0197461D01*
X0233836Y0197461D01*
X0233870Y0197452D01*
X0228338Y0202984D01*
X0217843Y0202984D01*
X0216730Y0204097D01*
X0216730Y0204097D01*
X0215368Y0205459D01*
X0213232Y0205459D01*
X0210772Y0207920D01*
X0210772Y0211399D01*
X0213232Y0213859D01*
X0216712Y0213859D01*
X0219172Y0211399D01*
X0219172Y0207920D01*
X0218727Y0207474D01*
X0219417Y0206784D01*
X0221342Y0206784D01*
X0220372Y0207754D01*
X0220372Y0209559D01*
X0224872Y0209559D01*
X0224872Y0209759D01*
X0220372Y0209759D01*
X0220372Y0211565D01*
X0223067Y0214259D01*
X0224872Y0214259D01*
X0224872Y0209759D01*
X0225072Y0209759D01*
X0229572Y0209759D01*
X0229572Y0211565D01*
X0226878Y0214259D01*
X0225072Y0214259D01*
X0225072Y0209759D01*
X0225072Y0209559D01*
X0229572Y0209559D01*
X0229572Y0207754D01*
X0228602Y0206784D01*
X0229912Y0206784D01*
X0231025Y0205671D01*
X0238000Y0198696D01*
X0239149Y0198696D01*
X0240325Y0198209D01*
X0241225Y0197309D01*
X0241713Y0196132D01*
X0241713Y0194859D01*
X0241225Y0193683D01*
X0240325Y0192783D01*
X0239149Y0192296D01*
X0237876Y0192296D01*
X0236700Y0192783D01*
X0235800Y0193683D01*
X0235399Y0194650D01*
X0235399Y0193680D01*
X0231815Y0193680D01*
X0231815Y0193311D01*
X0235399Y0193311D01*
X0235399Y0191093D01*
X0235277Y0190635D01*
X0235040Y0190225D01*
X0234705Y0189890D01*
X0234675Y0189872D01*
X0234999Y0189548D01*
X0234999Y0188702D01*
X0235827Y0188702D01*
X0242061Y0193362D01*
X0242061Y0201970D01*
X0236838Y0205886D01*
X0235808Y0205459D01*
X0234137Y0205459D01*
X0232593Y0206099D01*
X0231412Y0207280D01*
X0230772Y0208824D01*
X0230772Y0210495D01*
X0231412Y0212038D01*
X0232593Y0213220D01*
X0234137Y0213859D01*
X0235808Y0213859D01*
X0237351Y0213220D01*
X0238533Y0212038D01*
X0239172Y0210495D01*
X0239172Y0208885D01*
X0244594Y0204820D01*
X0244748Y0204820D01*
X0245209Y0204359D01*
X0245730Y0203969D01*
X0245752Y0203816D01*
X0245861Y0203707D01*
X0245861Y0203056D01*
X0245953Y0202410D01*
X0245861Y0202287D01*
X0245861Y0193041D01*
X0245954Y0192917D01*
X0245861Y0192273D01*
X0245861Y0191623D01*
X0245751Y0191513D01*
X0245729Y0191359D01*
X0245208Y0190970D01*
X0244748Y0190510D01*
X0244593Y0190510D01*
X0237706Y0185362D01*
X0237246Y0184902D01*
X0237091Y0184902D01*
X0236980Y0184820D01*
X0246212Y0184788D01*
X0246996Y0184788D01*
X0246999Y0184785D01*
X0247003Y0184785D01*
X0247557Y0184227D01*
X0248462Y0183322D01*
X0248462Y0183829D01*
X0250922Y0186289D01*
X0254402Y0186289D01*
X0256862Y0183829D01*
X0256862Y0180350D01*
X0254402Y0177889D01*
X0250922Y0177889D01*
X0249992Y0178820D01*
X0249992Y0175358D01*
X0250922Y0176289D01*
X0254402Y0176289D01*
X0256862Y0173829D01*
X0256862Y0170350D01*
X0254402Y0167889D01*
X0250922Y0167889D01*
X0249992Y0168820D01*
X0249992Y0165358D01*
X0250922Y0166289D01*
X0254402Y0166289D01*
X0256862Y0163829D01*
X0256862Y0160350D01*
X0255683Y0159171D01*
X0259076Y0159171D01*
X0258062Y0160184D01*
X0258062Y0161989D01*
X0262562Y0161989D01*
X0262562Y0162189D01*
X0258062Y0162189D01*
X0258062Y0163995D01*
X0260757Y0166689D01*
X0262562Y0166689D01*
X0262562Y0162189D01*
X0262762Y0162189D01*
X0267262Y0162189D01*
X0267262Y0163995D01*
X0264568Y0166689D01*
X0262762Y0166689D01*
X0262762Y0162189D01*
X0262762Y0161989D01*
X0267262Y0161989D01*
X0267262Y0160184D01*
X0266247Y0159169D01*
X0270577Y0154839D01*
X0271690Y0153726D01*
X0271690Y0075085D01*
X0249109Y0052504D01*
X0249109Y0034860D01*
X0293064Y0034860D01*
X0293674Y0034250D01*
X0293674Y0037353D01*
X0294063Y0038291D01*
X0294780Y0039008D01*
X0295717Y0039396D01*
X0311037Y0039396D01*
X0311039Y0040950D01*
X0305461Y0040950D01*
X0303729Y0041949D01*
X0303729Y0041949D01*
X0303729Y0041949D01*
X0302730Y0043681D01*
X0302730Y0068784D01*
X0297119Y0068784D01*
X0296929Y0068706D01*
X0295914Y0068706D01*
X0294977Y0069094D01*
X0294260Y0069811D01*
X0293871Y0070748D01*
X0293871Y0094401D01*
X0294260Y0095338D01*
X0294977Y0096055D01*
X0295914Y0096443D01*
X0296929Y0096443D01*
X0297866Y0096055D01*
X0298583Y0095338D01*
X0298971Y0094401D01*
X0298971Y0073884D01*
X0305787Y0073884D01*
X0306724Y0073496D01*
X0307441Y0072779D01*
X0307830Y0071842D01*
X0307830Y0046050D01*
X0311048Y0046050D01*
X0311578Y0369487D01*
X0075221Y0368519D01*
X0075468Y0158121D01*
X0075939Y0158463D01*
X0076667Y0158834D01*
X0077445Y0159087D01*
X0078253Y0159215D01*
X0078330Y0159215D01*
X0078330Y0154351D01*
X0078994Y0154351D01*
X0083857Y0154351D01*
X0083857Y0154428D01*
X0083729Y0155236D01*
X0083477Y0156014D01*
X0083105Y0156742D01*
X0082625Y0157404D01*
X0082047Y0157982D01*
X0081385Y0158463D01*
X0080656Y0158834D01*
X0079878Y0159087D01*
X0079071Y0159215D01*
X0078994Y0159215D01*
X0078994Y0154351D01*
X0078994Y0153687D01*
X0083857Y0153687D01*
X0083857Y0153610D01*
X0083729Y0152803D01*
X0083477Y0152025D01*
X0083105Y0151296D01*
X0082625Y0150635D01*
X0082047Y0150056D01*
X0081385Y0149576D01*
X0080656Y0149204D01*
X0079878Y0148952D01*
X0079071Y0148824D01*
X0078994Y0148824D01*
X0078994Y0153687D01*
X0078330Y0153687D01*
X0078330Y0148824D01*
X0078253Y0148824D01*
X0077445Y0148952D01*
X0076667Y0149204D01*
X0075939Y0149576D01*
X0075478Y0149910D01*
X0075502Y0129819D01*
X0075939Y0130136D01*
X0076667Y0130508D01*
X0077445Y0130760D01*
X0078253Y0130888D01*
X0078330Y0130888D01*
X0078330Y0126025D01*
X0078994Y0126025D01*
X0078994Y0130888D01*
X0079071Y0130888D01*
X0079878Y0130760D01*
X0080656Y0130508D01*
X0081385Y0130136D01*
X0082047Y0129656D01*
X0082625Y0129077D01*
X0083105Y0128416D01*
X0083477Y0127687D01*
X0083729Y0126909D01*
X0083857Y0126101D01*
X0083857Y0126024D01*
X0078994Y0126024D01*
X0078994Y0125361D01*
X0083857Y0125361D01*
X0083857Y0125284D01*
X0083729Y0124476D01*
X0083477Y0123698D01*
X0083105Y0122969D01*
X0082625Y0122308D01*
X0082047Y0121730D01*
X0081385Y0121249D01*
X0080656Y0120878D01*
X0079878Y0120625D01*
X0079071Y0120497D01*
X0078994Y0120497D01*
X0078994Y0125361D01*
X0078330Y0125361D01*
X0078330Y0120497D01*
X0078253Y0120497D01*
X0077445Y0120625D01*
X0076667Y0120878D01*
X0075939Y0121249D01*
X0075511Y0121559D01*
X0075600Y0046246D01*
X0078320Y0046246D01*
X0078320Y0072235D01*
X0078708Y0073172D01*
X0079426Y0073890D01*
X0080363Y0074278D01*
X0087178Y0074278D01*
X0087178Y0094401D01*
X0087567Y0095338D01*
X0088284Y0096055D01*
X0089221Y0096443D01*
X0090236Y0096443D01*
X0091173Y0096055D01*
X0091890Y0095338D01*
X0092278Y0094401D01*
X0092278Y0071221D01*
X0091890Y0070284D01*
X0091173Y0069566D01*
X0090236Y0069178D01*
X0083420Y0069178D01*
X0083420Y0043878D01*
X0082420Y0042146D01*
X0082420Y0042146D01*
X0080689Y0041147D01*
X0080689Y0041147D01*
X0075606Y0041147D01*
X0075606Y0040835D02*
X0192023Y0040835D01*
X0191706Y0039237D02*
X0090620Y0039237D01*
X0092160Y0037638D02*
X0191706Y0037638D01*
X0191706Y0036040D02*
X0092278Y0036040D01*
X0082586Y0042434D02*
X0210295Y0042434D01*
X0210663Y0040835D02*
X0205741Y0040835D01*
X0206058Y0039237D02*
X0210663Y0039237D01*
X0210663Y0037638D02*
X0206058Y0037638D01*
X0206058Y0036040D02*
X0210663Y0036040D01*
X0217585Y0036040D02*
X0245309Y0036040D01*
X0245309Y0034860D02*
X0242298Y0034860D01*
X0217585Y0034860D01*
X0217585Y0047957D01*
X0216472Y0049070D01*
X0197951Y0067591D01*
X0149993Y0067591D01*
X0150433Y0068031D01*
X0150433Y0073128D01*
X0149613Y0073948D01*
X0148768Y0073948D01*
X0148768Y0074815D01*
X0149098Y0074815D01*
X0150274Y0075302D01*
X0151174Y0076202D01*
X0151661Y0077378D01*
X0151661Y0078479D01*
X0164174Y0090665D01*
X0220415Y0090665D01*
X0221228Y0089852D01*
X0222404Y0089365D01*
X0223677Y0089365D01*
X0224853Y0089852D01*
X0225701Y0090701D01*
X0250916Y0091038D01*
X0251691Y0091038D01*
X0251701Y0091049D01*
X0251716Y0091049D01*
X0252256Y0091604D01*
X0256369Y0095717D01*
X0257482Y0096830D01*
X0257482Y0097447D01*
X0258287Y0097447D01*
X0259107Y0098267D01*
X0259107Y0103364D01*
X0258287Y0104184D01*
X0257442Y0104184D01*
X0257442Y0105726D01*
X0258327Y0105726D01*
X0259147Y0106546D01*
X0259147Y0109973D01*
X0259436Y0110262D01*
X0259436Y0119376D01*
X0260922Y0117889D01*
X0264402Y0117889D01*
X0266862Y0120350D01*
X0266862Y0123829D01*
X0264402Y0126289D01*
X0260922Y0126289D01*
X0259436Y0124803D01*
X0259436Y0129376D01*
X0260922Y0127889D01*
X0264402Y0127889D01*
X0266862Y0130350D01*
X0266862Y0133829D01*
X0264402Y0136289D01*
X0260922Y0136289D01*
X0259436Y0134803D01*
X0259436Y0138810D01*
X0260757Y0137489D01*
X0262562Y0137489D01*
X0262562Y0141989D01*
X0262762Y0141989D01*
X0262762Y0137489D01*
X0264568Y0137489D01*
X0267262Y0140184D01*
X0267262Y0141989D01*
X0262762Y0141989D01*
X0262762Y0142189D01*
X0267262Y0142189D01*
X0267262Y0143995D01*
X0264568Y0146689D01*
X0262762Y0146689D01*
X0262762Y0142189D01*
X0262562Y0142189D01*
X0262562Y0146689D01*
X0260757Y0146689D01*
X0259436Y0145368D01*
X0259436Y0148003D01*
X0256862Y0150576D01*
X0256862Y0153829D01*
X0255321Y0155371D01*
X0259438Y0155371D01*
X0258062Y0153995D01*
X0258062Y0152189D01*
X0262562Y0152189D01*
X0262562Y0151989D01*
X0262762Y0151989D01*
X0262762Y0147489D01*
X0264568Y0147489D01*
X0267262Y0150184D01*
X0267262Y0151989D01*
X0262762Y0151989D01*
X0262762Y0152189D01*
X0267262Y0152189D01*
X0267262Y0152780D01*
X0267890Y0152152D01*
X0267890Y0076659D01*
X0246422Y0055191D01*
X0245309Y0054078D01*
X0245309Y0034860D01*
X0245309Y0037638D02*
X0217585Y0037638D01*
X0217585Y0039237D02*
X0245309Y0039237D01*
X0245309Y0040835D02*
X0217585Y0040835D01*
X0217585Y0042434D02*
X0245309Y0042434D01*
X0245309Y0044032D02*
X0217585Y0044032D01*
X0217585Y0045631D02*
X0245309Y0045631D01*
X0245309Y0047229D02*
X0217585Y0047229D01*
X0216714Y0048828D02*
X0245309Y0048828D01*
X0245309Y0050426D02*
X0215116Y0050426D01*
X0213517Y0052025D02*
X0245309Y0052025D01*
X0245309Y0053623D02*
X0211919Y0053623D01*
X0210320Y0055222D02*
X0246453Y0055222D01*
X0248052Y0056820D02*
X0208722Y0056820D01*
X0207123Y0058419D02*
X0249650Y0058419D01*
X0251249Y0060017D02*
X0205525Y0060017D01*
X0203926Y0061616D02*
X0252847Y0061616D01*
X0254446Y0063214D02*
X0202328Y0063214D01*
X0200729Y0064813D02*
X0256044Y0064813D01*
X0257643Y0066411D02*
X0199131Y0066411D01*
X0196954Y0063214D02*
X0137084Y0063214D01*
X0135485Y0064813D02*
X0141296Y0064813D01*
X0139698Y0066411D02*
X0133887Y0066411D01*
X0136631Y0068010D02*
X0115641Y0068010D01*
X0114043Y0069608D02*
X0136610Y0069608D01*
X0136610Y0071207D02*
X0120648Y0071207D01*
X0121237Y0072805D02*
X0136610Y0072805D01*
X0138275Y0074404D02*
X0121237Y0074404D01*
X0121237Y0076003D02*
X0138275Y0076003D01*
X0138275Y0077601D02*
X0120530Y0077601D01*
X0119572Y0079200D02*
X0138275Y0079200D01*
X0138275Y0080798D02*
X0119572Y0080798D01*
X0119572Y0082397D02*
X0138275Y0082397D01*
X0138275Y0083995D02*
X0119572Y0083995D01*
X0119572Y0085594D02*
X0138275Y0085594D01*
X0138275Y0087192D02*
X0119572Y0087192D01*
X0119572Y0088791D02*
X0138275Y0088791D01*
X0138275Y0090389D02*
X0119572Y0090389D01*
X0119572Y0091988D02*
X0138275Y0091988D01*
X0138275Y0093586D02*
X0119572Y0093586D01*
X0119572Y0095185D02*
X0138275Y0095185D01*
X0138275Y0096783D02*
X0119572Y0096783D01*
X0119572Y0098382D02*
X0138275Y0098382D01*
X0138275Y0099980D02*
X0119572Y0099980D01*
X0119572Y0101579D02*
X0138275Y0101579D01*
X0138275Y0103177D02*
X0119572Y0103177D01*
X0119572Y0104776D02*
X0138275Y0104776D01*
X0138275Y0106374D02*
X0119572Y0106374D01*
X0120130Y0107973D02*
X0138275Y0107973D01*
X0138275Y0109571D02*
X0121729Y0109571D01*
X0123327Y0111170D02*
X0138275Y0111170D01*
X0138275Y0112768D02*
X0124926Y0112768D01*
X0126524Y0114367D02*
X0138275Y0114367D01*
X0138275Y0115965D02*
X0128123Y0115965D01*
X0131560Y0117564D02*
X0138275Y0117564D01*
X0138275Y0119162D02*
X0132568Y0119162D01*
X0132573Y0120761D02*
X0138275Y0120761D01*
X0138275Y0122359D02*
X0131571Y0122359D01*
X0129777Y0125556D02*
X0137335Y0125556D01*
X0137002Y0127155D02*
X0131619Y0127155D01*
X0133460Y0128753D02*
X0137466Y0128753D01*
X0135302Y0130352D02*
X0142163Y0130352D01*
X0142163Y0131950D02*
X0138906Y0131950D01*
X0139315Y0133549D02*
X0142163Y0133549D01*
X0143481Y0135147D02*
X0138927Y0135147D01*
X0136818Y0136746D02*
X0142263Y0136746D01*
X0135412Y0136746D02*
X0107511Y0136746D01*
X0104081Y0136746D02*
X0075494Y0136746D01*
X0075492Y0138344D02*
X0103096Y0138344D01*
X0103327Y0139943D02*
X0075490Y0139943D01*
X0075488Y0141541D02*
X0103021Y0141541D01*
X0102786Y0143140D02*
X0075486Y0143140D01*
X0075484Y0144739D02*
X0103759Y0144739D01*
X0107213Y0144739D02*
X0138607Y0144739D01*
X0140206Y0146337D02*
X0092108Y0146337D01*
X0092142Y0146362D02*
X0092629Y0146848D01*
X0093033Y0147406D01*
X0093346Y0148019D01*
X0093559Y0148674D01*
X0093666Y0149354D01*
X0093666Y0149698D01*
X0089292Y0149698D01*
X0089292Y0145324D01*
X0089636Y0145324D01*
X0090316Y0145431D01*
X0090971Y0145644D01*
X0091585Y0145957D01*
X0092142Y0146362D01*
X0093303Y0147936D02*
X0141804Y0147936D01*
X0142979Y0149534D02*
X0093666Y0149534D01*
X0093666Y0149699D02*
X0093666Y0150043D01*
X0093559Y0150723D01*
X0093346Y0151378D01*
X0093033Y0151991D01*
X0092629Y0152548D01*
X0092142Y0153035D01*
X0091585Y0153440D01*
X0090971Y0153753D01*
X0090316Y0153966D01*
X0089636Y0154073D01*
X0089292Y0154073D01*
X0089292Y0149699D01*
X0089292Y0149699D01*
X0093666Y0149699D01*
X0093426Y0151133D02*
X0142163Y0151133D01*
X0142163Y0152731D02*
X0092446Y0152731D01*
X0089292Y0152731D02*
X0089292Y0152731D01*
X0089292Y0154073D02*
X0088947Y0154073D01*
X0088267Y0153966D01*
X0087612Y0153753D01*
X0086999Y0153440D01*
X0086442Y0153035D01*
X0085955Y0152548D01*
X0085550Y0151991D01*
X0085237Y0151378D01*
X0085025Y0150723D01*
X0084917Y0150043D01*
X0084917Y0149699D01*
X0089292Y0149699D01*
X0089292Y0149698D01*
X0089292Y0149698D01*
X0089292Y0145324D01*
X0088947Y0145324D01*
X0088267Y0145431D01*
X0087612Y0145644D01*
X0086999Y0145957D01*
X0086442Y0146362D01*
X0085955Y0146848D01*
X0085550Y0147406D01*
X0085237Y0148019D01*
X0085025Y0148674D01*
X0084917Y0149354D01*
X0084917Y0149698D01*
X0089292Y0149698D01*
X0089292Y0149699D01*
X0089292Y0154073D01*
X0089292Y0151133D02*
X0089292Y0151133D01*
X0089292Y0149534D02*
X0089292Y0149534D01*
X0089292Y0147936D02*
X0089292Y0147936D01*
X0089292Y0146337D02*
X0089292Y0146337D01*
X0086475Y0146337D02*
X0075482Y0146337D01*
X0075480Y0147936D02*
X0085280Y0147936D01*
X0084917Y0149534D02*
X0081303Y0149534D01*
X0078994Y0149534D02*
X0078330Y0149534D01*
X0078330Y0151133D02*
X0078994Y0151133D01*
X0078994Y0152731D02*
X0078330Y0152731D01*
X0078994Y0154330D02*
X0142664Y0154330D01*
X0143387Y0159125D02*
X0124533Y0159125D01*
X0123597Y0160724D02*
X0142163Y0160724D01*
X0142163Y0162322D02*
X0075463Y0162322D01*
X0075465Y0160724D02*
X0120069Y0160724D01*
X0119133Y0159125D02*
X0079638Y0159125D01*
X0078994Y0159125D02*
X0078330Y0159125D01*
X0077685Y0159125D02*
X0075467Y0159125D01*
X0078330Y0157527D02*
X0078994Y0157527D01*
X0078994Y0155928D02*
X0078330Y0155928D01*
X0082502Y0157527D02*
X0119384Y0157527D01*
X0122028Y0155928D02*
X0083505Y0155928D01*
X0083706Y0152731D02*
X0086137Y0152731D01*
X0085158Y0151133D02*
X0082987Y0151133D01*
X0076020Y0149534D02*
X0075478Y0149534D01*
X0075495Y0135147D02*
X0133303Y0135147D01*
X0132915Y0133549D02*
X0091868Y0133549D01*
X0092142Y0133350D02*
X0091585Y0133755D01*
X0090971Y0134068D01*
X0090316Y0134280D01*
X0089636Y0134388D01*
X0089292Y0134388D01*
X0089292Y0130014D01*
X0089292Y0130014D01*
X0089292Y0130013D02*
X0093666Y0130013D01*
X0089292Y0130013D01*
X0089292Y0130013D01*
X0089292Y0125639D01*
X0089636Y0125639D01*
X0090316Y0125746D01*
X0090971Y0125959D01*
X0091585Y0126272D01*
X0092142Y0126677D01*
X0092629Y0127163D01*
X0093033Y0127721D01*
X0093346Y0128334D01*
X0093559Y0128989D01*
X0093666Y0129669D01*
X0093666Y0130013D01*
X0093666Y0130358D01*
X0093559Y0131038D01*
X0093346Y0131693D01*
X0093033Y0132306D01*
X0092629Y0132863D01*
X0092142Y0133350D01*
X0093215Y0131950D02*
X0131347Y0131950D01*
X0129505Y0130352D02*
X0093666Y0130352D01*
X0093482Y0128753D02*
X0127663Y0128753D01*
X0125822Y0127155D02*
X0092620Y0127155D01*
X0089292Y0127155D02*
X0089292Y0127155D01*
X0089292Y0125639D02*
X0089292Y0130013D01*
X0089292Y0130013D01*
X0084917Y0130013D01*
X0084917Y0129669D01*
X0085025Y0128989D01*
X0085237Y0128334D01*
X0085550Y0127721D01*
X0085955Y0127163D01*
X0086442Y0126677D01*
X0086999Y0126272D01*
X0087612Y0125959D01*
X0088267Y0125746D01*
X0088947Y0125639D01*
X0089292Y0125639D01*
X0089292Y0128753D02*
X0089292Y0128753D01*
X0089292Y0130013D02*
X0089292Y0130013D01*
X0084917Y0130013D01*
X0084917Y0130358D01*
X0085025Y0131038D01*
X0085237Y0131693D01*
X0085550Y0132306D01*
X0085955Y0132863D01*
X0086442Y0133350D01*
X0086999Y0133755D01*
X0087612Y0134068D01*
X0088267Y0134280D01*
X0088947Y0134388D01*
X0089292Y0134388D01*
X0089292Y0130014D01*
X0089292Y0130352D02*
X0089292Y0130352D01*
X0089292Y0131950D02*
X0089292Y0131950D01*
X0089292Y0133549D02*
X0089292Y0133549D01*
X0086715Y0133549D02*
X0075497Y0133549D01*
X0075499Y0131950D02*
X0085369Y0131950D01*
X0084917Y0130352D02*
X0080962Y0130352D01*
X0078994Y0130352D02*
X0078330Y0130352D01*
X0078330Y0128753D02*
X0078994Y0128753D01*
X0078994Y0127155D02*
X0078330Y0127155D01*
X0078994Y0125556D02*
X0123980Y0125556D01*
X0122139Y0123958D02*
X0083561Y0123958D01*
X0082662Y0122359D02*
X0120297Y0122359D01*
X0118455Y0120761D02*
X0080297Y0120761D01*
X0078994Y0120761D02*
X0078330Y0120761D01*
X0077026Y0120761D02*
X0075512Y0120761D01*
X0075514Y0119162D02*
X0116614Y0119162D01*
X0114772Y0117564D02*
X0075516Y0117564D01*
X0075518Y0115965D02*
X0112931Y0115965D01*
X0111089Y0114367D02*
X0075520Y0114367D01*
X0075522Y0112768D02*
X0109247Y0112768D01*
X0108952Y0111170D02*
X0075524Y0111170D01*
X0075525Y0109571D02*
X0108997Y0109571D01*
X0109001Y0107973D02*
X0075527Y0107973D01*
X0075529Y0106374D02*
X0109005Y0106374D01*
X0109009Y0104776D02*
X0075531Y0104776D01*
X0075533Y0103177D02*
X0109012Y0103177D01*
X0109016Y0101579D02*
X0075535Y0101579D01*
X0075537Y0099980D02*
X0109020Y0099980D01*
X0109023Y0098382D02*
X0075539Y0098382D01*
X0075541Y0096783D02*
X0109027Y0096783D01*
X0109031Y0095185D02*
X0091954Y0095185D01*
X0092278Y0093586D02*
X0109035Y0093586D01*
X0109038Y0091988D02*
X0092278Y0091988D01*
X0092278Y0090389D02*
X0109042Y0090389D01*
X0109046Y0088791D02*
X0092278Y0088791D01*
X0092278Y0087192D02*
X0109049Y0087192D01*
X0109053Y0085594D02*
X0092278Y0085594D01*
X0092278Y0083995D02*
X0109057Y0083995D01*
X0109061Y0082397D02*
X0092278Y0082397D01*
X0092278Y0080798D02*
X0109064Y0080798D01*
X0109068Y0079200D02*
X0092278Y0079200D01*
X0092278Y0077601D02*
X0108122Y0077601D01*
X0107414Y0076003D02*
X0092278Y0076003D01*
X0092278Y0074404D02*
X0107414Y0074404D01*
X0107414Y0072805D02*
X0092278Y0072805D01*
X0092273Y0071207D02*
X0108003Y0071207D01*
X0109079Y0069608D02*
X0091215Y0069608D01*
X0087178Y0074404D02*
X0075567Y0074404D01*
X0075569Y0072805D02*
X0078556Y0072805D01*
X0078320Y0071207D02*
X0075571Y0071207D01*
X0075572Y0069608D02*
X0078320Y0069608D01*
X0078320Y0068010D02*
X0075574Y0068010D01*
X0075576Y0066411D02*
X0078320Y0066411D01*
X0078320Y0064813D02*
X0075578Y0064813D01*
X0075580Y0063214D02*
X0078320Y0063214D01*
X0078320Y0061616D02*
X0075582Y0061616D01*
X0075584Y0060017D02*
X0078320Y0060017D01*
X0078320Y0058419D02*
X0075586Y0058419D01*
X0075587Y0056820D02*
X0078320Y0056820D01*
X0078320Y0055222D02*
X0075589Y0055222D01*
X0075591Y0053623D02*
X0078320Y0053623D01*
X0078320Y0052025D02*
X0075593Y0052025D01*
X0075595Y0050426D02*
X0078320Y0050426D01*
X0078320Y0048828D02*
X0075597Y0048828D01*
X0075599Y0047229D02*
X0078320Y0047229D01*
X0083420Y0047229D02*
X0205500Y0047229D01*
X0207098Y0045631D02*
X0083420Y0045631D01*
X0083420Y0044032D02*
X0208697Y0044032D01*
X0210874Y0047229D02*
X0212939Y0047229D01*
X0212472Y0045631D02*
X0213785Y0045631D01*
X0211340Y0048828D02*
X0209275Y0048828D01*
X0209742Y0050426D02*
X0207677Y0050426D01*
X0208143Y0052025D02*
X0206078Y0052025D01*
X0206545Y0053623D02*
X0204480Y0053623D01*
X0204946Y0055222D02*
X0202881Y0055222D01*
X0203348Y0056820D02*
X0201283Y0056820D01*
X0201749Y0058419D02*
X0199684Y0058419D01*
X0200151Y0060017D02*
X0198086Y0060017D01*
X0198552Y0061616D02*
X0196487Y0061616D01*
X0195909Y0056820D02*
X0083420Y0056820D01*
X0083420Y0055222D02*
X0197507Y0055222D01*
X0199106Y0053623D02*
X0083420Y0053623D01*
X0083420Y0052025D02*
X0200704Y0052025D01*
X0202303Y0050426D02*
X0083420Y0050426D01*
X0083420Y0048828D02*
X0203901Y0048828D01*
X0220691Y0090389D02*
X0163890Y0090389D01*
X0162249Y0088791D02*
X0267890Y0088791D01*
X0267890Y0090389D02*
X0225390Y0090389D01*
X0224946Y0095185D02*
X0227328Y0095185D01*
X0225729Y0096783D02*
X0223296Y0096783D01*
X0223713Y0098382D02*
X0225313Y0098382D01*
X0225313Y0099980D02*
X0223713Y0099980D01*
X0222813Y0101579D02*
X0226212Y0101579D01*
X0227773Y0104740D02*
X0225313Y0107200D01*
X0225313Y0110679D01*
X0227773Y0113140D01*
X0231252Y0113140D01*
X0233713Y0110679D01*
X0233713Y0107200D01*
X0231252Y0104740D01*
X0227773Y0104740D01*
X0227737Y0104776D02*
X0221288Y0104776D01*
X0221252Y0104740D02*
X0223713Y0107200D01*
X0223713Y0110679D01*
X0221252Y0113140D01*
X0217773Y0113140D01*
X0215313Y0110679D01*
X0215313Y0107200D01*
X0217773Y0104740D01*
X0221252Y0104740D01*
X0222887Y0106374D02*
X0226138Y0106374D01*
X0225313Y0107973D02*
X0223713Y0107973D01*
X0223713Y0109571D02*
X0225313Y0109571D01*
X0225803Y0111170D02*
X0223222Y0111170D01*
X0221624Y0112768D02*
X0227402Y0112768D01*
X0227962Y0116825D02*
X0225941Y0116825D01*
X0225483Y0116948D01*
X0225073Y0117185D01*
X0224737Y0117520D01*
X0224500Y0117931D01*
X0224378Y0118389D01*
X0224378Y0120607D01*
X0227962Y0120607D01*
X0227962Y0120975D01*
X0224378Y0120975D01*
X0224378Y0123193D01*
X0224500Y0123651D01*
X0224737Y0124061D01*
X0225073Y0124397D01*
X0225102Y0124414D01*
X0224778Y0124738D01*
X0224778Y0130229D01*
X0225373Y0130824D01*
X0224429Y0131215D01*
X0223529Y0132115D01*
X0223041Y0133291D01*
X0223041Y0134565D01*
X0223529Y0135741D01*
X0224429Y0136641D01*
X0225605Y0137128D01*
X0226878Y0137128D01*
X0228054Y0136641D01*
X0228954Y0135741D01*
X0229441Y0134565D01*
X0229441Y0133291D01*
X0229436Y0133279D01*
X0229946Y0132769D01*
X0229946Y0131049D01*
X0230695Y0131049D01*
X0231515Y0130229D01*
X0231515Y0124738D01*
X0231190Y0124414D01*
X0231220Y0124397D01*
X0231555Y0124061D01*
X0231792Y0123651D01*
X0231915Y0123193D01*
X0231915Y0120975D01*
X0228331Y0120975D01*
X0228331Y0120607D01*
X0231915Y0120607D01*
X0231915Y0118389D01*
X0231792Y0117931D01*
X0231555Y0117520D01*
X0231220Y0117185D01*
X0230810Y0116948D01*
X0230352Y0116825D01*
X0228331Y0116825D01*
X0228331Y0120607D01*
X0227962Y0120607D01*
X0227962Y0116825D01*
X0227962Y0117564D02*
X0228331Y0117564D01*
X0228331Y0119162D02*
X0227962Y0119162D01*
X0227962Y0120761D02*
X0160963Y0120761D01*
X0160963Y0120184D02*
X0160963Y0121989D01*
X0156463Y0121989D01*
X0156463Y0117489D01*
X0158268Y0117489D01*
X0160963Y0120184D01*
X0159941Y0119162D02*
X0224378Y0119162D01*
X0224712Y0117564D02*
X0158343Y0117564D01*
X0156463Y0117564D02*
X0156263Y0117564D01*
X0156263Y0117489D02*
X0156263Y0121989D01*
X0156463Y0121989D01*
X0156463Y0122189D01*
X0160963Y0122189D01*
X0160963Y0123995D01*
X0158268Y0126689D01*
X0156463Y0126689D01*
X0156463Y0122189D01*
X0156263Y0122189D01*
X0156263Y0121989D01*
X0151763Y0121989D01*
X0151763Y0120184D01*
X0154458Y0117489D01*
X0156263Y0117489D01*
X0156263Y0119162D02*
X0156463Y0119162D01*
X0156463Y0120761D02*
X0156263Y0120761D01*
X0156263Y0122189D02*
X0151763Y0122189D01*
X0151763Y0123995D01*
X0154458Y0126689D01*
X0156263Y0126689D01*
X0156263Y0122189D01*
X0156263Y0122359D02*
X0156463Y0122359D01*
X0156463Y0123958D02*
X0156263Y0123958D01*
X0156263Y0125556D02*
X0156463Y0125556D01*
X0159401Y0125556D02*
X0224778Y0125556D01*
X0224778Y0127155D02*
X0177146Y0127155D01*
X0177980Y0128753D02*
X0224778Y0128753D01*
X0224901Y0130352D02*
X0218579Y0130352D01*
X0219000Y0131950D02*
X0223693Y0131950D01*
X0223041Y0133549D02*
X0218460Y0133549D01*
X0218100Y0135147D02*
X0223283Y0135147D01*
X0224683Y0136746D02*
X0218100Y0136746D01*
X0218100Y0138344D02*
X0230249Y0138344D01*
X0229558Y0139943D02*
X0218100Y0139943D01*
X0216649Y0141541D02*
X0229558Y0141541D01*
X0229558Y0143140D02*
X0215051Y0143140D01*
X0213452Y0144739D02*
X0229868Y0144739D01*
X0231178Y0146337D02*
X0211854Y0146337D01*
X0210255Y0147936D02*
X0231178Y0147936D01*
X0231178Y0149534D02*
X0208657Y0149534D01*
X0207058Y0151133D02*
X0226215Y0151133D01*
X0225511Y0152731D02*
X0205460Y0152731D01*
X0203566Y0149534D02*
X0159747Y0149534D01*
X0160563Y0151133D02*
X0163744Y0151133D01*
X0162145Y0152731D02*
X0160563Y0152731D01*
X0160547Y0154330D02*
X0160062Y0154330D01*
X0162441Y0157527D02*
X0166321Y0157527D01*
X0164722Y0159125D02*
X0159338Y0159125D01*
X0160563Y0160724D02*
X0162982Y0160724D01*
X0161384Y0162322D02*
X0160563Y0162322D01*
X0163561Y0165519D02*
X0179179Y0165519D01*
X0179229Y0165499D02*
X0180502Y0165499D01*
X0181678Y0165986D01*
X0182578Y0166886D01*
X0183065Y0168062D01*
X0183065Y0169335D01*
X0182578Y0170511D01*
X0181678Y0171411D01*
X0180502Y0171899D01*
X0179229Y0171899D01*
X0178053Y0171411D01*
X0177153Y0170511D01*
X0176665Y0169335D01*
X0176665Y0168062D01*
X0177153Y0166886D01*
X0178053Y0165986D01*
X0179229Y0165499D01*
X0180552Y0165519D02*
X0200945Y0165519D01*
X0200945Y0166099D02*
X0200945Y0164826D01*
X0201432Y0163650D01*
X0202332Y0162750D01*
X0203509Y0162263D01*
X0204782Y0162263D01*
X0205958Y0162750D01*
X0206858Y0163650D01*
X0207345Y0164826D01*
X0207345Y0166099D01*
X0206858Y0167275D01*
X0205958Y0168176D01*
X0204782Y0168663D01*
X0203509Y0168663D01*
X0202332Y0168176D01*
X0201432Y0167275D01*
X0200945Y0166099D01*
X0201367Y0167118D02*
X0182674Y0167118D01*
X0183065Y0168716D02*
X0227386Y0168716D01*
X0228485Y0167118D02*
X0206923Y0167118D01*
X0207345Y0165519D02*
X0226176Y0165519D01*
X0225749Y0163921D02*
X0206970Y0163921D01*
X0204925Y0162322D02*
X0226119Y0162322D01*
X0229857Y0168716D02*
X0230083Y0168716D01*
X0232260Y0165519D02*
X0237807Y0165519D01*
X0237903Y0165575D02*
X0237493Y0165338D01*
X0237158Y0165003D01*
X0237141Y0164973D01*
X0236816Y0165298D01*
X0232039Y0165298D01*
X0233355Y0166614D01*
X0236782Y0166614D01*
X0237106Y0166939D01*
X0237124Y0166909D01*
X0237459Y0166574D01*
X0237869Y0166337D01*
X0238327Y0166214D01*
X0240545Y0166214D01*
X0240545Y0169798D01*
X0240914Y0169798D01*
X0240914Y0170167D01*
X0244695Y0170167D01*
X0244695Y0172188D01*
X0244572Y0172646D01*
X0244335Y0173056D01*
X0244000Y0173391D01*
X0243590Y0173628D01*
X0243132Y0173751D01*
X0240914Y0173751D01*
X0240914Y0170167D01*
X0240545Y0170167D01*
X0240545Y0173751D01*
X0238327Y0173751D01*
X0237869Y0173628D01*
X0237459Y0173391D01*
X0237124Y0173056D01*
X0237106Y0173026D01*
X0236782Y0173351D01*
X0231388Y0173351D01*
X0231334Y0173481D01*
X0230809Y0174006D01*
X0231363Y0174560D01*
X0231406Y0174663D01*
X0236806Y0174663D01*
X0237130Y0174987D01*
X0237148Y0174958D01*
X0237483Y0174622D01*
X0237893Y0174385D01*
X0238351Y0174263D01*
X0240569Y0174263D01*
X0240569Y0177847D01*
X0240938Y0177847D01*
X0240938Y0178216D01*
X0244719Y0178216D01*
X0244719Y0180237D01*
X0244596Y0180695D01*
X0244423Y0180994D01*
X0245420Y0180990D01*
X0246192Y0180218D01*
X0246192Y0157834D01*
X0247542Y0156484D01*
X0248655Y0155371D01*
X0250004Y0155371D01*
X0248462Y0153829D01*
X0248462Y0150576D01*
X0242983Y0145097D01*
X0242961Y0145118D01*
X0238289Y0145118D01*
X0238356Y0145185D01*
X0238593Y0145595D01*
X0238715Y0146053D01*
X0238715Y0148271D01*
X0235131Y0148271D01*
X0235131Y0148639D01*
X0238715Y0148639D01*
X0238715Y0150858D01*
X0238593Y0151315D01*
X0238356Y0151726D01*
X0238021Y0152061D01*
X0237991Y0152078D01*
X0238315Y0152403D01*
X0238315Y0157893D01*
X0237933Y0158275D01*
X0238361Y0158161D01*
X0240579Y0158161D01*
X0240579Y0161745D01*
X0240948Y0161745D01*
X0240948Y0162113D01*
X0244729Y0162113D01*
X0244729Y0164135D01*
X0244606Y0164592D01*
X0244369Y0165003D01*
X0244034Y0165338D01*
X0243624Y0165575D01*
X0243166Y0165698D01*
X0240948Y0165698D01*
X0240948Y0162113D01*
X0240579Y0162113D01*
X0240579Y0165698D01*
X0238361Y0165698D01*
X0237903Y0165575D01*
X0240579Y0165519D02*
X0240948Y0165519D01*
X0240914Y0166214D02*
X0243132Y0166214D01*
X0243590Y0166337D01*
X0244000Y0166574D01*
X0244335Y0166909D01*
X0244572Y0167319D01*
X0244695Y0167777D01*
X0244695Y0169798D01*
X0240914Y0169798D01*
X0240914Y0166214D01*
X0240914Y0167118D02*
X0240545Y0167118D01*
X0240545Y0168716D02*
X0240914Y0168716D01*
X0240914Y0170315D02*
X0240545Y0170315D01*
X0240545Y0171913D02*
X0240914Y0171913D01*
X0240914Y0173512D02*
X0240545Y0173512D01*
X0240938Y0174263D02*
X0243156Y0174263D01*
X0243613Y0174385D01*
X0244024Y0174622D01*
X0244359Y0174958D01*
X0244596Y0175368D01*
X0244719Y0175826D01*
X0244719Y0177847D01*
X0240938Y0177847D01*
X0240938Y0174263D01*
X0240938Y0175110D02*
X0240569Y0175110D01*
X0240569Y0176709D02*
X0240938Y0176709D01*
X0244719Y0176709D02*
X0246192Y0176709D01*
X0246192Y0178307D02*
X0244719Y0178307D01*
X0244719Y0179906D02*
X0246192Y0179906D01*
X0249992Y0178307D02*
X0250505Y0178307D01*
X0249992Y0176709D02*
X0311262Y0176709D01*
X0311264Y0178307D02*
X0264820Y0178307D01*
X0264402Y0177889D02*
X0266862Y0180350D01*
X0266862Y0183829D01*
X0264402Y0186289D01*
X0260922Y0186289D01*
X0258462Y0183829D01*
X0258462Y0180350D01*
X0260922Y0177889D01*
X0264402Y0177889D01*
X0264402Y0176289D02*
X0260922Y0176289D01*
X0258462Y0173829D01*
X0258462Y0170350D01*
X0260922Y0167889D01*
X0264402Y0167889D01*
X0266862Y0170350D01*
X0266862Y0173829D01*
X0264402Y0176289D01*
X0265581Y0175110D02*
X0311259Y0175110D01*
X0311257Y0173512D02*
X0266862Y0173512D01*
X0266862Y0171913D02*
X0311254Y0171913D01*
X0311251Y0170315D02*
X0266827Y0170315D01*
X0265229Y0168716D02*
X0311249Y0168716D01*
X0311246Y0167118D02*
X0249992Y0167118D01*
X0249992Y0168716D02*
X0250096Y0168716D01*
X0250152Y0165519D02*
X0249992Y0165519D01*
X0246192Y0165519D02*
X0243720Y0165519D01*
X0244456Y0167118D02*
X0246192Y0167118D01*
X0246192Y0168716D02*
X0244695Y0168716D01*
X0244695Y0170315D02*
X0246192Y0170315D01*
X0246192Y0171913D02*
X0244695Y0171913D01*
X0243792Y0173512D02*
X0246192Y0173512D01*
X0246192Y0175110D02*
X0244447Y0175110D01*
X0237667Y0173512D02*
X0231303Y0173512D01*
X0225939Y0173512D02*
X0160563Y0173512D01*
X0160563Y0171913D02*
X0225421Y0171913D01*
X0225718Y0170315D02*
X0182660Y0170315D01*
X0177071Y0170315D02*
X0160528Y0170315D01*
X0158930Y0168716D02*
X0176665Y0168716D01*
X0177057Y0167118D02*
X0161962Y0167118D01*
X0165159Y0163921D02*
X0201320Y0163921D01*
X0203365Y0162322D02*
X0166616Y0162322D01*
X0164040Y0155928D02*
X0227027Y0155928D01*
X0225731Y0154330D02*
X0165638Y0154330D01*
X0164254Y0147936D02*
X0205164Y0147936D01*
X0206763Y0146337D02*
X0165787Y0146337D01*
X0167321Y0144739D02*
X0208361Y0144739D01*
X0209960Y0143140D02*
X0170289Y0143140D01*
X0170598Y0141541D02*
X0211558Y0141541D01*
X0213157Y0139943D02*
X0181672Y0139943D01*
X0182933Y0138344D02*
X0214500Y0138344D01*
X0214500Y0136746D02*
X0195206Y0136746D01*
X0195538Y0135147D02*
X0198050Y0135147D01*
X0197942Y0135040D02*
X0197455Y0133863D01*
X0197455Y0132590D01*
X0197942Y0131414D01*
X0198843Y0130514D01*
X0200019Y0130027D01*
X0201292Y0130027D01*
X0202468Y0130514D01*
X0203368Y0131414D01*
X0203855Y0132590D01*
X0203855Y0133863D01*
X0203368Y0135040D01*
X0202468Y0135940D01*
X0201292Y0136427D01*
X0200019Y0136427D01*
X0198843Y0135940D01*
X0197942Y0135040D01*
X0197455Y0133549D02*
X0191757Y0133549D01*
X0191757Y0135147D02*
X0191388Y0135147D01*
X0191388Y0136746D02*
X0191757Y0136746D01*
X0191757Y0131950D02*
X0191388Y0131950D01*
X0191388Y0130352D02*
X0191757Y0130352D01*
X0194884Y0130352D02*
X0199234Y0130352D01*
X0197720Y0131950D02*
X0195538Y0131950D01*
X0202076Y0130352D02*
X0214020Y0130352D01*
X0213600Y0131950D02*
X0203590Y0131950D01*
X0203855Y0133549D02*
X0214139Y0133549D01*
X0214500Y0135147D02*
X0203260Y0135147D01*
X0224678Y0123958D02*
X0160963Y0123958D01*
X0160963Y0122359D02*
X0224378Y0122359D01*
X0228331Y0120761D02*
X0248462Y0120761D01*
X0248462Y0122359D02*
X0231915Y0122359D01*
X0231615Y0123958D02*
X0248591Y0123958D01*
X0250190Y0125556D02*
X0231515Y0125556D01*
X0231515Y0127155D02*
X0255636Y0127155D01*
X0255636Y0128753D02*
X0255266Y0128753D01*
X0255135Y0125556D02*
X0255636Y0125556D01*
X0259436Y0125556D02*
X0260190Y0125556D01*
X0259436Y0127155D02*
X0267890Y0127155D01*
X0267890Y0128753D02*
X0265266Y0128753D01*
X0266862Y0130352D02*
X0267890Y0130352D01*
X0267890Y0131950D02*
X0266862Y0131950D01*
X0266862Y0133549D02*
X0267890Y0133549D01*
X0267890Y0135147D02*
X0265544Y0135147D01*
X0267890Y0136746D02*
X0259436Y0136746D01*
X0259436Y0138344D02*
X0259902Y0138344D01*
X0262562Y0138344D02*
X0262762Y0138344D01*
X0262762Y0139943D02*
X0262562Y0139943D01*
X0262562Y0141541D02*
X0262762Y0141541D01*
X0262762Y0143140D02*
X0262562Y0143140D01*
X0262562Y0144739D02*
X0262762Y0144739D01*
X0262762Y0146337D02*
X0262562Y0146337D01*
X0262562Y0147489D02*
X0262562Y0151989D01*
X0258062Y0151989D01*
X0258062Y0150184D01*
X0260757Y0147489D01*
X0262562Y0147489D01*
X0262562Y0147936D02*
X0262762Y0147936D01*
X0262762Y0149534D02*
X0262562Y0149534D01*
X0262562Y0151133D02*
X0262762Y0151133D01*
X0265014Y0147936D02*
X0267890Y0147936D01*
X0267890Y0149534D02*
X0266612Y0149534D01*
X0267262Y0151133D02*
X0267890Y0151133D01*
X0267311Y0152731D02*
X0267262Y0152731D01*
X0269488Y0155928D02*
X0311228Y0155928D01*
X0311225Y0154330D02*
X0271087Y0154330D01*
X0271690Y0152731D02*
X0311223Y0152731D01*
X0311220Y0151133D02*
X0271690Y0151133D01*
X0271690Y0149534D02*
X0311217Y0149534D01*
X0311215Y0147936D02*
X0271690Y0147936D01*
X0271690Y0146337D02*
X0311212Y0146337D01*
X0311210Y0144739D02*
X0271690Y0144739D01*
X0271690Y0143140D02*
X0311207Y0143140D01*
X0311204Y0141541D02*
X0271690Y0141541D01*
X0271690Y0139943D02*
X0311202Y0139943D01*
X0311199Y0138344D02*
X0271690Y0138344D01*
X0271690Y0136746D02*
X0311196Y0136746D01*
X0311194Y0135147D02*
X0271690Y0135147D01*
X0271690Y0133549D02*
X0311191Y0133549D01*
X0311189Y0131950D02*
X0271690Y0131950D01*
X0271690Y0130352D02*
X0311186Y0130352D01*
X0311183Y0128753D02*
X0271690Y0128753D01*
X0271690Y0127155D02*
X0311181Y0127155D01*
X0311178Y0125556D02*
X0271690Y0125556D01*
X0271690Y0123958D02*
X0311175Y0123958D01*
X0311173Y0122359D02*
X0271690Y0122359D01*
X0271690Y0120761D02*
X0311170Y0120761D01*
X0311168Y0119162D02*
X0271690Y0119162D01*
X0271690Y0117564D02*
X0311165Y0117564D01*
X0311162Y0115965D02*
X0271690Y0115965D01*
X0271690Y0114367D02*
X0311160Y0114367D01*
X0311157Y0112768D02*
X0271690Y0112768D01*
X0271690Y0111170D02*
X0311155Y0111170D01*
X0311152Y0109571D02*
X0271690Y0109571D01*
X0271690Y0107973D02*
X0311149Y0107973D01*
X0311147Y0106374D02*
X0271690Y0106374D01*
X0271690Y0104776D02*
X0311144Y0104776D01*
X0311141Y0103177D02*
X0271690Y0103177D01*
X0271690Y0101579D02*
X0311139Y0101579D01*
X0311136Y0099980D02*
X0271690Y0099980D01*
X0271690Y0098382D02*
X0311134Y0098382D01*
X0311131Y0096783D02*
X0271690Y0096783D01*
X0271690Y0095185D02*
X0294196Y0095185D01*
X0293871Y0093586D02*
X0271690Y0093586D01*
X0271690Y0091988D02*
X0293871Y0091988D01*
X0293871Y0090389D02*
X0271690Y0090389D01*
X0271690Y0088791D02*
X0293871Y0088791D01*
X0293871Y0087192D02*
X0271690Y0087192D01*
X0271690Y0085594D02*
X0293871Y0085594D01*
X0293871Y0083995D02*
X0271690Y0083995D01*
X0271690Y0082397D02*
X0293871Y0082397D01*
X0293871Y0080798D02*
X0271690Y0080798D01*
X0271690Y0079200D02*
X0293871Y0079200D01*
X0293871Y0077601D02*
X0271690Y0077601D01*
X0271690Y0076003D02*
X0293871Y0076003D01*
X0293871Y0074404D02*
X0271009Y0074404D01*
X0269411Y0072805D02*
X0293871Y0072805D01*
X0293871Y0071207D02*
X0267812Y0071207D01*
X0266214Y0069608D02*
X0294462Y0069608D01*
X0298971Y0074404D02*
X0311094Y0074404D01*
X0311092Y0072805D02*
X0307415Y0072805D01*
X0307830Y0071207D02*
X0311089Y0071207D01*
X0311086Y0069608D02*
X0307830Y0069608D01*
X0307830Y0068010D02*
X0311084Y0068010D01*
X0311081Y0066411D02*
X0307830Y0066411D01*
X0307830Y0064813D02*
X0311079Y0064813D01*
X0311076Y0063214D02*
X0307830Y0063214D01*
X0307830Y0061616D02*
X0311073Y0061616D01*
X0311071Y0060017D02*
X0307830Y0060017D01*
X0307830Y0058419D02*
X0311068Y0058419D01*
X0311066Y0056820D02*
X0307830Y0056820D01*
X0307830Y0055222D02*
X0311063Y0055222D01*
X0311060Y0053623D02*
X0307830Y0053623D01*
X0307830Y0052025D02*
X0311058Y0052025D01*
X0311055Y0050426D02*
X0307830Y0050426D01*
X0307830Y0048828D02*
X0311052Y0048828D01*
X0311050Y0047229D02*
X0307830Y0047229D01*
X0302730Y0047229D02*
X0249109Y0047229D01*
X0249109Y0045631D02*
X0302730Y0045631D01*
X0302730Y0044032D02*
X0249109Y0044032D01*
X0249109Y0042434D02*
X0303450Y0042434D01*
X0302730Y0048828D02*
X0249109Y0048828D01*
X0249109Y0050426D02*
X0302730Y0050426D01*
X0302730Y0052025D02*
X0249109Y0052025D01*
X0250229Y0053623D02*
X0302730Y0053623D01*
X0302730Y0055222D02*
X0251827Y0055222D01*
X0253426Y0056820D02*
X0302730Y0056820D01*
X0302730Y0058419D02*
X0255024Y0058419D01*
X0256623Y0060017D02*
X0302730Y0060017D01*
X0302730Y0061616D02*
X0258221Y0061616D01*
X0259820Y0063214D02*
X0302730Y0063214D01*
X0302730Y0064813D02*
X0261418Y0064813D01*
X0263017Y0066411D02*
X0302730Y0066411D01*
X0302730Y0068010D02*
X0264615Y0068010D01*
X0262438Y0071207D02*
X0150433Y0071207D01*
X0150433Y0072805D02*
X0264037Y0072805D01*
X0265635Y0074404D02*
X0148768Y0074404D01*
X0150975Y0076003D02*
X0267234Y0076003D01*
X0267890Y0077601D02*
X0151661Y0077601D01*
X0152401Y0079200D02*
X0267890Y0079200D01*
X0267890Y0080798D02*
X0154043Y0080798D01*
X0155684Y0082397D02*
X0267890Y0082397D01*
X0267890Y0083995D02*
X0157325Y0083995D01*
X0158966Y0085594D02*
X0267890Y0085594D01*
X0267890Y0087192D02*
X0160608Y0087192D01*
X0158444Y0090389D02*
X0142075Y0090389D01*
X0142075Y0088791D02*
X0156803Y0088791D01*
X0155161Y0087192D02*
X0142075Y0087192D01*
X0142075Y0085594D02*
X0153520Y0085594D01*
X0151879Y0083995D02*
X0142075Y0083995D01*
X0142075Y0082397D02*
X0150238Y0082397D01*
X0146820Y0080798D02*
X0142075Y0080798D01*
X0142075Y0079200D02*
X0145489Y0079200D01*
X0145261Y0077601D02*
X0142075Y0077601D01*
X0142075Y0076003D02*
X0144968Y0076003D01*
X0144968Y0074404D02*
X0142075Y0074404D01*
X0150433Y0069608D02*
X0260840Y0069608D01*
X0259241Y0068010D02*
X0150412Y0068010D01*
X0136505Y0058419D02*
X0083420Y0058419D01*
X0083420Y0060017D02*
X0134907Y0060017D01*
X0133308Y0061616D02*
X0083420Y0061616D01*
X0083420Y0063214D02*
X0131710Y0063214D01*
X0115772Y0079200D02*
X0112868Y0079200D01*
X0112864Y0080798D02*
X0115772Y0080798D01*
X0115772Y0082397D02*
X0112861Y0082397D01*
X0112857Y0083995D02*
X0115772Y0083995D01*
X0115772Y0085594D02*
X0112853Y0085594D01*
X0112849Y0087192D02*
X0115772Y0087192D01*
X0115772Y0088791D02*
X0112846Y0088791D01*
X0112842Y0090389D02*
X0115772Y0090389D01*
X0115772Y0091988D02*
X0112838Y0091988D01*
X0112835Y0093586D02*
X0115772Y0093586D01*
X0115772Y0095185D02*
X0112831Y0095185D01*
X0112827Y0096783D02*
X0115772Y0096783D01*
X0115772Y0098382D02*
X0112823Y0098382D01*
X0112820Y0099980D02*
X0115772Y0099980D01*
X0115772Y0101579D02*
X0112816Y0101579D01*
X0112812Y0103177D02*
X0115772Y0103177D01*
X0115772Y0104776D02*
X0112809Y0104776D01*
X0112805Y0106374D02*
X0115772Y0106374D01*
X0115772Y0107973D02*
X0112801Y0107973D01*
X0112797Y0109571D02*
X0116355Y0109571D01*
X0117953Y0111170D02*
X0113203Y0111170D01*
X0115044Y0112768D02*
X0119552Y0112768D01*
X0121150Y0114367D02*
X0116886Y0114367D01*
X0118728Y0115965D02*
X0122749Y0115965D01*
X0124347Y0117564D02*
X0120569Y0117564D01*
X0122411Y0119162D02*
X0125946Y0119162D01*
X0126303Y0120761D02*
X0124252Y0120761D01*
X0126094Y0122359D02*
X0127304Y0122359D01*
X0127936Y0123958D02*
X0138275Y0123958D01*
X0142075Y0123958D02*
X0142292Y0123958D01*
X0142163Y0123829D02*
X0142163Y0120350D01*
X0144623Y0117889D01*
X0148103Y0117889D01*
X0150563Y0120350D01*
X0150563Y0123829D01*
X0148103Y0126289D01*
X0144623Y0126289D01*
X0142163Y0123829D01*
X0142163Y0122359D02*
X0142075Y0122359D01*
X0142075Y0120761D02*
X0142163Y0120761D01*
X0142075Y0119162D02*
X0143350Y0119162D01*
X0142075Y0117564D02*
X0154383Y0117564D01*
X0152785Y0119162D02*
X0149376Y0119162D01*
X0150563Y0120761D02*
X0151763Y0120761D01*
X0151763Y0122359D02*
X0150563Y0122359D01*
X0150434Y0123958D02*
X0151763Y0123958D01*
X0153325Y0125556D02*
X0148836Y0125556D01*
X0148967Y0128753D02*
X0153759Y0128753D01*
X0152163Y0130352D02*
X0150563Y0130352D01*
X0150563Y0131950D02*
X0152163Y0131950D01*
X0152163Y0133549D02*
X0150563Y0133549D01*
X0149244Y0135147D02*
X0153481Y0135147D01*
X0159244Y0135147D02*
X0165680Y0135147D01*
X0167512Y0133549D02*
X0160563Y0133549D01*
X0160563Y0131950D02*
X0170443Y0131950D01*
X0170443Y0130352D02*
X0160563Y0130352D01*
X0158967Y0128753D02*
X0170443Y0128753D01*
X0171277Y0127155D02*
X0143402Y0127155D01*
X0143069Y0125556D02*
X0143890Y0125556D01*
X0143759Y0128753D02*
X0142938Y0128753D01*
X0142075Y0115965D02*
X0255636Y0115965D01*
X0255636Y0114367D02*
X0142075Y0114367D01*
X0142075Y0112768D02*
X0167402Y0112768D01*
X0167773Y0113140D02*
X0165313Y0110679D01*
X0165313Y0107200D01*
X0167773Y0104740D01*
X0171252Y0104740D01*
X0173713Y0107200D01*
X0173713Y0110679D01*
X0171252Y0113140D01*
X0167773Y0113140D01*
X0165803Y0111170D02*
X0142075Y0111170D01*
X0142075Y0109571D02*
X0165313Y0109571D01*
X0165313Y0107973D02*
X0142075Y0107973D01*
X0142075Y0106374D02*
X0166138Y0106374D01*
X0167737Y0104776D02*
X0142075Y0104776D01*
X0142075Y0103177D02*
X0231063Y0103177D01*
X0231288Y0104776D02*
X0232662Y0104776D01*
X0232887Y0106374D02*
X0236138Y0106374D01*
X0235313Y0107973D02*
X0233713Y0107973D01*
X0233713Y0109571D02*
X0235313Y0109571D01*
X0235803Y0111170D02*
X0233222Y0111170D01*
X0231624Y0112768D02*
X0237402Y0112768D01*
X0241624Y0112768D02*
X0255636Y0112768D01*
X0259436Y0112768D02*
X0267890Y0112768D01*
X0267890Y0111170D02*
X0259436Y0111170D01*
X0259147Y0109571D02*
X0267890Y0109571D01*
X0267890Y0107973D02*
X0259147Y0107973D01*
X0258975Y0106374D02*
X0267890Y0106374D01*
X0267890Y0104776D02*
X0257442Y0104776D01*
X0259107Y0103177D02*
X0267890Y0103177D01*
X0267890Y0101579D02*
X0259107Y0101579D01*
X0259107Y0099980D02*
X0267890Y0099980D01*
X0267890Y0098382D02*
X0259107Y0098382D01*
X0257435Y0096783D02*
X0267890Y0096783D01*
X0267890Y0095185D02*
X0255837Y0095185D01*
X0254238Y0093586D02*
X0267890Y0093586D01*
X0267890Y0091988D02*
X0252640Y0091988D01*
X0250463Y0095185D02*
X0241697Y0095185D01*
X0243296Y0096783D02*
X0252061Y0096783D01*
X0245284Y0098382D02*
X0243713Y0098382D01*
X0243713Y0099980D02*
X0244696Y0099980D01*
X0243097Y0101579D02*
X0242813Y0101579D01*
X0236212Y0101579D02*
X0234839Y0101579D01*
X0235313Y0099980D02*
X0233713Y0099980D01*
X0233713Y0098382D02*
X0235313Y0098382D01*
X0235729Y0096783D02*
X0233296Y0096783D01*
X0231697Y0095185D02*
X0237328Y0095185D01*
X0243222Y0111170D02*
X0245323Y0111170D01*
X0249649Y0119162D02*
X0231915Y0119162D01*
X0231580Y0117564D02*
X0255636Y0117564D01*
X0259436Y0117564D02*
X0267890Y0117564D01*
X0267890Y0119162D02*
X0265675Y0119162D01*
X0266862Y0120761D02*
X0267890Y0120761D01*
X0267890Y0122359D02*
X0266862Y0122359D01*
X0266733Y0123958D02*
X0267890Y0123958D01*
X0267890Y0125556D02*
X0265135Y0125556D01*
X0260058Y0128753D02*
X0259436Y0128753D01*
X0259436Y0135147D02*
X0259781Y0135147D01*
X0255636Y0135147D02*
X0255544Y0135147D01*
X0255636Y0136746D02*
X0227800Y0136746D01*
X0229200Y0135147D02*
X0249781Y0135147D01*
X0248462Y0133549D02*
X0229441Y0133549D01*
X0229946Y0131950D02*
X0248462Y0131950D01*
X0248462Y0130352D02*
X0231392Y0130352D01*
X0231515Y0128753D02*
X0250058Y0128753D01*
X0250467Y0138344D02*
X0236797Y0138344D01*
X0233707Y0138344D02*
X0233339Y0138344D01*
X0233339Y0139943D02*
X0233707Y0139943D01*
X0233707Y0141541D02*
X0233339Y0141541D01*
X0238715Y0146337D02*
X0244223Y0146337D01*
X0245821Y0147936D02*
X0238715Y0147936D01*
X0238715Y0149534D02*
X0247420Y0149534D01*
X0248462Y0151133D02*
X0238642Y0151133D01*
X0238315Y0152731D02*
X0248462Y0152731D01*
X0248963Y0154330D02*
X0238315Y0154330D01*
X0238315Y0155928D02*
X0248098Y0155928D01*
X0246499Y0157527D02*
X0238315Y0157527D01*
X0240948Y0158161D02*
X0243166Y0158161D01*
X0243624Y0158283D01*
X0244034Y0158520D01*
X0244369Y0158855D01*
X0244606Y0159266D01*
X0244729Y0159724D01*
X0244729Y0161745D01*
X0240948Y0161745D01*
X0240948Y0158161D01*
X0240948Y0159125D02*
X0240579Y0159125D01*
X0240579Y0160724D02*
X0240948Y0160724D01*
X0240948Y0162322D02*
X0240579Y0162322D01*
X0240579Y0163921D02*
X0240948Y0163921D01*
X0244729Y0163921D02*
X0246192Y0163921D01*
X0246192Y0162322D02*
X0244729Y0162322D01*
X0244729Y0160724D02*
X0246192Y0160724D01*
X0246192Y0159125D02*
X0244525Y0159125D01*
X0255172Y0165519D02*
X0259587Y0165519D01*
X0258062Y0163921D02*
X0256770Y0163921D01*
X0256862Y0162322D02*
X0258062Y0162322D01*
X0258062Y0160724D02*
X0256862Y0160724D01*
X0262562Y0162322D02*
X0262762Y0162322D01*
X0262762Y0163921D02*
X0262562Y0163921D01*
X0262562Y0165519D02*
X0262762Y0165519D01*
X0265738Y0165519D02*
X0311244Y0165519D01*
X0311241Y0163921D02*
X0267262Y0163921D01*
X0267262Y0162322D02*
X0311238Y0162322D01*
X0311236Y0160724D02*
X0267262Y0160724D01*
X0266291Y0159125D02*
X0311233Y0159125D01*
X0311230Y0157527D02*
X0267890Y0157527D01*
X0260311Y0147936D02*
X0259436Y0147936D01*
X0259436Y0146337D02*
X0260405Y0146337D01*
X0258712Y0149534D02*
X0257904Y0149534D01*
X0258062Y0151133D02*
X0256862Y0151133D01*
X0256862Y0152731D02*
X0258062Y0152731D01*
X0258397Y0154330D02*
X0256362Y0154330D01*
X0255636Y0146337D02*
X0249597Y0146337D01*
X0249372Y0144739D02*
X0247998Y0144739D01*
X0248462Y0143140D02*
X0246400Y0143140D01*
X0244801Y0141541D02*
X0248462Y0141541D01*
X0248869Y0139943D02*
X0243781Y0139943D01*
X0254857Y0138344D02*
X0255636Y0138344D01*
X0265423Y0138344D02*
X0267890Y0138344D01*
X0267890Y0139943D02*
X0267021Y0139943D01*
X0267262Y0141541D02*
X0267890Y0141541D01*
X0267890Y0143140D02*
X0267262Y0143140D01*
X0267890Y0144739D02*
X0266518Y0144739D01*
X0267890Y0146337D02*
X0264920Y0146337D01*
X0260096Y0168716D02*
X0255229Y0168716D01*
X0256827Y0170315D02*
X0258497Y0170315D01*
X0258462Y0171913D02*
X0256862Y0171913D01*
X0256862Y0173512D02*
X0258462Y0173512D01*
X0259743Y0175110D02*
X0255581Y0175110D01*
X0254820Y0178307D02*
X0260505Y0178307D01*
X0258906Y0179906D02*
X0256418Y0179906D01*
X0256862Y0181504D02*
X0258462Y0181504D01*
X0258462Y0183103D02*
X0256862Y0183103D01*
X0255990Y0184701D02*
X0259335Y0184701D01*
X0260757Y0187489D02*
X0258062Y0190184D01*
X0258062Y0191989D01*
X0262562Y0191989D01*
X0262762Y0191989D01*
X0262762Y0187489D01*
X0264568Y0187489D01*
X0267262Y0190184D01*
X0267262Y0191989D01*
X0262762Y0191989D01*
X0262762Y0192189D01*
X0267262Y0192189D01*
X0267262Y0193995D01*
X0264568Y0196689D01*
X0262762Y0196689D01*
X0262762Y0192189D01*
X0262562Y0192189D01*
X0262562Y0191989D01*
X0262562Y0187489D01*
X0260757Y0187489D01*
X0260348Y0187898D02*
X0254411Y0187898D01*
X0254402Y0187889D02*
X0256862Y0190350D01*
X0256862Y0193829D01*
X0254402Y0196289D01*
X0250922Y0196289D01*
X0248462Y0193829D01*
X0248462Y0190350D01*
X0250922Y0187889D01*
X0254402Y0187889D01*
X0256009Y0189497D02*
X0258749Y0189497D01*
X0258062Y0191095D02*
X0256862Y0191095D01*
X0256862Y0192694D02*
X0258062Y0192694D01*
X0258062Y0192189D02*
X0258062Y0193995D01*
X0260757Y0196689D01*
X0262562Y0196689D01*
X0262562Y0192189D01*
X0258062Y0192189D01*
X0258360Y0194292D02*
X0256399Y0194292D01*
X0254800Y0195891D02*
X0259958Y0195891D01*
X0262562Y0195891D02*
X0262762Y0195891D01*
X0262762Y0194292D02*
X0262562Y0194292D01*
X0262562Y0192694D02*
X0262762Y0192694D01*
X0262762Y0191095D02*
X0262562Y0191095D01*
X0262562Y0189497D02*
X0262762Y0189497D01*
X0262762Y0187898D02*
X0262562Y0187898D01*
X0264977Y0187898D02*
X0311280Y0187898D01*
X0311278Y0186300D02*
X0238960Y0186300D01*
X0241099Y0187898D02*
X0250913Y0187898D01*
X0249315Y0189497D02*
X0243237Y0189497D01*
X0245376Y0191095D02*
X0248462Y0191095D01*
X0248462Y0192694D02*
X0245922Y0192694D01*
X0245861Y0194292D02*
X0248926Y0194292D01*
X0250524Y0195891D02*
X0245861Y0195891D01*
X0245861Y0197489D02*
X0311296Y0197489D01*
X0311293Y0195891D02*
X0265366Y0195891D01*
X0266964Y0194292D02*
X0311291Y0194292D01*
X0311288Y0192694D02*
X0267262Y0192694D01*
X0267262Y0191095D02*
X0311285Y0191095D01*
X0311283Y0189497D02*
X0266575Y0189497D01*
X0265990Y0184701D02*
X0311275Y0184701D01*
X0311272Y0183103D02*
X0266862Y0183103D01*
X0266862Y0181504D02*
X0311270Y0181504D01*
X0311267Y0179906D02*
X0266418Y0179906D01*
X0249335Y0184701D02*
X0247086Y0184701D01*
X0239029Y0191095D02*
X0235399Y0191095D01*
X0235399Y0192694D02*
X0236915Y0192694D01*
X0235547Y0194292D02*
X0235399Y0194292D01*
X0233832Y0197489D02*
X0223767Y0197489D01*
X0224004Y0199088D02*
X0232234Y0199088D01*
X0230635Y0200686D02*
X0223342Y0200686D01*
X0229037Y0202285D02*
X0185061Y0202285D01*
X0185925Y0203149D02*
X0185925Y0203149D01*
X0184175Y0201399D01*
X0184175Y0201399D01*
X0181888Y0200452D01*
X0180651Y0200452D01*
X0179858Y0200389D01*
X0178351Y0199900D01*
X0177069Y0198968D01*
X0176137Y0197686D01*
X0176081Y0197515D01*
X0176398Y0197199D01*
X0176885Y0196023D01*
X0176885Y0194750D01*
X0176398Y0193573D01*
X0175498Y0192673D01*
X0174321Y0192186D01*
X0173048Y0192186D01*
X0171872Y0192673D01*
X0170972Y0193573D01*
X0170485Y0194750D01*
X0170485Y0196023D01*
X0170972Y0197199D01*
X0171872Y0198099D01*
X0172263Y0198261D01*
X0172653Y0199461D01*
X0172653Y0199461D01*
X0174303Y0201733D01*
X0174303Y0201733D01*
X0174303Y0201733D01*
X0176575Y0203384D01*
X0176576Y0203384D01*
X0179246Y0204252D01*
X0180651Y0204252D01*
X0181123Y0204298D01*
X0181996Y0204660D01*
X0182664Y0205328D01*
X0182869Y0205823D01*
X0180772Y0207920D01*
X0180772Y0211399D01*
X0181281Y0211908D01*
X0178660Y0211912D01*
X0179172Y0211399D01*
X0179172Y0207920D01*
X0176712Y0205459D01*
X0173232Y0205459D01*
X0170772Y0207920D01*
X0170772Y0211399D01*
X0171294Y0211921D01*
X0155139Y0211942D01*
X0154904Y0211805D01*
X0154380Y0211943D01*
X0153838Y0211944D01*
X0153645Y0212137D01*
X0153382Y0212207D01*
X0153109Y0212675D01*
X0152726Y0213058D01*
X0152727Y0213331D01*
X0149033Y0219672D01*
X0148589Y0219672D01*
X0147347Y0220187D01*
X0146396Y0221138D01*
X0145881Y0222381D01*
X0145881Y0223726D01*
X0146396Y0224969D01*
X0147347Y0225920D01*
X0148589Y0226434D01*
X0149935Y0226434D01*
X0151177Y0225920D01*
X0152128Y0224969D01*
X0152337Y0224465D01*
X0153081Y0225210D01*
X0154258Y0225697D01*
X0155531Y0225697D01*
X0156707Y0225210D01*
X0157607Y0224309D01*
X0158094Y0223133D01*
X0158094Y0222047D01*
X0162838Y0217465D01*
X0171227Y0217465D01*
X0170772Y0217920D01*
X0170772Y0221399D01*
X0173232Y0223859D01*
X0176485Y0223859D01*
X0180558Y0227932D01*
X0180670Y0228050D01*
X0180670Y0229284D01*
X0181157Y0230460D01*
X0182058Y0231360D01*
X0182981Y0231743D01*
X0180523Y0233204D01*
X0179326Y0233204D01*
X0178513Y0232391D01*
X0177337Y0231904D01*
X0176064Y0231904D01*
X0174888Y0232391D01*
X0173988Y0233291D01*
X0173501Y0234467D01*
X0173501Y0235740D01*
X0173988Y0236916D01*
X0174040Y0236969D01*
X0173572Y0236969D01*
X0172429Y0235826D01*
X0172429Y0230779D01*
X0166419Y0224769D01*
X0166419Y0223620D01*
X0165932Y0222444D01*
X0165032Y0221543D01*
X0163856Y0221056D01*
X0162583Y0221056D01*
X0161407Y0221543D01*
X0160506Y0222444D01*
X0160019Y0223620D01*
X0160019Y0224893D01*
X0160506Y0226069D01*
X0161407Y0226969D01*
X0162583Y0227456D01*
X0163732Y0227456D01*
X0168629Y0232353D01*
X0168629Y0237400D01*
X0170068Y0238838D01*
X0169777Y0238838D01*
X0169772Y0238826D01*
X0168872Y0237925D01*
X0167696Y0237438D01*
X0166423Y0237438D01*
X0165247Y0237925D01*
X0164346Y0238826D01*
X0163859Y0240002D01*
X0163859Y0241275D01*
X0164346Y0242451D01*
X0165247Y0243351D01*
X0165415Y0243421D01*
X0165228Y0243608D01*
X0164741Y0244784D01*
X0164741Y0246057D01*
X0164939Y0246535D01*
X0162019Y0243615D01*
X0162550Y0243084D01*
X0162550Y0237593D01*
X0162225Y0237269D01*
X0162255Y0237251D01*
X0162590Y0236916D01*
X0162827Y0236506D01*
X0162950Y0236048D01*
X0162950Y0233830D01*
X0159365Y0233830D01*
X0159365Y0233461D01*
X0159365Y0229680D01*
X0161387Y0229680D01*
X0161844Y0229803D01*
X0162255Y0230040D01*
X0162590Y0230375D01*
X0162827Y0230786D01*
X0162950Y0231243D01*
X0162950Y0233461D01*
X0159365Y0233461D01*
X0158997Y0233461D01*
X0158997Y0229680D01*
X0156976Y0229680D01*
X0156518Y0229803D01*
X0156107Y0230040D01*
X0155772Y0230375D01*
X0155535Y0230786D01*
X0155413Y0231243D01*
X0155413Y0233461D01*
X0158997Y0233461D01*
X0158997Y0233830D01*
X0155413Y0233830D01*
X0155413Y0236048D01*
X0155535Y0236506D01*
X0155772Y0236916D01*
X0156107Y0237251D01*
X0156137Y0237269D01*
X0155813Y0237593D01*
X0155813Y0238320D01*
X0155468Y0238298D01*
X0155436Y0238222D01*
X0154536Y0237322D01*
X0153360Y0236834D01*
X0152087Y0236834D01*
X0150911Y0237322D01*
X0150011Y0238222D01*
X0149523Y0239398D01*
X0149523Y0240671D01*
X0150011Y0241847D01*
X0150911Y0242747D01*
X0152087Y0243234D01*
X0153360Y0243234D01*
X0154536Y0242747D01*
X0155195Y0242089D01*
X0155813Y0242127D01*
X0155813Y0243084D01*
X0156633Y0243904D01*
X0157381Y0243904D01*
X0157381Y0244068D01*
X0160175Y0246863D01*
X0155392Y0246863D01*
X0154572Y0247683D01*
X0154572Y0248519D01*
X0153236Y0248519D01*
X0153236Y0247674D01*
X0152416Y0246854D01*
X0150207Y0246854D01*
X0149467Y0245376D01*
X0149482Y0245322D01*
X0149118Y0244680D01*
X0148787Y0244019D01*
X0148734Y0244001D01*
X0148706Y0243952D01*
X0147994Y0243755D01*
X0147294Y0243522D01*
X0147243Y0243547D01*
X0147101Y0243508D01*
X0146824Y0242839D01*
X0145924Y0241939D01*
X0144748Y0241451D01*
X0143475Y0241451D01*
X0142299Y0241939D01*
X0141398Y0242839D01*
X0140911Y0244015D01*
X0140911Y0245288D01*
X0141398Y0246464D01*
X0142299Y0247364D01*
X0143475Y0247851D01*
X0144748Y0247851D01*
X0145924Y0247364D01*
X0146111Y0247177D01*
X0146120Y0247179D01*
X0146499Y0247936D01*
X0146499Y0253164D01*
X0146823Y0253489D01*
X0146794Y0253506D01*
X0146458Y0253841D01*
X0146221Y0254252D01*
X0146099Y0254710D01*
X0146099Y0256928D01*
X0149683Y0256928D01*
X0149683Y0257296D01*
X0146099Y0257296D01*
X0146099Y0259514D01*
X0146102Y0259528D01*
X0145404Y0259530D01*
X0144734Y0258860D01*
X0143557Y0258373D01*
X0142284Y0258373D01*
X0141108Y0258860D01*
X0140208Y0259760D01*
X0139721Y0260936D01*
X0139721Y0262209D01*
X0140208Y0263386D01*
X0141108Y0264286D01*
X0142284Y0264773D01*
X0143557Y0264773D01*
X0144734Y0264286D01*
X0145634Y0263386D01*
X0145657Y0263329D01*
X0157790Y0263287D01*
X0158252Y0263749D01*
X0158252Y0264085D01*
X0157439Y0264898D01*
X0156952Y0266074D01*
X0156952Y0267347D01*
X0157439Y0268524D01*
X0158340Y0269424D01*
X0159516Y0269911D01*
X0160789Y0269911D01*
X0161965Y0269424D01*
X0162865Y0268524D01*
X0163352Y0267347D01*
X0163352Y0266074D01*
X0162865Y0264898D01*
X0162052Y0264085D01*
X0162052Y0262175D01*
X0160754Y0260877D01*
X0161015Y0260727D01*
X0161350Y0260391D01*
X0161587Y0259981D01*
X0161709Y0259523D01*
X0161709Y0257305D01*
X0158125Y0257305D01*
X0158125Y0256937D01*
X0161709Y0256937D01*
X0161709Y0254719D01*
X0161587Y0254261D01*
X0161350Y0253850D01*
X0161015Y0253515D01*
X0160985Y0253498D01*
X0161309Y0253173D01*
X0161309Y0247997D01*
X0162696Y0249383D01*
X0163411Y0250098D01*
X0163281Y0250228D01*
X0162794Y0251404D01*
X0162794Y0252677D01*
X0163281Y0253853D01*
X0164181Y0254753D01*
X0165357Y0255240D01*
X0166630Y0255240D01*
X0167806Y0254753D01*
X0168352Y0254207D01*
X0168352Y0255045D01*
X0169172Y0255865D01*
X0174663Y0255865D01*
X0175264Y0255264D01*
X0175865Y0255865D01*
X0176711Y0255865D01*
X0176711Y0261815D01*
X0178237Y0263342D01*
X0178237Y0264161D01*
X0167480Y0273744D01*
X0166737Y0273744D01*
X0166064Y0273071D01*
X0166002Y0272820D01*
X0165527Y0272534D01*
X0165135Y0272142D01*
X0165041Y0272142D01*
X0164899Y0272000D01*
X0164639Y0272000D01*
X0164417Y0271866D01*
X0163879Y0272000D01*
X0140076Y0272000D01*
X0140069Y0271985D01*
X0139118Y0271033D01*
X0137876Y0270519D01*
X0136531Y0270519D01*
X0135288Y0271033D01*
X0134337Y0271985D01*
X0133822Y0273227D01*
X0133822Y0274572D01*
X0134337Y0275815D01*
X0135288Y0276766D01*
X0135339Y0276787D01*
X0135445Y0285410D01*
X0135445Y0286185D01*
X0135455Y0286195D01*
X0135455Y0286208D01*
X0136010Y0286750D01*
X0139977Y0290716D01*
X0139977Y0294143D01*
X0140775Y0294941D01*
X0139977Y0295739D01*
X0139977Y0300836D01*
X0140797Y0301656D01*
X0142089Y0301656D01*
X0142091Y0302849D01*
X0141631Y0303040D01*
X0140463Y0304208D01*
X0139831Y0305733D01*
X0139831Y0307384D01*
X0140463Y0308909D01*
X0141631Y0310077D01*
X0143156Y0310708D01*
X0144807Y0310708D01*
X0146332Y0310077D01*
X0147500Y0308909D01*
X0147997Y0307708D01*
X0148935Y0307403D01*
X0148935Y0307403D01*
X0149831Y0306752D01*
X0149831Y0307384D01*
X0150018Y0307835D01*
X0147081Y0310771D01*
X0147081Y0312853D01*
X0146631Y0313040D01*
X0145463Y0314208D01*
X0144831Y0315733D01*
X0144831Y0317384D01*
X0145463Y0318909D01*
X0146631Y0320077D01*
X0148156Y0320708D01*
X0149807Y0320708D01*
X0150258Y0320522D01*
X0151869Y0322133D01*
X0151869Y0329684D01*
X0151024Y0329684D01*
X0150204Y0330504D01*
X0150204Y0332072D01*
X0144728Y0332072D01*
X0144728Y0331423D01*
X0143908Y0330603D01*
X0138417Y0330603D01*
X0137597Y0331423D01*
X0137597Y0336520D01*
X0138395Y0337318D01*
X0137597Y0338116D01*
X0137597Y0343213D01*
X0138417Y0344033D01*
X0139262Y0344033D01*
X0139262Y0355490D01*
X0138049Y0356704D01*
X0137457Y0356458D01*
X0135706Y0356458D01*
X0134089Y0357128D01*
X0132851Y0358366D01*
X0132181Y0359983D01*
X0132181Y0361734D01*
X0132851Y0363351D01*
X0134089Y0364588D01*
X0135706Y0365258D01*
X0137457Y0365258D01*
X0139074Y0364588D01*
X0140312Y0363351D01*
X0140981Y0361734D01*
X0140981Y0359983D01*
X0140736Y0359391D01*
X0143062Y0357064D01*
X0143062Y0344033D01*
X0143908Y0344033D01*
X0144728Y0343213D01*
X0144728Y0338116D01*
X0143930Y0337318D01*
X0144728Y0336520D01*
X0144728Y0335872D01*
X0150475Y0335872D01*
X0151002Y0336399D01*
X0150204Y0337197D01*
X0150204Y0342294D01*
X0151024Y0343114D01*
X0156514Y0343114D01*
X0157334Y0342294D01*
X0157334Y0341645D01*
X0158061Y0341645D01*
X0165780Y0349363D01*
X0166875Y0350458D01*
X0165506Y0350458D01*
X0163889Y0351128D01*
X0162651Y0352366D01*
X0162306Y0353200D01*
X0158145Y0353200D01*
X0158145Y0352551D01*
X0157571Y0351977D01*
X0157850Y0351816D01*
X0158185Y0351481D01*
X0158422Y0351070D01*
X0158545Y0350612D01*
X0158545Y0348591D01*
X0154764Y0348591D01*
X0154764Y0348223D01*
X0158545Y0348223D01*
X0158545Y0346201D01*
X0158422Y0345744D01*
X0158185Y0345333D01*
X0157850Y0344998D01*
X0157440Y0344761D01*
X0156982Y0344638D01*
X0154764Y0344638D01*
X0154764Y0348222D01*
X0154395Y0348222D01*
X0154395Y0344638D01*
X0152177Y0344638D01*
X0151719Y0344761D01*
X0151309Y0344998D01*
X0150974Y0345333D01*
X0150737Y0345744D01*
X0150614Y0346201D01*
X0150614Y0348223D01*
X0154395Y0348223D01*
X0154395Y0348591D01*
X0150614Y0348591D01*
X0150614Y0350612D01*
X0150737Y0351070D01*
X0150974Y0351481D01*
X0151309Y0351816D01*
X0151588Y0351977D01*
X0151014Y0352551D01*
X0151014Y0357648D01*
X0151834Y0358468D01*
X0157325Y0358468D01*
X0158145Y0357648D01*
X0158145Y0357000D01*
X0162506Y0357000D01*
X0162651Y0357351D01*
X0163889Y0358588D01*
X0165506Y0359258D01*
X0167257Y0359258D01*
X0168874Y0358588D01*
X0170112Y0357351D01*
X0170781Y0355734D01*
X0170781Y0353983D01*
X0170112Y0352366D01*
X0168874Y0351128D01*
X0167300Y0350476D01*
X0168277Y0350476D01*
X0174404Y0356603D01*
X0174404Y0356915D01*
X0173889Y0357128D01*
X0172651Y0358366D01*
X0171981Y0359983D01*
X0171981Y0361734D01*
X0172651Y0363351D01*
X0173889Y0364588D01*
X0175506Y0365258D01*
X0177257Y0365258D01*
X0178874Y0364588D01*
X0180112Y0363351D01*
X0180781Y0361734D01*
X0180781Y0359983D01*
X0180112Y0358366D01*
X0178874Y0357128D01*
X0178204Y0356851D01*
X0178204Y0355029D01*
X0177091Y0353916D01*
X0173333Y0350158D01*
X0175692Y0350158D01*
X0178853Y0348849D01*
X0181272Y0346430D01*
X0182581Y0343269D01*
X0182581Y0339848D01*
X0181272Y0336687D01*
X0180305Y0335719D01*
X0180379Y0335750D01*
X0181206Y0335972D01*
X0181706Y0336038D01*
X0181706Y0330333D01*
X0181706Y0328783D01*
X0183256Y0328783D01*
X0183256Y0323079D01*
X0183757Y0323145D01*
X0184583Y0323366D01*
X0185374Y0323694D01*
X0186114Y0324121D01*
X0186793Y0324642D01*
X0187398Y0325247D01*
X0187918Y0325925D01*
X0188346Y0326666D01*
X0188673Y0327456D01*
X0188895Y0328283D01*
X0188961Y0328783D01*
X0183256Y0328783D01*
X0183256Y0330333D01*
X0181706Y0330333D01*
X0176002Y0330333D01*
X0176068Y0330834D01*
X0176289Y0331660D01*
X0176617Y0332450D01*
X0177044Y0333191D01*
X0177413Y0333671D01*
X0175692Y0332958D01*
X0172271Y0332958D01*
X0169110Y0334268D01*
X0166691Y0336687D01*
X0165381Y0339848D01*
X0165381Y0343269D01*
X0165609Y0343819D01*
X0159635Y0337845D01*
X0157334Y0337845D01*
X0157334Y0337197D01*
X0156536Y0336399D01*
X0157334Y0335601D01*
X0157334Y0334952D01*
X0162642Y0334952D01*
X0163328Y0335023D01*
X0163415Y0334952D01*
X0163527Y0334952D01*
X0164014Y0334465D01*
X0164549Y0334030D01*
X0164561Y0333919D01*
X0164640Y0333839D01*
X0164640Y0333341D01*
X0165803Y0333341D01*
X0166623Y0332521D01*
X0166623Y0327424D01*
X0165825Y0326626D01*
X0166623Y0325828D01*
X0166623Y0320731D01*
X0165803Y0319911D01*
X0164958Y0319911D01*
X0164958Y0319848D01*
X0163845Y0318735D01*
X0162945Y0317835D01*
X0163131Y0317384D01*
X0163131Y0315733D01*
X0162500Y0314208D01*
X0161332Y0313040D01*
X0159807Y0312408D01*
X0158156Y0312408D01*
X0156631Y0313040D01*
X0155463Y0314208D01*
X0154831Y0315733D01*
X0154831Y0317384D01*
X0155463Y0318909D01*
X0156631Y0320077D01*
X0158156Y0320708D01*
X0159516Y0320708D01*
X0159493Y0320731D01*
X0159493Y0325828D01*
X0160291Y0326626D01*
X0159493Y0327424D01*
X0159493Y0331152D01*
X0157334Y0331152D01*
X0157334Y0330504D01*
X0156514Y0329684D01*
X0155669Y0329684D01*
X0155669Y0320559D01*
X0152945Y0317835D01*
X0153131Y0317384D01*
X0153131Y0315733D01*
X0152500Y0314208D01*
X0151332Y0313040D01*
X0150881Y0312853D01*
X0150881Y0312345D01*
X0152705Y0310522D01*
X0153156Y0310708D01*
X0154807Y0310708D01*
X0156332Y0310077D01*
X0157500Y0308909D01*
X0158131Y0307384D01*
X0158131Y0305883D01*
X0165119Y0298895D01*
X0165119Y0301884D01*
X0165544Y0302309D01*
X0165258Y0302595D01*
X0164807Y0302408D01*
X0163156Y0302408D01*
X0161631Y0303040D01*
X0160463Y0304208D01*
X0159831Y0305733D01*
X0159831Y0307384D01*
X0160463Y0308909D01*
X0161631Y0310077D01*
X0163156Y0310708D01*
X0164807Y0310708D01*
X0166332Y0310077D01*
X0167500Y0308909D01*
X0168131Y0307384D01*
X0168131Y0305733D01*
X0167945Y0305282D01*
X0170523Y0302704D01*
X0171430Y0302704D01*
X0172250Y0301884D01*
X0172250Y0296802D01*
X0175124Y0299677D01*
X0175124Y0302231D01*
X0174252Y0302231D01*
X0173432Y0303051D01*
X0173432Y0308148D01*
X0174230Y0308946D01*
X0174159Y0309016D01*
X0173837Y0309016D01*
X0173642Y0309211D01*
X0173375Y0309282D01*
X0173105Y0309748D01*
X0170258Y0312595D01*
X0169807Y0312408D01*
X0168156Y0312408D01*
X0166631Y0313040D01*
X0165463Y0314208D01*
X0164831Y0315733D01*
X0164831Y0317384D01*
X0165463Y0318909D01*
X0166631Y0320077D01*
X0168156Y0320708D01*
X0169807Y0320708D01*
X0171332Y0320077D01*
X0172500Y0318909D01*
X0173131Y0317384D01*
X0173131Y0315733D01*
X0172945Y0315282D01*
X0173432Y0314795D01*
X0173432Y0314841D01*
X0174252Y0315661D01*
X0179742Y0315661D01*
X0180562Y0314841D01*
X0180562Y0309744D01*
X0179764Y0308946D01*
X0180562Y0308148D01*
X0180562Y0303051D01*
X0179742Y0302231D01*
X0178924Y0302231D01*
X0178924Y0298103D01*
X0177811Y0296990D01*
X0177811Y0296990D01*
X0172677Y0291855D01*
X0172677Y0291855D01*
X0172250Y0291428D01*
X0172250Y0290094D01*
X0171430Y0289274D01*
X0169056Y0289274D01*
X0169056Y0279570D01*
X0169869Y0278757D01*
X0170356Y0277581D01*
X0170356Y0276308D01*
X0170345Y0276281D01*
X0180733Y0267027D01*
X0180801Y0267055D01*
X0182074Y0267055D01*
X0183250Y0266567D01*
X0184150Y0265667D01*
X0184637Y0264491D01*
X0184637Y0263218D01*
X0184150Y0262042D01*
X0183250Y0261142D01*
X0182074Y0260655D01*
X0180924Y0260655D01*
X0180511Y0260241D01*
X0180511Y0255865D01*
X0181356Y0255865D01*
X0182176Y0255045D01*
X0182176Y0254397D01*
X0200118Y0254397D01*
X0213216Y0241298D01*
X0216643Y0241298D01*
X0217463Y0240478D01*
X0217463Y0238920D01*
X0222491Y0238920D01*
X0223604Y0237807D01*
X0236872Y0224539D01*
X0236872Y0223699D01*
X0239172Y0221399D01*
X0239172Y0217920D01*
X0236712Y0215459D01*
X0233232Y0215459D01*
X0230772Y0217920D01*
X0230772Y0221399D01*
X0232705Y0223332D01*
X0220917Y0235120D01*
X0217463Y0235120D01*
X0217463Y0234988D01*
X0216643Y0234167D01*
X0211546Y0234167D01*
X0210748Y0234966D01*
X0209950Y0234167D01*
X0204853Y0234167D01*
X0204033Y0234988D01*
X0204033Y0235833D01*
X0202388Y0235833D01*
X0200735Y0237486D01*
X0200720Y0237480D01*
X0199375Y0237480D01*
X0198132Y0237995D01*
X0197288Y0238838D01*
X0191054Y0238838D01*
X0202142Y0227750D01*
X0202142Y0222769D01*
X0203232Y0223859D01*
X0206712Y0223859D01*
X0209172Y0221399D01*
X0209172Y0217920D01*
X0206712Y0215459D01*
X0204146Y0215459D01*
X0205746Y0213859D01*
X0206712Y0213859D01*
X0209172Y0211399D01*
X0209172Y0207920D01*
X0206712Y0205459D01*
X0203232Y0205459D01*
X0200772Y0207920D01*
X0200772Y0211399D01*
X0201802Y0212429D01*
X0199455Y0214776D01*
X0198342Y0215889D01*
X0198342Y0217090D01*
X0196712Y0215459D01*
X0193327Y0215459D01*
X0192644Y0214806D01*
X0192869Y0214580D01*
X0192869Y0214564D01*
X0193551Y0213859D01*
X0196712Y0213859D01*
X0199172Y0211399D01*
X0199172Y0207920D01*
X0196712Y0205459D01*
X0193232Y0205459D01*
X0190772Y0207920D01*
X0190772Y0211266D01*
X0190162Y0211897D01*
X0188673Y0211899D01*
X0189172Y0211399D01*
X0189172Y0207920D01*
X0186872Y0205620D01*
X0186872Y0205436D01*
X0185925Y0203149D01*
X0186229Y0203883D02*
X0216944Y0203883D01*
X0218267Y0200686D02*
X0182455Y0200686D01*
X0182704Y0197901D02*
X0180683Y0197901D01*
X0180225Y0197779D01*
X0179815Y0197542D01*
X0179479Y0197206D01*
X0179242Y0196796D01*
X0179120Y0196338D01*
X0179120Y0194120D01*
X0182704Y0194120D01*
X0182704Y0193752D01*
X0179120Y0193752D01*
X0179120Y0191534D01*
X0179242Y0191076D01*
X0179479Y0190665D01*
X0179815Y0190330D01*
X0179844Y0190313D01*
X0179520Y0189988D01*
X0179520Y0184498D01*
X0180340Y0183678D01*
X0180988Y0183678D01*
X0180988Y0182158D01*
X0181524Y0181622D01*
X0181524Y0180473D01*
X0182011Y0179297D01*
X0182911Y0178396D01*
X0184087Y0177909D01*
X0185361Y0177909D01*
X0186537Y0178396D01*
X0187437Y0179297D01*
X0187924Y0180473D01*
X0187924Y0181746D01*
X0187437Y0182922D01*
X0186537Y0183822D01*
X0185861Y0184102D01*
X0186257Y0184498D01*
X0186257Y0189988D01*
X0185932Y0190313D01*
X0185962Y0190330D01*
X0186297Y0190665D01*
X0186534Y0191076D01*
X0186657Y0191534D01*
X0186657Y0193752D01*
X0183073Y0193752D01*
X0183073Y0194120D01*
X0186657Y0194120D01*
X0186657Y0196338D01*
X0186534Y0196796D01*
X0186297Y0197206D01*
X0185962Y0197542D01*
X0185552Y0197779D01*
X0185094Y0197901D01*
X0183073Y0197901D01*
X0183073Y0194120D01*
X0182704Y0194120D01*
X0182704Y0197901D01*
X0182704Y0197489D02*
X0183073Y0197489D01*
X0183073Y0195891D02*
X0182704Y0195891D01*
X0182704Y0194292D02*
X0183073Y0194292D01*
X0186657Y0194292D02*
X0217244Y0194292D01*
X0217244Y0192694D02*
X0186657Y0192694D01*
X0186539Y0191095D02*
X0217244Y0191095D01*
X0217244Y0189497D02*
X0186257Y0189497D01*
X0186257Y0187898D02*
X0217244Y0187898D01*
X0217244Y0186300D02*
X0186257Y0186300D01*
X0186257Y0184701D02*
X0217244Y0184701D01*
X0217244Y0183103D02*
X0187256Y0183103D01*
X0187924Y0181504D02*
X0217244Y0181504D01*
X0217244Y0179906D02*
X0187689Y0179906D01*
X0186321Y0178307D02*
X0217244Y0178307D01*
X0218507Y0176709D02*
X0152896Y0176709D01*
X0154205Y0178307D02*
X0151297Y0178307D01*
X0150119Y0179906D02*
X0152607Y0179906D01*
X0152163Y0181504D02*
X0150563Y0181504D01*
X0150563Y0183103D02*
X0152163Y0183103D01*
X0151064Y0184701D02*
X0149691Y0184701D01*
X0153241Y0187898D02*
X0154614Y0187898D01*
X0154623Y0187889D02*
X0158103Y0187889D01*
X0160563Y0190350D01*
X0160563Y0193829D01*
X0158103Y0196289D01*
X0154623Y0196289D01*
X0152163Y0193829D01*
X0152163Y0190350D01*
X0154623Y0187889D01*
X0154839Y0186300D02*
X0179520Y0186300D01*
X0179520Y0187898D02*
X0158112Y0187898D01*
X0159710Y0189497D02*
X0179520Y0189497D01*
X0179237Y0191095D02*
X0160563Y0191095D01*
X0160563Y0192694D02*
X0171852Y0192694D01*
X0170674Y0194292D02*
X0160100Y0194292D01*
X0158501Y0195891D02*
X0170485Y0195891D01*
X0171263Y0197489D02*
X0134188Y0197489D01*
X0134188Y0199088D02*
X0172531Y0199088D01*
X0173543Y0200686D02*
X0134188Y0200686D01*
X0134188Y0202285D02*
X0175063Y0202285D01*
X0178113Y0203883D02*
X0134188Y0203883D01*
X0134188Y0205482D02*
X0173210Y0205482D01*
X0171611Y0207080D02*
X0134188Y0207080D01*
X0134188Y0208679D02*
X0170772Y0208679D01*
X0170772Y0210277D02*
X0134188Y0210277D01*
X0134188Y0211876D02*
X0154635Y0211876D01*
X0155025Y0211876D02*
X0171249Y0211876D01*
X0178695Y0211876D02*
X0181249Y0211876D01*
X0180772Y0210277D02*
X0179172Y0210277D01*
X0179172Y0208679D02*
X0180772Y0208679D01*
X0181611Y0207080D02*
X0178333Y0207080D01*
X0176735Y0205482D02*
X0182728Y0205482D01*
X0186872Y0205482D02*
X0193210Y0205482D01*
X0191611Y0207080D02*
X0188333Y0207080D01*
X0189172Y0208679D02*
X0190772Y0208679D01*
X0190772Y0210277D02*
X0189172Y0210277D01*
X0188695Y0211876D02*
X0190182Y0211876D01*
X0192923Y0215073D02*
X0199158Y0215073D01*
X0198342Y0216672D02*
X0197924Y0216672D01*
X0197097Y0213474D02*
X0200757Y0213474D01*
X0201249Y0211876D02*
X0198695Y0211876D01*
X0199172Y0210277D02*
X0200772Y0210277D01*
X0200772Y0208679D02*
X0199172Y0208679D01*
X0198333Y0207080D02*
X0201611Y0207080D01*
X0203210Y0205482D02*
X0196735Y0205482D01*
X0206735Y0205482D02*
X0213210Y0205482D01*
X0211611Y0207080D02*
X0208333Y0207080D01*
X0209172Y0208679D02*
X0210772Y0208679D01*
X0210772Y0210277D02*
X0209172Y0210277D01*
X0208695Y0211876D02*
X0211249Y0211876D01*
X0212848Y0213474D02*
X0207097Y0213474D01*
X0204532Y0215073D02*
X0223053Y0215073D01*
X0223067Y0215059D02*
X0224872Y0215059D01*
X0224872Y0219559D01*
X0225072Y0219559D01*
X0225072Y0215059D01*
X0226878Y0215059D01*
X0229572Y0217754D01*
X0229572Y0219559D01*
X0225072Y0219559D01*
X0225072Y0219759D01*
X0229572Y0219759D01*
X0229572Y0221565D01*
X0226878Y0224259D01*
X0225072Y0224259D01*
X0225072Y0219759D01*
X0224872Y0219759D01*
X0224872Y0219559D01*
X0220372Y0219559D01*
X0220372Y0217754D01*
X0223067Y0215059D01*
X0222282Y0213474D02*
X0217097Y0213474D01*
X0216712Y0215459D02*
X0219172Y0217920D01*
X0219172Y0221399D01*
X0216712Y0223859D01*
X0213232Y0223859D01*
X0210772Y0221399D01*
X0210772Y0217920D01*
X0213232Y0215459D01*
X0216712Y0215459D01*
X0217924Y0216672D02*
X0221455Y0216672D01*
X0220372Y0218270D02*
X0219172Y0218270D01*
X0219172Y0219869D02*
X0220372Y0219869D01*
X0220372Y0219759D02*
X0224872Y0219759D01*
X0224872Y0224259D01*
X0223067Y0224259D01*
X0220372Y0221565D01*
X0220372Y0219759D01*
X0220372Y0221467D02*
X0219104Y0221467D01*
X0217506Y0223066D02*
X0221873Y0223066D01*
X0224872Y0223066D02*
X0225072Y0223066D01*
X0225072Y0221467D02*
X0224872Y0221467D01*
X0224872Y0219869D02*
X0225072Y0219869D01*
X0225072Y0218270D02*
X0224872Y0218270D01*
X0224872Y0216672D02*
X0225072Y0216672D01*
X0225072Y0215073D02*
X0224872Y0215073D01*
X0224872Y0213474D02*
X0225072Y0213474D01*
X0225072Y0211876D02*
X0224872Y0211876D01*
X0224872Y0210277D02*
X0225072Y0210277D01*
X0227662Y0213474D02*
X0233208Y0213474D01*
X0231344Y0211876D02*
X0229261Y0211876D01*
X0229572Y0210277D02*
X0230772Y0210277D01*
X0230832Y0208679D02*
X0229572Y0208679D01*
X0228899Y0207080D02*
X0231611Y0207080D01*
X0231214Y0205482D02*
X0234082Y0205482D01*
X0235862Y0205482D02*
X0237377Y0205482D01*
X0239509Y0203883D02*
X0232812Y0203883D01*
X0234411Y0202285D02*
X0241641Y0202285D01*
X0242061Y0200686D02*
X0236009Y0200686D01*
X0237608Y0199088D02*
X0242061Y0199088D01*
X0242061Y0197489D02*
X0241045Y0197489D01*
X0241713Y0195891D02*
X0242061Y0195891D01*
X0242061Y0194292D02*
X0241478Y0194292D01*
X0241168Y0192694D02*
X0240110Y0192694D01*
X0236890Y0189497D02*
X0234999Y0189497D01*
X0231815Y0194292D02*
X0231447Y0194292D01*
X0231447Y0195891D02*
X0231815Y0195891D01*
X0227862Y0195891D02*
X0226948Y0195891D01*
X0226948Y0194292D02*
X0227862Y0194292D01*
X0227862Y0192694D02*
X0226948Y0192694D01*
X0226945Y0191095D02*
X0227862Y0191095D01*
X0228262Y0189497D02*
X0226548Y0189497D01*
X0217244Y0195891D02*
X0186657Y0195891D01*
X0186014Y0197489D02*
X0217244Y0197489D01*
X0217605Y0199088D02*
X0177234Y0199088D01*
X0176107Y0197489D02*
X0179762Y0197489D01*
X0179120Y0195891D02*
X0176885Y0195891D01*
X0176696Y0194292D02*
X0179120Y0194292D01*
X0179120Y0192694D02*
X0175518Y0192694D01*
X0179520Y0184701D02*
X0159691Y0184701D01*
X0160563Y0183103D02*
X0180988Y0183103D01*
X0181524Y0181504D02*
X0160563Y0181504D01*
X0160119Y0179906D02*
X0181759Y0179906D01*
X0183127Y0178307D02*
X0158521Y0178307D01*
X0159282Y0175110D02*
X0225709Y0175110D01*
X0231207Y0151133D02*
X0231252Y0151133D01*
X0259436Y0119162D02*
X0259649Y0119162D01*
X0259436Y0115965D02*
X0267890Y0115965D01*
X0267890Y0114367D02*
X0259436Y0114367D01*
X0298647Y0095185D02*
X0311128Y0095185D01*
X0311126Y0093586D02*
X0298971Y0093586D01*
X0298971Y0091988D02*
X0311123Y0091988D01*
X0311120Y0090389D02*
X0298971Y0090389D01*
X0298971Y0088791D02*
X0311118Y0088791D01*
X0311115Y0087192D02*
X0298971Y0087192D01*
X0298971Y0085594D02*
X0311113Y0085594D01*
X0311110Y0083995D02*
X0298971Y0083995D01*
X0298971Y0082397D02*
X0311107Y0082397D01*
X0311105Y0080798D02*
X0298971Y0080798D01*
X0298971Y0079200D02*
X0311102Y0079200D01*
X0311100Y0077601D02*
X0298971Y0077601D01*
X0298971Y0076003D02*
X0311097Y0076003D01*
X0311039Y0040835D02*
X0249109Y0040835D01*
X0249109Y0039237D02*
X0295333Y0039237D01*
X0293792Y0037638D02*
X0249109Y0037638D01*
X0249109Y0036040D02*
X0293674Y0036040D01*
X0293674Y0034441D02*
X0293483Y0034441D01*
X0217328Y0095185D02*
X0211697Y0095185D01*
X0211252Y0094740D02*
X0213713Y0097200D01*
X0213713Y0100679D01*
X0211252Y0103140D01*
X0207773Y0103140D01*
X0205313Y0100679D01*
X0205313Y0097200D01*
X0207773Y0094740D01*
X0211252Y0094740D01*
X0213296Y0096783D02*
X0215729Y0096783D01*
X0215313Y0098382D02*
X0213713Y0098382D01*
X0213713Y0099980D02*
X0215313Y0099980D01*
X0216212Y0101579D02*
X0212813Y0101579D01*
X0211252Y0104740D02*
X0207773Y0104740D01*
X0205313Y0107200D01*
X0205313Y0110679D01*
X0207773Y0113140D01*
X0211252Y0113140D01*
X0213713Y0110679D01*
X0213713Y0107200D01*
X0211252Y0104740D01*
X0211288Y0104776D02*
X0217737Y0104776D01*
X0216138Y0106374D02*
X0212887Y0106374D01*
X0213713Y0107973D02*
X0215313Y0107973D01*
X0215313Y0109571D02*
X0213713Y0109571D01*
X0213222Y0111170D02*
X0215803Y0111170D01*
X0217402Y0112768D02*
X0211624Y0112768D01*
X0207402Y0112768D02*
X0201624Y0112768D01*
X0201252Y0113140D02*
X0197773Y0113140D01*
X0195313Y0110679D01*
X0195313Y0107200D01*
X0197773Y0104740D01*
X0201252Y0104740D01*
X0203713Y0107200D01*
X0203713Y0110679D01*
X0201252Y0113140D01*
X0203222Y0111170D02*
X0205803Y0111170D01*
X0205313Y0109571D02*
X0203713Y0109571D01*
X0203713Y0107973D02*
X0205313Y0107973D01*
X0206138Y0106374D02*
X0202887Y0106374D01*
X0201288Y0104776D02*
X0207737Y0104776D01*
X0206212Y0101579D02*
X0202813Y0101579D01*
X0203713Y0100679D02*
X0201252Y0103140D01*
X0197773Y0103140D01*
X0195313Y0100679D01*
X0195313Y0097200D01*
X0197773Y0094740D01*
X0201252Y0094740D01*
X0203713Y0097200D01*
X0203713Y0100679D01*
X0203713Y0099980D02*
X0205313Y0099980D01*
X0205313Y0098382D02*
X0203713Y0098382D01*
X0203296Y0096783D02*
X0205729Y0096783D01*
X0207328Y0095185D02*
X0201697Y0095185D01*
X0197328Y0095185D02*
X0191697Y0095185D01*
X0191252Y0094740D02*
X0193713Y0097200D01*
X0193713Y0100679D01*
X0191252Y0103140D01*
X0187773Y0103140D01*
X0185313Y0100679D01*
X0185313Y0097200D01*
X0187773Y0094740D01*
X0191252Y0094740D01*
X0193296Y0096783D02*
X0195729Y0096783D01*
X0195313Y0098382D02*
X0193713Y0098382D01*
X0193713Y0099980D02*
X0195313Y0099980D01*
X0196212Y0101579D02*
X0192813Y0101579D01*
X0191252Y0104740D02*
X0187773Y0104740D01*
X0185313Y0107200D01*
X0185313Y0110679D01*
X0187773Y0113140D01*
X0191252Y0113140D01*
X0193713Y0110679D01*
X0193713Y0107200D01*
X0191252Y0104740D01*
X0191288Y0104776D02*
X0197737Y0104776D01*
X0196138Y0106374D02*
X0192887Y0106374D01*
X0193713Y0107973D02*
X0195313Y0107973D01*
X0195313Y0109571D02*
X0193713Y0109571D01*
X0193222Y0111170D02*
X0195803Y0111170D01*
X0197402Y0112768D02*
X0191624Y0112768D01*
X0187402Y0112768D02*
X0181624Y0112768D01*
X0181252Y0113140D02*
X0177773Y0113140D01*
X0175313Y0110679D01*
X0175313Y0107200D01*
X0177773Y0104740D01*
X0181252Y0104740D01*
X0183713Y0107200D01*
X0183713Y0110679D01*
X0181252Y0113140D01*
X0183222Y0111170D02*
X0185803Y0111170D01*
X0185313Y0109571D02*
X0183713Y0109571D01*
X0183713Y0107973D02*
X0185313Y0107973D01*
X0186138Y0106374D02*
X0182887Y0106374D01*
X0181288Y0104776D02*
X0187737Y0104776D01*
X0186212Y0101579D02*
X0182813Y0101579D01*
X0183713Y0100679D02*
X0181252Y0103140D01*
X0177773Y0103140D01*
X0175313Y0100679D01*
X0175313Y0097200D01*
X0177773Y0094740D01*
X0181252Y0094740D01*
X0183713Y0097200D01*
X0183713Y0100679D01*
X0183713Y0099980D02*
X0185313Y0099980D01*
X0185313Y0098382D02*
X0183713Y0098382D01*
X0183296Y0096783D02*
X0185729Y0096783D01*
X0187328Y0095185D02*
X0181697Y0095185D01*
X0177328Y0095185D02*
X0171697Y0095185D01*
X0171252Y0094740D02*
X0173713Y0097200D01*
X0173713Y0100679D01*
X0171252Y0103140D01*
X0167773Y0103140D01*
X0165313Y0100679D01*
X0165313Y0097200D01*
X0167773Y0094740D01*
X0171252Y0094740D01*
X0173296Y0096783D02*
X0175729Y0096783D01*
X0175313Y0098382D02*
X0173713Y0098382D01*
X0173713Y0099980D02*
X0175313Y0099980D01*
X0176212Y0101579D02*
X0172813Y0101579D01*
X0171288Y0104776D02*
X0177737Y0104776D01*
X0176138Y0106374D02*
X0172887Y0106374D01*
X0173713Y0107973D02*
X0175313Y0107973D01*
X0175313Y0109571D02*
X0173713Y0109571D01*
X0173222Y0111170D02*
X0175803Y0111170D01*
X0177402Y0112768D02*
X0171624Y0112768D01*
X0166212Y0101579D02*
X0142075Y0101579D01*
X0142075Y0099980D02*
X0165313Y0099980D01*
X0165313Y0098382D02*
X0142075Y0098382D01*
X0142075Y0096783D02*
X0165729Y0096783D01*
X0167328Y0095185D02*
X0142075Y0095185D01*
X0142075Y0093586D02*
X0161726Y0093586D01*
X0160085Y0091988D02*
X0142075Y0091988D01*
X0114815Y0077601D02*
X0113837Y0077601D01*
X0113955Y0071207D02*
X0114696Y0071207D01*
X0110267Y0068010D02*
X0083420Y0068010D01*
X0083420Y0066411D02*
X0111866Y0066411D01*
X0113464Y0064813D02*
X0083420Y0064813D01*
X0087178Y0076003D02*
X0075565Y0076003D01*
X0075563Y0077601D02*
X0087178Y0077601D01*
X0087178Y0079200D02*
X0075561Y0079200D01*
X0075559Y0080798D02*
X0087178Y0080798D01*
X0087178Y0082397D02*
X0075557Y0082397D01*
X0075556Y0083995D02*
X0087178Y0083995D01*
X0087178Y0085594D02*
X0075554Y0085594D01*
X0075552Y0087192D02*
X0087178Y0087192D01*
X0087178Y0088791D02*
X0075550Y0088791D01*
X0075548Y0090389D02*
X0087178Y0090389D01*
X0087178Y0091988D02*
X0075546Y0091988D01*
X0075544Y0093586D02*
X0087178Y0093586D01*
X0087503Y0095185D02*
X0075542Y0095185D01*
X0078330Y0122359D02*
X0078994Y0122359D01*
X0078994Y0123958D02*
X0078330Y0123958D01*
X0082860Y0128753D02*
X0085101Y0128753D01*
X0085963Y0127155D02*
X0083650Y0127155D01*
X0076362Y0130352D02*
X0075501Y0130352D01*
X0075462Y0163921D02*
X0142255Y0163921D01*
X0135087Y0165519D02*
X0075460Y0165519D01*
X0075458Y0167118D02*
X0133439Y0167118D01*
X0131791Y0168716D02*
X0126396Y0168716D01*
X0127003Y0170315D02*
X0130143Y0170315D01*
X0128496Y0171913D02*
X0123222Y0171913D01*
X0123222Y0170315D02*
X0122854Y0170315D01*
X0122854Y0168716D02*
X0123222Y0168716D01*
X0119680Y0168716D02*
X0119137Y0168716D01*
X0113553Y0168716D02*
X0075456Y0168716D01*
X0075454Y0170315D02*
X0112780Y0170315D01*
X0112780Y0171913D02*
X0075452Y0171913D01*
X0075450Y0173512D02*
X0112780Y0173512D01*
X0113304Y0175110D02*
X0108550Y0175110D01*
X0109375Y0176709D02*
X0114445Y0176709D01*
X0112444Y0178307D02*
X0109652Y0178307D01*
X0107475Y0181504D02*
X0075441Y0181504D01*
X0075443Y0179906D02*
X0103782Y0179906D01*
X0102737Y0178307D02*
X0075445Y0178307D01*
X0075447Y0176709D02*
X0102613Y0176709D01*
X0103439Y0175110D02*
X0075448Y0175110D01*
X0075439Y0183103D02*
X0112489Y0183103D01*
X0118245Y0176709D02*
X0126906Y0176709D01*
X0126308Y0177436D02*
X0125973Y0177101D01*
X0125562Y0176864D01*
X0125105Y0176741D01*
X0122887Y0176741D01*
X0122887Y0180325D01*
X0126668Y0180325D01*
X0126668Y0178304D01*
X0126545Y0177846D01*
X0126308Y0177436D01*
X0126668Y0178307D02*
X0126906Y0178307D01*
X0126906Y0179906D02*
X0126668Y0179906D01*
X0126668Y0181504D02*
X0126906Y0181504D01*
X0126906Y0183103D02*
X0126564Y0183103D01*
X0126906Y0184701D02*
X0075437Y0184701D01*
X0075435Y0186300D02*
X0126906Y0186300D01*
X0126906Y0187898D02*
X0075433Y0187898D01*
X0075432Y0189497D02*
X0125553Y0189497D01*
X0124001Y0191095D02*
X0075430Y0191095D01*
X0075428Y0192694D02*
X0122449Y0192694D01*
X0119998Y0194292D02*
X0075426Y0194292D01*
X0075424Y0195891D02*
X0118609Y0195891D01*
X0118583Y0197489D02*
X0075422Y0197489D01*
X0075420Y0199088D02*
X0119844Y0199088D01*
X0121988Y0200686D02*
X0075418Y0200686D01*
X0075416Y0202285D02*
X0121988Y0202285D01*
X0121988Y0203883D02*
X0075415Y0203883D01*
X0075413Y0205482D02*
X0121988Y0205482D01*
X0121988Y0207080D02*
X0075411Y0207080D01*
X0075409Y0208679D02*
X0121988Y0208679D01*
X0121988Y0210277D02*
X0075407Y0210277D01*
X0075405Y0211876D02*
X0121988Y0211876D01*
X0121988Y0213474D02*
X0075403Y0213474D01*
X0075401Y0215073D02*
X0121988Y0215073D01*
X0121988Y0216672D02*
X0075400Y0216672D01*
X0075398Y0218270D02*
X0121988Y0218270D01*
X0121988Y0219869D02*
X0075396Y0219869D01*
X0075394Y0221467D02*
X0121988Y0221467D01*
X0121988Y0223066D02*
X0075392Y0223066D01*
X0075390Y0224664D02*
X0121988Y0224664D01*
X0121988Y0226263D02*
X0075388Y0226263D01*
X0075386Y0227861D02*
X0121988Y0227861D01*
X0121988Y0229460D02*
X0075385Y0229460D01*
X0075383Y0231058D02*
X0121988Y0231058D01*
X0121988Y0232657D02*
X0075381Y0232657D01*
X0075379Y0234255D02*
X0121988Y0234255D01*
X0121988Y0235854D02*
X0075377Y0235854D01*
X0075375Y0237452D02*
X0121988Y0237452D01*
X0121188Y0239051D02*
X0075373Y0239051D01*
X0075371Y0240649D02*
X0121424Y0240649D01*
X0124989Y0242248D02*
X0075370Y0242248D01*
X0075368Y0243846D02*
X0124989Y0243846D01*
X0121657Y0245445D02*
X0075366Y0245445D01*
X0075364Y0247043D02*
X0120745Y0247043D01*
X0121006Y0248642D02*
X0075362Y0248642D01*
X0075360Y0250240D02*
X0125871Y0250240D01*
X0126620Y0248642D02*
X0127470Y0248642D01*
X0129647Y0251839D02*
X0130388Y0251839D01*
X0130213Y0253437D02*
X0128048Y0253437D01*
X0128615Y0255036D02*
X0126450Y0255036D01*
X0127016Y0256634D02*
X0125770Y0256634D01*
X0125418Y0258233D02*
X0075351Y0258233D01*
X0075349Y0259831D02*
X0123819Y0259831D01*
X0120657Y0261430D02*
X0075347Y0261430D01*
X0075345Y0263028D02*
X0120228Y0263028D01*
X0120760Y0264627D02*
X0075343Y0264627D01*
X0075341Y0266225D02*
X0156952Y0266225D01*
X0157150Y0267824D02*
X0075339Y0267824D01*
X0075338Y0269422D02*
X0158338Y0269422D01*
X0161966Y0269422D02*
X0172331Y0269422D01*
X0174125Y0267824D02*
X0163155Y0267824D01*
X0163352Y0266225D02*
X0175920Y0266225D01*
X0177714Y0264627D02*
X0162594Y0264627D01*
X0162052Y0263028D02*
X0177924Y0263028D01*
X0176711Y0261430D02*
X0161307Y0261430D01*
X0161627Y0259831D02*
X0176711Y0259831D01*
X0176711Y0258233D02*
X0161709Y0258233D01*
X0161709Y0256634D02*
X0176711Y0256634D01*
X0180511Y0256634D02*
X0311393Y0256634D01*
X0311390Y0255036D02*
X0182176Y0255036D01*
X0180511Y0258233D02*
X0311395Y0258233D01*
X0311398Y0259831D02*
X0180511Y0259831D01*
X0183538Y0261430D02*
X0311401Y0261430D01*
X0311403Y0263028D02*
X0184559Y0263028D01*
X0184581Y0264627D02*
X0311406Y0264627D01*
X0311409Y0266225D02*
X0183592Y0266225D01*
X0179838Y0267824D02*
X0311411Y0267824D01*
X0311414Y0269422D02*
X0178044Y0269422D01*
X0176249Y0271021D02*
X0311416Y0271021D01*
X0311419Y0272619D02*
X0174455Y0272619D01*
X0172661Y0274218D02*
X0311422Y0274218D01*
X0311424Y0275816D02*
X0170866Y0275816D01*
X0170356Y0277415D02*
X0311427Y0277415D01*
X0311429Y0279013D02*
X0169612Y0279013D01*
X0169056Y0280612D02*
X0311432Y0280612D01*
X0311435Y0282210D02*
X0169056Y0282210D01*
X0169056Y0283809D02*
X0311437Y0283809D01*
X0311440Y0285408D02*
X0169056Y0285408D01*
X0169056Y0287006D02*
X0311443Y0287006D01*
X0311445Y0288605D02*
X0169056Y0288605D01*
X0172250Y0290203D02*
X0311448Y0290203D01*
X0311450Y0291802D02*
X0172623Y0291802D01*
X0174222Y0293400D02*
X0311453Y0293400D01*
X0311456Y0294999D02*
X0175820Y0294999D01*
X0177419Y0296597D02*
X0311458Y0296597D01*
X0311461Y0298196D02*
X0178924Y0298196D01*
X0178924Y0299794D02*
X0311463Y0299794D01*
X0311466Y0301393D02*
X0178924Y0301393D01*
X0180503Y0302991D02*
X0311469Y0302991D01*
X0311471Y0304590D02*
X0180562Y0304590D01*
X0180562Y0306188D02*
X0311474Y0306188D01*
X0311477Y0307787D02*
X0180562Y0307787D01*
X0180204Y0309385D02*
X0311479Y0309385D01*
X0311482Y0310984D02*
X0180562Y0310984D01*
X0180562Y0312582D02*
X0311484Y0312582D01*
X0311487Y0314181D02*
X0180562Y0314181D01*
X0173131Y0315779D02*
X0311490Y0315779D01*
X0311492Y0317378D02*
X0173131Y0317378D01*
X0172432Y0318976D02*
X0311495Y0318976D01*
X0311498Y0320575D02*
X0170129Y0320575D01*
X0167833Y0320575D02*
X0166467Y0320575D01*
X0166623Y0322173D02*
X0311500Y0322173D01*
X0311503Y0323772D02*
X0185509Y0323772D01*
X0183256Y0323772D02*
X0181706Y0323772D01*
X0181706Y0323079D02*
X0181706Y0328783D01*
X0176002Y0328783D01*
X0176068Y0328283D01*
X0176289Y0327456D01*
X0176617Y0326666D01*
X0177044Y0325925D01*
X0177565Y0325247D01*
X0178170Y0324642D01*
X0178849Y0324121D01*
X0179589Y0323694D01*
X0180379Y0323366D01*
X0181206Y0323145D01*
X0181706Y0323079D01*
X0181706Y0325370D02*
X0183256Y0325370D01*
X0183256Y0326969D02*
X0181706Y0326969D01*
X0181706Y0328567D02*
X0183256Y0328567D01*
X0183256Y0330166D02*
X0311513Y0330166D01*
X0311516Y0331764D02*
X0188630Y0331764D01*
X0188673Y0331660D02*
X0188346Y0332450D01*
X0187918Y0333191D01*
X0187398Y0333870D01*
X0186793Y0334475D01*
X0186114Y0334995D01*
X0185374Y0335423D01*
X0184583Y0335750D01*
X0183757Y0335972D01*
X0183256Y0336038D01*
X0183256Y0330333D01*
X0188961Y0330333D01*
X0188895Y0330834D01*
X0188673Y0331660D01*
X0187787Y0333363D02*
X0311518Y0333363D01*
X0311521Y0334961D02*
X0186159Y0334961D01*
X0183256Y0334961D02*
X0181706Y0334961D01*
X0181706Y0333363D02*
X0183256Y0333363D01*
X0183256Y0331764D02*
X0181706Y0331764D01*
X0181706Y0330166D02*
X0166623Y0330166D01*
X0166623Y0331764D02*
X0176333Y0331764D01*
X0176669Y0333363D02*
X0177176Y0333363D01*
X0176031Y0328567D02*
X0166623Y0328567D01*
X0166168Y0326969D02*
X0176491Y0326969D01*
X0177470Y0325370D02*
X0166623Y0325370D01*
X0166623Y0323772D02*
X0179454Y0323772D01*
X0187492Y0325370D02*
X0311505Y0325370D01*
X0311508Y0326969D02*
X0188471Y0326969D01*
X0188932Y0328567D02*
X0311511Y0328567D01*
X0311524Y0336560D02*
X0181145Y0336560D01*
X0181882Y0338158D02*
X0311526Y0338158D01*
X0311529Y0339757D02*
X0182544Y0339757D01*
X0182581Y0341355D02*
X0311532Y0341355D01*
X0311534Y0342954D02*
X0182581Y0342954D01*
X0182050Y0344552D02*
X0311537Y0344552D01*
X0311539Y0346151D02*
X0181388Y0346151D01*
X0179953Y0347749D02*
X0311542Y0347749D01*
X0311545Y0349348D02*
X0177649Y0349348D01*
X0175720Y0352545D02*
X0311550Y0352545D01*
X0311553Y0354143D02*
X0177318Y0354143D01*
X0178204Y0355742D02*
X0311555Y0355742D01*
X0311558Y0357341D02*
X0179086Y0357341D01*
X0180349Y0358939D02*
X0311560Y0358939D01*
X0311563Y0360538D02*
X0180781Y0360538D01*
X0180615Y0362136D02*
X0311566Y0362136D01*
X0311568Y0363735D02*
X0179728Y0363735D01*
X0173035Y0363735D02*
X0139928Y0363735D01*
X0140815Y0362136D02*
X0172148Y0362136D01*
X0171981Y0360538D02*
X0140981Y0360538D01*
X0141188Y0358939D02*
X0164735Y0358939D01*
X0162647Y0357341D02*
X0158145Y0357341D01*
X0158138Y0352545D02*
X0162577Y0352545D01*
X0164328Y0350946D02*
X0158455Y0350946D01*
X0158545Y0349348D02*
X0165764Y0349348D01*
X0164166Y0347749D02*
X0158545Y0347749D01*
X0158531Y0346151D02*
X0162567Y0346151D01*
X0160969Y0344552D02*
X0143062Y0344552D01*
X0143062Y0346151D02*
X0150628Y0346151D01*
X0150614Y0347749D02*
X0143062Y0347749D01*
X0143062Y0349348D02*
X0150614Y0349348D01*
X0150704Y0350946D02*
X0143062Y0350946D01*
X0143062Y0352545D02*
X0151020Y0352545D01*
X0151014Y0354143D02*
X0143062Y0354143D01*
X0143062Y0355742D02*
X0151014Y0355742D01*
X0151014Y0357341D02*
X0142786Y0357341D01*
X0139011Y0355742D02*
X0130978Y0355742D01*
X0130981Y0355734D02*
X0130312Y0357351D01*
X0129074Y0358588D01*
X0127457Y0359258D01*
X0125706Y0359258D01*
X0124089Y0358588D01*
X0122851Y0357351D01*
X0122181Y0355734D01*
X0122181Y0353983D01*
X0122851Y0352366D01*
X0124089Y0351128D01*
X0125706Y0350458D01*
X0127457Y0350458D01*
X0129074Y0351128D01*
X0130312Y0352366D01*
X0130981Y0353983D01*
X0130981Y0355734D01*
X0130981Y0354143D02*
X0139262Y0354143D01*
X0139262Y0352545D02*
X0130386Y0352545D01*
X0128635Y0350946D02*
X0139262Y0350946D01*
X0139262Y0349348D02*
X0132649Y0349348D01*
X0133853Y0348849D02*
X0130692Y0350158D01*
X0127271Y0350158D01*
X0124110Y0348849D01*
X0121691Y0346430D01*
X0120381Y0343269D01*
X0120381Y0339848D01*
X0121691Y0336687D01*
X0122658Y0335719D01*
X0122583Y0335750D01*
X0121757Y0335972D01*
X0121256Y0336038D01*
X0121256Y0330333D01*
X0126961Y0330333D01*
X0126895Y0330834D01*
X0126673Y0331660D01*
X0126346Y0332450D01*
X0125918Y0333191D01*
X0125550Y0333671D01*
X0127271Y0332958D01*
X0130692Y0332958D01*
X0133853Y0334268D01*
X0136272Y0336687D01*
X0137581Y0339848D01*
X0137581Y0343269D01*
X0136272Y0346430D01*
X0133853Y0348849D01*
X0134953Y0347749D02*
X0139262Y0347749D01*
X0139262Y0346151D02*
X0136388Y0346151D01*
X0137050Y0344552D02*
X0139262Y0344552D01*
X0137597Y0342954D02*
X0137581Y0342954D01*
X0137581Y0341355D02*
X0137597Y0341355D01*
X0137544Y0339757D02*
X0137597Y0339757D01*
X0137597Y0338158D02*
X0136882Y0338158D01*
X0136145Y0336560D02*
X0137637Y0336560D01*
X0137597Y0334961D02*
X0134547Y0334961D01*
X0131669Y0333363D02*
X0137597Y0333363D01*
X0137597Y0331764D02*
X0126630Y0331764D01*
X0126294Y0333363D02*
X0125787Y0333363D01*
X0121256Y0333363D02*
X0119706Y0333363D01*
X0119706Y0334961D02*
X0121256Y0334961D01*
X0121818Y0336560D02*
X0075259Y0336560D01*
X0075257Y0338158D02*
X0121081Y0338158D01*
X0120419Y0339757D02*
X0075255Y0339757D01*
X0075253Y0341355D02*
X0120381Y0341355D01*
X0120381Y0342954D02*
X0075251Y0342954D01*
X0075249Y0344552D02*
X0120913Y0344552D01*
X0121575Y0346151D02*
X0075247Y0346151D01*
X0075245Y0347749D02*
X0123010Y0347749D01*
X0125314Y0349348D02*
X0075244Y0349348D01*
X0075242Y0350946D02*
X0124528Y0350946D01*
X0122777Y0352545D02*
X0075240Y0352545D01*
X0075238Y0354143D02*
X0122181Y0354143D01*
X0122185Y0355742D02*
X0075236Y0355742D01*
X0075234Y0357341D02*
X0122847Y0357341D01*
X0124935Y0358939D02*
X0075232Y0358939D01*
X0075230Y0360538D02*
X0132181Y0360538D01*
X0132348Y0362136D02*
X0075229Y0362136D01*
X0075227Y0363735D02*
X0133235Y0363735D01*
X0132614Y0358939D02*
X0128228Y0358939D01*
X0130316Y0357341D02*
X0133877Y0357341D01*
X0144728Y0342954D02*
X0150864Y0342954D01*
X0150204Y0341355D02*
X0144728Y0341355D01*
X0144728Y0339757D02*
X0150204Y0339757D01*
X0150204Y0338158D02*
X0144728Y0338158D01*
X0144688Y0336560D02*
X0150841Y0336560D01*
X0150204Y0331764D02*
X0144728Y0331764D01*
X0150542Y0330166D02*
X0121256Y0330166D01*
X0121256Y0330333D02*
X0121256Y0328783D01*
X0121256Y0323079D01*
X0121757Y0323145D01*
X0122583Y0323366D01*
X0123374Y0323694D01*
X0124114Y0324121D01*
X0124793Y0324642D01*
X0125398Y0325247D01*
X0125918Y0325925D01*
X0126346Y0326666D01*
X0126673Y0327456D01*
X0126895Y0328283D01*
X0126961Y0328783D01*
X0121256Y0328783D01*
X0119706Y0328783D01*
X0119706Y0323079D01*
X0119206Y0323145D01*
X0118379Y0323366D01*
X0117589Y0323694D01*
X0116849Y0324121D01*
X0116170Y0324642D01*
X0115565Y0325247D01*
X0115044Y0325925D01*
X0114617Y0326666D01*
X0114289Y0327456D01*
X0114068Y0328283D01*
X0114002Y0328783D01*
X0119706Y0328783D01*
X0119706Y0330333D01*
X0114002Y0330333D01*
X0114068Y0330834D01*
X0114289Y0331660D01*
X0114617Y0332450D01*
X0115044Y0333191D01*
X0115565Y0333870D01*
X0116170Y0334475D01*
X0116849Y0334995D01*
X0117589Y0335423D01*
X0118379Y0335750D01*
X0119206Y0335972D01*
X0119706Y0336038D01*
X0119706Y0330333D01*
X0121256Y0330333D01*
X0121256Y0331764D02*
X0119706Y0331764D01*
X0119706Y0330166D02*
X0075266Y0330166D01*
X0075264Y0331764D02*
X0114333Y0331764D01*
X0115176Y0333363D02*
X0075262Y0333363D01*
X0075261Y0334961D02*
X0116804Y0334961D01*
X0114031Y0328567D02*
X0075268Y0328567D01*
X0075270Y0326969D02*
X0114491Y0326969D01*
X0115470Y0325370D02*
X0075272Y0325370D01*
X0075274Y0323772D02*
X0117454Y0323772D01*
X0119706Y0323772D02*
X0121256Y0323772D01*
X0121256Y0325370D02*
X0119706Y0325370D01*
X0119706Y0326969D02*
X0121256Y0326969D01*
X0121256Y0328567D02*
X0119706Y0328567D01*
X0123509Y0323772D02*
X0151869Y0323772D01*
X0151869Y0325370D02*
X0125492Y0325370D01*
X0126471Y0326969D02*
X0151869Y0326969D01*
X0151869Y0328567D02*
X0126932Y0328567D01*
X0135530Y0318976D02*
X0075279Y0318976D01*
X0075281Y0317378D02*
X0134831Y0317378D01*
X0134831Y0317384D02*
X0134831Y0315733D01*
X0135463Y0314208D01*
X0136631Y0313040D01*
X0138156Y0312408D01*
X0139807Y0312408D01*
X0141332Y0313040D01*
X0142500Y0314208D01*
X0143131Y0315733D01*
X0143131Y0317384D01*
X0142500Y0318909D01*
X0141332Y0320077D01*
X0139807Y0320708D01*
X0138156Y0320708D01*
X0136631Y0320077D01*
X0135463Y0318909D01*
X0134831Y0317384D01*
X0134831Y0315779D02*
X0075283Y0315779D01*
X0075285Y0314181D02*
X0135490Y0314181D01*
X0137736Y0312582D02*
X0075287Y0312582D01*
X0075289Y0310984D02*
X0132877Y0310984D01*
X0132916Y0310996D02*
X0132235Y0310775D01*
X0131597Y0310450D01*
X0131017Y0310029D01*
X0130511Y0309522D01*
X0130090Y0308943D01*
X0129765Y0308305D01*
X0129543Y0307624D01*
X0129431Y0306916D01*
X0129431Y0306633D01*
X0133906Y0306633D01*
X0133906Y0306483D01*
X0134056Y0306483D01*
X0134056Y0302008D01*
X0134339Y0302008D01*
X0135047Y0302120D01*
X0135728Y0302342D01*
X0136366Y0302667D01*
X0136946Y0303088D01*
X0137452Y0303594D01*
X0137873Y0304174D01*
X0138198Y0304812D01*
X0138419Y0305493D01*
X0138531Y0306200D01*
X0138531Y0306483D01*
X0134056Y0306483D01*
X0134056Y0306633D01*
X0138531Y0306633D01*
X0138531Y0306916D01*
X0138419Y0307624D01*
X0138198Y0308305D01*
X0137873Y0308943D01*
X0137452Y0309522D01*
X0136946Y0310029D01*
X0136366Y0310450D01*
X0135728Y0310775D01*
X0135047Y0310996D01*
X0134339Y0311108D01*
X0134056Y0311108D01*
X0134056Y0306633D01*
X0133906Y0306633D01*
X0133906Y0311108D01*
X0133623Y0311108D01*
X0132916Y0310996D01*
X0133906Y0310984D02*
X0134056Y0310984D01*
X0135086Y0310984D02*
X0147081Y0310984D01*
X0147081Y0312582D02*
X0140227Y0312582D01*
X0142473Y0314181D02*
X0145490Y0314181D01*
X0144831Y0315779D02*
X0143131Y0315779D01*
X0143131Y0317378D02*
X0144831Y0317378D01*
X0145530Y0318976D02*
X0142432Y0318976D01*
X0140129Y0320575D02*
X0147833Y0320575D01*
X0150129Y0320575D02*
X0150311Y0320575D01*
X0151869Y0322173D02*
X0075276Y0322173D01*
X0075277Y0320575D02*
X0137833Y0320575D01*
X0137552Y0309385D02*
X0140939Y0309385D01*
X0139998Y0307787D02*
X0138366Y0307787D01*
X0138529Y0306188D02*
X0139831Y0306188D01*
X0140305Y0304590D02*
X0138085Y0304590D01*
X0136812Y0302991D02*
X0141749Y0302991D01*
X0140533Y0301393D02*
X0075300Y0301393D01*
X0075298Y0302991D02*
X0131150Y0302991D01*
X0131017Y0303088D02*
X0131597Y0302667D01*
X0132235Y0302342D01*
X0132916Y0302120D01*
X0133623Y0302008D01*
X0133906Y0302008D01*
X0133906Y0306483D01*
X0129431Y0306483D01*
X0129431Y0306200D01*
X0129543Y0305493D01*
X0129765Y0304812D01*
X0130090Y0304174D01*
X0130511Y0303594D01*
X0131017Y0303088D01*
X0129878Y0304590D02*
X0075296Y0304590D01*
X0075294Y0306188D02*
X0129433Y0306188D01*
X0129596Y0307787D02*
X0075292Y0307787D01*
X0075291Y0309385D02*
X0130411Y0309385D01*
X0133906Y0309385D02*
X0134056Y0309385D01*
X0134056Y0307787D02*
X0133906Y0307787D01*
X0133906Y0306188D02*
X0134056Y0306188D01*
X0134056Y0304590D02*
X0133906Y0304590D01*
X0133906Y0302991D02*
X0134056Y0302991D01*
X0139977Y0299794D02*
X0075302Y0299794D01*
X0075304Y0298196D02*
X0139977Y0298196D01*
X0139977Y0296597D02*
X0075306Y0296597D01*
X0075307Y0294999D02*
X0140717Y0294999D01*
X0139977Y0293400D02*
X0075309Y0293400D01*
X0075311Y0291802D02*
X0139977Y0291802D01*
X0139463Y0290203D02*
X0075313Y0290203D01*
X0075315Y0288605D02*
X0137865Y0288605D01*
X0136266Y0287006D02*
X0075317Y0287006D01*
X0075319Y0285408D02*
X0135445Y0285408D01*
X0135425Y0283809D02*
X0075321Y0283809D01*
X0075323Y0282210D02*
X0135406Y0282210D01*
X0135386Y0280612D02*
X0075324Y0280612D01*
X0075326Y0279013D02*
X0135366Y0279013D01*
X0135346Y0277415D02*
X0075328Y0277415D01*
X0075330Y0275816D02*
X0134338Y0275816D01*
X0133822Y0274218D02*
X0075332Y0274218D01*
X0075334Y0272619D02*
X0134074Y0272619D01*
X0135318Y0271021D02*
X0075336Y0271021D01*
X0075353Y0256634D02*
X0121182Y0256634D01*
X0120776Y0255036D02*
X0075354Y0255036D01*
X0075356Y0253437D02*
X0121337Y0253437D01*
X0124273Y0251839D02*
X0075358Y0251839D01*
X0125096Y0264627D02*
X0141932Y0264627D01*
X0143910Y0264627D02*
X0157711Y0264627D01*
X0154172Y0259500D02*
X0154172Y0257305D01*
X0157756Y0257305D01*
X0157756Y0256937D01*
X0154172Y0256937D01*
X0154172Y0254719D01*
X0154295Y0254261D01*
X0154532Y0253850D01*
X0154867Y0253515D01*
X0154897Y0253498D01*
X0154572Y0253173D01*
X0154572Y0252319D01*
X0153236Y0252319D01*
X0153236Y0253164D01*
X0152911Y0253489D01*
X0152941Y0253506D01*
X0153276Y0253841D01*
X0153513Y0254252D01*
X0153636Y0254710D01*
X0153636Y0256928D01*
X0150052Y0256928D01*
X0150052Y0257296D01*
X0153636Y0257296D01*
X0153636Y0259501D01*
X0154172Y0259500D01*
X0154172Y0258233D02*
X0153636Y0258233D01*
X0153636Y0256634D02*
X0154172Y0256634D01*
X0154172Y0255036D02*
X0153636Y0255036D01*
X0152963Y0253437D02*
X0154836Y0253437D01*
X0155212Y0247043D02*
X0152605Y0247043D01*
X0149501Y0245445D02*
X0158757Y0245445D01*
X0156575Y0243846D02*
X0148323Y0243846D01*
X0150411Y0242248D02*
X0146233Y0242248D01*
X0149523Y0240649D02*
X0134188Y0240649D01*
X0134188Y0239051D02*
X0149667Y0239051D01*
X0150780Y0237452D02*
X0134188Y0237452D01*
X0134188Y0235854D02*
X0155413Y0235854D01*
X0155413Y0234255D02*
X0134188Y0234255D01*
X0134188Y0232657D02*
X0155413Y0232657D01*
X0155462Y0231058D02*
X0134188Y0231058D01*
X0134188Y0229460D02*
X0165736Y0229460D01*
X0167334Y0231058D02*
X0162900Y0231058D01*
X0162950Y0232657D02*
X0168629Y0232657D01*
X0168629Y0234255D02*
X0162950Y0234255D01*
X0162950Y0235854D02*
X0168629Y0235854D01*
X0168681Y0237452D02*
X0167729Y0237452D01*
X0166389Y0237452D02*
X0162408Y0237452D01*
X0162550Y0239051D02*
X0164253Y0239051D01*
X0163859Y0240649D02*
X0162550Y0240649D01*
X0162550Y0242248D02*
X0164262Y0242248D01*
X0165129Y0243846D02*
X0162250Y0243846D01*
X0163848Y0245445D02*
X0164741Y0245445D01*
X0161954Y0248642D02*
X0161309Y0248642D01*
X0161309Y0250240D02*
X0163276Y0250240D01*
X0162794Y0251839D02*
X0161309Y0251839D01*
X0161045Y0253437D02*
X0163109Y0253437D01*
X0161709Y0255036D02*
X0164863Y0255036D01*
X0167124Y0255036D02*
X0168352Y0255036D01*
X0170537Y0271021D02*
X0139088Y0271021D01*
X0140060Y0263028D02*
X0125996Y0263028D01*
X0127595Y0261430D02*
X0139721Y0261430D01*
X0140179Y0259831D02*
X0129193Y0259831D01*
X0130792Y0258233D02*
X0146099Y0258233D01*
X0146099Y0256634D02*
X0132390Y0256634D01*
X0133989Y0255036D02*
X0146099Y0255036D01*
X0146772Y0253437D02*
X0134188Y0253437D01*
X0134188Y0251839D02*
X0146499Y0251839D01*
X0146499Y0250240D02*
X0134188Y0250240D01*
X0134188Y0248642D02*
X0146499Y0248642D01*
X0141978Y0247043D02*
X0134188Y0247043D01*
X0134188Y0245445D02*
X0140976Y0245445D01*
X0140981Y0243846D02*
X0134188Y0243846D01*
X0134188Y0242248D02*
X0141989Y0242248D01*
X0155036Y0242248D02*
X0155813Y0242248D01*
X0155954Y0237452D02*
X0154667Y0237452D01*
X0158997Y0232657D02*
X0159365Y0232657D01*
X0159365Y0231058D02*
X0158997Y0231058D01*
X0160700Y0226263D02*
X0150349Y0226263D01*
X0148175Y0226263D02*
X0134188Y0226263D01*
X0134188Y0227861D02*
X0164137Y0227861D01*
X0166419Y0224664D02*
X0177290Y0224664D01*
X0178888Y0226263D02*
X0167912Y0226263D01*
X0169511Y0227861D02*
X0180487Y0227861D01*
X0180743Y0229460D02*
X0171109Y0229460D01*
X0172429Y0231058D02*
X0181755Y0231058D01*
X0181443Y0232657D02*
X0178779Y0232657D01*
X0174622Y0232657D02*
X0172429Y0232657D01*
X0172429Y0234255D02*
X0173588Y0234255D01*
X0173548Y0235854D02*
X0172457Y0235854D01*
X0160019Y0224664D02*
X0157252Y0224664D01*
X0158094Y0223066D02*
X0160249Y0223066D01*
X0161591Y0221467D02*
X0158695Y0221467D01*
X0160350Y0219869D02*
X0170772Y0219869D01*
X0170772Y0218270D02*
X0162005Y0218270D01*
X0164847Y0221467D02*
X0170840Y0221467D01*
X0172439Y0223066D02*
X0166190Y0223066D01*
X0152536Y0224664D02*
X0152254Y0224664D01*
X0148115Y0219869D02*
X0134188Y0219869D01*
X0134188Y0221467D02*
X0146259Y0221467D01*
X0145881Y0223066D02*
X0134188Y0223066D01*
X0134188Y0224664D02*
X0146270Y0224664D01*
X0149850Y0218270D02*
X0134188Y0218270D01*
X0134188Y0216672D02*
X0150781Y0216672D01*
X0151712Y0215073D02*
X0134188Y0215073D01*
X0134188Y0213474D02*
X0152643Y0213474D01*
X0154225Y0195891D02*
X0148501Y0195891D01*
X0150100Y0194292D02*
X0152626Y0194292D01*
X0152163Y0192694D02*
X0150563Y0192694D01*
X0150563Y0191095D02*
X0152163Y0191095D01*
X0153016Y0189497D02*
X0149710Y0189497D01*
X0144225Y0195891D02*
X0135720Y0195891D01*
X0137319Y0194292D02*
X0142626Y0194292D01*
X0142163Y0192694D02*
X0138917Y0192694D01*
X0139485Y0191095D02*
X0142163Y0191095D01*
X0143016Y0189497D02*
X0139485Y0189497D01*
X0126906Y0175110D02*
X0126645Y0175110D01*
X0123222Y0175110D02*
X0122854Y0175110D01*
X0122854Y0173512D02*
X0123222Y0173512D01*
X0119432Y0175110D02*
X0119387Y0175110D01*
X0122518Y0178307D02*
X0122887Y0178307D01*
X0122887Y0179906D02*
X0122518Y0179906D01*
X0122518Y0181504D02*
X0122887Y0181504D01*
X0122887Y0183103D02*
X0122518Y0183103D01*
X0159653Y0144739D02*
X0162332Y0144739D01*
X0163866Y0143140D02*
X0160563Y0143140D01*
X0160563Y0141541D02*
X0165198Y0141541D01*
X0165994Y0139943D02*
X0160156Y0139943D01*
X0169801Y0139943D02*
X0170843Y0139943D01*
X0170843Y0138344D02*
X0169841Y0138344D01*
X0170653Y0135147D02*
X0170843Y0135147D01*
X0170525Y0133549D02*
X0168821Y0133549D01*
X0174027Y0130352D02*
X0174396Y0130352D01*
X0174396Y0128753D02*
X0174027Y0128753D01*
X0174027Y0127155D02*
X0174396Y0127155D01*
X0177580Y0139943D02*
X0178219Y0139943D01*
X0219121Y0207080D02*
X0221046Y0207080D01*
X0220372Y0208679D02*
X0219172Y0208679D01*
X0219172Y0210277D02*
X0220372Y0210277D01*
X0220684Y0211876D02*
X0218695Y0211876D01*
X0212020Y0216672D02*
X0207924Y0216672D01*
X0209172Y0218270D02*
X0210772Y0218270D01*
X0210772Y0219869D02*
X0209172Y0219869D01*
X0209104Y0221467D02*
X0210840Y0221467D01*
X0212439Y0223066D02*
X0207506Y0223066D01*
X0202439Y0223066D02*
X0202142Y0223066D01*
X0202142Y0224664D02*
X0231373Y0224664D01*
X0232439Y0223066D02*
X0228071Y0223066D01*
X0229572Y0221467D02*
X0230840Y0221467D01*
X0230772Y0219869D02*
X0229572Y0219869D01*
X0229572Y0218270D02*
X0230772Y0218270D01*
X0232020Y0216672D02*
X0228490Y0216672D01*
X0226891Y0215073D02*
X0311325Y0215073D01*
X0311322Y0213474D02*
X0236737Y0213474D01*
X0238600Y0211876D02*
X0311319Y0211876D01*
X0311317Y0210277D02*
X0239172Y0210277D01*
X0239447Y0208679D02*
X0311314Y0208679D01*
X0311312Y0207080D02*
X0241579Y0207080D01*
X0243712Y0205482D02*
X0311309Y0205482D01*
X0311306Y0203883D02*
X0245743Y0203883D01*
X0245861Y0202285D02*
X0311304Y0202285D01*
X0311301Y0200686D02*
X0245861Y0200686D01*
X0245861Y0199088D02*
X0311299Y0199088D01*
X0311327Y0216672D02*
X0237924Y0216672D01*
X0239172Y0218270D02*
X0311330Y0218270D01*
X0311333Y0219869D02*
X0239172Y0219869D01*
X0239104Y0221467D02*
X0311335Y0221467D01*
X0311338Y0223066D02*
X0237506Y0223066D01*
X0236747Y0224664D02*
X0311340Y0224664D01*
X0311343Y0226263D02*
X0235148Y0226263D01*
X0233550Y0227861D02*
X0311346Y0227861D01*
X0311348Y0229460D02*
X0231951Y0229460D01*
X0230353Y0231058D02*
X0311351Y0231058D01*
X0311354Y0232657D02*
X0228754Y0232657D01*
X0227156Y0234255D02*
X0311356Y0234255D01*
X0311359Y0235854D02*
X0225557Y0235854D01*
X0223959Y0237452D02*
X0311361Y0237452D01*
X0311364Y0239051D02*
X0217463Y0239051D01*
X0217292Y0240649D02*
X0311367Y0240649D01*
X0311369Y0242248D02*
X0212267Y0242248D01*
X0210668Y0243846D02*
X0311372Y0243846D01*
X0311374Y0245445D02*
X0209070Y0245445D01*
X0207471Y0247043D02*
X0311377Y0247043D01*
X0311380Y0248642D02*
X0205873Y0248642D01*
X0204274Y0250240D02*
X0311382Y0250240D01*
X0311385Y0251839D02*
X0202676Y0251839D01*
X0201077Y0253437D02*
X0311388Y0253437D01*
X0229774Y0226263D02*
X0202142Y0226263D01*
X0202031Y0227861D02*
X0228176Y0227861D01*
X0226577Y0229460D02*
X0200432Y0229460D01*
X0198834Y0231058D02*
X0224979Y0231058D01*
X0223380Y0232657D02*
X0197235Y0232657D01*
X0195637Y0234255D02*
X0204765Y0234255D01*
X0202367Y0235854D02*
X0194038Y0235854D01*
X0192440Y0237452D02*
X0200769Y0237452D01*
X0210038Y0234255D02*
X0211458Y0234255D01*
X0216731Y0234255D02*
X0221782Y0234255D01*
X0168742Y0272619D02*
X0165669Y0272619D01*
X0172250Y0298196D02*
X0173643Y0298196D01*
X0172250Y0299794D02*
X0175124Y0299794D01*
X0175124Y0301393D02*
X0172250Y0301393D01*
X0173491Y0302991D02*
X0170236Y0302991D01*
X0168637Y0304590D02*
X0173432Y0304590D01*
X0173432Y0306188D02*
X0168131Y0306188D01*
X0167965Y0307787D02*
X0173432Y0307787D01*
X0173315Y0309385D02*
X0167024Y0309385D01*
X0167736Y0312582D02*
X0160227Y0312582D01*
X0157736Y0312582D02*
X0150881Y0312582D01*
X0152243Y0310984D02*
X0171869Y0310984D01*
X0170271Y0312582D02*
X0170227Y0312582D01*
X0165490Y0314181D02*
X0162473Y0314181D01*
X0163131Y0315779D02*
X0164831Y0315779D01*
X0164831Y0317378D02*
X0163131Y0317378D01*
X0164086Y0318976D02*
X0165530Y0318976D01*
X0159493Y0322173D02*
X0155669Y0322173D01*
X0155669Y0320575D02*
X0157833Y0320575D01*
X0155530Y0318976D02*
X0154086Y0318976D01*
X0154831Y0317378D02*
X0153131Y0317378D01*
X0153131Y0315779D02*
X0154831Y0315779D01*
X0155490Y0314181D02*
X0152473Y0314181D01*
X0148468Y0309385D02*
X0147024Y0309385D01*
X0147965Y0307787D02*
X0149998Y0307787D01*
X0157024Y0309385D02*
X0160939Y0309385D01*
X0159998Y0307787D02*
X0157965Y0307787D01*
X0158131Y0306188D02*
X0159831Y0306188D01*
X0159425Y0304590D02*
X0160305Y0304590D01*
X0161023Y0302991D02*
X0161749Y0302991D01*
X0162622Y0301393D02*
X0165119Y0301393D01*
X0165119Y0299794D02*
X0164220Y0299794D01*
X0159493Y0323772D02*
X0155669Y0323772D01*
X0155669Y0325370D02*
X0159493Y0325370D01*
X0159948Y0326969D02*
X0155669Y0326969D01*
X0155669Y0328567D02*
X0159493Y0328567D01*
X0159493Y0330166D02*
X0156996Y0330166D01*
X0157334Y0334961D02*
X0162730Y0334961D01*
X0163404Y0334961D02*
X0168416Y0334961D01*
X0166818Y0336560D02*
X0156697Y0336560D01*
X0159949Y0338158D02*
X0166081Y0338158D01*
X0165419Y0339757D02*
X0161547Y0339757D01*
X0163146Y0341355D02*
X0165381Y0341355D01*
X0165381Y0342954D02*
X0164744Y0342954D01*
X0159370Y0342954D02*
X0156674Y0342954D01*
X0154764Y0346151D02*
X0154395Y0346151D01*
X0154395Y0347749D02*
X0154764Y0347749D01*
X0168435Y0350946D02*
X0168747Y0350946D01*
X0170186Y0352545D02*
X0170346Y0352545D01*
X0170781Y0354143D02*
X0171944Y0354143D01*
X0170778Y0355742D02*
X0173543Y0355742D01*
X0173677Y0357341D02*
X0170116Y0357341D01*
X0168028Y0358939D02*
X0172414Y0358939D01*
X0174121Y0350946D02*
X0311547Y0350946D01*
X0311571Y0365333D02*
X0075225Y0365333D01*
X0075223Y0366932D02*
X0311573Y0366932D01*
X0311576Y0368530D02*
X0077834Y0368530D01*
X0164640Y0333363D02*
X0171294Y0333363D01*
D22*
X0162740Y0333052D02*
X0163058Y0329973D01*
X0162740Y0333052D02*
X0153769Y0333052D01*
X0153769Y0321346D01*
X0148981Y0316558D01*
X0148981Y0311558D01*
X0153981Y0306558D01*
X0154769Y0306558D01*
X0168685Y0292642D01*
X0170777Y0292642D01*
X0177024Y0298890D01*
X0177024Y0305572D01*
X0176997Y0305599D01*
X0174624Y0310916D02*
X0168981Y0316558D01*
X0163058Y0320635D02*
X0163058Y0323280D01*
X0163058Y0320635D02*
X0158981Y0316558D01*
X0155169Y0306558D02*
X0153981Y0306558D01*
X0153742Y0306558D01*
X0152859Y0297681D02*
X0152859Y0292564D01*
X0155897Y0289526D01*
X0167156Y0291114D02*
X0168685Y0292642D01*
X0167156Y0291114D02*
X0167156Y0276944D01*
X0164112Y0273900D01*
X0164348Y0274042D01*
X0167012Y0276706D01*
X0181437Y0263855D01*
X0178611Y0261028D01*
X0178611Y0252497D01*
X0199331Y0252497D01*
X0214094Y0237733D01*
X0214807Y0237020D01*
X0221704Y0237020D01*
X0234972Y0223752D01*
X0234972Y0219659D01*
X0234972Y0209659D02*
X0243961Y0202920D01*
X0243961Y0192410D01*
X0236459Y0186802D01*
X0231631Y0186802D01*
X0231604Y0186775D01*
X0223180Y0186815D01*
X0224169Y0186577D01*
X0223986Y0181631D01*
X0227531Y0181898D02*
X0227531Y0180192D01*
X0225315Y0177976D01*
X0224340Y0177976D01*
X0223991Y0177992D01*
X0221623Y0177992D01*
X0219836Y0178071D01*
X0219144Y0178763D01*
X0219144Y0197374D01*
X0220661Y0198620D01*
X0220700Y0198612D01*
X0220805Y0198698D01*
X0226152Y0198593D02*
X0226152Y0196480D01*
X0223180Y0193508D01*
X0226152Y0198593D02*
X0226993Y0198324D01*
X0226993Y0198133D01*
X0231631Y0193495D01*
X0233462Y0191664D01*
X0239470Y0191664D01*
X0241814Y0194007D01*
X0241814Y0201448D01*
X0238196Y0205066D01*
X0234331Y0205066D01*
X0233550Y0205847D01*
X0231659Y0205847D01*
X0227847Y0209659D01*
X0224972Y0209659D01*
X0229125Y0204884D02*
X0218630Y0204884D01*
X0214972Y0208542D01*
X0214972Y0209659D01*
X0204972Y0209659D02*
X0204972Y0211946D01*
X0200242Y0216676D01*
X0200242Y0226963D01*
X0188336Y0238869D01*
X0172785Y0238869D01*
X0170529Y0236613D01*
X0170529Y0231566D01*
X0163219Y0224256D01*
X0159181Y0233646D02*
X0148825Y0233646D01*
X0143646Y0238825D01*
X0144111Y0244651D02*
X0147441Y0245573D01*
X0149867Y0250419D01*
X0157932Y0250419D01*
X0157941Y0250428D01*
X0159181Y0242861D02*
X0159181Y0240339D01*
X0158100Y0240363D01*
X0152723Y0240034D01*
X0165994Y0252040D02*
X0168858Y0252167D01*
X0168910Y0252220D01*
X0171641Y0252220D01*
X0171918Y0252497D01*
X0175735Y0249621D02*
X0178611Y0252497D01*
X0168167Y0246466D02*
X0167941Y0245420D01*
X0168167Y0246466D02*
X0192870Y0246466D01*
X0200047Y0240861D02*
X0203175Y0237733D01*
X0207402Y0237733D01*
X0214094Y0237733D02*
X0214094Y0236508D01*
X0194972Y0219659D02*
X0190688Y0215565D01*
X0162070Y0215565D01*
X0154894Y0222497D01*
X0149262Y0223053D02*
X0154627Y0213843D01*
X0190968Y0213796D01*
X0194972Y0209659D01*
X0184972Y0209659D02*
X0184972Y0206673D01*
X0184973Y0206673D02*
X0184971Y0206542D01*
X0184965Y0206412D01*
X0184955Y0206282D01*
X0184941Y0206152D01*
X0184924Y0206023D01*
X0184902Y0205894D01*
X0184877Y0205766D01*
X0184847Y0205639D01*
X0184814Y0205512D01*
X0184777Y0205387D01*
X0184737Y0205263D01*
X0184692Y0205140D01*
X0184644Y0205019D01*
X0184592Y0204899D01*
X0184537Y0204781D01*
X0184478Y0204664D01*
X0184416Y0204550D01*
X0184350Y0204437D01*
X0184280Y0204326D01*
X0184208Y0204218D01*
X0184132Y0204112D01*
X0184053Y0204008D01*
X0183971Y0203906D01*
X0183886Y0203807D01*
X0183798Y0203711D01*
X0183707Y0203617D01*
X0183613Y0203526D01*
X0183517Y0203438D01*
X0183418Y0203353D01*
X0183316Y0203271D01*
X0183212Y0203192D01*
X0183106Y0203116D01*
X0182998Y0203044D01*
X0182887Y0202974D01*
X0182774Y0202908D01*
X0182660Y0202846D01*
X0182543Y0202787D01*
X0182425Y0202732D01*
X0182305Y0202680D01*
X0182184Y0202632D01*
X0182061Y0202587D01*
X0181937Y0202547D01*
X0181812Y0202510D01*
X0181685Y0202477D01*
X0181558Y0202447D01*
X0181430Y0202422D01*
X0181301Y0202400D01*
X0181172Y0202383D01*
X0181042Y0202369D01*
X0180912Y0202359D01*
X0180782Y0202353D01*
X0180651Y0202351D01*
X0180651Y0202352D02*
X0180483Y0202350D01*
X0180314Y0202344D01*
X0180146Y0202334D01*
X0179979Y0202319D01*
X0179811Y0202301D01*
X0179644Y0202279D01*
X0179478Y0202253D01*
X0179313Y0202222D01*
X0179148Y0202188D01*
X0178984Y0202150D01*
X0178821Y0202107D01*
X0178659Y0202061D01*
X0178498Y0202011D01*
X0178339Y0201957D01*
X0178181Y0201899D01*
X0178024Y0201838D01*
X0177869Y0201772D01*
X0177716Y0201703D01*
X0177564Y0201631D01*
X0177414Y0201554D01*
X0177266Y0201474D01*
X0177120Y0201390D01*
X0176975Y0201303D01*
X0176834Y0201213D01*
X0176694Y0201119D01*
X0176556Y0201022D01*
X0176422Y0200921D01*
X0176289Y0200817D01*
X0176159Y0200710D01*
X0176032Y0200600D01*
X0175907Y0200487D01*
X0175785Y0200371D01*
X0175666Y0200252D01*
X0175550Y0200130D01*
X0175437Y0200005D01*
X0175327Y0199878D01*
X0175220Y0199748D01*
X0175116Y0199615D01*
X0175015Y0199481D01*
X0174918Y0199343D01*
X0174824Y0199203D01*
X0174734Y0199062D01*
X0174647Y0198917D01*
X0174563Y0198771D01*
X0174483Y0198623D01*
X0174406Y0198473D01*
X0174334Y0198321D01*
X0174265Y0198168D01*
X0174199Y0198013D01*
X0174138Y0197856D01*
X0174080Y0197698D01*
X0174026Y0197539D01*
X0173976Y0197378D01*
X0173930Y0197216D01*
X0173887Y0197053D01*
X0173849Y0196889D01*
X0173815Y0196724D01*
X0173784Y0196559D01*
X0173758Y0196393D01*
X0173736Y0196226D01*
X0173718Y0196058D01*
X0173703Y0195891D01*
X0173693Y0195723D01*
X0173687Y0195554D01*
X0173685Y0195386D01*
X0182888Y0187243D02*
X0182888Y0182945D01*
X0184724Y0181109D01*
X0164152Y0162241D02*
X0159624Y0166769D01*
X0136527Y0166769D01*
X0128806Y0174259D01*
X0128806Y0188873D01*
X0121188Y0196722D01*
X0123888Y0196637D02*
X0123888Y0239542D01*
X0126889Y0245707D02*
X0126889Y0196375D01*
X0132723Y0190541D01*
X0132723Y0178359D01*
X0132717Y0178352D01*
X0134111Y0176959D01*
X0149958Y0176959D01*
X0154828Y0172089D01*
X0156363Y0172089D01*
X0146363Y0172089D02*
X0133766Y0172089D01*
X0130844Y0174813D01*
X0130844Y0189483D01*
X0123888Y0196637D01*
X0129537Y0196505D02*
X0135175Y0190866D01*
X0135175Y0182461D01*
X0136429Y0181207D01*
X0145480Y0181207D01*
X0146363Y0182089D01*
X0151831Y0186621D02*
X0138964Y0186621D01*
X0137585Y0188000D01*
X0137585Y0191339D01*
X0132288Y0196636D01*
X0132288Y0254049D01*
X0123361Y0262977D01*
X0122928Y0262977D01*
X0123476Y0255116D02*
X0123682Y0255116D01*
X0129537Y0249262D01*
X0129537Y0196505D01*
X0116009Y0180509D02*
X0109167Y0180509D01*
X0105994Y0177336D01*
X0116009Y0180509D02*
X0116345Y0180174D01*
X0116345Y0172038D01*
X0151831Y0186621D02*
X0156363Y0182089D01*
X0174972Y0219659D02*
X0181916Y0226603D01*
X0183870Y0228648D01*
X0187737Y0231126D02*
X0187737Y0222424D01*
X0184972Y0219659D01*
X0187737Y0231126D02*
X0181045Y0235104D01*
X0176701Y0235104D01*
X0158574Y0261384D02*
X0142836Y0261439D01*
X0142921Y0261573D01*
X0137203Y0273900D02*
X0137345Y0285398D01*
X0143542Y0291595D01*
X0152858Y0297681D02*
X0152855Y0297896D01*
X0152848Y0298110D01*
X0152835Y0298324D01*
X0152817Y0298538D01*
X0152793Y0298751D01*
X0152765Y0298964D01*
X0152731Y0299176D01*
X0152693Y0299387D01*
X0152649Y0299597D01*
X0152600Y0299805D01*
X0152546Y0300013D01*
X0152487Y0300219D01*
X0152424Y0300424D01*
X0152355Y0300627D01*
X0152281Y0300829D01*
X0152203Y0301028D01*
X0152119Y0301226D01*
X0152031Y0301422D01*
X0151939Y0301615D01*
X0151841Y0301806D01*
X0151739Y0301995D01*
X0151633Y0302181D01*
X0151522Y0302365D01*
X0151406Y0302546D01*
X0151287Y0302724D01*
X0151163Y0302899D01*
X0151034Y0303071D01*
X0150902Y0303240D01*
X0150766Y0303405D01*
X0150626Y0303568D01*
X0150481Y0303726D01*
X0150333Y0303882D01*
X0150182Y0304033D01*
X0150026Y0304181D01*
X0149868Y0304326D01*
X0149705Y0304466D01*
X0149540Y0304602D01*
X0149371Y0304734D01*
X0149199Y0304863D01*
X0149024Y0304987D01*
X0148846Y0305106D01*
X0148665Y0305222D01*
X0148481Y0305333D01*
X0148295Y0305439D01*
X0148106Y0305541D01*
X0147915Y0305639D01*
X0147722Y0305731D01*
X0147526Y0305819D01*
X0147328Y0305903D01*
X0147129Y0305981D01*
X0146927Y0306055D01*
X0146724Y0306124D01*
X0146519Y0306187D01*
X0146313Y0306246D01*
X0146105Y0306300D01*
X0145897Y0306349D01*
X0145687Y0306393D01*
X0145476Y0306431D01*
X0145264Y0306465D01*
X0145051Y0306493D01*
X0144838Y0306517D01*
X0144624Y0306535D01*
X0144410Y0306548D01*
X0144196Y0306555D01*
X0143981Y0306558D01*
X0144000Y0306547D01*
X0143981Y0298727D01*
X0143542Y0298288D01*
X0143542Y0298287D02*
X0143583Y0298289D01*
X0143623Y0298294D01*
X0143662Y0298304D01*
X0143701Y0298317D01*
X0143738Y0298333D01*
X0143774Y0298353D01*
X0143807Y0298376D01*
X0143838Y0298402D01*
X0143867Y0298431D01*
X0143893Y0298462D01*
X0143916Y0298495D01*
X0143936Y0298531D01*
X0143952Y0298568D01*
X0143965Y0298607D01*
X0143975Y0298646D01*
X0143980Y0298686D01*
X0143982Y0298727D01*
X0163981Y0306558D02*
X0168685Y0301855D01*
X0168685Y0299335D01*
X0174624Y0310916D02*
X0176997Y0312292D01*
X0153769Y0333052D02*
X0152850Y0333972D01*
X0141162Y0333972D01*
X0141162Y0340664D02*
X0141162Y0356277D01*
X0136581Y0360858D01*
X0154579Y0355100D02*
X0166140Y0355100D01*
X0166381Y0354858D01*
X0167680Y0348576D02*
X0169064Y0348576D01*
X0176304Y0355816D01*
X0176304Y0360781D01*
X0176381Y0360858D01*
X0167680Y0348576D02*
X0158848Y0339745D01*
X0153769Y0339745D01*
X0164112Y0273900D02*
X0137203Y0273900D01*
X0158574Y0261384D02*
X0160152Y0262962D01*
X0160152Y0266711D01*
X0126889Y0245707D02*
X0126477Y0246120D01*
X0126455Y0246120D01*
X0125100Y0247475D01*
X0123445Y0247475D01*
X0223655Y0167842D02*
X0223655Y0166473D01*
X0223617Y0166434D01*
X0229390Y0165336D02*
X0228949Y0163852D01*
X0230996Y0162231D01*
X0234071Y0161929D01*
X0229327Y0159044D02*
X0225681Y0159044D01*
X0225668Y0159058D01*
X0229390Y0165336D02*
X0234037Y0169983D01*
X0232697Y0171322D01*
X0228621Y0171668D01*
X0228650Y0176373D02*
X0230642Y0177784D01*
X0234060Y0178031D01*
X0228582Y0182949D02*
X0227531Y0181898D01*
X0228582Y0182949D02*
X0246209Y0182888D01*
X0248092Y0181005D01*
X0248092Y0158621D01*
X0249442Y0157271D01*
X0265459Y0157271D01*
X0269790Y0152939D01*
X0269790Y0075872D01*
X0247209Y0053291D01*
X0247209Y0024602D01*
X0215713Y0024602D02*
X0215685Y0024629D01*
X0215685Y0047170D01*
X0197164Y0065691D01*
X0143105Y0065691D01*
X0140175Y0068621D01*
X0140175Y0070580D01*
X0140175Y0128059D01*
X0140202Y0126997D01*
X0136115Y0133573D02*
X0110893Y0111680D01*
X0110979Y0074345D01*
X0110979Y0069985D01*
X0115145Y0065819D01*
X0131792Y0065819D01*
X0137680Y0059931D01*
X0137843Y0060094D01*
X0195322Y0060094D01*
X0212563Y0042853D01*
X0212563Y0024602D01*
X0215713Y0024602D02*
X0215540Y0025662D01*
X0163401Y0092565D02*
X0148461Y0078015D01*
X0146868Y0076421D01*
X0146868Y0070580D01*
X0163401Y0092565D02*
X0223040Y0092565D01*
X0250904Y0092938D01*
X0255582Y0097617D01*
X0255582Y0100775D01*
X0255542Y0100815D01*
X0255542Y0109055D01*
X0255582Y0109095D01*
X0257536Y0111049D01*
X0257536Y0147216D01*
X0252662Y0152089D01*
X0243881Y0143308D01*
X0240216Y0141750D01*
X0239513Y0108940D02*
X0248734Y0108940D01*
X0248889Y0109095D01*
X0243445Y0103918D02*
X0234490Y0103918D01*
X0229513Y0098940D01*
X0243445Y0103918D02*
X0246548Y0100815D01*
X0248849Y0100815D01*
X0184880Y0133720D02*
X0180993Y0133720D01*
X0179758Y0132486D01*
X0179945Y0137195D02*
X0178866Y0137488D01*
X0174212Y0137534D01*
X0170808Y0130646D02*
X0169453Y0128861D01*
X0167569Y0128861D01*
X0129438Y0119967D02*
X0117672Y0108202D01*
X0117672Y0074345D01*
X0238513Y0195496D02*
X0229125Y0204884D01*
D23*
X0200047Y0240861D03*
X0192870Y0246466D03*
X0149262Y0223053D03*
X0105994Y0177336D03*
X0167569Y0128861D03*
X0137203Y0273900D03*
D24*
X0164496Y0248638D02*
X0173930Y0248638D01*
X0174389Y0249096D01*
X0175735Y0249621D01*
X0164496Y0248638D02*
X0159181Y0243323D01*
X0159181Y0242861D01*
X0167059Y0240638D02*
X0199824Y0240638D01*
X0200047Y0240861D01*
X0164152Y0162241D02*
X0167349Y0159044D01*
X0229327Y0159044D01*
X0228711Y0153162D02*
X0232961Y0153162D01*
X0234947Y0155148D01*
X0216300Y0139346D02*
X0215527Y0140118D01*
X0204226Y0151419D01*
X0166003Y0151419D01*
X0160495Y0156927D01*
X0123575Y0156927D01*
X0121833Y0158669D01*
X0133382Y0142563D02*
X0105486Y0142647D01*
X0105796Y0138849D02*
X0142808Y0138746D01*
X0144350Y0137204D01*
X0166714Y0137204D01*
X0168167Y0136200D01*
X0167898Y0141858D02*
X0167541Y0141908D01*
X0163054Y0146586D01*
X0143000Y0146586D01*
X0138977Y0142563D01*
X0133382Y0142563D01*
X0216300Y0139346D02*
X0216300Y0131891D01*
X0226241Y0133928D02*
X0228146Y0132023D01*
X0228146Y0127484D01*
D25*
X0216300Y0131891D03*
X0168167Y0136200D03*
X0167898Y0141858D03*
X0121833Y0158669D03*
X0105486Y0142647D03*
X0105796Y0138849D03*
X0121188Y0196722D03*
X0123888Y0239542D03*
X0123445Y0247475D03*
X0123476Y0255116D03*
X0122928Y0262977D03*
M02*
