G75*
%MOIN*%
%OFA0B0*%
%FSLAX25Y25*%
%IPPOS*%
%LPD*%
%AMOC8*
5,1,8,0,0,1.08239X$1,22.5*
%
%ADD10R,0.05131X0.04737*%
%ADD11R,0.04737X0.05131*%
%ADD12C,0.05950*%
%ADD13C,0.07591*%
%ADD14OC8,0.06400*%
%ADD15C,0.06300*%
%ADD16C,0.10250*%
%ADD17C,0.06800*%
%ADD18C,0.13400*%
%ADD19C,0.06400*%
%ADD20R,0.03162X0.18517*%
%ADD21C,0.04400*%
%ADD22C,0.04762*%
%ADD23C,0.03400*%
D10*
X0110979Y0074345D03*
X0117672Y0074345D03*
X0140175Y0070580D03*
X0146868Y0070580D03*
X0184880Y0133720D03*
X0191573Y0133720D03*
X0233523Y0141750D03*
X0240216Y0141750D03*
X0240764Y0161929D03*
X0234071Y0161929D03*
X0234037Y0169983D03*
X0240729Y0169983D03*
X0240753Y0178031D03*
X0234060Y0178031D03*
X0248889Y0109095D03*
X0255582Y0109095D03*
X0255542Y0100815D03*
X0248849Y0100815D03*
X0123038Y0172038D03*
X0116345Y0172038D03*
X0116009Y0180509D03*
X0122702Y0180509D03*
X0171918Y0252497D03*
X0178611Y0252497D03*
X0168685Y0292642D03*
X0168685Y0299335D03*
X0176997Y0305599D03*
X0176997Y0312292D03*
X0163058Y0323280D03*
X0163058Y0329973D03*
X0153769Y0333052D03*
X0153769Y0339745D03*
X0154579Y0348407D03*
X0154579Y0355100D03*
X0141162Y0340664D03*
X0141162Y0333972D03*
X0143542Y0298288D03*
X0143542Y0291595D03*
D11*
X0149867Y0257112D03*
X0149867Y0250419D03*
X0157941Y0250428D03*
X0157941Y0257121D03*
X0159181Y0240339D03*
X0159181Y0233646D03*
X0182888Y0193936D03*
X0182888Y0187243D03*
X0223180Y0186815D03*
X0223180Y0193508D03*
X0231631Y0193495D03*
X0231631Y0186802D03*
X0234947Y0155148D03*
X0234947Y0148455D03*
X0228146Y0127484D03*
X0228146Y0120791D03*
X0174212Y0130841D03*
X0174212Y0137534D03*
X0207402Y0237733D03*
X0214094Y0237733D03*
D12*
X0089292Y0149698D03*
X0089292Y0130013D03*
D13*
X0078662Y0125693D03*
X0078662Y0154019D03*
D14*
X0146363Y0152089D03*
X0146363Y0142089D03*
X0146363Y0132089D03*
X0146363Y0122089D03*
X0156363Y0122089D03*
X0156363Y0132089D03*
X0156363Y0142089D03*
X0156363Y0152089D03*
X0156363Y0162089D03*
X0156363Y0172089D03*
X0146363Y0172089D03*
X0146363Y0162089D03*
X0146363Y0182089D03*
X0146363Y0192089D03*
X0156363Y0192089D03*
X0156363Y0182089D03*
X0174972Y0209659D03*
X0184972Y0209659D03*
X0194972Y0209659D03*
X0204972Y0209659D03*
X0214972Y0209659D03*
X0224972Y0209659D03*
X0224972Y0219659D03*
X0214972Y0219659D03*
X0204972Y0219659D03*
X0194972Y0219659D03*
X0184972Y0219659D03*
X0174972Y0219659D03*
X0234972Y0219659D03*
X0252662Y0192089D03*
X0252662Y0182089D03*
X0262662Y0182089D03*
X0262662Y0192089D03*
X0262662Y0172089D03*
X0262662Y0162089D03*
X0252662Y0162089D03*
X0252662Y0172089D03*
X0252662Y0152089D03*
X0262662Y0152089D03*
X0262662Y0142089D03*
X0262662Y0132089D03*
X0252662Y0132089D03*
X0252662Y0142089D03*
X0252662Y0122089D03*
X0262662Y0122089D03*
X0239513Y0108940D03*
X0239513Y0098940D03*
X0229513Y0098940D03*
X0219513Y0098940D03*
X0219513Y0108940D03*
X0229513Y0108940D03*
X0209513Y0108940D03*
X0199513Y0108940D03*
X0199513Y0098940D03*
X0209513Y0098940D03*
X0189513Y0098940D03*
X0179513Y0098940D03*
X0179513Y0108940D03*
X0189513Y0108940D03*
X0169513Y0108940D03*
X0169513Y0098940D03*
D15*
X0163981Y0306558D03*
X0153981Y0306558D03*
X0143981Y0306558D03*
X0133981Y0306558D03*
X0138981Y0316558D03*
X0148981Y0316558D03*
X0158981Y0316558D03*
X0168981Y0316558D03*
D16*
X0182481Y0329558D03*
X0120481Y0329558D03*
D17*
X0126581Y0354858D03*
X0136581Y0360858D03*
X0166381Y0354858D03*
X0176381Y0360858D03*
D18*
X0173981Y0341558D03*
X0128981Y0341558D03*
D19*
X0234972Y0209659D03*
D20*
X0092878Y0024602D03*
X0096028Y0024602D03*
X0099177Y0024602D03*
X0102327Y0024602D03*
X0105476Y0024602D03*
X0108626Y0024602D03*
X0111776Y0024602D03*
X0114925Y0024602D03*
X0118075Y0024602D03*
X0121224Y0024602D03*
X0124374Y0024602D03*
X0127524Y0024602D03*
X0130673Y0024602D03*
X0133823Y0024602D03*
X0136972Y0024602D03*
X0140122Y0024602D03*
X0143272Y0024602D03*
X0146421Y0024602D03*
X0149571Y0024602D03*
X0152721Y0024602D03*
X0155870Y0024602D03*
X0159020Y0024602D03*
X0162169Y0024602D03*
X0165319Y0024602D03*
X0168469Y0024602D03*
X0171618Y0024602D03*
X0174768Y0024602D03*
X0177917Y0024602D03*
X0181067Y0024602D03*
X0184217Y0024602D03*
X0187366Y0024602D03*
X0190516Y0024602D03*
X0206264Y0024602D03*
X0209413Y0024602D03*
X0212563Y0024602D03*
X0215713Y0024602D03*
X0218862Y0024602D03*
X0222012Y0024602D03*
X0225161Y0024602D03*
X0228311Y0024602D03*
X0231461Y0024602D03*
X0234610Y0024602D03*
X0237760Y0024602D03*
X0240909Y0024602D03*
X0244059Y0024602D03*
X0247209Y0024602D03*
X0250358Y0024602D03*
X0253508Y0024602D03*
X0256658Y0024602D03*
X0259807Y0024602D03*
X0262957Y0024602D03*
X0266106Y0024602D03*
X0269256Y0024602D03*
X0272406Y0024602D03*
X0275555Y0024602D03*
X0278705Y0024602D03*
X0281854Y0024602D03*
X0285004Y0024602D03*
X0288154Y0024602D03*
X0291303Y0024602D03*
D21*
X0242096Y0079280D03*
X0226800Y0089231D03*
X0223040Y0092565D03*
X0237181Y0126818D03*
X0226241Y0133928D03*
X0228711Y0153162D03*
X0229327Y0159044D03*
X0228949Y0163852D03*
X0223655Y0167842D03*
X0228621Y0171668D03*
X0228650Y0176373D03*
X0223986Y0181631D03*
X0238513Y0195496D03*
X0226152Y0198593D03*
X0220805Y0198698D03*
X0204145Y0165463D03*
X0184724Y0181109D03*
X0173685Y0195386D03*
X0179865Y0168699D03*
X0179945Y0137195D03*
X0179758Y0132486D03*
X0200655Y0133227D03*
X0180808Y0081716D03*
X0148461Y0078015D03*
X0129438Y0119967D03*
X0140202Y0126997D03*
X0136115Y0133573D03*
X0131007Y0165038D03*
X0154894Y0222497D03*
X0163219Y0224256D03*
X0176701Y0235104D03*
X0183870Y0228648D03*
X0167941Y0245420D03*
X0167059Y0240638D03*
X0165994Y0252040D03*
X0152723Y0240034D03*
X0143646Y0238825D03*
X0144111Y0244651D03*
X0142921Y0261573D03*
X0160152Y0266711D03*
X0167156Y0276944D03*
X0155897Y0289526D03*
X0181437Y0263855D03*
D22*
X0192870Y0246466D03*
X0200047Y0240861D03*
X0149262Y0223053D03*
X0105994Y0177336D03*
X0167569Y0128861D03*
X0137203Y0273900D03*
D23*
X0122928Y0262977D03*
X0123476Y0255116D03*
X0123445Y0247475D03*
X0123888Y0239542D03*
X0121188Y0196722D03*
X0121833Y0158669D03*
X0105486Y0142647D03*
X0105796Y0138849D03*
X0167898Y0141858D03*
X0168167Y0136200D03*
X0216300Y0131891D03*
M02*
