%
M48
M72
T01C0.0100
T02C0.0200
T03C0.0236
T04C0.0315
T05C0.0350
T06C0.0360
T07C0.0400
T08C0.0453
T09C0.0630
T10C0.1260
%
T01
X11363Y14951
X11332Y15330
X12966Y16933
X12902Y20738
X13172Y25020
X13128Y25813
X13131Y26577
X13076Y27363
X17573Y15252
X17600Y14686
X22413Y14255
T02
X13727Y13063
X14803Y13766
X14398Y14393
X13884Y17570
X18152Y20604
X19255Y19177
X18770Y17936
X21198Y17612
X23148Y17850
X23645Y18233
X23648Y18703
X23182Y19229
X23398Y20925
X22863Y20936
X24634Y20615
X23678Y17451
X23716Y16970
X23654Y16382
X23407Y14459
X24501Y13748
X23087Y10322
X23463Y9989
X24993Y8994
X20849Y14388
X18759Y14314
X18778Y14785
X18864Y9237
X15629Y8867
X16272Y23315
X17105Y23491
X18453Y24576
X19170Y23931
X17489Y25130
X17577Y25608
X17382Y26270
X16055Y25069
X15148Y24948
X15194Y25531
X15075Y27223
X16798Y27737
X16225Y29994
T03
X14503Y28456
X11508Y27892
X15709Y23371
X20070Y25712
X20788Y25152
X18527Y28580
X11382Y18799
X10816Y16120
X17540Y13952
T04
X9636Y34617
X9636Y36585
T05
X14181Y31722
X14681Y32722
X15681Y32722
X15181Y31722
X16181Y31722
X16681Y32722
X17681Y32722
X17181Y31722
T06
X18280Y23032
X19280Y23032
X20280Y23032
X21280Y23032
X22280Y23032
X23280Y23032
X24280Y23032
X24280Y22032
X23280Y22032
X22280Y22032
X21280Y22032
X20280Y22032
X19280Y22032
X18280Y22032
X16419Y20275
X15419Y20275
X15419Y19275
X15419Y18275
X15419Y17275
X15419Y16275
X15419Y15275
X15419Y14275
X15419Y13275
X16419Y13275
X16419Y14275
X16419Y15275
X16419Y16275
X16419Y17275
X16419Y18275
X16419Y19275
X17734Y11960
X17734Y10960
X18734Y10960
X19734Y10960
X19734Y11960
X18734Y11960
X20734Y11960
X21734Y11960
X21734Y10960
X20734Y10960
X22734Y10960
X23734Y10960
X24734Y10960
X24734Y11960
X23734Y11960
X22734Y11960
X26049Y13275
X27049Y13275
X27049Y14275
X27049Y15275
X26049Y15275
X26049Y14275
X26049Y16275
X26049Y17275
X27049Y17275
X27049Y16275
X27049Y18275
X27049Y19275
X26049Y19275
X26049Y18275
X26049Y20275
X27049Y20275
T07
X17421Y36552
X18421Y37152
X14441Y37152
X13441Y36552
T08
X8573Y37018
X8573Y34185
T09
X12831Y34022
X19031Y34022
T10
X18181Y35222
X13681Y35222
M30
