G75*
%MOIN*%
%OFA0B0*%
%FSLAX25Y25*%
%IPPOS*%
%LPD*%
%AMOC8*
5,1,8,0,0,1.08239X$1,22.5*
%
%ADD10R,0.04331X0.03937*%
%ADD11R,0.03937X0.04331*%
%ADD12C,0.05150*%
%ADD13C,0.06791*%
%ADD14OC8,0.05600*%
%ADD15C,0.05500*%
%ADD16C,0.09450*%
%ADD17C,0.06000*%
%ADD18C,0.05600*%
%ADD19R,0.02362X0.17717*%
%ADD20C,0.04000*%
%ADD21C,0.01600*%
%ADD22C,0.01000*%
%ADD23C,0.04362*%
%ADD24C,0.00800*%
%ADD25C,0.03000*%
D10*
X0118809Y0085003D03*
X0125502Y0085003D03*
X0148005Y0081238D03*
X0154698Y0081238D03*
X0192710Y0144378D03*
X0199403Y0144378D03*
X0241353Y0152408D03*
X0248046Y0152408D03*
X0248594Y0172587D03*
X0241901Y0172587D03*
X0241867Y0180641D03*
X0248560Y0180641D03*
X0248583Y0188689D03*
X0241891Y0188689D03*
X0256719Y0119753D03*
X0263412Y0119753D03*
X0263372Y0111473D03*
X0256679Y0111473D03*
X0130868Y0182696D03*
X0124175Y0182696D03*
X0123840Y0191167D03*
X0130532Y0191167D03*
X0179748Y0263155D03*
X0186441Y0263155D03*
X0176515Y0303300D03*
X0176515Y0309993D03*
X0184827Y0316257D03*
X0184827Y0322950D03*
X0170888Y0333938D03*
X0170888Y0340631D03*
X0161599Y0343710D03*
X0161599Y0350403D03*
X0162410Y0359065D03*
X0162410Y0365758D03*
X0148992Y0351322D03*
X0148992Y0344630D03*
X0151372Y0308946D03*
X0151372Y0302253D03*
D11*
X0157697Y0267770D03*
X0157697Y0261077D03*
X0165771Y0261086D03*
X0165771Y0267779D03*
X0167011Y0250997D03*
X0167011Y0244304D03*
X0190718Y0204594D03*
X0190718Y0197901D03*
X0231010Y0197473D03*
X0231010Y0204166D03*
X0239461Y0204153D03*
X0239461Y0197460D03*
X0242777Y0165806D03*
X0242777Y0159113D03*
X0235976Y0138142D03*
X0235976Y0131449D03*
X0182042Y0141499D03*
X0182042Y0148192D03*
X0215232Y0248391D03*
X0221925Y0248391D03*
D12*
X0096364Y0346169D03*
X0096364Y0365854D03*
D13*
X0085734Y0370175D03*
X0085734Y0341848D03*
D14*
X0182802Y0230317D03*
X0192802Y0230317D03*
X0202802Y0230317D03*
X0202802Y0220317D03*
X0192802Y0220317D03*
X0182802Y0220317D03*
X0164193Y0202747D03*
X0164193Y0192747D03*
X0164193Y0182747D03*
X0164193Y0172747D03*
X0164193Y0162747D03*
X0164193Y0152747D03*
X0164193Y0142747D03*
X0164193Y0132747D03*
X0154193Y0132747D03*
X0154193Y0142747D03*
X0154193Y0152747D03*
X0154193Y0162747D03*
X0154193Y0172747D03*
X0154193Y0182747D03*
X0154193Y0192747D03*
X0154193Y0202747D03*
X0212802Y0220317D03*
X0222802Y0220317D03*
X0222802Y0230317D03*
X0212802Y0230317D03*
X0232802Y0230317D03*
X0242802Y0230317D03*
X0232802Y0220317D03*
X0260492Y0202747D03*
X0270492Y0202747D03*
X0270492Y0192747D03*
X0260492Y0192747D03*
X0260492Y0182747D03*
X0270492Y0182747D03*
X0270492Y0172747D03*
X0260492Y0172747D03*
X0260492Y0162747D03*
X0270492Y0162747D03*
X0270492Y0152747D03*
X0260492Y0152747D03*
X0260492Y0142747D03*
X0270492Y0142747D03*
X0270492Y0132747D03*
X0260492Y0132747D03*
X0247343Y0119598D03*
X0237343Y0119598D03*
X0227343Y0119598D03*
X0217343Y0119598D03*
X0207343Y0119598D03*
X0197343Y0119598D03*
X0187343Y0119598D03*
X0177343Y0119598D03*
X0177343Y0109598D03*
X0187343Y0109598D03*
X0197343Y0109598D03*
X0207343Y0109598D03*
X0217343Y0109598D03*
X0227343Y0109598D03*
X0237343Y0109598D03*
X0247343Y0109598D03*
D15*
X0171812Y0317216D03*
X0176812Y0327216D03*
X0166812Y0327216D03*
X0161812Y0317216D03*
X0151812Y0317216D03*
X0156812Y0327216D03*
X0146812Y0327216D03*
X0141812Y0317216D03*
D16*
X0128312Y0340216D03*
X0190312Y0340216D03*
D17*
X0174212Y0365516D03*
X0184212Y0371516D03*
X0144412Y0371516D03*
X0134412Y0365516D03*
D18*
X0242802Y0220317D03*
D19*
X0242440Y0035260D03*
X0239291Y0035260D03*
X0236141Y0035260D03*
X0232992Y0035260D03*
X0229842Y0035260D03*
X0226692Y0035260D03*
X0223543Y0035260D03*
X0220393Y0035260D03*
X0217244Y0035260D03*
X0214094Y0035260D03*
X0198346Y0035260D03*
X0195196Y0035260D03*
X0192047Y0035260D03*
X0188897Y0035260D03*
X0185747Y0035260D03*
X0182598Y0035260D03*
X0179448Y0035260D03*
X0176299Y0035260D03*
X0173149Y0035260D03*
X0169999Y0035260D03*
X0166850Y0035260D03*
X0163700Y0035260D03*
X0160551Y0035260D03*
X0157401Y0035260D03*
X0154251Y0035260D03*
X0151102Y0035260D03*
X0147952Y0035260D03*
X0144803Y0035260D03*
X0141653Y0035260D03*
X0138503Y0035260D03*
X0135354Y0035260D03*
X0132204Y0035260D03*
X0129055Y0035260D03*
X0125905Y0035260D03*
X0122755Y0035260D03*
X0119606Y0035260D03*
X0116456Y0035260D03*
X0113307Y0035260D03*
X0110157Y0035260D03*
X0107007Y0035260D03*
X0103858Y0035260D03*
X0100708Y0035260D03*
X0245590Y0035260D03*
X0248740Y0035260D03*
X0251889Y0035260D03*
X0255039Y0035260D03*
X0258188Y0035260D03*
X0261338Y0035260D03*
X0264488Y0035260D03*
X0267637Y0035260D03*
X0270787Y0035260D03*
X0273936Y0035260D03*
X0277086Y0035260D03*
X0280236Y0035260D03*
X0283385Y0035260D03*
X0286535Y0035260D03*
X0289684Y0035260D03*
X0292834Y0035260D03*
X0295984Y0035260D03*
X0299133Y0035260D03*
D20*
X0249926Y0089938D03*
X0234630Y0099889D03*
X0230870Y0103223D03*
X0245011Y0137476D03*
X0234072Y0144586D03*
X0236541Y0163820D03*
X0237157Y0169702D03*
X0236779Y0174510D03*
X0231485Y0178500D03*
X0236452Y0182326D03*
X0236480Y0187031D03*
X0231816Y0192289D03*
X0233982Y0209251D03*
X0228635Y0209356D03*
X0246343Y0206154D03*
X0211975Y0176121D03*
X0192554Y0191767D03*
X0187695Y0179357D03*
X0181515Y0206044D03*
X0162724Y0233155D03*
X0171049Y0234914D03*
X0184531Y0245762D03*
X0191700Y0239306D03*
X0174889Y0251296D03*
X0175771Y0256078D03*
X0173824Y0262698D03*
X0160553Y0250692D03*
X0151476Y0249483D03*
X0151941Y0255309D03*
X0150751Y0272231D03*
X0167982Y0277369D03*
X0162249Y0299937D03*
X0138837Y0175696D03*
X0143979Y0143929D03*
X0148032Y0137655D03*
X0137268Y0130625D03*
X0156291Y0088673D03*
X0188638Y0092374D03*
X0187588Y0143144D03*
X0187776Y0147852D03*
X0208485Y0143885D03*
D21*
X0082935Y0052305D02*
X0082939Y0049554D01*
X0098408Y0049554D01*
X0099608Y0048353D01*
X0099608Y0045618D01*
X0200036Y0045618D01*
X0200036Y0051070D01*
X0201237Y0052271D01*
X0212187Y0052271D01*
X0213388Y0051070D01*
X0213388Y0045618D01*
X0218393Y0045618D01*
X0218393Y0052683D01*
X0202323Y0068752D01*
X0146502Y0068752D01*
X0146339Y0068589D01*
X0144682Y0068589D01*
X0143510Y0069761D01*
X0138794Y0074477D01*
X0122147Y0074477D01*
X0120975Y0075649D01*
X0116809Y0079815D01*
X0116809Y0081534D01*
X0116023Y0081534D01*
X0115144Y0082413D01*
X0115144Y0087593D01*
X0116023Y0088471D01*
X0116801Y0088471D01*
X0116724Y0121598D01*
X0116664Y0121668D01*
X0116722Y0122414D01*
X0116721Y0123162D01*
X0116786Y0123228D01*
X0116793Y0123320D01*
X0117362Y0123806D01*
X0117890Y0124336D01*
X0117982Y0124337D01*
X0140479Y0143568D01*
X0140479Y0144625D01*
X0141012Y0145911D01*
X0141996Y0146896D01*
X0143283Y0147429D01*
X0144675Y0147429D01*
X0145961Y0146896D01*
X0146946Y0145911D01*
X0147479Y0144625D01*
X0147479Y0143233D01*
X0146946Y0141946D01*
X0145961Y0140962D01*
X0144675Y0140429D01*
X0143283Y0140429D01*
X0143067Y0140518D01*
X0120725Y0121419D01*
X0120801Y0088471D01*
X0121596Y0088471D01*
X0122156Y0087911D01*
X0122716Y0088471D01*
X0123502Y0088471D01*
X0123502Y0119688D01*
X0133768Y0129954D01*
X0133768Y0131321D01*
X0134301Y0132608D01*
X0135285Y0133592D01*
X0136572Y0134125D01*
X0137964Y0134125D01*
X0139250Y0133592D01*
X0140235Y0132608D01*
X0140768Y0131321D01*
X0140768Y0129929D01*
X0140235Y0128643D01*
X0139250Y0127658D01*
X0137964Y0127125D01*
X0136596Y0127125D01*
X0127502Y0118031D01*
X0127502Y0088471D01*
X0128289Y0088471D01*
X0129168Y0087593D01*
X0129168Y0082413D01*
X0128289Y0081534D01*
X0122716Y0081534D01*
X0122156Y0082094D01*
X0121596Y0081534D01*
X0120809Y0081534D01*
X0120809Y0081472D01*
X0123804Y0078477D01*
X0140451Y0078477D01*
X0146176Y0072752D01*
X0203980Y0072752D01*
X0205152Y0071581D01*
X0221515Y0055217D01*
X0221515Y0056999D01*
X0204166Y0074349D01*
X0150107Y0074349D01*
X0148936Y0075520D01*
X0146687Y0077769D01*
X0145218Y0077769D01*
X0144340Y0078648D01*
X0144340Y0083827D01*
X0145218Y0084706D01*
X0146005Y0084706D01*
X0146005Y0134733D01*
X0145065Y0135673D01*
X0144532Y0136959D01*
X0144532Y0138352D01*
X0145065Y0139638D01*
X0146049Y0140623D01*
X0147336Y0141155D01*
X0148728Y0141155D01*
X0150015Y0140623D01*
X0150999Y0139638D01*
X0151532Y0138352D01*
X0151532Y0136959D01*
X0150999Y0135673D01*
X0150015Y0134688D01*
X0150005Y0134684D01*
X0150005Y0134640D01*
X0152412Y0137047D01*
X0155974Y0137047D01*
X0158493Y0134528D01*
X0158493Y0130966D01*
X0155974Y0128447D01*
X0152412Y0128447D01*
X0150005Y0130854D01*
X0150005Y0084706D01*
X0150792Y0084706D01*
X0151352Y0084146D01*
X0151911Y0084706D01*
X0152698Y0084706D01*
X0152698Y0087907D01*
X0152791Y0088001D01*
X0152791Y0089369D01*
X0153324Y0090655D01*
X0154309Y0091640D01*
X0155595Y0092172D01*
X0156988Y0092172D01*
X0157009Y0092163D01*
X0169826Y0104646D01*
X0170403Y0105223D01*
X0170418Y0105223D01*
X0170429Y0105234D01*
X0171244Y0105223D01*
X0227921Y0105223D01*
X0227995Y0105298D01*
X0225562Y0105298D01*
X0223043Y0107817D01*
X0223043Y0111379D01*
X0225562Y0113898D01*
X0229124Y0113898D01*
X0231643Y0111379D01*
X0231643Y0107817D01*
X0230549Y0106723D01*
X0231567Y0106723D01*
X0232853Y0106190D01*
X0233781Y0105262D01*
X0236423Y0105298D01*
X0235562Y0105298D01*
X0233043Y0107817D01*
X0233043Y0111379D01*
X0235562Y0113898D01*
X0238814Y0113898D01*
X0241492Y0116575D01*
X0244284Y0116575D01*
X0243043Y0117817D01*
X0243043Y0121379D01*
X0245562Y0123898D01*
X0249124Y0123898D01*
X0251424Y0121598D01*
X0253054Y0121598D01*
X0253054Y0122343D01*
X0253932Y0123221D01*
X0259506Y0123221D01*
X0260065Y0122662D01*
X0260625Y0123221D01*
X0263366Y0123221D01*
X0263366Y0129540D01*
X0262273Y0128447D01*
X0258711Y0128447D01*
X0256192Y0130966D01*
X0256192Y0134528D01*
X0258711Y0137047D01*
X0262273Y0137047D01*
X0263366Y0135955D01*
X0263366Y0139540D01*
X0262273Y0138447D01*
X0258711Y0138447D01*
X0256192Y0140966D01*
X0256192Y0144528D01*
X0258711Y0147047D01*
X0262273Y0147047D01*
X0263366Y0145955D01*
X0263366Y0149540D01*
X0262273Y0148447D01*
X0258711Y0148447D01*
X0256192Y0150966D01*
X0256192Y0154528D01*
X0258711Y0157047D01*
X0262273Y0157047D01*
X0263366Y0155955D01*
X0263366Y0157045D01*
X0261964Y0158447D01*
X0259021Y0158447D01*
X0253414Y0152840D01*
X0253256Y0152450D01*
X0252851Y0152278D01*
X0252540Y0151966D01*
X0252119Y0151966D01*
X0251711Y0151793D01*
X0251711Y0149818D01*
X0250833Y0148939D01*
X0245259Y0148939D01*
X0244912Y0149287D01*
X0244624Y0148999D01*
X0244213Y0148762D01*
X0243755Y0148639D01*
X0241537Y0148639D01*
X0241537Y0152224D01*
X0241169Y0152224D01*
X0237388Y0152224D01*
X0237388Y0150202D01*
X0237510Y0149745D01*
X0237747Y0149334D01*
X0238083Y0148999D01*
X0238493Y0148762D01*
X0238951Y0148639D01*
X0241169Y0148639D01*
X0241169Y0152224D01*
X0241169Y0152592D01*
X0237388Y0152592D01*
X0237388Y0154613D01*
X0237510Y0155071D01*
X0237747Y0155482D01*
X0238083Y0155817D01*
X0238493Y0156054D01*
X0238951Y0156176D01*
X0239175Y0156176D01*
X0239131Y0156253D01*
X0239008Y0156711D01*
X0239008Y0158929D01*
X0242593Y0158929D01*
X0242593Y0159297D01*
X0239008Y0159297D01*
X0239008Y0161338D01*
X0238524Y0160853D01*
X0237237Y0160320D01*
X0235845Y0160320D01*
X0234559Y0160853D01*
X0233574Y0161838D01*
X0233041Y0163124D01*
X0233041Y0164516D01*
X0233574Y0165803D01*
X0234559Y0166787D01*
X0234957Y0166952D01*
X0234207Y0167702D01*
X0232683Y0167702D01*
X0232583Y0167802D01*
X0174392Y0167802D01*
X0173279Y0168915D01*
X0171295Y0170899D01*
X0171153Y0170899D01*
X0168493Y0173560D01*
X0168493Y0170966D01*
X0167012Y0169485D01*
X0169112Y0169485D01*
X0174620Y0163977D01*
X0212843Y0163977D01*
X0225257Y0151563D01*
X0225257Y0151563D01*
X0226030Y0150791D01*
X0226030Y0144891D01*
X0226673Y0144248D01*
X0227130Y0143146D01*
X0227130Y0141952D01*
X0226673Y0140849D01*
X0225829Y0140006D01*
X0224726Y0139549D01*
X0223533Y0139549D01*
X0222430Y0140006D01*
X0221586Y0140849D01*
X0221130Y0141952D01*
X0221130Y0143146D01*
X0221586Y0144248D01*
X0222230Y0144891D01*
X0222230Y0149217D01*
X0211269Y0160177D01*
X0173046Y0160177D01*
X0171933Y0161290D01*
X0167538Y0165685D01*
X0167336Y0165685D01*
X0168493Y0164528D01*
X0168493Y0160966D01*
X0166671Y0159144D01*
X0170121Y0159144D01*
X0170137Y0159160D01*
X0170904Y0159144D01*
X0171672Y0159144D01*
X0171688Y0159128D01*
X0171711Y0159127D01*
X0172242Y0158574D01*
X0172785Y0158031D01*
X0172785Y0158008D01*
X0175175Y0155516D01*
X0176325Y0155516D01*
X0177427Y0155059D01*
X0178271Y0154215D01*
X0178728Y0153112D01*
X0178728Y0151919D01*
X0178271Y0150816D01*
X0177427Y0149972D01*
X0176873Y0149743D01*
X0177696Y0149402D01*
X0178540Y0148558D01*
X0178573Y0148478D01*
X0178573Y0150979D01*
X0179452Y0151857D01*
X0184631Y0151857D01*
X0185510Y0150979D01*
X0185510Y0150537D01*
X0185793Y0150820D01*
X0187079Y0151352D01*
X0188472Y0151352D01*
X0189758Y0150820D01*
X0190743Y0149835D01*
X0191275Y0148549D01*
X0191275Y0147847D01*
X0195496Y0147847D01*
X0195844Y0147499D01*
X0196132Y0147787D01*
X0196543Y0148024D01*
X0197000Y0148147D01*
X0199218Y0148147D01*
X0199218Y0144563D01*
X0199587Y0144563D01*
X0199587Y0148147D01*
X0201805Y0148147D01*
X0202263Y0148024D01*
X0202673Y0147787D01*
X0203008Y0147452D01*
X0203245Y0147041D01*
X0203368Y0146584D01*
X0203368Y0144562D01*
X0199587Y0144562D01*
X0199587Y0144194D01*
X0203368Y0144194D01*
X0203368Y0142173D01*
X0203245Y0141715D01*
X0203008Y0141304D01*
X0202673Y0140969D01*
X0202263Y0140732D01*
X0201805Y0140610D01*
X0199587Y0140610D01*
X0199587Y0144194D01*
X0199218Y0144194D01*
X0199218Y0140610D01*
X0197000Y0140610D01*
X0196543Y0140732D01*
X0196132Y0140969D01*
X0195844Y0141257D01*
X0195496Y0140910D01*
X0190304Y0140910D01*
X0189571Y0140177D01*
X0188285Y0139644D01*
X0186892Y0139644D01*
X0185810Y0140092D01*
X0185810Y0139097D01*
X0185687Y0138639D01*
X0185450Y0138229D01*
X0185115Y0137893D01*
X0184705Y0137656D01*
X0184247Y0137534D01*
X0182226Y0137534D01*
X0182226Y0141315D01*
X0181857Y0141315D01*
X0178273Y0141315D01*
X0178273Y0139097D01*
X0178396Y0138639D01*
X0178633Y0138229D01*
X0178968Y0137893D01*
X0179378Y0137656D01*
X0179836Y0137534D01*
X0181857Y0137534D01*
X0181857Y0141315D01*
X0181857Y0141683D01*
X0178273Y0141683D01*
X0178273Y0143901D01*
X0178396Y0144359D01*
X0178633Y0144770D01*
X0178921Y0145058D01*
X0178622Y0145357D01*
X0178540Y0145159D01*
X0177696Y0144315D01*
X0176593Y0143858D01*
X0175400Y0143858D01*
X0174297Y0144315D01*
X0173453Y0145159D01*
X0173121Y0145962D01*
X0167060Y0145962D01*
X0168493Y0144528D01*
X0168493Y0140966D01*
X0165974Y0138447D01*
X0162412Y0138447D01*
X0159893Y0140966D01*
X0159893Y0144528D01*
X0161327Y0145962D01*
X0157060Y0145962D01*
X0158493Y0144528D01*
X0158493Y0140966D01*
X0155974Y0138447D01*
X0152412Y0138447D01*
X0149893Y0140966D01*
X0149893Y0144528D01*
X0151360Y0145995D01*
X0149748Y0147607D01*
X0115969Y0147607D01*
X0115326Y0146964D01*
X0114223Y0146507D01*
X0113030Y0146507D01*
X0111927Y0146964D01*
X0111083Y0147808D01*
X0110626Y0148910D01*
X0110626Y0150104D01*
X0111083Y0151206D01*
X0111127Y0151251D01*
X0110773Y0151605D01*
X0110316Y0152708D01*
X0110316Y0153901D01*
X0110773Y0155004D01*
X0111617Y0155848D01*
X0112719Y0156305D01*
X0113913Y0156305D01*
X0115016Y0155848D01*
X0115659Y0155205D01*
X0140457Y0155205D01*
X0140547Y0155278D01*
X0141229Y0155205D01*
X0141915Y0155205D01*
X0141928Y0155192D01*
X0146061Y0155192D01*
X0149490Y0158591D01*
X0150043Y0159144D01*
X0150048Y0159144D01*
X0150052Y0159147D01*
X0150833Y0159144D01*
X0151715Y0159144D01*
X0149893Y0160966D01*
X0149893Y0164528D01*
X0151050Y0165685D01*
X0130618Y0165685D01*
X0129976Y0166327D01*
X0129066Y0166327D01*
X0127964Y0166784D01*
X0127120Y0167628D01*
X0126663Y0168731D01*
X0126663Y0169924D01*
X0127120Y0171027D01*
X0127964Y0171871D01*
X0129066Y0172327D01*
X0130260Y0172327D01*
X0131362Y0171871D01*
X0132206Y0171027D01*
X0132663Y0169924D01*
X0132663Y0169485D01*
X0151374Y0169485D01*
X0149893Y0170966D01*
X0149893Y0174528D01*
X0150792Y0175427D01*
X0144372Y0175427D01*
X0143559Y0175415D01*
X0143546Y0175427D01*
X0143529Y0175427D01*
X0142954Y0176002D01*
X0135825Y0182917D01*
X0135808Y0182917D01*
X0135233Y0183492D01*
X0134834Y0183879D01*
X0134834Y0182880D01*
X0131053Y0182880D01*
X0131053Y0182512D01*
X0134834Y0182512D01*
X0134834Y0180490D01*
X0134711Y0180033D01*
X0134474Y0179622D01*
X0134139Y0179287D01*
X0133728Y0179050D01*
X0133271Y0178927D01*
X0131053Y0178927D01*
X0131053Y0182512D01*
X0130684Y0182512D01*
X0130684Y0178927D01*
X0128466Y0178927D01*
X0128008Y0179050D01*
X0127598Y0179287D01*
X0127310Y0179575D01*
X0126962Y0179227D01*
X0121389Y0179227D01*
X0120510Y0180106D01*
X0120510Y0185286D01*
X0121389Y0186164D01*
X0122175Y0186164D01*
X0122175Y0187699D01*
X0121053Y0187699D01*
X0120174Y0188578D01*
X0120174Y0189167D01*
X0117826Y0189167D01*
X0117470Y0188812D01*
X0117505Y0188727D01*
X0117505Y0187262D01*
X0116945Y0185909D01*
X0115909Y0184874D01*
X0114557Y0184313D01*
X0113092Y0184313D01*
X0111739Y0184874D01*
X0110704Y0185909D01*
X0110456Y0186507D01*
X0110456Y0164101D01*
X0111277Y0163281D01*
X0111837Y0161928D01*
X0111837Y0160463D01*
X0111277Y0159110D01*
X0110241Y0158075D01*
X0108888Y0157514D01*
X0107424Y0157514D01*
X0106071Y0158075D01*
X0105035Y0159110D01*
X0104475Y0160463D01*
X0104475Y0161928D01*
X0105035Y0163281D01*
X0105856Y0164101D01*
X0105856Y0272948D01*
X0111399Y0278491D01*
X0111399Y0279652D01*
X0111960Y0281005D01*
X0112995Y0282040D01*
X0114348Y0282601D01*
X0115813Y0282601D01*
X0117166Y0282040D01*
X0118201Y0281005D01*
X0118762Y0279652D01*
X0118762Y0278188D01*
X0118201Y0276835D01*
X0117166Y0275799D01*
X0115813Y0275239D01*
X0114652Y0275239D01*
X0110456Y0271042D01*
X0110456Y0189482D01*
X0110704Y0190080D01*
X0111739Y0191115D01*
X0113092Y0191676D01*
X0114557Y0191676D01*
X0114642Y0191640D01*
X0116169Y0193167D01*
X0120174Y0193167D01*
X0120174Y0193757D01*
X0121053Y0194636D01*
X0126626Y0194636D01*
X0126974Y0194288D01*
X0127262Y0194576D01*
X0127672Y0194813D01*
X0128130Y0194936D01*
X0130348Y0194936D01*
X0130348Y0191352D01*
X0130717Y0191352D01*
X0130717Y0194936D01*
X0132935Y0194936D01*
X0133393Y0194813D01*
X0133803Y0194576D01*
X0134138Y0194241D01*
X0134375Y0193831D01*
X0134498Y0193373D01*
X0134498Y0191352D01*
X0130717Y0191352D01*
X0130717Y0190983D01*
X0134498Y0190983D01*
X0134498Y0188962D01*
X0134375Y0188504D01*
X0134138Y0188094D01*
X0133803Y0187759D01*
X0133393Y0187522D01*
X0132935Y0187399D01*
X0130717Y0187399D01*
X0130717Y0190983D01*
X0130348Y0190983D01*
X0130348Y0187399D01*
X0128130Y0187399D01*
X0127672Y0187522D01*
X0127262Y0187759D01*
X0126974Y0188047D01*
X0126626Y0187699D01*
X0126175Y0187699D01*
X0126175Y0186164D01*
X0126962Y0186164D01*
X0127310Y0185817D01*
X0127598Y0186105D01*
X0128008Y0186342D01*
X0128466Y0186464D01*
X0130684Y0186464D01*
X0130684Y0182880D01*
X0131053Y0182880D01*
X0131053Y0186464D01*
X0133271Y0186464D01*
X0133728Y0186342D01*
X0134139Y0186105D01*
X0134474Y0185770D01*
X0134627Y0185505D01*
X0134624Y0185715D01*
X0134636Y0185728D01*
X0134636Y0198720D01*
X0129142Y0204380D01*
X0128421Y0204380D01*
X0127318Y0204837D01*
X0126474Y0205681D01*
X0126018Y0206783D01*
X0126018Y0207977D01*
X0126474Y0209079D01*
X0127318Y0209923D01*
X0128421Y0210380D01*
X0129614Y0210380D01*
X0129718Y0210337D01*
X0129718Y0247958D01*
X0129175Y0248501D01*
X0128718Y0249604D01*
X0128718Y0250797D01*
X0129175Y0251900D01*
X0130019Y0252744D01*
X0131121Y0253200D01*
X0132315Y0253200D01*
X0132720Y0253033D01*
X0132720Y0255484D01*
X0131872Y0255133D01*
X0130679Y0255133D01*
X0129576Y0255590D01*
X0128732Y0256434D01*
X0128275Y0257536D01*
X0128275Y0258730D01*
X0128732Y0259832D01*
X0129576Y0260676D01*
X0130679Y0261133D01*
X0131872Y0261133D01*
X0132975Y0260676D01*
X0133518Y0260133D01*
X0133758Y0260133D01*
X0135114Y0258777D01*
X0135135Y0258777D01*
X0135367Y0258546D01*
X0135367Y0259091D01*
X0131684Y0262774D01*
X0130709Y0262774D01*
X0129607Y0263231D01*
X0128763Y0264075D01*
X0128306Y0265178D01*
X0128306Y0266371D01*
X0128763Y0267474D01*
X0129607Y0268318D01*
X0130709Y0268774D01*
X0131903Y0268774D01*
X0133005Y0268318D01*
X0133849Y0267474D01*
X0134306Y0266371D01*
X0134306Y0265809D01*
X0138118Y0261997D01*
X0138118Y0263879D01*
X0131360Y0270637D01*
X0131355Y0270635D01*
X0130161Y0270635D01*
X0129059Y0271091D01*
X0128215Y0271935D01*
X0127758Y0273038D01*
X0127758Y0274231D01*
X0128215Y0275334D01*
X0129059Y0276178D01*
X0130161Y0276635D01*
X0131355Y0276635D01*
X0132458Y0276178D01*
X0133301Y0275334D01*
X0133758Y0274231D01*
X0133758Y0273896D01*
X0140947Y0266707D01*
X0142118Y0265536D01*
X0142118Y0208122D01*
X0146244Y0203997D01*
X0147415Y0202825D01*
X0147415Y0199486D01*
X0147622Y0199279D01*
X0151580Y0199279D01*
X0149893Y0200966D01*
X0149893Y0204528D01*
X0152412Y0207047D01*
X0155974Y0207047D01*
X0158493Y0204528D01*
X0158493Y0200966D01*
X0156806Y0199279D01*
X0160490Y0199279D01*
X0162721Y0197047D01*
X0165974Y0197047D01*
X0168493Y0194528D01*
X0168493Y0190966D01*
X0165974Y0188447D01*
X0162412Y0188447D01*
X0159893Y0190966D01*
X0159893Y0194219D01*
X0158833Y0195279D01*
X0157742Y0195279D01*
X0158493Y0194528D01*
X0158493Y0190966D01*
X0157144Y0189617D01*
X0158617Y0189617D01*
X0159788Y0188445D01*
X0161799Y0186435D01*
X0162412Y0187047D01*
X0165974Y0187047D01*
X0168493Y0184528D01*
X0168493Y0180966D01*
X0166954Y0179427D01*
X0168282Y0179427D01*
X0169454Y0178256D01*
X0173982Y0173728D01*
X0173982Y0173586D01*
X0175966Y0171602D01*
X0232556Y0171602D01*
X0232670Y0171716D01*
X0234221Y0171716D01*
X0234422Y0171917D01*
X0233812Y0172527D01*
X0233279Y0173814D01*
X0233279Y0175206D01*
X0233812Y0176492D01*
X0234797Y0177477D01*
X0236083Y0178010D01*
X0236408Y0178010D01*
X0237278Y0178880D01*
X0237148Y0178826D01*
X0235755Y0178826D01*
X0234469Y0179359D01*
X0233484Y0180344D01*
X0232952Y0181630D01*
X0232952Y0183022D01*
X0233484Y0184309D01*
X0233868Y0184693D01*
X0233513Y0185048D01*
X0232980Y0186334D01*
X0232980Y0186634D01*
X0232947Y0186634D01*
X0232908Y0186599D01*
X0232126Y0186634D01*
X0231342Y0186634D01*
X0231326Y0186650D01*
X0230230Y0186650D01*
X0230192Y0186615D01*
X0229409Y0186650D01*
X0228625Y0186650D01*
X0228588Y0186686D01*
X0227622Y0186729D01*
X0226838Y0186729D01*
X0226801Y0186766D01*
X0226750Y0186768D01*
X0226220Y0187346D01*
X0224974Y0188593D01*
X0224974Y0207316D01*
X0224903Y0207402D01*
X0224974Y0208130D01*
X0224974Y0208860D01*
X0225054Y0208940D01*
X0225065Y0209051D01*
X0225135Y0209109D01*
X0225135Y0210052D01*
X0225667Y0211339D01*
X0226652Y0212323D01*
X0227938Y0212856D01*
X0229331Y0212856D01*
X0230617Y0212323D01*
X0231602Y0211339D01*
X0232135Y0210052D01*
X0232135Y0208660D01*
X0231916Y0208131D01*
X0233215Y0208131D01*
X0233673Y0208009D01*
X0234084Y0207772D01*
X0234419Y0207437D01*
X0234656Y0207026D01*
X0234778Y0206568D01*
X0234778Y0204350D01*
X0231194Y0204350D01*
X0231194Y0203982D01*
X0234778Y0203982D01*
X0234778Y0201764D01*
X0234656Y0201306D01*
X0234419Y0200895D01*
X0234131Y0200607D01*
X0234478Y0200260D01*
X0234478Y0199457D01*
X0235992Y0199450D01*
X0235992Y0200247D01*
X0236340Y0200595D01*
X0236052Y0200883D01*
X0235815Y0201293D01*
X0235692Y0201751D01*
X0235692Y0203969D01*
X0239277Y0203969D01*
X0239277Y0204338D01*
X0239277Y0208119D01*
X0237255Y0208119D01*
X0236798Y0207996D01*
X0236387Y0207759D01*
X0236052Y0207424D01*
X0235815Y0207013D01*
X0235692Y0206556D01*
X0235692Y0204338D01*
X0239277Y0204338D01*
X0239645Y0204338D01*
X0239645Y0208119D01*
X0241549Y0208119D01*
X0236126Y0213542D01*
X0225632Y0213542D01*
X0223157Y0216017D01*
X0221021Y0216017D01*
X0218502Y0218536D01*
X0218502Y0222098D01*
X0221021Y0224617D01*
X0224583Y0224617D01*
X0227102Y0222098D01*
X0227102Y0218536D01*
X0226698Y0218132D01*
X0227289Y0217542D01*
X0229072Y0217542D01*
X0228202Y0218412D01*
X0228202Y0220217D01*
X0232702Y0220217D01*
X0232702Y0220417D01*
X0228202Y0220417D01*
X0228202Y0222223D01*
X0230897Y0224917D01*
X0232702Y0224917D01*
X0232702Y0220417D01*
X0232902Y0220417D01*
X0232902Y0224917D01*
X0234708Y0224917D01*
X0237402Y0222223D01*
X0237402Y0220417D01*
X0232902Y0220417D01*
X0232902Y0220217D01*
X0237402Y0220217D01*
X0237402Y0218412D01*
X0236532Y0217542D01*
X0237783Y0217542D01*
X0238955Y0216370D01*
X0245671Y0209654D01*
X0247039Y0209654D01*
X0248325Y0209121D01*
X0249310Y0208136D01*
X0249791Y0206975D01*
X0249791Y0212578D01*
X0244654Y0216430D01*
X0243658Y0216017D01*
X0241947Y0216017D01*
X0240367Y0216672D01*
X0239157Y0217882D01*
X0238502Y0219462D01*
X0238502Y0221173D01*
X0239157Y0222753D01*
X0240367Y0223963D01*
X0241947Y0224617D01*
X0243658Y0224617D01*
X0245238Y0223963D01*
X0246448Y0222753D01*
X0247102Y0221173D01*
X0247102Y0219593D01*
X0252458Y0215578D01*
X0252620Y0215578D01*
X0253105Y0215093D01*
X0253654Y0214682D01*
X0253677Y0214521D01*
X0253791Y0214407D01*
X0253791Y0213721D01*
X0253888Y0213042D01*
X0253791Y0212912D01*
X0253791Y0203733D01*
X0253889Y0203601D01*
X0253791Y0202924D01*
X0253791Y0202239D01*
X0253675Y0202124D01*
X0253652Y0201962D01*
X0253104Y0201552D01*
X0252620Y0201068D01*
X0252456Y0201068D01*
X0245602Y0195945D01*
X0245233Y0195576D01*
X0254041Y0195546D01*
X0254868Y0195546D01*
X0254871Y0195543D01*
X0254875Y0195543D01*
X0255456Y0194958D01*
X0256192Y0194221D01*
X0256192Y0194528D01*
X0258711Y0197047D01*
X0262273Y0197047D01*
X0264792Y0194528D01*
X0264792Y0190966D01*
X0262273Y0188447D01*
X0258711Y0188447D01*
X0257922Y0189237D01*
X0257922Y0186258D01*
X0258711Y0187047D01*
X0262273Y0187047D01*
X0264792Y0184528D01*
X0264792Y0180966D01*
X0262273Y0178447D01*
X0258711Y0178447D01*
X0257922Y0179237D01*
X0257922Y0176258D01*
X0258711Y0177047D01*
X0262273Y0177047D01*
X0264792Y0174528D01*
X0264792Y0170966D01*
X0263755Y0169929D01*
X0266806Y0169929D01*
X0265892Y0170842D01*
X0265892Y0172647D01*
X0270392Y0172647D01*
X0270392Y0172847D01*
X0265892Y0172847D01*
X0265892Y0174653D01*
X0268587Y0177347D01*
X0270392Y0177347D01*
X0270392Y0172847D01*
X0270592Y0172847D01*
X0270592Y0177347D01*
X0272398Y0177347D01*
X0275092Y0174653D01*
X0275092Y0172847D01*
X0270592Y0172847D01*
X0270592Y0172647D01*
X0275092Y0172647D01*
X0275092Y0170842D01*
X0274148Y0169898D01*
X0278449Y0165597D01*
X0279620Y0164425D01*
X0279620Y0085702D01*
X0257039Y0063120D01*
X0257039Y0045618D01*
X0300936Y0045618D01*
X0301814Y0044740D01*
X0301814Y0027861D01*
X0302005Y0027861D01*
X0302005Y0048353D01*
X0303205Y0049554D01*
X0319366Y0049554D01*
X0319370Y0052108D01*
X0313425Y0052108D01*
X0311925Y0052973D01*
X0311925Y0052973D01*
X0311925Y0052973D01*
X0311198Y0054233D01*
X0311060Y0054371D01*
X0311060Y0079942D01*
X0305179Y0079942D01*
X0305101Y0079864D01*
X0303402Y0079864D01*
X0302201Y0081064D01*
X0302201Y0105400D01*
X0303402Y0106601D01*
X0305101Y0106601D01*
X0306301Y0105400D01*
X0306301Y0084042D01*
X0313959Y0084042D01*
X0315160Y0082841D01*
X0315160Y0056208D01*
X0319377Y0056208D01*
X0319909Y0380648D01*
X0082551Y0379675D01*
X0082557Y0374289D01*
X0083011Y0374619D01*
X0083739Y0374990D01*
X0084517Y0375243D01*
X0085325Y0375371D01*
X0085402Y0375371D01*
X0085402Y0370507D01*
X0086066Y0370507D01*
X0090929Y0370507D01*
X0090929Y0370584D01*
X0090801Y0371392D01*
X0090549Y0372169D01*
X0090177Y0372898D01*
X0089697Y0373560D01*
X0089119Y0374138D01*
X0088457Y0374619D01*
X0087728Y0374990D01*
X0086950Y0375243D01*
X0086143Y0375371D01*
X0086066Y0375371D01*
X0086066Y0370507D01*
X0086066Y0369843D01*
X0090929Y0369843D01*
X0090929Y0369766D01*
X0090801Y0368958D01*
X0090549Y0368181D01*
X0090177Y0367452D01*
X0089697Y0366790D01*
X0089119Y0366212D01*
X0088457Y0365731D01*
X0087728Y0365360D01*
X0086950Y0365107D01*
X0086143Y0364979D01*
X0086066Y0364979D01*
X0086066Y0369843D01*
X0085402Y0369843D01*
X0085402Y0364979D01*
X0085325Y0364979D01*
X0084517Y0365107D01*
X0083739Y0365360D01*
X0083011Y0365731D01*
X0082567Y0366054D01*
X0082590Y0345986D01*
X0083011Y0346292D01*
X0083739Y0346663D01*
X0084517Y0346916D01*
X0085325Y0347044D01*
X0085402Y0347044D01*
X0085402Y0342180D01*
X0086066Y0342180D01*
X0090929Y0342180D01*
X0090929Y0342257D01*
X0090801Y0343065D01*
X0090549Y0343843D01*
X0090177Y0344571D01*
X0089697Y0345233D01*
X0089119Y0345811D01*
X0088457Y0346292D01*
X0087728Y0346663D01*
X0086950Y0346916D01*
X0086143Y0347044D01*
X0086066Y0347044D01*
X0086066Y0342180D01*
X0086066Y0341516D01*
X0090929Y0341516D01*
X0090929Y0341439D01*
X0090801Y0340632D01*
X0090549Y0339854D01*
X0090177Y0339125D01*
X0089697Y0338463D01*
X0089119Y0337885D01*
X0088457Y0337405D01*
X0087728Y0337033D01*
X0086950Y0336781D01*
X0086143Y0336653D01*
X0086066Y0336653D01*
X0086066Y0341516D01*
X0085402Y0341516D01*
X0085402Y0336653D01*
X0085325Y0336653D01*
X0084517Y0336781D01*
X0083739Y0337033D01*
X0083011Y0337405D01*
X0082600Y0337703D01*
X0082931Y0056404D01*
X0086650Y0056404D01*
X0086650Y0083235D01*
X0087851Y0084436D01*
X0095509Y0084436D01*
X0095509Y0105400D01*
X0096709Y0106601D01*
X0098408Y0106601D01*
X0099608Y0105400D01*
X0099608Y0081537D01*
X0098408Y0080336D01*
X0090750Y0080336D01*
X0090750Y0054670D01*
X0089884Y0053170D01*
X0089884Y0053170D01*
X0088811Y0052551D01*
X0088565Y0052305D01*
X0082935Y0052305D01*
X0082936Y0051493D02*
X0200460Y0051493D01*
X0200036Y0049895D02*
X0082938Y0049895D01*
X0089748Y0053092D02*
X0217984Y0053092D01*
X0218393Y0051493D02*
X0212965Y0051493D01*
X0213388Y0049895D02*
X0218393Y0049895D01*
X0218393Y0048296D02*
X0213388Y0048296D01*
X0213388Y0046698D02*
X0218393Y0046698D01*
X0225515Y0046698D02*
X0253039Y0046698D01*
X0253039Y0045618D02*
X0250087Y0045618D01*
X0225515Y0045618D01*
X0225515Y0058656D01*
X0224344Y0059828D01*
X0224344Y0059828D01*
X0206995Y0077177D01*
X0205823Y0078349D01*
X0158064Y0078349D01*
X0158363Y0078648D01*
X0158363Y0083827D01*
X0157485Y0084706D01*
X0156698Y0084706D01*
X0156698Y0085173D01*
X0156988Y0085173D01*
X0158274Y0085705D01*
X0159259Y0086690D01*
X0159791Y0087976D01*
X0159791Y0089290D01*
X0172044Y0101223D01*
X0227921Y0101223D01*
X0228888Y0100256D01*
X0230174Y0099723D01*
X0231567Y0099723D01*
X0232853Y0100256D01*
X0233838Y0101241D01*
X0233847Y0101263D01*
X0258747Y0101596D01*
X0259562Y0101596D01*
X0259573Y0101608D01*
X0259589Y0101608D01*
X0260157Y0102192D01*
X0264240Y0106275D01*
X0265412Y0107446D01*
X0265412Y0108005D01*
X0266159Y0108005D01*
X0267037Y0108883D01*
X0267037Y0114063D01*
X0266159Y0114942D01*
X0265372Y0114942D01*
X0265372Y0116284D01*
X0266199Y0116284D01*
X0267077Y0117163D01*
X0267077Y0120590D01*
X0267366Y0120878D01*
X0267366Y0129793D01*
X0268711Y0128447D01*
X0272273Y0128447D01*
X0274792Y0130966D01*
X0274792Y0134528D01*
X0272273Y0137047D01*
X0268711Y0137047D01*
X0267366Y0135702D01*
X0267366Y0139793D01*
X0268711Y0138447D01*
X0272273Y0138447D01*
X0274792Y0140966D01*
X0274792Y0144528D01*
X0272273Y0147047D01*
X0268711Y0147047D01*
X0267366Y0145702D01*
X0267366Y0149368D01*
X0268587Y0148147D01*
X0270392Y0148147D01*
X0270392Y0152647D01*
X0270592Y0152647D01*
X0270592Y0148147D01*
X0272398Y0148147D01*
X0275092Y0150842D01*
X0275092Y0152647D01*
X0270592Y0152647D01*
X0270592Y0152847D01*
X0270392Y0152847D01*
X0270392Y0157347D01*
X0268587Y0157347D01*
X0267366Y0156126D01*
X0267366Y0158702D01*
X0264792Y0161276D01*
X0264792Y0164528D01*
X0263392Y0165929D01*
X0267168Y0165929D01*
X0265892Y0164653D01*
X0265892Y0162847D01*
X0270392Y0162847D01*
X0270392Y0162647D01*
X0270592Y0162647D01*
X0270592Y0158147D01*
X0272398Y0158147D01*
X0275092Y0160842D01*
X0275092Y0162647D01*
X0270592Y0162647D01*
X0270592Y0162847D01*
X0275092Y0162847D01*
X0275092Y0163297D01*
X0275620Y0162768D01*
X0275620Y0087359D01*
X0254210Y0065948D01*
X0253039Y0064777D01*
X0253039Y0045618D01*
X0253039Y0048296D02*
X0225515Y0048296D01*
X0225515Y0049895D02*
X0253039Y0049895D01*
X0253039Y0051493D02*
X0225515Y0051493D01*
X0225515Y0053092D02*
X0253039Y0053092D01*
X0253039Y0054690D02*
X0225515Y0054690D01*
X0225515Y0056289D02*
X0253039Y0056289D01*
X0253039Y0057887D02*
X0225515Y0057887D01*
X0224686Y0059486D02*
X0253039Y0059486D01*
X0253039Y0061084D02*
X0223087Y0061084D01*
X0221489Y0062683D02*
X0253039Y0062683D01*
X0253039Y0064281D02*
X0219890Y0064281D01*
X0218292Y0065880D02*
X0254142Y0065880D01*
X0255740Y0067478D02*
X0216693Y0067478D01*
X0215095Y0069077D02*
X0257339Y0069077D01*
X0258937Y0070675D02*
X0213496Y0070675D01*
X0211898Y0072274D02*
X0260536Y0072274D01*
X0262134Y0073872D02*
X0210299Y0073872D01*
X0208701Y0075471D02*
X0263733Y0075471D01*
X0265331Y0077069D02*
X0207102Y0077069D01*
X0206995Y0077177D02*
X0206995Y0077177D01*
X0204642Y0073872D02*
X0145055Y0073872D01*
X0143457Y0075471D02*
X0148985Y0075471D01*
X0147387Y0077069D02*
X0141858Y0077069D01*
X0144340Y0078668D02*
X0123613Y0078668D01*
X0122014Y0080266D02*
X0144340Y0080266D01*
X0144340Y0081865D02*
X0128620Y0081865D01*
X0129168Y0083463D02*
X0144340Y0083463D01*
X0146005Y0085062D02*
X0129168Y0085062D01*
X0129168Y0086661D02*
X0146005Y0086661D01*
X0146005Y0088259D02*
X0128501Y0088259D01*
X0127502Y0089858D02*
X0146005Y0089858D01*
X0146005Y0091456D02*
X0127502Y0091456D01*
X0127502Y0093055D02*
X0146005Y0093055D01*
X0146005Y0094653D02*
X0127502Y0094653D01*
X0127502Y0096252D02*
X0146005Y0096252D01*
X0146005Y0097850D02*
X0127502Y0097850D01*
X0127502Y0099449D02*
X0146005Y0099449D01*
X0146005Y0101047D02*
X0127502Y0101047D01*
X0127502Y0102646D02*
X0146005Y0102646D01*
X0146005Y0104244D02*
X0127502Y0104244D01*
X0127502Y0105843D02*
X0146005Y0105843D01*
X0146005Y0107441D02*
X0127502Y0107441D01*
X0127502Y0109040D02*
X0146005Y0109040D01*
X0146005Y0110638D02*
X0127502Y0110638D01*
X0127502Y0112237D02*
X0146005Y0112237D01*
X0146005Y0113835D02*
X0127502Y0113835D01*
X0127502Y0115434D02*
X0146005Y0115434D01*
X0146005Y0117032D02*
X0127502Y0117032D01*
X0128102Y0118631D02*
X0146005Y0118631D01*
X0146005Y0120229D02*
X0129700Y0120229D01*
X0131299Y0121828D02*
X0146005Y0121828D01*
X0146005Y0123426D02*
X0132897Y0123426D01*
X0134496Y0125025D02*
X0146005Y0125025D01*
X0146005Y0126623D02*
X0136094Y0126623D01*
X0133635Y0129820D02*
X0130553Y0129820D01*
X0132036Y0128222D02*
X0128683Y0128222D01*
X0130438Y0126623D02*
X0126813Y0126623D01*
X0124943Y0125025D02*
X0128839Y0125025D01*
X0127241Y0123426D02*
X0123073Y0123426D01*
X0121203Y0121828D02*
X0125642Y0121828D01*
X0124044Y0120229D02*
X0120728Y0120229D01*
X0120731Y0118631D02*
X0123502Y0118631D01*
X0123502Y0117032D02*
X0120735Y0117032D01*
X0120739Y0115434D02*
X0123502Y0115434D01*
X0123502Y0113835D02*
X0120742Y0113835D01*
X0120746Y0112237D02*
X0123502Y0112237D01*
X0123502Y0110638D02*
X0120750Y0110638D01*
X0120754Y0109040D02*
X0123502Y0109040D01*
X0123502Y0107441D02*
X0120757Y0107441D01*
X0120761Y0105843D02*
X0123502Y0105843D01*
X0123502Y0104244D02*
X0120765Y0104244D01*
X0120768Y0102646D02*
X0123502Y0102646D01*
X0123502Y0101047D02*
X0120772Y0101047D01*
X0120776Y0099449D02*
X0123502Y0099449D01*
X0123502Y0097850D02*
X0120780Y0097850D01*
X0120783Y0096252D02*
X0123502Y0096252D01*
X0123502Y0094653D02*
X0120787Y0094653D01*
X0120791Y0093055D02*
X0123502Y0093055D01*
X0123502Y0091456D02*
X0120794Y0091456D01*
X0120798Y0089858D02*
X0123502Y0089858D01*
X0122503Y0088259D02*
X0121808Y0088259D01*
X0116798Y0089858D02*
X0099608Y0089858D01*
X0099608Y0091456D02*
X0116794Y0091456D01*
X0116791Y0093055D02*
X0099608Y0093055D01*
X0099608Y0094653D02*
X0116787Y0094653D01*
X0116783Y0096252D02*
X0099608Y0096252D01*
X0099608Y0097850D02*
X0116780Y0097850D01*
X0116776Y0099449D02*
X0099608Y0099449D01*
X0099608Y0101047D02*
X0116772Y0101047D01*
X0116768Y0102646D02*
X0099608Y0102646D01*
X0099608Y0104244D02*
X0116765Y0104244D01*
X0116761Y0105843D02*
X0099166Y0105843D01*
X0095951Y0105843D02*
X0082872Y0105843D01*
X0082871Y0107441D02*
X0116757Y0107441D01*
X0116754Y0109040D02*
X0082869Y0109040D01*
X0082867Y0110638D02*
X0116750Y0110638D01*
X0116746Y0112237D02*
X0082865Y0112237D01*
X0082863Y0113835D02*
X0116742Y0113835D01*
X0116739Y0115434D02*
X0082861Y0115434D01*
X0082859Y0117032D02*
X0116735Y0117032D01*
X0116731Y0118631D02*
X0082857Y0118631D01*
X0082856Y0120229D02*
X0116728Y0120229D01*
X0116677Y0121828D02*
X0082854Y0121828D01*
X0082852Y0123426D02*
X0116917Y0123426D01*
X0118787Y0125025D02*
X0082850Y0125025D01*
X0082848Y0126623D02*
X0120657Y0126623D01*
X0122527Y0128222D02*
X0082846Y0128222D01*
X0082844Y0129820D02*
X0124397Y0129820D01*
X0126267Y0131419D02*
X0082842Y0131419D01*
X0082841Y0133017D02*
X0128137Y0133017D01*
X0130007Y0134616D02*
X0082839Y0134616D01*
X0082837Y0136214D02*
X0131877Y0136214D01*
X0133747Y0137813D02*
X0082835Y0137813D01*
X0082833Y0139411D02*
X0135616Y0139411D01*
X0137486Y0141010D02*
X0082831Y0141010D01*
X0082829Y0142608D02*
X0139356Y0142608D01*
X0140479Y0144207D02*
X0082827Y0144207D01*
X0082826Y0145805D02*
X0140968Y0145805D01*
X0143222Y0147404D02*
X0115766Y0147404D01*
X0111487Y0147404D02*
X0082824Y0147404D01*
X0082822Y0149002D02*
X0110626Y0149002D01*
X0110832Y0150601D02*
X0082820Y0150601D01*
X0082818Y0152199D02*
X0110527Y0152199D01*
X0110316Y0153798D02*
X0082816Y0153798D01*
X0082814Y0155397D02*
X0111165Y0155397D01*
X0110760Y0158594D02*
X0149493Y0158594D01*
X0150667Y0160192D02*
X0111725Y0160192D01*
X0111837Y0161791D02*
X0149893Y0161791D01*
X0149893Y0163389D02*
X0111168Y0163389D01*
X0110456Y0164988D02*
X0150352Y0164988D01*
X0151076Y0169783D02*
X0132663Y0169783D01*
X0131851Y0171382D02*
X0149893Y0171382D01*
X0149893Y0172980D02*
X0110456Y0172980D01*
X0110456Y0171382D02*
X0127475Y0171382D01*
X0126663Y0169783D02*
X0110456Y0169783D01*
X0110456Y0168185D02*
X0126889Y0168185D01*
X0128441Y0166586D02*
X0110456Y0166586D01*
X0105856Y0166586D02*
X0082801Y0166586D01*
X0082803Y0164988D02*
X0105856Y0164988D01*
X0105144Y0163389D02*
X0082805Y0163389D01*
X0082807Y0161791D02*
X0104475Y0161791D01*
X0104587Y0160192D02*
X0082809Y0160192D01*
X0082810Y0158594D02*
X0105552Y0158594D01*
X0108156Y0161195D02*
X0108156Y0271995D01*
X0115081Y0278920D01*
X0117527Y0281679D02*
X0142706Y0281679D01*
X0142948Y0281437D02*
X0144301Y0280877D01*
X0145765Y0280877D01*
X0147118Y0281437D01*
X0147497Y0281816D01*
X0177296Y0281816D01*
X0184441Y0274672D01*
X0184441Y0266623D01*
X0183654Y0266623D01*
X0183094Y0266063D01*
X0182534Y0266623D01*
X0176961Y0266623D01*
X0176082Y0265745D01*
X0176082Y0265389D01*
X0175806Y0265665D01*
X0174520Y0266198D01*
X0173128Y0266198D01*
X0171841Y0265665D01*
X0170857Y0264681D01*
X0170324Y0263394D01*
X0170324Y0262002D01*
X0170857Y0260716D01*
X0170958Y0260615D01*
X0170426Y0260083D01*
X0169239Y0258896D01*
X0169239Y0263873D01*
X0168892Y0264220D01*
X0169180Y0264508D01*
X0169417Y0264919D01*
X0169539Y0265377D01*
X0169539Y0267595D01*
X0165955Y0267595D01*
X0165955Y0267963D01*
X0169539Y0267963D01*
X0169539Y0270181D01*
X0169417Y0270639D01*
X0169180Y0271049D01*
X0168845Y0271385D01*
X0168674Y0271483D01*
X0169982Y0272792D01*
X0169982Y0274419D01*
X0170949Y0275386D01*
X0171482Y0276673D01*
X0171482Y0278065D01*
X0170949Y0279351D01*
X0169965Y0280336D01*
X0168678Y0280869D01*
X0167286Y0280869D01*
X0166000Y0280336D01*
X0165015Y0279351D01*
X0164482Y0278065D01*
X0164482Y0276673D01*
X0165015Y0275386D01*
X0165967Y0274434D01*
X0165579Y0274045D01*
X0153771Y0274086D01*
X0153718Y0274213D01*
X0152734Y0275198D01*
X0151447Y0275731D01*
X0150055Y0275731D01*
X0148768Y0275198D01*
X0147784Y0274213D01*
X0147251Y0272927D01*
X0147251Y0271535D01*
X0147784Y0270248D01*
X0148768Y0269264D01*
X0150055Y0268731D01*
X0151447Y0268731D01*
X0152734Y0269264D01*
X0153557Y0270087D01*
X0153929Y0270086D01*
X0153929Y0267954D01*
X0157513Y0267954D01*
X0157513Y0267586D01*
X0153929Y0267586D01*
X0153929Y0265368D01*
X0154052Y0264910D01*
X0154289Y0264499D01*
X0154577Y0264211D01*
X0154229Y0263864D01*
X0154229Y0258618D01*
X0154013Y0258187D01*
X0153924Y0258277D01*
X0152638Y0258809D01*
X0151245Y0258809D01*
X0149959Y0258277D01*
X0148974Y0257292D01*
X0148441Y0256006D01*
X0148441Y0254613D01*
X0148974Y0253327D01*
X0149959Y0252342D01*
X0151245Y0251809D01*
X0152638Y0251809D01*
X0153924Y0252342D01*
X0154909Y0253327D01*
X0155234Y0254111D01*
X0155854Y0254318D01*
X0156603Y0254525D01*
X0156632Y0254577D01*
X0156688Y0254595D01*
X0157036Y0255291D01*
X0157419Y0255967D01*
X0157404Y0256024D01*
X0158099Y0257412D01*
X0160287Y0257412D01*
X0161166Y0258290D01*
X0161166Y0259077D01*
X0162302Y0259077D01*
X0162302Y0258299D01*
X0163181Y0257421D01*
X0167764Y0257421D01*
X0165111Y0254768D01*
X0165111Y0254662D01*
X0164421Y0254662D01*
X0163543Y0253783D01*
X0163543Y0252879D01*
X0163330Y0252866D01*
X0162536Y0253660D01*
X0161250Y0254192D01*
X0159857Y0254192D01*
X0158571Y0253660D01*
X0157586Y0252675D01*
X0157053Y0251389D01*
X0157053Y0249996D01*
X0157586Y0248710D01*
X0158571Y0247725D01*
X0159857Y0247192D01*
X0161250Y0247192D01*
X0162536Y0247725D01*
X0163521Y0248710D01*
X0163543Y0248763D01*
X0163543Y0248210D01*
X0163890Y0247862D01*
X0163602Y0247574D01*
X0163365Y0247164D01*
X0163243Y0246706D01*
X0163243Y0244488D01*
X0166827Y0244488D01*
X0166827Y0244119D01*
X0167195Y0244119D01*
X0167195Y0240338D01*
X0169217Y0240338D01*
X0169674Y0240461D01*
X0170085Y0240698D01*
X0170420Y0241033D01*
X0170657Y0241444D01*
X0170780Y0241901D01*
X0170780Y0244119D01*
X0167196Y0244119D01*
X0167196Y0244488D01*
X0170780Y0244488D01*
X0170780Y0246706D01*
X0170657Y0247164D01*
X0170420Y0247574D01*
X0170132Y0247862D01*
X0170480Y0248210D01*
X0170480Y0253783D01*
X0169990Y0254273D01*
X0172271Y0256554D01*
X0172271Y0255382D01*
X0172785Y0254141D01*
X0171922Y0253279D01*
X0171389Y0251992D01*
X0171389Y0250600D01*
X0171922Y0249314D01*
X0172907Y0248329D01*
X0174193Y0247796D01*
X0175586Y0247796D01*
X0176389Y0248129D01*
X0176359Y0248099D01*
X0176359Y0243053D01*
X0171721Y0238414D01*
X0170353Y0238414D01*
X0169067Y0237881D01*
X0168082Y0236897D01*
X0167549Y0235610D01*
X0167549Y0234218D01*
X0168082Y0232932D01*
X0169067Y0231947D01*
X0170353Y0231414D01*
X0171745Y0231414D01*
X0173032Y0231947D01*
X0174016Y0232932D01*
X0174549Y0234218D01*
X0174549Y0235586D01*
X0180359Y0241396D01*
X0180359Y0246442D01*
X0181444Y0247527D01*
X0181473Y0247527D01*
X0181031Y0246458D01*
X0181031Y0245065D01*
X0181564Y0243779D01*
X0182548Y0242795D01*
X0183834Y0242262D01*
X0185227Y0242262D01*
X0186513Y0242795D01*
X0187480Y0243762D01*
X0188325Y0243762D01*
X0190373Y0242544D01*
X0189718Y0242273D01*
X0188733Y0241288D01*
X0188200Y0240002D01*
X0188200Y0238609D01*
X0188220Y0238563D01*
X0184274Y0234617D01*
X0181021Y0234617D01*
X0178502Y0232098D01*
X0178502Y0228536D01*
X0178815Y0228223D01*
X0170709Y0228223D01*
X0166224Y0232555D01*
X0166224Y0233851D01*
X0165691Y0235137D01*
X0164707Y0236122D01*
X0163420Y0236655D01*
X0162028Y0236655D01*
X0160742Y0236122D01*
X0160272Y0235653D01*
X0160213Y0235796D01*
X0159177Y0236832D01*
X0157824Y0237392D01*
X0156360Y0237392D01*
X0155007Y0236832D01*
X0153971Y0235796D01*
X0153411Y0234444D01*
X0153411Y0232979D01*
X0153971Y0231626D01*
X0155007Y0230591D01*
X0156360Y0230030D01*
X0156922Y0230030D01*
X0160457Y0223962D01*
X0160456Y0223675D01*
X0160859Y0223271D01*
X0161146Y0222778D01*
X0161424Y0222705D01*
X0161626Y0222502D01*
X0162197Y0222501D01*
X0162748Y0222356D01*
X0162996Y0222500D01*
X0178883Y0222480D01*
X0178502Y0222098D01*
X0178502Y0218536D01*
X0181021Y0216017D01*
X0184583Y0216017D01*
X0187102Y0218536D01*
X0187102Y0222098D01*
X0186731Y0222469D01*
X0188870Y0222467D01*
X0188502Y0222098D01*
X0188502Y0218536D01*
X0190583Y0216456D01*
X0190411Y0216042D01*
X0189771Y0215401D01*
X0188934Y0215054D01*
X0188481Y0215010D01*
X0187061Y0215010D01*
X0184360Y0214132D01*
X0184360Y0214132D01*
X0182062Y0212463D01*
X0182062Y0212463D01*
X0182062Y0212463D01*
X0180393Y0210165D01*
X0180093Y0209244D01*
X0179532Y0209011D01*
X0178548Y0208027D01*
X0178015Y0206740D01*
X0178015Y0205348D01*
X0178548Y0204061D01*
X0179532Y0203077D01*
X0180819Y0202544D01*
X0182211Y0202544D01*
X0183498Y0203077D01*
X0184482Y0204061D01*
X0185015Y0205348D01*
X0185015Y0206740D01*
X0184482Y0208027D01*
X0184121Y0208388D01*
X0184969Y0209555D01*
X0186226Y0210469D01*
X0187704Y0210949D01*
X0188481Y0211010D01*
X0189738Y0211010D01*
X0192062Y0211972D01*
X0193840Y0213750D01*
X0193840Y0213750D01*
X0194802Y0216074D01*
X0194802Y0216236D01*
X0197102Y0218536D01*
X0197102Y0222098D01*
X0196744Y0222456D01*
X0197950Y0222455D01*
X0198502Y0221884D01*
X0198502Y0218536D01*
X0201021Y0216017D01*
X0204583Y0216017D01*
X0207102Y0218536D01*
X0207102Y0222098D01*
X0204583Y0224617D01*
X0201423Y0224617D01*
X0200799Y0225262D01*
X0200799Y0225279D01*
X0200617Y0225462D01*
X0201197Y0226017D01*
X0204583Y0226017D01*
X0206072Y0227506D01*
X0206072Y0226506D01*
X0207244Y0225334D01*
X0209491Y0223087D01*
X0208502Y0222098D01*
X0208502Y0218536D01*
X0211021Y0216017D01*
X0214583Y0216017D01*
X0217102Y0218536D01*
X0217102Y0222098D01*
X0214583Y0224617D01*
X0213618Y0224617D01*
X0212218Y0226017D01*
X0214583Y0226017D01*
X0217102Y0228536D01*
X0217102Y0232098D01*
X0214583Y0234617D01*
X0211021Y0234617D01*
X0210072Y0233668D01*
X0210072Y0238449D01*
X0199125Y0249396D01*
X0204794Y0249396D01*
X0205792Y0248398D01*
X0207145Y0247838D01*
X0208609Y0247838D01*
X0208695Y0247873D01*
X0210177Y0246391D01*
X0211763Y0246391D01*
X0211763Y0245604D01*
X0212642Y0244725D01*
X0217821Y0244725D01*
X0218578Y0245482D01*
X0219335Y0244725D01*
X0224514Y0244725D01*
X0225393Y0245604D01*
X0225393Y0245678D01*
X0228706Y0245678D01*
X0240394Y0233990D01*
X0238502Y0232098D01*
X0238502Y0228536D01*
X0241021Y0226017D01*
X0244583Y0226017D01*
X0247102Y0228536D01*
X0247102Y0232098D01*
X0244802Y0234398D01*
X0244802Y0235238D01*
X0231534Y0248506D01*
X0231534Y0248506D01*
X0230363Y0249678D01*
X0225393Y0249678D01*
X0225393Y0251177D01*
X0224514Y0252056D01*
X0221088Y0252056D01*
X0207989Y0265155D01*
X0190106Y0265155D01*
X0190106Y0265745D01*
X0189227Y0266623D01*
X0188441Y0266623D01*
X0188441Y0274672D01*
X0192622Y0278853D01*
X0192622Y0292877D01*
X0192522Y0292977D01*
X0192522Y0293971D01*
X0187547Y0298947D01*
X0186434Y0300060D01*
X0182443Y0300060D01*
X0180319Y0302184D01*
X0185683Y0307548D01*
X0186854Y0308719D01*
X0186854Y0312789D01*
X0187614Y0312789D01*
X0188492Y0313667D01*
X0188492Y0318847D01*
X0187736Y0319604D01*
X0188492Y0320360D01*
X0188492Y0325540D01*
X0187614Y0326419D01*
X0182040Y0326419D01*
X0181239Y0325617D01*
X0180893Y0325964D01*
X0181061Y0326371D01*
X0181061Y0328062D01*
X0180414Y0329624D01*
X0179219Y0330819D01*
X0177657Y0331466D01*
X0175966Y0331466D01*
X0174404Y0330819D01*
X0173209Y0329624D01*
X0172562Y0328062D01*
X0172562Y0326371D01*
X0173209Y0324809D01*
X0174404Y0323613D01*
X0175966Y0322966D01*
X0177657Y0322966D01*
X0178064Y0323135D01*
X0180855Y0320345D01*
X0181139Y0319854D01*
X0181420Y0319779D01*
X0181625Y0319574D01*
X0181889Y0319574D01*
X0181162Y0318847D01*
X0181162Y0313667D01*
X0182040Y0312789D01*
X0182854Y0312789D01*
X0182854Y0310376D01*
X0180180Y0307702D01*
X0180180Y0312583D01*
X0179302Y0313462D01*
X0178394Y0313462D01*
X0175893Y0315964D01*
X0176061Y0316371D01*
X0176061Y0318062D01*
X0175414Y0319624D01*
X0174219Y0320819D01*
X0172657Y0321466D01*
X0170966Y0321466D01*
X0169404Y0320819D01*
X0168209Y0319624D01*
X0167562Y0318062D01*
X0167562Y0316371D01*
X0168209Y0314809D01*
X0169404Y0313613D01*
X0170966Y0312966D01*
X0172657Y0312966D01*
X0173064Y0313135D01*
X0173233Y0312967D01*
X0172850Y0312583D01*
X0172850Y0309794D01*
X0166061Y0316582D01*
X0166061Y0318062D01*
X0165414Y0319624D01*
X0164219Y0320819D01*
X0162657Y0321466D01*
X0160966Y0321466D01*
X0160559Y0321298D01*
X0158811Y0323045D01*
X0158811Y0323445D01*
X0159219Y0323613D01*
X0160414Y0324809D01*
X0161061Y0326371D01*
X0161061Y0328062D01*
X0160893Y0328469D01*
X0163599Y0331176D01*
X0163599Y0340242D01*
X0164386Y0340242D01*
X0165265Y0341120D01*
X0165265Y0341710D01*
X0167223Y0341710D01*
X0167223Y0338041D01*
X0167979Y0337284D01*
X0167223Y0336528D01*
X0167223Y0331466D01*
X0165966Y0331466D01*
X0164404Y0330819D01*
X0163209Y0329624D01*
X0162562Y0328062D01*
X0162562Y0326371D01*
X0163209Y0324809D01*
X0164404Y0323613D01*
X0165966Y0322966D01*
X0167657Y0322966D01*
X0169219Y0323613D01*
X0170414Y0324809D01*
X0171061Y0326371D01*
X0171061Y0328062D01*
X0170893Y0328469D01*
X0171716Y0329293D01*
X0171716Y0329293D01*
X0172888Y0330464D01*
X0172888Y0330469D01*
X0173675Y0330469D01*
X0174553Y0331348D01*
X0174553Y0336528D01*
X0173797Y0337284D01*
X0174553Y0338041D01*
X0174553Y0343221D01*
X0173675Y0344099D01*
X0172570Y0344099D01*
X0172570Y0344539D01*
X0172486Y0344622D01*
X0172474Y0344740D01*
X0171911Y0345197D01*
X0171398Y0345710D01*
X0171280Y0345710D01*
X0171189Y0345785D01*
X0170467Y0345710D01*
X0165265Y0345710D01*
X0165265Y0346300D01*
X0164508Y0347057D01*
X0165265Y0347813D01*
X0165265Y0348403D01*
X0167507Y0348403D01*
X0174263Y0355160D01*
X0173712Y0353828D01*
X0173712Y0350605D01*
X0174945Y0347628D01*
X0177223Y0345350D01*
X0180200Y0344116D01*
X0183423Y0344116D01*
X0186145Y0345244D01*
X0186000Y0345133D01*
X0185395Y0344528D01*
X0184875Y0343849D01*
X0184447Y0343108D01*
X0184120Y0342318D01*
X0183898Y0341492D01*
X0183832Y0340991D01*
X0189536Y0340991D01*
X0189536Y0339441D01*
X0183832Y0339441D01*
X0183898Y0338941D01*
X0184120Y0338114D01*
X0184447Y0337324D01*
X0184875Y0336583D01*
X0185395Y0335905D01*
X0186000Y0335300D01*
X0186679Y0334779D01*
X0187419Y0334352D01*
X0188210Y0334024D01*
X0189036Y0333803D01*
X0189536Y0333737D01*
X0189536Y0339441D01*
X0191087Y0339441D01*
X0191087Y0340991D01*
X0196791Y0340991D01*
X0196725Y0341492D01*
X0196503Y0342318D01*
X0196176Y0343108D01*
X0195748Y0343849D01*
X0195228Y0344528D01*
X0194623Y0345133D01*
X0193944Y0345653D01*
X0193204Y0346081D01*
X0192413Y0346408D01*
X0191587Y0346630D01*
X0191087Y0346696D01*
X0191087Y0340991D01*
X0189536Y0340991D01*
X0189536Y0346696D01*
X0189036Y0346630D01*
X0188210Y0346408D01*
X0187419Y0346081D01*
X0186738Y0345687D01*
X0188678Y0347628D01*
X0189911Y0350605D01*
X0189911Y0353828D01*
X0188678Y0356805D01*
X0186400Y0359083D01*
X0183423Y0360316D01*
X0180805Y0360316D01*
X0184963Y0364474D01*
X0186134Y0365646D01*
X0186134Y0367442D01*
X0186761Y0367701D01*
X0188026Y0368967D01*
X0188711Y0370621D01*
X0188711Y0372411D01*
X0188026Y0374065D01*
X0186761Y0375331D01*
X0185107Y0376016D01*
X0183316Y0376016D01*
X0181662Y0375331D01*
X0180397Y0374065D01*
X0179712Y0372411D01*
X0179712Y0370621D01*
X0180397Y0368967D01*
X0181662Y0367701D01*
X0182134Y0367506D01*
X0182134Y0367303D01*
X0178187Y0363356D01*
X0178711Y0364621D01*
X0178711Y0366411D01*
X0178026Y0368065D01*
X0176761Y0369331D01*
X0175107Y0370016D01*
X0173316Y0370016D01*
X0171662Y0369331D01*
X0170397Y0368065D01*
X0170269Y0367758D01*
X0166075Y0367758D01*
X0166075Y0368348D01*
X0165196Y0369226D01*
X0159623Y0369226D01*
X0158744Y0368348D01*
X0158744Y0363168D01*
X0159329Y0362583D01*
X0159139Y0362474D01*
X0158804Y0362139D01*
X0158567Y0361728D01*
X0158444Y0361270D01*
X0158444Y0359249D01*
X0162225Y0359249D01*
X0162225Y0358881D01*
X0158444Y0358881D01*
X0158444Y0356859D01*
X0158567Y0356402D01*
X0158804Y0355991D01*
X0159139Y0355656D01*
X0159549Y0355419D01*
X0160007Y0355296D01*
X0162225Y0355296D01*
X0162225Y0358880D01*
X0162594Y0358880D01*
X0162594Y0355296D01*
X0164812Y0355296D01*
X0165270Y0355419D01*
X0165680Y0355656D01*
X0166015Y0355991D01*
X0166252Y0356402D01*
X0166375Y0356859D01*
X0166375Y0358881D01*
X0162594Y0358881D01*
X0162594Y0359249D01*
X0166375Y0359249D01*
X0166375Y0361270D01*
X0166252Y0361728D01*
X0166015Y0362139D01*
X0165680Y0362474D01*
X0165490Y0362583D01*
X0166075Y0363168D01*
X0166075Y0363758D01*
X0170069Y0363758D01*
X0170397Y0362967D01*
X0171662Y0361701D01*
X0173316Y0361016D01*
X0174463Y0361016D01*
X0173510Y0360063D01*
X0165850Y0352403D01*
X0165265Y0352403D01*
X0165265Y0352993D01*
X0164386Y0353872D01*
X0158813Y0353872D01*
X0157934Y0352993D01*
X0157934Y0347813D01*
X0158690Y0347057D01*
X0158263Y0346630D01*
X0152658Y0346630D01*
X0152658Y0347219D01*
X0151901Y0347976D01*
X0152658Y0348733D01*
X0152658Y0353912D01*
X0151779Y0354791D01*
X0150992Y0354791D01*
X0150992Y0367764D01*
X0148684Y0370072D01*
X0148911Y0370621D01*
X0148911Y0372411D01*
X0148226Y0374065D01*
X0146961Y0375331D01*
X0145307Y0376016D01*
X0143516Y0376016D01*
X0141862Y0375331D01*
X0140597Y0374065D01*
X0139912Y0372411D01*
X0139912Y0370621D01*
X0140597Y0368967D01*
X0141862Y0367701D01*
X0143516Y0367016D01*
X0145307Y0367016D01*
X0145856Y0367244D01*
X0146992Y0366107D01*
X0146992Y0354791D01*
X0146206Y0354791D01*
X0145327Y0353912D01*
X0145327Y0348733D01*
X0146084Y0347976D01*
X0145327Y0347219D01*
X0145327Y0342040D01*
X0146206Y0341161D01*
X0151779Y0341161D01*
X0152658Y0342040D01*
X0152658Y0342630D01*
X0157934Y0342630D01*
X0157934Y0341120D01*
X0158813Y0340242D01*
X0159599Y0340242D01*
X0159599Y0332832D01*
X0158064Y0331298D01*
X0157657Y0331466D01*
X0155966Y0331466D01*
X0154404Y0330819D01*
X0153209Y0329624D01*
X0152562Y0328062D01*
X0152562Y0326371D01*
X0153209Y0324809D01*
X0154404Y0323613D01*
X0154812Y0323445D01*
X0154812Y0321388D01*
X0157730Y0318469D01*
X0157562Y0318062D01*
X0157562Y0317607D01*
X0156811Y0318152D01*
X0155902Y0318447D01*
X0155414Y0319624D01*
X0154219Y0320819D01*
X0152657Y0321466D01*
X0150966Y0321466D01*
X0149404Y0320819D01*
X0148209Y0319624D01*
X0147562Y0318062D01*
X0147562Y0316371D01*
X0148209Y0314809D01*
X0149404Y0313613D01*
X0149821Y0313441D01*
X0149819Y0312414D01*
X0148585Y0312414D01*
X0147707Y0311535D01*
X0147707Y0306356D01*
X0148463Y0305599D01*
X0147707Y0304842D01*
X0147707Y0301416D01*
X0143770Y0297479D01*
X0143186Y0296909D01*
X0143186Y0296895D01*
X0143175Y0296884D01*
X0143175Y0296068D01*
X0143072Y0287730D01*
X0142948Y0287678D01*
X0141913Y0286643D01*
X0141352Y0285290D01*
X0141352Y0283826D01*
X0141913Y0282473D01*
X0142948Y0281437D01*
X0141579Y0283277D02*
X0082664Y0283277D01*
X0082666Y0281679D02*
X0112634Y0281679D01*
X0111577Y0280080D02*
X0082668Y0280080D01*
X0082670Y0278482D02*
X0111390Y0278482D01*
X0109791Y0276883D02*
X0082671Y0276883D01*
X0082673Y0275285D02*
X0108193Y0275285D01*
X0106594Y0273686D02*
X0082675Y0273686D01*
X0082677Y0272088D02*
X0105856Y0272088D01*
X0105856Y0270489D02*
X0082679Y0270489D01*
X0082681Y0268891D02*
X0105856Y0268891D01*
X0105856Y0267292D02*
X0082683Y0267292D01*
X0082685Y0265694D02*
X0105856Y0265694D01*
X0105856Y0264095D02*
X0082686Y0264095D01*
X0082688Y0262497D02*
X0105856Y0262497D01*
X0105856Y0260898D02*
X0082690Y0260898D01*
X0082692Y0259300D02*
X0105856Y0259300D01*
X0105856Y0257701D02*
X0082694Y0257701D01*
X0082696Y0256103D02*
X0105856Y0256103D01*
X0105856Y0254504D02*
X0082698Y0254504D01*
X0082700Y0252906D02*
X0105856Y0252906D01*
X0105856Y0251307D02*
X0082701Y0251307D01*
X0082703Y0249709D02*
X0105856Y0249709D01*
X0105856Y0248110D02*
X0082705Y0248110D01*
X0082707Y0246512D02*
X0105856Y0246512D01*
X0105856Y0244913D02*
X0082709Y0244913D01*
X0082711Y0243315D02*
X0105856Y0243315D01*
X0105856Y0241716D02*
X0082713Y0241716D01*
X0082715Y0240118D02*
X0105856Y0240118D01*
X0105856Y0238519D02*
X0082717Y0238519D01*
X0082718Y0236921D02*
X0105856Y0236921D01*
X0105856Y0235322D02*
X0082720Y0235322D01*
X0082722Y0233724D02*
X0105856Y0233724D01*
X0105856Y0232125D02*
X0082724Y0232125D01*
X0082726Y0230527D02*
X0105856Y0230527D01*
X0105856Y0228928D02*
X0082728Y0228928D01*
X0082730Y0227330D02*
X0105856Y0227330D01*
X0105856Y0225731D02*
X0082732Y0225731D01*
X0082733Y0224132D02*
X0105856Y0224132D01*
X0105856Y0222534D02*
X0082735Y0222534D01*
X0082737Y0220935D02*
X0105856Y0220935D01*
X0105856Y0219337D02*
X0082739Y0219337D01*
X0082741Y0217738D02*
X0105856Y0217738D01*
X0105856Y0216140D02*
X0082743Y0216140D01*
X0082745Y0214541D02*
X0105856Y0214541D01*
X0105856Y0212943D02*
X0082747Y0212943D01*
X0082748Y0211344D02*
X0105856Y0211344D01*
X0105856Y0209746D02*
X0082750Y0209746D01*
X0082752Y0208147D02*
X0105856Y0208147D01*
X0105856Y0206549D02*
X0082754Y0206549D01*
X0082756Y0204950D02*
X0105856Y0204950D01*
X0105856Y0203352D02*
X0082758Y0203352D01*
X0082760Y0201753D02*
X0105856Y0201753D01*
X0105856Y0200155D02*
X0082762Y0200155D01*
X0082763Y0198556D02*
X0105856Y0198556D01*
X0105856Y0196958D02*
X0082765Y0196958D01*
X0082767Y0195359D02*
X0105856Y0195359D01*
X0105856Y0193761D02*
X0082769Y0193761D01*
X0082771Y0192162D02*
X0105856Y0192162D01*
X0105856Y0190564D02*
X0082773Y0190564D01*
X0082775Y0188965D02*
X0105856Y0188965D01*
X0105856Y0187367D02*
X0082777Y0187367D01*
X0082779Y0185768D02*
X0105856Y0185768D01*
X0105856Y0184170D02*
X0082780Y0184170D01*
X0082782Y0182571D02*
X0105856Y0182571D01*
X0105856Y0180973D02*
X0082784Y0180973D01*
X0082786Y0179374D02*
X0105856Y0179374D01*
X0105856Y0177776D02*
X0082788Y0177776D01*
X0082790Y0176177D02*
X0105856Y0176177D01*
X0105856Y0174579D02*
X0082792Y0174579D01*
X0082794Y0172980D02*
X0105856Y0172980D01*
X0105856Y0171382D02*
X0082795Y0171382D01*
X0082797Y0169783D02*
X0105856Y0169783D01*
X0105856Y0168185D02*
X0082799Y0168185D01*
X0082812Y0156995D02*
X0147880Y0156995D01*
X0146267Y0155397D02*
X0115467Y0155397D01*
X0110456Y0174579D02*
X0149943Y0174579D01*
X0142773Y0176177D02*
X0110456Y0176177D01*
X0110456Y0177776D02*
X0141125Y0177776D01*
X0139478Y0179374D02*
X0134226Y0179374D01*
X0134834Y0180973D02*
X0137830Y0180973D01*
X0136182Y0182571D02*
X0131053Y0182571D01*
X0131053Y0180973D02*
X0130684Y0180973D01*
X0130684Y0179374D02*
X0131053Y0179374D01*
X0127511Y0179374D02*
X0127109Y0179374D01*
X0130684Y0184170D02*
X0131053Y0184170D01*
X0131053Y0185768D02*
X0130684Y0185768D01*
X0130717Y0188965D02*
X0130348Y0188965D01*
X0130348Y0190564D02*
X0130717Y0190564D01*
X0130717Y0192162D02*
X0130348Y0192162D01*
X0130348Y0193761D02*
X0130717Y0193761D01*
X0134394Y0193761D02*
X0134636Y0193761D01*
X0134636Y0195359D02*
X0110456Y0195359D01*
X0110456Y0193761D02*
X0120178Y0193761D01*
X0120174Y0188965D02*
X0117623Y0188965D01*
X0117505Y0187367D02*
X0122175Y0187367D01*
X0120992Y0185768D02*
X0116804Y0185768D01*
X0120510Y0184170D02*
X0110456Y0184170D01*
X0110456Y0185768D02*
X0110845Y0185768D01*
X0110456Y0182571D02*
X0120510Y0182571D01*
X0120510Y0180973D02*
X0110456Y0180973D01*
X0110456Y0179374D02*
X0121242Y0179374D01*
X0126175Y0187367D02*
X0134636Y0187367D01*
X0134636Y0188965D02*
X0134498Y0188965D01*
X0134498Y0190564D02*
X0134636Y0190564D01*
X0134636Y0192162D02*
X0134498Y0192162D01*
X0134636Y0196958D02*
X0110456Y0196958D01*
X0110456Y0198556D02*
X0134636Y0198556D01*
X0133243Y0200155D02*
X0110456Y0200155D01*
X0110456Y0201753D02*
X0131692Y0201753D01*
X0130140Y0203352D02*
X0110456Y0203352D01*
X0110456Y0204950D02*
X0127205Y0204950D01*
X0126115Y0206549D02*
X0110456Y0206549D01*
X0110456Y0208147D02*
X0126088Y0208147D01*
X0127141Y0209746D02*
X0110456Y0209746D01*
X0110456Y0211344D02*
X0129718Y0211344D01*
X0129718Y0212943D02*
X0110456Y0212943D01*
X0110456Y0214541D02*
X0129718Y0214541D01*
X0129718Y0216140D02*
X0110456Y0216140D01*
X0110456Y0217738D02*
X0129718Y0217738D01*
X0129718Y0219337D02*
X0110456Y0219337D01*
X0110456Y0220935D02*
X0129718Y0220935D01*
X0129718Y0222534D02*
X0110456Y0222534D01*
X0110456Y0224132D02*
X0129718Y0224132D01*
X0129718Y0225731D02*
X0110456Y0225731D01*
X0110456Y0227330D02*
X0129718Y0227330D01*
X0129718Y0228928D02*
X0110456Y0228928D01*
X0110456Y0230527D02*
X0129718Y0230527D01*
X0129718Y0232125D02*
X0110456Y0232125D01*
X0110456Y0233724D02*
X0129718Y0233724D01*
X0129718Y0235322D02*
X0110456Y0235322D01*
X0110456Y0236921D02*
X0129718Y0236921D01*
X0129718Y0238519D02*
X0110456Y0238519D01*
X0110456Y0240118D02*
X0129718Y0240118D01*
X0129718Y0241716D02*
X0110456Y0241716D01*
X0110456Y0243315D02*
X0129718Y0243315D01*
X0129718Y0244913D02*
X0110456Y0244913D01*
X0110456Y0246512D02*
X0129718Y0246512D01*
X0129565Y0248110D02*
X0110456Y0248110D01*
X0110456Y0249709D02*
X0128718Y0249709D01*
X0128929Y0251307D02*
X0110456Y0251307D01*
X0110456Y0252906D02*
X0130410Y0252906D01*
X0132720Y0254504D02*
X0110456Y0254504D01*
X0110456Y0256103D02*
X0129063Y0256103D01*
X0128275Y0257701D02*
X0110456Y0257701D01*
X0110456Y0259300D02*
X0128511Y0259300D01*
X0130112Y0260898D02*
X0110456Y0260898D01*
X0110456Y0262497D02*
X0131961Y0262497D01*
X0132438Y0260898D02*
X0133560Y0260898D01*
X0134592Y0259300D02*
X0135158Y0259300D01*
X0137618Y0262497D02*
X0138118Y0262497D01*
X0137902Y0264095D02*
X0136020Y0264095D01*
X0136303Y0265694D02*
X0134421Y0265694D01*
X0134705Y0267292D02*
X0133925Y0267292D01*
X0133106Y0268891D02*
X0110456Y0268891D01*
X0110456Y0270489D02*
X0131508Y0270489D01*
X0128152Y0272088D02*
X0111501Y0272088D01*
X0113100Y0273686D02*
X0127758Y0273686D01*
X0128195Y0275285D02*
X0115924Y0275285D01*
X0118221Y0276883D02*
X0164482Y0276883D01*
X0164655Y0278482D02*
X0118762Y0278482D01*
X0118584Y0280080D02*
X0165744Y0280080D01*
X0170221Y0280080D02*
X0179032Y0280080D01*
X0180630Y0278482D02*
X0171310Y0278482D01*
X0171482Y0276883D02*
X0182229Y0276883D01*
X0183827Y0275285D02*
X0170848Y0275285D01*
X0169982Y0273686D02*
X0184441Y0273686D01*
X0184441Y0272088D02*
X0169278Y0272088D01*
X0169457Y0270489D02*
X0184441Y0270489D01*
X0184441Y0268891D02*
X0169539Y0268891D01*
X0169539Y0267292D02*
X0184441Y0267292D01*
X0188441Y0267292D02*
X0319723Y0267292D01*
X0319720Y0265694D02*
X0190106Y0265694D01*
X0188441Y0268891D02*
X0319726Y0268891D01*
X0319728Y0270489D02*
X0188441Y0270489D01*
X0188441Y0272088D02*
X0319731Y0272088D01*
X0319733Y0273686D02*
X0188441Y0273686D01*
X0189054Y0275285D02*
X0319736Y0275285D01*
X0319739Y0276883D02*
X0190652Y0276883D01*
X0192251Y0278482D02*
X0319741Y0278482D01*
X0319744Y0280080D02*
X0192622Y0280080D01*
X0192622Y0281679D02*
X0319746Y0281679D01*
X0319749Y0283277D02*
X0192622Y0283277D01*
X0192622Y0284876D02*
X0319752Y0284876D01*
X0319754Y0286474D02*
X0192622Y0286474D01*
X0192622Y0288073D02*
X0319757Y0288073D01*
X0319760Y0289671D02*
X0192622Y0289671D01*
X0192622Y0291270D02*
X0319762Y0291270D01*
X0319765Y0292868D02*
X0192622Y0292868D01*
X0192027Y0294467D02*
X0319767Y0294467D01*
X0319770Y0296066D02*
X0190428Y0296066D01*
X0188830Y0297664D02*
X0319773Y0297664D01*
X0319775Y0299263D02*
X0187231Y0299263D01*
X0184860Y0296260D02*
X0188622Y0292497D01*
X0188622Y0280510D01*
X0186441Y0278328D01*
X0180125Y0284644D01*
X0178953Y0285816D01*
X0148496Y0285816D01*
X0148154Y0286643D01*
X0147118Y0287678D01*
X0147072Y0287698D01*
X0147165Y0295217D01*
X0150732Y0298784D01*
X0154159Y0298784D01*
X0155037Y0299663D01*
X0155037Y0304842D01*
X0154281Y0305599D01*
X0155037Y0306356D01*
X0155037Y0311535D01*
X0154159Y0312414D01*
X0153819Y0312414D01*
X0153821Y0313449D01*
X0154219Y0313613D01*
X0155014Y0314408D01*
X0156674Y0313202D01*
X0157939Y0311461D01*
X0158604Y0309415D01*
X0158689Y0308339D01*
X0158689Y0300669D01*
X0158749Y0300609D01*
X0158749Y0299241D01*
X0159281Y0297955D01*
X0160266Y0296970D01*
X0161552Y0296437D01*
X0162945Y0296437D01*
X0164231Y0296970D01*
X0165216Y0297955D01*
X0165749Y0299241D01*
X0165749Y0300633D01*
X0165216Y0301920D01*
X0164231Y0302904D01*
X0162945Y0303437D01*
X0162689Y0303437D01*
X0162689Y0310062D01*
X0161745Y0312966D01*
X0162657Y0312966D01*
X0163606Y0313360D01*
X0172850Y0304117D01*
X0172850Y0300711D01*
X0173728Y0299832D01*
X0174098Y0299832D01*
X0174158Y0299772D01*
X0175815Y0299772D01*
X0175875Y0299832D01*
X0177296Y0299832D01*
X0180869Y0296260D01*
X0184860Y0296260D01*
X0185054Y0296066D02*
X0148013Y0296066D01*
X0147156Y0294467D02*
X0186653Y0294467D01*
X0188251Y0292868D02*
X0147136Y0292868D01*
X0147116Y0291270D02*
X0188622Y0291270D01*
X0188622Y0289671D02*
X0147097Y0289671D01*
X0147077Y0288073D02*
X0188622Y0288073D01*
X0188622Y0286474D02*
X0148224Y0286474D01*
X0147360Y0281679D02*
X0177433Y0281679D01*
X0179893Y0284876D02*
X0188622Y0284876D01*
X0188622Y0283277D02*
X0181492Y0283277D01*
X0183090Y0281679D02*
X0188622Y0281679D01*
X0188193Y0280080D02*
X0184689Y0280080D01*
X0186287Y0278482D02*
X0186594Y0278482D01*
X0176082Y0265694D02*
X0175738Y0265694D01*
X0171910Y0265694D02*
X0169539Y0265694D01*
X0169017Y0264095D02*
X0170614Y0264095D01*
X0170324Y0262497D02*
X0169239Y0262497D01*
X0169239Y0260898D02*
X0170781Y0260898D01*
X0169643Y0259300D02*
X0169239Y0259300D01*
X0171820Y0256103D02*
X0172271Y0256103D01*
X0172634Y0254504D02*
X0170221Y0254504D01*
X0170480Y0252906D02*
X0171768Y0252906D01*
X0171389Y0251307D02*
X0170480Y0251307D01*
X0170480Y0249709D02*
X0171759Y0249709D01*
X0170380Y0248110D02*
X0173435Y0248110D01*
X0176343Y0248110D02*
X0176370Y0248110D01*
X0176359Y0246512D02*
X0170780Y0246512D01*
X0170780Y0244913D02*
X0176359Y0244913D01*
X0176359Y0243315D02*
X0170780Y0243315D01*
X0170730Y0241716D02*
X0175023Y0241716D01*
X0173424Y0240118D02*
X0142118Y0240118D01*
X0142118Y0241716D02*
X0163292Y0241716D01*
X0163243Y0241901D02*
X0163365Y0241444D01*
X0163602Y0241033D01*
X0163937Y0240698D01*
X0164348Y0240461D01*
X0164806Y0240338D01*
X0166827Y0240338D01*
X0166827Y0244119D01*
X0163243Y0244119D01*
X0163243Y0241901D01*
X0163243Y0243315D02*
X0142118Y0243315D01*
X0142118Y0244913D02*
X0163243Y0244913D01*
X0163243Y0246512D02*
X0142118Y0246512D01*
X0142118Y0248110D02*
X0158186Y0248110D01*
X0157173Y0249709D02*
X0142118Y0249709D01*
X0142118Y0251307D02*
X0157053Y0251307D01*
X0157817Y0252906D02*
X0154487Y0252906D01*
X0156527Y0254504D02*
X0164264Y0254504D01*
X0163543Y0252906D02*
X0163290Y0252906D01*
X0166446Y0256103D02*
X0157443Y0256103D01*
X0160577Y0257701D02*
X0162901Y0257701D01*
X0162302Y0263077D02*
X0161166Y0263077D01*
X0161166Y0263864D01*
X0160818Y0264211D01*
X0161106Y0264499D01*
X0161343Y0264910D01*
X0161466Y0265368D01*
X0161466Y0267586D01*
X0157882Y0267586D01*
X0157882Y0267954D01*
X0161466Y0267954D01*
X0161466Y0270059D01*
X0162002Y0270058D01*
X0162002Y0267963D01*
X0165587Y0267963D01*
X0165587Y0267595D01*
X0162002Y0267595D01*
X0162002Y0265377D01*
X0162125Y0264919D01*
X0162362Y0264508D01*
X0162650Y0264220D01*
X0162302Y0263873D01*
X0162302Y0263077D01*
X0162525Y0264095D02*
X0160934Y0264095D01*
X0161466Y0265694D02*
X0162002Y0265694D01*
X0162002Y0267292D02*
X0161466Y0267292D01*
X0161466Y0268891D02*
X0162002Y0268891D01*
X0154460Y0264095D02*
X0142118Y0264095D01*
X0142118Y0262497D02*
X0154229Y0262497D01*
X0154229Y0260898D02*
X0142118Y0260898D01*
X0142118Y0259300D02*
X0154229Y0259300D01*
X0149384Y0257701D02*
X0142118Y0257701D01*
X0142118Y0256103D02*
X0148482Y0256103D01*
X0148487Y0254504D02*
X0142118Y0254504D01*
X0142118Y0252906D02*
X0149395Y0252906D01*
X0142118Y0238519D02*
X0171826Y0238519D01*
X0168106Y0236921D02*
X0158963Y0236921D01*
X0155221Y0236921D02*
X0142118Y0236921D01*
X0142118Y0235322D02*
X0153775Y0235322D01*
X0153411Y0233724D02*
X0142118Y0233724D01*
X0142118Y0232125D02*
X0153765Y0232125D01*
X0155162Y0230527D02*
X0142118Y0230527D01*
X0142118Y0228928D02*
X0157564Y0228928D01*
X0158495Y0227330D02*
X0142118Y0227330D01*
X0142118Y0225731D02*
X0159426Y0225731D01*
X0160357Y0224132D02*
X0142118Y0224132D01*
X0142118Y0222534D02*
X0161595Y0222534D01*
X0168324Y0230527D02*
X0178502Y0230527D01*
X0178529Y0232125D02*
X0173210Y0232125D01*
X0174344Y0233724D02*
X0180127Y0233724D01*
X0184979Y0235322D02*
X0174549Y0235322D01*
X0175884Y0236921D02*
X0186577Y0236921D01*
X0188176Y0238519D02*
X0177483Y0238519D01*
X0179081Y0240118D02*
X0188248Y0240118D01*
X0189161Y0241716D02*
X0180359Y0241716D01*
X0180359Y0243315D02*
X0182028Y0243315D01*
X0181094Y0244913D02*
X0180359Y0244913D01*
X0180428Y0246512D02*
X0181053Y0246512D01*
X0187033Y0243315D02*
X0189077Y0243315D01*
X0200411Y0248110D02*
X0206487Y0248110D01*
X0210056Y0246512D02*
X0202010Y0246512D01*
X0203608Y0244913D02*
X0212454Y0244913D01*
X0218009Y0244913D02*
X0219147Y0244913D01*
X0224702Y0244913D02*
X0229470Y0244913D01*
X0231069Y0243315D02*
X0205207Y0243315D01*
X0206805Y0241716D02*
X0232667Y0241716D01*
X0234266Y0240118D02*
X0208404Y0240118D01*
X0210003Y0238519D02*
X0235864Y0238519D01*
X0237463Y0236921D02*
X0210072Y0236921D01*
X0210072Y0235322D02*
X0239062Y0235322D01*
X0240127Y0233724D02*
X0235901Y0233724D01*
X0234708Y0234917D02*
X0237402Y0232223D01*
X0237402Y0230417D01*
X0232902Y0230417D01*
X0232902Y0230217D01*
X0232902Y0225717D01*
X0234708Y0225717D01*
X0237402Y0228412D01*
X0237402Y0230217D01*
X0232902Y0230217D01*
X0232702Y0230217D01*
X0232702Y0225717D01*
X0230897Y0225717D01*
X0228202Y0228412D01*
X0228202Y0230217D01*
X0232702Y0230217D01*
X0232702Y0230417D01*
X0228202Y0230417D01*
X0228202Y0232223D01*
X0230897Y0234917D01*
X0232702Y0234917D01*
X0232702Y0230417D01*
X0232902Y0230417D01*
X0232902Y0234917D01*
X0234708Y0234917D01*
X0232902Y0233724D02*
X0232702Y0233724D01*
X0232702Y0232125D02*
X0232902Y0232125D01*
X0232902Y0230527D02*
X0232702Y0230527D01*
X0232702Y0228928D02*
X0232902Y0228928D01*
X0232902Y0227330D02*
X0232702Y0227330D01*
X0232702Y0225731D02*
X0232902Y0225731D01*
X0232902Y0224132D02*
X0232702Y0224132D01*
X0232702Y0222534D02*
X0232902Y0222534D01*
X0232902Y0220935D02*
X0232702Y0220935D01*
X0230112Y0224132D02*
X0225068Y0224132D01*
X0224583Y0226017D02*
X0221021Y0226017D01*
X0218502Y0228536D01*
X0218502Y0232098D01*
X0221021Y0234617D01*
X0224583Y0234617D01*
X0227102Y0232098D01*
X0227102Y0228536D01*
X0224583Y0226017D01*
X0225896Y0227330D02*
X0229285Y0227330D01*
X0228202Y0228928D02*
X0227102Y0228928D01*
X0227102Y0230527D02*
X0228202Y0230527D01*
X0228202Y0232125D02*
X0227076Y0232125D01*
X0225477Y0233724D02*
X0229703Y0233724D01*
X0237402Y0232125D02*
X0238529Y0232125D01*
X0238502Y0230527D02*
X0237402Y0230527D01*
X0237402Y0228928D02*
X0238502Y0228928D01*
X0239709Y0227330D02*
X0236320Y0227330D01*
X0234721Y0225731D02*
X0319655Y0225731D01*
X0319657Y0227330D02*
X0245896Y0227330D01*
X0247102Y0228928D02*
X0319660Y0228928D01*
X0319663Y0230527D02*
X0247102Y0230527D01*
X0247076Y0232125D02*
X0319665Y0232125D01*
X0319668Y0233724D02*
X0245477Y0233724D01*
X0244718Y0235322D02*
X0319671Y0235322D01*
X0319673Y0236921D02*
X0243120Y0236921D01*
X0241521Y0238519D02*
X0319676Y0238519D01*
X0319678Y0240118D02*
X0239923Y0240118D01*
X0238324Y0241716D02*
X0319681Y0241716D01*
X0319684Y0243315D02*
X0236726Y0243315D01*
X0235127Y0244913D02*
X0319686Y0244913D01*
X0319689Y0246512D02*
X0233529Y0246512D01*
X0231930Y0248110D02*
X0319691Y0248110D01*
X0319694Y0249709D02*
X0225393Y0249709D01*
X0225263Y0251307D02*
X0319697Y0251307D01*
X0319699Y0252906D02*
X0220238Y0252906D01*
X0218640Y0254504D02*
X0319702Y0254504D01*
X0319705Y0256103D02*
X0217041Y0256103D01*
X0215443Y0257701D02*
X0319707Y0257701D01*
X0319710Y0259300D02*
X0213844Y0259300D01*
X0212246Y0260898D02*
X0319712Y0260898D01*
X0319715Y0262497D02*
X0210647Y0262497D01*
X0209049Y0264095D02*
X0319718Y0264095D01*
X0319778Y0300861D02*
X0181641Y0300861D01*
X0180595Y0302460D02*
X0319781Y0302460D01*
X0319783Y0304058D02*
X0182193Y0304058D01*
X0183792Y0305657D02*
X0319786Y0305657D01*
X0319788Y0307255D02*
X0185390Y0307255D01*
X0186854Y0308854D02*
X0319791Y0308854D01*
X0319794Y0310452D02*
X0186854Y0310452D01*
X0186854Y0312051D02*
X0319796Y0312051D01*
X0319799Y0313649D02*
X0188474Y0313649D01*
X0188492Y0315248D02*
X0319801Y0315248D01*
X0319804Y0316846D02*
X0188492Y0316846D01*
X0188492Y0318445D02*
X0319807Y0318445D01*
X0319809Y0320043D02*
X0188175Y0320043D01*
X0188492Y0321642D02*
X0319812Y0321642D01*
X0319815Y0323240D02*
X0188492Y0323240D01*
X0188492Y0324839D02*
X0319817Y0324839D01*
X0319820Y0326437D02*
X0181061Y0326437D01*
X0181061Y0328036D02*
X0319822Y0328036D01*
X0319825Y0329634D02*
X0180404Y0329634D01*
X0178221Y0331233D02*
X0319828Y0331233D01*
X0319830Y0332831D02*
X0174553Y0332831D01*
X0174553Y0334430D02*
X0187284Y0334430D01*
X0189536Y0334430D02*
X0191087Y0334430D01*
X0191087Y0333737D02*
X0191587Y0333803D01*
X0192413Y0334024D01*
X0193204Y0334352D01*
X0193944Y0334779D01*
X0194623Y0335300D01*
X0195228Y0335905D01*
X0195748Y0336583D01*
X0196176Y0337324D01*
X0196503Y0338114D01*
X0196725Y0338941D01*
X0196791Y0339441D01*
X0191087Y0339441D01*
X0191087Y0333737D01*
X0191087Y0336028D02*
X0189536Y0336028D01*
X0189536Y0337627D02*
X0191087Y0337627D01*
X0191087Y0339225D02*
X0189536Y0339225D01*
X0189536Y0340824D02*
X0174553Y0340824D01*
X0174553Y0342422D02*
X0184163Y0342422D01*
X0185006Y0344021D02*
X0173753Y0344021D01*
X0171489Y0345619D02*
X0176953Y0345619D01*
X0175355Y0347218D02*
X0164669Y0347218D01*
X0167920Y0348816D02*
X0174452Y0348816D01*
X0173790Y0350415D02*
X0169519Y0350415D01*
X0171117Y0352013D02*
X0173712Y0352013D01*
X0173712Y0353612D02*
X0172716Y0353612D01*
X0170256Y0356809D02*
X0166361Y0356809D01*
X0166375Y0358407D02*
X0171854Y0358407D01*
X0173453Y0360006D02*
X0166375Y0360006D01*
X0166285Y0361604D02*
X0171897Y0361604D01*
X0170299Y0363203D02*
X0166075Y0363203D01*
X0166075Y0367999D02*
X0170369Y0367999D01*
X0172304Y0369597D02*
X0149159Y0369597D01*
X0148911Y0371196D02*
X0179712Y0371196D01*
X0179870Y0372794D02*
X0148753Y0372794D01*
X0147899Y0374393D02*
X0180724Y0374393D01*
X0183255Y0375991D02*
X0145368Y0375991D01*
X0143455Y0375991D02*
X0082555Y0375991D01*
X0082557Y0374393D02*
X0082699Y0374393D01*
X0085402Y0374393D02*
X0086066Y0374393D01*
X0086066Y0372794D02*
X0085402Y0372794D01*
X0085402Y0371196D02*
X0086066Y0371196D01*
X0086066Y0369597D02*
X0085402Y0369597D01*
X0085402Y0367999D02*
X0086066Y0367999D01*
X0086066Y0366400D02*
X0085402Y0366400D01*
X0082568Y0364801D02*
X0092106Y0364801D01*
X0092097Y0364830D02*
X0092309Y0364175D01*
X0092622Y0363561D01*
X0093027Y0363004D01*
X0093514Y0362517D01*
X0094071Y0362112D01*
X0094684Y0361800D01*
X0095339Y0361587D01*
X0096019Y0361479D01*
X0096364Y0361479D01*
X0096708Y0361479D01*
X0097388Y0361587D01*
X0098043Y0361800D01*
X0098657Y0362112D01*
X0099214Y0362517D01*
X0099701Y0363004D01*
X0100105Y0363561D01*
X0100418Y0364175D01*
X0100631Y0364830D01*
X0100738Y0365510D01*
X0100738Y0365854D01*
X0096364Y0365854D01*
X0096364Y0365854D01*
X0096364Y0361479D01*
X0096364Y0365854D01*
X0096364Y0365854D01*
X0100738Y0365854D01*
X0100738Y0366198D01*
X0100631Y0366879D01*
X0100418Y0367533D01*
X0100105Y0368147D01*
X0099701Y0368704D01*
X0099214Y0369191D01*
X0098657Y0369596D01*
X0098043Y0369908D01*
X0097388Y0370121D01*
X0096708Y0370229D01*
X0096364Y0370229D01*
X0096364Y0365854D01*
X0096364Y0365854D01*
X0091989Y0365854D01*
X0091989Y0365510D01*
X0092097Y0364830D01*
X0091989Y0365854D02*
X0096364Y0365854D01*
X0096364Y0365854D01*
X0096364Y0370229D01*
X0096019Y0370229D01*
X0095339Y0370121D01*
X0094684Y0369908D01*
X0094071Y0369596D01*
X0093514Y0369191D01*
X0093027Y0368704D01*
X0092622Y0368147D01*
X0092309Y0367533D01*
X0092097Y0366879D01*
X0091989Y0366198D01*
X0091989Y0365854D01*
X0092021Y0366400D02*
X0089307Y0366400D01*
X0090456Y0367999D02*
X0092546Y0367999D01*
X0094073Y0369597D02*
X0090903Y0369597D01*
X0090833Y0371196D02*
X0139912Y0371196D01*
X0140070Y0372794D02*
X0090231Y0372794D01*
X0088768Y0374393D02*
X0140924Y0374393D01*
X0140336Y0369597D02*
X0136319Y0369597D01*
X0136961Y0369331D02*
X0135307Y0370016D01*
X0133516Y0370016D01*
X0131862Y0369331D01*
X0130597Y0368065D01*
X0129912Y0366411D01*
X0129912Y0364621D01*
X0130597Y0362967D01*
X0131862Y0361701D01*
X0133516Y0361016D01*
X0135307Y0361016D01*
X0136961Y0361701D01*
X0138226Y0362967D01*
X0138911Y0364621D01*
X0138911Y0366411D01*
X0138226Y0368065D01*
X0136961Y0369331D01*
X0138254Y0367999D02*
X0141565Y0367999D01*
X0138911Y0366400D02*
X0146699Y0366400D01*
X0146992Y0364801D02*
X0138911Y0364801D01*
X0138324Y0363203D02*
X0146992Y0363203D01*
X0146992Y0361604D02*
X0136726Y0361604D01*
X0135200Y0360316D02*
X0132223Y0359083D01*
X0129945Y0356805D01*
X0128712Y0353828D01*
X0128712Y0350605D01*
X0129945Y0347628D01*
X0131885Y0345687D01*
X0131204Y0346081D01*
X0130413Y0346408D01*
X0129587Y0346630D01*
X0129087Y0346696D01*
X0129087Y0340991D01*
X0134791Y0340991D01*
X0134725Y0341492D01*
X0134503Y0342318D01*
X0134176Y0343108D01*
X0133748Y0343849D01*
X0133228Y0344528D01*
X0132623Y0345133D01*
X0132478Y0345244D01*
X0135200Y0344116D01*
X0138423Y0344116D01*
X0141400Y0345350D01*
X0143678Y0347628D01*
X0144911Y0350605D01*
X0144911Y0353828D01*
X0143678Y0356805D01*
X0141400Y0359083D01*
X0138423Y0360316D01*
X0135200Y0360316D01*
X0134451Y0360006D02*
X0082574Y0360006D01*
X0082572Y0361604D02*
X0095286Y0361604D01*
X0096364Y0361604D02*
X0096364Y0361604D01*
X0097442Y0361604D02*
X0132097Y0361604D01*
X0130499Y0363203D02*
X0099845Y0363203D01*
X0100622Y0364801D02*
X0129912Y0364801D01*
X0129912Y0366400D02*
X0100707Y0366400D01*
X0100181Y0367999D02*
X0130569Y0367999D01*
X0132504Y0369597D02*
X0098654Y0369597D01*
X0096364Y0369597D02*
X0096364Y0369597D01*
X0096364Y0367999D02*
X0096364Y0367999D01*
X0096364Y0366400D02*
X0096364Y0366400D01*
X0096364Y0364801D02*
X0096364Y0364801D01*
X0096364Y0363203D02*
X0096364Y0363203D01*
X0092882Y0363203D02*
X0082570Y0363203D01*
X0082576Y0358407D02*
X0131547Y0358407D01*
X0129949Y0356809D02*
X0082577Y0356809D01*
X0082579Y0355210D02*
X0129284Y0355210D01*
X0128712Y0353612D02*
X0082581Y0353612D01*
X0082583Y0352013D02*
X0128712Y0352013D01*
X0128790Y0350415D02*
X0097454Y0350415D01*
X0097388Y0350436D02*
X0098043Y0350223D01*
X0098657Y0349911D01*
X0099214Y0349506D01*
X0099701Y0349019D01*
X0100105Y0348462D01*
X0100418Y0347848D01*
X0100631Y0347194D01*
X0100738Y0346513D01*
X0100738Y0346169D01*
X0096364Y0346169D01*
X0096364Y0346169D01*
X0100738Y0346169D01*
X0100738Y0345825D01*
X0100631Y0345145D01*
X0100418Y0344490D01*
X0100105Y0343876D01*
X0099701Y0343319D01*
X0099214Y0342832D01*
X0098657Y0342427D01*
X0098043Y0342115D01*
X0097388Y0341902D01*
X0096708Y0341794D01*
X0096364Y0341794D01*
X0096364Y0346169D01*
X0096364Y0346169D01*
X0096364Y0346169D01*
X0096364Y0350544D01*
X0096708Y0350544D01*
X0097388Y0350436D01*
X0096364Y0350415D02*
X0096364Y0350415D01*
X0096364Y0350544D02*
X0096019Y0350544D01*
X0095339Y0350436D01*
X0094684Y0350223D01*
X0094071Y0349911D01*
X0093514Y0349506D01*
X0093027Y0349019D01*
X0092622Y0348462D01*
X0092309Y0347848D01*
X0092097Y0347194D01*
X0091989Y0346513D01*
X0091989Y0346169D01*
X0091989Y0345825D01*
X0092097Y0345145D01*
X0092309Y0344490D01*
X0092622Y0343876D01*
X0093027Y0343319D01*
X0093514Y0342832D01*
X0094071Y0342427D01*
X0094684Y0342115D01*
X0095339Y0341902D01*
X0096019Y0341794D01*
X0096364Y0341794D01*
X0096364Y0346169D01*
X0091989Y0346169D01*
X0096364Y0346169D01*
X0096364Y0346169D01*
X0096364Y0350544D01*
X0095274Y0350415D02*
X0082585Y0350415D01*
X0082587Y0348816D02*
X0092879Y0348816D01*
X0092105Y0347218D02*
X0082589Y0347218D01*
X0085402Y0345619D02*
X0086066Y0345619D01*
X0086066Y0344021D02*
X0085402Y0344021D01*
X0085402Y0342422D02*
X0086066Y0342422D01*
X0086066Y0340824D02*
X0085402Y0340824D01*
X0085402Y0339225D02*
X0086066Y0339225D01*
X0086066Y0337627D02*
X0085402Y0337627D01*
X0082705Y0337627D02*
X0082600Y0337627D01*
X0082602Y0336028D02*
X0123301Y0336028D01*
X0123395Y0335905D02*
X0124000Y0335300D01*
X0124679Y0334779D01*
X0125419Y0334352D01*
X0126210Y0334024D01*
X0127036Y0333803D01*
X0127536Y0333737D01*
X0127536Y0339441D01*
X0121832Y0339441D01*
X0121898Y0338941D01*
X0122120Y0338114D01*
X0122447Y0337324D01*
X0122875Y0336583D01*
X0123395Y0335905D01*
X0122322Y0337627D02*
X0088763Y0337627D01*
X0090229Y0339225D02*
X0121861Y0339225D01*
X0121832Y0340991D02*
X0127536Y0340991D01*
X0127536Y0339441D01*
X0129087Y0339441D01*
X0129087Y0340991D01*
X0127536Y0340991D01*
X0127536Y0346696D01*
X0127036Y0346630D01*
X0126210Y0346408D01*
X0125419Y0346081D01*
X0124679Y0345653D01*
X0124000Y0345133D01*
X0123395Y0344528D01*
X0122875Y0343849D01*
X0122447Y0343108D01*
X0122120Y0342318D01*
X0121898Y0341492D01*
X0121832Y0340991D01*
X0122163Y0342422D02*
X0098647Y0342422D01*
X0100179Y0344021D02*
X0123006Y0344021D01*
X0124634Y0345619D02*
X0100706Y0345619D01*
X0100623Y0347218D02*
X0130355Y0347218D01*
X0129452Y0348816D02*
X0099848Y0348816D01*
X0096364Y0348816D02*
X0096364Y0348816D01*
X0096364Y0347218D02*
X0096364Y0347218D01*
X0096364Y0345619D02*
X0096364Y0345619D01*
X0096364Y0344021D02*
X0096364Y0344021D01*
X0096364Y0342422D02*
X0096364Y0342422D01*
X0094081Y0342422D02*
X0090903Y0342422D01*
X0090832Y0340824D02*
X0127536Y0340824D01*
X0129087Y0340824D02*
X0158231Y0340824D01*
X0157934Y0342422D02*
X0152658Y0342422D01*
X0152658Y0347218D02*
X0158529Y0347218D01*
X0157934Y0348816D02*
X0152658Y0348816D01*
X0152658Y0350415D02*
X0157934Y0350415D01*
X0157934Y0352013D02*
X0152658Y0352013D01*
X0152658Y0353612D02*
X0158553Y0353612D01*
X0158458Y0356809D02*
X0150992Y0356809D01*
X0150992Y0358407D02*
X0158444Y0358407D01*
X0158444Y0360006D02*
X0150992Y0360006D01*
X0150992Y0361604D02*
X0158534Y0361604D01*
X0158744Y0363203D02*
X0150992Y0363203D01*
X0150992Y0364801D02*
X0158744Y0364801D01*
X0158744Y0366400D02*
X0150992Y0366400D01*
X0150758Y0367999D02*
X0158744Y0367999D01*
X0162225Y0358407D02*
X0162594Y0358407D01*
X0162594Y0356809D02*
X0162225Y0356809D01*
X0164646Y0353612D02*
X0167059Y0353612D01*
X0168657Y0355210D02*
X0150992Y0355210D01*
X0146992Y0355210D02*
X0144339Y0355210D01*
X0144911Y0353612D02*
X0145327Y0353612D01*
X0145327Y0352013D02*
X0144911Y0352013D01*
X0144833Y0350415D02*
X0145327Y0350415D01*
X0145327Y0348816D02*
X0144171Y0348816D01*
X0143268Y0347218D02*
X0145327Y0347218D01*
X0145327Y0345619D02*
X0141670Y0345619D01*
X0145327Y0344021D02*
X0133617Y0344021D01*
X0134460Y0342422D02*
X0145327Y0342422D01*
X0134791Y0339441D02*
X0129087Y0339441D01*
X0129087Y0333737D01*
X0129587Y0333803D01*
X0130413Y0334024D01*
X0131204Y0334352D01*
X0131944Y0334779D01*
X0132623Y0335300D01*
X0133228Y0335905D01*
X0133748Y0336583D01*
X0134176Y0337324D01*
X0134503Y0338114D01*
X0134725Y0338941D01*
X0134791Y0339441D01*
X0134762Y0339225D02*
X0159599Y0339225D01*
X0159599Y0337627D02*
X0134301Y0337627D01*
X0133322Y0336028D02*
X0159599Y0336028D01*
X0159599Y0334430D02*
X0131339Y0334430D01*
X0129087Y0334430D02*
X0127536Y0334430D01*
X0127536Y0336028D02*
X0129087Y0336028D01*
X0129087Y0337627D02*
X0127536Y0337627D01*
X0127536Y0339225D02*
X0129087Y0339225D01*
X0129087Y0342422D02*
X0127536Y0342422D01*
X0127536Y0344021D02*
X0129087Y0344021D01*
X0129087Y0345619D02*
X0127536Y0345619D01*
X0125284Y0334430D02*
X0082604Y0334430D01*
X0082606Y0332831D02*
X0159598Y0332831D01*
X0163599Y0332831D02*
X0167223Y0332831D01*
X0167223Y0334430D02*
X0163599Y0334430D01*
X0163599Y0336028D02*
X0167223Y0336028D01*
X0167637Y0337627D02*
X0163599Y0337627D01*
X0163599Y0339225D02*
X0167223Y0339225D01*
X0167223Y0340824D02*
X0164968Y0340824D01*
X0174139Y0337627D02*
X0184322Y0337627D01*
X0183861Y0339225D02*
X0174553Y0339225D01*
X0174553Y0336028D02*
X0185301Y0336028D01*
X0191087Y0340824D02*
X0319843Y0340824D01*
X0319846Y0342422D02*
X0196460Y0342422D01*
X0195617Y0344021D02*
X0319849Y0344021D01*
X0319851Y0345619D02*
X0193989Y0345619D01*
X0191087Y0345619D02*
X0189536Y0345619D01*
X0189536Y0344021D02*
X0191087Y0344021D01*
X0191087Y0342422D02*
X0189536Y0342422D01*
X0188268Y0347218D02*
X0319854Y0347218D01*
X0319856Y0348816D02*
X0189171Y0348816D01*
X0189833Y0350415D02*
X0319859Y0350415D01*
X0319862Y0352013D02*
X0189911Y0352013D01*
X0189911Y0353612D02*
X0319864Y0353612D01*
X0319867Y0355210D02*
X0189339Y0355210D01*
X0188674Y0356809D02*
X0319870Y0356809D01*
X0319872Y0358407D02*
X0187076Y0358407D01*
X0184172Y0360006D02*
X0319875Y0360006D01*
X0319877Y0361604D02*
X0182093Y0361604D01*
X0183691Y0363203D02*
X0319880Y0363203D01*
X0319883Y0364801D02*
X0185290Y0364801D01*
X0186134Y0366400D02*
X0319885Y0366400D01*
X0319888Y0367999D02*
X0187058Y0367999D01*
X0188287Y0369597D02*
X0319890Y0369597D01*
X0319893Y0371196D02*
X0188711Y0371196D01*
X0188553Y0372794D02*
X0319896Y0372794D01*
X0319898Y0374393D02*
X0187699Y0374393D01*
X0185168Y0375991D02*
X0319901Y0375991D01*
X0319904Y0377590D02*
X0082553Y0377590D01*
X0082551Y0379188D02*
X0319906Y0379188D01*
X0319841Y0339225D02*
X0196762Y0339225D01*
X0196301Y0337627D02*
X0319838Y0337627D01*
X0319836Y0336028D02*
X0195322Y0336028D01*
X0193339Y0334430D02*
X0319833Y0334430D01*
X0220127Y0233724D02*
X0215477Y0233724D01*
X0217076Y0232125D02*
X0218529Y0232125D01*
X0218502Y0230527D02*
X0217102Y0230527D01*
X0217102Y0228928D02*
X0218502Y0228928D01*
X0219709Y0227330D02*
X0215896Y0227330D01*
X0215068Y0224132D02*
X0220536Y0224132D01*
X0218938Y0222534D02*
X0216667Y0222534D01*
X0217102Y0220935D02*
X0218502Y0220935D01*
X0218502Y0219337D02*
X0217102Y0219337D01*
X0216305Y0217738D02*
X0219300Y0217738D01*
X0220899Y0216140D02*
X0214706Y0216140D01*
X0210899Y0216140D02*
X0204706Y0216140D01*
X0206305Y0217738D02*
X0209300Y0217738D01*
X0208502Y0219337D02*
X0207102Y0219337D01*
X0207102Y0220935D02*
X0208502Y0220935D01*
X0208938Y0222534D02*
X0206667Y0222534D01*
X0205068Y0224132D02*
X0208446Y0224132D01*
X0206847Y0225731D02*
X0200898Y0225731D01*
X0205896Y0227330D02*
X0206072Y0227330D01*
X0212504Y0225731D02*
X0230883Y0225731D01*
X0228514Y0222534D02*
X0226667Y0222534D01*
X0227102Y0220935D02*
X0228202Y0220935D01*
X0228202Y0219337D02*
X0227102Y0219337D01*
X0227092Y0217738D02*
X0228876Y0217738D01*
X0224633Y0214541D02*
X0194167Y0214541D01*
X0194802Y0216140D02*
X0200899Y0216140D01*
X0199300Y0217738D02*
X0196305Y0217738D01*
X0197102Y0219337D02*
X0198502Y0219337D01*
X0198502Y0220935D02*
X0197102Y0220935D01*
X0190452Y0216140D02*
X0184706Y0216140D01*
X0185619Y0214541D02*
X0142118Y0214541D01*
X0142118Y0212943D02*
X0182723Y0212943D01*
X0181249Y0211344D02*
X0142118Y0211344D01*
X0142118Y0209746D02*
X0180256Y0209746D01*
X0178669Y0208147D02*
X0142118Y0208147D01*
X0143692Y0206549D02*
X0151914Y0206549D01*
X0150315Y0204950D02*
X0145290Y0204950D01*
X0146889Y0203352D02*
X0149893Y0203352D01*
X0149893Y0201753D02*
X0147415Y0201753D01*
X0147415Y0200155D02*
X0150704Y0200155D01*
X0157682Y0200155D02*
X0160704Y0200155D01*
X0159893Y0200966D02*
X0162412Y0198447D01*
X0165974Y0198447D01*
X0168493Y0200966D01*
X0168493Y0204528D01*
X0165974Y0207047D01*
X0162412Y0207047D01*
X0159893Y0204528D01*
X0159893Y0200966D01*
X0159893Y0201753D02*
X0158493Y0201753D01*
X0158493Y0203352D02*
X0159893Y0203352D01*
X0160315Y0204950D02*
X0158071Y0204950D01*
X0156473Y0206549D02*
X0161914Y0206549D01*
X0166473Y0206549D02*
X0178015Y0206549D01*
X0178180Y0204950D02*
X0168071Y0204950D01*
X0168493Y0203352D02*
X0179257Y0203352D01*
X0183773Y0203352D02*
X0186950Y0203352D01*
X0186950Y0204410D02*
X0186950Y0202192D01*
X0187073Y0201734D01*
X0187310Y0201323D01*
X0187598Y0201035D01*
X0187250Y0200688D01*
X0187250Y0195114D01*
X0188129Y0194236D01*
X0188718Y0194236D01*
X0188718Y0192775D01*
X0189054Y0192439D01*
X0189054Y0191071D01*
X0189587Y0189785D01*
X0190572Y0188800D01*
X0191858Y0188267D01*
X0193250Y0188267D01*
X0194537Y0188800D01*
X0195521Y0189785D01*
X0196054Y0191071D01*
X0196054Y0192463D01*
X0195521Y0193750D01*
X0194537Y0194734D01*
X0194021Y0194948D01*
X0194187Y0195114D01*
X0194187Y0200688D01*
X0193839Y0201035D01*
X0194127Y0201323D01*
X0194364Y0201734D01*
X0194487Y0202192D01*
X0194487Y0204410D01*
X0190903Y0204410D01*
X0190903Y0204778D01*
X0194487Y0204778D01*
X0194487Y0206996D01*
X0194364Y0207454D01*
X0194127Y0207864D01*
X0193792Y0208200D01*
X0193382Y0208437D01*
X0192924Y0208559D01*
X0190903Y0208559D01*
X0190903Y0204778D01*
X0190534Y0204778D01*
X0190534Y0204410D01*
X0186950Y0204410D01*
X0186950Y0204778D02*
X0186950Y0206996D01*
X0187073Y0207454D01*
X0187310Y0207864D01*
X0187645Y0208200D01*
X0188055Y0208437D01*
X0188513Y0208559D01*
X0190534Y0208559D01*
X0190534Y0204778D01*
X0186950Y0204778D01*
X0186950Y0204950D02*
X0184850Y0204950D01*
X0185015Y0206549D02*
X0186950Y0206549D01*
X0187592Y0208147D02*
X0184361Y0208147D01*
X0185232Y0209746D02*
X0225135Y0209746D01*
X0224974Y0208147D02*
X0193844Y0208147D01*
X0194487Y0206549D02*
X0224974Y0206549D01*
X0224974Y0204950D02*
X0194487Y0204950D01*
X0194487Y0203352D02*
X0224974Y0203352D01*
X0224974Y0201753D02*
X0194369Y0201753D01*
X0194187Y0200155D02*
X0224974Y0200155D01*
X0224974Y0198556D02*
X0194187Y0198556D01*
X0194187Y0196958D02*
X0224974Y0196958D01*
X0224974Y0195359D02*
X0194187Y0195359D01*
X0195510Y0193761D02*
X0224974Y0193761D01*
X0224974Y0192162D02*
X0196054Y0192162D01*
X0195844Y0190564D02*
X0224974Y0190564D01*
X0224974Y0188965D02*
X0194702Y0188965D01*
X0190406Y0188965D02*
X0166492Y0188965D01*
X0168091Y0190564D02*
X0189264Y0190564D01*
X0189054Y0192162D02*
X0168493Y0192162D01*
X0168493Y0193761D02*
X0188718Y0193761D01*
X0187250Y0195359D02*
X0167662Y0195359D01*
X0166064Y0196958D02*
X0187250Y0196958D01*
X0187250Y0198556D02*
X0166083Y0198556D01*
X0167682Y0200155D02*
X0187250Y0200155D01*
X0187067Y0201753D02*
X0168493Y0201753D01*
X0162303Y0198556D02*
X0161212Y0198556D01*
X0159893Y0193761D02*
X0158493Y0193761D01*
X0158493Y0192162D02*
X0159893Y0192162D01*
X0160295Y0190564D02*
X0158091Y0190564D01*
X0159269Y0188965D02*
X0161894Y0188965D01*
X0160867Y0187367D02*
X0226200Y0187367D01*
X0233215Y0185768D02*
X0167253Y0185768D01*
X0168493Y0184170D02*
X0233427Y0184170D01*
X0232952Y0182571D02*
X0189081Y0182571D01*
X0189678Y0182324D02*
X0188392Y0182857D01*
X0186999Y0182857D01*
X0185713Y0182324D01*
X0184728Y0181339D01*
X0184195Y0180053D01*
X0184195Y0178660D01*
X0184728Y0177374D01*
X0185713Y0176389D01*
X0186999Y0175857D01*
X0188392Y0175857D01*
X0189678Y0176389D01*
X0190663Y0177374D01*
X0191195Y0178660D01*
X0191195Y0180053D01*
X0190663Y0181339D01*
X0189678Y0182324D01*
X0190814Y0180973D02*
X0233224Y0180973D01*
X0234454Y0179374D02*
X0213267Y0179374D01*
X0212671Y0179621D02*
X0211279Y0179621D01*
X0209993Y0179088D01*
X0209008Y0178103D01*
X0208475Y0176817D01*
X0208475Y0175425D01*
X0209008Y0174138D01*
X0209993Y0173154D01*
X0211279Y0172621D01*
X0212671Y0172621D01*
X0213958Y0173154D01*
X0214942Y0174138D01*
X0215475Y0175425D01*
X0215475Y0176817D01*
X0214942Y0178103D01*
X0213958Y0179088D01*
X0212671Y0179621D01*
X0210684Y0179374D02*
X0191195Y0179374D01*
X0190829Y0177776D02*
X0208872Y0177776D01*
X0208475Y0176177D02*
X0189166Y0176177D01*
X0186225Y0176177D02*
X0171532Y0176177D01*
X0169934Y0177776D02*
X0184562Y0177776D01*
X0184195Y0179374D02*
X0168335Y0179374D01*
X0168493Y0180973D02*
X0184577Y0180973D01*
X0186310Y0182571D02*
X0168493Y0182571D01*
X0173131Y0174579D02*
X0208826Y0174579D01*
X0210412Y0172980D02*
X0174588Y0172980D01*
X0172411Y0169783D02*
X0167310Y0169783D01*
X0168493Y0171382D02*
X0170671Y0171382D01*
X0169073Y0172980D02*
X0168493Y0172980D01*
X0170413Y0168185D02*
X0174009Y0168185D01*
X0172011Y0166586D02*
X0234357Y0166586D01*
X0233236Y0164988D02*
X0173610Y0164988D01*
X0171433Y0161791D02*
X0168493Y0161791D01*
X0168493Y0163389D02*
X0169834Y0163389D01*
X0168236Y0164988D02*
X0168034Y0164988D01*
X0167719Y0160192D02*
X0173031Y0160192D01*
X0172223Y0158594D02*
X0212853Y0158594D01*
X0214451Y0156995D02*
X0173756Y0156995D01*
X0176612Y0155397D02*
X0216050Y0155397D01*
X0217648Y0153798D02*
X0178444Y0153798D01*
X0178728Y0152199D02*
X0219247Y0152199D01*
X0220845Y0150601D02*
X0189977Y0150601D01*
X0191088Y0149002D02*
X0222230Y0149002D01*
X0222230Y0147404D02*
X0203036Y0147404D01*
X0203368Y0145805D02*
X0205492Y0145805D01*
X0205518Y0145867D02*
X0204985Y0144581D01*
X0204985Y0143189D01*
X0205518Y0141902D01*
X0206503Y0140918D01*
X0207789Y0140385D01*
X0209182Y0140385D01*
X0210468Y0140918D01*
X0211452Y0141902D01*
X0211985Y0143189D01*
X0211985Y0144581D01*
X0211452Y0145867D01*
X0210468Y0146852D01*
X0209182Y0147385D01*
X0207789Y0147385D01*
X0206503Y0146852D01*
X0205518Y0145867D01*
X0204985Y0144207D02*
X0199587Y0144207D01*
X0199587Y0145805D02*
X0199218Y0145805D01*
X0199218Y0147404D02*
X0199587Y0147404D01*
X0199587Y0142608D02*
X0199218Y0142608D01*
X0199218Y0141010D02*
X0199587Y0141010D01*
X0202714Y0141010D02*
X0206411Y0141010D01*
X0205226Y0142608D02*
X0203368Y0142608D01*
X0210560Y0141010D02*
X0221520Y0141010D01*
X0221130Y0142608D02*
X0211745Y0142608D01*
X0211985Y0144207D02*
X0221569Y0144207D01*
X0222230Y0145805D02*
X0211478Y0145805D01*
X0223022Y0153798D02*
X0237388Y0153798D01*
X0237388Y0152199D02*
X0224621Y0152199D01*
X0226030Y0150601D02*
X0237388Y0150601D01*
X0238079Y0149002D02*
X0226030Y0149002D01*
X0226030Y0147404D02*
X0231940Y0147404D01*
X0232089Y0147553D02*
X0231104Y0146569D01*
X0230572Y0145282D01*
X0230572Y0143890D01*
X0231104Y0142603D01*
X0232089Y0141619D01*
X0232873Y0141294D01*
X0232508Y0140928D01*
X0232508Y0135355D01*
X0232856Y0135007D01*
X0232568Y0134719D01*
X0232331Y0134309D01*
X0232208Y0133851D01*
X0232208Y0131633D01*
X0235792Y0131633D01*
X0235792Y0131265D01*
X0232208Y0131265D01*
X0232208Y0129047D01*
X0232331Y0128589D01*
X0232568Y0128178D01*
X0232903Y0127843D01*
X0233313Y0127606D01*
X0233771Y0127483D01*
X0235792Y0127483D01*
X0235792Y0131265D01*
X0236161Y0131265D01*
X0236161Y0131633D01*
X0239745Y0131633D01*
X0239745Y0133851D01*
X0239622Y0134309D01*
X0239385Y0134719D01*
X0239097Y0135007D01*
X0239445Y0135355D01*
X0239445Y0140928D01*
X0238566Y0141807D01*
X0237876Y0141807D01*
X0237876Y0143468D01*
X0237537Y0143807D01*
X0237571Y0143890D01*
X0237571Y0145282D01*
X0237039Y0146569D01*
X0236054Y0147553D01*
X0234768Y0148086D01*
X0233375Y0148086D01*
X0232089Y0147553D01*
X0230788Y0145805D02*
X0226030Y0145805D01*
X0226690Y0144207D02*
X0230572Y0144207D01*
X0231102Y0142608D02*
X0227130Y0142608D01*
X0226739Y0141010D02*
X0232589Y0141010D01*
X0232508Y0139411D02*
X0185810Y0139411D01*
X0184976Y0137813D02*
X0232508Y0137813D01*
X0232508Y0136214D02*
X0167231Y0136214D01*
X0166098Y0137347D02*
X0168793Y0134653D01*
X0168793Y0132847D01*
X0164293Y0132847D01*
X0164293Y0132647D01*
X0164293Y0128147D01*
X0166098Y0128147D01*
X0168793Y0130842D01*
X0168793Y0132647D01*
X0164293Y0132647D01*
X0164093Y0132647D01*
X0164093Y0128147D01*
X0162288Y0128147D01*
X0159593Y0130842D01*
X0159593Y0132647D01*
X0164093Y0132647D01*
X0164093Y0132847D01*
X0159593Y0132847D01*
X0159593Y0134653D01*
X0162288Y0137347D01*
X0164093Y0137347D01*
X0164093Y0132847D01*
X0164293Y0132847D01*
X0164293Y0137347D01*
X0166098Y0137347D01*
X0164293Y0136214D02*
X0164093Y0136214D01*
X0164093Y0134616D02*
X0164293Y0134616D01*
X0164293Y0133017D02*
X0164093Y0133017D01*
X0164093Y0131419D02*
X0164293Y0131419D01*
X0164293Y0129820D02*
X0164093Y0129820D01*
X0164093Y0128222D02*
X0164293Y0128222D01*
X0166173Y0128222D02*
X0232542Y0128222D01*
X0232208Y0129820D02*
X0167772Y0129820D01*
X0168793Y0131419D02*
X0235792Y0131419D01*
X0236161Y0131419D02*
X0256192Y0131419D01*
X0256192Y0133017D02*
X0239745Y0133017D01*
X0239445Y0134616D02*
X0256280Y0134616D01*
X0257878Y0136214D02*
X0239445Y0136214D01*
X0239445Y0137813D02*
X0263366Y0137813D01*
X0263366Y0139411D02*
X0263238Y0139411D01*
X0263106Y0136214D02*
X0263366Y0136214D01*
X0267366Y0136214D02*
X0267878Y0136214D01*
X0267366Y0137813D02*
X0275620Y0137813D01*
X0275620Y0139411D02*
X0273238Y0139411D01*
X0274792Y0141010D02*
X0275620Y0141010D01*
X0275620Y0142608D02*
X0274792Y0142608D01*
X0274792Y0144207D02*
X0275620Y0144207D01*
X0275620Y0145805D02*
X0273515Y0145805D01*
X0275620Y0147404D02*
X0267366Y0147404D01*
X0267366Y0149002D02*
X0267732Y0149002D01*
X0270392Y0149002D02*
X0270592Y0149002D01*
X0270592Y0150601D02*
X0270392Y0150601D01*
X0270392Y0152199D02*
X0270592Y0152199D01*
X0270592Y0152847D02*
X0275092Y0152847D01*
X0275092Y0154653D01*
X0272398Y0157347D01*
X0270592Y0157347D01*
X0270592Y0152847D01*
X0270592Y0153798D02*
X0270392Y0153798D01*
X0270392Y0155397D02*
X0270592Y0155397D01*
X0270592Y0156995D02*
X0270392Y0156995D01*
X0270392Y0158147D02*
X0270392Y0162647D01*
X0265892Y0162647D01*
X0265892Y0160842D01*
X0268587Y0158147D01*
X0270392Y0158147D01*
X0270392Y0158594D02*
X0270592Y0158594D01*
X0270592Y0160192D02*
X0270392Y0160192D01*
X0270392Y0161791D02*
X0270592Y0161791D01*
X0272844Y0158594D02*
X0275620Y0158594D01*
X0275620Y0160192D02*
X0274442Y0160192D01*
X0275092Y0161791D02*
X0275620Y0161791D01*
X0279620Y0161791D02*
X0319550Y0161791D01*
X0319553Y0163389D02*
X0279620Y0163389D01*
X0279058Y0164988D02*
X0319555Y0164988D01*
X0319558Y0166586D02*
X0277460Y0166586D01*
X0275861Y0168185D02*
X0319561Y0168185D01*
X0319563Y0169783D02*
X0274263Y0169783D01*
X0275092Y0171382D02*
X0319566Y0171382D01*
X0319568Y0172980D02*
X0275092Y0172980D01*
X0275092Y0174579D02*
X0319571Y0174579D01*
X0319574Y0176177D02*
X0273568Y0176177D01*
X0272273Y0178447D02*
X0268711Y0178447D01*
X0266192Y0180966D01*
X0266192Y0184528D01*
X0268711Y0187047D01*
X0272273Y0187047D01*
X0274792Y0184528D01*
X0274792Y0180966D01*
X0272273Y0178447D01*
X0273200Y0179374D02*
X0319579Y0179374D01*
X0319576Y0177776D02*
X0257922Y0177776D01*
X0253922Y0177776D02*
X0252286Y0177776D01*
X0252402Y0177977D02*
X0252525Y0178435D01*
X0252525Y0180456D01*
X0248744Y0180456D01*
X0248744Y0180825D01*
X0248375Y0180825D01*
X0248375Y0184409D01*
X0246157Y0184409D01*
X0245699Y0184286D01*
X0245289Y0184049D01*
X0245001Y0183761D01*
X0244653Y0184109D01*
X0239501Y0184109D01*
X0239419Y0184309D01*
X0239063Y0184664D01*
X0239447Y0185048D01*
X0239519Y0185221D01*
X0244677Y0185221D01*
X0245025Y0185568D01*
X0245313Y0185280D01*
X0245723Y0185043D01*
X0246181Y0184921D01*
X0248399Y0184921D01*
X0248399Y0188505D01*
X0248768Y0188505D01*
X0248768Y0188874D01*
X0252549Y0188874D01*
X0252549Y0190895D01*
X0252426Y0191353D01*
X0252311Y0191552D01*
X0253208Y0191549D01*
X0253922Y0190835D01*
X0253922Y0168451D01*
X0255272Y0167100D01*
X0256444Y0165929D01*
X0257593Y0165929D01*
X0256192Y0164528D01*
X0256192Y0161276D01*
X0250793Y0155876D01*
X0246205Y0155876D01*
X0246423Y0156253D01*
X0246545Y0156711D01*
X0246545Y0158929D01*
X0242961Y0158929D01*
X0242961Y0159297D01*
X0246545Y0159297D01*
X0246545Y0161516D01*
X0246423Y0161973D01*
X0246186Y0162384D01*
X0245898Y0162672D01*
X0246245Y0163019D01*
X0246245Y0168593D01*
X0245957Y0168881D01*
X0246191Y0168819D01*
X0248409Y0168819D01*
X0248409Y0172403D01*
X0248778Y0172403D01*
X0248778Y0172771D01*
X0252559Y0172771D01*
X0252559Y0174793D01*
X0252436Y0175250D01*
X0252199Y0175661D01*
X0251864Y0175996D01*
X0251454Y0176233D01*
X0250996Y0176356D01*
X0248778Y0176356D01*
X0248778Y0172771D01*
X0248409Y0172771D01*
X0248409Y0176356D01*
X0246191Y0176356D01*
X0245734Y0176233D01*
X0245323Y0175996D01*
X0245035Y0175708D01*
X0244687Y0176056D01*
X0240110Y0176056D01*
X0241227Y0177172D01*
X0244653Y0177172D01*
X0245001Y0177520D01*
X0245289Y0177232D01*
X0245699Y0176995D01*
X0246157Y0176872D01*
X0248375Y0176872D01*
X0248375Y0180456D01*
X0248744Y0180456D01*
X0248744Y0176872D01*
X0250962Y0176872D01*
X0251420Y0176995D01*
X0251830Y0177232D01*
X0252165Y0177567D01*
X0252402Y0177977D01*
X0252525Y0179374D02*
X0253922Y0179374D01*
X0253922Y0180973D02*
X0252525Y0180973D01*
X0252525Y0180825D02*
X0252525Y0182846D01*
X0252402Y0183304D01*
X0252165Y0183714D01*
X0251830Y0184049D01*
X0251420Y0184286D01*
X0250962Y0184409D01*
X0248744Y0184409D01*
X0248744Y0180825D01*
X0252525Y0180825D01*
X0252525Y0182571D02*
X0253922Y0182571D01*
X0253922Y0184170D02*
X0251622Y0184170D01*
X0251444Y0185043D02*
X0251854Y0185280D01*
X0252189Y0185616D01*
X0252426Y0186026D01*
X0252549Y0186484D01*
X0252549Y0188505D01*
X0248768Y0188505D01*
X0248768Y0184921D01*
X0250986Y0184921D01*
X0251444Y0185043D01*
X0252277Y0185768D02*
X0253922Y0185768D01*
X0253922Y0187367D02*
X0252549Y0187367D01*
X0252549Y0188965D02*
X0253922Y0188965D01*
X0253922Y0190564D02*
X0252549Y0190564D01*
X0248768Y0187367D02*
X0248399Y0187367D01*
X0248399Y0185768D02*
X0248768Y0185768D01*
X0248744Y0184170D02*
X0248375Y0184170D01*
X0248375Y0182571D02*
X0248744Y0182571D01*
X0248744Y0180973D02*
X0248375Y0180973D01*
X0248375Y0179374D02*
X0248744Y0179374D01*
X0248744Y0177776D02*
X0248375Y0177776D01*
X0248409Y0176177D02*
X0248778Y0176177D01*
X0248778Y0174579D02*
X0248409Y0174579D01*
X0248409Y0172980D02*
X0248778Y0172980D01*
X0248778Y0172403D02*
X0252559Y0172403D01*
X0252559Y0170382D01*
X0252436Y0169924D01*
X0252199Y0169513D01*
X0251864Y0169178D01*
X0251454Y0168941D01*
X0250996Y0168819D01*
X0248778Y0168819D01*
X0248778Y0172403D01*
X0248778Y0171382D02*
X0248409Y0171382D01*
X0248409Y0169783D02*
X0248778Y0169783D01*
X0246245Y0168185D02*
X0254188Y0168185D01*
X0253922Y0169783D02*
X0252355Y0169783D01*
X0252559Y0171382D02*
X0253922Y0171382D01*
X0253922Y0172980D02*
X0252559Y0172980D01*
X0252559Y0174579D02*
X0253922Y0174579D01*
X0253922Y0176177D02*
X0251550Y0176177D01*
X0245637Y0176177D02*
X0240232Y0176177D01*
X0235518Y0177776D02*
X0215078Y0177776D01*
X0215475Y0176177D02*
X0233682Y0176177D01*
X0233279Y0174579D02*
X0215125Y0174579D01*
X0213539Y0172980D02*
X0233625Y0172980D01*
X0233041Y0163389D02*
X0213431Y0163389D01*
X0215030Y0161791D02*
X0233621Y0161791D01*
X0239008Y0160192D02*
X0216628Y0160192D01*
X0218227Y0158594D02*
X0239008Y0158594D01*
X0239008Y0156995D02*
X0219825Y0156995D01*
X0221424Y0155397D02*
X0237698Y0155397D01*
X0241169Y0152199D02*
X0241537Y0152199D01*
X0241537Y0150601D02*
X0241169Y0150601D01*
X0241169Y0149002D02*
X0241537Y0149002D01*
X0244627Y0149002D02*
X0245196Y0149002D01*
X0250896Y0149002D02*
X0258156Y0149002D01*
X0256557Y0150601D02*
X0251711Y0150601D01*
X0252773Y0152199D02*
X0256192Y0152199D01*
X0256192Y0153798D02*
X0254371Y0153798D01*
X0255970Y0155397D02*
X0257060Y0155397D01*
X0257568Y0156995D02*
X0258659Y0156995D01*
X0262326Y0156995D02*
X0263366Y0156995D01*
X0267366Y0156995D02*
X0268235Y0156995D01*
X0268141Y0158594D02*
X0267366Y0158594D01*
X0266542Y0160192D02*
X0265876Y0160192D01*
X0265892Y0161791D02*
X0264792Y0161791D01*
X0264792Y0163389D02*
X0265892Y0163389D01*
X0266227Y0164988D02*
X0264333Y0164988D01*
X0264792Y0171382D02*
X0265892Y0171382D01*
X0265892Y0172980D02*
X0264792Y0172980D01*
X0264742Y0174579D02*
X0265892Y0174579D01*
X0267417Y0176177D02*
X0263144Y0176177D01*
X0263200Y0179374D02*
X0267784Y0179374D01*
X0266192Y0180973D02*
X0264792Y0180973D01*
X0264792Y0182571D02*
X0266192Y0182571D01*
X0266192Y0184170D02*
X0264792Y0184170D01*
X0263552Y0185768D02*
X0267432Y0185768D01*
X0268711Y0188447D02*
X0272273Y0188447D01*
X0274792Y0190966D01*
X0274792Y0194528D01*
X0272273Y0197047D01*
X0268711Y0197047D01*
X0266192Y0194528D01*
X0266192Y0190966D01*
X0268711Y0188447D01*
X0268193Y0188965D02*
X0262791Y0188965D01*
X0264390Y0190564D02*
X0266595Y0190564D01*
X0266192Y0192162D02*
X0264792Y0192162D01*
X0264792Y0193761D02*
X0266192Y0193761D01*
X0267023Y0195359D02*
X0263961Y0195359D01*
X0262363Y0196958D02*
X0268622Y0196958D01*
X0268587Y0198147D02*
X0265892Y0200842D01*
X0265892Y0202647D01*
X0270392Y0202647D01*
X0270392Y0202847D01*
X0265892Y0202847D01*
X0265892Y0204653D01*
X0268587Y0207347D01*
X0270392Y0207347D01*
X0270392Y0202847D01*
X0270592Y0202847D01*
X0270592Y0207347D01*
X0272398Y0207347D01*
X0275092Y0204653D01*
X0275092Y0202847D01*
X0270592Y0202847D01*
X0270592Y0202647D01*
X0270592Y0198147D01*
X0272398Y0198147D01*
X0275092Y0200842D01*
X0275092Y0202647D01*
X0270592Y0202647D01*
X0270392Y0202647D01*
X0270392Y0198147D01*
X0268587Y0198147D01*
X0268178Y0198556D02*
X0262382Y0198556D01*
X0262273Y0198447D02*
X0264792Y0200966D01*
X0264792Y0204528D01*
X0262273Y0207047D01*
X0258711Y0207047D01*
X0256192Y0204528D01*
X0256192Y0200966D01*
X0258711Y0198447D01*
X0262273Y0198447D01*
X0263981Y0200155D02*
X0266579Y0200155D01*
X0265892Y0201753D02*
X0264792Y0201753D01*
X0264792Y0203352D02*
X0265892Y0203352D01*
X0266190Y0204950D02*
X0264370Y0204950D01*
X0262772Y0206549D02*
X0267789Y0206549D01*
X0270392Y0206549D02*
X0270592Y0206549D01*
X0270592Y0204950D02*
X0270392Y0204950D01*
X0270392Y0203352D02*
X0270592Y0203352D01*
X0270592Y0201753D02*
X0270392Y0201753D01*
X0270392Y0200155D02*
X0270592Y0200155D01*
X0270592Y0198556D02*
X0270392Y0198556D01*
X0272807Y0198556D02*
X0319610Y0198556D01*
X0319608Y0196958D02*
X0272363Y0196958D01*
X0273961Y0195359D02*
X0319605Y0195359D01*
X0319602Y0193761D02*
X0274792Y0193761D01*
X0274792Y0192162D02*
X0319600Y0192162D01*
X0319597Y0190564D02*
X0274390Y0190564D01*
X0272791Y0188965D02*
X0319595Y0188965D01*
X0319592Y0187367D02*
X0257922Y0187367D01*
X0257922Y0188965D02*
X0258193Y0188965D01*
X0257023Y0195359D02*
X0255057Y0195359D01*
X0258622Y0196958D02*
X0246957Y0196958D01*
X0249096Y0198556D02*
X0258602Y0198556D01*
X0257004Y0200155D02*
X0251235Y0200155D01*
X0253373Y0201753D02*
X0256192Y0201753D01*
X0256192Y0203352D02*
X0253853Y0203352D01*
X0253791Y0204950D02*
X0256614Y0204950D01*
X0258213Y0206549D02*
X0253791Y0206549D01*
X0253791Y0208147D02*
X0319626Y0208147D01*
X0319623Y0206549D02*
X0273196Y0206549D01*
X0274795Y0204950D02*
X0319621Y0204950D01*
X0319618Y0203352D02*
X0275092Y0203352D01*
X0275092Y0201753D02*
X0319616Y0201753D01*
X0319613Y0200155D02*
X0274405Y0200155D01*
X0273552Y0185768D02*
X0319589Y0185768D01*
X0319587Y0184170D02*
X0274792Y0184170D01*
X0274792Y0182571D02*
X0319584Y0182571D01*
X0319582Y0180973D02*
X0274792Y0180973D01*
X0270592Y0176177D02*
X0270392Y0176177D01*
X0270392Y0174579D02*
X0270592Y0174579D01*
X0270592Y0172980D02*
X0270392Y0172980D01*
X0279620Y0160192D02*
X0319547Y0160192D01*
X0319545Y0158594D02*
X0279620Y0158594D01*
X0279620Y0156995D02*
X0319542Y0156995D01*
X0319540Y0155397D02*
X0279620Y0155397D01*
X0279620Y0153798D02*
X0319537Y0153798D01*
X0319534Y0152199D02*
X0279620Y0152199D01*
X0279620Y0150601D02*
X0319532Y0150601D01*
X0319529Y0149002D02*
X0279620Y0149002D01*
X0279620Y0147404D02*
X0319527Y0147404D01*
X0319524Y0145805D02*
X0279620Y0145805D01*
X0279620Y0144207D02*
X0319521Y0144207D01*
X0319519Y0142608D02*
X0279620Y0142608D01*
X0279620Y0141010D02*
X0319516Y0141010D01*
X0319513Y0139411D02*
X0279620Y0139411D01*
X0279620Y0137813D02*
X0319511Y0137813D01*
X0319508Y0136214D02*
X0279620Y0136214D01*
X0279620Y0134616D02*
X0319506Y0134616D01*
X0319503Y0133017D02*
X0279620Y0133017D01*
X0279620Y0131419D02*
X0319500Y0131419D01*
X0319498Y0129820D02*
X0279620Y0129820D01*
X0279620Y0128222D02*
X0319495Y0128222D01*
X0319492Y0126623D02*
X0279620Y0126623D01*
X0279620Y0125025D02*
X0319490Y0125025D01*
X0319487Y0123426D02*
X0279620Y0123426D01*
X0279620Y0121828D02*
X0319485Y0121828D01*
X0319482Y0120229D02*
X0279620Y0120229D01*
X0279620Y0118631D02*
X0319479Y0118631D01*
X0319477Y0117032D02*
X0279620Y0117032D01*
X0279620Y0115434D02*
X0319474Y0115434D01*
X0319472Y0113835D02*
X0279620Y0113835D01*
X0279620Y0112237D02*
X0319469Y0112237D01*
X0319466Y0110638D02*
X0279620Y0110638D01*
X0279620Y0109040D02*
X0319464Y0109040D01*
X0319461Y0107441D02*
X0279620Y0107441D01*
X0279620Y0105843D02*
X0302644Y0105843D01*
X0302201Y0104244D02*
X0279620Y0104244D01*
X0279620Y0102646D02*
X0302201Y0102646D01*
X0302201Y0101047D02*
X0279620Y0101047D01*
X0279620Y0099449D02*
X0302201Y0099449D01*
X0302201Y0097850D02*
X0279620Y0097850D01*
X0279620Y0096252D02*
X0302201Y0096252D01*
X0302201Y0094653D02*
X0279620Y0094653D01*
X0279620Y0093055D02*
X0302201Y0093055D01*
X0302201Y0091456D02*
X0279620Y0091456D01*
X0279620Y0089858D02*
X0302201Y0089858D01*
X0302201Y0088259D02*
X0279620Y0088259D01*
X0279620Y0086661D02*
X0302201Y0086661D01*
X0302201Y0085062D02*
X0278981Y0085062D01*
X0277382Y0083463D02*
X0302201Y0083463D01*
X0302201Y0081865D02*
X0275784Y0081865D01*
X0274185Y0080266D02*
X0302999Y0080266D01*
X0306301Y0085062D02*
X0319424Y0085062D01*
X0319422Y0083463D02*
X0314538Y0083463D01*
X0315160Y0081865D02*
X0319419Y0081865D01*
X0319417Y0080266D02*
X0315160Y0080266D01*
X0315160Y0078668D02*
X0319414Y0078668D01*
X0319411Y0077069D02*
X0315160Y0077069D01*
X0315160Y0075471D02*
X0319409Y0075471D01*
X0319406Y0073872D02*
X0315160Y0073872D01*
X0315160Y0072274D02*
X0319403Y0072274D01*
X0319401Y0070675D02*
X0315160Y0070675D01*
X0315160Y0069077D02*
X0319398Y0069077D01*
X0319396Y0067478D02*
X0315160Y0067478D01*
X0315160Y0065880D02*
X0319393Y0065880D01*
X0319390Y0064281D02*
X0315160Y0064281D01*
X0315160Y0062683D02*
X0319388Y0062683D01*
X0319385Y0061084D02*
X0315160Y0061084D01*
X0315160Y0059486D02*
X0319383Y0059486D01*
X0319380Y0057887D02*
X0315160Y0057887D01*
X0315160Y0056289D02*
X0319377Y0056289D01*
X0319369Y0051493D02*
X0257039Y0051493D01*
X0257039Y0049895D02*
X0319367Y0049895D01*
X0311857Y0053092D02*
X0257039Y0053092D01*
X0257039Y0054690D02*
X0311060Y0054690D01*
X0311060Y0056289D02*
X0257039Y0056289D01*
X0257039Y0057887D02*
X0311060Y0057887D01*
X0311060Y0059486D02*
X0257039Y0059486D01*
X0257039Y0061084D02*
X0311060Y0061084D01*
X0311060Y0062683D02*
X0257039Y0062683D01*
X0258200Y0064281D02*
X0311060Y0064281D01*
X0311060Y0065880D02*
X0259799Y0065880D01*
X0261397Y0067478D02*
X0311060Y0067478D01*
X0311060Y0069077D02*
X0262996Y0069077D01*
X0264594Y0070675D02*
X0311060Y0070675D01*
X0311060Y0072274D02*
X0266193Y0072274D01*
X0267791Y0073872D02*
X0311060Y0073872D01*
X0311060Y0075471D02*
X0269390Y0075471D01*
X0270988Y0077069D02*
X0311060Y0077069D01*
X0311060Y0078668D02*
X0272587Y0078668D01*
X0270127Y0081865D02*
X0158363Y0081865D01*
X0158363Y0083463D02*
X0271725Y0083463D01*
X0273324Y0085062D02*
X0156698Y0085062D01*
X0159229Y0086661D02*
X0274922Y0086661D01*
X0275620Y0088259D02*
X0159791Y0088259D01*
X0160375Y0089858D02*
X0275620Y0089858D01*
X0275620Y0091456D02*
X0162016Y0091456D01*
X0163657Y0093055D02*
X0275620Y0093055D01*
X0275620Y0094653D02*
X0165299Y0094653D01*
X0166940Y0096252D02*
X0275620Y0096252D01*
X0275620Y0097850D02*
X0168581Y0097850D01*
X0170222Y0099449D02*
X0275620Y0099449D01*
X0275620Y0101047D02*
X0233644Y0101047D01*
X0233201Y0105843D02*
X0235017Y0105843D01*
X0233418Y0107441D02*
X0231267Y0107441D01*
X0231643Y0109040D02*
X0233043Y0109040D01*
X0233043Y0110638D02*
X0231643Y0110638D01*
X0230785Y0112237D02*
X0233901Y0112237D01*
X0235499Y0113835D02*
X0229186Y0113835D01*
X0229124Y0115298D02*
X0225562Y0115298D01*
X0223043Y0117817D01*
X0223043Y0121379D01*
X0225562Y0123898D01*
X0229124Y0123898D01*
X0231643Y0121379D01*
X0231643Y0117817D01*
X0229124Y0115298D01*
X0229260Y0115434D02*
X0235426Y0115434D01*
X0235562Y0115298D02*
X0233043Y0117817D01*
X0233043Y0121379D01*
X0235562Y0123898D01*
X0239124Y0123898D01*
X0241643Y0121379D01*
X0241643Y0117817D01*
X0239124Y0115298D01*
X0235562Y0115298D01*
X0233827Y0117032D02*
X0230858Y0117032D01*
X0231643Y0118631D02*
X0233043Y0118631D01*
X0233043Y0120229D02*
X0231643Y0120229D01*
X0231194Y0121828D02*
X0233492Y0121828D01*
X0235090Y0123426D02*
X0229595Y0123426D01*
X0225090Y0123426D02*
X0219595Y0123426D01*
X0219124Y0123898D02*
X0221643Y0121379D01*
X0221643Y0117817D01*
X0219124Y0115298D01*
X0215562Y0115298D01*
X0213043Y0117817D01*
X0213043Y0121379D01*
X0215562Y0123898D01*
X0219124Y0123898D01*
X0221194Y0121828D02*
X0223492Y0121828D01*
X0223043Y0120229D02*
X0221643Y0120229D01*
X0221643Y0118631D02*
X0223043Y0118631D01*
X0223827Y0117032D02*
X0220858Y0117032D01*
X0219260Y0115434D02*
X0225426Y0115434D01*
X0225499Y0113835D02*
X0219186Y0113835D01*
X0219124Y0113898D02*
X0215562Y0113898D01*
X0213043Y0111379D01*
X0213043Y0107817D01*
X0215562Y0105298D01*
X0219124Y0105298D01*
X0221643Y0107817D01*
X0221643Y0111379D01*
X0219124Y0113898D01*
X0220785Y0112237D02*
X0223901Y0112237D01*
X0223043Y0110638D02*
X0221643Y0110638D01*
X0221643Y0109040D02*
X0223043Y0109040D01*
X0223418Y0107441D02*
X0221267Y0107441D01*
X0219669Y0105843D02*
X0225017Y0105843D01*
X0228097Y0101047D02*
X0171864Y0101047D01*
X0169413Y0104244D02*
X0150005Y0104244D01*
X0150005Y0102646D02*
X0167772Y0102646D01*
X0166131Y0101047D02*
X0150005Y0101047D01*
X0150005Y0099449D02*
X0164489Y0099449D01*
X0162848Y0097850D02*
X0150005Y0097850D01*
X0150005Y0096252D02*
X0161207Y0096252D01*
X0159566Y0094653D02*
X0150005Y0094653D01*
X0150005Y0093055D02*
X0157924Y0093055D01*
X0154125Y0091456D02*
X0150005Y0091456D01*
X0150005Y0089858D02*
X0152994Y0089858D01*
X0152791Y0088259D02*
X0150005Y0088259D01*
X0150005Y0086661D02*
X0152698Y0086661D01*
X0152698Y0085062D02*
X0150005Y0085062D01*
X0158363Y0080266D02*
X0268528Y0080266D01*
X0266930Y0078668D02*
X0158363Y0078668D01*
X0144194Y0069077D02*
X0090750Y0069077D01*
X0090750Y0070675D02*
X0142596Y0070675D01*
X0140997Y0072274D02*
X0090750Y0072274D01*
X0090750Y0073872D02*
X0139399Y0073872D01*
X0122385Y0081865D02*
X0121927Y0081865D01*
X0117956Y0078668D02*
X0090750Y0078668D01*
X0090750Y0080266D02*
X0116809Y0080266D01*
X0115692Y0081865D02*
X0099608Y0081865D01*
X0099608Y0083463D02*
X0115144Y0083463D01*
X0115144Y0085062D02*
X0099608Y0085062D01*
X0099608Y0086661D02*
X0115144Y0086661D01*
X0115810Y0088259D02*
X0099608Y0088259D01*
X0095509Y0088259D02*
X0082893Y0088259D01*
X0082895Y0086661D02*
X0095509Y0086661D01*
X0095509Y0085062D02*
X0082897Y0085062D01*
X0082899Y0083463D02*
X0086879Y0083463D01*
X0086650Y0081865D02*
X0082901Y0081865D01*
X0082903Y0080266D02*
X0086650Y0080266D01*
X0086650Y0078668D02*
X0082904Y0078668D01*
X0082906Y0077069D02*
X0086650Y0077069D01*
X0086650Y0075471D02*
X0082908Y0075471D01*
X0082910Y0073872D02*
X0086650Y0073872D01*
X0086650Y0072274D02*
X0082912Y0072274D01*
X0082914Y0070675D02*
X0086650Y0070675D01*
X0086650Y0069077D02*
X0082916Y0069077D01*
X0082918Y0067478D02*
X0086650Y0067478D01*
X0086650Y0065880D02*
X0082919Y0065880D01*
X0082921Y0064281D02*
X0086650Y0064281D01*
X0086650Y0062683D02*
X0082923Y0062683D01*
X0082925Y0061084D02*
X0086650Y0061084D01*
X0086650Y0059486D02*
X0082927Y0059486D01*
X0082929Y0057887D02*
X0086650Y0057887D01*
X0090750Y0057887D02*
X0213188Y0057887D01*
X0211590Y0059486D02*
X0090750Y0059486D01*
X0090750Y0061084D02*
X0209991Y0061084D01*
X0208393Y0062683D02*
X0090750Y0062683D01*
X0090750Y0064281D02*
X0206794Y0064281D01*
X0205196Y0065880D02*
X0090750Y0065880D01*
X0090750Y0067478D02*
X0203597Y0067478D01*
X0206057Y0070675D02*
X0207839Y0070675D01*
X0207656Y0069077D02*
X0209438Y0069077D01*
X0209254Y0067478D02*
X0211037Y0067478D01*
X0210853Y0065880D02*
X0212635Y0065880D01*
X0212451Y0064281D02*
X0214234Y0064281D01*
X0214050Y0062683D02*
X0215832Y0062683D01*
X0215648Y0061084D02*
X0217431Y0061084D01*
X0217247Y0059486D02*
X0219029Y0059486D01*
X0218845Y0057887D02*
X0220628Y0057887D01*
X0220444Y0056289D02*
X0221515Y0056289D01*
X0216385Y0054690D02*
X0090750Y0054690D01*
X0090750Y0056289D02*
X0214787Y0056289D01*
X0200036Y0048296D02*
X0099608Y0048296D01*
X0099608Y0046698D02*
X0200036Y0046698D01*
X0204459Y0072274D02*
X0206241Y0072274D01*
X0205562Y0105298D02*
X0209124Y0105298D01*
X0211643Y0107817D01*
X0211643Y0111379D01*
X0209124Y0113898D01*
X0205562Y0113898D01*
X0203043Y0111379D01*
X0203043Y0107817D01*
X0205562Y0105298D01*
X0205017Y0105843D02*
X0199669Y0105843D01*
X0199124Y0105298D02*
X0201643Y0107817D01*
X0201643Y0111379D01*
X0199124Y0113898D01*
X0195562Y0113898D01*
X0193043Y0111379D01*
X0193043Y0107817D01*
X0195562Y0105298D01*
X0199124Y0105298D01*
X0201267Y0107441D02*
X0203418Y0107441D01*
X0203043Y0109040D02*
X0201643Y0109040D01*
X0201643Y0110638D02*
X0203043Y0110638D01*
X0203901Y0112237D02*
X0200785Y0112237D01*
X0199186Y0113835D02*
X0205499Y0113835D01*
X0205562Y0115298D02*
X0209124Y0115298D01*
X0211643Y0117817D01*
X0211643Y0121379D01*
X0209124Y0123898D01*
X0205562Y0123898D01*
X0203043Y0121379D01*
X0203043Y0117817D01*
X0205562Y0115298D01*
X0205426Y0115434D02*
X0199260Y0115434D01*
X0199124Y0115298D02*
X0201643Y0117817D01*
X0201643Y0121379D01*
X0199124Y0123898D01*
X0195562Y0123898D01*
X0193043Y0121379D01*
X0193043Y0117817D01*
X0195562Y0115298D01*
X0199124Y0115298D01*
X0200858Y0117032D02*
X0203827Y0117032D01*
X0203043Y0118631D02*
X0201643Y0118631D01*
X0201643Y0120229D02*
X0203043Y0120229D01*
X0203492Y0121828D02*
X0201194Y0121828D01*
X0199595Y0123426D02*
X0205090Y0123426D01*
X0209595Y0123426D02*
X0215090Y0123426D01*
X0213492Y0121828D02*
X0211194Y0121828D01*
X0211643Y0120229D02*
X0213043Y0120229D01*
X0213043Y0118631D02*
X0211643Y0118631D01*
X0210858Y0117032D02*
X0213827Y0117032D01*
X0215426Y0115434D02*
X0209260Y0115434D01*
X0209186Y0113835D02*
X0215499Y0113835D01*
X0213901Y0112237D02*
X0210785Y0112237D01*
X0211643Y0110638D02*
X0213043Y0110638D01*
X0213043Y0109040D02*
X0211643Y0109040D01*
X0211267Y0107441D02*
X0213418Y0107441D01*
X0215017Y0105843D02*
X0209669Y0105843D01*
X0195017Y0105843D02*
X0189669Y0105843D01*
X0189124Y0105298D02*
X0191643Y0107817D01*
X0191643Y0111379D01*
X0189124Y0113898D01*
X0185562Y0113898D01*
X0183043Y0111379D01*
X0183043Y0107817D01*
X0185562Y0105298D01*
X0189124Y0105298D01*
X0191267Y0107441D02*
X0193418Y0107441D01*
X0193043Y0109040D02*
X0191643Y0109040D01*
X0191643Y0110638D02*
X0193043Y0110638D01*
X0193901Y0112237D02*
X0190785Y0112237D01*
X0189186Y0113835D02*
X0195499Y0113835D01*
X0195426Y0115434D02*
X0189260Y0115434D01*
X0189124Y0115298D02*
X0191643Y0117817D01*
X0191643Y0121379D01*
X0189124Y0123898D01*
X0185562Y0123898D01*
X0183043Y0121379D01*
X0183043Y0117817D01*
X0185562Y0115298D01*
X0189124Y0115298D01*
X0190858Y0117032D02*
X0193827Y0117032D01*
X0193043Y0118631D02*
X0191643Y0118631D01*
X0191643Y0120229D02*
X0193043Y0120229D01*
X0193492Y0121828D02*
X0191194Y0121828D01*
X0189595Y0123426D02*
X0195090Y0123426D01*
X0185090Y0123426D02*
X0179595Y0123426D01*
X0179124Y0123898D02*
X0175562Y0123898D01*
X0173043Y0121379D01*
X0173043Y0117817D01*
X0175562Y0115298D01*
X0179124Y0115298D01*
X0181643Y0117817D01*
X0181643Y0121379D01*
X0179124Y0123898D01*
X0181194Y0121828D02*
X0183492Y0121828D01*
X0183043Y0120229D02*
X0181643Y0120229D01*
X0181643Y0118631D02*
X0183043Y0118631D01*
X0183827Y0117032D02*
X0180858Y0117032D01*
X0179260Y0115434D02*
X0185426Y0115434D01*
X0185499Y0113835D02*
X0179186Y0113835D01*
X0179124Y0113898D02*
X0175562Y0113898D01*
X0173043Y0111379D01*
X0173043Y0107817D01*
X0175562Y0105298D01*
X0179124Y0105298D01*
X0181643Y0107817D01*
X0181643Y0111379D01*
X0179124Y0113898D01*
X0180785Y0112237D02*
X0183901Y0112237D01*
X0183043Y0110638D02*
X0181643Y0110638D01*
X0181643Y0109040D02*
X0183043Y0109040D01*
X0183418Y0107441D02*
X0181267Y0107441D01*
X0179669Y0105843D02*
X0185017Y0105843D01*
X0175017Y0105843D02*
X0150005Y0105843D01*
X0150005Y0107441D02*
X0173418Y0107441D01*
X0173043Y0109040D02*
X0150005Y0109040D01*
X0150005Y0110638D02*
X0173043Y0110638D01*
X0173901Y0112237D02*
X0150005Y0112237D01*
X0150005Y0113835D02*
X0175499Y0113835D01*
X0175426Y0115434D02*
X0150005Y0115434D01*
X0150005Y0117032D02*
X0173827Y0117032D01*
X0173043Y0118631D02*
X0150005Y0118631D01*
X0150005Y0120229D02*
X0173043Y0120229D01*
X0173492Y0121828D02*
X0150005Y0121828D01*
X0150005Y0123426D02*
X0175090Y0123426D01*
X0168793Y0133017D02*
X0232208Y0133017D01*
X0232508Y0134616D02*
X0168793Y0134616D01*
X0166938Y0139411D02*
X0178273Y0139411D01*
X0178273Y0141010D02*
X0168493Y0141010D01*
X0168493Y0142608D02*
X0178273Y0142608D01*
X0178355Y0144207D02*
X0177435Y0144207D01*
X0174558Y0144207D02*
X0168493Y0144207D01*
X0167216Y0145805D02*
X0173186Y0145805D01*
X0178095Y0149002D02*
X0178573Y0149002D01*
X0178573Y0150601D02*
X0178056Y0150601D01*
X0185510Y0150601D02*
X0185574Y0150601D01*
X0182226Y0141010D02*
X0181857Y0141010D01*
X0181857Y0139411D02*
X0182226Y0139411D01*
X0182226Y0137813D02*
X0181857Y0137813D01*
X0179107Y0137813D02*
X0151532Y0137813D01*
X0151579Y0136214D02*
X0151223Y0136214D01*
X0151093Y0139411D02*
X0151448Y0139411D01*
X0149893Y0141010D02*
X0149079Y0141010D01*
X0149893Y0142608D02*
X0147220Y0142608D01*
X0146985Y0141010D02*
X0146010Y0141010D01*
X0144971Y0139411D02*
X0141772Y0139411D01*
X0139902Y0137813D02*
X0144532Y0137813D01*
X0144841Y0136214D02*
X0138032Y0136214D01*
X0136163Y0134616D02*
X0146005Y0134616D01*
X0146005Y0133017D02*
X0139825Y0133017D01*
X0140728Y0131419D02*
X0146005Y0131419D01*
X0146005Y0129820D02*
X0140723Y0129820D01*
X0139814Y0128222D02*
X0146005Y0128222D01*
X0150005Y0128222D02*
X0162213Y0128222D01*
X0160615Y0129820D02*
X0157347Y0129820D01*
X0158493Y0131419D02*
X0159593Y0131419D01*
X0159593Y0133017D02*
X0158493Y0133017D01*
X0158406Y0134616D02*
X0159593Y0134616D01*
X0161155Y0136214D02*
X0156807Y0136214D01*
X0156938Y0139411D02*
X0161448Y0139411D01*
X0159893Y0141010D02*
X0158493Y0141010D01*
X0158493Y0142608D02*
X0159893Y0142608D01*
X0159893Y0144207D02*
X0158493Y0144207D01*
X0157216Y0145805D02*
X0161170Y0145805D01*
X0151170Y0145805D02*
X0146990Y0145805D01*
X0147479Y0144207D02*
X0149893Y0144207D01*
X0149951Y0147404D02*
X0144735Y0147404D01*
X0134710Y0133017D02*
X0134293Y0133017D01*
X0133808Y0131419D02*
X0132423Y0131419D01*
X0150005Y0129820D02*
X0151039Y0129820D01*
X0150005Y0126623D02*
X0263366Y0126623D01*
X0263366Y0125025D02*
X0150005Y0125025D01*
X0195597Y0141010D02*
X0196092Y0141010D01*
X0236203Y0147404D02*
X0263366Y0147404D01*
X0263366Y0149002D02*
X0262829Y0149002D01*
X0267366Y0145805D02*
X0267469Y0145805D01*
X0267366Y0139411D02*
X0267747Y0139411D01*
X0273106Y0136214D02*
X0275620Y0136214D01*
X0275620Y0134616D02*
X0274705Y0134616D01*
X0274792Y0133017D02*
X0275620Y0133017D01*
X0275620Y0131419D02*
X0274792Y0131419D01*
X0275620Y0129820D02*
X0273646Y0129820D01*
X0275620Y0128222D02*
X0267366Y0128222D01*
X0267366Y0126623D02*
X0275620Y0126623D01*
X0275620Y0125025D02*
X0267366Y0125025D01*
X0267366Y0123426D02*
X0275620Y0123426D01*
X0275620Y0121828D02*
X0267366Y0121828D01*
X0267077Y0120229D02*
X0275620Y0120229D01*
X0275620Y0118631D02*
X0267077Y0118631D01*
X0266946Y0117032D02*
X0275620Y0117032D01*
X0275620Y0115434D02*
X0265372Y0115434D01*
X0267037Y0113835D02*
X0275620Y0113835D01*
X0275620Y0112237D02*
X0267037Y0112237D01*
X0267037Y0110638D02*
X0275620Y0110638D01*
X0275620Y0109040D02*
X0267037Y0109040D01*
X0265407Y0107441D02*
X0275620Y0107441D01*
X0275620Y0105843D02*
X0263808Y0105843D01*
X0262210Y0104244D02*
X0275620Y0104244D01*
X0275620Y0102646D02*
X0260611Y0102646D01*
X0243827Y0117032D02*
X0240858Y0117032D01*
X0240350Y0115434D02*
X0239260Y0115434D01*
X0241643Y0118631D02*
X0243043Y0118631D01*
X0243043Y0120229D02*
X0241643Y0120229D01*
X0241194Y0121828D02*
X0243492Y0121828D01*
X0245090Y0123426D02*
X0239595Y0123426D01*
X0238640Y0127606D02*
X0239050Y0127843D01*
X0239385Y0128178D01*
X0239622Y0128589D01*
X0239745Y0129047D01*
X0239745Y0131265D01*
X0236161Y0131265D01*
X0236161Y0127483D01*
X0238182Y0127483D01*
X0238640Y0127606D01*
X0239410Y0128222D02*
X0263366Y0128222D01*
X0263366Y0123426D02*
X0249595Y0123426D01*
X0251194Y0121828D02*
X0253054Y0121828D01*
X0257338Y0129820D02*
X0239745Y0129820D01*
X0236161Y0129820D02*
X0235792Y0129820D01*
X0235792Y0128222D02*
X0236161Y0128222D01*
X0239445Y0139411D02*
X0257747Y0139411D01*
X0256192Y0141010D02*
X0239363Y0141010D01*
X0237876Y0142608D02*
X0256192Y0142608D01*
X0256192Y0144207D02*
X0237571Y0144207D01*
X0237355Y0145805D02*
X0257469Y0145805D01*
X0251912Y0156995D02*
X0246545Y0156995D01*
X0246545Y0158594D02*
X0253510Y0158594D01*
X0255109Y0160192D02*
X0246545Y0160192D01*
X0246472Y0161791D02*
X0256192Y0161791D01*
X0256192Y0163389D02*
X0246245Y0163389D01*
X0246245Y0164988D02*
X0256652Y0164988D01*
X0255786Y0166586D02*
X0246245Y0166586D01*
X0245497Y0184170D02*
X0239476Y0184170D01*
X0242929Y0199460D02*
X0242929Y0200247D01*
X0242582Y0200595D01*
X0242870Y0200883D01*
X0243107Y0201293D01*
X0243229Y0201751D01*
X0243229Y0203969D01*
X0239645Y0203969D01*
X0239645Y0204338D01*
X0243229Y0204338D01*
X0243229Y0204524D01*
X0243376Y0204171D01*
X0244360Y0203187D01*
X0245647Y0202654D01*
X0247039Y0202654D01*
X0248325Y0203187D01*
X0249310Y0204171D01*
X0249791Y0205333D01*
X0249791Y0204070D01*
X0243624Y0199460D01*
X0242929Y0199460D01*
X0242929Y0200155D02*
X0244553Y0200155D01*
X0243229Y0201753D02*
X0246692Y0201753D01*
X0248490Y0203352D02*
X0248831Y0203352D01*
X0249633Y0204950D02*
X0249791Y0204950D01*
X0249791Y0208147D02*
X0249299Y0208147D01*
X0249791Y0209746D02*
X0245579Y0209746D01*
X0243981Y0211344D02*
X0249791Y0211344D01*
X0249305Y0212943D02*
X0242382Y0212943D01*
X0240784Y0214541D02*
X0247172Y0214541D01*
X0245040Y0216140D02*
X0243954Y0216140D01*
X0241651Y0216140D02*
X0239185Y0216140D01*
X0239300Y0217738D02*
X0236729Y0217738D01*
X0237402Y0219337D02*
X0238554Y0219337D01*
X0238502Y0220935D02*
X0237402Y0220935D01*
X0237091Y0222534D02*
X0239066Y0222534D01*
X0240777Y0224132D02*
X0235492Y0224132D01*
X0244828Y0224132D02*
X0319652Y0224132D01*
X0319650Y0222534D02*
X0246538Y0222534D01*
X0247102Y0220935D02*
X0319647Y0220935D01*
X0319644Y0219337D02*
X0247444Y0219337D01*
X0249576Y0217738D02*
X0319642Y0217738D01*
X0319639Y0216140D02*
X0251709Y0216140D01*
X0253674Y0214541D02*
X0319637Y0214541D01*
X0319634Y0212943D02*
X0253814Y0212943D01*
X0253791Y0211344D02*
X0319631Y0211344D01*
X0319629Y0209746D02*
X0253791Y0209746D01*
X0244195Y0203352D02*
X0243229Y0203352D01*
X0239645Y0204950D02*
X0239277Y0204950D01*
X0239277Y0206549D02*
X0239645Y0206549D01*
X0241521Y0208147D02*
X0231922Y0208147D01*
X0232135Y0209746D02*
X0239922Y0209746D01*
X0238324Y0211344D02*
X0231596Y0211344D01*
X0236725Y0212943D02*
X0193032Y0212943D01*
X0192062Y0211972D02*
X0192062Y0211972D01*
X0190546Y0211344D02*
X0225673Y0211344D01*
X0234778Y0206549D02*
X0235692Y0206549D01*
X0235692Y0204950D02*
X0234778Y0204950D01*
X0234778Y0203352D02*
X0235692Y0203352D01*
X0235692Y0201753D02*
X0234776Y0201753D01*
X0234478Y0200155D02*
X0235992Y0200155D01*
X0210127Y0233724D02*
X0210072Y0233724D01*
X0188502Y0220935D02*
X0187102Y0220935D01*
X0187102Y0219337D02*
X0188502Y0219337D01*
X0189300Y0217738D02*
X0186305Y0217738D01*
X0180899Y0216140D02*
X0142118Y0216140D01*
X0142118Y0217738D02*
X0179300Y0217738D01*
X0178502Y0219337D02*
X0142118Y0219337D01*
X0142118Y0220935D02*
X0178502Y0220935D01*
X0178502Y0228928D02*
X0169979Y0228928D01*
X0168889Y0232125D02*
X0166669Y0232125D01*
X0166224Y0233724D02*
X0167754Y0233724D01*
X0167549Y0235322D02*
X0165507Y0235322D01*
X0166827Y0241716D02*
X0167195Y0241716D01*
X0167195Y0243315D02*
X0166827Y0243315D01*
X0163642Y0248110D02*
X0162921Y0248110D01*
X0153929Y0265694D02*
X0141960Y0265694D01*
X0140362Y0267292D02*
X0153929Y0267292D01*
X0153929Y0268891D02*
X0151833Y0268891D01*
X0149669Y0268891D02*
X0138763Y0268891D01*
X0137165Y0270489D02*
X0147684Y0270489D01*
X0147251Y0272088D02*
X0135566Y0272088D01*
X0133968Y0273686D02*
X0147566Y0273686D01*
X0148978Y0275285D02*
X0133322Y0275285D01*
X0128688Y0267292D02*
X0110456Y0267292D01*
X0110456Y0265694D02*
X0128306Y0265694D01*
X0128754Y0264095D02*
X0110456Y0264095D01*
X0082662Y0284876D02*
X0141352Y0284876D01*
X0141843Y0286474D02*
X0082660Y0286474D01*
X0082658Y0288073D02*
X0143077Y0288073D01*
X0143096Y0289671D02*
X0082656Y0289671D01*
X0082655Y0291270D02*
X0143116Y0291270D01*
X0143136Y0292868D02*
X0082653Y0292868D01*
X0082651Y0294467D02*
X0143156Y0294467D01*
X0143175Y0296066D02*
X0082649Y0296066D01*
X0082647Y0297664D02*
X0143955Y0297664D01*
X0145553Y0299263D02*
X0082645Y0299263D01*
X0082643Y0300861D02*
X0147152Y0300861D01*
X0147707Y0302460D02*
X0082641Y0302460D01*
X0082639Y0304058D02*
X0147707Y0304058D01*
X0148406Y0305657D02*
X0082638Y0305657D01*
X0082636Y0307255D02*
X0147707Y0307255D01*
X0147707Y0308854D02*
X0082634Y0308854D01*
X0082632Y0310452D02*
X0147707Y0310452D01*
X0148222Y0312051D02*
X0082630Y0312051D01*
X0082628Y0313649D02*
X0138980Y0313649D01*
X0138847Y0313746D02*
X0139427Y0313325D01*
X0140065Y0313000D01*
X0140746Y0312778D01*
X0141453Y0312666D01*
X0141736Y0312666D01*
X0141736Y0317141D01*
X0137262Y0317141D01*
X0137262Y0316858D01*
X0137374Y0316151D01*
X0137595Y0315470D01*
X0137920Y0314832D01*
X0138341Y0314252D01*
X0138847Y0313746D01*
X0137708Y0315248D02*
X0082626Y0315248D01*
X0082624Y0316846D02*
X0137263Y0316846D01*
X0137262Y0317291D02*
X0141736Y0317291D01*
X0141736Y0317141D01*
X0141887Y0317141D01*
X0141887Y0317291D01*
X0146361Y0317291D01*
X0146361Y0317574D01*
X0146249Y0318282D01*
X0146028Y0318963D01*
X0145703Y0319601D01*
X0145282Y0320180D01*
X0144776Y0320687D01*
X0144196Y0321108D01*
X0143558Y0321433D01*
X0142877Y0321654D01*
X0142170Y0321766D01*
X0141887Y0321766D01*
X0141887Y0317291D01*
X0141736Y0317291D01*
X0141736Y0321766D01*
X0141453Y0321766D01*
X0140746Y0321654D01*
X0140065Y0321433D01*
X0139427Y0321108D01*
X0138847Y0320687D01*
X0138341Y0320180D01*
X0137920Y0319601D01*
X0137595Y0318963D01*
X0137374Y0318282D01*
X0137262Y0317574D01*
X0137262Y0317291D01*
X0137426Y0318445D02*
X0082623Y0318445D01*
X0082621Y0320043D02*
X0138241Y0320043D01*
X0140707Y0321642D02*
X0082619Y0321642D01*
X0082617Y0323240D02*
X0145305Y0323240D01*
X0145966Y0322966D02*
X0147657Y0322966D01*
X0149219Y0323613D01*
X0150414Y0324809D01*
X0151061Y0326371D01*
X0151061Y0328062D01*
X0150414Y0329624D01*
X0149219Y0330819D01*
X0147657Y0331466D01*
X0145966Y0331466D01*
X0144404Y0330819D01*
X0143209Y0329624D01*
X0142562Y0328062D01*
X0142562Y0326371D01*
X0143209Y0324809D01*
X0144404Y0323613D01*
X0145966Y0322966D01*
X0148318Y0323240D02*
X0154812Y0323240D01*
X0154812Y0321642D02*
X0142916Y0321642D01*
X0141887Y0321642D02*
X0141736Y0321642D01*
X0141736Y0320043D02*
X0141887Y0320043D01*
X0141887Y0318445D02*
X0141736Y0318445D01*
X0141887Y0317141D02*
X0146361Y0317141D01*
X0146361Y0316858D01*
X0146249Y0316151D01*
X0146028Y0315470D01*
X0145703Y0314832D01*
X0145282Y0314252D01*
X0144776Y0313746D01*
X0144196Y0313325D01*
X0143558Y0313000D01*
X0142877Y0312778D01*
X0142170Y0312666D01*
X0141887Y0312666D01*
X0141887Y0317141D01*
X0141887Y0316846D02*
X0141736Y0316846D01*
X0141736Y0315248D02*
X0141887Y0315248D01*
X0141887Y0313649D02*
X0141736Y0313649D01*
X0144643Y0313649D02*
X0149368Y0313649D01*
X0148027Y0315248D02*
X0145915Y0315248D01*
X0146360Y0316846D02*
X0147562Y0316846D01*
X0147720Y0318445D02*
X0146197Y0318445D01*
X0145382Y0320043D02*
X0148628Y0320043D01*
X0150427Y0324839D02*
X0153196Y0324839D01*
X0152562Y0326437D02*
X0151061Y0326437D01*
X0151061Y0328036D02*
X0152562Y0328036D01*
X0153219Y0329634D02*
X0150404Y0329634D01*
X0148221Y0331233D02*
X0155402Y0331233D01*
X0161061Y0328036D02*
X0162562Y0328036D01*
X0162562Y0326437D02*
X0161061Y0326437D01*
X0160427Y0324839D02*
X0163196Y0324839D01*
X0165305Y0323240D02*
X0158811Y0323240D01*
X0160215Y0321642D02*
X0179558Y0321642D01*
X0181030Y0320043D02*
X0174995Y0320043D01*
X0175903Y0318445D02*
X0181162Y0318445D01*
X0181162Y0316846D02*
X0176061Y0316846D01*
X0176609Y0315248D02*
X0181162Y0315248D01*
X0181180Y0313649D02*
X0178207Y0313649D01*
X0180180Y0312051D02*
X0182854Y0312051D01*
X0182854Y0310452D02*
X0180180Y0310452D01*
X0180180Y0308854D02*
X0181332Y0308854D01*
X0172850Y0310452D02*
X0172192Y0310452D01*
X0172850Y0312051D02*
X0170593Y0312051D01*
X0169368Y0313649D02*
X0168995Y0313649D01*
X0168027Y0315248D02*
X0167396Y0315248D01*
X0167562Y0316846D02*
X0166061Y0316846D01*
X0165903Y0318445D02*
X0167720Y0318445D01*
X0168628Y0320043D02*
X0164995Y0320043D01*
X0168318Y0323240D02*
X0175305Y0323240D01*
X0173196Y0324839D02*
X0170427Y0324839D01*
X0171061Y0326437D02*
X0172562Y0326437D01*
X0172562Y0328036D02*
X0171061Y0328036D01*
X0172058Y0329634D02*
X0173219Y0329634D01*
X0174438Y0331233D02*
X0175402Y0331233D01*
X0165402Y0331233D02*
X0163599Y0331233D01*
X0163219Y0329634D02*
X0162058Y0329634D01*
X0156156Y0320043D02*
X0154995Y0320043D01*
X0155909Y0318445D02*
X0157720Y0318445D01*
X0156811Y0318152D02*
X0156811Y0318152D01*
X0156059Y0313649D02*
X0154255Y0313649D01*
X0154522Y0312051D02*
X0157511Y0312051D01*
X0158267Y0310452D02*
X0155037Y0310452D01*
X0155037Y0308854D02*
X0158648Y0308854D01*
X0158689Y0307255D02*
X0155037Y0307255D01*
X0154338Y0305657D02*
X0158689Y0305657D01*
X0158689Y0304058D02*
X0155037Y0304058D01*
X0155037Y0302460D02*
X0158689Y0302460D01*
X0158689Y0300861D02*
X0155037Y0300861D01*
X0154637Y0299263D02*
X0158749Y0299263D01*
X0159572Y0297664D02*
X0149612Y0297664D01*
X0162043Y0312051D02*
X0164916Y0312051D01*
X0166514Y0310452D02*
X0162562Y0310452D01*
X0162689Y0308854D02*
X0168113Y0308854D01*
X0169711Y0307255D02*
X0162689Y0307255D01*
X0162689Y0305657D02*
X0171310Y0305657D01*
X0172850Y0304058D02*
X0162689Y0304058D01*
X0164676Y0302460D02*
X0172850Y0302460D01*
X0172850Y0300861D02*
X0165654Y0300861D01*
X0165749Y0299263D02*
X0177866Y0299263D01*
X0179464Y0297664D02*
X0164925Y0297664D01*
X0165117Y0275285D02*
X0152524Y0275285D01*
X0143196Y0324839D02*
X0082615Y0324839D01*
X0082613Y0326437D02*
X0142562Y0326437D01*
X0142562Y0328036D02*
X0082611Y0328036D01*
X0082609Y0329634D02*
X0143219Y0329634D01*
X0145402Y0331233D02*
X0082608Y0331233D01*
X0090458Y0344021D02*
X0092548Y0344021D01*
X0092021Y0345619D02*
X0089310Y0345619D01*
X0139172Y0360006D02*
X0146992Y0360006D01*
X0146992Y0358407D02*
X0142076Y0358407D01*
X0143674Y0356809D02*
X0146992Y0356809D01*
X0176119Y0369597D02*
X0180136Y0369597D01*
X0181365Y0367999D02*
X0178054Y0367999D01*
X0178711Y0366400D02*
X0181232Y0366400D01*
X0179633Y0364801D02*
X0178711Y0364801D01*
X0190534Y0208147D02*
X0190903Y0208147D01*
X0190903Y0206549D02*
X0190534Y0206549D01*
X0190534Y0204950D02*
X0190903Y0204950D01*
X0134636Y0185768D02*
X0134475Y0185768D01*
X0115164Y0192162D02*
X0110456Y0192162D01*
X0110456Y0190564D02*
X0111188Y0190564D01*
X0095509Y0104244D02*
X0082874Y0104244D01*
X0082876Y0102646D02*
X0095509Y0102646D01*
X0095509Y0101047D02*
X0082878Y0101047D01*
X0082880Y0099449D02*
X0095509Y0099449D01*
X0095509Y0097850D02*
X0082882Y0097850D01*
X0082884Y0096252D02*
X0095509Y0096252D01*
X0095509Y0094653D02*
X0082886Y0094653D01*
X0082888Y0093055D02*
X0095509Y0093055D01*
X0095509Y0091456D02*
X0082889Y0091456D01*
X0082891Y0089858D02*
X0095509Y0089858D01*
X0090750Y0077069D02*
X0119555Y0077069D01*
X0121153Y0075471D02*
X0090750Y0075471D01*
X0257039Y0048296D02*
X0302005Y0048296D01*
X0302005Y0046698D02*
X0257039Y0046698D01*
X0301455Y0045099D02*
X0302005Y0045099D01*
X0302005Y0043501D02*
X0301814Y0043501D01*
X0301814Y0041902D02*
X0302005Y0041902D01*
X0302005Y0040304D02*
X0301814Y0040304D01*
X0301814Y0038705D02*
X0302005Y0038705D01*
X0302005Y0037107D02*
X0301814Y0037107D01*
X0301814Y0035508D02*
X0302005Y0035508D01*
X0302005Y0033910D02*
X0301814Y0033910D01*
X0301814Y0032311D02*
X0302005Y0032311D01*
X0302005Y0030713D02*
X0301814Y0030713D01*
X0301814Y0029114D02*
X0302005Y0029114D01*
X0306301Y0086661D02*
X0319427Y0086661D01*
X0319430Y0088259D02*
X0306301Y0088259D01*
X0306301Y0089858D02*
X0319432Y0089858D01*
X0319435Y0091456D02*
X0306301Y0091456D01*
X0306301Y0093055D02*
X0319438Y0093055D01*
X0319440Y0094653D02*
X0306301Y0094653D01*
X0306301Y0096252D02*
X0319443Y0096252D01*
X0319445Y0097850D02*
X0306301Y0097850D01*
X0306301Y0099449D02*
X0319448Y0099449D01*
X0319451Y0101047D02*
X0306301Y0101047D01*
X0306301Y0102646D02*
X0319453Y0102646D01*
X0319456Y0104244D02*
X0306301Y0104244D01*
X0305859Y0105843D02*
X0319458Y0105843D01*
X0275620Y0149002D02*
X0273253Y0149002D01*
X0274851Y0150601D02*
X0275620Y0150601D01*
X0275620Y0152199D02*
X0275092Y0152199D01*
X0275092Y0153798D02*
X0275620Y0153798D01*
X0275620Y0155397D02*
X0274348Y0155397D01*
X0275620Y0156995D02*
X0272750Y0156995D01*
D22*
X0265366Y0157874D02*
X0260492Y0162747D01*
X0251711Y0153966D01*
X0248046Y0152408D01*
X0257272Y0167929D02*
X0273289Y0167929D01*
X0277620Y0163597D01*
X0277620Y0086530D01*
X0255039Y0063949D01*
X0255039Y0035260D01*
X0223543Y0035260D02*
X0223515Y0035287D01*
X0223515Y0057828D01*
X0204995Y0076349D01*
X0150936Y0076349D01*
X0148005Y0079279D01*
X0148005Y0081238D01*
X0148005Y0138717D01*
X0148032Y0137655D01*
X0143979Y0143929D02*
X0118723Y0122338D01*
X0118809Y0085003D01*
X0118809Y0080643D01*
X0122975Y0076477D01*
X0139622Y0076477D01*
X0145510Y0070589D01*
X0145673Y0070752D01*
X0203152Y0070752D01*
X0220393Y0053511D01*
X0220393Y0035260D01*
X0223543Y0035260D02*
X0223370Y0036320D01*
X0230870Y0103223D02*
X0171231Y0103223D01*
X0156291Y0088673D01*
X0154698Y0087079D01*
X0154698Y0081238D01*
X0125502Y0085003D02*
X0125502Y0118860D01*
X0137268Y0130625D01*
X0175399Y0139519D02*
X0177283Y0139519D01*
X0178638Y0141304D01*
X0182042Y0148192D02*
X0186696Y0148146D01*
X0187776Y0147852D01*
X0188823Y0144378D02*
X0187588Y0143144D01*
X0188823Y0144378D02*
X0192710Y0144378D01*
X0171982Y0172899D02*
X0167454Y0177427D01*
X0144357Y0177427D01*
X0136636Y0184917D01*
X0136636Y0199531D01*
X0129018Y0207380D01*
X0131718Y0207295D02*
X0131718Y0250200D01*
X0134720Y0256365D02*
X0134720Y0207033D01*
X0140554Y0201199D01*
X0140554Y0189017D01*
X0140547Y0189010D01*
X0141941Y0187617D01*
X0157788Y0187617D01*
X0162658Y0182747D01*
X0164193Y0182747D01*
X0164193Y0192747D02*
X0159661Y0197279D01*
X0146794Y0197279D01*
X0145415Y0198658D01*
X0145415Y0201997D01*
X0140118Y0207294D01*
X0140118Y0264707D01*
X0131191Y0273635D01*
X0130758Y0273635D01*
X0131306Y0265774D02*
X0131512Y0265774D01*
X0137367Y0259920D01*
X0137367Y0207163D01*
X0143005Y0201524D01*
X0143005Y0193119D01*
X0144259Y0191865D01*
X0153310Y0191865D01*
X0154193Y0192747D01*
X0154193Y0182747D02*
X0141596Y0182747D01*
X0138674Y0185471D01*
X0138674Y0200141D01*
X0131718Y0207295D01*
X0123840Y0191167D02*
X0116997Y0191167D01*
X0113824Y0187994D01*
X0123840Y0191167D02*
X0124175Y0190832D01*
X0124175Y0182696D01*
X0162457Y0224501D02*
X0157092Y0233711D01*
X0162724Y0233155D02*
X0169901Y0226223D01*
X0198518Y0226223D01*
X0202802Y0230317D01*
X0195567Y0233082D02*
X0192802Y0230317D01*
X0195567Y0233082D02*
X0195567Y0241784D01*
X0188875Y0245762D01*
X0184531Y0245762D01*
X0180615Y0249527D02*
X0178359Y0247271D01*
X0178359Y0242224D01*
X0171049Y0234914D01*
X0167011Y0244304D02*
X0156655Y0244304D01*
X0151476Y0249483D01*
X0151941Y0255309D02*
X0155271Y0256231D01*
X0157697Y0261077D01*
X0165762Y0261077D01*
X0165771Y0261086D01*
X0167011Y0253519D02*
X0167011Y0250997D01*
X0165930Y0251021D01*
X0160553Y0250692D01*
X0173824Y0262698D02*
X0176688Y0262825D01*
X0176740Y0262878D01*
X0179471Y0262878D01*
X0179748Y0263155D01*
X0183565Y0260279D02*
X0186441Y0263155D01*
X0207161Y0263155D01*
X0221925Y0248391D01*
X0222638Y0247678D01*
X0229534Y0247678D01*
X0242802Y0234410D01*
X0242802Y0230317D01*
X0242802Y0220317D02*
X0251791Y0213578D01*
X0251791Y0203068D01*
X0244289Y0197460D01*
X0239461Y0197460D01*
X0239434Y0197433D01*
X0231010Y0197473D01*
X0231999Y0197235D01*
X0231816Y0192289D01*
X0235362Y0192556D02*
X0235362Y0190850D01*
X0233145Y0188634D01*
X0232170Y0188634D01*
X0231822Y0188650D01*
X0229453Y0188650D01*
X0227666Y0188729D01*
X0226974Y0189421D01*
X0226974Y0208032D01*
X0228491Y0209278D01*
X0228530Y0209270D01*
X0228635Y0209356D01*
X0233982Y0209251D02*
X0233982Y0207138D01*
X0231010Y0204166D01*
X0233982Y0209251D02*
X0234823Y0208982D01*
X0234823Y0208791D01*
X0239461Y0204153D01*
X0241292Y0202322D01*
X0247300Y0202322D01*
X0249644Y0204665D01*
X0249644Y0212106D01*
X0246026Y0215724D01*
X0242162Y0215724D01*
X0241380Y0216505D01*
X0239489Y0216505D01*
X0235677Y0220317D01*
X0232802Y0220317D01*
X0236955Y0215542D02*
X0226461Y0215542D01*
X0222802Y0219200D01*
X0222802Y0220317D01*
X0212802Y0220317D02*
X0212802Y0222604D01*
X0208072Y0227334D01*
X0208072Y0237621D01*
X0196166Y0249527D01*
X0180615Y0249527D01*
X0175771Y0256078D02*
X0175997Y0257124D01*
X0200701Y0257124D01*
X0207877Y0251519D02*
X0211005Y0248391D01*
X0215232Y0248391D01*
X0221925Y0248391D02*
X0221925Y0247166D01*
X0198798Y0224454D02*
X0162457Y0224501D01*
X0182802Y0230317D02*
X0189746Y0237261D01*
X0191700Y0239306D01*
X0198798Y0224454D02*
X0202802Y0220317D01*
X0192802Y0220317D02*
X0192802Y0217331D01*
X0192803Y0217331D02*
X0192801Y0217200D01*
X0192795Y0217070D01*
X0192785Y0216940D01*
X0192771Y0216810D01*
X0192754Y0216681D01*
X0192732Y0216552D01*
X0192707Y0216424D01*
X0192677Y0216297D01*
X0192644Y0216170D01*
X0192607Y0216045D01*
X0192567Y0215921D01*
X0192522Y0215798D01*
X0192474Y0215677D01*
X0192422Y0215557D01*
X0192367Y0215439D01*
X0192308Y0215322D01*
X0192246Y0215208D01*
X0192180Y0215095D01*
X0192110Y0214984D01*
X0192038Y0214876D01*
X0191962Y0214770D01*
X0191883Y0214666D01*
X0191801Y0214564D01*
X0191716Y0214465D01*
X0191628Y0214369D01*
X0191537Y0214275D01*
X0191443Y0214184D01*
X0191347Y0214096D01*
X0191248Y0214011D01*
X0191146Y0213929D01*
X0191042Y0213850D01*
X0190936Y0213774D01*
X0190828Y0213702D01*
X0190717Y0213632D01*
X0190604Y0213566D01*
X0190490Y0213504D01*
X0190373Y0213445D01*
X0190255Y0213390D01*
X0190135Y0213338D01*
X0190014Y0213290D01*
X0189891Y0213245D01*
X0189767Y0213205D01*
X0189642Y0213168D01*
X0189515Y0213135D01*
X0189388Y0213105D01*
X0189260Y0213080D01*
X0189131Y0213058D01*
X0189002Y0213041D01*
X0188872Y0213027D01*
X0188742Y0213017D01*
X0188612Y0213011D01*
X0188481Y0213009D01*
X0188481Y0213010D02*
X0188313Y0213008D01*
X0188144Y0213002D01*
X0187976Y0212992D01*
X0187809Y0212977D01*
X0187641Y0212959D01*
X0187474Y0212937D01*
X0187308Y0212911D01*
X0187143Y0212880D01*
X0186978Y0212846D01*
X0186814Y0212808D01*
X0186651Y0212765D01*
X0186489Y0212719D01*
X0186328Y0212669D01*
X0186169Y0212615D01*
X0186011Y0212557D01*
X0185854Y0212496D01*
X0185699Y0212430D01*
X0185546Y0212361D01*
X0185394Y0212289D01*
X0185244Y0212212D01*
X0185096Y0212132D01*
X0184950Y0212048D01*
X0184805Y0211961D01*
X0184664Y0211871D01*
X0184524Y0211777D01*
X0184386Y0211680D01*
X0184252Y0211579D01*
X0184119Y0211475D01*
X0183989Y0211368D01*
X0183862Y0211258D01*
X0183737Y0211145D01*
X0183615Y0211029D01*
X0183496Y0210910D01*
X0183380Y0210788D01*
X0183267Y0210663D01*
X0183157Y0210536D01*
X0183050Y0210406D01*
X0182946Y0210273D01*
X0182845Y0210139D01*
X0182748Y0210001D01*
X0182654Y0209861D01*
X0182564Y0209720D01*
X0182477Y0209575D01*
X0182393Y0209429D01*
X0182313Y0209281D01*
X0182236Y0209131D01*
X0182164Y0208979D01*
X0182095Y0208826D01*
X0182029Y0208671D01*
X0181968Y0208514D01*
X0181910Y0208356D01*
X0181856Y0208197D01*
X0181806Y0208036D01*
X0181760Y0207874D01*
X0181717Y0207711D01*
X0181679Y0207547D01*
X0181645Y0207382D01*
X0181614Y0207217D01*
X0181588Y0207051D01*
X0181566Y0206884D01*
X0181548Y0206716D01*
X0181533Y0206549D01*
X0181523Y0206381D01*
X0181517Y0206212D01*
X0181515Y0206044D01*
X0190718Y0197901D02*
X0190718Y0193603D01*
X0192554Y0191767D01*
X0231485Y0178500D02*
X0231485Y0177131D01*
X0231447Y0177092D01*
X0237220Y0175994D02*
X0236779Y0174510D01*
X0238827Y0172889D01*
X0241901Y0172587D01*
X0237157Y0169702D02*
X0233511Y0169702D01*
X0233498Y0169716D01*
X0237220Y0175994D02*
X0241867Y0180641D01*
X0240528Y0181980D01*
X0236452Y0182326D01*
X0236480Y0187031D02*
X0238472Y0188442D01*
X0241891Y0188689D01*
X0236412Y0193607D02*
X0235362Y0192556D01*
X0236412Y0193607D02*
X0254039Y0193546D01*
X0255922Y0191663D01*
X0255922Y0169279D01*
X0257272Y0167929D01*
X0265366Y0157874D02*
X0265366Y0121707D01*
X0263412Y0119753D01*
X0263372Y0119713D01*
X0263372Y0111473D01*
X0263412Y0111433D01*
X0263412Y0108275D01*
X0258734Y0103596D01*
X0230870Y0103223D01*
X0237343Y0109598D02*
X0242321Y0114576D01*
X0251276Y0114576D01*
X0254378Y0111473D01*
X0256679Y0111473D01*
X0256564Y0119598D02*
X0247343Y0119598D01*
X0256564Y0119598D02*
X0256719Y0119753D01*
X0246343Y0206154D02*
X0236955Y0215542D01*
X0186441Y0263155D02*
X0186441Y0275500D01*
X0190622Y0279682D01*
X0190622Y0292048D01*
X0178125Y0283816D02*
X0145775Y0283816D01*
X0145033Y0284558D01*
X0145175Y0296056D01*
X0151372Y0302253D01*
X0160689Y0308339D02*
X0160686Y0308554D01*
X0160679Y0308768D01*
X0160666Y0308982D01*
X0160648Y0309196D01*
X0160624Y0309409D01*
X0160596Y0309622D01*
X0160562Y0309834D01*
X0160524Y0310045D01*
X0160480Y0310255D01*
X0160431Y0310463D01*
X0160377Y0310671D01*
X0160318Y0310877D01*
X0160255Y0311082D01*
X0160186Y0311285D01*
X0160112Y0311487D01*
X0160034Y0311686D01*
X0159950Y0311884D01*
X0159862Y0312080D01*
X0159770Y0312273D01*
X0159672Y0312464D01*
X0159570Y0312653D01*
X0159464Y0312839D01*
X0159353Y0313023D01*
X0159237Y0313204D01*
X0159118Y0313382D01*
X0158994Y0313557D01*
X0158865Y0313729D01*
X0158733Y0313898D01*
X0158597Y0314063D01*
X0158457Y0314226D01*
X0158312Y0314384D01*
X0158164Y0314540D01*
X0158013Y0314691D01*
X0157857Y0314839D01*
X0157699Y0314984D01*
X0157536Y0315124D01*
X0157371Y0315260D01*
X0157202Y0315392D01*
X0157030Y0315521D01*
X0156855Y0315645D01*
X0156677Y0315764D01*
X0156496Y0315880D01*
X0156312Y0315991D01*
X0156126Y0316097D01*
X0155937Y0316199D01*
X0155746Y0316297D01*
X0155553Y0316389D01*
X0155357Y0316477D01*
X0155159Y0316561D01*
X0154960Y0316639D01*
X0154758Y0316713D01*
X0154555Y0316782D01*
X0154350Y0316845D01*
X0154144Y0316904D01*
X0153936Y0316958D01*
X0153728Y0317007D01*
X0153518Y0317051D01*
X0153307Y0317089D01*
X0153095Y0317123D01*
X0152882Y0317151D01*
X0152669Y0317175D01*
X0152455Y0317193D01*
X0152241Y0317206D01*
X0152027Y0317213D01*
X0151812Y0317216D01*
X0151831Y0317205D01*
X0151812Y0309385D01*
X0151372Y0308946D01*
X0151372Y0308945D02*
X0151413Y0308947D01*
X0151453Y0308952D01*
X0151492Y0308962D01*
X0151531Y0308975D01*
X0151568Y0308991D01*
X0151604Y0309011D01*
X0151637Y0309034D01*
X0151668Y0309060D01*
X0151697Y0309089D01*
X0151723Y0309120D01*
X0151746Y0309153D01*
X0151766Y0309189D01*
X0151782Y0309226D01*
X0151795Y0309265D01*
X0151805Y0309304D01*
X0151810Y0309344D01*
X0151812Y0309385D01*
X0160689Y0308339D02*
X0160689Y0301497D01*
X0162249Y0299937D01*
X0174986Y0301772D02*
X0176515Y0303300D01*
X0162599Y0317216D01*
X0161812Y0317216D01*
X0162999Y0317216D01*
X0162255Y0317540D02*
X0177331Y0302463D01*
X0176515Y0303300D02*
X0178607Y0303300D01*
X0184854Y0309548D01*
X0184854Y0316230D01*
X0184827Y0316257D01*
X0182454Y0321574D02*
X0176812Y0327216D01*
X0170888Y0331293D02*
X0170888Y0333938D01*
X0170888Y0331293D02*
X0166812Y0327216D01*
X0161599Y0332004D02*
X0156812Y0327216D01*
X0156812Y0322216D01*
X0161812Y0317216D01*
X0161573Y0317216D01*
X0161573Y0317453D01*
X0161660Y0317540D01*
X0162255Y0317540D01*
X0171812Y0317216D02*
X0176515Y0312513D01*
X0176515Y0309993D01*
X0182454Y0321574D02*
X0184827Y0322950D01*
X0170888Y0340631D02*
X0170570Y0343710D01*
X0161599Y0343710D01*
X0161599Y0332004D01*
X0161599Y0343710D02*
X0160680Y0344630D01*
X0148992Y0344630D01*
X0148992Y0351322D02*
X0148992Y0366935D01*
X0144412Y0371516D01*
X0162410Y0365758D02*
X0173970Y0365758D01*
X0174212Y0365516D01*
X0175510Y0359234D02*
X0176895Y0359234D01*
X0184134Y0366474D01*
X0184134Y0371439D01*
X0184212Y0371516D01*
X0175510Y0359234D02*
X0166679Y0350403D01*
X0161599Y0350403D01*
X0178125Y0283816D02*
X0186441Y0275500D01*
X0167982Y0277369D02*
X0167982Y0273620D01*
X0166404Y0272042D01*
X0150666Y0272097D01*
X0150751Y0272231D01*
X0134720Y0256365D02*
X0134307Y0256777D01*
X0134285Y0256777D01*
X0132930Y0258133D01*
X0131275Y0258133D01*
D23*
X0115081Y0278920D03*
X0145033Y0284558D03*
X0185266Y0285800D03*
X0200701Y0257124D03*
X0207877Y0251519D03*
X0157092Y0233711D03*
X0113824Y0187994D03*
X0108156Y0161195D03*
X0175399Y0139519D03*
D24*
X0175997Y0146858D02*
X0174544Y0147862D01*
X0152180Y0147862D01*
X0150535Y0149507D01*
X0113626Y0149507D01*
X0113316Y0153305D02*
X0141128Y0153305D01*
X0141248Y0153292D01*
X0146843Y0153292D01*
X0150830Y0157244D01*
X0170885Y0157244D01*
X0175372Y0152566D01*
X0175728Y0152516D01*
X0173833Y0162077D02*
X0212056Y0162077D01*
X0223357Y0150776D01*
X0224130Y0150004D01*
X0224130Y0142549D01*
X0234072Y0144586D02*
X0235976Y0142681D01*
X0235976Y0138142D01*
X0236541Y0163820D02*
X0240791Y0163820D01*
X0242777Y0165806D01*
X0237157Y0169702D02*
X0175179Y0169702D01*
X0171982Y0172899D01*
X0168325Y0167585D02*
X0173833Y0162077D01*
X0168325Y0167585D02*
X0131405Y0167585D01*
X0129663Y0169327D01*
X0174889Y0251296D02*
X0207655Y0251296D01*
X0207877Y0251519D01*
X0183565Y0260279D02*
X0182219Y0259754D01*
X0181760Y0259296D01*
X0172326Y0259296D01*
X0167011Y0253981D01*
X0167011Y0253519D01*
X0190622Y0292048D02*
X0190622Y0293184D01*
X0185647Y0298160D01*
X0181656Y0298160D01*
X0176515Y0303300D01*
D25*
X0130758Y0273635D03*
X0131306Y0265774D03*
X0131275Y0258133D03*
X0131718Y0250200D03*
X0129018Y0207380D03*
X0129663Y0169327D03*
X0113316Y0153305D03*
X0113626Y0149507D03*
X0175728Y0152516D03*
X0175997Y0146858D03*
X0224130Y0142549D03*
M02*
