G75*
%MOIN*%
%OFA0B0*%
%FSLAX25Y25*%
%IPPOS*%
%LPD*%
%AMOC8*
5,1,8,0,0,1.08239X$1,22.5*
%
%ADD10C,0.00300*%
%ADD11C,0.02200*%
%ADD12C,0.00100*%
%ADD13R,0.01800X0.03000*%
%ADD14C,0.00400*%
D10*
X0126353Y0141757D02*
X0128822Y0141757D01*
X0130037Y0141757D02*
X0132505Y0141757D01*
X0133720Y0141757D02*
X0133720Y0144226D01*
X0134954Y0145461D01*
X0136188Y0144226D01*
X0136188Y0141757D01*
X0136188Y0143609D02*
X0133720Y0143609D01*
X0132505Y0144226D02*
X0131271Y0145461D01*
X0131271Y0141757D01*
X0128822Y0144226D02*
X0127588Y0145461D01*
X0127588Y0141757D01*
X0137403Y0143609D02*
X0138020Y0142992D01*
X0139872Y0142992D01*
X0139872Y0141757D02*
X0139872Y0145461D01*
X0138020Y0145461D01*
X0137403Y0144843D01*
X0137403Y0143609D01*
X0136436Y0150819D02*
X0138905Y0150819D01*
X0138905Y0154523D01*
X0140119Y0153905D02*
X0140737Y0154523D01*
X0141971Y0154523D01*
X0142588Y0153905D01*
X0142588Y0151437D01*
X0141971Y0150819D01*
X0140737Y0150819D01*
X0140119Y0151437D01*
X0143803Y0151437D02*
X0144420Y0150819D01*
X0145654Y0150819D01*
X0146271Y0151437D01*
X0145654Y0152671D02*
X0146271Y0153288D01*
X0146271Y0153905D01*
X0145654Y0154523D01*
X0144420Y0154523D01*
X0143803Y0153905D01*
X0144420Y0152671D02*
X0143803Y0152054D01*
X0143803Y0151437D01*
X0144420Y0152671D02*
X0145654Y0152671D01*
X0146013Y0160528D02*
X0146013Y0164231D01*
X0144161Y0164231D01*
X0143544Y0163614D01*
X0143544Y0162380D01*
X0144161Y0161763D01*
X0146013Y0161763D01*
X0142329Y0161145D02*
X0141712Y0160528D01*
X0140478Y0160528D01*
X0139861Y0161145D01*
X0138646Y0161145D02*
X0138646Y0161763D01*
X0138029Y0162380D01*
X0136795Y0162380D01*
X0136177Y0161763D01*
X0136177Y0161145D01*
X0136795Y0160528D01*
X0138029Y0160528D01*
X0138646Y0161145D01*
X0138029Y0162380D02*
X0138646Y0162997D01*
X0138646Y0163614D01*
X0138029Y0164231D01*
X0136795Y0164231D01*
X0136177Y0163614D01*
X0136177Y0162997D01*
X0136795Y0162380D01*
X0139861Y0163614D02*
X0140478Y0164231D01*
X0141712Y0164231D01*
X0142329Y0163614D01*
X0142329Y0161145D01*
X0140871Y0169007D02*
X0139636Y0169007D01*
X0139019Y0169624D01*
X0137805Y0169624D02*
X0137805Y0170859D01*
X0135953Y0170859D01*
X0135336Y0170241D01*
X0135336Y0169624D01*
X0135953Y0169007D01*
X0137188Y0169007D01*
X0137805Y0169624D01*
X0137805Y0170859D02*
X0136570Y0172093D01*
X0135336Y0172710D01*
X0139019Y0172093D02*
X0139636Y0172710D01*
X0140871Y0172710D01*
X0141488Y0172093D01*
X0141488Y0169624D01*
X0140871Y0169007D01*
X0142702Y0170859D02*
X0143320Y0170241D01*
X0145171Y0170241D01*
X0145171Y0169007D02*
X0145171Y0172710D01*
X0143320Y0172710D01*
X0142702Y0172093D01*
X0142702Y0170859D01*
X0143171Y0181758D02*
X0141319Y0181758D01*
X0140702Y0182375D01*
X0140702Y0184844D01*
X0141319Y0185461D01*
X0143171Y0185461D01*
X0143171Y0181758D01*
X0145002Y0182992D02*
X0146854Y0182992D01*
X0146854Y0181758D02*
X0146854Y0185461D01*
X0145002Y0185461D01*
X0144385Y0184844D01*
X0144385Y0183609D01*
X0145002Y0182992D01*
X0139488Y0181758D02*
X0137019Y0181758D01*
X0138253Y0181758D02*
X0138253Y0185461D01*
X0139488Y0184227D01*
X0135805Y0183609D02*
X0133336Y0183609D01*
X0133953Y0181758D02*
X0133953Y0185461D01*
X0135805Y0183609D01*
X0135503Y0189918D02*
X0133034Y0189918D01*
X0133034Y0192386D02*
X0133034Y0193003D01*
X0133651Y0193621D01*
X0134885Y0193621D01*
X0135503Y0193003D01*
X0137951Y0193621D02*
X0137951Y0189918D01*
X0136717Y0189918D02*
X0139186Y0189918D01*
X0140400Y0190535D02*
X0141017Y0189918D01*
X0142869Y0189918D01*
X0142869Y0193621D01*
X0141017Y0193621D01*
X0140400Y0193003D01*
X0140400Y0190535D01*
X0139186Y0192386D02*
X0137951Y0193621D01*
X0135503Y0189918D02*
X0133034Y0192386D01*
X0136795Y0200593D02*
X0136177Y0201210D01*
X0136177Y0203679D01*
X0136795Y0204296D01*
X0138029Y0204296D01*
X0138646Y0203679D01*
X0138646Y0203062D01*
X0138029Y0202444D01*
X0136177Y0202444D01*
X0136795Y0200593D02*
X0138029Y0200593D01*
X0138646Y0201210D01*
X0139861Y0201210D02*
X0139861Y0203679D01*
X0140478Y0204296D01*
X0142329Y0204296D01*
X0142329Y0200593D01*
X0140478Y0200593D01*
X0139861Y0201210D01*
X0143544Y0202444D02*
X0144161Y0201827D01*
X0146013Y0201827D01*
X0146013Y0200593D02*
X0146013Y0204296D01*
X0144161Y0204296D01*
X0143544Y0203679D01*
X0143544Y0202444D01*
X0144700Y0193621D02*
X0144083Y0193003D01*
X0144083Y0191769D01*
X0144700Y0191152D01*
X0146552Y0191152D01*
X0146552Y0189918D02*
X0146552Y0193621D01*
X0144700Y0193621D01*
X0170086Y0191393D02*
X0172555Y0191393D01*
X0173769Y0191393D02*
X0176238Y0191393D01*
X0175003Y0191393D02*
X0175003Y0195097D01*
X0176238Y0193862D01*
X0177452Y0194479D02*
X0177452Y0192011D01*
X0178069Y0191393D01*
X0179921Y0191393D01*
X0179921Y0195097D01*
X0178069Y0195097D01*
X0177452Y0194479D01*
X0181135Y0194479D02*
X0181135Y0193245D01*
X0181753Y0192628D01*
X0183604Y0192628D01*
X0183604Y0191393D02*
X0183604Y0195097D01*
X0181753Y0195097D01*
X0181135Y0194479D01*
X0181274Y0199627D02*
X0181274Y0203330D01*
X0179422Y0203330D01*
X0178805Y0202713D01*
X0178805Y0201479D01*
X0179422Y0200862D01*
X0181274Y0200862D01*
X0177591Y0199627D02*
X0177591Y0203330D01*
X0175739Y0203330D01*
X0175122Y0202713D01*
X0175122Y0200244D01*
X0175739Y0199627D01*
X0177591Y0199627D01*
X0173908Y0200244D02*
X0173908Y0200862D01*
X0173290Y0201479D01*
X0172056Y0201479D01*
X0171439Y0200862D01*
X0171439Y0200244D01*
X0172056Y0199627D01*
X0173290Y0199627D01*
X0173908Y0200244D01*
X0173290Y0201479D02*
X0173908Y0202096D01*
X0173908Y0202713D01*
X0173290Y0203330D01*
X0172056Y0203330D01*
X0171439Y0202713D01*
X0171439Y0202096D01*
X0172056Y0201479D01*
X0171320Y0195097D02*
X0171320Y0191393D01*
X0172555Y0193862D02*
X0171320Y0195097D01*
X0171480Y0183212D02*
X0170863Y0182595D01*
X0170863Y0181978D01*
X0171480Y0181360D01*
X0170863Y0180743D01*
X0170863Y0180126D01*
X0171480Y0179509D01*
X0172714Y0179509D01*
X0173331Y0180126D01*
X0174546Y0179509D02*
X0177015Y0179509D01*
X0175780Y0179509D02*
X0175780Y0183212D01*
X0177015Y0181978D01*
X0178229Y0182595D02*
X0178229Y0180126D01*
X0178846Y0179509D01*
X0180698Y0179509D01*
X0180698Y0183212D01*
X0178846Y0183212D01*
X0178229Y0182595D01*
X0181912Y0182595D02*
X0181912Y0181360D01*
X0182529Y0180743D01*
X0184381Y0180743D01*
X0184381Y0179509D02*
X0184381Y0183212D01*
X0182529Y0183212D01*
X0181912Y0182595D01*
X0173331Y0182595D02*
X0172714Y0183212D01*
X0171480Y0183212D01*
X0171480Y0181360D02*
X0172097Y0181360D01*
X0173176Y0173891D02*
X0173176Y0172039D01*
X0171942Y0172656D01*
X0171324Y0172656D01*
X0170707Y0172039D01*
X0170707Y0170805D01*
X0171324Y0170188D01*
X0172559Y0170188D01*
X0173176Y0170805D01*
X0174390Y0170188D02*
X0176859Y0170188D01*
X0175625Y0170188D02*
X0175625Y0173891D01*
X0176859Y0172656D01*
X0178074Y0173273D02*
X0178691Y0173891D01*
X0180542Y0173891D01*
X0180542Y0170188D01*
X0178691Y0170188D01*
X0178074Y0170805D01*
X0178074Y0173273D01*
X0181757Y0173273D02*
X0181757Y0172039D01*
X0182374Y0171422D01*
X0184226Y0171422D01*
X0184226Y0170188D02*
X0184226Y0173891D01*
X0182374Y0173891D01*
X0181757Y0173273D01*
X0173176Y0173891D02*
X0170707Y0173891D01*
X0170740Y0164103D02*
X0170740Y0163486D01*
X0173208Y0161017D01*
X0173208Y0160400D01*
X0174423Y0161017D02*
X0175040Y0160400D01*
X0176274Y0160400D01*
X0176892Y0161017D01*
X0176892Y0163486D01*
X0176274Y0164103D01*
X0175040Y0164103D01*
X0174423Y0163486D01*
X0173208Y0164103D02*
X0170740Y0164103D01*
X0170462Y0158510D02*
X0171079Y0157893D01*
X0170462Y0158510D02*
X0169227Y0158510D01*
X0168610Y0157893D01*
X0168610Y0157276D01*
X0171079Y0154807D01*
X0168610Y0154807D01*
X0172293Y0154807D02*
X0172293Y0157276D01*
X0173528Y0158510D01*
X0174762Y0157276D01*
X0174762Y0154807D01*
X0175976Y0155424D02*
X0175976Y0157893D01*
X0176593Y0158510D01*
X0178445Y0158510D01*
X0178445Y0154807D01*
X0176593Y0154807D01*
X0175976Y0155424D01*
X0174762Y0156659D02*
X0172293Y0156659D01*
X0178106Y0162252D02*
X0178723Y0161634D01*
X0180575Y0161634D01*
X0180575Y0160400D02*
X0180575Y0164103D01*
X0178723Y0164103D01*
X0178106Y0163486D01*
X0178106Y0162252D01*
X0180277Y0158510D02*
X0179659Y0157893D01*
X0180277Y0158510D02*
X0181511Y0158510D01*
X0182128Y0157893D01*
X0182128Y0157276D01*
X0181511Y0156659D01*
X0180277Y0156659D01*
X0179659Y0156042D01*
X0179659Y0155424D01*
X0180277Y0154807D01*
X0181511Y0154807D01*
X0182128Y0155424D01*
X0186573Y0140584D02*
X0186573Y0138115D01*
X0189042Y0140584D01*
X0189659Y0140584D01*
X0190276Y0139966D01*
X0190276Y0138732D01*
X0189659Y0138115D01*
X0190276Y0135666D02*
X0186573Y0135666D01*
X0186573Y0134432D02*
X0186573Y0136900D01*
X0189042Y0134432D02*
X0190276Y0135666D01*
X0189659Y0133217D02*
X0190276Y0132600D01*
X0190276Y0131366D01*
X0189659Y0130749D01*
X0187190Y0130749D01*
X0186573Y0131366D01*
X0186573Y0132600D01*
X0187190Y0133217D01*
X0188424Y0129534D02*
X0187807Y0128917D01*
X0187807Y0127065D01*
X0186573Y0127065D02*
X0190276Y0127065D01*
X0190276Y0128917D01*
X0189659Y0129534D01*
X0188424Y0129534D01*
X0181196Y0132281D02*
X0181196Y0135984D01*
X0179345Y0135984D01*
X0178727Y0135367D01*
X0178727Y0134132D01*
X0179345Y0133515D01*
X0181196Y0133515D01*
X0177513Y0134132D02*
X0175044Y0134132D01*
X0175044Y0134750D02*
X0175044Y0132281D01*
X0173830Y0132898D02*
X0173213Y0132281D01*
X0171978Y0132281D01*
X0171361Y0132898D01*
X0171361Y0135367D01*
X0171978Y0135984D01*
X0173213Y0135984D01*
X0173830Y0135367D01*
X0173830Y0134750D01*
X0173213Y0134132D01*
X0171361Y0134132D01*
X0175044Y0134750D02*
X0176279Y0135984D01*
X0177513Y0134750D01*
X0177513Y0132281D01*
X0170554Y0126667D02*
X0170554Y0124198D01*
X0169937Y0123581D01*
X0168703Y0123581D01*
X0168086Y0124198D01*
X0168086Y0125433D01*
X0169320Y0125433D01*
X0170554Y0126667D02*
X0169937Y0127284D01*
X0168703Y0127284D01*
X0168086Y0126667D01*
X0166871Y0127284D02*
X0166871Y0123581D01*
X0166498Y0121901D02*
X0165881Y0121284D01*
X0166498Y0121901D02*
X0167733Y0121901D01*
X0168350Y0121284D01*
X0168350Y0118815D01*
X0167733Y0118198D01*
X0166498Y0118198D01*
X0165881Y0118815D01*
X0164667Y0118198D02*
X0162198Y0118198D01*
X0160983Y0118198D02*
X0158515Y0118198D01*
X0159749Y0118198D02*
X0159749Y0121901D01*
X0160983Y0120667D01*
X0163432Y0121901D02*
X0163432Y0118198D01*
X0164667Y0120667D02*
X0163432Y0121901D01*
X0163188Y0123581D02*
X0161336Y0123581D01*
X0160719Y0124198D01*
X0160719Y0126667D01*
X0161336Y0127284D01*
X0163188Y0127284D01*
X0163188Y0123581D01*
X0164402Y0123581D02*
X0164402Y0127284D01*
X0166871Y0127284D02*
X0164402Y0123581D01*
X0169564Y0121284D02*
X0169564Y0120050D01*
X0170181Y0119432D01*
X0172033Y0119432D01*
X0172033Y0118198D02*
X0172033Y0121901D01*
X0170181Y0121901D01*
X0169564Y0121284D01*
X0169390Y0113788D02*
X0168773Y0113170D01*
X0168773Y0111319D01*
X0168773Y0110104D02*
X0170624Y0110104D01*
X0171242Y0109487D01*
X0170624Y0108870D01*
X0168773Y0108870D01*
X0168773Y0107636D02*
X0171242Y0107636D01*
X0171242Y0108253D01*
X0170624Y0108870D01*
X0170624Y0106421D02*
X0170007Y0106421D01*
X0170007Y0103952D01*
X0169390Y0103952D02*
X0170624Y0103952D01*
X0171242Y0104570D01*
X0171242Y0105804D01*
X0170624Y0106421D01*
X0168773Y0105804D02*
X0168773Y0104570D01*
X0169390Y0103952D01*
X0168773Y0101504D02*
X0172476Y0101504D01*
X0172476Y0102738D02*
X0172476Y0100269D01*
X0183021Y0100909D02*
X0185490Y0098440D01*
X0184873Y0097823D01*
X0183638Y0097823D01*
X0183021Y0098440D01*
X0183021Y0100909D01*
X0183638Y0101526D01*
X0184873Y0101526D01*
X0185490Y0100909D01*
X0185490Y0098440D01*
X0186704Y0098440D02*
X0186704Y0100909D01*
X0187321Y0101526D01*
X0189173Y0101526D01*
X0189173Y0097823D01*
X0187321Y0097823D01*
X0186704Y0098440D01*
X0190387Y0099674D02*
X0191005Y0099057D01*
X0192856Y0099057D01*
X0192856Y0097823D02*
X0192856Y0101526D01*
X0191005Y0101526D01*
X0190387Y0100909D01*
X0190387Y0099674D01*
X0194871Y0099434D02*
X0197340Y0101903D01*
X0197957Y0101903D01*
X0198574Y0101286D01*
X0198574Y0100051D01*
X0197957Y0099434D01*
X0197957Y0098220D02*
X0198574Y0097602D01*
X0198574Y0095751D01*
X0194871Y0095751D01*
X0194871Y0097602D01*
X0195488Y0098220D01*
X0197957Y0098220D01*
X0194871Y0099434D02*
X0194871Y0101903D01*
X0196723Y0094537D02*
X0196105Y0093919D01*
X0196105Y0092068D01*
X0194871Y0092068D02*
X0198574Y0092068D01*
X0198574Y0093919D01*
X0197957Y0094537D01*
X0196723Y0094537D01*
X0205680Y0095174D02*
X0206298Y0094557D01*
X0208766Y0094557D01*
X0209384Y0095174D01*
X0209384Y0096408D01*
X0208766Y0097025D01*
X0209384Y0098240D02*
X0209384Y0098857D01*
X0205680Y0098857D01*
X0205680Y0098240D02*
X0205680Y0099474D01*
X0205680Y0100695D02*
X0209384Y0100695D01*
X0208149Y0102547D02*
X0206915Y0100695D01*
X0205680Y0102547D01*
X0206298Y0097025D02*
X0205680Y0096408D01*
X0205680Y0095174D01*
X0205680Y0093335D02*
X0206298Y0092718D01*
X0208766Y0092718D01*
X0208149Y0092101D02*
X0208149Y0093335D01*
X0207532Y0090880D02*
X0207532Y0089646D01*
X0208766Y0090263D02*
X0209384Y0090880D01*
X0208766Y0090263D02*
X0205680Y0090263D01*
X0205680Y0088425D02*
X0205680Y0087190D01*
X0205680Y0087807D02*
X0208149Y0087807D01*
X0208149Y0087190D01*
X0207532Y0085976D02*
X0205680Y0085976D01*
X0207532Y0085976D02*
X0208149Y0085359D01*
X0208149Y0084124D01*
X0207532Y0083507D01*
X0206915Y0082293D02*
X0206298Y0082293D01*
X0205680Y0081676D01*
X0205680Y0080441D01*
X0206298Y0079824D01*
X0207532Y0080441D02*
X0207532Y0081676D01*
X0206915Y0082293D01*
X0205680Y0083507D02*
X0209384Y0083507D01*
X0208766Y0082293D02*
X0209384Y0081676D01*
X0209384Y0080441D01*
X0208766Y0079824D01*
X0208149Y0079824D01*
X0207532Y0080441D01*
X0209384Y0087807D02*
X0210001Y0087807D01*
X0214843Y0089051D02*
X0214843Y0091520D01*
X0215460Y0092734D02*
X0219163Y0092734D01*
X0219163Y0094586D01*
X0218546Y0095203D01*
X0217311Y0095203D01*
X0216694Y0094586D01*
X0216694Y0092734D01*
X0215460Y0096417D02*
X0216694Y0097652D01*
X0215460Y0098886D01*
X0219163Y0098886D01*
X0219163Y0100100D02*
X0217928Y0101335D01*
X0219163Y0102569D01*
X0215460Y0102569D01*
X0215460Y0100100D02*
X0219163Y0100100D01*
X0219163Y0096417D02*
X0215460Y0096417D01*
X0223527Y0096012D02*
X0223527Y0093543D01*
X0224144Y0092329D02*
X0227847Y0092329D01*
X0227847Y0089860D02*
X0224144Y0089860D01*
X0224144Y0088646D02*
X0226612Y0088646D01*
X0227847Y0087411D01*
X0226612Y0086177D01*
X0224144Y0086177D01*
X0224761Y0084962D02*
X0224144Y0084345D01*
X0224144Y0083111D01*
X0224761Y0082494D01*
X0227230Y0082494D01*
X0227847Y0083111D01*
X0227847Y0084345D01*
X0227230Y0084962D01*
X0225995Y0086177D02*
X0225995Y0088646D01*
X0227847Y0089860D02*
X0224144Y0092329D01*
X0224144Y0097226D02*
X0227847Y0097226D01*
X0227847Y0099078D01*
X0227230Y0099695D01*
X0225995Y0099695D01*
X0225378Y0099078D01*
X0225378Y0097226D01*
X0225378Y0098461D02*
X0224144Y0099695D01*
X0224144Y0100909D02*
X0227847Y0103378D01*
X0227847Y0100909D02*
X0224144Y0103378D01*
X0237628Y0102899D02*
X0241331Y0102899D01*
X0240097Y0101665D01*
X0240097Y0100450D02*
X0237628Y0100450D01*
X0237628Y0101665D02*
X0237628Y0104133D01*
X0239480Y0100450D02*
X0239480Y0097981D01*
X0240097Y0097981D02*
X0237628Y0097981D01*
X0238245Y0096767D02*
X0240714Y0096767D01*
X0241331Y0096150D01*
X0241331Y0094298D01*
X0237628Y0094298D01*
X0237628Y0096150D01*
X0238245Y0096767D01*
X0240097Y0097981D02*
X0241331Y0099216D01*
X0240097Y0100450D01*
X0240714Y0093084D02*
X0241331Y0092467D01*
X0241331Y0091232D01*
X0240714Y0090615D01*
X0240097Y0090615D01*
X0239480Y0091232D01*
X0239480Y0092467D01*
X0238863Y0093084D01*
X0238245Y0093084D01*
X0237628Y0092467D01*
X0237628Y0091232D01*
X0238245Y0090615D01*
X0217928Y0087833D02*
X0217928Y0087216D01*
X0216694Y0085982D01*
X0216694Y0084767D02*
X0216694Y0082916D01*
X0216077Y0082299D01*
X0215460Y0082916D01*
X0215460Y0084767D01*
X0217311Y0084767D01*
X0217928Y0084150D01*
X0217928Y0082916D01*
X0217311Y0081084D02*
X0215460Y0081084D01*
X0217311Y0081084D02*
X0217928Y0080467D01*
X0217928Y0078615D01*
X0215460Y0078615D01*
X0216077Y0077401D02*
X0217311Y0077401D01*
X0217928Y0076784D01*
X0217928Y0075549D01*
X0217311Y0074932D01*
X0216077Y0074932D01*
X0215460Y0075549D01*
X0215460Y0076784D01*
X0216077Y0077401D01*
X0216077Y0073718D02*
X0215460Y0073101D01*
X0215460Y0071866D01*
X0216077Y0071249D01*
X0217311Y0071866D02*
X0217928Y0071249D01*
X0218546Y0071249D01*
X0219163Y0071866D01*
X0219163Y0073101D01*
X0218546Y0073718D01*
X0217311Y0073101D02*
X0216694Y0073718D01*
X0216077Y0073718D01*
X0217311Y0073101D02*
X0217311Y0071866D01*
X0217928Y0085982D02*
X0215460Y0085982D01*
X0208818Y0124476D02*
X0208201Y0124476D01*
X0207584Y0125094D01*
X0207584Y0126328D01*
X0206967Y0126945D01*
X0206349Y0126945D01*
X0205732Y0126328D01*
X0205732Y0125094D01*
X0206349Y0124476D01*
X0208818Y0124476D02*
X0209435Y0125094D01*
X0209435Y0126328D01*
X0208818Y0126945D01*
X0209435Y0128160D02*
X0205732Y0128160D01*
X0207584Y0128160D02*
X0208201Y0128777D01*
X0208201Y0130011D01*
X0207584Y0130628D01*
X0205732Y0130628D01*
X0205732Y0131843D02*
X0205732Y0133077D01*
X0205732Y0132460D02*
X0208201Y0132460D01*
X0208201Y0131843D01*
X0209435Y0132460D02*
X0210053Y0132460D01*
X0208818Y0134915D02*
X0205732Y0134915D01*
X0207584Y0134298D02*
X0207584Y0135533D01*
X0208201Y0136754D02*
X0208201Y0137988D01*
X0208818Y0137371D02*
X0206349Y0137371D01*
X0205732Y0137988D01*
X0205732Y0139209D02*
X0205732Y0141678D01*
X0205732Y0142892D02*
X0208201Y0142892D01*
X0208201Y0144744D01*
X0207584Y0145361D01*
X0205732Y0145361D01*
X0209435Y0141678D02*
X0209435Y0139209D01*
X0205732Y0139209D01*
X0207584Y0139209D02*
X0207584Y0140443D01*
X0209435Y0135533D02*
X0208818Y0134915D01*
X0215959Y0134855D02*
X0218428Y0134855D01*
X0218428Y0134237D01*
X0217811Y0133023D02*
X0215959Y0133023D01*
X0215959Y0134237D02*
X0215959Y0135472D01*
X0215959Y0137310D02*
X0219045Y0137310D01*
X0219662Y0137927D01*
X0218428Y0139148D02*
X0218428Y0140383D01*
X0219045Y0139766D02*
X0216576Y0139766D01*
X0215959Y0140383D01*
X0215959Y0141604D02*
X0215959Y0143455D01*
X0216576Y0144073D01*
X0219045Y0144073D01*
X0219662Y0143455D01*
X0219662Y0141604D01*
X0215959Y0141604D01*
X0216576Y0145287D02*
X0217193Y0145904D01*
X0217193Y0147756D01*
X0217811Y0147756D02*
X0215959Y0147756D01*
X0215959Y0145904D01*
X0216576Y0145287D01*
X0218428Y0145904D02*
X0218428Y0147138D01*
X0217811Y0147756D01*
X0218428Y0148970D02*
X0218428Y0150204D01*
X0219045Y0149587D02*
X0216576Y0149587D01*
X0215959Y0150204D01*
X0225798Y0141678D02*
X0229501Y0141678D01*
X0228266Y0140443D01*
X0229501Y0139209D01*
X0225798Y0139209D01*
X0225180Y0137995D02*
X0225180Y0135526D01*
X0225798Y0134311D02*
X0227649Y0134311D01*
X0228266Y0133694D01*
X0227649Y0133077D01*
X0225798Y0133077D01*
X0225798Y0131843D02*
X0228266Y0131843D01*
X0228266Y0132460D01*
X0227649Y0133077D01*
X0227649Y0130628D02*
X0225798Y0130628D01*
X0225798Y0128777D01*
X0226415Y0128160D01*
X0227032Y0128777D01*
X0227032Y0130628D01*
X0227649Y0130628D02*
X0228266Y0130011D01*
X0228266Y0128777D01*
X0228884Y0126945D02*
X0229501Y0126328D01*
X0229501Y0125094D01*
X0228884Y0124476D01*
X0226415Y0124476D01*
X0225798Y0125094D01*
X0225798Y0126328D01*
X0226415Y0126945D01*
X0219662Y0127488D02*
X0219045Y0126871D01*
X0218428Y0126871D01*
X0217811Y0127488D01*
X0217811Y0128723D01*
X0217193Y0129340D01*
X0216576Y0129340D01*
X0215959Y0128723D01*
X0215959Y0127488D01*
X0216576Y0126871D01*
X0219662Y0127488D02*
X0219662Y0128723D01*
X0219045Y0129340D01*
X0219662Y0130554D02*
X0215959Y0130554D01*
X0217811Y0130554D02*
X0218428Y0131172D01*
X0218428Y0132406D01*
X0217811Y0133023D01*
X0219662Y0134855D02*
X0220279Y0134855D01*
X0217811Y0136693D02*
X0217811Y0137927D01*
X0232364Y0129061D02*
X0234833Y0125358D01*
X0237282Y0125358D02*
X0237282Y0129061D01*
X0238516Y0129061D02*
X0236047Y0129061D01*
X0234833Y0129061D02*
X0232364Y0125358D01*
X0239730Y0124741D02*
X0242199Y0124741D01*
X0243413Y0125358D02*
X0243413Y0129061D01*
X0245882Y0129061D02*
X0243413Y0125358D01*
X0245882Y0125358D02*
X0245882Y0129061D01*
X0247097Y0127827D02*
X0247097Y0125358D01*
X0247097Y0127209D02*
X0249565Y0127209D01*
X0249565Y0127827D02*
X0248331Y0129061D01*
X0247097Y0127827D01*
X0249565Y0127827D02*
X0249565Y0125358D01*
X0250780Y0125975D02*
X0251397Y0125358D01*
X0252631Y0125358D01*
X0253248Y0125975D01*
X0253248Y0128444D01*
X0252631Y0129061D01*
X0251397Y0129061D01*
X0250780Y0128444D01*
X0254579Y0127419D02*
X0255196Y0128036D01*
X0256430Y0128036D01*
X0257047Y0127419D01*
X0258262Y0128036D02*
X0260730Y0128036D01*
X0260730Y0124333D01*
X0258262Y0124333D01*
X0257047Y0124333D02*
X0254579Y0126802D01*
X0254579Y0127419D01*
X0254579Y0124333D02*
X0257047Y0124333D01*
X0259496Y0126185D02*
X0260730Y0126185D01*
X0261945Y0126185D02*
X0262562Y0125567D01*
X0264414Y0125567D01*
X0264414Y0124333D02*
X0264414Y0128036D01*
X0262562Y0128036D01*
X0261945Y0127419D01*
X0261945Y0126185D01*
X0266031Y0121513D02*
X0266031Y0117810D01*
X0264797Y0117810D02*
X0267266Y0117810D01*
X0268480Y0117810D02*
X0270949Y0117810D01*
X0270949Y0121513D01*
X0272163Y0120896D02*
X0272780Y0121513D01*
X0274015Y0121513D01*
X0274632Y0120896D01*
X0274632Y0118427D01*
X0274015Y0117810D01*
X0272780Y0117810D01*
X0272163Y0118427D01*
X0275846Y0118427D02*
X0276464Y0117810D01*
X0277698Y0117810D01*
X0278315Y0118427D01*
X0277698Y0119661D02*
X0276464Y0119661D01*
X0275846Y0119044D01*
X0275846Y0118427D01*
X0277698Y0119661D02*
X0278315Y0120278D01*
X0278315Y0120896D01*
X0277698Y0121513D01*
X0276464Y0121513D01*
X0275846Y0120896D01*
X0275598Y0113163D02*
X0274364Y0111929D01*
X0274364Y0109460D01*
X0273150Y0109460D02*
X0273150Y0113163D01*
X0271915Y0111929D01*
X0270681Y0113163D01*
X0270681Y0109460D01*
X0269466Y0109460D02*
X0266998Y0111929D01*
X0266998Y0112546D01*
X0267615Y0113163D01*
X0268849Y0113163D01*
X0269466Y0112546D01*
X0269466Y0109460D02*
X0266998Y0109460D01*
X0274364Y0111312D02*
X0276833Y0111312D01*
X0276833Y0111929D02*
X0275598Y0113163D01*
X0276833Y0111929D02*
X0276833Y0109460D01*
X0278047Y0110077D02*
X0278664Y0109460D01*
X0279899Y0109460D01*
X0280516Y0110077D01*
X0280516Y0112546D01*
X0279899Y0113163D01*
X0278664Y0113163D01*
X0278047Y0112546D01*
X0267266Y0120278D02*
X0266031Y0121513D01*
X0279137Y0128863D02*
X0282840Y0128863D01*
X0282840Y0130715D01*
X0282223Y0131332D01*
X0280988Y0131332D01*
X0280371Y0130715D01*
X0280371Y0128863D01*
X0280988Y0132546D02*
X0280988Y0133781D01*
X0279137Y0135015D02*
X0279137Y0132546D01*
X0282840Y0132546D01*
X0282840Y0135015D01*
X0282223Y0136229D02*
X0282840Y0136847D01*
X0282840Y0138081D01*
X0282223Y0138698D01*
X0281606Y0138698D01*
X0280988Y0138081D01*
X0280371Y0138698D01*
X0279754Y0138698D01*
X0279137Y0138081D01*
X0279137Y0136847D01*
X0279754Y0136229D01*
X0280988Y0137464D02*
X0280988Y0138081D01*
X0280527Y0139349D02*
X0280527Y0141201D01*
X0281144Y0141818D01*
X0282378Y0141818D01*
X0282995Y0141201D01*
X0282995Y0139349D01*
X0279292Y0139349D01*
X0279292Y0143033D02*
X0279292Y0145501D01*
X0279909Y0146716D02*
X0279292Y0147333D01*
X0279292Y0148567D01*
X0279909Y0149185D01*
X0281144Y0149185D01*
X0281761Y0148567D01*
X0281761Y0147950D01*
X0281144Y0146716D01*
X0282995Y0146716D01*
X0282995Y0149185D01*
X0283113Y0150730D02*
X0283113Y0154433D01*
X0281899Y0154433D02*
X0280047Y0154433D01*
X0279430Y0153816D01*
X0279430Y0151347D01*
X0280047Y0150730D01*
X0281899Y0150730D01*
X0281899Y0154433D01*
X0285582Y0154433D02*
X0283113Y0150730D01*
X0285582Y0150730D02*
X0285582Y0154433D01*
X0286796Y0153816D02*
X0287413Y0154433D01*
X0288648Y0154433D01*
X0289265Y0153816D01*
X0289265Y0151347D01*
X0288648Y0150730D01*
X0287413Y0150730D01*
X0286796Y0151347D01*
X0286796Y0152581D01*
X0288030Y0152581D01*
X0288423Y0159818D02*
X0287806Y0160435D01*
X0287806Y0161669D01*
X0289040Y0161669D01*
X0290275Y0160435D02*
X0289657Y0159818D01*
X0288423Y0159818D01*
X0286591Y0159818D02*
X0286591Y0163521D01*
X0284123Y0159818D01*
X0284123Y0163521D01*
X0282908Y0163521D02*
X0281057Y0163521D01*
X0280440Y0162904D01*
X0280440Y0160435D01*
X0281057Y0159818D01*
X0282908Y0159818D01*
X0282908Y0163521D01*
X0287806Y0162904D02*
X0288423Y0163521D01*
X0289657Y0163521D01*
X0290275Y0162904D01*
X0290275Y0160435D01*
X0288398Y0170801D02*
X0287163Y0170801D01*
X0286546Y0171419D01*
X0286546Y0172653D01*
X0287781Y0172653D01*
X0289015Y0173887D02*
X0288398Y0174505D01*
X0287163Y0174505D01*
X0286546Y0173887D01*
X0285332Y0174505D02*
X0285332Y0170801D01*
X0282863Y0170801D02*
X0282863Y0174505D01*
X0281649Y0174505D02*
X0279797Y0174505D01*
X0279180Y0173887D01*
X0279180Y0171419D01*
X0279797Y0170801D01*
X0281649Y0170801D01*
X0281649Y0174505D01*
X0285332Y0174505D02*
X0282863Y0170801D01*
X0288398Y0170801D02*
X0289015Y0171419D01*
X0289015Y0173887D01*
X0289765Y0181020D02*
X0289765Y0184723D01*
X0287913Y0184723D01*
X0287296Y0184106D01*
X0287296Y0182871D01*
X0287913Y0182254D01*
X0289765Y0182254D01*
X0286081Y0181637D02*
X0285464Y0181020D01*
X0284230Y0181020D01*
X0283613Y0181637D01*
X0282398Y0181020D02*
X0279929Y0181020D01*
X0281164Y0181020D02*
X0281164Y0184723D01*
X0282398Y0183489D01*
X0283613Y0184106D02*
X0284230Y0184723D01*
X0285464Y0184723D01*
X0286081Y0184106D01*
X0286081Y0181637D01*
X0278715Y0182871D02*
X0276246Y0182871D01*
X0276863Y0181020D02*
X0276863Y0184723D01*
X0278715Y0182871D01*
X0279166Y0190450D02*
X0279166Y0194153D01*
X0281635Y0194153D02*
X0279166Y0190450D01*
X0281635Y0190450D02*
X0281635Y0194153D01*
X0282856Y0194153D02*
X0284091Y0194153D01*
X0283473Y0194153D02*
X0283473Y0190450D01*
X0282856Y0190450D02*
X0284091Y0190450D01*
X0285305Y0189833D02*
X0287774Y0189833D01*
X0288988Y0191067D02*
X0289605Y0190450D01*
X0290840Y0190450D01*
X0291457Y0191067D01*
X0291457Y0193536D01*
X0290840Y0194153D01*
X0289605Y0194153D01*
X0288988Y0193536D01*
X0292671Y0193536D02*
X0293289Y0194153D01*
X0294523Y0194153D01*
X0295140Y0193536D01*
X0295140Y0192919D01*
X0294523Y0192301D01*
X0293289Y0192301D01*
X0292671Y0191684D01*
X0292671Y0191067D01*
X0293289Y0190450D01*
X0294523Y0190450D01*
X0295140Y0191067D01*
X0296354Y0191067D02*
X0296354Y0193536D01*
X0296972Y0194153D01*
X0298206Y0194153D01*
X0298823Y0193536D01*
X0298823Y0191067D01*
X0298206Y0190450D01*
X0296972Y0190450D01*
X0296354Y0191067D01*
X0288635Y0200712D02*
X0287401Y0200712D01*
X0286784Y0201329D01*
X0286784Y0202563D01*
X0288018Y0202563D01*
X0289252Y0201329D02*
X0288635Y0200712D01*
X0289252Y0201329D02*
X0289252Y0203798D01*
X0288635Y0204415D01*
X0287401Y0204415D01*
X0286784Y0203798D01*
X0285569Y0204415D02*
X0283100Y0200712D01*
X0283100Y0204415D01*
X0281886Y0204415D02*
X0280034Y0204415D01*
X0279417Y0203798D01*
X0279417Y0201329D01*
X0280034Y0200712D01*
X0281886Y0200712D01*
X0281886Y0204415D01*
X0285569Y0204415D02*
X0285569Y0200712D01*
X0257527Y0212548D02*
X0255058Y0212548D01*
X0253844Y0211314D02*
X0253227Y0210697D01*
X0251992Y0210697D01*
X0251375Y0211314D01*
X0251375Y0211931D01*
X0251992Y0212548D01*
X0252609Y0212548D01*
X0251992Y0212548D02*
X0251375Y0213165D01*
X0251375Y0213783D01*
X0251992Y0214400D01*
X0253227Y0214400D01*
X0253844Y0213783D01*
X0256293Y0213783D02*
X0256293Y0211314D01*
X0253711Y0206519D02*
X0250008Y0206519D01*
X0250008Y0205285D02*
X0250008Y0207753D01*
X0248926Y0210697D02*
X0247692Y0211931D01*
X0247692Y0214400D01*
X0246478Y0213783D02*
X0245860Y0214400D01*
X0244626Y0214400D01*
X0244009Y0213783D01*
X0244009Y0213165D01*
X0244626Y0212548D01*
X0244009Y0211931D01*
X0244009Y0211314D01*
X0244626Y0210697D01*
X0245860Y0210697D01*
X0246478Y0211314D01*
X0245243Y0212548D02*
X0244626Y0212548D01*
X0240312Y0213176D02*
X0240312Y0211324D01*
X0236609Y0211324D01*
X0236609Y0213176D01*
X0237226Y0213793D01*
X0239695Y0213793D01*
X0240312Y0213176D01*
X0240312Y0210110D02*
X0236609Y0210110D01*
X0240312Y0207641D01*
X0236609Y0207641D01*
X0237226Y0206427D02*
X0238460Y0206427D01*
X0238460Y0205192D01*
X0237226Y0203958D02*
X0236609Y0204575D01*
X0236609Y0205810D01*
X0237226Y0206427D01*
X0239695Y0206427D02*
X0240312Y0205810D01*
X0240312Y0204575D01*
X0239695Y0203958D01*
X0237226Y0203958D01*
X0224814Y0203824D02*
X0221111Y0203824D01*
X0221111Y0205038D02*
X0221111Y0206890D01*
X0221728Y0207507D01*
X0224197Y0207507D01*
X0224814Y0206890D01*
X0224814Y0205038D01*
X0221111Y0205038D01*
X0223580Y0202589D02*
X0224814Y0201355D01*
X0221111Y0201355D01*
X0223580Y0202589D02*
X0224814Y0203824D01*
X0224197Y0208721D02*
X0221728Y0208721D01*
X0221111Y0209339D01*
X0221111Y0210573D01*
X0221728Y0211190D01*
X0224197Y0211190D02*
X0224814Y0210573D01*
X0224814Y0209339D01*
X0224197Y0208721D01*
X0214633Y0210941D02*
X0214633Y0212793D01*
X0214016Y0213410D01*
X0211547Y0213410D01*
X0210930Y0212793D01*
X0210930Y0210941D01*
X0214633Y0210941D01*
X0214633Y0214624D02*
X0212165Y0214624D01*
X0210930Y0215859D01*
X0212165Y0217093D01*
X0214633Y0217093D01*
X0210313Y0209727D02*
X0210313Y0207258D01*
X0211547Y0206043D02*
X0210930Y0205426D01*
X0210930Y0204192D01*
X0211547Y0203575D01*
X0210930Y0202360D02*
X0212165Y0201126D01*
X0212165Y0201743D02*
X0212165Y0199892D01*
X0210930Y0199892D02*
X0214633Y0199892D01*
X0214633Y0201743D01*
X0214016Y0202360D01*
X0212782Y0202360D01*
X0212165Y0201743D01*
X0213399Y0203575D02*
X0212782Y0204192D01*
X0212782Y0205426D01*
X0212165Y0206043D01*
X0211547Y0206043D01*
X0214016Y0206043D02*
X0214633Y0205426D01*
X0214633Y0204192D01*
X0214016Y0203575D01*
X0213399Y0203575D01*
X0214016Y0198677D02*
X0214633Y0198060D01*
X0214633Y0196826D01*
X0214016Y0196208D01*
X0211547Y0196208D01*
X0210930Y0196826D01*
X0210930Y0198060D01*
X0211547Y0198677D01*
X0204677Y0200012D02*
X0204677Y0201864D01*
X0204059Y0202481D01*
X0202825Y0202481D01*
X0202208Y0201864D01*
X0202208Y0200012D01*
X0200973Y0200012D02*
X0204677Y0200012D01*
X0202208Y0201247D02*
X0200973Y0202481D01*
X0200973Y0203696D02*
X0204677Y0206164D01*
X0204677Y0207379D02*
X0204677Y0209230D01*
X0204059Y0209848D01*
X0201591Y0209848D01*
X0200973Y0209230D01*
X0200973Y0207379D01*
X0204677Y0207379D01*
X0204677Y0203696D02*
X0200973Y0206164D01*
X0199628Y0208767D02*
X0199628Y0212470D01*
X0200862Y0212470D02*
X0198393Y0212470D01*
X0197179Y0212470D02*
X0194710Y0208767D01*
X0193496Y0208767D02*
X0191644Y0208767D01*
X0191027Y0209384D01*
X0191027Y0211853D01*
X0191644Y0212470D01*
X0193496Y0212470D01*
X0193496Y0208767D01*
X0197179Y0208767D02*
X0194710Y0212470D01*
X0189813Y0211853D02*
X0189813Y0209384D01*
X0187344Y0211853D01*
X0187344Y0209384D01*
X0187961Y0208767D01*
X0189196Y0208767D01*
X0189813Y0209384D01*
X0189813Y0211853D02*
X0189196Y0212470D01*
X0187961Y0212470D01*
X0187344Y0211853D01*
X0200973Y0212296D02*
X0204677Y0212296D01*
X0203442Y0211062D01*
X0200973Y0211062D02*
X0200973Y0213531D01*
X0199480Y0236734D02*
X0199480Y0239203D01*
X0199480Y0240417D02*
X0195777Y0242886D01*
X0195777Y0244100D02*
X0195777Y0246569D01*
X0195777Y0247784D02*
X0199480Y0247784D01*
X0195777Y0250252D01*
X0199480Y0250252D01*
X0200891Y0249959D02*
X0200891Y0248724D01*
X0201508Y0248107D01*
X0203977Y0250576D01*
X0201508Y0250576D01*
X0200891Y0249959D01*
X0201508Y0248107D02*
X0203977Y0248107D01*
X0204594Y0248724D01*
X0204594Y0249959D01*
X0203977Y0250576D01*
X0203977Y0246893D02*
X0201508Y0246893D01*
X0200891Y0246276D01*
X0200891Y0244424D01*
X0204594Y0244424D01*
X0204594Y0246276D01*
X0203977Y0246893D01*
X0207190Y0245393D02*
X0209658Y0242924D01*
X0209041Y0243541D02*
X0207190Y0241690D01*
X0209658Y0241690D02*
X0209658Y0245393D01*
X0213341Y0245393D02*
X0213341Y0241690D01*
X0210873Y0241690D01*
X0214556Y0242307D02*
X0215173Y0241690D01*
X0216407Y0241690D01*
X0217025Y0242307D01*
X0217025Y0244776D01*
X0216407Y0245393D01*
X0215173Y0245393D01*
X0214556Y0244776D01*
X0218239Y0245393D02*
X0220708Y0245393D01*
X0220708Y0241690D01*
X0220712Y0241315D02*
X0220095Y0240697D01*
X0220095Y0238229D01*
X0220712Y0237612D01*
X0221947Y0237612D01*
X0222564Y0238229D01*
X0222564Y0240697D01*
X0221947Y0241315D01*
X0220712Y0241315D01*
X0221922Y0241690D02*
X0224391Y0241690D01*
X0224391Y0245393D01*
X0221922Y0245393D01*
X0220708Y0243541D02*
X0219473Y0243541D01*
X0223157Y0243541D02*
X0224391Y0243541D01*
X0225605Y0243541D02*
X0226223Y0242924D01*
X0228074Y0242924D01*
X0228074Y0241690D02*
X0228074Y0245393D01*
X0226223Y0245393D01*
X0225605Y0244776D01*
X0225605Y0243541D01*
X0226840Y0242924D02*
X0225605Y0241690D01*
X0225019Y0241315D02*
X0223785Y0241315D01*
X0224402Y0241315D02*
X0224402Y0237612D01*
X0225019Y0237612D02*
X0223785Y0237612D01*
X0226234Y0238229D02*
X0226234Y0240697D01*
X0226851Y0241315D01*
X0228702Y0241315D01*
X0228702Y0237612D01*
X0226851Y0237612D01*
X0226234Y0238229D01*
X0229917Y0237612D02*
X0229917Y0241315D01*
X0231151Y0240080D01*
X0232386Y0241315D01*
X0232386Y0237612D01*
X0235016Y0237055D02*
X0235633Y0237672D01*
X0236868Y0237672D01*
X0236868Y0236438D01*
X0238102Y0237672D02*
X0238719Y0237055D01*
X0238719Y0235821D01*
X0238102Y0235203D01*
X0235633Y0235203D01*
X0235016Y0235821D01*
X0235016Y0237055D01*
X0235016Y0238887D02*
X0238719Y0238887D01*
X0235016Y0241355D01*
X0238719Y0241355D01*
X0238719Y0242570D02*
X0235016Y0242570D01*
X0235016Y0244421D01*
X0235633Y0245039D01*
X0238102Y0245039D01*
X0238719Y0244421D01*
X0238719Y0242570D01*
X0250161Y0214400D02*
X0250161Y0211931D01*
X0248926Y0210697D01*
X0253711Y0206519D02*
X0252476Y0205285D01*
X0251859Y0204070D02*
X0251859Y0201601D01*
X0251859Y0200387D02*
X0251242Y0199770D01*
X0251242Y0197918D01*
X0252003Y0197712D02*
X0252003Y0198947D01*
X0252620Y0199564D01*
X0253854Y0199564D01*
X0254471Y0198947D01*
X0254471Y0198330D01*
X0253854Y0197095D01*
X0255706Y0197095D01*
X0255706Y0199564D01*
X0253711Y0199770D02*
X0253094Y0200387D01*
X0251859Y0200387D01*
X0253711Y0199770D02*
X0253711Y0197918D01*
X0250008Y0197918D01*
X0252003Y0197712D02*
X0252620Y0197095D01*
X0252003Y0195881D02*
X0252003Y0193412D01*
X0252003Y0194646D02*
X0255706Y0194646D01*
X0254471Y0193412D01*
X0255089Y0192198D02*
X0255706Y0191581D01*
X0255706Y0190346D01*
X0255089Y0189729D01*
X0252620Y0189729D01*
X0252003Y0190346D01*
X0252003Y0191581D01*
X0252620Y0192198D01*
X0253854Y0188515D02*
X0253237Y0187897D01*
X0253237Y0186046D01*
X0253490Y0186680D02*
X0254108Y0186063D01*
X0254108Y0185446D01*
X0254108Y0186063D02*
X0254725Y0186680D01*
X0255342Y0186680D01*
X0255959Y0186063D01*
X0255959Y0184829D01*
X0255342Y0184212D01*
X0255706Y0186046D02*
X0255706Y0187897D01*
X0255089Y0188515D01*
X0253854Y0188515D01*
X0253490Y0186680D02*
X0252873Y0186680D01*
X0252256Y0186063D01*
X0252256Y0184829D01*
X0252873Y0184212D01*
X0252256Y0182997D02*
X0252256Y0180528D01*
X0252256Y0181763D02*
X0255959Y0181763D01*
X0254725Y0180528D01*
X0255342Y0179314D02*
X0255959Y0178697D01*
X0255959Y0177463D01*
X0255342Y0176845D01*
X0252873Y0176845D01*
X0252256Y0177463D01*
X0252256Y0178697D01*
X0252873Y0179314D01*
X0254108Y0175631D02*
X0253490Y0175014D01*
X0253490Y0173162D01*
X0252256Y0173162D02*
X0255959Y0173162D01*
X0255959Y0175014D01*
X0255342Y0175631D01*
X0254108Y0175631D01*
X0253580Y0170910D02*
X0252963Y0170910D01*
X0252346Y0170292D01*
X0252346Y0169058D01*
X0252963Y0168441D01*
X0253580Y0167226D02*
X0256049Y0167226D01*
X0255432Y0168441D02*
X0256049Y0169058D01*
X0256049Y0170292D01*
X0255432Y0170910D01*
X0254815Y0170910D01*
X0254198Y0170292D01*
X0253580Y0170910D01*
X0254198Y0170292D02*
X0254198Y0169675D01*
X0253580Y0167226D02*
X0252346Y0165992D01*
X0253580Y0164758D01*
X0256049Y0164758D01*
X0255432Y0163543D02*
X0256049Y0162926D01*
X0256049Y0161692D01*
X0255432Y0161075D01*
X0254198Y0159860D02*
X0254198Y0157391D01*
X0255432Y0158626D02*
X0252963Y0158626D01*
X0252963Y0161075D02*
X0252346Y0161692D01*
X0252346Y0162926D01*
X0252963Y0163543D01*
X0253580Y0163543D01*
X0254198Y0162926D01*
X0254198Y0162309D01*
X0254198Y0162926D02*
X0254815Y0163543D01*
X0255432Y0163543D01*
X0255480Y0155581D02*
X0254863Y0154347D01*
X0253628Y0153112D01*
X0253628Y0154964D01*
X0253011Y0155581D01*
X0252394Y0155581D01*
X0251777Y0154964D01*
X0251777Y0153730D01*
X0252394Y0153112D01*
X0253628Y0153112D01*
X0251777Y0151898D02*
X0251777Y0149429D01*
X0255480Y0149429D01*
X0255480Y0151898D01*
X0253628Y0150664D02*
X0253628Y0149429D01*
X0253628Y0148215D02*
X0253011Y0147598D01*
X0253011Y0145746D01*
X0252858Y0145189D02*
X0251007Y0143337D01*
X0251007Y0145806D01*
X0251777Y0145746D02*
X0255480Y0145746D01*
X0255480Y0147598D01*
X0254863Y0148215D01*
X0253628Y0148215D01*
X0252858Y0145189D02*
X0249155Y0145189D01*
X0249155Y0142123D02*
X0249155Y0139654D01*
X0252858Y0139654D01*
X0252858Y0142123D01*
X0251007Y0140889D02*
X0251007Y0139654D01*
X0251007Y0138440D02*
X0250389Y0137823D01*
X0250389Y0135971D01*
X0249155Y0135971D02*
X0252858Y0135971D01*
X0252858Y0137823D01*
X0252241Y0138440D01*
X0251007Y0138440D01*
X0279292Y0143033D02*
X0282995Y0143033D01*
X0282995Y0145501D01*
X0281144Y0144267D02*
X0281144Y0143033D01*
X0255706Y0186046D02*
X0252003Y0186046D01*
X0253711Y0201601D02*
X0250008Y0201601D01*
X0250008Y0204070D02*
X0253711Y0204070D01*
X0204594Y0237058D02*
X0204594Y0238909D01*
X0203977Y0239526D01*
X0202742Y0239526D01*
X0202125Y0238909D01*
X0202125Y0237058D01*
X0202125Y0238292D02*
X0200891Y0239526D01*
X0200891Y0240741D02*
X0204594Y0243210D01*
X0204594Y0240741D02*
X0200891Y0243210D01*
X0199480Y0242886D02*
X0195777Y0240417D01*
X0195777Y0237968D02*
X0199480Y0237968D01*
X0200891Y0237058D02*
X0204594Y0237058D01*
X0199480Y0244100D02*
X0195777Y0244100D01*
X0197629Y0244100D02*
X0197629Y0245335D01*
X0199480Y0246569D02*
X0199480Y0244100D01*
X0190682Y0241560D02*
X0188213Y0241560D01*
X0186998Y0241560D02*
X0184530Y0237857D01*
X0183315Y0237857D02*
X0181464Y0237857D01*
X0180847Y0238474D01*
X0180847Y0240943D01*
X0181464Y0241560D01*
X0183315Y0241560D01*
X0183315Y0237857D01*
X0179632Y0237857D02*
X0177163Y0237857D01*
X0178398Y0237857D02*
X0178398Y0241560D01*
X0179632Y0240326D01*
X0184530Y0241560D02*
X0186998Y0237857D01*
X0189447Y0237857D02*
X0189447Y0241560D01*
X0134605Y0154523D02*
X0133370Y0154523D01*
X0132753Y0153905D01*
X0132753Y0153288D01*
X0135222Y0150819D01*
X0132753Y0150819D01*
X0135222Y0153905D02*
X0134605Y0154523D01*
X0144914Y0127051D02*
X0144297Y0126434D01*
X0144297Y0125817D01*
X0144914Y0125200D01*
X0144297Y0124582D01*
X0144297Y0123965D01*
X0144914Y0123348D01*
X0146148Y0123348D01*
X0146766Y0123965D01*
X0147980Y0124582D02*
X0147980Y0127051D01*
X0146766Y0126434D02*
X0146148Y0127051D01*
X0144914Y0127051D01*
X0144914Y0125200D02*
X0145531Y0125200D01*
X0147980Y0124582D02*
X0149214Y0123348D01*
X0150449Y0124582D01*
X0150449Y0127051D01*
X0151663Y0126434D02*
X0152280Y0127051D01*
X0153515Y0127051D01*
X0154132Y0126434D01*
X0155346Y0125200D02*
X0157815Y0125200D01*
X0156581Y0126434D02*
X0156581Y0123965D01*
X0154132Y0123965D02*
X0153515Y0123348D01*
X0152280Y0123348D01*
X0151663Y0123965D01*
X0151663Y0124582D01*
X0152280Y0125200D01*
X0152898Y0125200D01*
X0152280Y0125200D02*
X0151663Y0125817D01*
X0151663Y0126434D01*
X0169390Y0113788D02*
X0170624Y0113788D01*
X0171242Y0113170D01*
X0171242Y0111319D01*
X0167539Y0111319D01*
X0196606Y0127260D02*
X0200309Y0127260D01*
X0200309Y0129111D01*
X0199692Y0129728D01*
X0198457Y0129728D01*
X0197840Y0129111D01*
X0197840Y0127260D01*
X0196606Y0130943D02*
X0196606Y0132794D01*
X0197223Y0133412D01*
X0199692Y0133412D01*
X0200309Y0132794D01*
X0200309Y0130943D01*
X0196606Y0130943D01*
X0196606Y0134626D02*
X0196606Y0137095D01*
X0196606Y0135860D02*
X0200309Y0135860D01*
X0199074Y0134626D01*
D11*
X0196056Y0144258D02*
X0196056Y0144498D01*
X0182162Y0144846D02*
X0181922Y0144846D01*
X0235856Y0134795D02*
X0236096Y0134795D01*
X0244700Y0152288D02*
X0244700Y0152528D01*
X0242897Y0162460D02*
X0242657Y0162460D01*
X0245247Y0172467D02*
X0245247Y0172707D01*
X0245213Y0180520D02*
X0245213Y0180761D01*
X0245237Y0188569D02*
X0245237Y0188809D01*
X0239581Y0200807D02*
X0239341Y0200807D01*
X0231130Y0200820D02*
X0230890Y0200820D01*
X0190838Y0201247D02*
X0190598Y0201247D01*
D12*
X0119328Y0081954D02*
X0119328Y0080453D01*
X0119078Y0081203D02*
X0120079Y0081203D01*
X0119328Y0081954D01*
X0120551Y0081704D02*
X0120551Y0081203D01*
X0120802Y0080953D01*
X0121552Y0080953D01*
X0121052Y0080953D02*
X0120551Y0080453D01*
X0121552Y0080453D02*
X0121552Y0081954D01*
X0120802Y0081954D01*
X0120551Y0081704D01*
X0148274Y0077939D02*
X0148274Y0077688D01*
X0148524Y0077438D01*
X0148274Y0077188D01*
X0148274Y0076938D01*
X0148524Y0076688D01*
X0149025Y0076688D01*
X0149275Y0076938D01*
X0149747Y0076688D02*
X0150248Y0077188D01*
X0149997Y0077188D02*
X0150748Y0077188D01*
X0150748Y0076688D02*
X0150748Y0078189D01*
X0149997Y0078189D01*
X0149747Y0077939D01*
X0149747Y0077438D01*
X0149997Y0077188D01*
X0149275Y0077939D02*
X0149025Y0078189D01*
X0148524Y0078189D01*
X0148274Y0077939D01*
X0148524Y0077438D02*
X0148774Y0077438D01*
X0193229Y0139828D02*
X0193729Y0139828D01*
X0193979Y0140078D01*
X0194452Y0139828D02*
X0195453Y0139828D01*
X0194952Y0139828D02*
X0194952Y0141329D01*
X0195453Y0140829D01*
X0195925Y0141079D02*
X0196175Y0141329D01*
X0196676Y0141329D01*
X0196926Y0141079D01*
X0196926Y0140078D01*
X0196676Y0139828D01*
X0196175Y0139828D01*
X0195925Y0140078D01*
X0193979Y0141079D02*
X0193729Y0141329D01*
X0193229Y0141329D01*
X0192979Y0141079D01*
X0192979Y0140829D01*
X0193229Y0140579D01*
X0192979Y0140329D01*
X0192979Y0140078D01*
X0193229Y0139828D01*
X0193229Y0140579D02*
X0193479Y0140579D01*
X0178993Y0145699D02*
X0178743Y0145449D01*
X0177742Y0145449D01*
X0177492Y0145699D01*
X0177492Y0146200D01*
X0177742Y0146450D01*
X0177492Y0146922D02*
X0178492Y0147923D01*
X0178743Y0147923D01*
X0178993Y0147673D01*
X0178993Y0147173D01*
X0178743Y0146922D01*
X0178743Y0146450D02*
X0178993Y0146200D01*
X0178993Y0145699D01*
X0177492Y0146922D02*
X0177492Y0147923D01*
X0194019Y0197797D02*
X0193768Y0198048D01*
X0193768Y0198548D01*
X0194019Y0198798D01*
X0194019Y0199271D02*
X0193768Y0199521D01*
X0193768Y0200021D01*
X0194019Y0200272D01*
X0194269Y0200272D01*
X0194519Y0200021D01*
X0194519Y0199771D01*
X0194519Y0200021D02*
X0194769Y0200272D01*
X0195019Y0200272D01*
X0195270Y0200021D01*
X0195270Y0199521D01*
X0195019Y0199271D01*
X0195019Y0198798D02*
X0195270Y0198548D01*
X0195270Y0198048D01*
X0195019Y0197797D01*
X0194019Y0197797D01*
X0234060Y0197620D02*
X0234060Y0198120D01*
X0234310Y0198370D01*
X0234810Y0198843D02*
X0234810Y0199844D01*
X0234060Y0199593D02*
X0235561Y0199593D01*
X0234810Y0198843D01*
X0235311Y0198370D02*
X0235561Y0198120D01*
X0235561Y0197620D01*
X0235311Y0197370D01*
X0234310Y0197370D01*
X0234060Y0197620D01*
X0242511Y0197607D02*
X0242511Y0198108D01*
X0242761Y0198358D01*
X0242761Y0198830D02*
X0243011Y0198830D01*
X0243262Y0199080D01*
X0243262Y0199581D01*
X0243011Y0199831D01*
X0242761Y0199831D01*
X0242511Y0199581D01*
X0242511Y0199080D01*
X0242761Y0198830D01*
X0243262Y0199080D02*
X0243512Y0198830D01*
X0243762Y0198830D01*
X0244012Y0199080D01*
X0244012Y0199581D01*
X0243762Y0199831D01*
X0243512Y0199831D01*
X0243262Y0199581D01*
X0243762Y0198358D02*
X0244012Y0198108D01*
X0244012Y0197607D01*
X0243762Y0197357D01*
X0242761Y0197357D01*
X0242511Y0197607D01*
X0242159Y0185641D02*
X0242159Y0185390D01*
X0243160Y0184390D01*
X0243160Y0184139D01*
X0243633Y0184139D02*
X0244634Y0184139D01*
X0244133Y0184139D02*
X0244133Y0185641D01*
X0244634Y0185140D01*
X0245106Y0185390D02*
X0245356Y0185641D01*
X0245857Y0185641D01*
X0246107Y0185390D01*
X0246107Y0184390D01*
X0245857Y0184139D01*
X0245356Y0184139D01*
X0245106Y0184390D01*
X0243160Y0185641D02*
X0242159Y0185641D01*
X0242386Y0177592D02*
X0242886Y0177592D01*
X0243136Y0177342D01*
X0243136Y0177091D01*
X0242886Y0176841D01*
X0242136Y0176841D01*
X0242136Y0176341D02*
X0242136Y0177342D01*
X0242386Y0177592D01*
X0243609Y0177342D02*
X0243859Y0177592D01*
X0244359Y0177592D01*
X0244610Y0177342D01*
X0244610Y0176341D01*
X0244359Y0176091D01*
X0243859Y0176091D01*
X0243609Y0176341D01*
X0243136Y0176341D02*
X0242886Y0176091D01*
X0242386Y0176091D01*
X0242136Y0176341D01*
X0242670Y0169538D02*
X0242670Y0168037D01*
X0243170Y0168037D02*
X0242170Y0168037D01*
X0243170Y0169038D02*
X0242670Y0169538D01*
X0244143Y0169538D02*
X0244143Y0168037D01*
X0243643Y0168037D02*
X0244644Y0168037D01*
X0245116Y0168287D02*
X0245366Y0168037D01*
X0245867Y0168037D01*
X0246117Y0168287D01*
X0246117Y0169288D01*
X0245867Y0169538D01*
X0245366Y0169538D01*
X0245116Y0169288D01*
X0244644Y0169038D02*
X0244143Y0169538D01*
X0239728Y0165537D02*
X0239478Y0165037D01*
X0238978Y0164536D01*
X0238978Y0165287D01*
X0238727Y0165537D01*
X0238477Y0165537D01*
X0238227Y0165287D01*
X0238227Y0164787D01*
X0238477Y0164536D01*
X0238978Y0164536D01*
X0239478Y0164064D02*
X0239728Y0163814D01*
X0239728Y0163313D01*
X0239478Y0163063D01*
X0238477Y0163063D01*
X0238227Y0163313D01*
X0238227Y0163814D01*
X0238477Y0164064D01*
X0244452Y0156959D02*
X0244202Y0156709D01*
X0244202Y0156459D01*
X0244452Y0156209D01*
X0244953Y0156209D01*
X0245203Y0156459D01*
X0245203Y0156709D01*
X0244953Y0156959D01*
X0244452Y0156959D01*
X0244452Y0156209D02*
X0244202Y0155958D01*
X0244202Y0155708D01*
X0244452Y0155458D01*
X0244953Y0155458D01*
X0245203Y0155708D01*
X0245203Y0155958D01*
X0244953Y0156209D01*
X0245676Y0155458D02*
X0246676Y0155458D01*
X0246176Y0155458D02*
X0246176Y0156959D01*
X0246676Y0156459D01*
X0247149Y0156709D02*
X0247399Y0156959D01*
X0247899Y0156959D01*
X0248150Y0156709D01*
X0248150Y0155708D01*
X0247899Y0155458D01*
X0247399Y0155458D01*
X0247149Y0155708D01*
X0232928Y0137623D02*
X0232177Y0136872D01*
X0232177Y0137873D01*
X0231426Y0137623D02*
X0232928Y0137623D01*
X0232928Y0135899D02*
X0231426Y0135899D01*
X0231426Y0135399D02*
X0231426Y0136400D01*
X0232427Y0135399D02*
X0232928Y0135899D01*
X0232677Y0134926D02*
X0232928Y0134676D01*
X0232928Y0134176D01*
X0232677Y0133926D01*
X0231677Y0133926D01*
X0231426Y0134176D01*
X0231426Y0134676D01*
X0231677Y0134926D01*
X0256988Y0116454D02*
X0257238Y0116704D01*
X0257738Y0116704D01*
X0257989Y0116454D01*
X0257989Y0116204D01*
X0257738Y0115953D01*
X0256988Y0115953D01*
X0256988Y0115453D02*
X0256988Y0116454D01*
X0256988Y0115453D02*
X0257238Y0115203D01*
X0257738Y0115203D01*
X0257989Y0115453D01*
X0258461Y0115203D02*
X0258962Y0115703D01*
X0258711Y0115703D02*
X0259462Y0115703D01*
X0259462Y0115203D02*
X0259462Y0116704D01*
X0258711Y0116704D01*
X0258461Y0116454D01*
X0258461Y0115953D01*
X0258711Y0115703D01*
X0258922Y0108424D02*
X0258922Y0106923D01*
X0259422Y0106923D02*
X0258421Y0106923D01*
X0257949Y0107173D02*
X0256948Y0108174D01*
X0256948Y0107173D01*
X0257198Y0106923D01*
X0257699Y0106923D01*
X0257949Y0107173D01*
X0257949Y0108174D01*
X0257699Y0108424D01*
X0257198Y0108424D01*
X0256948Y0108174D01*
X0258922Y0108424D02*
X0259422Y0107924D01*
X0259894Y0107674D02*
X0260145Y0107424D01*
X0260895Y0107424D01*
X0260395Y0107424D02*
X0259894Y0106923D01*
X0259894Y0107674D02*
X0259894Y0108174D01*
X0260145Y0108424D01*
X0260895Y0108424D01*
X0260895Y0106923D01*
X0182491Y0258605D02*
X0182491Y0260106D01*
X0181740Y0260106D01*
X0181490Y0259856D01*
X0181490Y0259355D01*
X0181740Y0259105D01*
X0182491Y0259105D01*
X0181990Y0259105D02*
X0181490Y0258605D01*
X0181017Y0258855D02*
X0181017Y0259105D01*
X0180767Y0259355D01*
X0180267Y0259355D01*
X0180017Y0259105D01*
X0180017Y0258855D01*
X0180267Y0258605D01*
X0180767Y0258605D01*
X0181017Y0258855D01*
X0180767Y0259355D02*
X0181017Y0259606D01*
X0181017Y0259856D01*
X0180767Y0260106D01*
X0180267Y0260106D01*
X0180017Y0259856D01*
X0180017Y0259606D01*
X0180267Y0259355D01*
D13*
X0183094Y0263155D03*
X0260065Y0119753D03*
X0260026Y0111473D03*
X0151352Y0081238D03*
X0122156Y0085003D03*
D14*
X0122149Y0185396D02*
X0125218Y0185396D01*
X0123683Y0185396D02*
X0123683Y0190000D01*
X0125218Y0188465D01*
X0126753Y0189232D02*
X0127520Y0190000D01*
X0129054Y0190000D01*
X0129822Y0189232D01*
X0129822Y0186163D01*
X0129054Y0185396D01*
X0127520Y0185396D01*
X0126753Y0186163D01*
X0127184Y0193867D02*
X0126417Y0194635D01*
X0127184Y0193867D02*
X0128719Y0193867D01*
X0129486Y0194635D01*
X0129486Y0197704D01*
X0128719Y0198471D01*
X0127184Y0198471D01*
X0126417Y0197704D01*
X0124882Y0197704D02*
X0124115Y0198471D01*
X0122580Y0198471D01*
X0121813Y0197704D01*
X0121813Y0196937D01*
X0124882Y0193867D01*
X0121813Y0193867D01*
X0120278Y0194635D02*
X0117209Y0197704D01*
X0117209Y0194635D01*
X0117976Y0193867D01*
X0119511Y0193867D01*
X0120278Y0194635D01*
X0120278Y0197704D01*
X0119511Y0198471D01*
X0117976Y0198471D01*
X0117209Y0197704D01*
X0118312Y0190000D02*
X0117545Y0189232D01*
X0117545Y0186163D01*
X0118312Y0185396D01*
X0119847Y0185396D01*
X0120614Y0186163D01*
X0119847Y0187698D02*
X0117545Y0187698D01*
X0119847Y0187698D02*
X0120614Y0188465D01*
X0120614Y0189232D01*
X0119847Y0190000D01*
X0118312Y0190000D01*
X0170479Y0245350D02*
X0169711Y0246118D01*
X0169711Y0247652D01*
X0170479Y0248419D01*
X0169711Y0249954D02*
X0172780Y0253023D01*
X0173548Y0253023D01*
X0174315Y0252256D01*
X0174315Y0250721D01*
X0173548Y0249954D01*
X0173548Y0248419D02*
X0174315Y0247652D01*
X0174315Y0246118D01*
X0173548Y0245350D01*
X0170479Y0245350D01*
X0169711Y0249954D02*
X0169711Y0253023D01*
X0169711Y0254558D02*
X0169711Y0257627D01*
X0169711Y0256093D02*
X0174315Y0256093D01*
X0172780Y0254558D01*
X0163075Y0254088D02*
X0162308Y0253321D01*
X0159238Y0253321D01*
X0158471Y0254088D01*
X0158471Y0255623D01*
X0159238Y0256390D01*
X0158471Y0257925D02*
X0158471Y0260994D01*
X0158471Y0259459D02*
X0163075Y0259459D01*
X0161540Y0257925D01*
X0162308Y0256390D02*
X0163075Y0255623D01*
X0163075Y0254088D01*
X0155001Y0254079D02*
X0154234Y0253312D01*
X0151165Y0253312D01*
X0150397Y0254079D01*
X0150397Y0255614D01*
X0151165Y0256381D01*
X0150397Y0257916D02*
X0150397Y0260985D01*
X0150397Y0259450D02*
X0155001Y0259450D01*
X0153467Y0257916D01*
X0154234Y0256381D02*
X0155001Y0255614D01*
X0155001Y0254079D01*
X0155001Y0262520D02*
X0152699Y0262520D01*
X0153467Y0264054D01*
X0153467Y0264821D01*
X0152699Y0265589D01*
X0151165Y0265589D01*
X0150397Y0264821D01*
X0150397Y0263287D01*
X0151165Y0262520D01*
X0155001Y0262520D02*
X0155001Y0265589D01*
X0158471Y0264830D02*
X0159238Y0265598D01*
X0160006Y0265598D01*
X0160773Y0264830D01*
X0160773Y0262529D01*
X0159238Y0262529D01*
X0158471Y0263296D01*
X0158471Y0264830D01*
X0160773Y0262529D02*
X0162308Y0264063D01*
X0163075Y0265598D01*
X0169215Y0295535D02*
X0173819Y0295535D01*
X0173819Y0297837D01*
X0173052Y0298604D01*
X0171517Y0298604D01*
X0170750Y0297837D01*
X0170750Y0295535D01*
X0170750Y0297070D02*
X0169215Y0298604D01*
X0169215Y0300139D02*
X0169215Y0303208D01*
X0169215Y0301674D02*
X0173819Y0301674D01*
X0172284Y0300139D01*
X0172284Y0304743D02*
X0173052Y0304743D01*
X0173819Y0305510D01*
X0173819Y0307045D01*
X0173052Y0307812D01*
X0172284Y0307812D01*
X0171517Y0307045D01*
X0171517Y0305510D01*
X0172284Y0304743D01*
X0171517Y0305510D02*
X0170750Y0304743D01*
X0169982Y0304743D01*
X0169215Y0305510D01*
X0169215Y0307045D01*
X0169982Y0307812D01*
X0170750Y0307812D01*
X0171517Y0307045D01*
X0177527Y0308492D02*
X0182131Y0308492D01*
X0182131Y0310794D01*
X0181364Y0311561D01*
X0179829Y0311561D01*
X0179062Y0310794D01*
X0179062Y0308492D01*
X0179062Y0310027D02*
X0177527Y0311561D01*
X0177527Y0313096D02*
X0177527Y0316165D01*
X0177527Y0314630D02*
X0182131Y0314630D01*
X0180596Y0313096D01*
X0180596Y0317700D02*
X0179829Y0318467D01*
X0179829Y0320769D01*
X0181364Y0320769D02*
X0182131Y0320002D01*
X0182131Y0318467D01*
X0181364Y0317700D01*
X0180596Y0317700D01*
X0178294Y0317700D02*
X0177527Y0318467D01*
X0177527Y0320002D01*
X0178294Y0320769D01*
X0181364Y0320769D01*
X0178192Y0334984D02*
X0173588Y0334984D01*
X0175123Y0334984D02*
X0175123Y0337286D01*
X0175890Y0338054D01*
X0177425Y0338054D01*
X0178192Y0337286D01*
X0178192Y0334984D01*
X0175123Y0336519D02*
X0173588Y0338054D01*
X0173588Y0339588D02*
X0173588Y0342658D01*
X0173588Y0341123D02*
X0178192Y0341123D01*
X0176657Y0339588D01*
X0175890Y0344192D02*
X0174355Y0344192D01*
X0173588Y0344959D01*
X0173588Y0346494D01*
X0174355Y0347261D01*
X0175123Y0347261D01*
X0175890Y0346494D01*
X0175890Y0344192D01*
X0177425Y0345727D01*
X0178192Y0347261D01*
X0168903Y0347059D02*
X0168136Y0347826D01*
X0166601Y0347826D01*
X0165834Y0347059D01*
X0165834Y0344757D01*
X0165834Y0346291D02*
X0164299Y0347826D01*
X0164299Y0349361D02*
X0165066Y0349361D01*
X0168136Y0352430D01*
X0168903Y0352430D01*
X0168903Y0349361D01*
X0168903Y0347059D02*
X0168903Y0344757D01*
X0164299Y0344757D01*
X0156296Y0345676D02*
X0156296Y0347978D01*
X0155529Y0348745D01*
X0153994Y0348745D01*
X0153227Y0347978D01*
X0153227Y0345676D01*
X0151692Y0345676D02*
X0156296Y0345676D01*
X0153227Y0347211D02*
X0151692Y0348745D01*
X0151692Y0350280D02*
X0151692Y0353349D01*
X0151692Y0351815D02*
X0156296Y0351815D01*
X0154762Y0350280D01*
X0153994Y0354884D02*
X0154762Y0356418D01*
X0154762Y0357186D01*
X0153994Y0357953D01*
X0152460Y0357953D01*
X0151692Y0357186D01*
X0151692Y0355651D01*
X0152460Y0354884D01*
X0153994Y0354884D02*
X0156296Y0354884D01*
X0156296Y0357953D01*
X0165110Y0360111D02*
X0169714Y0360111D01*
X0169714Y0362413D01*
X0168946Y0363181D01*
X0167412Y0363181D01*
X0166644Y0362413D01*
X0166644Y0360111D01*
X0166644Y0361646D02*
X0165110Y0363181D01*
X0165110Y0364715D02*
X0168179Y0367784D01*
X0168946Y0367784D01*
X0169714Y0367017D01*
X0169714Y0365483D01*
X0168946Y0364715D01*
X0165110Y0364715D02*
X0165110Y0367784D01*
X0165110Y0369319D02*
X0168179Y0372388D01*
X0168946Y0372388D01*
X0169714Y0371621D01*
X0169714Y0370086D01*
X0168946Y0369319D01*
X0165110Y0369319D02*
X0165110Y0372388D01*
X0148676Y0306764D02*
X0147909Y0306764D01*
X0144839Y0303695D01*
X0144072Y0303695D01*
X0144072Y0302161D02*
X0144072Y0299091D01*
X0144072Y0297557D02*
X0145607Y0296022D01*
X0145607Y0296789D02*
X0145607Y0294487D01*
X0144072Y0294487D02*
X0148676Y0294487D01*
X0148676Y0296789D01*
X0147909Y0297557D01*
X0146374Y0297557D01*
X0145607Y0296789D01*
X0147141Y0299091D02*
X0148676Y0300626D01*
X0144072Y0300626D01*
X0148676Y0303695D02*
X0148676Y0306764D01*
X0217413Y0244927D02*
X0217413Y0244160D01*
X0218180Y0243393D01*
X0217413Y0242625D01*
X0217413Y0241858D01*
X0218180Y0241091D01*
X0219715Y0241091D01*
X0220482Y0241858D01*
X0222017Y0241091D02*
X0225086Y0241091D01*
X0222017Y0244160D01*
X0222017Y0244927D01*
X0222784Y0245695D01*
X0224319Y0245695D01*
X0225086Y0244927D01*
X0226621Y0244927D02*
X0226621Y0243393D01*
X0227388Y0242625D01*
X0229690Y0242625D01*
X0229690Y0241091D02*
X0229690Y0245695D01*
X0227388Y0245695D01*
X0226621Y0244927D01*
X0228155Y0242625D02*
X0226621Y0241091D01*
X0220482Y0244927D02*
X0219715Y0245695D01*
X0218180Y0245695D01*
X0217413Y0244927D01*
X0218180Y0243393D02*
X0218947Y0243393D01*
M02*
