G75*
%MOIN*%
%OFA0B0*%
%FSLAX25Y25*%
%IPPOS*%
%LPD*%
%AMOC8*
5,1,8,0,0,1.08239X$1,22.5*
%
%ADD10R,0.05131X0.04737*%
%ADD11C,0.01421*%
%ADD12R,0.06706X0.07099*%
%ADD13R,0.04737X0.05131*%
%ADD14R,0.05524X0.01981*%
%ADD15R,0.01981X0.05524*%
%ADD16R,0.13398X0.07887*%
%ADD17R,0.02572X0.04737*%
%ADD18R,0.06902X0.06706*%
%ADD19R,0.06115X0.02375*%
%ADD20C,0.05950*%
%ADD21C,0.07591*%
%ADD22R,0.03556X0.02572*%
%ADD23R,0.03900X0.04300*%
%ADD24R,0.07887X0.10249*%
%ADD25R,0.07099X0.05524*%
%ADD26R,0.07099X0.13792*%
%ADD27OC8,0.06400*%
%ADD28R,0.03517X0.01902*%
%ADD29R,0.10643X0.10643*%
%ADD30R,0.01902X0.03517*%
%ADD31C,0.06300*%
%ADD32C,0.10250*%
%ADD33C,0.06800*%
%ADD34C,0.13400*%
%ADD35R,0.02769X0.03359*%
%ADD36R,0.03359X0.02769*%
%ADD37C,0.06400*%
%ADD38R,0.03162X0.18517*%
%ADD39C,0.04400*%
%ADD40C,0.04762*%
%ADD41C,0.03400*%
D10*
X0109142Y0087793D03*
X0115835Y0087793D03*
X0150016Y0084369D03*
X0156709Y0084369D03*
X0221035Y0053574D03*
X0227728Y0053574D03*
X0280586Y0162695D03*
X0287279Y0162695D03*
X0145455Y0267994D03*
X0145455Y0274687D03*
X0118188Y0263148D03*
X0111496Y0263148D03*
X0111527Y0255056D03*
X0118220Y0255056D03*
X0118227Y0247019D03*
X0111534Y0247019D03*
X0111450Y0238965D03*
X0118143Y0238965D03*
D11*
X0105761Y0238127D02*
X0105761Y0241443D01*
X0105761Y0238127D02*
X0102445Y0238127D01*
X0102445Y0241443D01*
X0105761Y0241443D01*
X0105761Y0239547D02*
X0102445Y0239547D01*
X0102445Y0240967D02*
X0105761Y0240967D01*
X0105935Y0245775D02*
X0105935Y0249091D01*
X0105935Y0245775D02*
X0102619Y0245775D01*
X0102619Y0249091D01*
X0105935Y0249091D01*
X0105935Y0247195D02*
X0102619Y0247195D01*
X0102619Y0248615D02*
X0105935Y0248615D01*
X0105862Y0253479D02*
X0105862Y0256795D01*
X0105862Y0253479D02*
X0102546Y0253479D01*
X0102546Y0256795D01*
X0105862Y0256795D01*
X0105862Y0254899D02*
X0102546Y0254899D01*
X0102546Y0256319D02*
X0105862Y0256319D01*
X0105932Y0261347D02*
X0105932Y0264663D01*
X0105932Y0261347D02*
X0102616Y0261347D01*
X0102616Y0264663D01*
X0105932Y0264663D01*
X0105932Y0262767D02*
X0102616Y0262767D01*
X0102616Y0264187D02*
X0105932Y0264187D01*
X0099027Y0264663D02*
X0099027Y0261347D01*
X0095711Y0261347D01*
X0095711Y0264663D01*
X0099027Y0264663D01*
X0099027Y0262767D02*
X0095711Y0262767D01*
X0095711Y0264187D02*
X0099027Y0264187D01*
X0098956Y0256795D02*
X0098956Y0253479D01*
X0095640Y0253479D01*
X0095640Y0256795D01*
X0098956Y0256795D01*
X0098956Y0254899D02*
X0095640Y0254899D01*
X0095640Y0256319D02*
X0098956Y0256319D01*
X0099029Y0249091D02*
X0099029Y0245775D01*
X0095713Y0245775D01*
X0095713Y0249091D01*
X0099029Y0249091D01*
X0099029Y0247195D02*
X0095713Y0247195D01*
X0095713Y0248615D02*
X0099029Y0248615D01*
X0098856Y0241443D02*
X0098856Y0238127D01*
X0095540Y0238127D01*
X0095540Y0241443D01*
X0098856Y0241443D01*
X0098856Y0239547D02*
X0095540Y0239547D01*
X0095540Y0240967D02*
X0098856Y0240967D01*
D12*
X0138078Y0213221D03*
X0147133Y0213221D03*
X0147133Y0203378D03*
X0138078Y0203378D03*
X0279846Y0181886D03*
X0288901Y0181886D03*
X0288901Y0172044D03*
X0279846Y0172044D03*
D13*
X0235098Y0080675D03*
X0235098Y0073982D03*
X0121532Y0165380D03*
X0121532Y0172073D03*
X0121217Y0202689D03*
X0121217Y0209382D03*
X0155824Y0209120D03*
X0155824Y0202427D03*
X0137165Y0259992D03*
X0137165Y0266685D03*
D14*
X0174001Y0180711D03*
X0174001Y0178743D03*
X0174001Y0176774D03*
X0174001Y0174806D03*
X0174001Y0172837D03*
X0174001Y0170869D03*
X0174001Y0168900D03*
X0174001Y0166932D03*
X0174001Y0164963D03*
X0174001Y0162995D03*
X0174001Y0161026D03*
X0174001Y0159058D03*
X0174001Y0157089D03*
X0174001Y0155121D03*
X0174001Y0153152D03*
X0174001Y0151184D03*
X0174001Y0149215D03*
X0174001Y0147247D03*
X0174001Y0145278D03*
X0174001Y0143310D03*
X0174001Y0141341D03*
X0174001Y0139373D03*
X0174001Y0137404D03*
X0174001Y0135436D03*
X0174001Y0133467D03*
X0235024Y0133467D03*
X0235024Y0135436D03*
X0235024Y0137404D03*
X0235024Y0139373D03*
X0235024Y0141341D03*
X0235024Y0143310D03*
X0235024Y0145278D03*
X0235024Y0147247D03*
X0235024Y0149215D03*
X0235024Y0151184D03*
X0235024Y0153152D03*
X0235024Y0155121D03*
X0235024Y0157089D03*
X0235024Y0159058D03*
X0235024Y0161026D03*
X0235024Y0162995D03*
X0235024Y0164963D03*
X0235024Y0166932D03*
X0235024Y0168900D03*
X0235024Y0170869D03*
X0235024Y0172837D03*
X0235024Y0174806D03*
X0235024Y0176774D03*
X0235024Y0178743D03*
X0235024Y0180711D03*
D15*
X0228135Y0187601D03*
X0226166Y0187601D03*
X0224198Y0187601D03*
X0222229Y0187601D03*
X0220261Y0187601D03*
X0218292Y0187601D03*
X0216324Y0187601D03*
X0214355Y0187601D03*
X0212387Y0187601D03*
X0210418Y0187601D03*
X0208450Y0187601D03*
X0206481Y0187601D03*
X0204513Y0187601D03*
X0202544Y0187601D03*
X0200576Y0187601D03*
X0198607Y0187601D03*
X0196639Y0187601D03*
X0194670Y0187601D03*
X0192702Y0187601D03*
X0190733Y0187601D03*
X0188765Y0187601D03*
X0186796Y0187601D03*
X0184828Y0187601D03*
X0182859Y0187601D03*
X0180891Y0187601D03*
X0180891Y0126577D03*
X0182859Y0126577D03*
X0184828Y0126577D03*
X0186796Y0126577D03*
X0188765Y0126577D03*
X0190733Y0126577D03*
X0192702Y0126577D03*
X0194670Y0126577D03*
X0196639Y0126577D03*
X0198607Y0126577D03*
X0200576Y0126577D03*
X0202544Y0126577D03*
X0204513Y0126577D03*
X0206481Y0126577D03*
X0208450Y0126577D03*
X0210418Y0126577D03*
X0212387Y0126577D03*
X0214355Y0126577D03*
X0216324Y0126577D03*
X0218292Y0126577D03*
X0220261Y0126577D03*
X0222229Y0126577D03*
X0224198Y0126577D03*
X0226166Y0126577D03*
X0228135Y0126577D03*
D16*
X0106257Y0166252D03*
X0106257Y0188299D03*
X0106257Y0203193D03*
X0106257Y0225240D03*
D17*
X0222136Y0083421D03*
X0224695Y0083421D03*
X0227254Y0083421D03*
X0229813Y0083421D03*
X0229813Y0073776D03*
X0227254Y0073776D03*
X0224695Y0073776D03*
X0222136Y0073776D03*
D18*
X0078662Y0135919D03*
X0078662Y0143793D03*
D19*
X0089292Y0144974D03*
X0089292Y0142415D03*
X0089292Y0139856D03*
X0089292Y0137297D03*
X0089292Y0134738D03*
D20*
X0089292Y0130013D03*
X0089292Y0149698D03*
D21*
X0078662Y0154019D03*
X0078662Y0125693D03*
D22*
X0095228Y0139348D03*
X0095228Y0142497D03*
X0101330Y0142497D03*
X0101330Y0139348D03*
D23*
X0107853Y0119397D03*
X0111653Y0111397D03*
X0104053Y0111397D03*
D24*
X0099381Y0099560D03*
X0115326Y0099560D03*
D25*
X0124799Y0097307D03*
X0124799Y0106362D03*
X0124799Y0088251D03*
D26*
X0149996Y0097307D03*
D27*
X0169513Y0098940D03*
X0179513Y0098940D03*
X0189513Y0098940D03*
X0199513Y0098940D03*
X0209513Y0098940D03*
X0219513Y0098940D03*
X0229513Y0098940D03*
X0239513Y0098940D03*
X0239513Y0108940D03*
X0229513Y0108940D03*
X0219513Y0108940D03*
X0209513Y0108940D03*
X0199513Y0108940D03*
X0189513Y0108940D03*
X0179513Y0108940D03*
X0169513Y0108940D03*
X0156363Y0122089D03*
X0146363Y0122089D03*
X0146363Y0132089D03*
X0146363Y0142089D03*
X0156363Y0142089D03*
X0156363Y0132089D03*
X0156363Y0152089D03*
X0146363Y0152089D03*
X0146363Y0162089D03*
X0146363Y0172089D03*
X0156363Y0172089D03*
X0156363Y0162089D03*
X0156363Y0182089D03*
X0156363Y0192089D03*
X0146363Y0192089D03*
X0146363Y0182089D03*
X0174972Y0209659D03*
X0184972Y0209659D03*
X0194972Y0209659D03*
X0204972Y0209659D03*
X0214972Y0209659D03*
X0224972Y0209659D03*
X0224972Y0219659D03*
X0214972Y0219659D03*
X0204972Y0219659D03*
X0194972Y0219659D03*
X0184972Y0219659D03*
X0174972Y0219659D03*
X0234972Y0219659D03*
X0252662Y0192089D03*
X0252662Y0182089D03*
X0262662Y0182089D03*
X0262662Y0192089D03*
X0262662Y0172089D03*
X0262662Y0162089D03*
X0252662Y0162089D03*
X0252662Y0172089D03*
X0252662Y0152089D03*
X0262662Y0152089D03*
X0262662Y0142089D03*
X0262662Y0132089D03*
X0252662Y0132089D03*
X0252662Y0142089D03*
X0252662Y0122089D03*
X0262662Y0122089D03*
D28*
X0161216Y0248299D03*
X0161216Y0250267D03*
X0161216Y0252236D03*
X0161216Y0254204D03*
X0161216Y0256173D03*
X0161216Y0258141D03*
X0143933Y0258141D03*
X0143933Y0256173D03*
X0143933Y0254204D03*
X0143933Y0252236D03*
X0143933Y0250267D03*
X0143933Y0248299D03*
D29*
X0152574Y0253220D03*
D30*
X0151590Y0244578D03*
X0149622Y0244578D03*
X0147653Y0244578D03*
X0153559Y0244578D03*
X0155527Y0244578D03*
X0157496Y0244578D03*
X0157496Y0261862D03*
X0155527Y0261862D03*
X0153559Y0261862D03*
X0151590Y0261862D03*
X0149622Y0261862D03*
X0147653Y0261862D03*
D31*
X0143981Y0306558D03*
X0153981Y0306558D03*
X0163981Y0306558D03*
X0158981Y0316558D03*
X0148981Y0316558D03*
X0138981Y0316558D03*
X0133981Y0306558D03*
X0168981Y0316558D03*
D32*
X0182481Y0329558D03*
X0120481Y0329558D03*
D33*
X0126581Y0354858D03*
X0136581Y0360858D03*
X0166381Y0354858D03*
X0176381Y0360858D03*
D34*
X0173981Y0341558D03*
X0128981Y0341558D03*
D35*
X0173796Y0250196D03*
X0176945Y0250196D03*
X0180095Y0250196D03*
X0183245Y0250196D03*
X0183245Y0244882D03*
X0180095Y0244882D03*
X0176945Y0244882D03*
X0173796Y0244882D03*
X0158452Y0234679D03*
X0155303Y0234679D03*
X0152153Y0234679D03*
X0149003Y0234679D03*
X0149003Y0229364D03*
X0152153Y0229364D03*
X0155303Y0229364D03*
X0158452Y0229364D03*
D36*
X0209273Y0236983D03*
X0209273Y0240133D03*
X0209273Y0243282D03*
X0209273Y0246432D03*
X0214588Y0246432D03*
X0214588Y0243282D03*
X0214588Y0240133D03*
X0214588Y0236983D03*
D37*
X0234972Y0209659D03*
D38*
X0092878Y0024602D03*
X0096028Y0024602D03*
X0099177Y0024602D03*
X0102327Y0024602D03*
X0105476Y0024602D03*
X0108626Y0024602D03*
X0111776Y0024602D03*
X0114925Y0024602D03*
X0118075Y0024602D03*
X0121224Y0024602D03*
X0124374Y0024602D03*
X0127524Y0024602D03*
X0130673Y0024602D03*
X0133823Y0024602D03*
X0136972Y0024602D03*
X0140122Y0024602D03*
X0143272Y0024602D03*
X0146421Y0024602D03*
X0149571Y0024602D03*
X0152721Y0024602D03*
X0155870Y0024602D03*
X0159020Y0024602D03*
X0162169Y0024602D03*
X0165319Y0024602D03*
X0168469Y0024602D03*
X0171618Y0024602D03*
X0174768Y0024602D03*
X0177917Y0024602D03*
X0181067Y0024602D03*
X0184217Y0024602D03*
X0187366Y0024602D03*
X0190516Y0024602D03*
X0206264Y0024602D03*
X0209413Y0024602D03*
X0212563Y0024602D03*
X0215713Y0024602D03*
X0218862Y0024602D03*
X0222012Y0024602D03*
X0225161Y0024602D03*
X0228311Y0024602D03*
X0231461Y0024602D03*
X0234610Y0024602D03*
X0237760Y0024602D03*
X0240909Y0024602D03*
X0244059Y0024602D03*
X0247209Y0024602D03*
X0250358Y0024602D03*
X0253508Y0024602D03*
X0256658Y0024602D03*
X0259807Y0024602D03*
X0262957Y0024602D03*
X0266106Y0024602D03*
X0269256Y0024602D03*
X0272406Y0024602D03*
X0275555Y0024602D03*
X0278705Y0024602D03*
X0281854Y0024602D03*
X0285004Y0024602D03*
X0288154Y0024602D03*
X0291303Y0024602D03*
D39*
X0242096Y0079280D03*
X0226800Y0089231D03*
X0223040Y0092565D03*
X0237181Y0126818D03*
X0226241Y0133928D03*
X0228711Y0153162D03*
X0229327Y0159044D03*
X0228949Y0163852D03*
X0223655Y0167842D03*
X0228621Y0171668D03*
X0228650Y0176373D03*
X0223986Y0181631D03*
X0238513Y0195496D03*
X0226152Y0198593D03*
X0220805Y0198698D03*
X0204145Y0165463D03*
X0184724Y0181109D03*
X0173685Y0195386D03*
X0179865Y0168699D03*
X0179945Y0137195D03*
X0179758Y0132486D03*
X0200655Y0133227D03*
X0180808Y0081716D03*
X0148461Y0078015D03*
X0129438Y0119967D03*
X0140202Y0126997D03*
X0136115Y0133573D03*
X0131007Y0165038D03*
X0154894Y0222497D03*
X0163219Y0224256D03*
X0176701Y0235104D03*
X0183870Y0228648D03*
X0167941Y0245420D03*
X0167059Y0240638D03*
X0165994Y0252040D03*
X0152723Y0240034D03*
X0143646Y0238825D03*
X0144111Y0244651D03*
X0142921Y0261573D03*
X0160152Y0266711D03*
X0167156Y0276944D03*
X0155897Y0289526D03*
X0181437Y0263855D03*
D40*
X0192870Y0246466D03*
X0200047Y0240861D03*
X0149262Y0223053D03*
X0105994Y0177336D03*
X0167569Y0128861D03*
X0137203Y0273900D03*
D41*
X0122928Y0262977D03*
X0123476Y0255116D03*
X0123445Y0247475D03*
X0123888Y0239542D03*
X0121188Y0196722D03*
X0121833Y0158669D03*
X0105486Y0142647D03*
X0105796Y0138849D03*
X0167898Y0141858D03*
X0168167Y0136200D03*
X0216300Y0131891D03*
M02*
