G75*
%MOIN*%
%OFA0B0*%
%FSLAX25Y25*%
%IPPOS*%
%LPD*%
%AMOC8*
5,1,8,0,0,1.08239X$1,22.5*
%
%ADD10C,0.00200*%
%ADD11C,0.00600*%
%ADD12C,0.02200*%
%ADD13C,0.00100*%
%ADD14C,0.00800*%
%ADD15C,0.00400*%
%ADD16R,0.03000X0.01800*%
%ADD17R,0.01800X0.03000*%
%ADD18C,0.00500*%
%ADD19C,0.00984*%
%ADD20C,0.01600*%
%ADD21R,0.02657X0.09646*%
%ADD22C,0.00300*%
D10*
X0106689Y0083923D02*
X0106689Y0091663D01*
X0118288Y0091663D01*
X0118288Y0083923D01*
X0106689Y0083923D01*
X0140505Y0114866D02*
X0141973Y0114866D01*
X0141239Y0115600D02*
X0141239Y0114132D01*
X0142715Y0114132D02*
X0143082Y0113765D01*
X0143816Y0113765D01*
X0144183Y0114132D01*
X0144183Y0114499D01*
X0143816Y0114866D01*
X0143449Y0114866D01*
X0143816Y0114866D02*
X0144183Y0115233D01*
X0144183Y0115600D01*
X0143816Y0115967D01*
X0143082Y0115967D01*
X0142715Y0115600D01*
X0144925Y0115967D02*
X0144925Y0114499D01*
X0145659Y0113765D01*
X0146393Y0114499D01*
X0146393Y0115967D01*
X0147135Y0115600D02*
X0147502Y0115967D01*
X0148235Y0115967D01*
X0148602Y0115600D01*
X0148602Y0115233D01*
X0148235Y0114866D01*
X0148602Y0114499D01*
X0148602Y0114132D01*
X0148235Y0113765D01*
X0147502Y0113765D01*
X0147135Y0114132D01*
X0147868Y0114866D02*
X0148235Y0114866D01*
X0152905Y0115541D02*
X0153272Y0115908D01*
X0154006Y0115908D01*
X0154373Y0115541D01*
X0154373Y0114807D02*
X0153639Y0114807D01*
X0154373Y0114807D02*
X0154373Y0114073D01*
X0154006Y0113706D01*
X0153272Y0113706D01*
X0152905Y0114073D01*
X0152905Y0115541D01*
X0155115Y0115908D02*
X0155115Y0113706D01*
X0156583Y0113706D02*
X0155115Y0115908D01*
X0156583Y0115908D02*
X0156583Y0113706D01*
X0157325Y0113706D02*
X0158426Y0113706D01*
X0158793Y0114073D01*
X0158793Y0115541D01*
X0158426Y0115908D01*
X0157325Y0115908D01*
X0157325Y0113706D01*
X0161588Y0112778D02*
X0163790Y0112778D01*
X0163790Y0112044D02*
X0163790Y0113512D01*
X0162322Y0112044D02*
X0161588Y0112778D01*
X0161588Y0110568D02*
X0163790Y0110568D01*
X0163790Y0109834D02*
X0163790Y0111302D01*
X0162322Y0109834D02*
X0161588Y0110568D01*
X0161955Y0109092D02*
X0161588Y0108725D01*
X0161588Y0107991D01*
X0161955Y0107624D01*
X0163423Y0107624D01*
X0163790Y0107991D01*
X0163790Y0108725D01*
X0163423Y0109092D01*
X0162689Y0106882D02*
X0163056Y0106515D01*
X0163056Y0105414D01*
X0163790Y0105414D02*
X0161588Y0105414D01*
X0161588Y0106515D01*
X0161955Y0106882D01*
X0162689Y0106882D01*
X0162981Y0102669D02*
X0163348Y0102302D01*
X0163348Y0101201D01*
X0164082Y0101201D02*
X0161880Y0101201D01*
X0161880Y0102302D01*
X0162247Y0102669D01*
X0162981Y0102669D01*
X0163348Y0100459D02*
X0162247Y0100459D01*
X0161880Y0100092D01*
X0162247Y0099725D01*
X0163348Y0099725D01*
X0163348Y0098991D02*
X0161880Y0098991D01*
X0161880Y0099358D01*
X0162247Y0099725D01*
X0162247Y0098249D02*
X0162614Y0098249D01*
X0162614Y0096781D01*
X0162981Y0096781D02*
X0162247Y0096781D01*
X0161880Y0097148D01*
X0161880Y0097882D01*
X0162247Y0098249D01*
X0163348Y0097882D02*
X0163348Y0097148D01*
X0162981Y0096781D01*
X0163348Y0095305D02*
X0161146Y0095305D01*
X0161146Y0094572D02*
X0161146Y0096039D01*
X0159162Y0088239D02*
X0159162Y0080499D01*
X0147563Y0080499D01*
X0147563Y0088239D01*
X0159162Y0088239D01*
X0176177Y0088516D02*
X0176177Y0090718D01*
X0177278Y0090718D01*
X0177645Y0090351D01*
X0177645Y0089617D01*
X0177278Y0089250D01*
X0176177Y0089250D01*
X0178387Y0088516D02*
X0178387Y0090718D01*
X0179488Y0090718D01*
X0179855Y0090351D01*
X0179855Y0088883D01*
X0179488Y0088516D01*
X0178387Y0088516D01*
X0180597Y0088883D02*
X0182065Y0090351D01*
X0182065Y0088883D01*
X0181698Y0088516D01*
X0180964Y0088516D01*
X0180597Y0088883D01*
X0180597Y0090351D01*
X0180964Y0090718D01*
X0181698Y0090718D01*
X0182065Y0090351D01*
X0185993Y0090519D02*
X0185993Y0088317D01*
X0185993Y0089051D02*
X0187094Y0089051D01*
X0187461Y0089418D01*
X0187461Y0090152D01*
X0187094Y0090519D01*
X0185993Y0090519D01*
X0188203Y0090519D02*
X0188203Y0088317D01*
X0189304Y0088317D01*
X0189671Y0088684D01*
X0189671Y0090152D01*
X0189304Y0090519D01*
X0188203Y0090519D01*
X0190413Y0090152D02*
X0190780Y0090519D01*
X0191514Y0090519D01*
X0191881Y0090152D01*
X0191881Y0089785D01*
X0190413Y0088317D01*
X0191881Y0088317D01*
X0193720Y0088704D02*
X0194087Y0088337D01*
X0194821Y0088337D01*
X0195188Y0088704D01*
X0195188Y0089071D01*
X0194821Y0089438D01*
X0194087Y0089438D01*
X0193720Y0089805D01*
X0193720Y0090171D01*
X0194087Y0090538D01*
X0194821Y0090538D01*
X0195188Y0090171D01*
X0195930Y0090538D02*
X0195930Y0088337D01*
X0195930Y0089438D02*
X0196297Y0089805D01*
X0197031Y0089805D01*
X0197397Y0089438D01*
X0197397Y0088337D01*
X0198139Y0088337D02*
X0198873Y0088337D01*
X0198506Y0088337D02*
X0198506Y0089805D01*
X0198139Y0089805D01*
X0198506Y0090538D02*
X0198506Y0090905D01*
X0199980Y0090171D02*
X0199980Y0088337D01*
X0199613Y0089438D02*
X0200347Y0089438D01*
X0199980Y0090171D02*
X0200347Y0090538D01*
X0201086Y0089805D02*
X0201820Y0089805D01*
X0201453Y0090171D02*
X0201453Y0088704D01*
X0201820Y0088337D01*
X0202559Y0088704D02*
X0202926Y0088337D01*
X0203660Y0088337D01*
X0204027Y0088704D01*
X0204769Y0088337D02*
X0205503Y0088337D01*
X0205136Y0088337D02*
X0205136Y0090538D01*
X0204769Y0090538D01*
X0204027Y0090171D02*
X0203660Y0090538D01*
X0202926Y0090538D01*
X0202559Y0090171D01*
X0202559Y0088704D01*
X0206242Y0089071D02*
X0207343Y0089805D01*
X0206242Y0090538D02*
X0206242Y0088337D01*
X0206242Y0089071D02*
X0207343Y0088337D01*
X0208823Y0088128D02*
X0209924Y0088128D01*
X0210291Y0087761D01*
X0209924Y0087394D01*
X0210291Y0087027D01*
X0209924Y0086660D01*
X0208823Y0086660D01*
X0208456Y0085918D02*
X0209190Y0085918D01*
X0209557Y0085551D01*
X0209557Y0084450D01*
X0210291Y0084450D02*
X0208089Y0084450D01*
X0208089Y0085551D01*
X0208456Y0085918D01*
X0208823Y0083709D02*
X0208823Y0083342D01*
X0209557Y0082608D01*
X0210291Y0082608D02*
X0208823Y0082608D01*
X0209190Y0081866D02*
X0210291Y0081866D01*
X0210291Y0080765D01*
X0209924Y0080398D01*
X0209557Y0080765D01*
X0209557Y0081866D01*
X0209190Y0081866D02*
X0208823Y0081499D01*
X0208823Y0080765D01*
X0209190Y0079656D02*
X0210291Y0079656D01*
X0209190Y0079656D02*
X0208823Y0079289D01*
X0208823Y0078188D01*
X0210291Y0078188D01*
X0209924Y0077447D02*
X0209190Y0077447D01*
X0208823Y0077080D01*
X0208823Y0076346D01*
X0209190Y0075979D01*
X0209924Y0075979D01*
X0210291Y0076346D01*
X0210291Y0077080D01*
X0209924Y0077447D01*
X0209924Y0075237D02*
X0210291Y0074870D01*
X0210291Y0074136D01*
X0209924Y0073769D01*
X0209190Y0074136D02*
X0209190Y0074870D01*
X0209557Y0075237D01*
X0209924Y0075237D01*
X0209190Y0074136D02*
X0208823Y0073769D01*
X0208456Y0073769D01*
X0208089Y0074136D01*
X0208089Y0074870D01*
X0208456Y0075237D01*
X0216105Y0078209D02*
X0216472Y0077842D01*
X0217940Y0077842D01*
X0218307Y0078209D01*
X0218307Y0078943D01*
X0217940Y0079310D01*
X0218307Y0080052D02*
X0216839Y0080052D01*
X0216105Y0080786D01*
X0216839Y0081520D01*
X0218307Y0081520D01*
X0218307Y0082262D02*
X0216105Y0082262D01*
X0218307Y0083730D01*
X0216105Y0083730D01*
X0217206Y0081520D02*
X0217206Y0080052D01*
X0216472Y0079310D02*
X0216105Y0078943D01*
X0216105Y0078209D01*
X0218674Y0084472D02*
X0218674Y0085940D01*
X0218307Y0086682D02*
X0216105Y0086682D01*
X0216105Y0087783D01*
X0216472Y0088150D01*
X0217206Y0088150D01*
X0217573Y0087783D01*
X0217573Y0086682D01*
X0217573Y0087416D02*
X0218307Y0088150D01*
X0218307Y0088891D02*
X0216105Y0090359D01*
X0216105Y0088891D02*
X0218307Y0090359D01*
X0210291Y0090337D02*
X0209190Y0090337D01*
X0208823Y0089970D01*
X0209190Y0089604D01*
X0210291Y0089604D01*
X0210291Y0088870D02*
X0208823Y0088870D01*
X0208823Y0089237D01*
X0209190Y0089604D01*
X0232128Y0089099D02*
X0232862Y0088365D01*
X0234330Y0088365D01*
X0233963Y0087623D02*
X0232495Y0087623D01*
X0232128Y0087256D01*
X0232128Y0086155D01*
X0234330Y0086155D01*
X0234330Y0087256D01*
X0233963Y0087623D01*
X0233229Y0088365D02*
X0233229Y0089833D01*
X0232862Y0089833D02*
X0234330Y0089833D01*
X0234330Y0090575D02*
X0234330Y0092043D01*
X0234330Y0091309D02*
X0232128Y0091309D01*
X0232862Y0090575D01*
X0232862Y0089833D02*
X0232128Y0089099D01*
X0232495Y0085413D02*
X0232128Y0085046D01*
X0232128Y0084312D01*
X0232495Y0083945D01*
X0232862Y0083945D01*
X0233229Y0084312D01*
X0233229Y0085046D01*
X0233596Y0085413D01*
X0233963Y0085413D01*
X0234330Y0085046D01*
X0234330Y0084312D01*
X0233963Y0083945D01*
X0231228Y0083128D02*
X0238969Y0083128D01*
X0238969Y0071529D01*
X0231228Y0071529D01*
X0231228Y0083128D01*
X0246777Y0099249D02*
X0247511Y0099249D01*
X0247878Y0099616D01*
X0248620Y0099249D02*
X0248620Y0100717D01*
X0249354Y0101450D01*
X0250088Y0100717D01*
X0250088Y0099249D01*
X0250830Y0099249D02*
X0250830Y0101450D01*
X0251564Y0100717D01*
X0252297Y0101450D01*
X0252297Y0099249D01*
X0253039Y0098882D02*
X0254507Y0098882D01*
X0255249Y0099249D02*
X0256717Y0100717D01*
X0256717Y0101083D01*
X0256350Y0101450D01*
X0255616Y0101450D01*
X0255249Y0101083D01*
X0255249Y0099249D02*
X0256717Y0099249D01*
X0250088Y0100350D02*
X0248620Y0100350D01*
X0247878Y0101083D02*
X0247511Y0101450D01*
X0246777Y0101450D01*
X0246410Y0101083D01*
X0246410Y0099616D01*
X0246777Y0099249D01*
X0246857Y0106040D02*
X0246491Y0106040D01*
X0246124Y0106407D01*
X0246124Y0107141D01*
X0246491Y0107508D01*
X0246491Y0108250D02*
X0247958Y0108250D01*
X0248325Y0108617D01*
X0248325Y0109351D01*
X0247958Y0109718D01*
X0248325Y0110460D02*
X0248325Y0111927D01*
X0248325Y0112669D02*
X0248325Y0114137D01*
X0248325Y0113403D02*
X0246124Y0113403D01*
X0246857Y0112669D01*
X0246124Y0110460D02*
X0248325Y0110460D01*
X0246491Y0109718D02*
X0246124Y0109351D01*
X0246124Y0108617D01*
X0246491Y0108250D01*
X0247591Y0107508D02*
X0247958Y0107508D01*
X0248325Y0107141D01*
X0248325Y0106407D01*
X0247958Y0106040D01*
X0247224Y0106407D02*
X0247224Y0107141D01*
X0247591Y0107508D01*
X0247224Y0106407D02*
X0246857Y0106040D01*
X0234772Y0120171D02*
X0233304Y0122373D01*
X0232562Y0122373D02*
X0231095Y0122373D01*
X0231828Y0122373D02*
X0231828Y0120171D01*
X0233304Y0120171D02*
X0234772Y0122373D01*
X0230353Y0119804D02*
X0228885Y0119804D01*
X0228143Y0120171D02*
X0228143Y0122373D01*
X0226675Y0122373D02*
X0228143Y0120171D01*
X0226675Y0120171D02*
X0226675Y0122373D01*
X0225933Y0121639D02*
X0225933Y0120171D01*
X0225933Y0121272D02*
X0224465Y0121272D01*
X0224465Y0121639D02*
X0225199Y0122373D01*
X0225933Y0121639D01*
X0224465Y0121639D02*
X0224465Y0120171D01*
X0223723Y0120538D02*
X0223356Y0120171D01*
X0222622Y0120171D01*
X0222255Y0120538D01*
X0222255Y0122006D01*
X0222622Y0122373D01*
X0223356Y0122373D01*
X0223723Y0122006D01*
X0223864Y0119258D02*
X0223864Y0117056D01*
X0222397Y0117056D02*
X0222397Y0119258D01*
X0223130Y0118524D01*
X0223864Y0119258D01*
X0221655Y0116689D02*
X0220187Y0116689D01*
X0219445Y0117056D02*
X0219445Y0118157D01*
X0219078Y0118524D01*
X0218711Y0118157D01*
X0218711Y0117056D01*
X0217977Y0117056D02*
X0217977Y0118524D01*
X0218344Y0118524D01*
X0218711Y0118157D01*
X0217235Y0118157D02*
X0217235Y0117056D01*
X0216134Y0117056D01*
X0215767Y0117423D01*
X0216134Y0117790D01*
X0217235Y0117790D01*
X0217235Y0118157D02*
X0216868Y0118524D01*
X0216134Y0118524D01*
X0215025Y0118891D02*
X0214658Y0119258D01*
X0213924Y0119258D01*
X0213557Y0118891D01*
X0213557Y0117423D01*
X0213924Y0117056D01*
X0214658Y0117056D01*
X0215025Y0117423D01*
X0214658Y0120358D02*
X0214291Y0120725D01*
X0214658Y0121092D01*
X0215759Y0121092D01*
X0215759Y0121459D02*
X0215759Y0120358D01*
X0214658Y0120358D01*
X0213549Y0120725D02*
X0213549Y0122193D01*
X0213182Y0122560D01*
X0212081Y0122560D01*
X0212081Y0120358D01*
X0213182Y0120358D01*
X0213549Y0120725D01*
X0214658Y0121826D02*
X0215392Y0121826D01*
X0215759Y0121459D01*
X0216501Y0121826D02*
X0217235Y0121826D01*
X0216868Y0122193D02*
X0216868Y0120725D01*
X0217235Y0120358D01*
X0211342Y0120358D02*
X0210975Y0120725D01*
X0210975Y0122193D01*
X0210608Y0121826D02*
X0211342Y0121826D01*
X0209869Y0121459D02*
X0209135Y0121459D01*
X0209502Y0122193D02*
X0209869Y0122560D01*
X0209502Y0122193D02*
X0209502Y0120358D01*
X0208396Y0120358D02*
X0207662Y0120358D01*
X0208029Y0120358D02*
X0208029Y0121826D01*
X0207662Y0121826D01*
X0208029Y0122560D02*
X0208029Y0122927D01*
X0206920Y0121459D02*
X0206920Y0120358D01*
X0206920Y0121459D02*
X0206553Y0121826D01*
X0205819Y0121826D01*
X0205452Y0121459D01*
X0204710Y0121092D02*
X0204710Y0120725D01*
X0204343Y0120358D01*
X0203609Y0120358D01*
X0203242Y0120725D01*
X0203609Y0121459D02*
X0204343Y0121459D01*
X0204710Y0121092D01*
X0205452Y0120358D02*
X0205452Y0122560D01*
X0204710Y0122193D02*
X0204343Y0122560D01*
X0203609Y0122560D01*
X0203242Y0122193D01*
X0203242Y0121826D01*
X0203609Y0121459D01*
X0203484Y0118964D02*
X0203484Y0116762D01*
X0204952Y0116762D01*
X0205694Y0116762D02*
X0205694Y0118230D01*
X0206795Y0118230D01*
X0207162Y0117863D01*
X0207162Y0116762D01*
X0204952Y0118964D02*
X0203484Y0118964D01*
X0202745Y0118230D02*
X0202011Y0118230D01*
X0202378Y0118597D02*
X0202378Y0117129D01*
X0202745Y0116762D01*
X0203484Y0117863D02*
X0204218Y0117863D01*
X0201272Y0117863D02*
X0200538Y0117863D01*
X0200905Y0118597D02*
X0201272Y0118964D01*
X0200905Y0118597D02*
X0200905Y0116762D01*
X0199798Y0116762D02*
X0199064Y0116762D01*
X0199431Y0116762D02*
X0199431Y0118230D01*
X0199064Y0118230D01*
X0199431Y0118964D02*
X0199431Y0119331D01*
X0198322Y0117863D02*
X0198322Y0116762D01*
X0198322Y0117863D02*
X0197955Y0118230D01*
X0197221Y0118230D01*
X0196854Y0117863D01*
X0196113Y0117496D02*
X0196113Y0117129D01*
X0195746Y0116762D01*
X0195012Y0116762D01*
X0194645Y0117129D01*
X0195012Y0117863D02*
X0195746Y0117863D01*
X0196113Y0117496D01*
X0196854Y0116762D02*
X0196854Y0118964D01*
X0196113Y0118597D02*
X0195746Y0118964D01*
X0195012Y0118964D01*
X0194645Y0118597D01*
X0194645Y0118230D01*
X0195012Y0117863D01*
X0192939Y0116762D02*
X0191471Y0116762D01*
X0192205Y0116762D02*
X0192205Y0118964D01*
X0191471Y0118230D01*
X0190729Y0118597D02*
X0190362Y0118964D01*
X0189261Y0118964D01*
X0189261Y0116762D01*
X0190362Y0116762D01*
X0190729Y0117129D01*
X0190729Y0118597D01*
X0188519Y0118597D02*
X0188519Y0117863D01*
X0188152Y0117496D01*
X0187051Y0117496D01*
X0187051Y0116762D02*
X0187051Y0118964D01*
X0188152Y0118964D01*
X0188519Y0118597D01*
X0184625Y0118660D02*
X0184258Y0119027D01*
X0183524Y0119027D01*
X0183157Y0118660D01*
X0184625Y0118660D02*
X0184625Y0118293D01*
X0183157Y0116825D01*
X0184625Y0116825D01*
X0182415Y0116825D02*
X0180947Y0116825D01*
X0181681Y0116825D02*
X0181681Y0119027D01*
X0180947Y0118293D01*
X0180205Y0118660D02*
X0179838Y0119027D01*
X0179104Y0119027D01*
X0178737Y0118660D01*
X0178737Y0117192D01*
X0179104Y0116825D01*
X0179838Y0116825D01*
X0180205Y0117192D01*
X0177995Y0117926D02*
X0177628Y0117559D01*
X0176527Y0117559D01*
X0176527Y0116825D02*
X0176527Y0119027D01*
X0177628Y0119027D01*
X0177995Y0118660D01*
X0177995Y0117926D01*
X0170367Y0123657D02*
X0170367Y0125124D01*
X0170000Y0125491D01*
X0169266Y0125491D01*
X0168899Y0125124D01*
X0168899Y0124758D01*
X0169266Y0124391D01*
X0170367Y0124391D01*
X0170367Y0123657D02*
X0170000Y0123290D01*
X0169266Y0123290D01*
X0168899Y0123657D01*
X0168157Y0123290D02*
X0168157Y0124758D01*
X0167423Y0125491D01*
X0166689Y0124758D01*
X0166689Y0123290D01*
X0166689Y0124391D02*
X0168157Y0124391D01*
X0165947Y0124391D02*
X0165580Y0124024D01*
X0164479Y0124024D01*
X0164479Y0123290D02*
X0164479Y0125491D01*
X0165580Y0125491D01*
X0165947Y0125124D01*
X0165947Y0124391D01*
X0165768Y0142581D02*
X0166135Y0142948D01*
X0166135Y0143682D01*
X0165768Y0144049D01*
X0165401Y0144049D01*
X0165034Y0143682D01*
X0165034Y0142948D01*
X0164667Y0142581D01*
X0164300Y0142581D01*
X0163933Y0142948D01*
X0163933Y0143682D01*
X0164300Y0144049D01*
X0163933Y0144791D02*
X0163933Y0145892D01*
X0164300Y0146259D01*
X0165768Y0146259D01*
X0166135Y0145892D01*
X0166135Y0144791D01*
X0163933Y0144791D01*
X0164667Y0147001D02*
X0163933Y0147735D01*
X0164667Y0148469D01*
X0166135Y0148469D01*
X0166135Y0149211D02*
X0164667Y0150678D01*
X0164300Y0150678D01*
X0163933Y0150311D01*
X0163933Y0149578D01*
X0164300Y0149211D01*
X0165034Y0148469D02*
X0165034Y0147001D01*
X0164667Y0147001D02*
X0166135Y0147001D01*
X0166135Y0149211D02*
X0166135Y0150678D01*
X0167030Y0151568D02*
X0167397Y0151201D01*
X0168131Y0151201D01*
X0168497Y0151568D01*
X0169239Y0151568D02*
X0169239Y0151201D01*
X0169239Y0151568D02*
X0170707Y0153036D01*
X0170707Y0153403D01*
X0169239Y0153403D01*
X0168497Y0153036D02*
X0168131Y0153403D01*
X0167397Y0153403D01*
X0167030Y0153036D01*
X0167030Y0151568D01*
X0166288Y0152302D02*
X0165921Y0151935D01*
X0164820Y0151935D01*
X0164820Y0151201D02*
X0164820Y0153403D01*
X0165921Y0153403D01*
X0166288Y0153036D01*
X0166288Y0152302D01*
X0166207Y0158379D02*
X0166207Y0159480D01*
X0165840Y0159847D01*
X0165106Y0159847D01*
X0164739Y0159480D01*
X0164739Y0158379D01*
X0166941Y0158379D01*
X0166941Y0160589D02*
X0166941Y0161690D01*
X0166574Y0162057D01*
X0165106Y0162057D01*
X0164739Y0161690D01*
X0164739Y0160589D01*
X0166941Y0160589D01*
X0166941Y0162799D02*
X0166941Y0164267D01*
X0166941Y0163533D02*
X0164739Y0163533D01*
X0165473Y0162799D01*
X0165840Y0165009D02*
X0165473Y0165743D01*
X0165473Y0166110D01*
X0165840Y0166477D01*
X0166574Y0166477D01*
X0166941Y0166110D01*
X0166941Y0165376D01*
X0166574Y0165009D01*
X0165840Y0165009D02*
X0164739Y0165009D01*
X0164739Y0166477D01*
X0164583Y0168109D02*
X0164583Y0169210D01*
X0164950Y0169577D01*
X0165684Y0169577D01*
X0166051Y0169210D01*
X0166051Y0168109D01*
X0166785Y0168109D02*
X0164583Y0168109D01*
X0164583Y0170318D02*
X0164583Y0171419D01*
X0164950Y0171786D01*
X0166418Y0171786D01*
X0166785Y0171419D01*
X0166785Y0170318D01*
X0164583Y0170318D01*
X0165317Y0172528D02*
X0164583Y0173262D01*
X0166785Y0173262D01*
X0166785Y0172528D02*
X0166785Y0173996D01*
X0166418Y0174738D02*
X0166785Y0175105D01*
X0166785Y0175839D01*
X0166418Y0176206D01*
X0166051Y0176206D01*
X0165684Y0175839D01*
X0165684Y0175472D01*
X0165684Y0175839D02*
X0165317Y0176206D01*
X0164950Y0176206D01*
X0164583Y0175839D01*
X0164583Y0175105D01*
X0164950Y0174738D01*
X0163894Y0182178D02*
X0163894Y0184380D01*
X0164995Y0184380D01*
X0165362Y0184013D01*
X0165362Y0183279D01*
X0164995Y0182912D01*
X0163894Y0182912D01*
X0166104Y0182178D02*
X0167205Y0182178D01*
X0167572Y0182545D01*
X0167572Y0184013D01*
X0167205Y0184380D01*
X0166104Y0184380D01*
X0166104Y0182178D01*
X0168314Y0182178D02*
X0169782Y0182178D01*
X0169048Y0182178D02*
X0169048Y0184380D01*
X0168314Y0183646D01*
X0170524Y0183646D02*
X0171257Y0184380D01*
X0171257Y0182178D01*
X0170524Y0182178D02*
X0171991Y0182178D01*
X0169707Y0193062D02*
X0168973Y0193062D01*
X0168606Y0193429D01*
X0168606Y0193796D01*
X0168973Y0194163D01*
X0169707Y0194163D01*
X0170074Y0193796D01*
X0170074Y0193429D01*
X0169707Y0193062D01*
X0169707Y0194163D02*
X0170074Y0194530D01*
X0170074Y0194897D01*
X0169707Y0195264D01*
X0168973Y0195264D01*
X0168606Y0194897D01*
X0168606Y0194530D01*
X0168973Y0194163D01*
X0167864Y0193429D02*
X0167864Y0194897D01*
X0167497Y0195264D01*
X0166396Y0195264D01*
X0166396Y0193062D01*
X0167497Y0193062D01*
X0167864Y0193429D01*
X0165655Y0194163D02*
X0165288Y0193796D01*
X0164187Y0193796D01*
X0164187Y0193062D02*
X0164187Y0195264D01*
X0165288Y0195264D01*
X0165655Y0194897D01*
X0165655Y0194163D01*
X0159694Y0199975D02*
X0151954Y0199975D01*
X0151954Y0211573D01*
X0159694Y0211573D01*
X0159694Y0199975D01*
X0166772Y0215927D02*
X0166772Y0217395D01*
X0166772Y0216661D02*
X0168973Y0216661D01*
X0168973Y0218137D02*
X0166772Y0219605D01*
X0166772Y0220347D02*
X0166772Y0221448D01*
X0167139Y0221815D01*
X0168607Y0221815D01*
X0168973Y0221448D01*
X0168973Y0220347D01*
X0166772Y0220347D01*
X0166772Y0218137D02*
X0168973Y0219605D01*
X0168973Y0222557D02*
X0168973Y0224025D01*
X0168973Y0223291D02*
X0166772Y0223291D01*
X0167506Y0222557D01*
X0188285Y0227141D02*
X0188285Y0228609D01*
X0188285Y0227875D02*
X0190487Y0227875D01*
X0190487Y0229351D02*
X0188285Y0230819D01*
X0188285Y0231561D02*
X0190487Y0231561D01*
X0190487Y0233029D01*
X0190487Y0233771D02*
X0188285Y0233771D01*
X0190487Y0235239D01*
X0188285Y0235239D01*
X0188285Y0233029D02*
X0188285Y0231561D01*
X0189386Y0231561D02*
X0189386Y0232295D01*
X0190487Y0230819D02*
X0188285Y0229351D01*
X0194058Y0229273D02*
X0196260Y0230741D01*
X0196260Y0231483D02*
X0194058Y0231483D01*
X0194058Y0232584D01*
X0194425Y0232951D01*
X0195893Y0232951D01*
X0196260Y0232584D01*
X0196260Y0231483D01*
X0196260Y0229273D02*
X0194058Y0230741D01*
X0194425Y0228531D02*
X0195159Y0228531D01*
X0195526Y0228164D01*
X0195526Y0227063D01*
X0196260Y0227063D02*
X0194058Y0227063D01*
X0194058Y0228164D01*
X0194425Y0228531D01*
X0195526Y0227797D02*
X0196260Y0228531D01*
X0198453Y0228279D02*
X0199554Y0228279D01*
X0199921Y0228646D01*
X0199921Y0229380D01*
X0199554Y0229747D01*
X0198453Y0229747D01*
X0198453Y0227545D01*
X0199187Y0228279D02*
X0199921Y0227545D01*
X0200663Y0227545D02*
X0202131Y0227545D01*
X0202873Y0227545D02*
X0202873Y0229747D01*
X0204341Y0229747D01*
X0205083Y0229380D02*
X0205083Y0227912D01*
X0205450Y0227545D01*
X0206183Y0227545D01*
X0206550Y0227912D01*
X0207292Y0227545D02*
X0208760Y0227545D01*
X0209502Y0227545D02*
X0209502Y0229747D01*
X0209869Y0228646D02*
X0210970Y0227545D01*
X0209502Y0228279D02*
X0210970Y0229747D01*
X0207292Y0229747D02*
X0207292Y0227545D01*
X0206550Y0229380D02*
X0206183Y0229747D01*
X0205450Y0229747D01*
X0205083Y0229380D01*
X0203607Y0228646D02*
X0202873Y0228646D01*
X0202131Y0229747D02*
X0200663Y0229747D01*
X0200663Y0227545D01*
X0200663Y0228646D02*
X0201397Y0228646D01*
X0196260Y0234060D02*
X0195893Y0233693D01*
X0194425Y0235161D01*
X0195893Y0235161D01*
X0196260Y0234794D01*
X0196260Y0234060D01*
X0195893Y0233693D02*
X0194425Y0233693D01*
X0194058Y0234060D01*
X0194058Y0234794D01*
X0194425Y0235161D01*
X0195510Y0202541D02*
X0195510Y0201073D01*
X0195510Y0201807D02*
X0193308Y0201807D01*
X0194042Y0201073D01*
X0193675Y0200331D02*
X0193308Y0199964D01*
X0193308Y0198863D01*
X0195510Y0198863D01*
X0195510Y0199964D01*
X0195143Y0200331D01*
X0193675Y0200331D01*
X0193308Y0198121D02*
X0195510Y0196653D01*
X0195510Y0195911D02*
X0194776Y0195177D01*
X0194776Y0195544D02*
X0194776Y0194443D01*
X0195510Y0194443D02*
X0193308Y0194443D01*
X0193308Y0195544D01*
X0193675Y0195911D01*
X0194409Y0195911D01*
X0194776Y0195544D01*
X0193308Y0196653D02*
X0195510Y0198121D01*
X0199041Y0199702D02*
X0199041Y0201170D01*
X0199408Y0201537D01*
X0200142Y0201537D01*
X0200509Y0201170D01*
X0201250Y0201537D02*
X0202351Y0201537D01*
X0202718Y0201170D01*
X0202718Y0200436D01*
X0202351Y0200069D01*
X0201250Y0200069D01*
X0201250Y0199335D02*
X0201250Y0201537D01*
X0201984Y0200069D02*
X0202718Y0199335D01*
X0203460Y0199702D02*
X0203827Y0199335D01*
X0204561Y0199335D01*
X0204928Y0199702D01*
X0204928Y0200069D01*
X0204561Y0200436D01*
X0203827Y0200436D01*
X0203460Y0200803D01*
X0203460Y0201170D01*
X0203827Y0201537D01*
X0204561Y0201537D01*
X0204928Y0201170D01*
X0205670Y0198968D02*
X0207138Y0198968D01*
X0207880Y0199335D02*
X0208981Y0199335D01*
X0209348Y0199702D01*
X0209348Y0201170D01*
X0208981Y0201537D01*
X0207880Y0201537D01*
X0207880Y0199335D01*
X0210090Y0200069D02*
X0210824Y0199335D01*
X0211558Y0200069D01*
X0211558Y0201537D01*
X0210090Y0201537D02*
X0210090Y0200069D01*
X0214040Y0199920D02*
X0214040Y0200654D01*
X0214407Y0201021D01*
X0214040Y0199920D02*
X0214407Y0199553D01*
X0215874Y0199553D01*
X0216241Y0199920D01*
X0216241Y0200654D01*
X0215874Y0201021D01*
X0215874Y0198811D02*
X0214407Y0198811D01*
X0214040Y0198444D01*
X0214040Y0197343D01*
X0216241Y0197343D01*
X0216241Y0198444D01*
X0215874Y0198811D01*
X0216241Y0196601D02*
X0214040Y0196601D01*
X0214773Y0195867D01*
X0214040Y0195133D01*
X0216241Y0195133D01*
X0230236Y0195961D02*
X0230602Y0195594D01*
X0232070Y0195594D01*
X0232437Y0195961D01*
X0232437Y0196695D01*
X0232070Y0197062D01*
X0231336Y0197062D01*
X0231336Y0196328D01*
X0230602Y0197062D02*
X0230236Y0196695D01*
X0230236Y0195961D01*
X0230236Y0197804D02*
X0232437Y0199271D01*
X0230236Y0199271D01*
X0230236Y0200013D02*
X0230236Y0201114D01*
X0230602Y0201481D01*
X0232070Y0201481D01*
X0232437Y0201114D01*
X0232437Y0200013D01*
X0230236Y0200013D01*
X0230236Y0197804D02*
X0232437Y0197804D01*
X0242566Y0194180D02*
X0244768Y0194180D01*
X0244768Y0193446D02*
X0244768Y0194914D01*
X0243300Y0193446D02*
X0242566Y0194180D01*
X0242566Y0192704D02*
X0244768Y0192704D01*
X0243667Y0192704D02*
X0243667Y0191236D01*
X0243667Y0190494D02*
X0244034Y0190127D01*
X0244034Y0189027D01*
X0244768Y0189027D02*
X0242566Y0189027D01*
X0242566Y0190127D01*
X0242933Y0190494D01*
X0243667Y0190494D01*
X0244768Y0191236D02*
X0242566Y0191236D01*
X0242566Y0185698D02*
X0242566Y0184230D01*
X0243667Y0184230D01*
X0243300Y0184964D01*
X0243300Y0185331D01*
X0243667Y0185698D01*
X0244401Y0185698D01*
X0244768Y0185331D01*
X0244768Y0184597D01*
X0244401Y0184230D01*
X0244768Y0183488D02*
X0244768Y0182020D01*
X0244768Y0182754D02*
X0242566Y0182754D01*
X0243300Y0182020D01*
X0242933Y0181278D02*
X0242566Y0180911D01*
X0242566Y0180177D01*
X0242933Y0179810D01*
X0244401Y0179810D01*
X0244768Y0180177D01*
X0244768Y0180911D01*
X0244401Y0181278D01*
X0243667Y0179068D02*
X0244034Y0178701D01*
X0244034Y0177601D01*
X0244768Y0177601D02*
X0242566Y0177601D01*
X0242566Y0178701D01*
X0242933Y0179068D01*
X0243667Y0179068D01*
X0243830Y0175931D02*
X0244197Y0175931D01*
X0244564Y0175564D01*
X0244564Y0174830D01*
X0244197Y0174463D01*
X0244564Y0173721D02*
X0244564Y0172254D01*
X0244564Y0172988D02*
X0242362Y0172988D01*
X0243096Y0172254D01*
X0242729Y0171512D02*
X0242362Y0171145D01*
X0242362Y0170411D01*
X0242729Y0170044D01*
X0244197Y0170044D01*
X0244564Y0170411D01*
X0244564Y0171145D01*
X0244197Y0171512D01*
X0243463Y0169302D02*
X0242729Y0169302D01*
X0242362Y0168935D01*
X0242362Y0167834D01*
X0244564Y0167834D01*
X0243830Y0167834D02*
X0243830Y0168935D01*
X0243463Y0169302D01*
X0243722Y0166133D02*
X0244089Y0166133D01*
X0244456Y0165766D01*
X0244456Y0165032D01*
X0244089Y0164665D01*
X0243722Y0163923D02*
X0242254Y0163923D01*
X0242621Y0164665D02*
X0242254Y0165032D01*
X0242254Y0165766D01*
X0242621Y0166133D01*
X0242988Y0166133D01*
X0243355Y0165766D01*
X0243722Y0166133D01*
X0243355Y0165766D02*
X0243355Y0165399D01*
X0243722Y0163923D02*
X0244456Y0163189D01*
X0243722Y0162455D01*
X0242254Y0162455D01*
X0242621Y0161713D02*
X0242988Y0161713D01*
X0243355Y0161347D01*
X0243722Y0161713D01*
X0244089Y0161713D01*
X0244456Y0161347D01*
X0244456Y0160613D01*
X0244089Y0160246D01*
X0243355Y0160980D02*
X0243355Y0161347D01*
X0242621Y0161713D02*
X0242254Y0161347D01*
X0242254Y0160613D01*
X0242621Y0160246D01*
X0243355Y0159504D02*
X0243355Y0158036D01*
X0242621Y0158770D02*
X0244089Y0158770D01*
X0243939Y0155609D02*
X0244306Y0155242D01*
X0244306Y0154508D01*
X0243939Y0154141D01*
X0243572Y0153399D02*
X0242104Y0153399D01*
X0242471Y0154141D02*
X0242104Y0154508D01*
X0242104Y0155242D01*
X0242471Y0155609D01*
X0242838Y0155609D01*
X0243205Y0155242D01*
X0243572Y0155609D01*
X0243939Y0155609D01*
X0243205Y0155242D02*
X0243205Y0154875D01*
X0243572Y0153399D02*
X0244306Y0152665D01*
X0243572Y0151931D01*
X0242104Y0151931D01*
X0242471Y0151189D02*
X0242838Y0151189D01*
X0243205Y0150822D01*
X0243572Y0151189D01*
X0243939Y0151189D01*
X0244306Y0150822D01*
X0244306Y0150088D01*
X0243939Y0149721D01*
X0243205Y0150455D02*
X0243205Y0150822D01*
X0242471Y0151189D02*
X0242104Y0150822D01*
X0242104Y0150088D01*
X0242471Y0149721D01*
X0243205Y0148980D02*
X0243205Y0147512D01*
X0242471Y0148246D02*
X0243939Y0148246D01*
X0244080Y0144924D02*
X0243713Y0144924D01*
X0243346Y0144557D01*
X0243346Y0143456D01*
X0244080Y0143456D01*
X0244447Y0143823D01*
X0244447Y0144557D01*
X0244080Y0144924D01*
X0242612Y0144190D02*
X0243346Y0143456D01*
X0242612Y0144190D02*
X0242245Y0144924D01*
X0242245Y0142714D02*
X0242245Y0141246D01*
X0244447Y0141246D01*
X0244447Y0142714D01*
X0243346Y0141980D02*
X0243346Y0141246D01*
X0243346Y0140504D02*
X0243713Y0140137D01*
X0243713Y0139036D01*
X0244447Y0139036D02*
X0242245Y0139036D01*
X0242245Y0140137D01*
X0242612Y0140504D01*
X0243346Y0140504D01*
X0243023Y0135481D02*
X0243023Y0134014D01*
X0241922Y0135114D01*
X0244123Y0135114D01*
X0244123Y0133272D02*
X0244123Y0131804D01*
X0241922Y0131804D01*
X0241922Y0133272D01*
X0243023Y0132538D02*
X0243023Y0131804D01*
X0243023Y0131062D02*
X0243390Y0130695D01*
X0243390Y0129594D01*
X0244123Y0129594D02*
X0241922Y0129594D01*
X0241922Y0130695D01*
X0242289Y0131062D01*
X0243023Y0131062D01*
X0271587Y0131177D02*
X0273788Y0131177D01*
X0273788Y0132645D01*
X0273422Y0133387D02*
X0273788Y0133754D01*
X0273788Y0134488D01*
X0273422Y0134854D01*
X0272688Y0134854D01*
X0272321Y0134488D01*
X0272321Y0134121D01*
X0272688Y0133387D01*
X0271587Y0133387D01*
X0271587Y0134854D01*
X0271587Y0132645D02*
X0271587Y0131177D01*
X0271954Y0130435D02*
X0272688Y0130435D01*
X0273055Y0130068D01*
X0273055Y0128967D01*
X0273788Y0128967D02*
X0271587Y0128967D01*
X0271587Y0130068D01*
X0271954Y0130435D01*
X0272688Y0131177D02*
X0272688Y0131911D01*
X0272843Y0125328D02*
X0273210Y0125328D01*
X0273577Y0124961D01*
X0273577Y0124227D01*
X0273210Y0123860D01*
X0273577Y0123118D02*
X0273577Y0121651D01*
X0271375Y0121651D01*
X0271375Y0123118D01*
X0271742Y0123860D02*
X0271375Y0124227D01*
X0271375Y0124961D01*
X0271742Y0125328D01*
X0272109Y0125328D01*
X0272476Y0124961D01*
X0272843Y0125328D01*
X0272476Y0124961D02*
X0272476Y0124594D01*
X0272476Y0122385D02*
X0272476Y0121651D01*
X0272476Y0120909D02*
X0272843Y0120542D01*
X0272843Y0119441D01*
X0273577Y0119441D02*
X0271375Y0119441D01*
X0271375Y0120542D01*
X0271742Y0120909D01*
X0272476Y0120909D01*
X0272022Y0139542D02*
X0273490Y0139542D01*
X0273856Y0139909D01*
X0273856Y0140643D01*
X0273490Y0141010D01*
X0272756Y0141010D01*
X0272756Y0140276D01*
X0272022Y0141010D02*
X0271655Y0140643D01*
X0271655Y0139909D01*
X0272022Y0139542D01*
X0271655Y0141752D02*
X0273856Y0143220D01*
X0271655Y0143220D01*
X0271655Y0143962D02*
X0271655Y0145063D01*
X0272022Y0145429D01*
X0273490Y0145429D01*
X0273856Y0145063D01*
X0273856Y0143962D01*
X0271655Y0143962D01*
X0271655Y0141752D02*
X0273856Y0141752D01*
X0273210Y0148678D02*
X0273577Y0149045D01*
X0273577Y0149779D01*
X0273210Y0150146D01*
X0272476Y0150146D01*
X0272476Y0149412D01*
X0271742Y0148678D02*
X0273210Y0148678D01*
X0271742Y0148678D02*
X0271375Y0149045D01*
X0271375Y0149779D01*
X0271742Y0150146D01*
X0271375Y0150888D02*
X0273577Y0152356D01*
X0271375Y0152356D01*
X0271375Y0153098D02*
X0271375Y0154199D01*
X0271742Y0154566D01*
X0273210Y0154566D01*
X0273577Y0154199D01*
X0273577Y0153098D01*
X0271375Y0153098D01*
X0271375Y0150888D02*
X0273577Y0150888D01*
X0273210Y0158374D02*
X0273577Y0158741D01*
X0273577Y0159475D01*
X0273210Y0159842D01*
X0272476Y0159842D01*
X0272476Y0159108D01*
X0271742Y0159842D02*
X0271375Y0159475D01*
X0271375Y0158741D01*
X0271742Y0158374D01*
X0273210Y0158374D01*
X0273577Y0160584D02*
X0271375Y0160584D01*
X0273577Y0162052D01*
X0271375Y0162052D01*
X0271375Y0162794D02*
X0271375Y0163895D01*
X0271742Y0164261D01*
X0273210Y0164261D01*
X0273577Y0163895D01*
X0273577Y0162794D01*
X0271375Y0162794D01*
X0271101Y0167716D02*
X0271101Y0168817D01*
X0271468Y0169184D01*
X0272202Y0169184D01*
X0272569Y0168817D01*
X0272569Y0167716D01*
X0273303Y0167716D02*
X0271101Y0167716D01*
X0271468Y0169926D02*
X0272936Y0169926D01*
X0273303Y0170293D01*
X0273303Y0171027D01*
X0272936Y0171394D01*
X0273303Y0172136D02*
X0273303Y0173604D01*
X0273303Y0172870D02*
X0271101Y0172870D01*
X0271835Y0172136D01*
X0271468Y0171394D02*
X0271101Y0171027D01*
X0271101Y0170293D01*
X0271468Y0169926D01*
X0272202Y0174346D02*
X0272202Y0175814D01*
X0271101Y0175447D02*
X0272202Y0174346D01*
X0273303Y0175447D02*
X0271101Y0175447D01*
X0271037Y0177793D02*
X0270670Y0178160D01*
X0270670Y0178894D01*
X0271037Y0179261D01*
X0272505Y0179261D01*
X0272872Y0178894D01*
X0272872Y0178160D01*
X0272505Y0177793D01*
X0271037Y0177793D01*
X0271037Y0180003D02*
X0271404Y0180003D01*
X0271771Y0180370D01*
X0271771Y0181104D01*
X0272138Y0181471D01*
X0272505Y0181471D01*
X0272872Y0181104D01*
X0272872Y0180370D01*
X0272505Y0180003D01*
X0271037Y0180003D02*
X0270670Y0180370D01*
X0270670Y0181104D01*
X0271037Y0181471D01*
X0271037Y0182213D02*
X0272505Y0182213D01*
X0272872Y0182580D01*
X0272872Y0183314D01*
X0272505Y0183681D01*
X0273239Y0184423D02*
X0273239Y0185891D01*
X0272872Y0186633D02*
X0272872Y0187367D01*
X0272872Y0187000D02*
X0270670Y0187000D01*
X0270670Y0186633D02*
X0270670Y0187367D01*
X0271404Y0188106D02*
X0271404Y0189207D01*
X0271771Y0189574D01*
X0272872Y0189574D01*
X0272872Y0188106D02*
X0271404Y0188106D01*
X0271037Y0183681D02*
X0270670Y0183314D01*
X0270670Y0182580D01*
X0271037Y0182213D01*
X0278133Y0166565D02*
X0278133Y0158825D01*
X0289732Y0158825D01*
X0289732Y0166565D01*
X0278133Y0166565D01*
X0243830Y0175931D02*
X0243463Y0175564D01*
X0243463Y0175197D01*
X0243463Y0175564D02*
X0243096Y0175931D01*
X0242729Y0175931D01*
X0242362Y0175564D01*
X0242362Y0174830D01*
X0242729Y0174463D01*
X0242794Y0203635D02*
X0242794Y0205103D01*
X0242060Y0204369D02*
X0243528Y0204369D01*
X0243528Y0205845D02*
X0243895Y0206212D01*
X0243895Y0206946D01*
X0243528Y0207313D01*
X0243161Y0207313D01*
X0242794Y0206946D01*
X0242794Y0206579D01*
X0242794Y0206946D02*
X0242427Y0207313D01*
X0242060Y0207313D01*
X0241693Y0206946D01*
X0241693Y0206212D01*
X0242060Y0205845D01*
X0241693Y0208055D02*
X0243161Y0208055D01*
X0243895Y0208789D01*
X0243161Y0209523D01*
X0241693Y0209523D01*
X0242060Y0210265D02*
X0241693Y0210632D01*
X0241693Y0211366D01*
X0242060Y0211733D01*
X0242427Y0211733D01*
X0242794Y0211366D01*
X0243161Y0211733D01*
X0243528Y0211733D01*
X0243895Y0211366D01*
X0243895Y0210632D01*
X0243528Y0210265D01*
X0242794Y0210999D02*
X0242794Y0211366D01*
X0242525Y0213794D02*
X0242525Y0215261D01*
X0241791Y0214528D02*
X0243259Y0214528D01*
X0243259Y0216003D02*
X0243626Y0216370D01*
X0243626Y0217104D01*
X0243259Y0217471D01*
X0242892Y0217471D01*
X0242525Y0217104D01*
X0242525Y0216737D01*
X0242525Y0217104D02*
X0242158Y0217471D01*
X0241791Y0217471D01*
X0241424Y0217104D01*
X0241424Y0216370D01*
X0241791Y0216003D01*
X0241424Y0218213D02*
X0242892Y0218213D01*
X0243626Y0218947D01*
X0242892Y0219681D01*
X0241424Y0219681D01*
X0241791Y0220423D02*
X0241424Y0220790D01*
X0241424Y0221524D01*
X0241791Y0221891D01*
X0242158Y0221891D01*
X0242525Y0221524D01*
X0242892Y0221891D01*
X0243259Y0221891D01*
X0243626Y0221524D01*
X0243626Y0220790D01*
X0243259Y0220423D01*
X0242525Y0221157D02*
X0242525Y0221524D01*
X0200509Y0199702D02*
X0200142Y0199335D01*
X0199408Y0199335D01*
X0199041Y0199702D01*
X0188557Y0199578D02*
X0188190Y0199211D01*
X0187456Y0199211D01*
X0187089Y0199578D01*
X0188557Y0201046D01*
X0188557Y0199578D01*
X0188557Y0201046D02*
X0188190Y0201413D01*
X0187456Y0201413D01*
X0187089Y0201046D01*
X0187089Y0199578D01*
X0186347Y0199578D02*
X0186347Y0201046D01*
X0185980Y0201413D01*
X0184879Y0201413D01*
X0184879Y0199211D01*
X0185980Y0199211D01*
X0186347Y0199578D01*
X0184137Y0199211D02*
X0182669Y0201413D01*
X0181927Y0201413D02*
X0180459Y0201413D01*
X0181193Y0201413D02*
X0181193Y0199211D01*
X0182669Y0199211D02*
X0184137Y0201413D01*
X0138250Y0195709D02*
X0137883Y0196076D01*
X0136415Y0196076D01*
X0136048Y0195709D01*
X0136048Y0194975D01*
X0136415Y0194608D01*
X0136782Y0194608D01*
X0137149Y0194975D01*
X0137149Y0196076D01*
X0138250Y0195709D02*
X0138250Y0194975D01*
X0137883Y0194608D01*
X0137883Y0193866D02*
X0136415Y0193866D01*
X0136048Y0193499D01*
X0136048Y0192398D01*
X0138250Y0192398D01*
X0138250Y0193499D01*
X0137883Y0193866D01*
X0137149Y0191657D02*
X0137516Y0191290D01*
X0137516Y0190189D01*
X0138250Y0190189D02*
X0136048Y0190189D01*
X0136048Y0191290D01*
X0136415Y0191657D01*
X0137149Y0191657D01*
X0136733Y0186883D02*
X0136366Y0186883D01*
X0135999Y0186516D01*
X0135999Y0185782D01*
X0136366Y0185415D01*
X0136733Y0186883D02*
X0138201Y0185415D01*
X0138201Y0186883D01*
X0138201Y0184673D02*
X0138201Y0183205D01*
X0138201Y0183939D02*
X0135999Y0183939D01*
X0136733Y0183205D01*
X0136366Y0182463D02*
X0135999Y0182096D01*
X0135999Y0180995D01*
X0138201Y0180995D01*
X0138201Y0182096D01*
X0137834Y0182463D01*
X0136366Y0182463D01*
X0136366Y0180253D02*
X0137100Y0180253D01*
X0137467Y0179886D01*
X0137467Y0178785D01*
X0138201Y0178785D02*
X0135999Y0178785D01*
X0135999Y0179886D01*
X0136366Y0180253D01*
X0137294Y0176289D02*
X0137294Y0174821D01*
X0136193Y0175922D01*
X0138395Y0175922D01*
X0138395Y0174079D02*
X0138395Y0172611D01*
X0138395Y0173345D02*
X0136193Y0173345D01*
X0136927Y0172611D01*
X0136560Y0171869D02*
X0136193Y0171502D01*
X0136193Y0170401D01*
X0138395Y0170401D01*
X0138395Y0171502D01*
X0138028Y0171869D01*
X0136560Y0171869D01*
X0136560Y0169659D02*
X0137294Y0169659D01*
X0137661Y0169292D01*
X0137661Y0168191D01*
X0138395Y0168191D02*
X0136193Y0168191D01*
X0136193Y0169292D01*
X0136560Y0169659D01*
X0135926Y0165532D02*
X0136293Y0164798D01*
X0137027Y0164064D01*
X0137027Y0165165D01*
X0137394Y0165532D01*
X0137761Y0165532D01*
X0138128Y0165165D01*
X0138128Y0164431D01*
X0137761Y0164064D01*
X0137027Y0164064D01*
X0136293Y0163322D02*
X0135926Y0162955D01*
X0135926Y0162221D01*
X0136293Y0161854D01*
X0137761Y0161854D01*
X0138128Y0162221D01*
X0138128Y0162955D01*
X0137761Y0163322D01*
X0137027Y0161112D02*
X0137394Y0160745D01*
X0137394Y0159645D01*
X0138128Y0159645D02*
X0135926Y0159645D01*
X0135926Y0160745D01*
X0136293Y0161112D01*
X0137027Y0161112D01*
X0137001Y0155268D02*
X0137368Y0155268D01*
X0137735Y0154901D01*
X0137735Y0154167D01*
X0137368Y0153800D01*
X0137001Y0153800D01*
X0136634Y0154167D01*
X0136634Y0154901D01*
X0137001Y0155268D01*
X0136634Y0154901D02*
X0136267Y0155268D01*
X0135900Y0155268D01*
X0135533Y0154901D01*
X0135533Y0154167D01*
X0135900Y0153800D01*
X0136267Y0153800D01*
X0136634Y0154167D01*
X0137368Y0153058D02*
X0137735Y0152691D01*
X0137735Y0151957D01*
X0137368Y0151590D01*
X0135900Y0151590D01*
X0135533Y0151957D01*
X0135533Y0152691D01*
X0135900Y0153058D01*
X0135900Y0150848D02*
X0136634Y0150848D01*
X0137001Y0150481D01*
X0137001Y0149380D01*
X0137735Y0149380D02*
X0135533Y0149380D01*
X0135533Y0150481D01*
X0135900Y0150848D01*
X0136090Y0146713D02*
X0135723Y0146346D01*
X0135723Y0145612D01*
X0136090Y0145245D01*
X0136090Y0146713D02*
X0136457Y0146713D01*
X0137925Y0145245D01*
X0137925Y0146713D01*
X0137925Y0144503D02*
X0137925Y0143035D01*
X0135723Y0143035D01*
X0136090Y0142293D02*
X0135723Y0141926D01*
X0135723Y0141192D01*
X0136090Y0140825D01*
X0137558Y0140825D01*
X0137925Y0141192D01*
X0137925Y0141926D01*
X0137558Y0142293D01*
X0137558Y0140083D02*
X0137925Y0139716D01*
X0137925Y0138982D01*
X0137558Y0138615D01*
X0136824Y0138982D02*
X0136457Y0138615D01*
X0136090Y0138615D01*
X0135723Y0138982D01*
X0135723Y0139716D01*
X0136090Y0140083D01*
X0136824Y0139716D02*
X0137191Y0140083D01*
X0137558Y0140083D01*
X0136824Y0139716D02*
X0136824Y0138982D01*
X0131173Y0137411D02*
X0131173Y0135943D01*
X0131173Y0136677D02*
X0128971Y0136677D01*
X0129705Y0135943D01*
X0131173Y0135201D02*
X0131173Y0133733D01*
X0131173Y0134467D02*
X0128971Y0134467D01*
X0129705Y0133733D01*
X0129705Y0132991D02*
X0131173Y0132991D01*
X0130072Y0132991D02*
X0130072Y0131523D01*
X0129705Y0131523D02*
X0128971Y0132257D01*
X0129705Y0132991D01*
X0129705Y0131523D02*
X0131173Y0131523D01*
X0130072Y0130781D02*
X0130439Y0130414D01*
X0130439Y0129313D01*
X0131173Y0129313D02*
X0128971Y0129313D01*
X0128971Y0130414D01*
X0129338Y0130781D01*
X0130072Y0130781D01*
X0114064Y0161634D02*
X0098450Y0161634D01*
X0098450Y0192917D01*
X0114064Y0192917D01*
X0114064Y0161634D01*
X0117662Y0162927D02*
X0117662Y0174526D01*
X0125402Y0174526D01*
X0125402Y0162927D01*
X0117662Y0162927D01*
X0114064Y0198575D02*
X0098450Y0198575D01*
X0098450Y0229858D01*
X0114064Y0229858D01*
X0114064Y0198575D01*
X0117347Y0200237D02*
X0125087Y0200237D01*
X0125087Y0211835D01*
X0117347Y0211835D01*
X0117347Y0200237D01*
X0120595Y0235095D02*
X0108997Y0235095D01*
X0108997Y0242836D01*
X0120595Y0242836D01*
X0120595Y0235095D01*
X0120679Y0243148D02*
X0109081Y0243148D01*
X0109081Y0250889D01*
X0120679Y0250889D01*
X0120679Y0243148D01*
X0120673Y0251186D02*
X0109075Y0251186D01*
X0109075Y0258926D01*
X0120673Y0258926D01*
X0120673Y0251186D01*
X0120641Y0259278D02*
X0109043Y0259278D01*
X0109043Y0267018D01*
X0120641Y0267018D01*
X0120641Y0259278D01*
X0133295Y0257539D02*
X0141035Y0257539D01*
X0141035Y0269138D01*
X0133295Y0269138D01*
X0133295Y0257539D01*
X0141584Y0265541D02*
X0141584Y0277139D01*
X0149325Y0277139D01*
X0149325Y0265541D01*
X0141584Y0265541D01*
X0218582Y0057444D02*
X0218582Y0049704D01*
X0230180Y0049704D01*
X0230180Y0057444D01*
X0218582Y0057444D01*
D11*
X0242013Y0091940D02*
X0167013Y0091940D01*
X0166915Y0091942D01*
X0166817Y0091948D01*
X0166719Y0091957D01*
X0166622Y0091971D01*
X0166525Y0091988D01*
X0166429Y0092009D01*
X0166334Y0092034D01*
X0166240Y0092062D01*
X0166148Y0092095D01*
X0166056Y0092130D01*
X0165966Y0092170D01*
X0165878Y0092212D01*
X0165791Y0092259D01*
X0165707Y0092308D01*
X0165624Y0092361D01*
X0165544Y0092417D01*
X0165465Y0092477D01*
X0165389Y0092539D01*
X0165316Y0092604D01*
X0165245Y0092672D01*
X0165177Y0092743D01*
X0165112Y0092816D01*
X0165050Y0092892D01*
X0164990Y0092971D01*
X0164934Y0093051D01*
X0164881Y0093134D01*
X0164832Y0093218D01*
X0164785Y0093305D01*
X0164743Y0093393D01*
X0164703Y0093483D01*
X0164668Y0093575D01*
X0164635Y0093667D01*
X0164607Y0093761D01*
X0164582Y0093856D01*
X0164561Y0093952D01*
X0164544Y0094049D01*
X0164530Y0094146D01*
X0164521Y0094244D01*
X0164515Y0094342D01*
X0164513Y0094440D01*
X0164513Y0113440D01*
X0164515Y0113538D01*
X0164521Y0113636D01*
X0164530Y0113734D01*
X0164544Y0113831D01*
X0164561Y0113928D01*
X0164582Y0114024D01*
X0164607Y0114119D01*
X0164635Y0114213D01*
X0164668Y0114305D01*
X0164703Y0114397D01*
X0164743Y0114487D01*
X0164785Y0114575D01*
X0164832Y0114662D01*
X0164881Y0114746D01*
X0164934Y0114829D01*
X0164990Y0114909D01*
X0165050Y0114988D01*
X0165112Y0115064D01*
X0165177Y0115137D01*
X0165245Y0115208D01*
X0165316Y0115276D01*
X0165389Y0115341D01*
X0165465Y0115403D01*
X0165544Y0115463D01*
X0165624Y0115519D01*
X0165707Y0115572D01*
X0165791Y0115621D01*
X0165878Y0115668D01*
X0165966Y0115710D01*
X0166056Y0115750D01*
X0166148Y0115785D01*
X0166240Y0115818D01*
X0166334Y0115846D01*
X0166429Y0115871D01*
X0166525Y0115892D01*
X0166622Y0115909D01*
X0166719Y0115923D01*
X0166817Y0115932D01*
X0166915Y0115938D01*
X0167013Y0115940D01*
X0242013Y0115940D01*
X0242111Y0115938D01*
X0242209Y0115932D01*
X0242307Y0115923D01*
X0242404Y0115909D01*
X0242501Y0115892D01*
X0242597Y0115871D01*
X0242692Y0115846D01*
X0242786Y0115818D01*
X0242878Y0115785D01*
X0242970Y0115750D01*
X0243060Y0115710D01*
X0243148Y0115668D01*
X0243235Y0115621D01*
X0243319Y0115572D01*
X0243402Y0115519D01*
X0243482Y0115463D01*
X0243561Y0115403D01*
X0243637Y0115341D01*
X0243710Y0115276D01*
X0243781Y0115208D01*
X0243849Y0115137D01*
X0243914Y0115064D01*
X0243976Y0114988D01*
X0244036Y0114909D01*
X0244092Y0114829D01*
X0244145Y0114746D01*
X0244194Y0114662D01*
X0244241Y0114575D01*
X0244283Y0114487D01*
X0244323Y0114397D01*
X0244358Y0114305D01*
X0244391Y0114213D01*
X0244419Y0114119D01*
X0244444Y0114024D01*
X0244465Y0113928D01*
X0244482Y0113831D01*
X0244496Y0113734D01*
X0244505Y0113636D01*
X0244511Y0113538D01*
X0244513Y0113440D01*
X0244513Y0094440D01*
X0244511Y0094342D01*
X0244505Y0094244D01*
X0244496Y0094146D01*
X0244482Y0094049D01*
X0244465Y0093952D01*
X0244444Y0093856D01*
X0244419Y0093761D01*
X0244391Y0093667D01*
X0244358Y0093575D01*
X0244323Y0093483D01*
X0244283Y0093393D01*
X0244241Y0093305D01*
X0244194Y0093218D01*
X0244145Y0093134D01*
X0244092Y0093051D01*
X0244036Y0092971D01*
X0243976Y0092892D01*
X0243914Y0092816D01*
X0243849Y0092743D01*
X0243781Y0092672D01*
X0243710Y0092604D01*
X0243637Y0092539D01*
X0243561Y0092477D01*
X0243482Y0092417D01*
X0243402Y0092361D01*
X0243319Y0092308D01*
X0243235Y0092259D01*
X0243148Y0092212D01*
X0243060Y0092170D01*
X0242970Y0092130D01*
X0242878Y0092095D01*
X0242786Y0092062D01*
X0242692Y0092034D01*
X0242597Y0092009D01*
X0242501Y0091988D01*
X0242404Y0091971D01*
X0242307Y0091957D01*
X0242209Y0091948D01*
X0242111Y0091942D01*
X0242013Y0091940D01*
X0248162Y0117089D02*
X0267162Y0117089D01*
X0267260Y0117091D01*
X0267358Y0117097D01*
X0267456Y0117106D01*
X0267553Y0117120D01*
X0267650Y0117137D01*
X0267746Y0117158D01*
X0267841Y0117183D01*
X0267935Y0117211D01*
X0268027Y0117244D01*
X0268119Y0117279D01*
X0268209Y0117319D01*
X0268297Y0117361D01*
X0268384Y0117408D01*
X0268468Y0117457D01*
X0268551Y0117510D01*
X0268631Y0117566D01*
X0268710Y0117626D01*
X0268786Y0117688D01*
X0268859Y0117753D01*
X0268930Y0117821D01*
X0268998Y0117892D01*
X0269063Y0117965D01*
X0269125Y0118041D01*
X0269185Y0118120D01*
X0269241Y0118200D01*
X0269294Y0118283D01*
X0269343Y0118367D01*
X0269390Y0118454D01*
X0269432Y0118542D01*
X0269472Y0118632D01*
X0269507Y0118724D01*
X0269540Y0118816D01*
X0269568Y0118910D01*
X0269593Y0119005D01*
X0269614Y0119101D01*
X0269631Y0119198D01*
X0269645Y0119295D01*
X0269654Y0119393D01*
X0269660Y0119491D01*
X0269662Y0119589D01*
X0269662Y0194589D01*
X0269660Y0194687D01*
X0269654Y0194785D01*
X0269645Y0194883D01*
X0269631Y0194980D01*
X0269614Y0195077D01*
X0269593Y0195173D01*
X0269568Y0195268D01*
X0269540Y0195362D01*
X0269507Y0195454D01*
X0269472Y0195546D01*
X0269432Y0195636D01*
X0269390Y0195724D01*
X0269343Y0195811D01*
X0269294Y0195895D01*
X0269241Y0195978D01*
X0269185Y0196058D01*
X0269125Y0196137D01*
X0269063Y0196213D01*
X0268998Y0196286D01*
X0268930Y0196357D01*
X0268859Y0196425D01*
X0268786Y0196490D01*
X0268710Y0196552D01*
X0268631Y0196612D01*
X0268551Y0196668D01*
X0268468Y0196721D01*
X0268384Y0196770D01*
X0268297Y0196817D01*
X0268209Y0196859D01*
X0268119Y0196899D01*
X0268027Y0196934D01*
X0267935Y0196967D01*
X0267841Y0196995D01*
X0267746Y0197020D01*
X0267650Y0197041D01*
X0267553Y0197058D01*
X0267456Y0197072D01*
X0267358Y0197081D01*
X0267260Y0197087D01*
X0267162Y0197089D01*
X0248162Y0197089D01*
X0248064Y0197087D01*
X0247966Y0197081D01*
X0247868Y0197072D01*
X0247771Y0197058D01*
X0247674Y0197041D01*
X0247578Y0197020D01*
X0247483Y0196995D01*
X0247389Y0196967D01*
X0247297Y0196934D01*
X0247205Y0196899D01*
X0247115Y0196859D01*
X0247027Y0196817D01*
X0246940Y0196770D01*
X0246856Y0196721D01*
X0246773Y0196668D01*
X0246693Y0196612D01*
X0246614Y0196552D01*
X0246538Y0196490D01*
X0246465Y0196425D01*
X0246394Y0196357D01*
X0246326Y0196286D01*
X0246261Y0196213D01*
X0246199Y0196137D01*
X0246139Y0196058D01*
X0246083Y0195978D01*
X0246030Y0195895D01*
X0245981Y0195811D01*
X0245934Y0195724D01*
X0245892Y0195636D01*
X0245852Y0195546D01*
X0245817Y0195454D01*
X0245784Y0195362D01*
X0245756Y0195268D01*
X0245731Y0195173D01*
X0245710Y0195077D01*
X0245693Y0194980D01*
X0245679Y0194883D01*
X0245670Y0194785D01*
X0245664Y0194687D01*
X0245662Y0194589D01*
X0245662Y0119589D01*
X0245664Y0119491D01*
X0245670Y0119393D01*
X0245679Y0119295D01*
X0245693Y0119198D01*
X0245710Y0119101D01*
X0245731Y0119005D01*
X0245756Y0118910D01*
X0245784Y0118816D01*
X0245817Y0118724D01*
X0245852Y0118632D01*
X0245892Y0118542D01*
X0245934Y0118454D01*
X0245981Y0118367D01*
X0246030Y0118283D01*
X0246083Y0118200D01*
X0246139Y0118120D01*
X0246199Y0118041D01*
X0246261Y0117965D01*
X0246326Y0117892D01*
X0246394Y0117821D01*
X0246465Y0117753D01*
X0246538Y0117688D01*
X0246614Y0117626D01*
X0246693Y0117566D01*
X0246773Y0117510D01*
X0246856Y0117457D01*
X0246940Y0117408D01*
X0247027Y0117361D01*
X0247115Y0117319D01*
X0247205Y0117279D01*
X0247297Y0117244D01*
X0247389Y0117211D01*
X0247483Y0117183D01*
X0247578Y0117158D01*
X0247674Y0117137D01*
X0247771Y0117120D01*
X0247868Y0117106D01*
X0247966Y0117097D01*
X0248064Y0117091D01*
X0248162Y0117089D01*
X0163363Y0119589D02*
X0163363Y0194589D01*
X0163361Y0194687D01*
X0163355Y0194785D01*
X0163346Y0194883D01*
X0163332Y0194980D01*
X0163315Y0195077D01*
X0163294Y0195173D01*
X0163269Y0195268D01*
X0163241Y0195362D01*
X0163208Y0195454D01*
X0163173Y0195546D01*
X0163133Y0195636D01*
X0163091Y0195724D01*
X0163044Y0195811D01*
X0162995Y0195895D01*
X0162942Y0195978D01*
X0162886Y0196058D01*
X0162826Y0196137D01*
X0162764Y0196213D01*
X0162699Y0196286D01*
X0162631Y0196357D01*
X0162560Y0196425D01*
X0162487Y0196490D01*
X0162411Y0196552D01*
X0162332Y0196612D01*
X0162252Y0196668D01*
X0162169Y0196721D01*
X0162085Y0196770D01*
X0161998Y0196817D01*
X0161910Y0196859D01*
X0161820Y0196899D01*
X0161728Y0196934D01*
X0161636Y0196967D01*
X0161542Y0196995D01*
X0161447Y0197020D01*
X0161351Y0197041D01*
X0161254Y0197058D01*
X0161157Y0197072D01*
X0161059Y0197081D01*
X0160961Y0197087D01*
X0160863Y0197089D01*
X0141863Y0197089D01*
X0141765Y0197087D01*
X0141667Y0197081D01*
X0141569Y0197072D01*
X0141472Y0197058D01*
X0141375Y0197041D01*
X0141279Y0197020D01*
X0141184Y0196995D01*
X0141090Y0196967D01*
X0140998Y0196934D01*
X0140906Y0196899D01*
X0140816Y0196859D01*
X0140728Y0196817D01*
X0140641Y0196770D01*
X0140557Y0196721D01*
X0140474Y0196668D01*
X0140394Y0196612D01*
X0140315Y0196552D01*
X0140239Y0196490D01*
X0140166Y0196425D01*
X0140095Y0196357D01*
X0140027Y0196286D01*
X0139962Y0196213D01*
X0139900Y0196137D01*
X0139840Y0196058D01*
X0139784Y0195978D01*
X0139731Y0195895D01*
X0139682Y0195811D01*
X0139635Y0195724D01*
X0139593Y0195636D01*
X0139553Y0195546D01*
X0139518Y0195454D01*
X0139485Y0195362D01*
X0139457Y0195268D01*
X0139432Y0195173D01*
X0139411Y0195077D01*
X0139394Y0194980D01*
X0139380Y0194883D01*
X0139371Y0194785D01*
X0139365Y0194687D01*
X0139363Y0194589D01*
X0139363Y0119589D01*
X0139365Y0119491D01*
X0139371Y0119393D01*
X0139380Y0119295D01*
X0139394Y0119198D01*
X0139411Y0119101D01*
X0139432Y0119005D01*
X0139457Y0118910D01*
X0139485Y0118816D01*
X0139518Y0118724D01*
X0139553Y0118632D01*
X0139593Y0118542D01*
X0139635Y0118454D01*
X0139682Y0118367D01*
X0139731Y0118283D01*
X0139784Y0118200D01*
X0139840Y0118120D01*
X0139900Y0118041D01*
X0139962Y0117965D01*
X0140027Y0117892D01*
X0140095Y0117821D01*
X0140166Y0117753D01*
X0140239Y0117688D01*
X0140315Y0117626D01*
X0140394Y0117566D01*
X0140474Y0117510D01*
X0140557Y0117457D01*
X0140641Y0117408D01*
X0140728Y0117361D01*
X0140816Y0117319D01*
X0140906Y0117279D01*
X0140998Y0117244D01*
X0141090Y0117211D01*
X0141184Y0117183D01*
X0141279Y0117158D01*
X0141375Y0117137D01*
X0141472Y0117120D01*
X0141569Y0117106D01*
X0141667Y0117097D01*
X0141765Y0117091D01*
X0141863Y0117089D01*
X0160863Y0117089D01*
X0160961Y0117091D01*
X0161059Y0117097D01*
X0161157Y0117106D01*
X0161254Y0117120D01*
X0161351Y0117137D01*
X0161447Y0117158D01*
X0161542Y0117183D01*
X0161636Y0117211D01*
X0161728Y0117244D01*
X0161820Y0117279D01*
X0161910Y0117319D01*
X0161998Y0117361D01*
X0162085Y0117408D01*
X0162169Y0117457D01*
X0162252Y0117510D01*
X0162332Y0117566D01*
X0162411Y0117626D01*
X0162487Y0117688D01*
X0162560Y0117753D01*
X0162631Y0117821D01*
X0162699Y0117892D01*
X0162764Y0117965D01*
X0162826Y0118041D01*
X0162886Y0118120D01*
X0162942Y0118200D01*
X0162995Y0118283D01*
X0163044Y0118367D01*
X0163091Y0118454D01*
X0163133Y0118542D01*
X0163173Y0118632D01*
X0163208Y0118724D01*
X0163241Y0118816D01*
X0163269Y0118910D01*
X0163294Y0119005D01*
X0163315Y0119101D01*
X0163332Y0119198D01*
X0163346Y0119295D01*
X0163355Y0119393D01*
X0163361Y0119491D01*
X0163363Y0119589D01*
X0113553Y0116897D02*
X0113553Y0113897D01*
X0102153Y0113897D01*
X0102153Y0116897D01*
X0113553Y0116897D01*
X0096426Y0164180D02*
X0096426Y0168450D01*
X0096426Y0166315D02*
X0090021Y0166315D01*
X0091088Y0170626D02*
X0095359Y0170626D01*
X0096426Y0171693D01*
X0096426Y0173828D01*
X0095359Y0174896D01*
X0091088Y0174896D01*
X0090021Y0173828D01*
X0090021Y0171693D01*
X0091088Y0170626D01*
X0091088Y0177071D02*
X0095359Y0177071D01*
X0096426Y0178139D01*
X0096426Y0180274D01*
X0095359Y0181341D01*
X0091088Y0181341D01*
X0090021Y0180274D01*
X0090021Y0178139D01*
X0091088Y0177071D01*
X0091088Y0183517D02*
X0090021Y0184584D01*
X0090021Y0187787D01*
X0096426Y0187787D01*
X0096426Y0184584D01*
X0095359Y0183517D01*
X0094291Y0183517D01*
X0093223Y0184584D01*
X0093223Y0187787D01*
X0093223Y0184584D02*
X0092156Y0183517D01*
X0091088Y0183517D01*
X0096407Y0202586D02*
X0096407Y0206856D01*
X0096407Y0204721D02*
X0090002Y0204721D01*
X0091069Y0209031D02*
X0090002Y0210099D01*
X0090002Y0212234D01*
X0091069Y0213302D01*
X0093205Y0212234D02*
X0093205Y0210099D01*
X0092137Y0209031D01*
X0091069Y0209031D01*
X0093205Y0212234D02*
X0094272Y0213302D01*
X0095340Y0213302D01*
X0096407Y0212234D01*
X0096407Y0210099D01*
X0095340Y0209031D01*
X0095340Y0215477D02*
X0093205Y0215477D01*
X0092137Y0216545D01*
X0092137Y0219747D01*
X0092137Y0217612D02*
X0090002Y0215477D01*
X0095340Y0215477D02*
X0096407Y0216545D01*
X0096407Y0219747D01*
X0090002Y0219747D01*
X0090002Y0221922D02*
X0096407Y0221922D01*
X0096407Y0226193D02*
X0090002Y0221922D01*
X0090002Y0226193D02*
X0096407Y0226193D01*
X0169972Y0224159D02*
X0169972Y0205159D01*
X0169974Y0205061D01*
X0169980Y0204963D01*
X0169989Y0204865D01*
X0170003Y0204768D01*
X0170020Y0204671D01*
X0170041Y0204575D01*
X0170066Y0204480D01*
X0170094Y0204386D01*
X0170127Y0204294D01*
X0170162Y0204202D01*
X0170202Y0204112D01*
X0170244Y0204024D01*
X0170291Y0203937D01*
X0170340Y0203853D01*
X0170393Y0203770D01*
X0170449Y0203690D01*
X0170509Y0203611D01*
X0170571Y0203535D01*
X0170636Y0203462D01*
X0170704Y0203391D01*
X0170775Y0203323D01*
X0170848Y0203258D01*
X0170924Y0203196D01*
X0171003Y0203136D01*
X0171083Y0203080D01*
X0171166Y0203027D01*
X0171250Y0202978D01*
X0171337Y0202931D01*
X0171425Y0202889D01*
X0171515Y0202849D01*
X0171607Y0202814D01*
X0171699Y0202781D01*
X0171793Y0202753D01*
X0171888Y0202728D01*
X0171984Y0202707D01*
X0172081Y0202690D01*
X0172178Y0202676D01*
X0172276Y0202667D01*
X0172374Y0202661D01*
X0172472Y0202659D01*
X0237472Y0202659D01*
X0237570Y0202661D01*
X0237668Y0202667D01*
X0237766Y0202676D01*
X0237863Y0202690D01*
X0237960Y0202707D01*
X0238056Y0202728D01*
X0238151Y0202753D01*
X0238245Y0202781D01*
X0238337Y0202814D01*
X0238429Y0202849D01*
X0238519Y0202889D01*
X0238607Y0202931D01*
X0238694Y0202978D01*
X0238778Y0203027D01*
X0238861Y0203080D01*
X0238941Y0203136D01*
X0239020Y0203196D01*
X0239096Y0203258D01*
X0239169Y0203323D01*
X0239240Y0203391D01*
X0239308Y0203462D01*
X0239373Y0203535D01*
X0239435Y0203611D01*
X0239495Y0203690D01*
X0239551Y0203770D01*
X0239604Y0203853D01*
X0239653Y0203937D01*
X0239700Y0204024D01*
X0239742Y0204112D01*
X0239782Y0204202D01*
X0239817Y0204294D01*
X0239850Y0204386D01*
X0239878Y0204480D01*
X0239903Y0204575D01*
X0239924Y0204671D01*
X0239941Y0204768D01*
X0239955Y0204865D01*
X0239964Y0204963D01*
X0239970Y0205061D01*
X0239972Y0205159D01*
X0239972Y0224159D01*
X0239970Y0224257D01*
X0239964Y0224355D01*
X0239955Y0224453D01*
X0239941Y0224550D01*
X0239924Y0224647D01*
X0239903Y0224743D01*
X0239878Y0224838D01*
X0239850Y0224932D01*
X0239817Y0225024D01*
X0239782Y0225116D01*
X0239742Y0225206D01*
X0239700Y0225294D01*
X0239653Y0225381D01*
X0239604Y0225465D01*
X0239551Y0225548D01*
X0239495Y0225628D01*
X0239435Y0225707D01*
X0239373Y0225783D01*
X0239308Y0225856D01*
X0239240Y0225927D01*
X0239169Y0225995D01*
X0239096Y0226060D01*
X0239020Y0226122D01*
X0238941Y0226182D01*
X0238861Y0226238D01*
X0238778Y0226291D01*
X0238694Y0226340D01*
X0238607Y0226387D01*
X0238519Y0226429D01*
X0238429Y0226469D01*
X0238337Y0226504D01*
X0238245Y0226537D01*
X0238151Y0226565D01*
X0238056Y0226590D01*
X0237960Y0226611D01*
X0237863Y0226628D01*
X0237766Y0226642D01*
X0237668Y0226651D01*
X0237570Y0226657D01*
X0237472Y0226659D01*
X0172472Y0226659D01*
X0172374Y0226657D01*
X0172276Y0226651D01*
X0172178Y0226642D01*
X0172081Y0226628D01*
X0171984Y0226611D01*
X0171888Y0226590D01*
X0171793Y0226565D01*
X0171699Y0226537D01*
X0171607Y0226504D01*
X0171515Y0226469D01*
X0171425Y0226429D01*
X0171337Y0226387D01*
X0171250Y0226340D01*
X0171166Y0226291D01*
X0171083Y0226238D01*
X0171003Y0226182D01*
X0170924Y0226122D01*
X0170848Y0226060D01*
X0170775Y0225995D01*
X0170704Y0225927D01*
X0170636Y0225856D01*
X0170571Y0225783D01*
X0170509Y0225707D01*
X0170449Y0225628D01*
X0170393Y0225548D01*
X0170340Y0225465D01*
X0170291Y0225381D01*
X0170244Y0225294D01*
X0170202Y0225206D01*
X0170162Y0225116D01*
X0170127Y0225024D01*
X0170094Y0224932D01*
X0170066Y0224838D01*
X0170041Y0224743D01*
X0170020Y0224647D01*
X0170003Y0224550D01*
X0169989Y0224453D01*
X0169980Y0224355D01*
X0169974Y0224257D01*
X0169972Y0224159D01*
D12*
X0283933Y0162815D02*
X0283933Y0162575D01*
D13*
X0282957Y0165745D02*
X0281956Y0165745D01*
X0282456Y0165745D02*
X0282456Y0167246D01*
X0281956Y0166746D01*
X0281483Y0166996D02*
X0281233Y0167246D01*
X0280733Y0167246D01*
X0280483Y0166996D01*
X0280483Y0165995D01*
X0280733Y0165745D01*
X0281233Y0165745D01*
X0281483Y0165995D01*
X0239398Y0080406D02*
X0239148Y0080406D01*
X0238898Y0080156D01*
X0238898Y0079405D01*
X0239398Y0079405D01*
X0239648Y0079655D01*
X0239648Y0080156D01*
X0239398Y0080406D01*
X0238397Y0079906D02*
X0238898Y0079405D01*
X0238898Y0078933D02*
X0239148Y0078683D01*
X0239148Y0077932D01*
X0239148Y0078432D02*
X0239648Y0078933D01*
X0238898Y0078933D02*
X0238397Y0078933D01*
X0238147Y0078683D01*
X0238147Y0077932D01*
X0239648Y0077932D01*
X0238397Y0079906D02*
X0238147Y0080406D01*
X0223405Y0058125D02*
X0222404Y0058125D01*
X0222404Y0057375D01*
X0222905Y0057625D01*
X0223155Y0057625D01*
X0223405Y0057375D01*
X0223405Y0056874D01*
X0223155Y0056624D01*
X0222655Y0056624D01*
X0222404Y0056874D01*
X0221932Y0056624D02*
X0221432Y0057124D01*
X0221682Y0057124D02*
X0220931Y0057124D01*
X0220931Y0056624D02*
X0220931Y0058125D01*
X0221682Y0058125D01*
X0221932Y0057875D01*
X0221932Y0057375D01*
X0221682Y0057124D01*
X0126082Y0169330D02*
X0124581Y0169330D01*
X0124581Y0170081D01*
X0124831Y0170331D01*
X0125332Y0170331D01*
X0125582Y0170081D01*
X0125582Y0169330D01*
X0125582Y0169831D02*
X0126082Y0170331D01*
X0126082Y0170803D02*
X0126082Y0171804D01*
X0126082Y0171304D02*
X0124581Y0171304D01*
X0125081Y0170803D01*
X0118167Y0202586D02*
X0116666Y0202586D01*
X0116666Y0203337D01*
X0116916Y0203587D01*
X0117417Y0203587D01*
X0117667Y0203337D01*
X0117667Y0202586D01*
X0117667Y0203086D02*
X0118167Y0203587D01*
X0118167Y0204059D02*
X0117166Y0205060D01*
X0116916Y0205060D01*
X0116666Y0204810D01*
X0116666Y0204309D01*
X0116916Y0204059D01*
X0118167Y0204059D02*
X0118167Y0205060D01*
X0103478Y0235485D02*
X0102978Y0235485D01*
X0102727Y0235735D01*
X0102255Y0235735D02*
X0102255Y0236736D01*
X0102005Y0236986D01*
X0101254Y0236986D01*
X0101254Y0235485D01*
X0102005Y0235485D01*
X0102255Y0235735D01*
X0102727Y0236236D02*
X0103228Y0236486D01*
X0103478Y0236486D01*
X0103728Y0236236D01*
X0103728Y0235735D01*
X0103478Y0235485D01*
X0102727Y0236236D02*
X0102727Y0236986D01*
X0103728Y0236986D01*
X0111346Y0242015D02*
X0111346Y0243517D01*
X0112097Y0243517D01*
X0112347Y0243267D01*
X0112347Y0242766D01*
X0112097Y0242516D01*
X0111346Y0242516D01*
X0111846Y0242516D02*
X0112347Y0242015D01*
X0112819Y0242015D02*
X0113820Y0242015D01*
X0113320Y0242015D02*
X0113320Y0243517D01*
X0112819Y0243016D01*
X0114293Y0242766D02*
X0115293Y0242766D01*
X0115043Y0242015D02*
X0115043Y0243517D01*
X0114293Y0242766D01*
X0114627Y0250069D02*
X0114377Y0250319D01*
X0114627Y0250069D02*
X0115127Y0250069D01*
X0115377Y0250319D01*
X0115377Y0250569D01*
X0115127Y0250819D01*
X0114877Y0250819D01*
X0115127Y0250819D02*
X0115377Y0251069D01*
X0115377Y0251320D01*
X0115127Y0251570D01*
X0114627Y0251570D01*
X0114377Y0251320D01*
X0113404Y0251570D02*
X0113404Y0250069D01*
X0113904Y0250069D02*
X0112903Y0250069D01*
X0112431Y0250069D02*
X0111930Y0250569D01*
X0112181Y0250569D02*
X0111430Y0250569D01*
X0111430Y0250069D02*
X0111430Y0251570D01*
X0112181Y0251570D01*
X0112431Y0251320D01*
X0112431Y0250819D01*
X0112181Y0250569D01*
X0112903Y0251069D02*
X0113404Y0251570D01*
X0113397Y0258106D02*
X0113397Y0259607D01*
X0112897Y0259107D01*
X0112425Y0259357D02*
X0112425Y0258857D01*
X0112174Y0258606D01*
X0111424Y0258606D01*
X0111424Y0258106D02*
X0111424Y0259607D01*
X0112174Y0259607D01*
X0112425Y0259357D01*
X0111924Y0258606D02*
X0112425Y0258106D01*
X0112897Y0258106D02*
X0113898Y0258106D01*
X0114370Y0258106D02*
X0115371Y0259107D01*
X0115371Y0259357D01*
X0115121Y0259607D01*
X0114621Y0259607D01*
X0114370Y0259357D01*
X0114370Y0258106D02*
X0115371Y0258106D01*
X0103899Y0258705D02*
X0102898Y0258705D01*
X0103899Y0259706D01*
X0103899Y0259956D01*
X0103649Y0260206D01*
X0103148Y0260206D01*
X0102898Y0259956D01*
X0102426Y0259956D02*
X0102176Y0260206D01*
X0101425Y0260206D01*
X0101425Y0258705D01*
X0102176Y0258705D01*
X0102426Y0258955D01*
X0102426Y0259956D01*
X0102105Y0252339D02*
X0101355Y0252339D01*
X0101355Y0250837D01*
X0102105Y0250837D01*
X0102355Y0251088D01*
X0102355Y0252088D01*
X0102105Y0252339D01*
X0102828Y0252088D02*
X0103078Y0252339D01*
X0103578Y0252339D01*
X0103829Y0252088D01*
X0103829Y0251838D01*
X0103578Y0251588D01*
X0103829Y0251338D01*
X0103829Y0251088D01*
X0103578Y0250837D01*
X0103078Y0250837D01*
X0102828Y0251088D01*
X0103328Y0251588D02*
X0103578Y0251588D01*
X0103651Y0244634D02*
X0102901Y0243883D01*
X0103901Y0243883D01*
X0103651Y0243133D02*
X0103651Y0244634D01*
X0102428Y0244384D02*
X0102178Y0244634D01*
X0101427Y0244634D01*
X0101427Y0243133D01*
X0102178Y0243133D01*
X0102428Y0243383D01*
X0102428Y0244384D01*
X0111392Y0266198D02*
X0111392Y0267699D01*
X0112143Y0267699D01*
X0112393Y0267449D01*
X0112393Y0266948D01*
X0112143Y0266698D01*
X0111392Y0266698D01*
X0111892Y0266698D02*
X0112393Y0266198D01*
X0112865Y0266198D02*
X0113866Y0266198D01*
X0114338Y0266198D02*
X0115339Y0266198D01*
X0114839Y0266198D02*
X0114839Y0267699D01*
X0114338Y0267199D01*
X0113366Y0267699D02*
X0113366Y0266198D01*
X0112865Y0267199D02*
X0113366Y0267699D01*
X0132614Y0263586D02*
X0132614Y0263085D01*
X0132864Y0262835D01*
X0133114Y0262835D01*
X0133365Y0263085D01*
X0133365Y0263836D01*
X0133865Y0263836D02*
X0132864Y0263836D01*
X0132614Y0263586D01*
X0132864Y0262363D02*
X0132614Y0262112D01*
X0132614Y0261612D01*
X0132864Y0261362D01*
X0133114Y0261362D01*
X0133365Y0261612D01*
X0133365Y0262112D01*
X0133615Y0262363D01*
X0133865Y0262363D01*
X0134115Y0262112D01*
X0134115Y0261612D01*
X0133865Y0261362D01*
X0133865Y0260889D02*
X0132614Y0260889D01*
X0132614Y0259888D02*
X0133865Y0259888D01*
X0134115Y0260139D01*
X0134115Y0260639D01*
X0133865Y0260889D01*
X0134365Y0261862D02*
X0132364Y0261862D01*
X0133865Y0262835D02*
X0134115Y0263085D01*
X0134115Y0263586D01*
X0133865Y0263836D01*
D14*
X0141945Y0263850D02*
X0163204Y0263850D01*
X0163204Y0242590D01*
X0141945Y0242590D01*
X0141945Y0263850D01*
X0101373Y0263925D02*
X0100152Y0263005D01*
X0100152Y0261194D01*
X0101373Y0262145D02*
X0100213Y0262905D01*
X0100152Y0263005D02*
X0100152Y0264816D01*
X0100082Y0256948D02*
X0100082Y0255137D01*
X0101302Y0256058D01*
X0100082Y0255137D02*
X0100082Y0253326D01*
X0101302Y0254278D02*
X0100142Y0255037D01*
X0100154Y0249244D02*
X0100154Y0247433D01*
X0101375Y0248353D01*
X0100154Y0247433D02*
X0100154Y0245622D01*
X0101375Y0246573D02*
X0100215Y0247333D01*
X0099981Y0241596D02*
X0099981Y0239785D01*
X0101202Y0240705D01*
X0099981Y0239785D02*
X0099981Y0237974D01*
X0101202Y0238925D02*
X0100042Y0239685D01*
X0136700Y0216961D02*
X0136754Y0216963D01*
X0136807Y0216968D01*
X0136860Y0216977D01*
X0136912Y0216990D01*
X0136964Y0217006D01*
X0137014Y0217026D01*
X0137062Y0217049D01*
X0137109Y0217076D01*
X0137154Y0217105D01*
X0137197Y0217138D01*
X0137237Y0217173D01*
X0137275Y0217211D01*
X0137310Y0217251D01*
X0137343Y0217294D01*
X0137372Y0217339D01*
X0137399Y0217386D01*
X0137422Y0217434D01*
X0137442Y0217484D01*
X0137458Y0217536D01*
X0137471Y0217588D01*
X0137480Y0217641D01*
X0137485Y0217694D01*
X0137487Y0217748D01*
X0147723Y0217748D01*
X0147724Y0217748D02*
X0147726Y0217694D01*
X0147731Y0217641D01*
X0147740Y0217588D01*
X0147753Y0217536D01*
X0147769Y0217484D01*
X0147789Y0217434D01*
X0147812Y0217386D01*
X0147839Y0217339D01*
X0147868Y0217294D01*
X0147901Y0217251D01*
X0147936Y0217211D01*
X0147974Y0217173D01*
X0148014Y0217138D01*
X0148057Y0217105D01*
X0148102Y0217076D01*
X0148149Y0217049D01*
X0148197Y0217026D01*
X0148247Y0217006D01*
X0148299Y0216990D01*
X0148351Y0216977D01*
X0148404Y0216968D01*
X0148457Y0216963D01*
X0148511Y0216961D01*
X0148511Y0199638D02*
X0148457Y0199636D01*
X0148404Y0199631D01*
X0148351Y0199622D01*
X0148299Y0199609D01*
X0148247Y0199593D01*
X0148197Y0199573D01*
X0148149Y0199550D01*
X0148102Y0199523D01*
X0148057Y0199494D01*
X0148014Y0199461D01*
X0147974Y0199426D01*
X0147936Y0199388D01*
X0147901Y0199348D01*
X0147868Y0199305D01*
X0147839Y0199260D01*
X0147812Y0199213D01*
X0147789Y0199165D01*
X0147769Y0199115D01*
X0147753Y0199063D01*
X0147740Y0199011D01*
X0147731Y0198958D01*
X0147726Y0198905D01*
X0147724Y0198851D01*
X0147723Y0198851D02*
X0137487Y0198851D01*
X0137485Y0198905D01*
X0137480Y0198958D01*
X0137471Y0199011D01*
X0137458Y0199063D01*
X0137442Y0199115D01*
X0137422Y0199165D01*
X0137399Y0199213D01*
X0137372Y0199260D01*
X0137343Y0199305D01*
X0137310Y0199348D01*
X0137275Y0199388D01*
X0137237Y0199426D01*
X0137197Y0199461D01*
X0137154Y0199494D01*
X0137109Y0199523D01*
X0137062Y0199550D01*
X0137014Y0199573D01*
X0136964Y0199593D01*
X0136912Y0199609D01*
X0136860Y0199622D01*
X0136807Y0199631D01*
X0136754Y0199636D01*
X0136700Y0199638D01*
X0111428Y0104679D02*
X0103318Y0104679D01*
X0103318Y0094442D02*
X0111428Y0094442D01*
X0278468Y0168303D02*
X0278522Y0168301D01*
X0278575Y0168296D01*
X0278628Y0168287D01*
X0278680Y0168274D01*
X0278732Y0168258D01*
X0278782Y0168238D01*
X0278830Y0168215D01*
X0278877Y0168188D01*
X0278922Y0168159D01*
X0278965Y0168126D01*
X0279005Y0168091D01*
X0279043Y0168053D01*
X0279078Y0168013D01*
X0279111Y0167970D01*
X0279140Y0167925D01*
X0279167Y0167878D01*
X0279190Y0167830D01*
X0279210Y0167780D01*
X0279226Y0167728D01*
X0279239Y0167676D01*
X0279248Y0167623D01*
X0279253Y0167570D01*
X0279255Y0167516D01*
X0289491Y0167516D01*
X0289492Y0167516D02*
X0289494Y0167570D01*
X0289499Y0167623D01*
X0289508Y0167676D01*
X0289521Y0167728D01*
X0289537Y0167780D01*
X0289557Y0167830D01*
X0289580Y0167878D01*
X0289607Y0167925D01*
X0289636Y0167970D01*
X0289669Y0168013D01*
X0289704Y0168053D01*
X0289742Y0168091D01*
X0289782Y0168126D01*
X0289825Y0168159D01*
X0289870Y0168188D01*
X0289917Y0168215D01*
X0289965Y0168238D01*
X0290015Y0168258D01*
X0290067Y0168274D01*
X0290119Y0168287D01*
X0290172Y0168296D01*
X0290225Y0168301D01*
X0290279Y0168303D01*
X0290279Y0185627D02*
X0290225Y0185629D01*
X0290172Y0185634D01*
X0290119Y0185643D01*
X0290067Y0185656D01*
X0290015Y0185672D01*
X0289965Y0185692D01*
X0289917Y0185715D01*
X0289870Y0185742D01*
X0289825Y0185771D01*
X0289782Y0185804D01*
X0289742Y0185839D01*
X0289704Y0185877D01*
X0289669Y0185917D01*
X0289636Y0185960D01*
X0289607Y0186005D01*
X0289580Y0186052D01*
X0289557Y0186100D01*
X0289537Y0186150D01*
X0289521Y0186202D01*
X0289508Y0186254D01*
X0289499Y0186307D01*
X0289494Y0186360D01*
X0289492Y0186414D01*
X0289491Y0186414D02*
X0279255Y0186414D01*
X0279253Y0186360D01*
X0279248Y0186307D01*
X0279239Y0186254D01*
X0279226Y0186202D01*
X0279210Y0186150D01*
X0279190Y0186100D01*
X0279167Y0186052D01*
X0279140Y0186005D01*
X0279111Y0185960D01*
X0279078Y0185917D01*
X0279043Y0185877D01*
X0279005Y0185839D01*
X0278965Y0185804D01*
X0278922Y0185771D01*
X0278877Y0185742D01*
X0278830Y0185715D01*
X0278782Y0185692D01*
X0278732Y0185672D01*
X0278680Y0185656D01*
X0278628Y0185643D01*
X0278575Y0185634D01*
X0278522Y0185629D01*
X0278468Y0185627D01*
D15*
X0274173Y0174838D02*
X0274173Y0171769D01*
X0274173Y0173304D02*
X0269569Y0173304D01*
X0271104Y0171769D01*
X0270337Y0170234D02*
X0273406Y0170234D01*
X0274173Y0169467D01*
X0274173Y0167932D01*
X0273406Y0167165D01*
X0270337Y0167165D01*
X0269569Y0167932D01*
X0269569Y0169467D01*
X0270337Y0170234D01*
X0272639Y0168700D02*
X0274173Y0170234D01*
X0216518Y0167885D02*
X0211914Y0167885D01*
X0211914Y0170954D01*
X0214216Y0169420D02*
X0214216Y0167885D01*
X0213448Y0166350D02*
X0212681Y0166350D01*
X0211914Y0165583D01*
X0211914Y0164048D01*
X0212681Y0163281D01*
X0212681Y0161746D02*
X0213448Y0161746D01*
X0214216Y0160979D01*
X0214983Y0161746D01*
X0215750Y0161746D01*
X0216518Y0160979D01*
X0216518Y0159444D01*
X0215750Y0158677D01*
X0216518Y0157142D02*
X0211914Y0157142D01*
X0213448Y0155608D01*
X0211914Y0154073D01*
X0216518Y0154073D01*
X0216518Y0151004D02*
X0211914Y0151004D01*
X0211914Y0149469D02*
X0211914Y0152539D01*
X0212681Y0147935D02*
X0211914Y0147167D01*
X0211914Y0145633D01*
X0212681Y0144865D01*
X0213448Y0144865D01*
X0214216Y0145633D01*
X0214216Y0147167D01*
X0214983Y0147935D01*
X0215750Y0147935D01*
X0216518Y0147167D01*
X0216518Y0145633D01*
X0215750Y0144865D01*
X0212681Y0158677D02*
X0211914Y0159444D01*
X0211914Y0160979D01*
X0212681Y0161746D01*
X0214216Y0160979D02*
X0214216Y0160212D01*
X0216518Y0163281D02*
X0213448Y0166350D01*
X0216518Y0166350D02*
X0216518Y0163281D01*
X0214216Y0172489D02*
X0214216Y0175558D01*
X0216518Y0174791D02*
X0211914Y0174791D01*
X0214216Y0172489D01*
X0167481Y0135869D02*
X0161343Y0135869D01*
X0162110Y0136636D02*
X0162878Y0137403D01*
X0162110Y0136636D02*
X0162110Y0135101D01*
X0162878Y0134334D01*
X0163645Y0134334D01*
X0164412Y0135101D01*
X0164412Y0136636D01*
X0165180Y0137403D01*
X0165947Y0137403D01*
X0166714Y0136636D01*
X0166714Y0135101D01*
X0165947Y0134334D01*
X0165947Y0132799D02*
X0162110Y0132799D01*
X0162110Y0129730D02*
X0165947Y0129730D01*
X0166714Y0130498D01*
X0166714Y0132032D01*
X0165947Y0132799D01*
X0166714Y0138938D02*
X0166714Y0142007D01*
X0166714Y0140473D02*
X0162110Y0140473D01*
X0163645Y0138938D01*
X0118557Y0174431D02*
X0118557Y0175966D01*
X0117789Y0176733D01*
X0113953Y0176733D01*
X0114720Y0178268D02*
X0113953Y0179035D01*
X0113953Y0180570D01*
X0114720Y0181337D01*
X0114720Y0182872D02*
X0113953Y0183639D01*
X0113953Y0185173D01*
X0114720Y0185941D01*
X0115487Y0185941D01*
X0116255Y0185173D01*
X0117022Y0185941D01*
X0117789Y0185941D01*
X0118557Y0185173D01*
X0118557Y0183639D01*
X0117789Y0182872D01*
X0117789Y0181337D02*
X0117022Y0181337D01*
X0116255Y0180570D01*
X0116255Y0179035D01*
X0115487Y0178268D01*
X0114720Y0178268D01*
X0113185Y0179802D02*
X0119324Y0179802D01*
X0118557Y0179035D02*
X0118557Y0180570D01*
X0117789Y0181337D01*
X0118557Y0179035D02*
X0117789Y0178268D01*
X0118557Y0174431D02*
X0117789Y0173664D01*
X0113953Y0173664D01*
X0116255Y0184406D02*
X0116255Y0185173D01*
X0128569Y0198500D02*
X0127801Y0199267D01*
X0127801Y0200802D01*
X0128569Y0201569D01*
X0131638Y0201569D01*
X0132405Y0200802D01*
X0132405Y0199267D01*
X0131638Y0198500D01*
X0128569Y0198500D01*
X0130870Y0200034D02*
X0132405Y0201569D01*
X0132405Y0203104D02*
X0129336Y0206173D01*
X0128569Y0206173D01*
X0127801Y0205405D01*
X0127801Y0203871D01*
X0128569Y0203104D01*
X0132405Y0203104D02*
X0132405Y0206173D01*
X0118557Y0211372D02*
X0118557Y0212906D01*
X0117789Y0213674D01*
X0113953Y0213674D01*
X0114720Y0215208D02*
X0113953Y0215976D01*
X0113953Y0217510D01*
X0114720Y0218278D01*
X0114720Y0219812D02*
X0113953Y0220580D01*
X0113953Y0222114D01*
X0114720Y0222882D01*
X0115487Y0222882D01*
X0118557Y0219812D01*
X0118557Y0222882D01*
X0117789Y0218278D02*
X0117022Y0218278D01*
X0116255Y0217510D01*
X0116255Y0215976D01*
X0115487Y0215208D01*
X0114720Y0215208D01*
X0113185Y0216743D02*
X0119324Y0216743D01*
X0118557Y0215976D02*
X0118557Y0217510D01*
X0117789Y0218278D01*
X0118557Y0215976D02*
X0117789Y0215208D01*
X0118557Y0211372D02*
X0117789Y0210605D01*
X0113953Y0210605D01*
X0148520Y0210380D02*
X0148520Y0208845D01*
X0149288Y0208078D01*
X0149288Y0206543D02*
X0148520Y0205776D01*
X0148520Y0204241D01*
X0149288Y0203474D01*
X0152357Y0203474D01*
X0153124Y0204241D01*
X0153124Y0205776D01*
X0152357Y0206543D01*
X0153124Y0208078D02*
X0150055Y0211147D01*
X0149288Y0211147D01*
X0148520Y0210380D01*
X0149288Y0212682D02*
X0148520Y0213449D01*
X0148520Y0214984D01*
X0149288Y0215751D01*
X0150055Y0215751D01*
X0153124Y0212682D01*
X0153124Y0215751D01*
X0153124Y0211147D02*
X0153124Y0208078D01*
X0164188Y0250632D02*
X0168025Y0250632D01*
X0168792Y0251399D01*
X0168792Y0252934D01*
X0168025Y0253701D01*
X0164188Y0253701D01*
X0164955Y0255236D02*
X0164188Y0256003D01*
X0164188Y0257538D01*
X0164955Y0258305D01*
X0166490Y0257538D02*
X0166490Y0256003D01*
X0165723Y0255236D01*
X0164955Y0255236D01*
X0163421Y0256770D02*
X0169559Y0256770D01*
X0168792Y0256003D02*
X0168792Y0257538D01*
X0168025Y0258305D01*
X0167257Y0258305D01*
X0166490Y0257538D01*
X0166490Y0259840D02*
X0166490Y0262909D01*
X0168792Y0262142D02*
X0164188Y0262142D01*
X0166490Y0259840D01*
X0168792Y0256003D02*
X0168025Y0255236D01*
X0152755Y0260228D02*
X0148151Y0260228D01*
X0148151Y0262530D01*
X0148918Y0263298D01*
X0150453Y0263298D01*
X0151220Y0262530D01*
X0151220Y0260228D01*
X0151220Y0261763D02*
X0152755Y0263298D01*
X0152755Y0264832D02*
X0149685Y0267902D01*
X0148918Y0267902D01*
X0148151Y0267134D01*
X0148151Y0265600D01*
X0148918Y0264832D01*
X0152755Y0264832D02*
X0152755Y0267902D01*
X0152755Y0269436D02*
X0152755Y0272506D01*
X0152755Y0270971D02*
X0148151Y0270971D01*
X0149685Y0269436D01*
X0108079Y0145838D02*
X0108079Y0142769D01*
X0105009Y0145838D01*
X0104242Y0145838D01*
X0103475Y0145071D01*
X0103475Y0143536D01*
X0104242Y0142769D01*
X0103475Y0141234D02*
X0108079Y0141234D01*
X0103475Y0138165D01*
X0108079Y0138165D01*
X0108079Y0136630D02*
X0106544Y0135095D01*
X0106544Y0135863D02*
X0106544Y0133561D01*
X0108079Y0133561D02*
X0103475Y0133561D01*
X0103475Y0135863D01*
X0104242Y0136630D01*
X0105777Y0136630D01*
X0106544Y0135863D01*
X0101232Y0137970D02*
X0095326Y0137970D01*
X0095326Y0143875D02*
X0101232Y0143875D01*
X0108345Y0091864D02*
X0110647Y0091864D01*
X0111415Y0091097D01*
X0111415Y0088028D01*
X0110647Y0087260D01*
X0108345Y0087260D01*
X0108345Y0091864D01*
X0112949Y0089562D02*
X0112949Y0088028D01*
X0113717Y0087260D01*
X0115251Y0087260D01*
X0116019Y0088028D01*
X0116019Y0088795D01*
X0115251Y0089562D01*
X0112949Y0089562D01*
X0114484Y0091097D01*
X0116019Y0091864D01*
X0112886Y0085097D02*
X0111352Y0085097D01*
X0110584Y0084329D01*
X0112886Y0085097D02*
X0113654Y0084329D01*
X0113654Y0083562D01*
X0110584Y0080493D01*
X0113654Y0080493D01*
X0109050Y0080493D02*
X0105981Y0080493D01*
X0107515Y0080493D02*
X0107515Y0085097D01*
X0105981Y0083562D01*
X0104446Y0084329D02*
X0103679Y0085097D01*
X0102144Y0085097D01*
X0101377Y0084329D01*
X0101377Y0081260D01*
X0102144Y0080493D01*
X0103679Y0080493D01*
X0104446Y0081260D01*
X0151063Y0087837D02*
X0151830Y0087069D01*
X0153365Y0087069D01*
X0154132Y0087837D01*
X0155667Y0087069D02*
X0158736Y0087069D01*
X0157201Y0087069D02*
X0157201Y0091673D01*
X0155667Y0090139D01*
X0154132Y0090906D02*
X0153365Y0091673D01*
X0151830Y0091673D01*
X0151063Y0090906D01*
X0151063Y0087837D01*
X0160270Y0087837D02*
X0163340Y0090906D01*
X0163340Y0087837D01*
X0162572Y0087069D01*
X0161038Y0087069D01*
X0160270Y0087837D01*
X0160270Y0090906D01*
X0161038Y0091673D01*
X0162572Y0091673D01*
X0163340Y0090906D01*
X0220266Y0081847D02*
X0220266Y0075350D01*
X0231683Y0075350D02*
X0231683Y0081847D01*
X0234438Y0083229D02*
X0235973Y0081695D01*
X0235973Y0083997D01*
X0236740Y0084764D01*
X0237507Y0084764D01*
X0238275Y0083997D01*
X0238275Y0082462D01*
X0237507Y0081695D01*
X0235973Y0081695D01*
X0236740Y0080160D02*
X0235973Y0079393D01*
X0235973Y0077858D01*
X0235205Y0077091D01*
X0234438Y0077091D01*
X0233671Y0077858D01*
X0233671Y0079393D01*
X0234438Y0080160D01*
X0232903Y0078625D02*
X0239042Y0078625D01*
X0238275Y0077858D02*
X0238275Y0079393D01*
X0237507Y0080160D01*
X0236740Y0080160D01*
X0238275Y0077858D02*
X0237507Y0077091D01*
X0237507Y0075556D02*
X0233671Y0075556D01*
X0233671Y0072487D02*
X0237507Y0072487D01*
X0238275Y0073254D01*
X0238275Y0074789D01*
X0237507Y0075556D01*
X0234438Y0083229D02*
X0233671Y0084764D01*
D16*
X0235098Y0077328D03*
X0121532Y0168727D03*
X0121217Y0206036D03*
D17*
X0114796Y0238965D03*
X0114880Y0247019D03*
X0114874Y0255056D03*
X0114842Y0263148D03*
X0224381Y0053574D03*
D18*
X0089728Y0036807D02*
X0089728Y0015153D01*
X0105996Y0097647D02*
X0105996Y0102151D01*
X0104495Y0102151D02*
X0107498Y0102151D01*
X0109099Y0101401D02*
X0109850Y0102151D01*
X0111351Y0102151D01*
X0112101Y0101401D01*
X0112101Y0100650D01*
X0111351Y0099899D01*
X0112101Y0099149D01*
X0112101Y0098398D01*
X0111351Y0097647D01*
X0109850Y0097647D01*
X0109099Y0098398D01*
X0110600Y0099899D02*
X0111351Y0099899D01*
X0133109Y0118133D02*
X0137613Y0118133D01*
X0137613Y0119634D02*
X0137613Y0116631D01*
X0134610Y0116631D02*
X0133109Y0118133D01*
X0135361Y0121235D02*
X0133860Y0122737D01*
X0133109Y0124238D01*
X0135361Y0123487D02*
X0135361Y0121235D01*
X0136862Y0121235D01*
X0137613Y0121986D01*
X0137613Y0123487D01*
X0136862Y0124238D01*
X0136112Y0124238D01*
X0135361Y0123487D01*
X0168263Y0120692D02*
X0169764Y0122194D01*
X0169764Y0117690D01*
X0168263Y0117690D02*
X0171265Y0117690D01*
X0176954Y0129530D02*
X0232072Y0129530D01*
X0232072Y0184648D01*
X0176954Y0184648D01*
X0176954Y0129530D01*
X0184763Y0121443D02*
X0184763Y0120692D01*
X0185513Y0119942D01*
X0187015Y0119942D01*
X0187765Y0119191D01*
X0187765Y0118440D01*
X0187015Y0117690D01*
X0185513Y0117690D01*
X0184763Y0118440D01*
X0184763Y0121443D02*
X0185513Y0122194D01*
X0187015Y0122194D01*
X0187765Y0121443D01*
X0189367Y0122194D02*
X0189367Y0119191D01*
X0190868Y0117690D01*
X0192369Y0119191D01*
X0192369Y0122194D01*
X0193970Y0120692D02*
X0195472Y0122194D01*
X0195472Y0117690D01*
X0196973Y0117690D02*
X0193970Y0117690D01*
X0226166Y0133467D02*
X0226168Y0133555D01*
X0226174Y0133643D01*
X0226184Y0133731D01*
X0226198Y0133819D01*
X0226215Y0133905D01*
X0226237Y0133991D01*
X0226262Y0134075D01*
X0226292Y0134159D01*
X0226324Y0134241D01*
X0226361Y0134321D01*
X0226401Y0134400D01*
X0226445Y0134477D01*
X0226492Y0134552D01*
X0226542Y0134624D01*
X0226596Y0134695D01*
X0226652Y0134762D01*
X0226712Y0134828D01*
X0226774Y0134890D01*
X0226840Y0134950D01*
X0226907Y0135006D01*
X0226978Y0135060D01*
X0227050Y0135110D01*
X0227125Y0135157D01*
X0227202Y0135201D01*
X0227281Y0135241D01*
X0227361Y0135278D01*
X0227443Y0135310D01*
X0227527Y0135340D01*
X0227611Y0135365D01*
X0227697Y0135387D01*
X0227783Y0135404D01*
X0227871Y0135418D01*
X0227959Y0135428D01*
X0228047Y0135434D01*
X0228135Y0135436D01*
X0228223Y0135434D01*
X0228311Y0135428D01*
X0228399Y0135418D01*
X0228487Y0135404D01*
X0228573Y0135387D01*
X0228659Y0135365D01*
X0228743Y0135340D01*
X0228827Y0135310D01*
X0228909Y0135278D01*
X0228989Y0135241D01*
X0229068Y0135201D01*
X0229145Y0135157D01*
X0229220Y0135110D01*
X0229292Y0135060D01*
X0229363Y0135006D01*
X0229430Y0134950D01*
X0229496Y0134890D01*
X0229558Y0134828D01*
X0229618Y0134762D01*
X0229674Y0134695D01*
X0229728Y0134624D01*
X0229778Y0134552D01*
X0229825Y0134477D01*
X0229869Y0134400D01*
X0229909Y0134321D01*
X0229946Y0134241D01*
X0229978Y0134159D01*
X0230008Y0134075D01*
X0230033Y0133991D01*
X0230055Y0133905D01*
X0230072Y0133819D01*
X0230086Y0133731D01*
X0230096Y0133643D01*
X0230102Y0133555D01*
X0230104Y0133467D01*
X0230102Y0133379D01*
X0230096Y0133291D01*
X0230086Y0133203D01*
X0230072Y0133115D01*
X0230055Y0133029D01*
X0230033Y0132943D01*
X0230008Y0132859D01*
X0229978Y0132775D01*
X0229946Y0132693D01*
X0229909Y0132613D01*
X0229869Y0132534D01*
X0229825Y0132457D01*
X0229778Y0132382D01*
X0229728Y0132310D01*
X0229674Y0132239D01*
X0229618Y0132172D01*
X0229558Y0132106D01*
X0229496Y0132044D01*
X0229430Y0131984D01*
X0229363Y0131928D01*
X0229292Y0131874D01*
X0229220Y0131824D01*
X0229145Y0131777D01*
X0229068Y0131733D01*
X0228989Y0131693D01*
X0228909Y0131656D01*
X0228827Y0131624D01*
X0228743Y0131594D01*
X0228659Y0131569D01*
X0228573Y0131547D01*
X0228487Y0131530D01*
X0228399Y0131516D01*
X0228311Y0131506D01*
X0228223Y0131500D01*
X0228135Y0131498D01*
X0228047Y0131500D01*
X0227959Y0131506D01*
X0227871Y0131516D01*
X0227783Y0131530D01*
X0227697Y0131547D01*
X0227611Y0131569D01*
X0227527Y0131594D01*
X0227443Y0131624D01*
X0227361Y0131656D01*
X0227281Y0131693D01*
X0227202Y0131733D01*
X0227125Y0131777D01*
X0227050Y0131824D01*
X0226978Y0131874D01*
X0226907Y0131928D01*
X0226840Y0131984D01*
X0226774Y0132044D01*
X0226712Y0132106D01*
X0226652Y0132172D01*
X0226596Y0132239D01*
X0226542Y0132310D01*
X0226492Y0132382D01*
X0226445Y0132457D01*
X0226401Y0132534D01*
X0226361Y0132613D01*
X0226324Y0132693D01*
X0226292Y0132775D01*
X0226262Y0132859D01*
X0226237Y0132943D01*
X0226215Y0133029D01*
X0226198Y0133115D01*
X0226184Y0133203D01*
X0226174Y0133291D01*
X0226168Y0133379D01*
X0226166Y0133467D01*
X0239412Y0125339D02*
X0239412Y0122337D01*
X0239412Y0123838D02*
X0243916Y0123838D01*
X0242415Y0125339D01*
X0241664Y0120735D02*
X0241664Y0118483D01*
X0240913Y0117733D01*
X0240163Y0117733D01*
X0239412Y0118483D01*
X0239412Y0119985D01*
X0240163Y0120735D01*
X0241664Y0120735D01*
X0243165Y0119234D01*
X0243916Y0117733D01*
X0243869Y0090194D02*
X0242368Y0089443D01*
X0240867Y0087942D01*
X0243118Y0087942D01*
X0243869Y0087191D01*
X0243869Y0086440D01*
X0243118Y0085690D01*
X0241617Y0085690D01*
X0240867Y0086440D01*
X0240867Y0087942D01*
X0239265Y0085690D02*
X0236263Y0085690D01*
X0237764Y0085690D02*
X0237764Y0090194D01*
X0236263Y0088692D01*
X0296224Y0036807D02*
X0296224Y0015153D01*
X0275165Y0164629D02*
X0274415Y0164629D01*
X0273664Y0165380D01*
X0272913Y0164629D01*
X0272163Y0164629D01*
X0271412Y0165380D01*
X0271412Y0166881D01*
X0272163Y0167631D01*
X0272913Y0169233D02*
X0275916Y0169233D01*
X0275165Y0167631D02*
X0275916Y0166881D01*
X0275916Y0165380D01*
X0275165Y0164629D01*
X0273664Y0165380D02*
X0273664Y0166130D01*
X0272913Y0169233D02*
X0271412Y0170734D01*
X0272913Y0172235D01*
X0275916Y0172235D01*
X0275165Y0173837D02*
X0275916Y0174587D01*
X0275916Y0176089D01*
X0275165Y0176839D01*
X0274415Y0176839D01*
X0273664Y0176089D01*
X0273664Y0174587D01*
X0272913Y0173837D01*
X0272163Y0173837D01*
X0271412Y0174587D01*
X0271412Y0176089D01*
X0272163Y0176839D01*
X0271412Y0190337D02*
X0271412Y0193339D01*
X0271412Y0191838D02*
X0275916Y0191838D01*
X0274415Y0193339D01*
X0235121Y0196409D02*
X0232118Y0196409D01*
X0233620Y0196409D02*
X0233620Y0200913D01*
X0232118Y0199412D01*
X0223621Y0198661D02*
X0223621Y0197160D01*
X0222870Y0196409D01*
X0221369Y0196409D01*
X0220618Y0197160D01*
X0220618Y0198661D02*
X0222120Y0199412D01*
X0222870Y0199412D01*
X0223621Y0198661D01*
X0223621Y0200913D02*
X0220618Y0200913D01*
X0220618Y0198661D01*
X0219017Y0197911D02*
X0219017Y0200913D01*
X0219017Y0197911D02*
X0217516Y0196409D01*
X0216014Y0197911D01*
X0216014Y0200913D01*
X0214413Y0200162D02*
X0213662Y0200913D01*
X0212161Y0200913D01*
X0211410Y0200162D01*
X0211410Y0199412D01*
X0212161Y0198661D01*
X0213662Y0198661D01*
X0214413Y0197911D01*
X0214413Y0197160D01*
X0213662Y0196409D01*
X0212161Y0196409D01*
X0211410Y0197160D01*
X0176370Y0228409D02*
X0176370Y0232913D01*
X0174118Y0230661D01*
X0177121Y0230661D01*
X0172517Y0228409D02*
X0169514Y0228409D01*
X0171016Y0228409D02*
X0171016Y0232913D01*
X0169514Y0231412D01*
X0157187Y0226775D02*
X0157187Y0222271D01*
X0155686Y0222271D02*
X0158688Y0222271D01*
X0155686Y0225274D02*
X0157187Y0226775D01*
X0154084Y0226775D02*
X0154084Y0222271D01*
X0151082Y0226775D01*
X0151082Y0222271D01*
X0149480Y0222271D02*
X0147979Y0223772D01*
X0148730Y0223772D02*
X0146478Y0223772D01*
X0146478Y0222271D02*
X0146478Y0226775D01*
X0148730Y0226775D01*
X0149480Y0226024D01*
X0149480Y0224523D01*
X0148730Y0223772D01*
X0172458Y0252789D02*
X0172458Y0257293D01*
X0174710Y0257293D01*
X0175461Y0256542D01*
X0175461Y0255041D01*
X0174710Y0254290D01*
X0172458Y0254290D01*
X0173960Y0254290D02*
X0175461Y0252789D01*
X0177062Y0252789D02*
X0177062Y0257293D01*
X0180065Y0252789D01*
X0180065Y0257293D01*
X0181666Y0256542D02*
X0182417Y0257293D01*
X0183918Y0257293D01*
X0184669Y0256542D01*
X0184669Y0255792D01*
X0183918Y0255041D01*
X0184669Y0254290D01*
X0184669Y0253540D01*
X0183918Y0252789D01*
X0182417Y0252789D01*
X0181666Y0253540D01*
X0183167Y0255041D02*
X0183918Y0255041D01*
X0202177Y0247106D02*
X0204429Y0244854D01*
X0204429Y0247856D01*
X0206680Y0247106D02*
X0202177Y0247106D01*
X0202177Y0243252D02*
X0206680Y0243252D01*
X0202177Y0240250D01*
X0206680Y0240250D01*
X0206680Y0238648D02*
X0205179Y0237147D01*
X0205179Y0237898D02*
X0205179Y0235646D01*
X0206680Y0235646D02*
X0202177Y0235646D01*
X0202177Y0237898D01*
X0202927Y0238648D01*
X0204429Y0238648D01*
X0205179Y0237898D01*
X0169613Y0192238D02*
X0169613Y0189235D01*
X0169613Y0190737D02*
X0165109Y0190737D01*
X0166610Y0189235D01*
X0166610Y0175738D02*
X0165860Y0175738D01*
X0165109Y0174987D01*
X0165109Y0173486D01*
X0165860Y0172735D01*
X0165109Y0171134D02*
X0168112Y0171134D01*
X0169613Y0169633D01*
X0168112Y0168131D01*
X0165109Y0168131D01*
X0165860Y0166530D02*
X0165109Y0165779D01*
X0165109Y0164278D01*
X0165860Y0163527D01*
X0166610Y0163527D01*
X0167361Y0164278D01*
X0167361Y0165779D01*
X0168112Y0166530D01*
X0168862Y0166530D01*
X0169613Y0165779D01*
X0169613Y0164278D01*
X0168862Y0163527D01*
X0169613Y0172735D02*
X0166610Y0175738D01*
X0169613Y0175738D02*
X0169613Y0172735D01*
X0092638Y0151667D02*
X0092638Y0128045D01*
X0072953Y0128045D01*
X0072953Y0151667D02*
X0092638Y0151667D01*
X0143491Y0261820D02*
X0143493Y0261868D01*
X0143499Y0261916D01*
X0143509Y0261963D01*
X0143523Y0262009D01*
X0143540Y0262054D01*
X0143561Y0262097D01*
X0143586Y0262139D01*
X0143614Y0262178D01*
X0143645Y0262215D01*
X0143679Y0262249D01*
X0143716Y0262280D01*
X0143755Y0262308D01*
X0143797Y0262333D01*
X0143840Y0262354D01*
X0143885Y0262371D01*
X0143931Y0262385D01*
X0143978Y0262395D01*
X0144026Y0262401D01*
X0144074Y0262403D01*
X0144122Y0262401D01*
X0144170Y0262395D01*
X0144217Y0262385D01*
X0144263Y0262371D01*
X0144308Y0262354D01*
X0144351Y0262333D01*
X0144393Y0262308D01*
X0144432Y0262280D01*
X0144469Y0262249D01*
X0144503Y0262215D01*
X0144534Y0262178D01*
X0144562Y0262139D01*
X0144587Y0262097D01*
X0144608Y0262054D01*
X0144625Y0262009D01*
X0144639Y0261963D01*
X0144649Y0261916D01*
X0144655Y0261868D01*
X0144657Y0261820D01*
X0144655Y0261772D01*
X0144649Y0261724D01*
X0144639Y0261677D01*
X0144625Y0261631D01*
X0144608Y0261586D01*
X0144587Y0261543D01*
X0144562Y0261501D01*
X0144534Y0261462D01*
X0144503Y0261425D01*
X0144469Y0261391D01*
X0144432Y0261360D01*
X0144393Y0261332D01*
X0144351Y0261307D01*
X0144308Y0261286D01*
X0144263Y0261269D01*
X0144217Y0261255D01*
X0144170Y0261245D01*
X0144122Y0261239D01*
X0144074Y0261237D01*
X0144026Y0261239D01*
X0143978Y0261245D01*
X0143931Y0261255D01*
X0143885Y0261269D01*
X0143840Y0261286D01*
X0143797Y0261307D01*
X0143755Y0261332D01*
X0143716Y0261360D01*
X0143679Y0261391D01*
X0143645Y0261425D01*
X0143614Y0261462D01*
X0143586Y0261501D01*
X0143561Y0261543D01*
X0143540Y0261586D01*
X0143523Y0261631D01*
X0143509Y0261677D01*
X0143499Y0261724D01*
X0143493Y0261772D01*
X0143491Y0261820D01*
X0113981Y0299058D02*
X0113981Y0372558D01*
X0188981Y0372558D01*
X0188981Y0299058D01*
X0113981Y0299058D01*
D19*
X0230502Y0080665D03*
D20*
X0072953Y0120171D02*
X0072953Y0128045D01*
X0072953Y0151667D01*
X0072953Y0159541D01*
D21*
X0110218Y0099560D03*
D22*
X0137545Y0099933D02*
X0137545Y0102402D01*
X0137545Y0101167D02*
X0141248Y0101167D01*
X0139396Y0103616D02*
X0139396Y0106085D01*
X0137545Y0105467D02*
X0141248Y0105467D01*
X0139396Y0103616D02*
X0137545Y0105467D01*
M02*
