G75*
%MOIN*%
%OFA0B0*%
%FSLAX25Y25*%
%IPPOS*%
%LPD*%
%AMOC8*
5,1,8,0,0,1.08239X$1,22.5*
%
%ADD10R,0.04331X0.03937*%
%ADD11C,0.01181*%
%ADD12R,0.05906X0.06299*%
%ADD13R,0.03937X0.04331*%
%ADD14R,0.04724X0.01181*%
%ADD15R,0.01181X0.04724*%
%ADD16R,0.12598X0.07087*%
%ADD17R,0.01772X0.03937*%
%ADD18R,0.06102X0.05906*%
%ADD19R,0.05315X0.01575*%
%ADD20R,0.02756X0.01772*%
%ADD21R,0.03100X0.03500*%
%ADD22R,0.07087X0.09449*%
%ADD23R,0.06299X0.04724*%
%ADD24R,0.06299X0.12992*%
%ADD25R,0.02717X0.01102*%
%ADD26R,0.09843X0.09843*%
%ADD27R,0.01102X0.02717*%
%ADD28R,0.01969X0.02559*%
%ADD29R,0.02559X0.01969*%
%ADD30R,0.02362X0.17717*%
D10*
X0109142Y0087793D03*
X0115835Y0087793D03*
X0150016Y0084369D03*
X0156709Y0084369D03*
X0221035Y0053574D03*
X0227728Y0053574D03*
X0280586Y0162695D03*
X0287279Y0162695D03*
X0145455Y0267994D03*
X0145455Y0274687D03*
X0118188Y0263148D03*
X0111496Y0263148D03*
X0111527Y0255056D03*
X0118220Y0255056D03*
X0118227Y0247019D03*
X0111534Y0247019D03*
X0111450Y0238965D03*
X0118143Y0238965D03*
D11*
X0105481Y0238407D02*
X0105481Y0241163D01*
X0105481Y0238407D02*
X0102725Y0238407D01*
X0102725Y0241163D01*
X0105481Y0241163D01*
X0105481Y0239587D02*
X0102725Y0239587D01*
X0102725Y0240767D02*
X0105481Y0240767D01*
X0105655Y0246055D02*
X0105655Y0248811D01*
X0105655Y0246055D02*
X0102899Y0246055D01*
X0102899Y0248811D01*
X0105655Y0248811D01*
X0105655Y0247235D02*
X0102899Y0247235D01*
X0102899Y0248415D02*
X0105655Y0248415D01*
X0105582Y0253759D02*
X0105582Y0256515D01*
X0105582Y0253759D02*
X0102826Y0253759D01*
X0102826Y0256515D01*
X0105582Y0256515D01*
X0105582Y0254939D02*
X0102826Y0254939D01*
X0102826Y0256119D02*
X0105582Y0256119D01*
X0105652Y0261627D02*
X0105652Y0264383D01*
X0105652Y0261627D02*
X0102896Y0261627D01*
X0102896Y0264383D01*
X0105652Y0264383D01*
X0105652Y0262807D02*
X0102896Y0262807D01*
X0102896Y0263987D02*
X0105652Y0263987D01*
X0098747Y0264383D02*
X0098747Y0261627D01*
X0095991Y0261627D01*
X0095991Y0264383D01*
X0098747Y0264383D01*
X0098747Y0262807D02*
X0095991Y0262807D01*
X0095991Y0263987D02*
X0098747Y0263987D01*
X0098676Y0256515D02*
X0098676Y0253759D01*
X0095920Y0253759D01*
X0095920Y0256515D01*
X0098676Y0256515D01*
X0098676Y0254939D02*
X0095920Y0254939D01*
X0095920Y0256119D02*
X0098676Y0256119D01*
X0098749Y0248811D02*
X0098749Y0246055D01*
X0095993Y0246055D01*
X0095993Y0248811D01*
X0098749Y0248811D01*
X0098749Y0247235D02*
X0095993Y0247235D01*
X0095993Y0248415D02*
X0098749Y0248415D01*
X0098576Y0241163D02*
X0098576Y0238407D01*
X0095820Y0238407D01*
X0095820Y0241163D01*
X0098576Y0241163D01*
X0098576Y0239587D02*
X0095820Y0239587D01*
X0095820Y0240767D02*
X0098576Y0240767D01*
D12*
X0138078Y0213221D03*
X0147133Y0213221D03*
X0147133Y0203378D03*
X0138078Y0203378D03*
X0279846Y0181886D03*
X0288901Y0181886D03*
X0288901Y0172044D03*
X0279846Y0172044D03*
D13*
X0235098Y0080675D03*
X0235098Y0073982D03*
X0121532Y0165380D03*
X0121532Y0172073D03*
X0121217Y0202689D03*
X0121217Y0209382D03*
X0155824Y0209120D03*
X0155824Y0202427D03*
X0137165Y0259992D03*
X0137165Y0266685D03*
D14*
X0174001Y0180711D03*
X0174001Y0178743D03*
X0174001Y0176774D03*
X0174001Y0174806D03*
X0174001Y0172837D03*
X0174001Y0170869D03*
X0174001Y0168900D03*
X0174001Y0166932D03*
X0174001Y0164963D03*
X0174001Y0162995D03*
X0174001Y0161026D03*
X0174001Y0159058D03*
X0174001Y0157089D03*
X0174001Y0155121D03*
X0174001Y0153152D03*
X0174001Y0151184D03*
X0174001Y0149215D03*
X0174001Y0147247D03*
X0174001Y0145278D03*
X0174001Y0143310D03*
X0174001Y0141341D03*
X0174001Y0139373D03*
X0174001Y0137404D03*
X0174001Y0135436D03*
X0174001Y0133467D03*
X0235024Y0133467D03*
X0235024Y0135436D03*
X0235024Y0137404D03*
X0235024Y0139373D03*
X0235024Y0141341D03*
X0235024Y0143310D03*
X0235024Y0145278D03*
X0235024Y0147247D03*
X0235024Y0149215D03*
X0235024Y0151184D03*
X0235024Y0153152D03*
X0235024Y0155121D03*
X0235024Y0157089D03*
X0235024Y0159058D03*
X0235024Y0161026D03*
X0235024Y0162995D03*
X0235024Y0164963D03*
X0235024Y0166932D03*
X0235024Y0168900D03*
X0235024Y0170869D03*
X0235024Y0172837D03*
X0235024Y0174806D03*
X0235024Y0176774D03*
X0235024Y0178743D03*
X0235024Y0180711D03*
D15*
X0228135Y0187601D03*
X0226166Y0187601D03*
X0224198Y0187601D03*
X0222229Y0187601D03*
X0220261Y0187601D03*
X0218292Y0187601D03*
X0216324Y0187601D03*
X0214355Y0187601D03*
X0212387Y0187601D03*
X0210418Y0187601D03*
X0208450Y0187601D03*
X0206481Y0187601D03*
X0204513Y0187601D03*
X0202544Y0187601D03*
X0200576Y0187601D03*
X0198607Y0187601D03*
X0196639Y0187601D03*
X0194670Y0187601D03*
X0192702Y0187601D03*
X0190733Y0187601D03*
X0188765Y0187601D03*
X0186796Y0187601D03*
X0184828Y0187601D03*
X0182859Y0187601D03*
X0180891Y0187601D03*
X0180891Y0126577D03*
X0182859Y0126577D03*
X0184828Y0126577D03*
X0186796Y0126577D03*
X0188765Y0126577D03*
X0190733Y0126577D03*
X0192702Y0126577D03*
X0194670Y0126577D03*
X0196639Y0126577D03*
X0198607Y0126577D03*
X0200576Y0126577D03*
X0202544Y0126577D03*
X0204513Y0126577D03*
X0206481Y0126577D03*
X0208450Y0126577D03*
X0210418Y0126577D03*
X0212387Y0126577D03*
X0214355Y0126577D03*
X0216324Y0126577D03*
X0218292Y0126577D03*
X0220261Y0126577D03*
X0222229Y0126577D03*
X0224198Y0126577D03*
X0226166Y0126577D03*
X0228135Y0126577D03*
D16*
X0106257Y0166252D03*
X0106257Y0188299D03*
X0106257Y0203193D03*
X0106257Y0225240D03*
D17*
X0222136Y0083421D03*
X0224695Y0083421D03*
X0227254Y0083421D03*
X0229813Y0083421D03*
X0229813Y0073776D03*
X0227254Y0073776D03*
X0224695Y0073776D03*
X0222136Y0073776D03*
D18*
X0078662Y0135919D03*
X0078662Y0143793D03*
D19*
X0089292Y0144974D03*
X0089292Y0142415D03*
X0089292Y0139856D03*
X0089292Y0137297D03*
X0089292Y0134738D03*
D20*
X0095228Y0139348D03*
X0095228Y0142497D03*
X0101330Y0142497D03*
X0101330Y0139348D03*
D21*
X0107853Y0119397D03*
X0111653Y0111397D03*
X0104053Y0111397D03*
D22*
X0099381Y0099560D03*
X0115326Y0099560D03*
D23*
X0124799Y0097307D03*
X0124799Y0106362D03*
X0124799Y0088251D03*
D24*
X0149996Y0097307D03*
D25*
X0143933Y0248299D03*
X0143933Y0250267D03*
X0143933Y0252236D03*
X0143933Y0254204D03*
X0143933Y0256173D03*
X0143933Y0258141D03*
X0161216Y0258141D03*
X0161216Y0256173D03*
X0161216Y0254204D03*
X0161216Y0252236D03*
X0161216Y0250267D03*
X0161216Y0248299D03*
D26*
X0152574Y0253220D03*
D27*
X0151590Y0244578D03*
X0149622Y0244578D03*
X0147653Y0244578D03*
X0153559Y0244578D03*
X0155527Y0244578D03*
X0157496Y0244578D03*
X0157496Y0261862D03*
X0155527Y0261862D03*
X0153559Y0261862D03*
X0151590Y0261862D03*
X0149622Y0261862D03*
X0147653Y0261862D03*
D28*
X0173796Y0250196D03*
X0176945Y0250196D03*
X0180095Y0250196D03*
X0183245Y0250196D03*
X0183245Y0244882D03*
X0180095Y0244882D03*
X0176945Y0244882D03*
X0173796Y0244882D03*
X0158452Y0234679D03*
X0155303Y0234679D03*
X0152153Y0234679D03*
X0149003Y0234679D03*
X0149003Y0229364D03*
X0152153Y0229364D03*
X0155303Y0229364D03*
X0158452Y0229364D03*
D29*
X0209273Y0236983D03*
X0209273Y0240133D03*
X0209273Y0243282D03*
X0209273Y0246432D03*
X0214588Y0246432D03*
X0214588Y0243282D03*
X0214588Y0240133D03*
X0214588Y0236983D03*
D30*
X0092878Y0024602D03*
X0096028Y0024602D03*
X0099177Y0024602D03*
X0102327Y0024602D03*
X0105476Y0024602D03*
X0108626Y0024602D03*
X0111776Y0024602D03*
X0114925Y0024602D03*
X0118075Y0024602D03*
X0121224Y0024602D03*
X0124374Y0024602D03*
X0127524Y0024602D03*
X0130673Y0024602D03*
X0133823Y0024602D03*
X0136972Y0024602D03*
X0140122Y0024602D03*
X0143272Y0024602D03*
X0146421Y0024602D03*
X0149571Y0024602D03*
X0152721Y0024602D03*
X0155870Y0024602D03*
X0159020Y0024602D03*
X0162169Y0024602D03*
X0165319Y0024602D03*
X0168469Y0024602D03*
X0171618Y0024602D03*
X0174768Y0024602D03*
X0177917Y0024602D03*
X0181067Y0024602D03*
X0184217Y0024602D03*
X0187366Y0024602D03*
X0190516Y0024602D03*
X0206264Y0024602D03*
X0209413Y0024602D03*
X0212563Y0024602D03*
X0215713Y0024602D03*
X0218862Y0024602D03*
X0222012Y0024602D03*
X0225161Y0024602D03*
X0228311Y0024602D03*
X0231461Y0024602D03*
X0234610Y0024602D03*
X0237760Y0024602D03*
X0240909Y0024602D03*
X0244059Y0024602D03*
X0247209Y0024602D03*
X0250358Y0024602D03*
X0253508Y0024602D03*
X0256658Y0024602D03*
X0259807Y0024602D03*
X0262957Y0024602D03*
X0266106Y0024602D03*
X0269256Y0024602D03*
X0272406Y0024602D03*
X0275555Y0024602D03*
X0278705Y0024602D03*
X0281854Y0024602D03*
X0285004Y0024602D03*
X0288154Y0024602D03*
X0291303Y0024602D03*
M02*
