%
M48
M72
T01C0.01000
T02C0.02000
T03C0.02362
T04C0.03150
T05C0.03500
T06C0.03600
T07C0.04000
T08C0.04528
T09C0.06300
T10C0.12600
%
T01
X105796Y138849
X105486Y142647
X121833Y158669
X121188Y196722
X123888Y239542
X123445Y247475
X123476Y255116
X122928Y262977
X167898Y141858
X168167Y136200
X216300Y131891
T02
X226241Y133928
X237181Y126818
X228711Y153162
X229327Y159044
X228949Y163852
X223655Y167842
X228621Y171668
X228650Y176373
X223986Y181631
X238513Y195496
X226152Y198593
X220805Y198698
X204145Y165463
X184724Y181109
X173685Y195386
X179865Y168699
X179945Y137195
X179758Y132486
X200655Y133227
X223040Y92565
X226800Y89231
X242096Y79280
X180808Y81716
X148461Y78015
X129438Y119967
X140202Y126997
X136115Y133573
X131007Y165038
X154894Y222497
X163219Y224256
X176701Y235104
X183870Y228648
X167941Y245420
X167059Y240638
X165994Y252040
X152723Y240034
X143646Y238825
X144111Y244651
X142921Y261573
X160152Y266711
X167156Y276944
X155897Y289526
X181437Y263855
T03
X192870Y246466
X200047Y240861
X149262Y223053
X105994Y177336
X167569Y128861
X137203Y273900
T04
X89292Y149698
X89292Y130013
T05
X133981Y306558
X143981Y306558
X153981Y306558
X163981Y306558
X158981Y316558
X148981Y316558
X138981Y316558
X168981Y316558
T06
X174972Y219659
X174972Y209659
X184972Y209659
X194972Y209659
X204972Y209659
X214972Y209659
X224972Y209659
X234972Y209659
X234972Y219659
X224972Y219659
X214972Y219659
X204972Y219659
X194972Y219659
X184972Y219659
X156363Y192089
X156363Y182089
X156363Y172089
X156363Y162089
X156363Y152089
X156363Y142089
X156363Y132089
X156363Y122089
X146363Y122089
X146363Y132089
X146363Y142089
X146363Y152089
X146363Y162089
X146363Y172089
X146363Y182089
X146363Y192089
X169513Y108940
X179513Y108940
X189513Y108940
X199513Y108940
X209513Y108940
X219513Y108940
X229513Y108940
X239513Y108940
X239513Y98940
X229513Y98940
X219513Y98940
X209513Y98940
X199513Y98940
X189513Y98940
X179513Y98940
X169513Y98940
X252662Y122089
X262662Y122089
X262662Y132089
X252662Y132089
X252662Y142089
X262662Y142089
X262662Y152089
X252662Y152089
X252662Y162089
X262662Y162089
X262662Y172089
X252662Y172089
X252662Y182089
X262662Y182089
X262662Y192089
X252662Y192089
T07
X166381Y354858
X176381Y360858
X136581Y360858
X126581Y354858
T08
X78662Y125693
X78662Y154019
T09
X120481Y329558
X182481Y329558
T10
X173981Y341558
X128981Y341558
M30
